<svg xmlns="http://www.w3.org/2000/svg" viewBox="0 0 32 32">
  <path
    d="M0 12.907v3.76c0 3.56 7.16 6.44 16 6.44s16-2.88 16-6.44v-3.76c-3.44 2.76-9.747 4.187-16 4.187s-12.56-1.427-16-4.187z"
  />
  <path
    d="M0 21.8v3.76c0 3.56 7.16 6.44 16 6.44s16-2.88 16-6.44v-3.76c-3.44 2.76-9.747 4.187-16 4.187s-12.56-1.427-16-4.187z"
  />
  <path
    d="M16 14.427c2.4 0 4.68-0.213 6.72-0.6-0.693-0.48-1.16-1.28-1.16-2.2v-1.187h-1.2c-1.467 0-2.667-1.2-2.667-2.667v-3.907c0-0.92 0.467-1.733 1.173-2.213-0.92-0.067-1.88-0.107-2.867-0.107-8.84 0-16 2.88-16 6.44s7.16 6.44 16 6.44z"
  />
  <path
    d="M28.293 3.867s-0.107-0.053-0.16-0.080v-3.787h-3.907v3.867h-3.867v3.907h3.867v3.853h3.907v-3.853h3.867v-3.907h-3.707z"
  />
</svg>
