<svg xmlns="http://www.w3.org/2000/svg" viewBox="0 0 32 32">
  <path
    d="M26.97 5.696v17.209c-0.018 0.561-0.105 1.087-0.228 1.542-1.174 4.451-6.326 7.553-10.743 7.553s-9.551-3.102-10.743-7.553c-0.123-0.456-0.21-0.981-0.228-1.542v-17.209c0-1.087 0.859-2.138 1.577-2.821 1.858-1.507 3.628-2.348 5.135-2.786v8.535h-3.33c-0.421 0-1.122-0.035-0.631 0.719l7.308 9.393s0.158 0.14 0.28 0.158c0.245 0.105 0.613 0.105 0.613 0.105s0.35 0 0.596-0.105c0.123 0 0.193-0.123 0.28-0.158l7.308-9.393c0.491-0.754-0.21-0.719-0.631-0.719h-3.33v-8.622c1.525 0.438 3.33 1.349 5.205 2.874 0.701 0.683 1.56 1.735 1.56 2.821z"
  />
</svg>
