<svg xmlns="http://www.w3.org/2000/svg" viewBox="0 0 32 32">
  <path
    d="M28.945 0h-25.89c-1.686 0.003-3.052 1.369-3.055 3.055v25.89c0.003 1.686 1.369 3.052 3.055 3.055h25.89c1.686-0.003 3.052-1.369 3.055-3.055v-25.89c-0.003-1.686-1.369-3.052-3.055-3.055h-0zM12.5 25.045h-6.935c-0.734-0.045-1.312-0.651-1.312-1.392s0.578-1.347 1.308-1.392l0.004-0h6.935c0.025-0.002 0.054-0.003 0.083-0.003 0.77 0 1.395 0.625 1.395 1.395s-0.625 1.395-1.395 1.395c-0.029 0-0.059-0.001-0.087-0.003l0.004 0zM11.825 12.5c-1.804-0.001-3.34-1.147-3.921-2.751l-0.009-0.029h-2.33c-0.734-0.045-1.312-0.651-1.312-1.393s0.578-1.347 1.308-1.392l0.004-0h2.33c0.591-1.631 2.127-2.775 3.93-2.775 2.303 0 4.17 1.867 4.17 4.17s-1.867 4.17-4.17 4.17v0zM26.435 25.045h-2.33c-0.591 1.635-2.129 2.782-3.936 2.782-2.306 0-4.175-1.869-4.175-4.175s1.869-4.175 4.175-4.175c1.807 0 3.345 1.148 3.927 2.753l0.009 0.029h2.33c0.734 0.045 1.312 0.651 1.312 1.392s-0.578 1.347-1.308 1.392l-0.004 0zM26.435 9.74h-6.935c-0.025 0.002-0.054 0.002-0.083 0.002-0.77 0-1.395-0.625-1.395-1.395s0.625-1.395 1.395-1.395c0.029 0 0.059 0.001 0.087 0.003l-0.004-0h6.935c0.734 0.045 1.312 0.651 1.312 1.392s-0.578 1.347-1.308 1.392l-0.004 0z"
  />
</svg>
