<svg xmlns="http://www.w3.org/2000/svg" viewBox="0 0 32 32">
  <path
    d="M27.8 9.587c-2.156 0.002-3.93 1.633-4.158 3.728l-0.002 0.019-3.24 0.867c-0.464-0.597-1.077-1.056-1.785-1.324l-0.028-0.009v-3.533c1.567-0.633 2.653-2.142 2.653-3.905 0-2.32-1.88-4.2-4.2-4.2s-4.2 1.88-4.2 4.2c0 1.763 1.086 3.272 2.625 3.895l0.028 0.010v3.427c-0.372 0.145-0.693 0.329-0.982 0.553l0.009-0.007-6.16-3.36c0.003-0.054 0.005-0.117 0.005-0.18s-0.002-0.126-0.005-0.189l0 0.009c0-2.32-1.88-4.2-4.2-4.2s-4.2 1.88-4.2 4.2c0 2.32 1.88 4.2 4.2 4.2v0c1.071-0.002 2.045-0.412 2.776-1.083l-0.003 0.003 5.973 3.293c-0.010 0.104-0.015 0.225-0.015 0.347s0.005 0.243 0.016 0.362l-0.001-0.015c0.002 0.582 0.119 1.136 0.331 1.642l-0.011-0.028-4.667 4.533c-0.504-0.241-1.095-0.383-1.719-0.387h-0.001c-0.024-0-0.052-0.001-0.080-0.001-2.327 0-4.213 1.886-4.213 4.213s1.886 4.213 4.213 4.213c2.327 0 4.213-1.886 4.213-4.213v-0c0.001-0.034 0.002-0.074 0.002-0.113 0-0.556-0.113-1.085-0.318-1.566l0.010 0.026 4.667-4.533c0.502 0.236 1.090 0.373 1.711 0.373 0.003 0 0.006 0 0.010 0h-0c0.405-0.003 0.795-0.066 1.162-0.181l-0.028 0.008 1.333 2.067c-0.466 0.662-0.745 1.485-0.747 2.373v0c0 0.004-0 0.009-0 0.013 0 2.327 1.886 4.213 4.213 4.213s4.213-1.886 4.213-4.213c0-2.327-1.886-4.213-4.213-4.213v0c-0.317 0.001-0.625 0.040-0.92 0.112l0.027-0.006-1.467-2.227c0.293-0.473 0.492-1.034 0.558-1.635l0.002-0.018 3.253-0.867c0.772 1.055 2.007 1.733 3.399 1.733 2.32 0 4.2-1.88 4.2-4.2s-1.88-4.2-4.2-4.2c-0.014 0-0.028 0-0.041 0l0.002-0z"
  />
</svg>
