<svg xmlns="http://www.w3.org/2000/svg" viewBox="0 0 32 32">
  <path
    d="M19.933 7.227l2.867-3.853v4.907l1.907 0.427 1-0.853c-0.96-4.467-4.907-7.813-9.64-7.853l2.107 7.227h1.76z"
  />
  <path
    d="M9.2 8.28v-4.907l2.867 3.853h1.76l2.24-7.227s-0.040 0-0.067 0c-4.773 0-8.747 3.36-9.693 7.853l1 0.853 1.907-0.427z"
  />
  <path
    d="M22 13.133c0.467 1.347 0.733 2.853 0.733 4.467 0 5.48-3.013 9.92-6.747 9.92s-6.747-4.44-6.747-9.92c0-1.587 0.253-3.080 0.707-4.413-1.8 0.227-3.147 0.493-3.88 0.64v13.213c8.987 8.373 14.533 4.587 19.84 0v-13.213c-1.32-0.307-2.627-0.533-3.92-0.693z"
  />
</svg>
