<svg xmlns="http://www.w3.org/2000/svg" viewBox="0 0 32 32">
  <path
    d="M16.12 8.018c4.772 0.017 8.891 2.626 10.625 5.561v9.166c0 0.549-0.103 1.064-0.223 1.528-1.047 3.914-4.943 5.888-6.179 6.454-1.116 0.309-2.695 0.772-4.6 0.738-1.699-0.034-3.107-0.481-4.137-0.79-2.832-1.219-5.355-3.536-6.128-6.402-0.12-0.463-0.206-0.978-0.223-1.528v-9.097c1.905-3.261 5.922-5.647 10.865-5.63z"
  />
  <path
    d="M5.255 10.129c0.944-2.111 5.476-5.098 9.698-5.046 0 0-2.266-3.793-5.991-3.793-2.626 1.425-3.708 2.077-3.708 8.823z"
  />
  <path
    d="M12.344 0.276c1.39 0.189 4.326 1.682 5.064 4.858 0.566 0 2.3-0.017 4.137 0.944 0 0-0.824-7.604-9.218-5.802z"
  />
  <path
    d="M21.561 1.77s2.472 1.957 2.3 5.407c0 0 1.802 0.772 2.884 2.952 0-2.489 0.618-8.102-5.201-8.359z"
  />
  <path
    d="M28.771 25.045s-1.030 4.497-4.394 5.905c2.712 1.94 5.733 0.91 6.454-0.807 0.584-1.39-0.172-3.656-2.043-5.098z"
  />
</svg>
