<svg xmlns="http://www.w3.org/2000/svg" viewBox="0 0 1200 489">
  <g>
    <g>
      <path
        d="M1178,12H34A28,28,0,0,0,6,40V473a28,28,0,0,0,28,28H1178a28,28,0,0,0,28-28V40A28,28,0,0,0,1178,12Zm25,460c0,15.46-11.54,26-27,26H35c-15.46,0-26-10.54-26-26V41C9,25.54,19.54,15,35,15H1176c15.46,0,27,10.54,27,26Z"
        transform="translate(-6 -12)"
      />
    </g>
  </g>
  <g>
    <g>
      <path
        d="M292,171c-11.86,13.43-26,14-26,14-6-.71-2-8-2-8l17-20v-2H268l-3,2h-1c-3.86-6.71-19-3-19-3-24.71,5.86-29,24-29,24-5.71.57-14-1-14-1l-3-1,12-15c15.83-4.5,23-12,23-12,16.67-11,24-23,24-23,3.5-4.83,0-8,0-8-19.67-.67-39,20-39,20-10.33,8.17-31,32-31,32-5.17-3.67-8-2-8-2-3.67,2.17,0,7,0,7l-16,5c-14.17,3.67-10-3-10-3l10-15,2-1c21.5-9,24.83-12.83,37-23,14.5-13.5,12-18,12-18-1.17-8.17-19.5,2.5-27,7-20,14.17-31,28-31,28s-14,15.67-17,18-5.5,3.33-12,6c-12.33,5.33-8-3-8-3l49-58v-1H152l-3,3-4-2c-11.71-4.14-28.1.8-32,2-8.57,3.57-17.5,7.61-24,12-24.29,16.57-27.8,30-30,38-3.43,18.71,14,20,14,20,14.43,0,24.79-5.81,25-5-.43,5.14,7,5,7,5,17.86-1.86,27-7,27-7a7.27,7.27,0,0,0,3,5c5.29,2.71,12.86,1.57,21-1s21-6,21-6l-21,24c-15,15.29-23,16-23,16-10.43,3.14-18-5-18-5l-4,4,8,5c16,5.71,32-4,32-4,21.14-12.29,43-39,43-39l2-2c5.57,3.86,20,1,20,1,1.57,8,7,8,7,8,12.43,3.43,23-4,23-4,2.29,4.86,6,5,6,5,19.43,2.71,34-8,34-8,10.29-6,12-11,12-11Zm-60-35c5.81-5.38,12.46-12.22,17-12,0,0,1.64,4.49-3,9,0,0-8.27,10.16-25,20,0,0-4,1.85-5,1C216,154,226.19,141.38,232,136Zm-31-11s4.83-2.33,4,1c0,0,1.17,2.92-9,13,0,0-15.78,14.22-25,15C171,154,191.42,129.92,201,125Zm-96,47c-3.5,2.6-12,8.86-21,7-4-1.13-10-3.43-8-12,1.59-5.38,7.29-16,19-26a137.55,137.55,0,0,1,33-19,28.93,28.93,0,0,1,9,0s7.29,3.14,4,8-4.86,6.71-13,16S109.43,167.71,105,172Zm154-8s-2.07,5.52-9,12c0,0-2.44,4.1-10,6,0,0-9.53,2.57-9-5,0,0,.73-8.27,11-15a24.73,24.73,0,0,1,13-5S262.59,157.66,259,164Zm384-14v2c-1.6,7.1-11,9-11,9-.38-13.27-20-8-20-8-25,8.24-30,26-30,26a45.25,45.25,0,0,1-19,4c-10.77-2-9-6-9-6,11-3.58,16-7,16-7,14.48-8.11,11-15,11-15-1.83-6.51-20,0-20,0-17.44,6.94-22,22-22,22l-1,1c-3.52,3.32-12,4-12,4-7.15.59-5-3-5-3a177.16,177.16,0,0,0,14-17c5.15-9.25-7-6-7-6l-19,5h-1c2.85-7.09-7-6-7-6l-16,5-4,1c1-7.37-7-6-7-6-4.8.35-25,7-25,7l-2-1c-.91-15.74-26-5-26-5-20.33,8.35-23,22-23,22-1.88,2.22-6,3-6,3a16.43,16.43,0,0,1-8,1c-3.25-2.56,1-8,1-8,5.85-11,4-15,4-15l8-3c13.05-5.92,16.5-10.88,19-17,4.87-18.8-13-27-13-27l5-5h-8l-3,3c-18.52-5.81-36.52-1.92-49,2-27.86,13.07-30.67,25-32,31-3.58,18,17,18,17,18l10-9c.48-1.18-1-1-1-1a56.64,56.64,0,0,1-9-2c-11.56-7-2-18-2-18,10.59-13.9,29-16,29-16,14.34-3.14,28,1,28,1-7.35,5.68-36,40-36,40-12.46,14-23,18-23,18a17.48,17.48,0,0,1-17-3s-15.24,13.65-14,14c9.3,6.2,26,4,26,4,16.91-3.38,27-17,27-17,8.5-9.54,14-17,14-17l3,4c3,3.81,10,2,10,2,2.28.45,0,3,0,3l-10,13c-5.8,5.2-6,8-6,8-.68,6.48,10,5,10,5a146.86,146.86,0,0,0,26-7,17.08,17.08,0,0,0,3,4c9.91,7,24-1,24-1,17.71-8.58,21-19,21-19,4.26-2.05,12-2,12-2,3.36,1.3,0,5,0,5l-16,20h14l21-24c6.3-3.05,10-2,10-2,2.44,1.12,0,5,0,5l-17,21h14l17-20c6-6.47,13-6,13-6,2.81,1.26,0,4,0,4l-11,13c-3,3-1,7-1,7,2.89,3.85,14,1,14,1,13.73-2.84,22-7,22-7a19,19,0,0,0,3,4c3.19,7.61,22,3,22,3a108.68,108.68,0,0,0,19-7c1.5,7.46,9,8,9,8,18.6-.6,28-9,28-9a45.47,45.47,0,0,0,12-14,17,17,0,0,0,6-3c12.85-6.43,13-14,13-14ZM394,119c11.9,4.06,9,17,9,17-1.68,9.63-17,17-17,17-1.66-4-9-5-9-5-4.62-1-7,0-7,0Zm-13,37-2,1c-8.93.71-9-4-9-4,.73-2.33,4-2,4-2C383.17,153.41,381,156,381,156Zm61,7v2a6.45,6.45,0,0,0-5,4s-1.37,1.18-2,5a26,26,0,0,1-10,7s-10.28,3.16-11-3c0,0-.85-5.72,6-11,3.64-3.88,9.19-9.35,14-10,0,0,3.49-.33,4,0C438,157,445.42,157.22,442,163Zm121-3s5.76-3.79,10-4c1.11.25,3,2.78-4,9,0,0-4,4.44-16,9C553,174,552.93,165.48,563,160Zm62,5s-5.42,1.75-6,9a30.07,30.07,0,0,1-13,8s-7.83.92-8-3c0,0-1.67-8.33,10-16,0,0,.35-1.45,7-5,0,0,12-2.5,11,3A4.09,4.09,0,0,1,625,165Z"
        transform="translate(-6 -12)"
      />
    </g>
  </g>
  <g>
    <g>
      <path
        d="M265.82,239.2h-23v36.21c0,1,.52,1.49,1.55,1.49h5.21V262.37h15.69v-4.16a1.31,1.31,0,0,0-1.49-1.48h-14.2v-12h17.73v-4.1A1.31,1.31,0,0,0,265.82,239.2Zm22.45,1.43a1.55,1.55,0,0,0-1.24-.43,14.33,14.33,0,0,0-4,1q-2.79,1-8.19,3.31l-3,1.37v3.72a1,1,0,0,0,1.17,1.18,4.17,4.17,0,0,0,.56-.07,4.63,4.63,0,0,0,1-.31l7.51-2.91v28c0,1,.51,1.49,1.55,1.49h5.08V241.68A1.55,1.55,0,0,0,288.27,240.63Z"
        transform="translate(-6 -12)"
      />
    </g>
  </g>
  <g>
    <g>
      <path
        d="M315,245.91h9.23V277h6.89V245.91h10.3V238H315Zm41.42,15.26H369.7v-6.6H356.41v-10h16.95V238H349.52v39h24.11V270.3H356.41ZM388.17,239l-9.05,38h6.57l2.59-9.52h12.2l2.61,9.52h7l-9.17-38Zm1.45,22,5.73-16.23L399.12,261Zm55.59-23-8.51,30.26L428.39,238H418.18v42h5.76V244.13l9.7,35.86h5l9.89-35.83V280H455V238Z"
        transform="translate(-6 -12)"
      />
    </g>
  </g>
  <g>
    <g>
      <path
        d="M295,238h0a4,4,0,1,0,4,4A4,4,0,0,0,295,238Zm0,7.17a3.19,3.19,0,0,1-.05-6.37h0a3.07,3.07,0,0,1,3,3.21A3,3,0,0,1,295,245.17Zm.87-3.06v-.05a1,1,0,0,0,.41-1.8A2.08,2.08,0,0,0,295,240a10.28,10.28,0,0,0-1.5.12v4h.9v-1.59h.43c.5,0,.74.2.81.61a3.26,3.26,0,0,0,.31,1h.95a3.76,3.76,0,0,1-.29-1C296.48,242.55,296.29,242.23,295.91,242.11Zm-1.06-.29h-.43v-1.15a2.51,2.51,0,0,1,.5,0c.57,0,.83.24.83.6S295.34,241.82,294.85,241.82Z"
        transform="translate(-6 -12)"
      />
    </g>
  </g>
  <g>
    <g>
      <rect height="176" width="3" x="672" y="92" />
    </g>
  </g>
  <g>
    <g>
      <path
        d="M736.53,162l-19.53.42V218h19.11s15.92-.95,17.83-16.86v-23.6S752.25,163.53,736.53,162Zm3.4,18.54V199c-.42,5-3.4,4.64-3.4,4.64h-5.94v-27.4h5.52C740.57,177.43,739.93,180.49,739.93,180.49Zm173.43-18.66c-4.29-1.19-6.1-1-9.08-.19a17.74,17.74,0,0,0-10.35,6.79,18.64,18.64,0,0,0-3.81,9.18v24.47A19.3,19.3,0,0,0,902,217.61a15.06,15.06,0,0,0,10.95.66c4.93-1.44,11.79-5.21,14.05-15.32V177.61S925.82,165.29,913.36,161.83Zm-.37,38.5a5,5,0,0,1-4.66,4.37s-4.23-.9-4.66-3.93V180.23s1-4.73,4.66-4.37a4.77,4.77,0,0,1,4.66,3.93ZM796.71,161.5l-4.66,56.35-7.17-22.19a21.42,21.42,0,0,0,7.21-14.75s.11-9.59-6.79-14.33c0,0-3.29-3.27-10.62-4.63H754.73V218h14V199.45h3l6.8,18.55h27.54l1.27-13.91h6.35l1.7,13.91h14l-5.09-56.5Zm-22.45,23.63h-5.52v-8.86l5.52-.42a4.83,4.83,0,0,1,3.82,4.22C778.19,184,774.26,185.13,774.26,185.13Zm33.91,9.27,1.7-18.13h1.68l1.27,18.13Zm143-5.06L941.78,162H928.19V218h13.59V190.6l9.34,27.4h14V162h-14ZM1156,175.66V161.72h-37.67v56.61h37.25V204h-22.86v-9.29h18.62V185h-19v-9.29Zm-129.47-13.94-4.65,56.18h14l1.27-13.94h6.78l1.69,13.94h14l-5.08-56.18ZM1038,194.25l1.69-18.17h2.12l1.27,18.17Zm50.77,9.29-14-41.82h-14v56.61h14V190.45l9.31,27.88h9.31l9.31-28.31v28.31h14V161.72h-14Zm-113-.92a7.08,7.08,0,1,0,7.1,7.08A7.08,7.08,0,0,0,975.78,202.62Zm30.81.44h-4a4.67,4.67,0,0,1-3.46-1.42,3.86,3.86,0,0,1-1.42-3V179.8a4.81,4.81,0,0,1,1.42-3.5,4.67,4.67,0,0,1,3.46-1.42c1.36,0,1.63.47,2.57,1.42a4.81,4.81,0,0,1,1.42,3.5l14.17-4.92a10.35,10.35,0,0,0-1.56-5c-2.67-4-4.65-6-9.05-7.62a21.7,21.7,0,0,0-7.55-1.28,18.21,18.21,0,0,0-7.56,1.13,20.14,20.14,0,0,0-6.19,4.23,18.36,18.36,0,0,0-4.19,5.8,19,19,0,0,0-1.56,7.63v16.57a25.86,25.86,0,0,0,1.56,9A19.87,19.87,0,0,0,995,215.8a18.21,18.21,0,0,0,7.56,1.13h18.61V193.67h-14.62ZM868.82,156c9.27,1.29,18,7.81,19.7,8.71s5.05.12,10.71-6c3.69-4,2.09-5.36,2.09-5.36s-2.69,2.17-7.46-.29-5.66-3.84-5.66-3.84a3.74,3.74,0,0,0,2-4.63c-1-3.95-14.89-6.95-18-8.17-10.59-4.19.89-7.81.89-7.81s-10.86-3-12.94,3.91c-1.51,5,5.32,8.08,5.32,8.08-21,0-39.24,18.26-37.4,44.55,3,43.11,59.88,32.52,61.09,30.1l-4.43-30.46,3-7.46a51.19,51.19,0,0,1-9.75,0c-5.72-.63-11.22-1.73-11.22-1.73a14.44,14.44,0,0,0-.25,3.39c.26,4.65,1.88,5.49,1.88,5.49l5.82,2.68.15,10.81c.14-.14-25.26,5.1-29.58-14.16C841.45,168.74,852.17,153.7,868.82,156Z"
        transform="translate(-6 -12)"
      />
    </g>
  </g>
  <g>
    <g>
      <path
        d="M303.6,367q-7.92,0-12.08,5.92t-4.16,17.41q0,11.58,4.19,17.47t12.08,5.89q7.86,0,12-5.9t4.13-17.46q0-11.55-4.16-17.44T303.6,367ZM310,403.08c-1.25,3-3.38,4.54-6.4,4.54a6.63,6.63,0,0,1-6.63-4.69q-1.81-4.69-1.82-12.56T297,377.76q1.85-4.63,6.5-4.63c3.1,0,5.28,1.54,6.52,4.61s1.86,7.28,1.86,12.63S311.29,400.05,310,403.08Zm27.65,9.82h7.46V393.26h14.05v-6H345.14V373.82h17.55v-6h-25Zm39.59,0h7.46V393.26h14v-6h-14V373.82h17.55v-6h-25Zm39.59,0h7.45v-45h-7.45Zm42-39.7q6.45,0,7.57,10.23l6.93-1Q471.2,367,458.8,367q-8,0-12.26,6.07t-4.25,17.46q0,10.56,4,16.86t12.23,6.3q12.63,0,14.74-15l-6.87-1A18.06,18.06,0,0,1,464,405a5.79,5.79,0,0,1-5.15,2.52q-8.62,0-8.63-16.56Q450.21,373.2,458.84,373.2Zm31.42,39.7h7.46v-45h-7.46Zm35.37-45-13,45h7.11l2.8-11.29h13.21l2.83,11.29h7.55l-12.1-45ZM524,395.74l5.12-20.63,5.16,20.63Zm44.89,10.85V367.85h-7.46v45h23.4v-6.31Z"
        transform="translate(-6 -12)"
      />
    </g>
  </g>
  <g>
    <g id="PARTNER-2">
      <path
        d="M649,370.86a30.83,30.83,0,0,0-8.68-1H629.16v45h7.45V397.31h3.87q6.46,0,9.58-1.42a10.9,10.9,0,0,0,5-4.62,15.09,15.09,0,0,0,1.85-7.66,14.72,14.72,0,0,0-2.28-8.3A10.28,10.28,0,0,0,649,370.86Zm-1.83,18.63q-1.9,1.85-6.85,1.85h-3.7V375.63h3.7a18.61,18.61,0,0,1,4.74.44,5.23,5.23,0,0,1,2.75,2.38,9.06,9.06,0,0,1,1.26,5C649.06,386.25,648.42,388.26,647.16,389.49Zm36-19.64-13,45h7.11l2.8-11.29h13.21l2.83,11.29h7.55l-12.1-45Zm-1.67,27.89,5.11-20.63,5.17,20.63Zm66.7-15q0-6.22-3.5-9.57t-10.86-3.33H720.28v45h7.46V396.09h7l7,18.81h8.09l-8.55-20.36Q748.2,391.08,748.2,382.75Zm-9.13,5.45q-1.8,2.12-5.62,2.11h-5.71V375.63h5.77q7.37,0,7.36,7.06A8.2,8.2,0,0,1,739.07,388.2Zm23.64-12h10V414.9h7.45V376.19h10.07v-6.34H762.71ZM829,402.32l-14.81-32.47H805.4v45h6.23V378.83l16.64,36.07h7v-45H829Zm34.24-7.62h14.39v-6H863.23V375.82h18.35v-6h-25.8v45h26.1v-6.11H863.23Zm56.82-.16q6.9-3.46,6.9-11.79,0-6.22-3.5-9.57t-10.86-3.33H899v45h7.46V396.09h7l7,18.81h8.09Zm-2.23-6.34c-1.2,1.41-3.07,2.11-5.63,2.11h-5.7V375.63h5.77q7.37,0,7.36,7.06A8.2,8.2,0,0,1,917.82,388.2Z"
        transform="translate(-6 -12)"
      />
    </g>
  </g>
</svg>
