<svg xmlns="http://www.w3.org/2000/svg" viewBox="0 0 32 32">
  <path
    d="M8.903 0.402l6.628 6.628c0.521 0.521 0.521 1.365 0 1.886l-6.628 6.628c-0.521 0.521-1.365 0.521-1.886 0l-6.628-6.628c-0.521-0.521-0.521-1.365 0-1.886l6.628-6.628c0.521-0.521 1.365-0.521 1.886 0z"
  />
  <path
    d="M19.333 1.947h9.373c0.736 0 1.333 0.597 1.333 1.333v9.373c0 0.736-0.597 1.333-1.333 1.333h-9.373c-0.736 0-1.333-0.597-1.333-1.333v-9.373c0-0.736 0.597-1.333 1.333-1.333z"
  />
  <path
    d="M3.28 18h9.373c0.736 0 1.333 0.597 1.333 1.333v9.373c0 0.736-0.597 1.333-1.333 1.333h-9.373c-0.736 0-1.333-0.597-1.333-1.333v-9.373c0-0.736 0.597-1.333 1.333-1.333z"
  />
  <path
    d="M19.333 18h9.373c0.736 0 1.333 0.597 1.333 1.333v9.373c0 0.736-0.597 1.333-1.333 1.333h-9.373c-0.736 0-1.333-0.597-1.333-1.333v-9.373c0-0.736 0.597-1.333 1.333-1.333z"
  />
</svg>
