<svg xmlns="http://www.w3.org/2000/svg" viewBox="0 0 32 32">
  <path
    d="M11.714 13.857h-8.571c-1.183 0-2.143-0.959-2.143-2.143v0-8.571c0-1.183 0.959-2.143 2.143-2.143v0h8.571c1.183 0 2.143 0.959 2.143 2.143v0 8.571c0 1.183-0.959 2.143-2.143 2.143v0zM31 11.714v-8.571c0-1.183-0.959-2.143-2.143-2.143v0h-8.571c-1.183 0-2.143 0.959-2.143 2.143v0 8.571c0 1.183 0.959 2.143 2.143 2.143v0h8.571c1.183 0 2.143-0.959 2.143-2.143v0zM13.857 28.857v-8.571c0-1.183-0.959-2.143-2.143-2.143v0h-8.571c-1.183 0-2.143 0.959-2.143 2.143v0 8.571c0 1.183 0.959 2.143 2.143 2.143v0h8.571c1.183 0 2.143-0.959 2.143-2.143v0zM31 28.857v-8.571c0-1.183-0.959-2.143-2.143-2.143v0h-8.571c-1.183 0-2.143 0.959-2.143 2.143v0 8.571c0 1.183 0.959 2.143 2.143 2.143v0h8.571c1.183 0 2.143-0.959 2.143-2.143v0z"
  />
</svg>
