<svg xmlns="http://www.w3.org/2000/svg" viewBox="0 0 32 32">
  <path
    d="M26.809 8.64v-2.578c0-1.067-0.853-2.116-1.529-2.773h-0.018c-1.102-0.889-2.169-1.547-3.182-2.044 0 0-0.018 0-0.036-0.018-0.462-0.231-0.907-0.409-1.333-0.569l-0.16-0.053c-0.142-0.053-0.284-0.107-0.409-0.142h-0.107c-0.249-0.071-0.498-0.142-0.711-0.196-1.138-0.231-2.258-0.267-3.324-0.267-0.693 0-2.222-0.036-4.16 0.533h-0.036s-0.124 0.036-0.178 0.053c-0.249 0.071-0.48 0.16-0.747 0.249-0.196 0.071-0.409 0.16-0.604 0.249-0.231 0.107-0.48 0.213-0.729 0.338-0.196 0.089-0.373 0.213-0.569 0.32-0.284 0.16-0.569 0.32-0.871 0.516-0.053 0.036-0.107 0.071-0.16 0.107-0.409 0.267-0.818 0.551-1.227 0.889-0.693 0.676-1.529 1.707-1.529 2.773v2.489c7.058 2.027 13.902 2.080 21.618 0.124z"
  />
  <path
    d="M20.569 24.036l6.24-6.72v-5.92c-3.769 0.907-7.36 1.369-10.862 1.369s-7.164-0.516-10.756-1.476v6.027l6.24 6.72-6.187-0.498c0.036 0.373 0.107 0.711 0.178 1.013 0.018 0.071 0.053 0.142 0.071 0.196 0.107 0.373 0.249 0.729 0.427 1.084 0.089 0.213 0.196 0.409 0.32 0.604 0.107 0.178 0.213 0.338 0.338 0.516 2.027 3.058 5.956 5.049 9.44 5.049 1.422 0 2.933-0.356 4.356-0.96h0.018c0.107-0.036 0.213-0.089 0.32-0.142 0.16-0.071 0.32-0.142 0.48-0.231 0.373-0.196 0.747-0.409 1.102-0.64 0.16-0.107 0.32-0.213 0.462-0.32 0.302-0.213 0.587-0.427 0.853-0.676 0.16-0.142 0.32-0.284 0.462-0.427 0.249-0.249 0.48-0.498 0.711-0.764 0.16-0.196 0.32-0.391 0.462-0.604 0.196-0.284 0.391-0.569 0.551-0.871 0.089-0.16 0.178-0.338 0.267-0.498 0.196-0.409 0.373-0.836 0.498-1.28 0 0 0-0.036 0-0.053 0.089-0.302 0.142-0.64 0.178-0.996l-6.204 0.498z"
  />
</svg>
