<svg xmlns="http://www.w3.org/2000/svg" viewBox="0 0 32 32">
  <path
    d="M3.95 3.115c0.055 0 0.075 0.030 0.1 0.050 0.889 0.594 1.945 1.014 3.083 1.185l0.042 0.005c0.323 0.045 0.697 0.070 1.076 0.070 1.321 0 2.57-0.31 3.677-0.862l-0.048 0.022c1.51-0.685 2.763-1.707 3.702-2.975l0.018-0.025c0.132-0.169 0.264-0.36 0.385-0.558l0.015-0.027 0.105 0.175c0.622 0.957 1.391 1.76 2.284 2.402l0.026 0.018c1.062 0.792 2.328 1.376 3.703 1.664l0.062 0.011c0.48 0.109 1.031 0.171 1.597 0.171 1.576 0 3.039-0.482 4.249-1.307l-0.026 0.017c0.007-0.004 0.016-0.006 0.025-0.006s0.018 0.002 0.025 0.006l-0-0c0.005 0.017 0.007 0.035 0.007 0.055s-0.003 0.038-0.008 0.056l0-0.001q0 10.37 0 20.745c-0.009 0.905-0.353 1.728-0.913 2.353l0.003-0.003c-0.595 0.674-1.341 1.2-2.187 1.527l-0.038 0.013c-0.769 0.322-1.664 0.57-2.596 0.703l-0.059 0.007c-1.079 0.143-2.054 0.397-2.977 0.755l0.087-0.030c-1.374 0.534-2.504 1.445-3.294 2.606l-0.016 0.024c0 0.040-0.040 0.105-0.1 0-0.857-1.27-2.087-2.231-3.531-2.735l-0.049-0.015c-0.717-0.261-1.561-0.471-2.433-0.592l-0.067-0.008c-1.143-0.147-2.181-0.442-3.147-0.869l0.072 0.029c-0.755-0.326-1.394-0.786-1.916-1.356l-0.004-0.004c-0.586-0.645-0.945-1.506-0.945-2.451 0-0.017 0-0.034 0-0.052l-0 0.003v-20.795zM22.22 8.215s0 0 0 0v0c0.025-0.035 0-0.070 0-0.11-0.095-0.305-0.19-0.615-0.29-0.925-0.007-0.013-0.012-0.029-0.012-0.045 0-0.037 0.021-0.068 0.051-0.084l0.001-0 0.55-0.41 0.32-0.245c-0.017-0.007-0.037-0.010-0.058-0.010s-0.040 0.004-0.059 0.011l0.001-0h-0.935c-0.006 0.001-0.014 0.002-0.021 0.002-0.063 0-0.114-0.046-0.124-0.106l-0-0.001c-0.11-0.33-0.23-0.66-0.35-1l-0.035 0.090c-0.11 0.31-0.215 0.615-0.32 0.925-0.009 0.055-0.057 0.096-0.113 0.096-0.006 0-0.012-0-0.017-0.001l0.001 0h-0.93c-0.017-0.006-0.037-0.009-0.058-0.009s-0.040 0.003-0.059 0.009l0.001-0c0 0.030 0.040 0.040 0.060 0.055 0.26 0.195 0.5 0.395 0.78 0.585 0.042 0.026 0.069 0.071 0.069 0.123 0 0.022-0.005 0.044-0.014 0.063l0-0.001c-0.1 0.295-0.19 0.595-0.28 0.895 0 0.030-0.040 0.060 0 0.095v0 0 0c0.032-0.009 0.059-0.027 0.080-0.050l0-0 0.79-0.55c0.025 0 0.050-0.055 0.1 0zM22.22 11.96v0s0 0 0 0v0c0.035-0.040 0-0.075 0-0.11-0.095-0.31-0.19-0.62-0.29-0.925-0.008-0.014-0.012-0.030-0.012-0.047 0-0.038 0.021-0.070 0.051-0.087l0-0c0.275-0.2 0.545-0.405 0.81-0.61 0 0 0.055 0 0.055-0.065-0.35 0-0.7 0-1.045 0-0.005 0.001-0.011 0.001-0.017 0.001-0.058 0-0.106-0.041-0.117-0.095l-0-0.001c-0.11-0.335-0.23-0.665-0.35-1l-0.035 0.090c-0.105 0.3-0.215 0.595-0.31 0.895-0.011 0.070-0.071 0.123-0.143 0.123-0.011 0-0.022-0.001-0.033-0.004l0.001 0c-0.31 0-0.625 0-0.94 0-0.025 0-0.055 0-0.075 0l0.59 0.445c0.11 0.085 0.27 0.15 0.31 0.26s-0.060 0.27-0.1 0.405c-0.075 0.235-0.145 0.465-0.225 0.72l0.895-0.625c0.025 0 0.050-0.055 0.1 0 0.285 0.21 0.59 0.405 0.88 0.63zM9.76 11.96c0.205-0.12 0.385-0.265 0.58-0.4l0.355-0.24 0.36 0.245 0.575 0.4c0-0.030 0-0.045 0-0.065-0.090-0.295-0.18-0.595-0.28-0.885-0.015-0.026-0.023-0.058-0.023-0.091 0-0.073 0.041-0.137 0.102-0.169l0.001-0.001c0.275-0.195 0.54-0.405 0.815-0.61-0.016-0.007-0.035-0.010-0.055-0.010s-0.039 0.004-0.056 0.011l0.001-0c-0.32 0-0.635 0-0.955 0-0.004 0-0.008 0.001-0.013 0.001-0.052 0-0.096-0.036-0.107-0.085l-0-0.001c-0.1-0.3-0.205-0.6-0.31-0.895 0-0.035 0-0.080-0.055-0.105-0.115 0.325-0.23 0.645-0.335 0.965-0.030 0.090-0.065 0.125-0.165 0.12-0.315 0-0.635 0-0.95 0-0.025 0-0.055 0-0.080 0l0.865 0.65c0.034 0.018 0.056 0.053 0.056 0.093 0 0.017-0.004 0.033-0.011 0.048l0-0.001c-0.1 0.305-0.195 0.615-0.29 0.925 0 0.035-0.035 0.065 0 0.1v0zM16 13.1h-10.5c-0.105 0-0.13 0-0.13 0.13q0 5.385 0 10.765c-0 0.007-0 0.014-0 0.022 0 0.507 0.177 0.972 0.473 1.337l-0.003-0.004c0.399 0.485 0.901 0.87 1.474 1.125l0.026 0.010c0.757 0.351 1.634 0.614 2.555 0.744l0.050 0.006c1.144 0.165 2.174 0.443 3.149 0.828l-0.094-0.033c1.146 0.425 2.123 1.062 2.93 1.87l0 0c0.045 0.040 0.070 0.040 0.115 0 0.554-0.561 1.2-1.029 1.913-1.381l0.042-0.019c1.125-0.58 2.432-1.008 3.811-1.212l0.069-0.008c0.863-0.123 1.638-0.325 2.376-0.605l-0.076 0.025c0.687-0.238 1.275-0.607 1.761-1.081l-0.001 0.001c0.406-0.375 0.661-0.907 0.67-1.498l0-0.002v-10.895c0-0.1 0-0.125-0.125-0.125zM13.255 11.715c0-0.055 0-0.095 0-0.13s0-0.085 0-0.13c0.182-1.205 0.511-2.29 0.972-3.302l-0.032 0.077c0.080-0.175 0.080-0.17-0.105-0.23-0.090-0.030-0.24 0-0.255-0.085s0.075-0.175 0.115-0.265 0.060-0.070 0.125-0.060c0.446 0.096 0.84 0.269 1.186 0.507l-0.011-0.007c0.175 0.12 0.175 0.12 0.060 0.31-0.025 0.032-0.047 0.068-0.064 0.107l-0.001 0.003c0 0.055-0.055 0.045-0.095 0s-0.205-0.135-0.3-0.205-0.105-0.050-0.15 0.035c-0.543 0.953-0.984 2.057-1.263 3.224l-0.017 0.086c-0.030 0.135 0 0.17 0.13 0.16s0.29-0.040 0.435-0.065c0.973-0.146 1.849-0.455 2.638-0.9l-0.038 0.020c0.994-0.545 1.763-1.397 2.188-2.428l0.012-0.032c0.253-0.618 0.401-1.336 0.401-2.088 0-0.524-0.071-1.031-0.205-1.512l0.009 0.040c-0.063-0.26-0.142-0.485-0.24-0.699l0.010 0.024c-0.065-0.135-0.12-0.15-0.24-0.075-0.381 0.265-0.715 0.55-1.018 0.863l-0.002 0.002c-0.050 0.050-0.035 0.070 0 0.1l0.305 0.2c0.060 0.040 0.055 0.070 0 0.11-0.071 0.058-0.134 0.117-0.194 0.179l-0.001 0.001c-0.040 0.045-0.070 0.045-0.115 0-0.211-0.168-0.451-0.314-0.709-0.427l-0.021-0.008c-0.155-0.070-0.315-0.115-0.5-0.175l0.115-0.080c0.26-0.18 0.26-0.18 0.56-0.070 0.020 0.014 0.045 0.022 0.073 0.022s0.052-0.008 0.073-0.022l-0 0c0.328-0.25 0.698-0.48 1.091-0.673l0.039-0.017 0.285-0.1c0-0.030-0.030 0-0.050 0-0.046-0.006-0.099-0.009-0.152-0.009s-0.107 0.003-0.159 0.010l0.006-0.001c-0.75 0.017-1.459 0.171-2.109 0.439l0.039-0.014c-1.413 0.532-2.502 1.645-2.989 3.040l-0.011 0.035c-0.193 0.571-0.304 1.229-0.304 1.912s0.111 1.341 0.316 1.956l-0.013-0.044c0.049 0.149 0.112 0.278 0.189 0.397l-0.004-0.007zM5 10.135c0 0.050 0.055 0.065 0.080 0.085l0.65 0.5c0.2 0.155 0.2 0.155 0.125 0.395s-0.18 0.575-0.27 0.87c0.044-0.007 0.082-0.028 0.11-0.060l0-0 0.6-0.42c0.080-0.055 0.16-0.15 0.24-0.15s0.16 0.095 0.24 0.15c0.23 0.16 0.455 0.325 0.69 0.5 0.006-0.013 0.010-0.029 0.010-0.045s-0.004-0.032-0.010-0.046l0 0.001c-0.095-0.31-0.19-0.62-0.29-0.925-0.008-0.016-0.013-0.035-0.013-0.054 0-0.045 0.025-0.085 0.062-0.105l0.001-0c0.27-0.195 0.53-0.395 0.795-0.595 0 0 0.055 0 0.050-0.070h-1.070c-0.075 0-0.1-0.025-0.125-0.095-0.11-0.33-0.23-0.66-0.345-1-0.040 0-0.040 0.060-0.050 0.095-0.1 0.285-0.21 0.565-0.295 0.855-0.013 0.082-0.083 0.144-0.168 0.144-0.013 0-0.026-0.001-0.038-0.004l0.001 0zM7.465 8.235c0.006-0.013 0.010-0.029 0.010-0.045s-0.004-0.032-0.010-0.046l0 0.001c-0.095-0.31-0.19-0.62-0.29-0.925-0.007-0.015-0.011-0.033-0.011-0.052 0-0.046 0.024-0.085 0.061-0.107l0.001-0c0.27-0.195 0.53-0.395 0.795-0.595 0 0 0.055 0 0.055-0.070h-1.040c-0.005 0.001-0.011 0.001-0.017 0.001-0.069 0-0.126-0.050-0.138-0.115l-0-0.001c-0.105-0.325-0.225-0.65-0.335-1-0.040 0-0.040 0.060-0.050 0.090-0.090 0.245-0.175 0.5-0.26 0.735s-0.090 0.26-0.365 0.26h-0.87c0 0.050 0.045 0.060 0.065 0.075l0.6 0.45c0.085 0.065 0.205 0.115 0.24 0.2s-0.045 0.205-0.080 0.31c-0.080 0.265-0.16 0.53-0.245 0.795 0.050 0 0.070-0.030 0.1-0.050 0.26-0.18 0.5-0.36 0.775-0.545 0.020-0.018 0.046-0.030 0.075-0.030s0.055 0.011 0.075 0.030l-0-0c0.13 0.1 0.265 0.19 0.4 0.285zM11.65 8.235l-0.025-0.075q-0.145-0.5-0.3-0.96c-0.006-0.014-0.010-0.031-0.010-0.048 0-0.046 0.026-0.086 0.064-0.106l0.001-0 0.42-0.31 0.44-0.335c-0.017-0.005-0.037-0.009-0.057-0.009s-0.040 0.003-0.059 0.009l0.001-0q-0.465 0-0.93 0c-0.006 0.001-0.014 0.002-0.021 0.002-0.065 0-0.119-0.048-0.129-0.111l-0-0.001c-0.095-0.29-0.2-0.585-0.3-0.875 0-0.035 0-0.080-0.055-0.1-0.115 0.33-0.235 0.655-0.345 1-0.009 0.058-0.059 0.101-0.118 0.101-0.006 0-0.012-0-0.017-0.001l0.001 0h-1.065l0.1 0.085c0.26 0.195 0.5 0.39 0.78 0.58 0.033 0.019 0.055 0.055 0.055 0.095 0 0.016-0.004 0.032-0.010 0.046l0-0.001c-0.105 0.315-0.2 0.63-0.295 0.945 0 0.025-0.030 0.050 0 0.085 0.275-0.19 0.55-0.38 0.82-0.575 0.027-0.029 0.065-0.048 0.107-0.048s0.081 0.018 0.107 0.048l0 0c0.265 0.18 0.54 0.365 0.84 0.575zM26.405 11.935c0-0.035 0-0.060 0-0.090-0.095-0.305-0.19-0.615-0.29-0.925-0.008-0.015-0.013-0.033-0.013-0.053 0-0.044 0.025-0.083 0.062-0.102l0.001-0c0.275-0.2 0.54-0.405 0.81-0.61 0 0 0.050 0 0.035-0.055-0.345 0-0.695 0-1.045 0-0.005 0.001-0.011 0.001-0.017 0.001-0.054 0-0.099-0.039-0.108-0.091l-0-0.001-0.345-1c-0.030 0-0.030 0.035-0.040 0.055-0.11 0.315-0.225 0.635-0.33 0.955-0.009 0.044-0.047 0.076-0.093 0.076-0.004 0-0.008-0-0.012-0.001l0 0c-0.17 0-0.335 0-0.5 0h-0.575c0 0.045 0.050 0.060 0.080 0.080l0.79 0.6c0.030 0.013 0.051 0.043 0.051 0.078 0 0.015-0.004 0.030-0.011 0.042l0-0-0.27 0.855c0 0.060-0.030 0.115-0.055 0.2l0.865-0.61c0.022-0.023 0.053-0.038 0.087-0.038s0.066 0.015 0.087 0.038l0 0c0.275 0.22 0.555 0.415 0.835 0.61zM23.955 6.36v0.025l0.040 0.030 0.825 0.62c0.030 0.016 0.050 0.048 0.050 0.083 0 0.015-0.004 0.029-0.010 0.042l0-0.001c-0.035 0.105-0.065 0.21-0.1 0.315l-0.23 0.74 0.88-0.62c0.019-0.019 0.046-0.032 0.075-0.032s0.056 0.012 0.075 0.032l0 0c0.095 0.075 0.2 0.145 0.305 0.215l0.545 0.385c0.007-0.011 0.012-0.025 0.012-0.040s-0.004-0.029-0.012-0.040l0 0c-0.090-0.3-0.18-0.6-0.28-0.895-0.012-0.022-0.019-0.048-0.019-0.076 0-0.063 0.036-0.117 0.088-0.143l0.001-0c0.28-0.2 0.55-0.41 0.825-0.62-0.016-0.007-0.035-0.011-0.055-0.011s-0.039 0.004-0.056 0.011l0.001-0c-0.295 0-0.59 0-0.885 0-0.009 0.002-0.020 0.003-0.031 0.003-0.089 0-0.162-0.066-0.174-0.152l-0-0.001c-0.1-0.315-0.215-0.625-0.335-0.955l-0.045 0.105c-0.1 0.29-0.205 0.58-0.3 0.875-0.012 0.072-0.074 0.127-0.148 0.127-0.008 0-0.015-0.001-0.023-0.002l0.001 0c-0.35-0.010-0.685-0.005-1.020-0.005z"
  />
  <path
    d="M8.84 19.345v4.34c-0 0.004-0.001 0.010-0.001 0.015 0 0.062 0.032 0.117 0.080 0.15l0.001 0c0.2 0.145 0.39 0.3 0.59 0.445 0.040 0.027 0.065 0.073 0.065 0.124 0 0.004-0 0.008-0 0.012l0-0c0 0.405 0 0.805 0 1.21 0 0.080 0 0.090-0.1 0.070l-3-0.765c-0.070 0-0.1-0.040-0.1-0.12 0-0.335 0-0.67 0-1-0.001-0.004-0.001-0.009-0.001-0.014 0-0.048 0.032-0.088 0.075-0.101l0.001-0c0.19-0.065 0.375-0.145 0.56-0.21 0.058-0.014 0.101-0.065 0.101-0.127 0-0.006-0-0.013-0.001-0.019l0 0.001c0-0.76 0-1.5 0-2.28 0-1.675 0-3.355 0-5.035 0.001-0.006 0.002-0.014 0.002-0.022 0-0.065-0.042-0.119-0.101-0.138l-0.001-0c-0.195-0.090-0.385-0.19-0.58-0.285-0.044-0.013-0.075-0.053-0.075-0.101 0-0.003 0-0.006 0-0.010l-0 0q0-0.6 0-1.2c0-0.065 0-0.085 0.085-0.085h2.255c0.085 0 0.1 0.050 0.115 0.105q0.68 2.085 1.355 4.17 0.415 1.245 0.815 2.5c0 0.030 0 0.065 0.040 0.085 0.005-0.016 0.007-0.034 0.007-0.052s-0.003-0.037-0.008-0.054l0 0.001v-4.91c0.001-0.007 0.002-0.016 0.002-0.025 0-0.064-0.040-0.118-0.096-0.14l-0.001-0c-0.17-0.085-0.33-0.185-0.5-0.275-0.039-0.018-0.065-0.056-0.065-0.1 0-0.002 0-0.003 0-0.005v0c0-0.405 0-0.805 0-1.21 0-0.060 0-0.075 0.080-0.075h2.83c0.060 0 0.080 0 0.080 0.075v1.21c0.001 0.004 0.001 0.009 0.001 0.015 0 0.042-0.025 0.078-0.060 0.095l-0.001 0-0.5 0.28c-0.051 0.025-0.086 0.076-0.086 0.136 0 0.005 0 0.010 0.001 0.015l-0-0.001v10.41c0 0.13 0 0.13-0.12 0.095-0.46-0.14-0.915-0.28-1.37-0.41-0.069-0.015-0.122-0.067-0.14-0.134l-0-0.001q-1.075-3.29-2.19-6.575c-0.008-0.021-0.017-0.048-0.024-0.075l-0.001-0.005z"
  />
  <path
    d="M17.195 28.030l-0.915-0.34-2.17-0.81c-0.055-0.011-0.096-0.060-0.096-0.118 0-0.006 0-0.012 0.001-0.018l-0 0.001q0-0.5 0-0.96c-0.001-0.004-0.001-0.009-0.001-0.014 0-0.050 0.034-0.093 0.080-0.106l0.001-0c0.175-0.065 0.345-0.14 0.5-0.21 0.059-0.015 0.101-0.068 0.101-0.131 0-0.007-0.001-0.013-0.001-0.020l0 0.001v-9.275c0.001-0.006 0.001-0.012 0.001-0.019 0-0.060-0.037-0.111-0.090-0.131l-0.001-0c-0.18-0.085-0.35-0.18-0.525-0.265-0.047-0.018-0.079-0.063-0.080-0.115v-0q0-0.59 0-1.185c0-0.080 0.025-0.1 0.105-0.1h5.34c0.080 0 0.105 0 0.105 0.1 0 0.85 0 1.705 0 2.555 0 0.075 0 0.105-0.1 0.105-0.34 0-0.685 0-1 0-0.005 0.001-0.010 0.001-0.016 0.001-0.053 0-0.097-0.039-0.104-0.091l-0-0.001c-0.1-0.32-0.21-0.64-0.31-0.96 0-0.060-0.045-0.085-0.11-0.085q-0.615 0-1.23 0c-0.075 0-0.095 0.025-0.095 0.095q0 1.5 0 3c0 0.070 0 0.095 0.090 0.095h0.89c0.005 0.001 0.010 0.001 0.015 0.001 0.045 0 0.084-0.024 0.104-0.060l0-0.001 0.315-0.47c0.022-0.042 0.065-0.070 0.115-0.070 0.002 0 0.003 0 0.005 0h0.68c0.060 0 0.075 0 0.075 0.080v2.68c0 0.065 0 0.080-0.080 0.080h-0.695c-0.003 0-0.006 0-0.009 0-0.044 0-0.081-0.024-0.101-0.060l-0-0.001c-0.105-0.155-0.215-0.305-0.315-0.46-0.023-0.036-0.064-0.060-0.11-0.060-0.002 0-0.004 0-0.006 0h-0.92c-0.065 0-0.080 0-0.080 0.085v5.1c0 0.001-0 0.002-0 0.003 0 0.048 0.019 0.091 0.050 0.123l-0-0 0.535 0.635c0.031 0.032 0.050 0.075 0.050 0.122 0 0.001 0 0.002-0 0.003v-0z"
  />
  <path
    d="M20.070 26.43v-1.33c0.002-0.040 0.023-0.074 0.055-0.095l0-0 0.67-0.545c0.040-0.029 0.065-0.076 0.065-0.129 0-0.002-0-0.004-0-0.006v0-8.3c0-0.004 0.001-0.009 0.001-0.013 0-0.053-0.033-0.098-0.080-0.117l-0.001-0c-0.175-0.085-0.345-0.18-0.5-0.27-0.044-0.013-0.075-0.053-0.075-0.101 0-0.003 0-0.006 0-0.010l-0 0c0-0.405 0-0.805 0-1.21 0-0.065 0-0.090 0.090-0.090h3c0.065 0 0.080 0 0.080 0.080v1.205c0 0.004 0.001 0.008 0.001 0.012 0 0.047-0.029 0.086-0.070 0.102l-0.001 0-0.445 0.25c-0.066 0.025-0.111 0.087-0.111 0.16 0 0.007 0 0.014 0.001 0.021l-0-0.001q0 3.405 0 6.81c0 0.315 0 0.635 0 0.95 0 0.075 0 0.095 0.090 0.070l1.205-0.325c0.060 0 0.075-0.040 0.085-0.1l0.225-1.81c0-0.195 0-0.195 0.215-0.195h1c0.070 0 0.090 0 0.090 0.085v3.315c0 0.065 0 0.090-0.080 0.105l-5.45 1.455z"
  />
  <path
    d="M14.28 7.105c0.075-0.12 0.15-0.23 0.22-0.345 0-0.040 0.050 0 0.080 0 0.521 0.118 0.977 0.344 1.361 0.655l-0.006-0.005c0.045 0.035 0.040 0.060 0 0.1-0.051 0.066-0.102 0.141-0.149 0.219l-0.006 0.011c-0.040 0.065-0.065 0.070-0.13 0-0.318-0.255-0.696-0.452-1.108-0.565l-0.022-0.005z"
  />
  <path
    d="M15.14 6c0.169 0.030 0.318 0.073 0.46 0.13l-0.015-0.005c0.351 0.13 0.656 0.299 0.929 0.506l-0.009-0.006c0.055 0.040 0.060 0.070 0 0.12s-0.125 0.155-0.185 0.235-0.050 0.045-0.090 0c-0.374-0.312-0.826-0.542-1.323-0.656l-0.022-0.004c-0.050 0-0.065-0.025-0.030-0.070s0.14-0.16 0.205-0.245 0.050-0.040 0.080-0.005z"
  />
  <path
    d="M15.5 5.58c0.125-0.105 0.235-0.195 0.34-0.29 0.025 0 0.050 0 0.080 0 0.48 0.128 0.898 0.343 1.257 0.63l-0.007-0.005c0.050 0.040 0.040 0.060 0 0.1s-0.15 0.215-0.25 0.235-0.18-0.115-0.275-0.175c-0.327-0.223-0.71-0.394-1.122-0.49l-0.023-0.005z"
  />
</svg>
