<svg xmlns="http://www.w3.org/2000/svg" viewBox="0 0 32 32">
  <path
    d="M14.588 10.466c-0.889 1.577-1.412 3.461-1.412 5.468s0.524 3.892 1.441 5.525l-0.029-0.057c-0.422 0.115-0.908 0.183-1.409 0.188l-0.003 0c-3.119 0-5.647-2.528-5.647-5.647s2.528-5.647 5.647-5.647v0c0.006-0 0.013-0 0.020-0 0.494 0 0.974 0.062 1.432 0.178l-0.040-0.009zM4.518 12.235c-0.479 1.091-0.757 2.362-0.757 3.699s0.279 2.608 0.781 3.759l-0.024-0.061c-0.113 0.009-0.244 0.014-0.376 0.014s-0.264-0.005-0.394-0.015l0.017 0.001c-2.079 0-3.765-1.686-3.765-3.765s1.685-3.765 3.765-3.765v0c0.283 0.028 0.539 0.075 0.788 0.14l-0.035-0.008zM24.471 23.529c-4.158 0-7.529-3.371-7.529-7.529s3.371-7.529 7.529-7.529c4.158 0 7.529 3.371 7.529 7.529v0c-0.032 4.108-3.348 7.431-7.45 7.473l-0.004 0z"
  />
</svg>
