<svg xmlns="http://www.w3.org/2000/svg" viewBox="0 0 32 32">
  <path
    d="M0.060 10.66c0.2-0.4 0.415-0.795 0.61-1.205 1-2.165 2.025-4.335 3.060-6.56l3.66 7.825h-2.225c-0.042-0.241-0.1-0.453-0.174-0.657l0.009 0.027c-0.46-1.050-0.95-2.090-1.46-3.215l-0.63 1.33c0.295 0.175 0.67-0.125 0.875 0.2 0.131 0.231 0.273 0.52 0.401 0.817l0.024 0.063c-0.535 0-1.030 0-1.5 0-0.019-0.004-0.041-0.006-0.063-0.006-0.162 0-0.299 0.109-0.342 0.258l-0.001 0.002c-0.135 0.385-0.475 0.71-0.315 1.19h-1.93z"
  />
  <path
    d="M25 10.67c-0.58 0-1.11 0-1.645 0-0.1 0-0.22-0.13-0.285-0.225-0.62-0.91-1.225-1.83-1.835-2.74-0.050-0.082-0.112-0.151-0.183-0.209l-0.002-0.001c0.050 1.050-0.185 2.11 0.14 3.165h-1.915v-5.5c0.555 0 1.095 0 1.635 0 0.1 0 0.21 0.145 0.28 0.25l1.84 2.735 0.165 0.22v-3.2h1.945c-0.063 0.328-0.112 0.726-0.138 1.13l-0.002 0.030c0 1.31 0 2.625 0 3.935z"
  />
  <path
    d="M13.575 10.935c-0.545 0-1.085 0-1.63 0-0.196-0.024-0.369-0.111-0.5-0.24l0 0c-0.2-0.199-0.37-0.428-0.503-0.68l-0.007-0.015c-0.415-0.815-0.8-1.65-1.225-2.53 0.36 0 0.655 0 0.945 0 0.605 0 0.815-0.225 0.84-0.83 0-0.165 0-0.33 0-0.5h-1.955c0 0.12 0 0.215 0 0.31 0 1.090 0 2.18 0 3.265 0.032 0.358 0.091 0.685 0.174 1.001l-0.009-0.041h-1.975v-0.355c0-1.4 0-2.8 0-4.2-0.039-0.354-0.106-0.674-0.2-0.983l0.010 0.038h5.6c-0.030 0.615 0 1.225-0.095 1.825-0.094 0.489-0.414 0.887-0.846 1.086l-0.009 0.004-0.335 0.17c0.45 0.95 0.84 1.945 1.72 2.675z"
  />
  <path
    d="M13.865 10.645v-5.5h4.735v1.14c-0.945-0.445-1.96-0.11-2.97-0.25v1.415h2.405c-0.142 0.348-0.277 0.627-0.424 0.898l0.024-0.048c-0.040 0.070-0.19 0.095-0.29 0.095-0.565 0-1.13 0-1.715 0v1.34c1-0.090 2 0.175 2.975-0.195v1.1z"
  />
  <path
    d="M29.075 4.725c0.675 1.44 1.36 2.93 2.070 4.405 0.25 0.53 0.57 1.030 0.855 1.54-0.455 0-1 0-1.5 0-0.095 0-0.22-0.16-0.27-0.27-0.545-1.155-1.080-2.31-1.615-3.47-0.028-0.046-0.056-0.085-0.086-0.122l0.001 0.002-0.75 1.625c0.315 0 0.585 0 0.855 0 0.021-0.004 0.044-0.007 0.069-0.007 0.161 0 0.297 0.107 0.34 0.254l0.001 0.002c0.080 0.215 0.19 0.415 0.315 0.68-0.535 0-1.030 0-1.5 0-0.043-0.011-0.093-0.018-0.145-0.018-0.293 0-0.538 0.211-0.59 0.489l-0.001 0.004c-0.075 0.27-0.145 0.535-0.23 0.845h-1.695c0.3-0.625 0.54-1.185 0.8-1.78 0.54-1.165 1.095-2.325 1.63-3.5 0.071-0.167 0.224-0.285 0.408-0.305l0.002-0c0.416-0.123 0.76-0.251 1.093-0.398l-0.058 0.023z"
  />
  <path
    d="M32 26.835c-0.7 0-1.3 0-1.895 0-0.199-0.026-0.373-0.121-0.499-0.259l-0.001-0.001c-0.213-0.205-0.394-0.44-0.537-0.7l-0.008-0.015c-0.5-0.965-0.945-1.95-1.445-3 0.385 0 0.705 0 1 0 0.61 0 0.83-0.225 0.87-0.84 0-0.18 0-0.365 0-0.575h-1.985c-0.22 0.71-0.065 4.35 0.21 4.795h-2.165v-0.37c0-1.46 0-2.925 0-4.385-0.038-0.395-0.106-0.755-0.205-1.103l0.010 0.043h5.885c-0.030 0.71 0.12 1.425-0.115 2.12-0.218 0.542-0.656 0.956-1.201 1.136l-0.014 0.004c0.56 1.12 0.935 2.315 2.095 3.15z"
  />
  <path
    d="M24.855 23.32c0 0.004 0 0.010 0 0.015 0 1.731-1.404 3.135-3.135 3.135s-3.135-1.404-3.135-3.135c0-1.724 1.392-3.124 3.114-3.135h0.001c0.006-0 0.013-0 0.020-0 1.726 0 3.126 1.395 3.135 3.119v0.001zM23.33 23.245c0-0.055 0-0.195-0.040-0.33-0.111-0.711-0.649-1.271-1.339-1.413l-0.011-0.002c-0.066-0.010-0.142-0.016-0.219-0.016-0.621 0-1.154 0.378-1.382 0.916l-0.004 0.010c-0.147 0.271-0.233 0.594-0.233 0.937 0 0.451 0.15 0.868 0.402 1.203l-0.004-0.005c0.264 0.396 0.709 0.653 1.214 0.653 0.461 0 0.872-0.215 1.139-0.55l0.002-0.003c0.297-0.347 0.478-0.801 0.478-1.297 0-0.036-0.001-0.072-0.003-0.108l0 0.005z"
  />
  <path
    d="M10.395 22.14l-0.81 1.74c0.355 0 0.65 0 0.95 0 0.019-0.004 0.041-0.006 0.063-0.006 0.157 0 0.29 0.105 0.331 0.248l0.001 0.002c0.085 0.235 0.21 0.46 0.34 0.74-0.655 0-1.26 0-1.87 0-0.018-0.003-0.039-0.005-0.060-0.005-0.17 0-0.313 0.113-0.359 0.267l-0.001 0.003c-0.135 0.36-0.39 0.695-0.19 1.115h-1.915c0.5-1.125 1.030-2.225 1.545-3.32 0.345-0.75 0.695-1.5 1.035-2.24 0.069-0.169 0.223-0.289 0.408-0.31l0.002-0c0.365-0.090 0.715-0.235 1.12-0.375l0.885 1.865c0.535 1.135 1.060 2.275 1.63 3.415 0.16 0.33 0.375 0.63 0.58 0.97-0.53 0-1.090 0-1.645 0-0.070 0-0.16-0.14-0.205-0.235-0.575-1.225-1.145-2.455-1.72-3.68z"
  />
  <path
    d="M4.24 29.105l-0.99-2.105c-0.885-1.925-1.75-3.84-2.665-5.74-0.185-0.327-0.379-0.608-0.594-0.871l0.009 0.011c0.206 0.015 0.447 0.024 0.69 0.024s0.484-0.009 0.722-0.026l-0.032 0.002c0.75-0.105 1.1 0.19 1.395 0.885 0.725 1.715 1.575 3.44 2.385 5.155 0.050 0.090 0.079 0.196 0.079 0.31s-0.029 0.22-0.080 0.313l0.002-0.003c-0.305 0.655-0.595 1.32-0.92 2.045z"
  />
  <path
    d="M16.385 25.28c0.695-0.065 1.35 0.13 1.935-0.18l0.84 1.125h-4.625c0-0.105 0-0.23 0-0.35v-4.42c0.005-0.039 0.007-0.085 0.007-0.132 0-0.359-0.159-0.68-0.411-0.897l-0.002-0.001h2.27z"
  />
  <path
    d="M5.5 26.26c-0.295-0.61-0.57-1.155-0.815-1.715-0.005-0.027-0.008-0.058-0.008-0.090 0-0.096 0.027-0.186 0.074-0.262l-0.001 0.002c0.47-1 0.955-2 1.415-3 0.077-0.221 0.137-0.48 0.168-0.747l0.002-0.018h1.915z"
  />
  <path
    d="M14.65 13c0.004-0 0.010-0 0.015-0 1.472 0 2.665 1.193 2.665 2.665s-1.193 2.665-2.665 2.665c-1.472 0-2.665-1.193-2.665-2.665 0-0.004 0-0.007 0-0.011v0.001c0.019-1.457 1.194-2.633 2.648-2.655l0.002-0zM14.705 14.095c-0.798 0.038-1.43 0.694-1.43 1.498 0 0.011 0 0.022 0 0.033l-0-0.002c-0.001 0.023-0.002 0.050-0.002 0.077 0 0.789 0.581 1.443 1.338 1.557l0.009 0.001c0.803-0.064 1.43-0.732 1.43-1.545 0-0.002 0-0.003 0-0.005v0c0.004-0.043 0.007-0.092 0.007-0.142 0-0.776-0.59-1.415-1.345-1.492l-0.006-0.001z"
  />
  <path
    d="M21.85 13.23v0.795h-2.535v1.22h1.97c-0.26 1.32-1.305 0.615-1.945 0.95-0.38 0.9 0.57 2.39-1.185 2.815v-5.78z"
  />
</svg>
