<svg xmlns="http://www.w3.org/2000/svg" viewBox="0 0 32 32">
  <path
    d="M9.76 2.13q1.56 5.64 3.115 11.29c0.26 0.95 0.5 1.905 0.8 2.84 0.052 0.114 0.082 0.248 0.082 0.389 0 0.297-0.134 0.563-0.345 0.74l-0.002 0.001c-0.94 0.94-1.83 1.93-2.83 3-0.255-0.41-0.405-0.64-0.545-0.88q-4.77-8.265-9.535-16.51c-0.173-0.269-0.337-0.497-0.513-0.717l0.013 0.017c0.163-0.072 0.351-0.126 0.549-0.154l0.011-0.001c3.065-0.020 6.135-0.015 9.2-0.015z"
  />
  <path
    d="M32 2.29c-0.34 0.53-0.695 1.055-1 1.595-1.125 1.93-2.255 3.86-3.355 5.805-0.099 0.277-0.36 0.471-0.665 0.471-0.099 0-0.194-0.021-0.28-0.058l0.005 0.002c-4.705-1.295-9.41-2.555-14.095-3.86-0.319-0.143-0.56-0.409-0.668-0.736l-0.002-0.009c-0.345-1.115-0.61-2.26-0.9-3.39q10.165 0 20.32 0c0.24 0.037 0.455 0.1 0.658 0.187l-0.018-0.007z"
  />
  <path
    d="M16.095 29.875c-1.595-2.79-3.13-5.46-4.64-8.15-0.024-0.069-0.038-0.148-0.038-0.231 0-0.162 0.054-0.311 0.145-0.431l-0.001 0.002q5.22-5.35 10.5-10.655c0.139-0.135 0.329-0.218 0.539-0.218 0.023 0 0.046 0.001 0.069 0.003l-0.003-0c1.34 0.33 2.67 0.705 4.075 1.090z"
  />
  <path d="M14.745 15.26l-2.1-7.62 7.935 2.055z" />
</svg>
