<svg xmlns="http://www.w3.org/2000/svg" viewBox="0 0 32 32">
  <path
    d="M27.76 6.067c0.703-0.589 1.147-1.467 1.147-2.449 0-1.76-1.427-3.187-3.187-3.187s-3.187 1.427-3.187 3.187c0 0.782 0.282 1.499 0.75 2.054l-0.004-0.005c0.586 0.701 1.461 1.143 2.439 1.143 0.779 0 1.493-0.281 2.046-0.747l-0.005 0.004z"
  />
  <path
    d="M28.747 9.413l-1.613 3.653-3.067-5.213c-0.118-0.202-0.269-0.37-0.449-0.503l-0.004-0.003-7.173-5.493c-0.294-0.221-0.665-0.353-1.067-0.353-0.094 0-0.187 0.007-0.277 0.021l0.010-0.001-7.88 1.333 0.613 3.507 7.107-1.253 3.587 2.733-4.493 5.333c-0.437 0.439-0.707 1.044-0.707 1.712 0 0.003 0 0.006 0 0.009v-0c0 0.001 0 0.003 0 0.004 0 0.828 0.42 1.559 1.058 1.99l0.008 0.005 4.947 2.853-5.333 4 2.067 2.667 7.427-5.64c0.41-0.318 0.671-0.81 0.671-1.363 0-0.041-0.001-0.082-0.004-0.123l0 0.005c-0.052-0.575-0.385-1.063-0.858-1.329l-0.009-0.004-3.147-1.693 2.773-3.307 2.893 4.907c0.313 0.53 0.882 0.88 1.532 0.88 0 0 0.001 0 0.002 0h0.093c0.685-0.044 1.262-0.465 1.529-1.055l0.005-0.011 3.013-6.84z"
  />
  <path
    d="M11.547 16.32l-3.453 5.813-8 6.667 2.187 2.667 8.267-6.88c0.151-0.121 0.275-0.267 0.369-0.433l0.004-0.007 3.067-5.16c-1.151-0.512-2.029-1.463-2.431-2.635l-0.009-0.031z"
  />
</svg>
