<svg xmlns="http://www.w3.org/2000/svg" viewBox="0 0 1024 1024">
  <path
    d="M512 1024C229.239467 1024 0 794.760533 0 512 0 229.205333 229.239467 0 512 0 794.760533 0 1024 229.205333 1024 512 1024 794.760533 794.760533 1024 512 1024ZM512 68.232533C266.922667 68.232533 68.266667 266.922667 68.266667 511.965867 68.266667 757.0432 266.922667 955.6992 512 955.6992 757.077333 955.6992 955.733333 757.0432 955.733333 511.965867 955.733333 266.922667 757.077333 68.232533 512 68.232533ZM529.066667 819.165867 494.933333 819.165867C485.512533 819.165867 477.866667 811.52 477.866667 802.0992L477.866667 733.832533C477.866667 724.411733 485.512533 716.765867 494.933333 716.765867L529.066667 716.765867C538.487467 716.765867 546.133333 724.411733 546.133333 733.832533L546.133333 802.0992C546.133333 811.52 538.487467 819.165867 529.066667 819.165867ZM529.066667 682.632533 494.933333 682.632533C485.512533 682.632533 477.866667 674.986667 477.866667 665.565867L477.866667 221.866667C477.866667 212.411733 485.512533 204.8 494.933333 204.8L529.066667 204.8C538.487467 204.8 546.133333 212.411733 546.133333 221.866667L546.133333 665.565867C546.133333 674.986667 538.487467 682.632533 529.066667 682.632533Z"
    fill="#ffffff"
    p-id="9123"
  />
</svg>
