<svg xmlns="http://www.w3.org/2000/svg" viewBox="0 0 32 32">
  <path
    d="M31.16 16.56c-0.541-1.887-1.24-3.528-2.112-5.059l0.059 0.112-1.733 1.72-1.893-1.88 2.147-2.12c-0.427-0.587-0.88-1.147-1.333-1.68l-3.013 3.013-1.947-1.933 3-2.987c-0.502-0.459-1.045-0.9-1.613-1.31l-0.053-0.037-2.107 2.147-1.893-1.893 1.747-1.747c-1.419-0.814-3.060-1.514-4.787-2.014l-0.16-0.040c-1.861-0.544-3.998-0.856-6.209-0.856-0.133 0-0.265 0.001-0.398 0.003l0.020-0c-3.891 0.118-7.162 2.646-8.38 6.136l-0.020 0.064 9.667-2.2 1.013 1.013-1.16-3.227 4.96 4.973-4.947 9.933 0.107 0.107 7.68-7.2 7.147 7.133-1.867 2.173-4.413-4.427-1.333 1.333 2.933 2.947-1.707 1.907-3.040-3.040-3.080 3.080-6.12-6.12 1.013-1.627-3.667-3.627-1.987 0.653-1.68-1.68v0.573c-0.002 0.11-0.003 0.24-0.003 0.37 0 2.203 0.308 4.334 0.883 6.353l-0.040-0.163c2.186 7.628 8.068 13.514 15.533 15.667l0.16 0.040c1.859 0.544 3.994 0.857 6.202 0.857 0.135 0 0.27-0.001 0.405-0.003l-0.020 0h0.573l-5.72-5.72 7.587-8.947 4.52 4.533-3.307-1.333 0.947 0.947-4.507 5.827 3.72 3.72c2.945-1.493 4.954-4.453 5.066-7.892l0-0.015c0.002-0.11 0.003-0.24 0.003-0.37 0-2.203-0.308-4.334-0.883-6.353l0.040 0.163z"
  />
  <path d="M11.013 7.093l-0.16-0.16-4.92 1.627 2.56 2.56 2.52-4.027z" />
</svg>
