<svg xmlns="http://www.w3.org/2000/svg" viewBox="0 0 32 32">
  <path
    d="M20 16.167c-0.024-0.001-0.051-0.001-0.079-0.001-2.084 0-3.773 1.689-3.773 3.773s1.689 3.773 3.773 3.773c2.060 0 3.735-1.651 3.773-3.702l0-0.004c0-0.020 0.001-0.044 0.001-0.067 0-2.056-1.644-3.728-3.69-3.772l-0.004-0z"
  />
  <path
    d="M23.827 1.553v-1.627l-6.88 3.987 6.88 3.973v-1.627h3.453v19.373h-3.64v4.72h8.36v-28.8h-8.173z"
  />
  <path
    d="M8.173 25.74h-3.453v-19.48h3.667v-4.707h-8.387v28.907h8.173v1.613l6.88-3.973-6.88-3.973v1.613z"
  />
  <path
    d="M12.067 8.313c-2.084 0-3.773 1.689-3.773 3.773s1.689 3.773 3.773 3.773c2.084 0 3.773-1.689 3.773-3.773 0-0.005 0-0.009-0-0.014v0.001c0 0 0 0 0-0 0-2.077-1.683-3.76-3.76-3.76-0.005 0-0.009 0-0.014 0h0.001z"
  />
</svg>
