<svg xmlns="http://www.w3.org/2000/svg" viewBox="0 0 32 32">
  <path
    d="M30.28 23.093c-0.127-0.089-0.283-0.143-0.452-0.147h-0.001c-0.267 0.015-0.507 0.119-0.695 0.281l0.001-0.001-5.693 5.333c-0.305 0.206-0.504 0.551-0.504 0.942 0 0.247 0.079 0.475 0.213 0.661l-0.002-0.003c0.836 0.983 2.031 1.637 3.381 1.759l0.019 0.001h0.427c0 0 0.001 0 0.001 0 2.776 0 5.027-2.25 5.027-5.027 0-1.508-0.664-2.86-1.715-3.782l-0.006-0.005z"
  />
  <path
    d="M27.587 21.493v0c0.223-0.238 0.36-0.559 0.36-0.912 0-0.012-0-0.025-0-0.037l0 0.002c-0.008-0.339-0.081-0.658-0.206-0.95l0.006 0.017-4.4-11.893-1.747-4.893s0-0.093 0-0.147l-0.093-0.253c-0.59-1.344-1.886-2.277-3.406-2.333l-0.007-0c-0.069-0.006-0.149-0.010-0.23-0.010-1.473 0-2.667 1.194-2.667 2.667 0 0.495 0.135 0.958 0.37 1.356l-0.007-0.012 7.080 13.613c0.049 0.090 0.078 0.197 0.078 0.31 0 0.253-0.144 0.473-0.355 0.581l-0.004 0.002c-0.087 0.050-0.192 0.080-0.303 0.080-0.001 0-0.003 0-0.004 0h0c-0.254-0.002-0.474-0.146-0.585-0.356l-0.002-0.004-7.693-13.707c-0.282-0.53-0.832-0.885-1.464-0.885-0.172 0-0.338 0.026-0.494 0.075l0.012-0.003c-1.399 0.484-2.419 1.71-2.598 3.195l-0.002 0.018s0 0 0 0c-0.050 0.277-0.29 0.485-0.578 0.485-0.027 0-0.053-0.002-0.079-0.005l0.003 0h-0.213c-0.050-0.002-0.108-0.004-0.167-0.004-1.38 0-2.59 0.731-3.263 1.827l-0.010 0.017c-0.175 0.263-0.279 0.587-0.279 0.934 0 0.56 0.27 1.058 0.687 1.369l0.005 0.003 13.067 9.827c0.163 0.123 0.267 0.316 0.267 0.533 0 0.151-0.050 0.29-0.135 0.402l0.001-0.002c-0.124 0.161-0.316 0.264-0.533 0.267h-0c-0.001 0-0.003 0-0.004 0-0.149 0-0.287-0.050-0.397-0.134l0.002 0.001-13.013-9.613c-0.462-0.361-1.052-0.579-1.692-0.579-0.904 0-1.706 0.434-2.209 1.106l-0.005 0.007c-0.394 0.556-0.643 1.239-0.68 1.978l-0 0.009v0.187c0.002 1.551 0.92 2.888 2.243 3.497l0.024 0.010 0.213 0.107 17.333 8.093c0.175 0.114 0.39 0.182 0.62 0.182 0.271 0 0.519-0.094 0.715-0.251l-0.002 0.002 6.507-5.76z"
  />
</svg>
