<svg xmlns="http://www.w3.org/2000/svg" viewBox="0 0 205 196">
  <g>
    <g>
      <path
        d="M123,15S114.67,1.83,113,.5c0,0-28-3.33-53.5,10.5,0,0-23.33,11.17-32,24.5,0,0,59.5,6.33,98.5,30C126,65.5,139,44.17,123,15Zm73.5,36.5S179,17.15,134,3.5c0,0,12,19,12.5,36.5a60.36,60.36,0,0,1-8,34s27.25,20.75,36,37c0,0,20.38-11,36.5-7C211,104,211.69,75.77,196.5,51.5ZM116.5,78C80.17,54.83,17,50,17,50,.83,74,1,103,1,103c11.17,5.83,57.5,2,57.5,2C99.5,99.83,116.5,78,116.5,78Zm46,42C154.31,106,130,86.5,130,86.5c-1,1.34-5.5,6-5.5,6-17.78,16.88-44.5,24-44.5,24C86.21,121,92.5,129,92.5,129c12.86,16.15,9,39.5,9,39.5C98.07,185.86,87,195,87,195h45.5c-1-20.15,6-40.5,6-40.5C145.82,134.77,162.5,120,162.5,120ZM148,195h11.5s20.64-12.29,27-23c0,0-9.43-30.36-16-38.5C170.5,133.5,147.29,152.86,148,195Zm35-70.5s13,23.21,15,31.5c0,0,11.43-22.57,11.5-36.5C209.5,119.5,197.57,115.07,183,124.5ZM5.5,136s5.19-9.88,9.5-13.5l1.5-2L2,119.5S2.93,130.49,5.5,136Z"
        style="fill: var(--color-1)"
        transform="translate(-0.25 -0.15)"
      />
    </g>
  </g>
  <g>
    <g>
      <path
        d="M33.5,144.5s13,13.59,35.5,3c0,0,13.65-11.21,11.5-30,0,0-7.31-6.84-20.65-9.22-9.36-1.67-13.15-.65-19.27.73-4.89,1.1-10.89,2.86-15.08,5.49C25.5,114.5,22.64,135.91,33.5,144.5Zm17.5,40A31.25,31.25,0,0,0,28.5,195H72C64.21,185.28,51,184.5,51,184.5Zm49-41s-3.27-10.34-9.5-17c0,0-.19,19.2-17.5,30.5,0,0-20.54,12.73-41.5-1.5,0,0-14.23-8.4-16.5-33,0,0-18.69,17.26-14,46.5,0,0,3.19,17,14.38,26h.93A47.92,47.92,0,0,1,41.5,176s25.44-7.44,41.5,18l1,1h3S109,177.31,100,143.5Z"
        style="fill: var(--color-2)"
        transform="translate(-0.25 -0.15)"
      />
    </g>
  </g>
</svg>
