<svg xmlns="http://www.w3.org/2000/svg" viewBox="0 0 32 32">
  <path
    d="M11.012 18.033c1.405-0.822 2.334-2.323 2.334-4.042 0-2.577-2.089-4.667-4.667-4.667s-4.667 2.089-4.667 4.667c0 0.86 0.233 1.665 0.638 2.357l-0.012-0.022c0.822 1.404 2.323 2.332 4.040 2.332 0.859 0 1.664-0.232 2.355-0.637l-0.022 0.012z"
  />
  <path d="M25.958-0.034l-7.12 13.533 4.827 2.040 8.347-15.547-6.053-0.027z" />
  <path d="M16.052 18.806l4.773 2 1.573-2.907-4.8-2.027-1.547 2.933z" />
  <path
    d="M10.372 23.993l-6.36 1.16c-1.472 0.252-2.655 1.279-3.125 2.639l-0.008 0.028-0.8 2.4c-0.057 0.143-0.090 0.308-0.090 0.481 0 0.736 0.597 1.333 1.333 1.333 0.117 0 0.231-0.015 0.339-0.044l-0.009 0.002 11.333-2.507c2.372-0.541 4.309-2.068 5.392-4.116l0.021-0.044 1.16-2.16-4.787-2.013c-1.007 1.476-2.559 2.517-4.36 2.834l-0.040 0.006z"
  />
</svg>
