<svg xmlns="http://www.w3.org/2000/svg" viewBox="0 0 32 32">
  <path
    d="M15.767 0c0.432 1.212 0.881 2.224 1.396 3.197l-0.063-0.13 1.453-0.653c0.18-0.097 0.394-0.154 0.622-0.154 0.736 0 1.333 0.597 1.333 1.333 0 0.567-0.354 1.051-0.852 1.244l-0.009 0.003-1.213 0.547c0.883 1.328 1.795 2.486 2.791 3.566l-0.018-0.019 1.92-1.933c0.242-0.242 0.577-0.392 0.947-0.392 0.739 0 1.339 0.599 1.339 1.339 0 0.37-0.15 0.704-0.392 0.947v0l-1.973 1.933c0.959 0.889 2.004 1.722 3.108 2.474l0.092 0.059 0.573-1.333c0.223-0.479 0.7-0.805 1.253-0.805 0.761 0 1.378 0.617 1.378 1.378 0 0.208-0.046 0.405-0.128 0.582l0.004-0.008-0.72 1.573c0.946 0.517 2.065 1.013 3.226 1.418l0.161 0.049c0-0.067 0-0.133 0-0.213 0-8.837-7.163-16-16-16v0z"
  />
  <path
    d="M27.46 17.147l-0.707 1.52c-0.214 0.467-0.676 0.785-1.213 0.787h-0c-0.198-0.001-0.386-0.045-0.555-0.123l0.008 0.003c-0.466-0.215-0.783-0.678-0.783-1.215 0-0.198 0.043-0.385 0.12-0.554l-0.003 0.008 0.813-1.827c-1.5-0.984-2.806-2.002-4.024-3.115l0.024 0.022-0.867 0.867c-0.24 0.238-0.569 0.385-0.933 0.387h-0c-0.002 0-0.005 0-0.008 0-0.366 0-0.698-0.148-0.939-0.387l0 0c-0.24-0.241-0.388-0.573-0.388-0.94s0.148-0.699 0.388-0.94l-0 0 0.853-0.867c-1.153-1.27-2.225-2.664-3.177-4.141l-0.076-0.126-1.893 0.853c-0.16 0.075-0.348 0.119-0.546 0.12h-0c-0.010 0-0.023 0-0.035 0-0.736 0-1.333-0.597-1.333-1.333 0-0.536 0.317-0.999 0.773-1.21l0.008-0.003 1.693-0.773c-0.568-1.095-1.093-2.385-1.503-3.726l-0.044-0.167c-6.543 1.231-11.622 6.31-12.838 12.754l-0.016 0.099c1.508 0.453 2.799 0.979 4.026 1.609l-0.133-0.062 0.773-1.693c0.228-0.427 0.671-0.712 1.18-0.712 0.736 0 1.333 0.597 1.333 1.333 0 0.17-0.032 0.332-0.089 0.481l0.003-0.009-0.853 1.933c1.622 1.047 3.033 2.14 4.344 3.341l-0.024-0.021 0.867-0.853c0.232-0.199 0.535-0.321 0.867-0.321 0.736 0 1.333 0.597 1.333 1.333 0 0.332-0.121 0.636-0.322 0.869l0.001-0.002-0.853 0.867c1.106 1.191 2.125 2.498 3.026 3.889l0.068 0.111 1.813-0.813c0.226-0.181 0.515-0.29 0.83-0.29 0.736 0 1.333 0.597 1.333 1.333 0 0.662-0.483 1.212-1.116 1.316l-0.008 0.001-1.573 0.707c0.645 1.207 1.234 2.62 1.687 4.093l0.046 0.174c6.543-1.231 11.622-6.31 12.838-12.754l0.016-0.099c-1.632-0.512-3.027-1.1-4.353-1.8l0.139 0.067z"
  />
  <path
    d="M16.207 32c-0.45-1.342-0.946-2.478-1.527-3.563l0.060 0.123-1.573 0.773c-0.16 0.075-0.348 0.119-0.546 0.12h-0c-0.012 0-0.025 0.001-0.039 0.001-0.736 0-1.333-0.597-1.333-1.333 0-0.548 0.331-1.019 0.803-1.224l0.009-0.003 1.333-0.573c-0.811-1.196-1.644-2.241-2.549-3.217l0.016 0.017-1.96 1.867c-0.236 0.215-0.551 0.347-0.897 0.347-0.003 0-0.007 0-0.010-0h0.001c-0.002 0-0.005 0-0.008 0-0.366 0-0.698-0.148-0.939-0.387l0 0c-0.244-0.242-0.394-0.577-0.394-0.947s0.151-0.705 0.394-0.947l0-0 1.933-1.92c-1.068-0.962-2.239-1.862-3.478-2.667l-0.109-0.066-0.547 1.213c-0.214 0.467-0.676 0.785-1.213 0.787h-0c-0.198-0.001-0.386-0.045-0.555-0.123l0.008 0.003c-0.466-0.215-0.783-0.678-0.783-1.215 0-0.198 0.043-0.385 0.12-0.554l-0.003 0.008 0.653-1.453c-0.842-0.452-1.854-0.902-2.9-1.281l-0.167-0.053c0 0.080 0 0.147 0 0.227-0 0.012-0 0.026-0 0.040 0 8.832 7.156 15.992 15.986 16h0.001z"
  />
</svg>
