<svg xmlns="http://www.w3.org/2000/svg" viewBox="0 0 32 32">
  <path
    d="M11.385 24.145c0.335 0 0.66 0 0.975 0 0.024-0.004 0.052-0.007 0.080-0.007 0.218 0 0.401 0.148 0.454 0.349l0.001 0.003c0.14 0.325 0.32 0.63 0.5 0.96h-11.13c-1.075 0-1.85-0.88-1.85-2.090v-13.825c-0.003-0.037-0.004-0.081-0.004-0.125 0-0.891 0.599-1.641 1.415-1.872l0.014-0.003c0.113-0.026 0.243-0.040 0.376-0.040 0.008 0 0.017 0 0.025 0h17.094c0.006-0.001 0.012-0.001 0.019-0.001 0.076 0 0.142 0.042 0.176 0.105l0.001 0.001q2.705 4 5.415 7.935c0.038 0.048 0.060 0.11 0.060 0.177 0 0.033-0.006 0.065-0.016 0.095l0.001-0.002c-0.075 0.27-0.135 0.55-0.205 0.82-0.25-0.14-0.5-0.29-0.745-0.415-0.376-0.192-0.82-0.305-1.29-0.305-0.014 0-0.028 0-0.042 0l0.002-0c-0.805 0-1.61 0-2.41 0-0.26 0-0.38-0.1-0.44-0.39-0.026-0.155-0.041-0.333-0.041-0.515s0.015-0.36 0.044-0.534l-0.003 0.019s0 0 0.035 0c0.335 0 0.305 0.065 0.325-0.355 0.008-0.131 0.013-0.283 0.013-0.437 0-0.525-0.056-1.037-0.162-1.531l0.009 0.048c-0.178-0.929-0.728-1.704-1.486-2.177l-0.014-0.008c-0.667-0.45-1.488-0.719-2.372-0.719-0.27 0-0.533 0.025-0.789 0.073l0.026-0.004c-1.261 0.28-2.212 1.324-2.349 2.612l-0.001 0.013c-0.040 0.25-0.050 0.5-0.085 0.755-0.013 0.073-0.047 0.136-0.095 0.185l0-0-1.64 1.295-0.165 0.135h2.3c0.043 0.097 0.068 0.211 0.068 0.33s-0.025 0.233-0.070 0.335l0.002-0.005c-0.185 0.38-0.335 0.785-0.5 1.18-0.020 0.037-0.037 0.081-0.049 0.126l-0.001 0.004c-0.035 0.175 0 0.225 0.16 0.23s0.385 0 0.58 0c0.063 0.006 0.117 0.040 0.15 0.089l0 0.001c0.113 0.246 0.18 0.534 0.18 0.838 0 0.099-0.007 0.197-0.021 0.293l0.001-0.011c-0.009 0.068-0.051 0.125-0.109 0.154l-0.001 0.001c-0.699 0.297-1.246 0.839-1.543 1.516l-0.007 0.019c-0.382 0.747-0.648 1.617-0.747 2.537l-0.003 0.033c-0.075 0.66-0.095 1.33-0.14 2 0.004 0.039 0.013 0.074 0.026 0.108l-0.001-0.003zM4.105 19.81c-0.703 0.076-1.246 0.666-1.246 1.383s0.543 1.307 1.24 1.382l0.006 0.001c0.703-0.076 1.246-0.666 1.246-1.383s-0.543-1.307-1.24-1.382l-0.006-0.001z"
  />
  <path
    d="M22.115 7.5h7.68c0.92 0.019 1.673 0.713 1.784 1.606l0.001 0.009c0.023 0.14 0.036 0.301 0.036 0.465 0 0.021-0 0.042-0.001 0.063l0-0.003q0 6.855 0 13.7c0.002 0.037 0.004 0.079 0.004 0.123 0 0.928-0.632 1.709-1.49 1.934l-0.014 0.003c-0.052 0.005-0.112 0.007-0.172 0.007s-0.121-0.003-0.18-0.008l0.008 0.001h-3.36v-1.28h0.165c0.8 0 1.605 0 2.41 0 0.007 0 0.015 0 0.022 0 0.259 0 0.493-0.105 0.663-0.275l0-0c0.527-0.538 0.915-1.215 1.104-1.97l0.006-0.030c0.001-0.014 0.002-0.030 0.002-0.046 0-0.068-0.014-0.133-0.038-0.192l0.001 0.003c-0.020-0.054-0.049-0.101-0.085-0.14l0 0c-0.361-0.408-0.637-0.901-0.793-1.443l-0.007-0.027c-0.078-0.24-0.242-0.433-0.455-0.547l-0.005-0.003c-0.335-0.215-0.645-0.47-0.97-0.71-0.063-0.046-0.103-0.119-0.103-0.202 0-0.013 0.001-0.026 0.003-0.039l-0 0.001c0-0.095 0-0.195 0-0.295 0.008-0.037 0.012-0.079 0.012-0.123 0-0.2-0.092-0.379-0.236-0.496l-0.001-0.001c-0.101-0.069-0.218-0.136-0.339-0.193l-0.016-0.007s0 0 0 0c0.002-0.021 0.003-0.045 0.003-0.069 0-0.226-0.097-0.429-0.253-0.57l-0.001-0.001c-0.049-0.046-0.113-0.077-0.184-0.085l-0.001-0c-0.080 0-0.13-0.050-0.115-0.15 0.001-0.015 0.002-0.033 0.002-0.051 0-0.21-0.096-0.399-0.246-0.523l-0.001-0.001c-0.060-0.070-0.195-0.070-0.3-0.080-0.083-0.004-0.154-0.056-0.184-0.129l-0-0.001-4.295-8.095z"
  />
</svg>
