<svg xmlns="http://www.w3.org/2000/svg" viewBox="0 0 32 32">
  <path
    d="M28 12.91h-2.135c-0.080 0-0.105 0-0.125-0.080-0.165-0.46-0.335-0.915-0.5-1.37 0-0.065-0.050-0.085-0.135-0.085h-2.66c-0.080 0-0.105 0-0.13 0.080-0.175 0.455-0.355 0.91-0.53 1.37 0 0.060-0.050 0.085-0.135 0.085h-1.96c0.085-0.205 0.16-0.4 0.24-0.595l2.61-6.5c0.030-0.070 0.065-0.090 0.15-0.090h2.26c0.085 0 0.12 0 0.15 0.090q1.425 3.5 2.86 7s0 0.055 0.040 0.070zM24.725 10l-0.91-2.8-0.025 0.040-0.955 2.73c0 0.050 0 0.050 0.055 0.050h1.835z"
  />
  <path
    d="M25.78 26.93c0.308 0.050 0.583 0.132 0.843 0.244l-0.023-0.009c0.482 0.182 0.833 0.611 0.899 1.128l0.001 0.007c0.014 0.083 0.022 0.179 0.022 0.277 0 0.456-0.174 0.872-0.458 1.184l0.001-0.001c-0.325 0.329-0.742 0.567-1.209 0.672l-0.016 0.003c-0.476 0.125-1.022 0.196-1.585 0.196-0.042 0-0.085-0-0.127-0.001l0.006 0h-3.875c-0.090 0-0.115 0-0.115-0.095v-7.065c0-0.050 0-0.095 0.085-0.095 1.5 0 3.030 0 4.545 0 0.003 0 0.006 0 0.010 0 0.505 0 0.986 0.103 1.424 0.289l-0.024-0.009c0.659 0.212 1.127 0.819 1.127 1.536 0 0.053-0.003 0.104-0.007 0.156l0-0.007c-0.004 0.475-0.235 0.895-0.591 1.157l-0.004 0.003c-0.223 0.161-0.483 0.291-0.761 0.375l-0.019 0.005c-0.056 0.005-0.107 0.023-0.151 0.051l0.001-0.001zM22.46 28.43c0 0.26 0 0.5 0 0.78 0 0.060 0 0.075 0.085 0.075h1.245c0.307-0 0.603-0.048 0.881-0.136l-0.021 0.006c0.311-0.071 0.544-0.332 0.57-0.652l0-0.003c0.005-0.032 0.008-0.070 0.008-0.108 0-0.273-0.156-0.51-0.384-0.625l-0.004-0.002c-0.202-0.103-0.44-0.169-0.691-0.18l-0.004-0c-0.535-0.050-1.075-0.025-1.61-0.035-0.070 0-0.080 0.030-0.080 0.075 0.005 0.26 0.005 0.52 0.005 0.78zM22.46 25.515c0 0.225 0 0.45 0 0.675 0 0.055 0 0.080 0.090 0.080h1.045c0.019 0 0.040 0.001 0.062 0.001 0.339 0 0.661-0.070 0.953-0.197l-0.016 0.006c0.24-0.086 0.408-0.311 0.408-0.576 0-0.021-0.001-0.042-0.003-0.062l0 0.003c-0.003-0.273-0.189-0.502-0.441-0.569l-0.004-0.001c-0.163-0.058-0.352-0.097-0.549-0.11l-0.006-0c-0.5-0.035-0.965 0-1.45 0-0.070 0-0.085 0-0.085 0.075-0.005 0.205-0.005 0.43-0.005 0.66z"
  />
  <path
    d="M27.42 16.38l-0.39-0.155c-0.556-0.222-1.201-0.35-1.875-0.35-0.018 0-0.035 0-0.052 0l0.003-0c-1.37 0-2.41 0.77-2.61 1.905-0.031 0.137-0.049 0.294-0.049 0.455 0 0.45 0.14 0.868 0.379 1.212l-0.005-0.007c0.371 0.491 0.909 0.839 1.529 0.957l0.016 0.003c0.324 0.069 0.697 0.108 1.079 0.108 0.531 0 1.044-0.076 1.529-0.218l-0.038 0.010c0.165-0.040 0.33-0.090 0.5-0.14 0.065 0 0.080 0 0.085 0.045q0.045 0.7 0.105 1.395c0 0.045 0 0.060-0.060 0.070-0.712 0.173-1.529 0.272-2.37 0.272-0.432 0-0.857-0.026-1.275-0.077l0.050 0.005c-0.972-0.102-1.848-0.446-2.587-0.971l0.017 0.011c-0.602-0.424-1.039-1.046-1.221-1.769l-0.005-0.021c-0.073-0.274-0.115-0.588-0.115-0.913 0-0.577 0.133-1.123 0.37-1.609l-0.010 0.022c0.471-0.894 1.278-1.558 2.249-1.829l0.026-0.006c0.672-0.221 1.446-0.349 2.25-0.349 0.128 0 0.256 0.003 0.383 0.010l-0.018-0.001c0.81 0.046 1.569 0.169 2.299 0.363l-0.079-0.018c0.050 0 0.085 0 0.080 0.080-0.070 0.5-0.11 1-0.19 1.51z"
  />
  <path
    d="M24.25 0c-0.324 0-0.636 0.057-0.924 0.161l0.019-0.006c-0.056-0.001-0.123-0.002-0.19-0.002-0.407 0-0.809 0.021-1.205 0.061l0.050-0.004c-0.635 0.041-1.21 0.269-1.677 0.63l0.007-0.005c-0.325 0.26-0.635 0.53-0.975 0.775-0.465 0.33-0.97 0.625-1.455 0.935-0.735 0.403-1.336 0.968-1.768 1.65l-0.012 0.020c-0.037 0.052-0.082 0.095-0.133 0.129l-0.002 0.001-1.85 1.335s-0.035 0.040-0.080 0.025c-0.004-0.305-0.063-0.595-0.166-0.862l0.006 0.017c-0.207-0.567-0.71-0.978-1.318-1.049l-0.008-0.001c-0.131-0.020-0.281-0.032-0.435-0.032-0.346 0-0.678 0.059-0.986 0.168l0.021-0.006c-0.488 0.136-0.864 0.512-0.998 0.99l-0.002 0.010c-0.033 0.122-0.053 0.261-0.053 0.405 0 0.192 0.034 0.375 0.096 0.546l-0.004-0.011c0.195 0.573 0.46 1.070 0.79 1.514l-0.010-0.014c0.050 0.057 0.086 0.129 0.1 0.207l0 0.003c0.005 0.037 0.009 0.080 0.009 0.123 0 0.237-0.093 0.453-0.244 0.612l0-0c-0.060 0.060-0.11 0.12-0.165 0.18-0.31 0.325-0.655 0.615-1 0.92-0.152 0.124-0.271 0.284-0.342 0.467l-0.003 0.008c-0.044 0.137-0.070 0.295-0.070 0.459 0 0.402 0.154 0.768 0.406 1.042l-0.001-0.001c0.357 0.39 0.727 0.75 1.118 1.086l0.017 0.014c0.625 0.595 1.255 1.19 1.81 1.83 0.235 0.253 0.442 0.536 0.614 0.843l0.011 0.022c0.054 0.088 0.086 0.194 0.086 0.309 0 0.139-0.048 0.267-0.127 0.368l0.001-0.001c-0.023 0.041-0.044 0.076-0.068 0.109l0.003-0.004c-0.129 0.179-0.235 0.387-0.306 0.609l-0.004 0.016c-0.283 0.77-0.582 1.772-0.828 2.795l-0.042 0.205c-0.165 0.755-0.28 1.5-0.385 2.28-0.025 0.175 0 0.295 0.215 0.35 0.043 0.001 0.078 0.036 0.078 0.080 0 0.013-0.003 0.025-0.008 0.035l0-0c-0.025 0.14-0.055 0.285-0.075 0.425-0.012 0.084-0.068 0.153-0.143 0.184l-0.002 0.001c-0.204 0.112-0.446 0.222-0.698 0.313l-0.037 0.012c-0.425 0.143-0.791 0.358-1.104 0.633l0.004-0.003c-0.22 0.21-0.43 0.425-0.63 0.65-0.45 0.5-0.865 1.045-1.33 1.545-0.294 0.336-0.622 0.631-0.983 0.883l-0.017 0.012c-0.080 0.050-0.135 0.060-0.19 0-0.019-0.038-0.058-0.064-0.103-0.064-0.032 0-0.061 0.013-0.082 0.034v0c-0.223 0.138-0.493 0.22-0.783 0.22-0.013 0-0.026-0-0.039-0l0.002 0c-0.32 0.007-0.625 0.058-0.914 0.146l0.024-0.006c-0.145 0.050-0.225 0.125-0.22 0.265 0.011 0.154 0.017 0.334 0.017 0.515s-0.006 0.361-0.018 0.539l0.001-0.024c-0.028 0.433-0.158 0.831-0.367 1.177l0.007-0.012c-0.096 0.145-0.161 0.318-0.184 0.504l-0.001 0.006c-0.004 0.061-0.007 0.133-0.007 0.205 0 0.404 0.080 0.789 0.224 1.14l-0.007-0.020c0.038 0.207 0.212 0.364 0.424 0.375l0.001 0h0.090c0.188-0.052 0.346-0.162 0.458-0.308l0.002-0.002c0.28-0.324 0.519-0.695 0.703-1.096l0.012-0.029c0.204-0.391 0.444-0.728 0.723-1.028l-0.003 0.003s0.025-0.045 0.065-0.045c-0.039 0.127-0.063 0.273-0.065 0.424v0.001c0.001 0.411 0.082 0.802 0.227 1.161l-0.007-0.021c0.050 0.13 0.13 0.165 0.29 0.135 0.13-0.031 0.242-0.1 0.324-0.194l0.001-0.001c0.194-0.208 0.361-0.445 0.492-0.703l0.008-0.017c0.185-0.325 0.325-0.67 0.5-1 0.029-0.061 0.076-0.109 0.133-0.139l0.002-0.001c0.078-0.030 0.136-0.097 0.155-0.178l0-0.002c0.039-0.128 0.114-0.236 0.214-0.314l0.001-0.001c0.080-0.075 0.16-0.155 0.245-0.225 0.656-0.521 1.416-0.948 2.239-1.243l0.056-0.017c1.025-0.405 2.050-0.795 3.070-1.195 0.839-0.331 1.525-0.655 2.188-1.016l-0.103 0.051c0.484-0.285 0.858-0.709 1.074-1.218l0.006-0.017c0.068-0.229 0.26-0.4 0.497-0.435l0.003-0c0.060-0.010 0.108-0.055 0.12-0.114l0-0.001c0.31-0.897 0.508-1.933 0.549-3.010l0.001-0.020c0.010-0.194 0.016-0.42 0.016-0.648 0-0.941-0.101-1.858-0.292-2.742l0.015 0.085c-0.127-0.68-0.339-1.287-0.628-1.847l0.017 0.037c-0.070-0.137-0.139-0.302-0.197-0.473l-0.008-0.027c-0.15-0.5-0.225-1-0.38-1.5-0.129-0.389-0.226-0.843-0.273-1.313l-0.002-0.027c-0.064-0.745-0.183-1.426-0.354-2.087l0.019 0.087c-0.118-0.54-0.352-1.014-0.675-1.411l0.005 0.006c0.247-0.046 0.46-0.103 0.667-0.175l-0.032 0.010c0.808-0.29 1.507-0.643 2.153-1.068l-0.038 0.023c0.513-0.311 0.958-0.641 1.369-1.008l-0.009 0.008c0.128-0.111 0.22-0.26 0.259-0.43l0.001-0.005c0.15-0.75 0.225-1.5 0.325-2.255 0.040-0.378 0.094-0.71 0.166-1.036l-0.011 0.061c0.028-0.175 0.105-0.329 0.216-0.451l-0.001 0.001c0 0.035 0.265 0 0.265 0h0.105c-0.066 0.225-0.104 0.483-0.105 0.75v0c0 1.519 1.231 2.75 2.75 2.75s2.75-1.231 2.75-2.75c0-1.519-1.231-2.75-2.75-2.75v0zM15.18 23.53c-0.882 0.285-1.649 0.66-2.35 1.127l0.035-0.022c-0.695 0.44-1.345 0.92-2.025 1.37-0.145 0.095-0.285 0.195-0.44 0.28v0s0 0 0 0c0.361-0.469 0.826-0.839 1.363-1.081l0.022-0.009c0.308-0.11 0.575-0.259 0.811-0.445l-0.006 0.005c0.245-0.225 0.5-0.455 0.725-0.69 0.547-0.545 1.026-1.159 1.422-1.828l0.023-0.043c0.075-0.13 0.14-0.27 0.215-0.415 0.060 0.104 0.101 0.226 0.115 0.356l0 0.004c0.027 0.222 0.043 0.48 0.043 0.741 0 0.067-0.001 0.133-0.003 0.199l0-0.010c-0 0.004-0 0.008-0 0.013 0 0.081 0.046 0.152 0.114 0.187l0.001 0.001c0.125 0.080 0.1 0.23-0.065 0.26zM18.23 5.445c-0.315 0.119-0.691 0.223-1.079 0.294l-0.041 0.006c0.091-0.094 0.189-0.179 0.294-0.256l0.006-0.004c0.417-0.293 0.782-0.599 1.121-0.931l-0.001 0.001c0.057-0.074 0.134-0.131 0.222-0.164l0.003-0.001c-0.090 0.275-0.16 0.56-0.275 0.825-0.051 0.106-0.139 0.187-0.247 0.229l-0.003 0.001zM18.765 4.385v0z"
  />
</svg>
