<svg xmlns="http://www.w3.org/2000/svg" viewBox="0 0 32 32">
  <path
    d="M9.695 32c-0.072-0.028-0.156-0.046-0.243-0.050l-0.002-0c-1.45-0.25-2.45-1.18-2.45-2.29v-27.16c-0-0.016-0.001-0.036-0.001-0.055 0-0.591 0.256-1.122 0.664-1.488l0.002-0.002c0.535-0.48 1.225-0.796 1.987-0.864l0.013-0.001c0.025 0 0.060 0 0.075 0h1.855c0.017 0.005 0.035 0.008 0.055 0.008s0.039-0.003 0.056-0.008l-0.001 0h4.41c-0.594 0.292-0.996 0.891-1 1.585v0c-0.004 0.059-0.032 0.11-0.075 0.145l-0 0c-0.191 0.182-0.31 0.439-0.31 0.724 0 0.034 0.002 0.068 0.005 0.101l-0-0.004c-0 0.006-0 0.013-0 0.019 0 0.183 0.093 0.344 0.233 0.439l0.002 0.001c0.030 0 0.035 0.045 0 0.065-0.065 0.225-0.070 0.46-0.14 0.685-0.105 0.292-0.361 0.506-0.671 0.55l-0.004 0c-0.446 0.093-0.958 0.147-1.483 0.147-0.060 0-0.121-0.001-0.181-0.002l0.009 0h-0.18c-0.039-0.003-0.084-0.004-0.13-0.004-0.402 0-0.777 0.115-1.094 0.314l0.009-0.005c-0.416 0.257-0.778 0.533-1.11 0.839l0.005-0.004c-0.092 0.099-0.168 0.215-0.222 0.342l-0.003 0.008c-0.5 0.84-1 1.68-1.5 2.5-0.23 0.375-0.5 0.74-0.695 1.12-0.162 0.246-0.287 0.534-0.357 0.843l-0.003 0.017c-0.022 0.095-0.035 0.204-0.035 0.317 0 0.25 0.063 0.485 0.174 0.691l-0.004-0.008c0.188 0.28 0.504 0.461 0.861 0.461 0.017 0 0.034-0 0.051-0.001l-0.002 0c0.175 0 0.355 0 0.535 0s0.13 0.040 0.090 0.12c-0.15 0.285-0.28 0.575-0.405 0.865-0.2 0.451-0.343 0.974-0.403 1.521l-0.002 0.024c-0 0.016-0.001 0.034-0.001 0.053 0 0.407 0.114 0.788 0.311 1.112l-0.005-0.009c0.31 0.61 0.735 1.175 1.11 1.76 0.143 0.21 0.29 0.457 0.424 0.712l0.021 0.043c0.035 0.075 0.080 0.105 0.19 0.105 0.26 0 0.5 0 0.785 0 0.006-0.001 0.013-0.001 0.021-0.001 0.059 0 0.111 0.032 0.139 0.081l0 0.001c0.414 0.648 0.852 1.212 1.337 1.732l-0.007-0.007c0.265 0.29 0.55 0.575 0.845 0.85 0.645 0.6 1.4 1.12 2.095 1.69 0.951 0.761 2.014 1.496 3.127 2.155l0.128 0.070c0.215 0.135 0.425 0.275 0.645 0.4 0.096 0.053 0.164 0.144 0.185 0.253l0 0.002c0.121 0.642 0.353 1.213 0.677 1.719l-0.012-0.019c0.082 0.134 0.167 0.25 0.262 0.358l-0.002-0.003c0.145 0.158 0.245 0.36 0.279 0.584l0.001 0.006c0.070 0.34 0.15 0.675 0.24 1 0.012 0.054 0.019 0.116 0.019 0.18s-0.007 0.126-0.020 0.186l0.001-0.006c-0.030 0.15-0.040 0.305-0.060 0.455-0.055 0.251-0.087 0.539-0.087 0.835 0 0.111 0.004 0.221 0.013 0.329l-0.001-0.014c0.035 0.316 0.127 0.604 0.266 0.862l-0.006-0.012c-0.040 0.030-0.080 0-0.12 0h-3.78c-0.023-0.005-0.050-0.008-0.078-0.008s-0.054 0.003-0.080 0.008l0.003-0zM10.195 27.945v0l0.035 0.055c0.315 0.74 0.635 1.5 0.955 2.225 0.025 0.060 0.050 0.085 0.14 0.080h1.175c0.085 0 0.125 0 0.125-0.080 0-1.285 0-2.565 0-3.85 0-0.060 0-0.080-0.11-0.080-0.33 0-0.655 0-1 0-0.115 0-0.15 0.025-0.145 0.11 0 0.715 0 1.43 0 2.145v0.12c-0.029-0.029-0.053-0.064-0.069-0.103l-0.001-0.002-0.345-0.835-0.555-1.34c0-0.050-0.030-0.1-0.14-0.1-0.385 0-0.765 0-1.15 0-0.090 0-0.11 0-0.11 0.080v3.85c0 0.075 0.035 0.080 0.12 0.080 0.305 0 0.61 0 0.915 0 0.125 0 0.15-0.030 0.15-0.115-0.005-0.74-0.005-1.49-0.005-2.24zM15.26 28.21c0.123-0.023 0.231-0.080 0.315-0.16l-0 0c0.153-0.141 0.259-0.331 0.294-0.544l0.001-0.006c0.11-0.595-0.29-1.115-1.205-1.175-0.585-0.040-1.18 0-1.77 0-0.080 0-0.070 0.035-0.070 0.070v3.86c0 0.060 0 0.080 0.105 0.080h1.8c0.014 0.001 0.031 0.001 0.049 0.001 0.352 0 0.673-0.135 0.912-0.357l-0.001 0.001c0.232-0.198 0.378-0.49 0.378-0.817 0-0.211-0.061-0.407-0.166-0.573l0.003 0.004c-0.128-0.231-0.371-0.385-0.649-0.385-0.004 0-0.008 0-0.011 0h0.001zM16 30.305h1.135c0.075 0 0.105 0 0.115-0.075 0.035-0.18 0.080-0.36 0.11-0.545 0-0.070 0.040-0.095 0.14-0.090 0.215 0 0.43 0 0.645 0 0.105 0 0.135 0 0.145 0.1 0 0.18 0.050 0.36 0.070 0.54 0 0.065 0.040 0.080 0.12 0.075h1c0.17 0 0.17 0 0.135-0.125-0.115-0.5-0.235-1-0.355-1.5-0.18-0.765-0.365-1.5-0.54-2.29 0-0.095-0.075-0.115-0.19-0.11h-1.38c-0.1 0-0.145 0-0.165 0.095-0.060 0.265-0.13 0.53-0.2 0.795-0.285 1.050-0.535 2.085-0.785 3.13z"
  />
  <path
    d="M14.060 29.095c0-0.16 0-0.315 0-0.47 0-0.060 0-0.085 0.1-0.075h0.1c0.029-0.008 0.062-0.012 0.097-0.012 0.142 0 0.265 0.077 0.332 0.191l0.001 0.002c0.068 0.11 0.108 0.244 0.108 0.387 0 0.104-0.021 0.203-0.059 0.293l0.002-0.005c-0.081 0.172-0.254 0.289-0.453 0.289-0.065 0-0.128-0.013-0.185-0.035l0.003 0.001c-0.065 0-0.045-0.050-0.045-0.075v-0.5z"
  />
  <path
    d="M14.060 27.39c0-0.12 0-0.24 0-0.365s0-0.085 0.105-0.085c0.47 0 0.695 0.225 0.585 0.605-0.075 0.26-0.255 0.35-0.62 0.315-0.065 0-0.070-0.035-0.070-0.070z"
  />
  <path
    d="M17.82 26.925c0.060 0.335 0.115 0.675 0.175 1s0.090 0.58 0.145 0.87c0 0.075 0 0.085-0.11 0.085h-0.445c-0.070 0-0.085 0-0.075-0.070 0.085-0.535 0.165-1.065 0.245-1.6 0-0.1 0.035-0.2 0.050-0.295z"
  />
  <path
    d="M22.25 20.5c-0.004 0-0.009 0-0.014 0-1.706 0-3.104-1.316-3.235-2.989l-0.001-0.011c-0.075-1.5 0.42-2.645 1.75-3.335 0.12-0.040 0.155-0.080 0.115-0.18-0.084-0.211-0.168-0.385-0.262-0.553l0.012 0.023c-0.245-0.415-0.555-0.805-0.83-1.21-0.15-0.175-0.273-0.379-0.36-0.601l-0.005-0.014-0.175-0.7c-0.152-0.695-0.345-1.298-0.586-1.876l0.026 0.071c-0.060-0.14-0.060-0.135-0.225-0.075-0.542 0.219-1.002 0.542-1.372 0.947l-0.003 0.003c-0.024 0.025-0.040 0.058-0.045 0.094l-0 0.001c-0.049 0.212-0.106 0.393-0.174 0.567l0.009-0.027c-0.135 0.36-0.275 0.72-0.41 1.075 0 0.045-0.040 0.085 0 0.125 0.32 0.251 0.578 0.565 0.758 0.924l0.007 0.016c0.334 0.633 0.646 1.38 0.893 2.155l0.027 0.1c0.017 0.030 0.026 0.066 0.026 0.104 0 0.099-0.065 0.182-0.155 0.21l-0.002 0c-0.049 0.012-0.085 0.055-0.085 0.107 0 0.024 0.007 0.045 0.020 0.063l-0-0c0.123 0.272 0.244 0.604 0.342 0.947l0.013 0.053c0.255 0.885 0.415 1.78 0.62 2.675 0.052 0.277 0.174 0.52 0.346 0.717l-0.001-0.002c0.171 0.182 0.335 0.378 0.487 0.582l0.013 0.018c0.321 0.473 0.593 1.018 0.791 1.597l0.014 0.048c0.29 0.765 0.5 1.555 0.71 2.33 0.058 0.253 0.187 0.469 0.364 0.634l0.001 0.001c0.095 0.085 0.185 0.175 0.27 0.265 0.155 0.157 0.25 0.373 0.25 0.61 0 0.003-0 0.007-0 0.010v-0c-0.009 0.459-0.146 0.885-0.376 1.245l0.006-0.010c-0.023 0.033-0.037 0.073-0.037 0.117 0 0.019 0.003 0.037 0.007 0.054l-0-0.001c0.119 0.524 0.312 0.987 0.571 1.404l-0.011-0.020c0.073 0.106 0.117 0.238 0.117 0.38 0 0.061-0.008 0.119-0.023 0.175l0.001-0.005c-0.006 0.018-0.010 0.039-0.010 0.060 0 0.044 0.015 0.084 0.040 0.115l-0-0c0.247 0.353 0.394 0.791 0.394 1.263 0 0.346-0.079 0.673-0.22 0.965l0.006-0.013c-0.025 0.060-0.055 0.12-0.090 0.19 0.205-0.025 0.391-0.071 0.568-0.136l-0.018 0.006c1.24-0.44 1.895-1.17 1.895-2.19q0.005-5.305 0.005-10.6c-0.587 0.908-1.593 1.5-2.739 1.5-0.004 0-0.008 0-0.012-0h0.001z"
  />
  <path
    d="M20.56 6.71c0.137 0.227 0.25 0.49 0.325 0.768l0.005 0.022c0.26 0.94 0.385 1.895 0.56 2.84 0.025 0.259 0.078 0.496 0.157 0.722l-0.007-0.022c0.18 0.4 0.41 0.785 0.625 1.175 0.327 0.534 0.592 1.151 0.764 1.807l0.011 0.048s0 0 0 0.025c0.808 0.198 1.482 0.676 1.928 1.324l0.007 0.011c0.014-0.076 0.025-0.167 0.030-0.259l0-0.006v-12.725c0.035-1.175-0.94-2.080-2.465-2.345-0.004 0-0.008 0-0.013 0-0.050 0-0.096-0.017-0.133-0.046l0 0h-1.125s-0.035 0-0.060 0l-1.375 0.055-1.39 0.040c-0.035 0-0.075 0-0.090 0s0 0.040 0.045 0.055 0.2 0.16 0.29 0.245c0.372 0.296 0.608 0.748 0.608 1.255 0 0.033-0.001 0.066-0.003 0.099l0-0.004c-0.045 0.319-0.167 0.602-0.348 0.839l0.003-0.004c0 0.035-0.055 0.060 0 0.105s0.13 0.19 0.040 0.315c-0.072 0.091-0.151 0.171-0.237 0.243l-0.003 0.002c-0.167 0.123-0.31 0.265-0.431 0.425l-0.004 0.005c-0.13 0.221-0.297 0.406-0.495 0.551l-0.005 0.004c-0.155 0.12-0.335 0.225-0.475 0.355s-0.075 0.135 0.035 0.19c1.212 0.572 2.195 1.107 3.147 1.688l-0.147-0.083c0.097 0.072 0.174 0.166 0.223 0.276l0.002 0.004z"
  />
</svg>
