<svg xmlns="http://www.w3.org/2000/svg" viewBox="0 0 32 32">
  <path
    d="M15.465 0h1.19c0.1 0 0.2 0.050 0.3 0.060 0.705 0.090 1.42 0.12 2.11 0.265 5.725 1.22 9.69 4.56 11.935 9.97 0.19 0.47 0.1 0.605-0.415 0.585-0.54-0.014-1.057-0.069-1.56-0.164l0.060 0.009c-4.293-0.739-7.794-3.564-9.463-7.374l-0.032-0.081c-0.071-0.143-0.193-0.251-0.341-0.304l-0.004-0.001c-0.615-0.17-1.245-0.335-1.855-0.465-0.381-0.094-0.819-0.149-1.27-0.149-0.584 0-1.146 0.091-1.674 0.259l0.039-0.011c-0.861 0.286-1.472 1.085-1.472 2.026 0 0.079 0.004 0.157 0.013 0.234l-0.001-0.010c0.057 0.725 0.316 1.38 0.722 1.919l-0.007-0.009c0.63 0.875 1.378 1.617 2.231 2.22l0.029 0.020c3.172 2.325 6.906 4.105 10.947 5.109l0.218 0.046c1.415 0.35 2.865 0.55 4.3 0.805 0.235 0.045 0.465 0.12 0.5 0.355 0.029 0.227 0.045 0.49 0.045 0.757 0 0.126-0.004 0.251-0.011 0.375l0.001-0.017c-0.008 0.199-0.17 0.357-0.37 0.36h-0c-0.37 0.045-0.74 0.1-1.115 0.155-4.125 0.534-7.857 1.801-11.208 3.671l0.158-0.081c-1.935 1.047-3.596 2.304-5.042 3.772l-0.003 0.003c-0.533 0.533-0.959 1.174-1.242 1.887l-0.013 0.038c-0.5 1.45-0.035 2.855 1.655 3.245 0.309 0.081 0.664 0.127 1.030 0.127 0.151 0 0.301-0.008 0.448-0.023l-0.018 0.002c0.945-0.12 1.88-0.335 2.825-0.5 0.236-0.035 0.426-0.198 0.499-0.416l0.001-0.004c1.428-3.201 4.061-5.648 7.307-6.798l0.088-0.027c1.063-0.415 2.293-0.657 3.579-0.66h0.001c0.47 0 0.55 0.125 0.37 0.55-2.45 5.895-6.865 9.27-13.215 10.14-0.38 0.050-0.765 0.085-1.145 0.13h-1c-0.57-0.065-1.14-0.115-1.705-0.195-3.535-0.472-6.635-2.056-9.002-4.382l0.002 0.002c-0.76-0.714-1.319-1.634-1.587-2.671l-0.008-0.039c-0.062-0.202-0.098-0.433-0.098-0.674 0-0.574 0.205-1.101 0.546-1.51l-0.003 0.004c0.435-0.525 0.907-0.99 1.421-1.405l0.019-0.015c1.455-1.15 3.175-1.825 4.86-2.55 1.837-0.812 4.101-1.622 6.43-2.282l0.385-0.093c0.111-0.052 0.207-0.115 0.291-0.191l-0.001 0.001c-0.087-0.067-0.186-0.127-0.29-0.176l-0.010-0.004c-1.040-0.335-2.090-0.635-3.125-1-2.827-0.948-5.239-2.022-7.528-3.291l0.228 0.116c-1.059-0.546-1.946-1.287-2.642-2.182l-0.013-0.018c-0.327-0.408-0.525-0.933-0.525-1.503 0-0.122 0.009-0.242 0.027-0.36l-0.002 0.013c0.151-1.012 0.595-1.901 1.243-2.598l-0.003 0.003c2.495-2.667 5.902-4.453 9.722-4.859l0.068-0.006c0.39-0.050 0.78-0.090 1.175-0.135z"
  />
  <path
    d="M0.060 15.405c0.065-0.565 0.12-1.135 0.2-1.7 0.181-1.296 0.497-2.466 0.941-3.572l-0.036 0.102c0.040-0.105 0.17-0.175 0.26-0.255 0.050 0.083 0.091 0.18 0.118 0.282l0.002 0.008c0.092 0.758 0.44 1.422 0.954 1.914l0.001 0.001c0.978 0.974 2.139 1.764 3.429 2.313l0.071 0.027c1 0.455 2.055 0.85 3.090 1.275l0.41 0.2c-0.245 0.095-0.4 0.16-0.56 0.215-2.098 0.657-3.923 1.583-5.557 2.759l0.057-0.039c-0.48 0.381-0.906 0.791-1.29 1.238l-0.010 0.012c-0.356 0.403-0.591 0.92-0.644 1.49l-0.001 0.010c-0.035 0.109-0.080 0.203-0.138 0.289l0.003-0.004c-0.075-0.085-0.2-0.155-0.23-0.255-0.26-0.875-0.55-1.75-0.745-2.64-0.155-0.7-0.19-1.425-0.28-2.135 0-0.115-0.040-0.225-0.060-0.335z"
  />
</svg>
