<svg xmlns="http://www.w3.org/2000/svg" viewBox="0 0 32 32">
  <path
    d="M31.9 11.1c-0.5-0.6-1-1.2-1.45-1.75-1.4 0-2.8 0-4.2 0 0.050 0 0 0.050 0 0.050-0.1 0.45-0.2 0.85-0.3 1.3-0.15 0.55-0.25 1.1-0.4 1.65 0.5 0 1 0 1.55 0-0.15 0.55-0.25 1.050-0.4 1.6 0 0.1-0.050 0.15-0.15 0.15-0.55 0-1.15 0-1.7 0-0.1 0-0.15 0.050-0.2 0.15-0.2 1-0.45 1.95-0.65 2.9-0.050 0.1 0 0.15 0.1 0.15 0.55 0 1.15 0 1.7 0 0.15 0 0.15 0 0.15 0.15-0.15 0.55-0.25 1.1-0.4 1.65-0.050 0.1-0.1 0.15-0.2 0.15-0.45 0-0.85 0-1.3 0-0.1 0-0.1 0-0.15 0.1-0.2 0.9-0.45 1.85-0.65 2.75-0.050 0.15 0 0.15 0.1 0.15 1.3 0 2.65 0 3.95 0 0.1 0 0.15-0.050 0.25-0.1 0.75-0.55 1.5-1.15 2.25-1.7 0.1-0.050 0.1-0.15 0.15-0.25 0.2-0.95 0.45-1.9 0.65-2.8 0.050-0.1 0-0.15-0.050-0.25-0.4-0.5-0.8-0.95-1.2-1.45 0.050-0.050 0.050-0.050 0.1-0.1 0.6-0.5 1.2-0.95 1.8-1.45 0.050-0.050 0.1-0.1 0.15-0.2 0.2-0.85 0.4-1.75 0.6-2.6 0-0.1-0.050-0.2-0.1-0.25zM5.35 17.45c0-0.1 0.050-0.15 0.15-0.15 0.6 0 1.15 0 1.75 0 0.1 0 0.15 0 0.15-0.1 0.2-1 0.45-1.95 0.7-2.95 0.050-0.1 0-0.15-0.1-0.15-0.6 0-1.15 0-1.75 0-0.1 0-0.15 0-0.1-0.1 0.15-0.5 0.25-1 0.35-1.5 0-0.1 0.050-0.1 0.15-0.1 0.35 0 0.75 0 1.1 0 0.1 0 0.15 0 0.15-0.1 0.25-1 0.45-1.95 0.7-2.95-1.35 0-2.7 0-4.050 0-0.35 0.3-0.75 0.6-1.15 0.9s-0.8 0.6-1.2 0.95c-0.050 0.050-0.1 0.1-0.15 0.2-0.2 0.9-0.45 1.8-0.65 2.65 0 0.1 0 0.15 0.050 0.25 0.4 0.45 0.75 0.9 1.15 1.35 0.050 0.1 0.050 0.1 0 0.2-0.6 0.5-1.2 0.95-1.8 1.45-0.050 0.050-0.1 0.1-0.1 0.2-0.2 0.9-0.45 1.85-0.65 2.75 0 0 0 0.050-0.050 0.050 0 0.050 0 0.1 0 0.15 0 0 0.050 0 0.050 0.050 0.5 0.55 0.95 1.15 1.45 1.7 0.050 0.050 0.1 0.1 0.2 0.1 1.3 0 2.65 0 3.95 0 0.1 0 0.1 0 0.15-0.1 0.1-0.4 0.2-0.85 0.3-1.25 0.15-0.55 0.25-1.1 0.4-1.65-0.5 0-1 0-1.55 0 0.15-0.7 0.3-1.3 0.4-1.85zM21.9 19.2c-0.3 0-0.6 0-0.95 0-0.1 0-0.2-0.050-0.25-0.15-0.7-1.1-1.45-2.2-2.15-3.3 0.35-0.3 2.75-2.45 3.75-3.3 0.050-0.050 0.15-0.1 0.25-0.1 0.3 0 0.65 0 0.95 0 0.1 0 0.15-0.050 0.15-0.1 0.050-0.3 0.15-0.6 0.2-0.95 0.15-0.65 0.3-1.3 0.45-1.95-0.050 0-0.050 0-0.050 0-1.25 0-2.5 0-3.75 0-0.050 0-0.1 0-0.15 0.050-1 0.85-3.35 3-3.75 3.3v0c-0.75-1.15-1.45-2.25-2.2-3.4-1.3 0-2.6 0-3.9 0 0 0.050 0 0.1 0 0.15-0.2 0.9-0.45 1.85-0.65 2.75 0 0.1 0 0.1 0.1 0.1 0.3 0 0.6 0 0.95 0 0.1 0 0.15 0.050 0.25 0.1 0.7 1.1 1.45 2.2 2.15 3.3-1.65 1.5-3.25 2.9-3.7 3.35-0.050 0.050-0.15 0.1-0.25 0.1-0.25 0-0.5 0-0.8 0-0.1 0-0.1 0.050-0.15 0.1-0.2 0.9-0.45 1.85-0.65 2.75-0.050 0.1 0 0.15 0.1 0.15 0.6 0 1.15 0 1.75 0s1.15 0 1.75 0c0.1 0 0.15-0.050 0.2-0.1 0.45-0.4 2.050-1.85 3.7-3.3 0.7 1.1 1.45 2.2 2.15 3.3 0.050 0.050 0.050 0.1 0.15 0.1 1.25 0 2.45 0 3.7 0 0.1 0 0.1-0.050 0.15-0.1 0.2-0.95 0.45-1.9 0.65-2.8-0.050-0.050-0.050-0.050-0.15-0.050zM31.25 6.8h-31.25l0.7-2.5h31.25l-0.7 2.5zM31.25 27.25h-31.25l0.7-2.5h31.25l-0.7 2.5z"
  />
</svg>
