<svg xmlns="http://www.w3.org/2000/svg" viewBox="0 0 32 32">
  <path
    d="M13.35 23.44v-13.39c0-0.95 0.235-1.185 1.195-1.185 1.095 0 2.195 0 3.29 0 0.004 0 0.009-0 0.014-0 0.838 0 1.628 0.205 2.323 0.568l-0.028-0.013c0.896 0.468 1.551 1.296 1.776 2.287l0.004 0.023c0.082 0.331 0.128 0.712 0.128 1.103 0 0.598-0.109 1.171-0.309 1.7l0.011-0.033c-0.252 0.705-0.755 1.269-1.399 1.593l-0.016 0.007 0.35 0.19c0.652 0.401 1.127 1.039 1.306 1.79l0.004 0.020c0.102 0.371 0.16 0.798 0.16 1.238 0 0.522-0.082 1.025-0.235 1.497l0.010-0.034c-0.5 1.5-1.61 2.315-3.145 2.58-0.263 0.045-0.566 0.070-0.875 0.070-0.010 0-0.021-0-0.031-0h0.002c-1.42 0-2.835 0-4.255 0zM16.21 20.94c0.5 0 0.94 0 1.4 0 0.007 0 0.016 0 0.024 0 0.705 0 1.299-0.479 1.473-1.13l0.002-0.011c0.073-0.199 0.115-0.429 0.115-0.669 0-0.619-0.281-1.172-0.722-1.538l-0.003-0.003c-0.055-0.039-0.117-0.074-0.183-0.103l-0.007-0.002c-0.685-0.275-1.395-0.125-2.1-0.17zM16.21 14.87c0.5 0 1 0 1.5 0 0.726-0.017 1.319-0.564 1.409-1.268l0.001-0.007c0.025-0.15 0.039-0.323 0.039-0.5s-0.014-0.35-0.042-0.518l0.002 0.018c-0.063-0.544-0.436-0.987-0.935-1.152l-0.010-0.003c-0.64-0.22-1.3-0.085-1.955-0.125z"
  />
  <path
    d="M29 18.55h-2.685v4.895h-2.91c0-0.080 0-0.15 0-0.225 0-3.56 0-7.12 0-10.68-0.002-0.048-0.003-0.104-0.003-0.16 0-1.235 0.586-2.334 1.494-3.033l0.009-0.007c0.707-0.506 1.59-0.81 2.544-0.81 0.194 0 0.386 0.013 0.574 0.037l-0.022-0.002c0.546 0.031 1.058 0.14 1.536 0.317l-0.036-0.012c1.47 0.555 2.165 1.72 2.365 3.22 0.019 0.142 0.030 0.306 0.030 0.473 0 0.018-0 0.037-0 0.055l0-0.003v10.82h-2.895zM28.945 15.815c0-1.16 0-2.29 0-3.415-0.007-0.108-0.030-0.208-0.067-0.302l0.002 0.007c-0.166-0.537-0.658-0.921-1.24-0.921-0.565 0-1.046 0.362-1.223 0.867l-0.003 0.009c-0.067 0.201-0.109 0.432-0.115 0.672l-0 0.003c0 0.955 0 1.91 0 2.865 0 0.070 0 0.14 0 0.215z"
  />
  <path
    d="M3 11.675v3.065h4.125v2.72h-4.125v6h-2.92v-13.41c0-0.080 0-0.165 0-0.245 0-0.65 0.29-0.935 0.94-0.935 2.275 0 4.55 0 6.825 0h0.12v2.795z"
  />
  <path
    d="M11.865 23.445h-2.9v-13.62c0.025-0.66 0.295-0.94 0.955-0.955s1.285 0 1.945 0z"
  />
</svg>
