<svg xmlns="http://www.w3.org/2000/svg" viewBox="0 0 32 32">
  <path
    d="M31.893 31.901l-0.080-0.107-0.147-0.2-0.133-0.173-0.213-0.28-0.453-0.587-0.293-0.387-0.253-0.32-0.36-0.453-0.267-0.347-0.36-0.507c0-0.080-0.12-0.147-0.173-0.213l-1-1.213-0.28-0.333-0.48-0.547-0.32-0.373-0.48-0.533-0.347-0.373-0.467-0.493-0.453-0.373-0.467-0.453c-0.109-0.118-0.222-0.227-0.341-0.329l-0.005-0.005-0.44-0.413-0.267-0.227-0.413-0.347c-0.227-0.173-0.44-0.32-0.653-0.453v0c-0.184-0.125-0.394-0.241-0.615-0.337l-0.025-0.010c-0.164-0.081-0.356-0.13-0.559-0.133h-0.001c-0.056-0.008-0.121-0.012-0.187-0.012s-0.131 0.004-0.194 0.013l0.007-0.001-0.16 0.067-0.28 0.12-0.48 0.267-0.32 0.2c-0.267 0.173-0.56 0.387-0.853 0.613l-0.12 0.080c-2.156 1.722-4.082 3.445-5.908 5.268l-0.372 0.372-1.093-0.667c-0.773-0.453-1.84-1.080-2.787-1.533-0.53-0.315-1.148-0.547-1.807-0.662l-0.033-0.005c-0.040-0.007-0.086-0.010-0.133-0.010s-0.093 0.004-0.138 0.011l0.005-0.001c-0.911 0.574-1.699 1.227-2.394 1.967l-0.006 0.006c-1.173 1.133-2.44 2.493-3.267 3.387l-1.027 1.133h32z"
  />
  <path
    d="M11.413 9.328c-1.010 0.099-1.897 0.236-2.769 0.416l0.169-0.029c0.033 3.082 0.632 6.015 1.698 8.712l-0.058-0.165c0.739 2.038 1.639 3.798 2.724 5.424l-0.057-0.091c0.39 0.106 0.877 0.204 1.375 0.273l0.065 0.007c0.973-0.893 1.813-1.6 2.533-2.173-0.147-0.307-0.293-0.587-0.44-0.907-1.517-3.359-2.69-7.261-3.327-11.341l-0.033-0.259c-0.667-0.027-1.293 0-1.88 0.133z"
  />
  <path
    d="M19.693 7.354c0.4-0.507 0.76-1 1.107-1.507-1.897-0.672-4.084-1.060-6.362-1.060-0.309 0-0.616 0.007-0.921 0.021l0.043-0.002c-3.001 0.185-5.804 0.766-8.445 1.693l0.218-0.067c-0.288 0.542-0.56 1.182-0.776 1.846l-0.024 0.087c1.933-0.665 4.193-1.168 6.529-1.415l0.137-0.012c0.835-0.081 1.804-0.128 2.785-0.128 2.019 0 3.992 0.197 5.901 0.573l-0.193-0.032z"
  />
  <path
    d="M9.533 22.008c-0.414-0.787-0.863-1.78-1.26-2.799l-0.074-0.214c-0.999-2.597-1.617-5.6-1.706-8.735l-0.001-0.038c-0.8 0.227-1.6 0.48-2.413 0.787-0.080 0.307-0.080 0.627-0.080 0.987 0.034 4.19 2.211 7.864 5.486 9.985l0.047 0.028z"
  />
  <path
    d="M23.587 10.994c1.169-1.211 2.19-2.577 3.028-4.060l0.052-0.1c0.002-0.026 0.003-0.056 0.003-0.087s-0.001-0.061-0.003-0.091l0 0.004c-0.553-1.103-1.22-2.051-2.006-2.886l0.006 0.006c-0.059 0.159-0.127 0.295-0.206 0.423l0.006-0.010c-0.861 1.681-1.8 3.127-2.868 4.467l0.041-0.053c0.733 0.72 1.373 1.573 1.947 2.387z"
  />
  <path
    d="M25.853 14.874c0.748-0.632 1.423-1.29 2.049-1.993l0.017-0.020c0-0.307 0-0.6 0-0.907-0.003-0.865-0.095-1.708-0.268-2.52l0.014 0.080c-0.877 1.307-1.807 2.449-2.831 3.498l0.005-0.005c0.322 0.509 0.659 1.121 0.963 1.752l0.050 0.115z"
  />
  <path d="M26.787 17.128v0z" />
  <path
    d="M22.067 3.834l0.373-0.707c0.147-0.32 0.307-0.64 0.44-0.96-1.916-1.353-4.299-2.162-6.871-2.162-3.23 0-6.162 1.276-8.32 3.352l0.004-0.004c1.696-0.449 3.671-0.758 5.701-0.864l0.072-0.003c0.284-0.013 0.617-0.021 0.951-0.021 2.746 0 5.375 0.501 7.801 1.418l-0.152-0.050z"
  />
  <path
    d="M18.96 20.274c0.7-0.548 1.577-0.9 2.534-0.959l0.013-0.001c1.089 0.113 2.059 0.548 2.834 1.206l-0.007-0.006c0.253-0.253 0.52-0.52 0.76-0.787-0.29-1.23-0.642-2.288-1.076-3.304l0.050 0.131c-1.172-2.641-2.69-4.907-4.532-6.866l0.012 0.013c-1.127-0.236-2.475-0.416-3.849-0.502l-0.085-0.004c0.616 3.957 1.681 7.513 3.161 10.844l-0.108-0.271c0.133 0.227 0.213 0.333 0.293 0.507z"
  />
</svg>
