<svg xmlns="http://www.w3.org/2000/svg" viewBox="0 0 32 32">
  <path
    d="M21.507 21.333c-1.108 0.315-2.063 0.868-2.843 1.603l0.003-0.003c-2.204 1.803-4.181 3.599-6.064 5.49l-0.003 0.003s-4.6-2.867-5.72-2.867-6.88 6.44-6.88 6.44h32s-7.88-10.667-10.493-10.667z"
  />
  <path
    d="M5.867 13.813c0.762 0.501 1.696 0.8 2.7 0.8 0.496 0 0.976-0.073 1.428-0.209l-0.035 0.009c-0.313 0.636-0.496 1.385-0.496 2.176 0 1.004 0.294 1.939 0.801 2.723l-0.012-0.020c-0.987 0.154-1.84 0.636-2.463 1.329l-0.003 0.004c1.782 1.707 4.097 2.872 6.671 3.22l0.062 0.007c1.093-1 2.027-1.787 2.8-2.387-0.354-0.279-0.758-0.52-1.192-0.707l-0.035-0.013c1.413-0.093 2.8-2.147 3.040-3.56 1.020 0.465 2.212 0.736 3.467 0.736 0.3 0 0.597-0.016 0.89-0.046l-0.037 0.003c-0.224 0.492-0.354 1.066-0.354 1.671 0 0.088 0.003 0.174 0.008 0.261l-0.001-0.012c0.513 0.263 0.95 0.533 1.362 0.833l-0.029-0.020c1.91-1.852 3.204-4.329 3.554-7.101l0.006-0.059c-0.351-0.163-0.761-0.258-1.193-0.258s-0.843 0.095-1.211 0.265l0.018-0.007c0.092-0.309 0.145-0.664 0.145-1.032 0-1.276-0.638-2.403-1.613-3.080l-0.012-0.008c1.72-0.16 2.667-3.147 2.667-3.147-1.152-2.107-2.84-3.795-4.883-4.915l-0.063-0.032s-2.907-0.4-3.773 0.52c-1.133-1.76-4.227-1.76-4.227-1.76-2.447 0.476-4.57 1.629-6.229 3.255l0.002-0.002c0 0.002 0 0.005 0 0.008 0 0.978 0.456 1.85 1.167 2.414l0.006 0.005c-1.547 0.36-3.147 2.52-2.88 3.387-0.31-0.404-0.791-0.662-1.333-0.667h-0.001c-0.323 1.035-0.509 2.225-0.509 3.459 0 1.328 0.216 2.605 0.614 3.799l-0.024-0.085c0.541-0.46 0.955-1.055 1.191-1.732l0.009-0.028zM17.867 2.507c0.4 2.187 2.813 5.84 5.067 6.56-2.422 0.931-4.11 3.238-4.11 5.94 0 0.218 0.011 0.434 0.033 0.647l-0.002-0.027c-1.52-2.16-5.973-3.467-8.28-2.173 0.495-0.935 0.785-2.044 0.785-3.221 0-1.682-0.593-3.225-1.581-4.432l0.010 0.012c0.219 0.018 0.474 0.028 0.731 0.028 2.917 0 5.533-1.286 7.312-3.323l0.010-0.011z"
  />
</svg>
