<svg xmlns="http://www.w3.org/2000/svg" viewBox="0 0 32 32">
  <path
    d="M21.333 1.907v0c-1.198-0.363-2.574-0.572-3.999-0.573h-0.001c-7.522 0.041-13.701 5.74-14.501 13.055l-0.006 0.065h-2.827l4.96 7.027 4.947-7.027h-2.6c0.774-4.91 4.962-8.625 10.024-8.653h0.003c0.974 0.003 1.915 0.139 2.807 0.391l-0.073-0.018c4.332 1.248 7.447 5.176 7.447 9.832 0 3.532-1.792 6.644-4.517 8.479l-0.036 0.023c-1.585 1.023-3.522 1.632-5.6 1.632-2.555 0-4.896-0.919-6.709-2.445l0.016 0.013-2.88 3.347c2.555 2.215 5.912 3.565 9.585 3.565 3.004 0 5.797-0.903 8.122-2.452l-0.054 0.034c3.953-2.669 6.518-7.132 6.518-12.195 0-6.66-4.44-12.284-10.521-14.073l-0.104-0.026z"
  />
  <path
    d="M13.507 23.093h8.44v-3.547l-3.107-3.547 3.107-3.547v-3.547h-8.44v3.547l3.187 3.52-3.187 3.573v3.547z"
  />
</svg>
