<svg xmlns="http://www.w3.org/2000/svg" viewBox="0 0 32 32">
  <path
    d="M20.33 23.935h-14.585l2.94-2.935-2.12-2.12-6.565 6.555 6.565 6.565 2.12-2.12-2.94-2.945h14.585c3.866 0 7-3.134 7-7v0h-3c0 2.209-1.791 4-4 4v0z"
  />
  <path
    d="M11.67 8.065h14.585l-2.94 2.935 2.12 2.12 6.565-6.555-6.565-6.565-2.12 2.12 2.94 2.945h-14.585c-3.866 0-7 3.134-7 7v0h3c0-2.209 1.791-4 4-4v0z"
  />
  <path
    d="M17.715 22v-4.285h4.285v-3.43h-4.285v-4.285h-3.43v4.285h-4.285v3.43h4.285v4.285h3.43z"
  />
</svg>
