<svg xmlns="http://www.w3.org/2000/svg" viewBox="0 0 32 32">
  <path
    d="M28.987 16.387c-0.52-2.921-3.036-5.112-6.066-5.12h-6.188v-2.987c1.462-0.345 2.533-1.639 2.533-3.183 0-1.804-1.463-3.267-3.267-3.267s-3.267 1.463-3.267 3.267c0 1.544 1.071 2.838 2.511 3.179l0.022 0.004v2.987h-6.187c-3.031 0.008-5.547 2.199-6.061 5.083l-0.006 0.037c-1.687 0.122-3.010 1.519-3.013 3.226v2.227c0.003 1.707 1.326 3.105 3.003 3.226l0.010 0.001c0.52 2.921 3.036 5.112 6.066 5.12h13.841c3.031-0.008 5.547-2.199 6.061-5.083l0.006-0.037c1.687-0.122 3.010-1.519 3.013-3.226v-2.227c-0.003-1.707-1.326-3.105-3.003-3.226l-0.011-0.001zM10.12 23.64c-0.020 0-0.043 0.001-0.067 0.001-1.812 0-3.28-1.468-3.28-3.28s1.469-3.28 3.28-3.28c1.811 0 3.28 1.468 3.28 3.279v0c0 0 0 0 0 0.001 0 1.788-1.431 3.242-3.21 3.279l-0.003 0zM21.88 23.64c-1.811 0-3.28-1.468-3.28-3.28s1.468-3.28 3.28-3.28c1.811 0 3.28 1.468 3.28 3.28v0c0 1.811-1.468 3.28-3.28 3.28v0z"
  />
</svg>
