<svg xmlns="http://www.w3.org/2000/svg" viewBox="0 0 40 40">
  <path
    d="M20.000,39.812 C9.058,39.812 0.188,30.942 0.188,20.000 C0.188,9.058 9.058,0.188 20.000,0.188 C30.942,0.188 39.812,9.058 39.812,20.000 C39.812,30.942 30.942,39.812 20.000,39.812 ZM23.356,36.756 C23.356,36.756 26.992,36.006 29.683,34.393 C31.824,33.113 33.670,31.174 33.670,31.174 L30.832,28.001 C30.832,28.001 29.371,29.742 26.600,31.196 C24.413,32.343 22.571,32.802 22.571,32.802 L23.356,36.756 ZM10.267,34.393 C12.959,36.006 16.595,36.756 16.595,36.756 L17.380,32.802 C17.380,32.802 15.538,32.343 13.351,31.196 C10.580,29.742 9.118,28.001 9.118,28.001 L6.280,31.174 C6.280,31.174 8.127,33.113 10.267,34.393 ZM3.897,13.264 C3.897,13.264 2.881,16.204 2.805,19.341 C2.729,22.477 3.868,26.011 3.868,26.011 L7.695,24.745 C7.695,24.745 7.196,22.996 7.117,20.527 C7.016,17.399 7.912,15.528 7.912,15.528 L3.897,13.264 ZM17.628,3.004 C17.628,3.004 13.994,3.759 11.304,5.375 C8.615,6.992 6.561,9.328 6.561,9.328 L10.514,11.700 C10.514,11.700 11.697,9.995 14.466,8.537 C16.652,7.387 18.419,6.956 18.419,6.956 L17.628,3.004 ZM21.073,12.764 L19.639,12.764 L19.639,13.758 C18.585,13.882 17.795,14.208 17.268,14.737 C16.742,15.267 16.478,15.997 16.478,16.927 C16.478,17.569 16.603,18.145 16.852,18.653 C17.101,19.162 17.397,19.556 17.739,19.837 C18.080,20.117 18.727,20.555 19.677,21.151 C20.248,21.505 20.582,21.833 20.679,22.134 C20.777,22.434 20.826,22.934 20.826,23.633 C20.826,23.910 20.774,24.120 20.672,24.261 C20.569,24.403 20.412,24.473 20.201,24.473 C19.955,24.473 19.799,24.372 19.735,24.169 C19.671,23.966 19.639,23.445 19.639,22.608 L19.639,21.845 L16.525,21.845 L16.525,22.454 C16.525,23.841 16.835,24.814 17.457,25.371 C18.079,25.929 18.806,26.249 19.639,26.331 L19.639,27.541 L21.073,27.541 L21.073,26.369 C22.141,26.220 22.943,25.830 23.478,25.198 C24.012,24.566 24.279,23.695 24.279,22.585 C24.279,21.891 24.180,21.311 23.982,20.846 C23.785,20.381 23.542,20.022 23.254,19.767 C22.966,19.513 22.427,19.147 21.635,18.669 C20.705,18.103 20.145,17.723 19.955,17.528 C19.759,17.333 19.662,16.991 19.662,16.503 C19.662,16.210 19.709,15.990 19.804,15.844 C19.900,15.697 20.042,15.624 20.232,15.624 C20.469,15.624 20.623,15.709 20.695,15.878 C20.767,16.048 20.803,16.408 20.803,16.957 L20.803,17.474 L23.917,17.474 C23.937,17.212 23.948,17.017 23.948,16.888 C23.948,15.968 23.709,15.248 23.231,14.726 C22.753,14.204 22.033,13.882 21.073,13.758 L21.073,12.764 ZM28.468,5.112 C26.299,3.883 23.700,3.236 23.700,3.236 L22.344,7.272 C22.344,7.272 24.579,7.682 27.213,9.372 C29.291,10.707 30.600,12.081 30.600,12.081 L33.650,9.445 C33.650,9.445 31.200,6.655 28.468,5.112 ZM36.844,13.264 L32.829,15.528 C32.829,15.528 33.726,17.399 33.625,20.527 C33.545,22.996 33.046,24.745 33.046,24.745 L36.873,26.011 C36.873,26.011 38.012,22.477 37.936,19.341 C37.860,16.204 36.844,13.264 36.844,13.264 Z"
  />
</svg>
