<svg xmlns="http://www.w3.org/2000/svg" viewBox="0 0 32 32">
  <path
    d="M8.28 8.364c0.988-0.554 1.645-1.595 1.645-2.789 0-1.76-1.427-3.187-3.187-3.187s-3.187 1.427-3.187 3.187c0 0.601 0.167 1.164 0.456 1.643l-0.008-0.014c0.562 0.941 1.575 1.562 2.734 1.562 0.568 0 1.101-0.149 1.562-0.41l-0.016 0.008z"
  />
  <path
    d="M9.933 12.164l-6.013 3.467 1.787 3.107 12.2-7.067-1.773-3.080c-0.63-1.078-1.782-1.791-3.1-1.791-1.976 0-3.578 1.602-3.578 3.578 0 0.658 0.177 1.274 0.487 1.804l-0.009-0.017z"
  />
  <path
    d="M27.707 13.457l-4-4.467-1.080 0.6-3.68-6.387 1.093-0.627-1.24-2.133-1.093 0.627-0.613-1.067-2.133 1.24 8.48 14.68 4.267-2.467z"
  />
  <path
    d="M28.36 16.43l-12 6.92-1.693-2.92 3.133-1.76c1.086-0.627 1.805-1.782 1.805-3.105 0-0.653-0.175-1.265-0.481-1.792l0.009 0.017-6.213 3.547c-1.089 0.626-1.811 1.783-1.811 3.109 0 0.657 0.177 1.273 0.487 1.802l-0.009-0.017 1.747 2.907-5.187 2.973c-0.337 0.2-0.743 0.318-1.176 0.318-0.861 0-1.613-0.466-2.018-1.16l-0.006-0.011-3.107 1.787c1.047 1.778 2.951 2.953 5.13 2.953 1.091 0 2.113-0.294 2.991-0.808l-0.028 0.015 20.227-11.667z"
  />
</svg>
