<svg xmlns="http://www.w3.org/2000/svg" viewBox="0 0 32 32">
  <path
    d="M3.768 23.415l0.39 2.537c0.585 3.317 5.463 6.049 12.098 6.049s11.512-2.732 12.098-6.049l0.39-2.537h-24.976z"
    fill="#ee556c"
    style="fill: #ee556c"
  />
  <path
    d="M16.256 28.488c6.049 0 10.732-2.146 12.488-5.073l0.976-8.195h-26.927l0.976 8.195c1.756 2.927 6.439 5.073 12.488 5.073z"
    fill="#fff8e7"
    style="fill: #fff8e7"
  />
  <path
    d="M29.72 15.22c0 3.341-6.028 6.049-13.463 6.049s-13.463-2.708-13.463-6.049c0-3.341 6.028-6.049 13.463-6.049s13.463 2.708 13.463 6.049z"
    fill="#fff"
    style="fill: #fff"
  />
  <path
    d="M29.72 15.22c0 3.317-6.049 6.049-13.463 6.049s-13.463-2.732-13.463-6.049 3.902-7.415 13.463-7.415 13.463 3.902 13.463 7.415z"
    fill="#ee556c"
    style="fill: #ee556c"
  />
  <path
    d="M16.256 0c-0.78 0-2.537 4.488 0 4.488s0.78-4.488 0-4.488z"
    fill="#ffc05c"
    style="fill: #ffc05c"
  />
  <path
    d="M19.378 10.927l-1.951 0.585c-0.585 0-1.171-0.195-1.366-0.78v0c-0.195-0.585 0.195-0.976 0.585-1.171l1.951-0.585c0.585-0.195 1.171 0 1.366 0.585v0c0.195 0.585-0.195 1.171-0.585 1.366z"
    fill="#17fcfc"
    style="fill: #17fcfc"
  />
  <path
    d="M6.89 13.268l-1.366 0.39c-0.585 0.195-1.171-0.195-1.366-0.585v0c-0.195-0.585 0.195-1.171 0.78-1.366l1.366-0.39c0.585-0.195 1.171 0.195 1.171 0.585v0c0.195 0.585 0 1.171-0.585 1.366z"
    fill="#8aff64"
    style="fill: #8aff64"
  />
  <path
    d="M25.427 14.829l-0.78-1.756c-0.195-0.585 0-1.171 0.585-1.366v0c0.585-0.195 1.171 0 1.366 0.585l0.78 1.756c0.195 0.585 0 1.171-0.585 1.366v0c-0.585 0-1.171-0.195-1.366-0.585z"
    fill="#8aff64"
    style="fill: #8aff64"
  />
  <path
    d="M20.159 18.927l-1.171-0.585c-0.585-0.195-0.78-0.78-0.39-1.366v0c0.195-0.585 0.78-0.78 1.366-0.39l1.171 0.585c0.39 0.195 0.585 0.78 0.39 1.366v0c-0.39 0.39-0.976 0.585-1.366 0.39z"
    fill="#fdaa14"
    style="fill: #fdaa14"
  />
  <path
    d="M14.5 5.659v8.78c0 0.39 0.39 1.171 1.756 1.171s1.756-0.78 1.756-1.171v-8.78h-3.512z"
    fill="#fff8e7"
    style="fill: #fff8e7"
  />
  <path
    d="M18.012 5.659c0 0.431-0.786 0.78-1.756 0.78s-1.756-0.349-1.756-0.78c0-0.431 0.786-0.78 1.756-0.78s1.756 0.349 1.756 0.78z"
    fill="#fff"
    style="fill: #fff"
  />
  <path
    d="M21.915 1.561c-0.78 0-2.146 3.902 0 3.902s0.585-3.902 0-3.902z"
    fill="#ffc05c"
    style="fill: #ffc05c"
  />
  <path
    d="M20.354 6.244v7.415c0 0.39 0.39 0.976 1.561 0.976s1.561-0.585 1.561-0.976v-7.415h-3.122z"
    fill="#fff8e7"
    style="fill: #fff8e7"
  />
  <path
    d="M23.476 6.244c0 0.323-0.699 0.585-1.561 0.585s-1.561-0.262-1.561-0.585c0-0.323 0.699-0.585 1.561-0.585s1.561 0.262 1.561 0.585z"
    fill="#fff"
    style="fill: #fff"
  />
  <path
    d="M10.402 1.561c-0.78 0-2.146 3.902 0 3.902s0.78-3.902 0-3.902z"
    fill="#ffc05c"
    style="fill: #ffc05c"
  />
  <path
    d="M9.037 6.244v7.415c0 0.39 0.39 0.976 1.561 0.976s1.366-0.585 1.366-0.976v-7.415h-2.927z"
    fill="#fff8e7"
    style="fill: #fff8e7"
  />
  <path
    d="M11.768 6.244c0 0.323-0.611 0.585-1.366 0.585s-1.366-0.262-1.366-0.585c0-0.323 0.611-0.585 1.366-0.585s1.366 0.262 1.366 0.585z"
    fill="#fff"
    style="fill: #fff"
  />
  <path
    d="M21.524 26.927c-0.976 0-1.951-0.39-2.537-0.976-0.78-0.78-1.951-1.171-3.122-0.976-1.171 0-2.146 0.39-3.122 1.171s-2.146 0.976-3.317 0.585-2.341-2.732-3.317-3.512c-0.976-0.78-3.902-0.585-3.902-2.927 0-0.39 0.195-0.976 0.78-1.171 0.585 0 0.976 0.195 1.171 0.78s1.171 0.78 2.927 1.561c1.756 0.976 1.756 3.317 3.122 3.512 1.951 0.39 2.927-1.756 5.659-1.756 1.561 0 3.122 0.39 4.293 1.366 0.39 0.39 0.976 0.585 1.561 0.585 0.78 0 1.171-0.585 1.951-1.561 0.585-0.78 1.171-1.561 1.756-2.146 0.585-0.39 2.341-0.78 3.122-0.78 0.585 0 0.976 0.195 1.171 0.585 0.195 0.585 0 0.976-0.585 1.171-0.78 0.39-1.756 0-2.732 0.585-1.561 0.976-1.561 3.707-4.878 3.902z"
    fill="#ffc05c"
    style="fill: #ffc05c"
  />
  <path
    d="M13.134 17.366l-1.756 0.976c-0.585 0.195-1.171 0-1.366-0.39v0c-0.195-0.585 0-1.171 0.39-1.366l1.756-0.976c0.585-0.195 1.171 0 1.366 0.39v0c0.39 0.585 0.195 1.171-0.39 1.366z"
    fill="#17fcfc"
    style="fill: #17fcfc"
  />
</svg>
