<svg xmlns="http://www.w3.org/2000/svg" viewBox="0 0 32 32">
  <path
    d="M22.8 10.267c-1.733 0-3.333 0.533-4.667 1.333v0c0 0 0 0 0 0-0.267 0.267-0.533 0.4-0.8 0.667-0.133 0.133-0.267 0.133-0.4 0.267-0.4 0.267-0.667 0.667-0.933 0.933-0.133 0.133-0.267 0.4-0.533 0.533-0.133 0.133-0.267 0.4-0.4 0.533-0.133 0.267-0.4 0.533-0.533 0.933 0 0.133-0.133 0.267-0.133 0.4-0.133 0.4-0.267 0.933-0.4 1.467 0 0.133 0 0.267-0.133 0.4-0.133 0.533-0.133 1.067-0.133 1.6 0 0.267 0 0.667 0.133 0.933 0 0 0 0 0 0 0.533 4.533 4.267 8.133 8.933 8.133 4.933 0 9.067-4 9.067-9.067 0-4.933-4-9.067-9.067-9.067z"
  />
  <path
    d="M16.8 7.867c-1.6-2.533-4.4-4.267-7.6-4.267-4.933 0-9.067 4-9.067 9.067s4 9.067 9.067 9.067c0.267 0 0.533 0 0.8-0.133-0.133-0.667-0.267-1.467-0.267-2.267 0-4.933 2.933-9.333 7.067-11.467z"
  />
</svg>
