<svg xmlns="http://www.w3.org/2000/svg" viewBox="0 0 32 32">
  <path
    d="M25.733 21.733h2c0.533 0 0.933 0.667 0.533 1.067l-6.8 7.733c-0.533 0.667-1.467 0.667-2 0l-6.8-7.733c-0.4-0.4-0.133-1.067 0.533-1.067h2c0.4 0 0.667-0.267 0.667-0.667v-7.2c0-0.8 0.533-1.333 1.333-1.333h6.533c0.8 0 1.333 0.533 1.333 1.333v7.2c0 0.4 0.267 0.667 0.667 0.667zM8.933 20.4c0.533-1.2 1.6-2.133 2.933-2.533v-4.133c0-2.933 2.4-5.333 5.333-5.333h1.2v-6c0-0.8-0.533-1.333-1.333-1.333h-12c-0.8 0-1.333 0.533-1.333 1.333v19.867c0 0.8 0.533 1.333 1.333 1.333h3.6c-0.267-1.067-0.267-2.133 0.267-3.2z"
  />
</svg>
