<svg xmlns="http://www.w3.org/2000/svg" viewBox="0 0 32 32">
  <path
    d="M30.027 26.813c-1.038 1.468-2.729 2.415-4.641 2.415-0.997 0-1.934-0.258-2.748-0.71l0.029 0.015-3-1.653 1.333-2.44 3 1.667c0.383 0.215 0.84 0.342 1.327 0.342 1.031 0 1.929-0.568 2.399-1.408l0.007-0.014c0.646-1.149 1.026-2.521 1.026-3.983 0-3.082-1.692-5.769-4.199-7.183l-0.041-0.021-6.027-3.32-0.653 1.187c-0.227 0.432-0.672 0.721-1.184 0.721-0.252 0-0.487-0.070-0.688-0.191l0.006 0.003-6-3.32-2.667-4.6-4.413-2.44-0.507 12.267 3.68 2.040-1.347 2.48-3.387-1.907-1.333 2.333 21.333 11.773c1.152 0.654 2.531 1.039 4 1.040h0c0.002 0 0.004 0 0.007 0 2.819 0 5.311-1.402 6.815-3.547l0.018-0.027zM8.4 17.48l10.267 5.667-1.333 2.44-10.28-5.667z"
  />
</svg>
