<svg xmlns="http://www.w3.org/2000/svg" viewBox="0 0 32 32">
  <path
    d="M16 0c-8.837 0-16 7.163-16 16s7.163 16 16 16c8.837 0 16-7.163 16-16v0c0-8.837-7.163-16-16-16v0zM16 20.87c-1.538 0-2.785-1.247-2.785-2.785s1.247-2.785 2.785-2.785c1.538 0 2.785 1.247 2.785 2.785v0c0 1.538-1.247 2.785-2.785 2.785v0zM20.175 11.825c-0.001 0-0.003 0-0.005 0-1.538 0-2.785-1.247-2.785-2.785s1.247-2.785 2.785-2.785c1.538 0 2.785 1.247 2.785 2.785 0 0.002 0 0.004 0 0.005v-0c0 1.535-1.245 2.78-2.78 2.78v0zM26.435 20.175c-0.001 0-0.003 0-0.005 0-1.538 0-2.785-1.247-2.785-2.785s1.247-2.785 2.785-2.785c1.538 0 2.785 1.247 2.785 2.785v0c0 0 0 0 0 0 0 1.536-1.244 2.782-2.78 2.785h-0z"
  />
</svg>
