<svg xmlns="http://www.w3.org/2000/svg" viewBox="0 0 32 32">
  <path
    d="M26.178 0.987c-3.708-1.112-10.234-0.927-10.178-0.983 0 0 0 0 0 0v0s-6.47-0.13-10.178 0.983c-2.744 0.816-5.822 3.689-5.822 4.728 0 3.615 0.797 7.842 0.797 11.439 0 1.798 1.613 4.338 3.022 7.045 1.298 2.484 2.762 4.431 4.023 5.859 0.297 0.371 0.797 0.964 1.502 0.964 1.706 0 4.765-3.708 5.543-4.672 1.131-1.39 1.205-3.689 0.538-5.358-1.057-2.651-3.541-4.561-5.766-4.561-0.519 0-1.187 0.037-1.965 0.371l-0.371-2.447h17.353l-0.371 2.447c-0.797-0.334-1.446-0.371-1.965-0.371-2.225 0-4.709 1.91-5.766 4.561-0.667 1.687-0.593 3.986 0.538 5.358 0.779 0.964 3.838 4.672 5.543 4.672 0.704 0 1.205-0.593 1.502-0.964 1.242-1.428 2.725-3.374 4.023-5.859 1.409-2.707 3.022-5.247 3.022-7.045 0-3.597 0.797-7.842 0.797-11.439 0-1.038-3.059-3.893-5.822-4.728zM15.87 11.555s0 0 0 0v0c-2.503 0-4.524-2.058-4.524-4.598s2.021-4.598 4.524-4.598v0s0 0 0 0c0.297 0 1.891 0 3.189 1.353 0.816 0.834 1.316 1.984 1.316 3.245 0 2.54-2.021 4.598-4.524 4.598z"
  />
</svg>
