<svg xmlns="http://www.w3.org/2000/svg" viewBox="0 0 32 32">
  <path
    d="M27.333 29.333c0 1.473-1.194 2.667-2.667 2.667v0h-14.667c-1.473 0-2.667-1.194-2.667-2.667v0-1.333h20z"
  />
  <path
    d="M6.080 9.333c0.12 0.855 0.274 1.595 0.47 2.317l-0.030-0.131c0.285 0.938 0.459 2.018 0.48 3.135l0 0.012h2c-0.022-1.286-0.22-2.517-0.571-3.683l0.025 0.096c-0.228-0.781-0.389-1.69-0.451-2.627l-0.002-0.039v-4.413c0-2.209 1.791-4 4-4v0h9.333c4.418 0 8 3.582 8 8v0 9.333l-2.507 8h-18.827l-5.333-8v-4c-0-0.013-0-0.028-0-0.043 0-2.002 1.471-3.661 3.391-3.954l0.022-0.003z"
  />
</svg>
