<svg xmlns="http://www.w3.org/2000/svg" viewBox="0 0 32 32">
  <path
    d="M16 2.085l0.33 0.335q2.17 2.235 4.35 4.455c0.322 0.327 0.733 0.565 1.193 0.677l0.017 0.003c1.965 0.455 3.93 0.9 5.895 1.35l0.69 0.155-0.15 0.5q-0.89 2.875-1.77 5.75c-0.067 0.213-0.105 0.458-0.105 0.712s0.038 0.499 0.11 0.73l-0.005-0.017q0.885 2.87 1.785 5.765l0.135 0.44-1.125 0.26q-2.715 0.615-5.435 1.245c-0.496 0.125-0.923 0.373-1.26 0.71v0q-2.155 2.185-4.29 4.395l-0.36 0.365-0.375-0.385q-2.13-2.195-4.28-4.385c-0.339-0.334-0.765-0.58-1.241-0.701l-0.019-0.004c-2.195-0.5-4.36-1-6.56-1.5l0.365-1.165q0.79-2.545 1.57-5.090c0.063-0.204 0.099-0.439 0.099-0.683s-0.036-0.478-0.104-0.699l0.004 0.017q-0.89-2.905-1.79-5.82l-0.14-0.45 1.105-0.255 5.455-1.25c0.493-0.12 0.918-0.363 1.255-0.695l-0 0c1.445-1.47 2.885-2.95 4.325-4.425l0.325-0.34zM16 0.050c-0.095 0-0.19 0.080-0.345 0.235q-2.685 2.76-5.38 5.5c-0.133 0.138-0.302 0.241-0.492 0.293l-0.008 0.002q-3.845 0.92-7.67 1.77c-0.43 0.1-0.465 0.17-0.335 0.59 0.755 2.44 1.5 4.875 2.26 7.315 0.023 0.075 0.036 0.161 0.036 0.25s-0.013 0.175-0.037 0.256l0.002-0.006c-0.665 2.18-1.345 4.355-2 6.53-0.105 0.34-0.21 0.685-0.315 1.040 0 0.22 0.15 0.28 0.345 0.325q3.835 0.85 7.69 1.75c0.208 0.055 0.387 0.159 0.53 0.3l-0-0c1.8 1.83 3.585 3.675 5.38 5.5 0.15 0.155 0.25 0.235 0.345 0.235s0.19-0.080 0.34-0.235c1.795-1.84 3.58-3.68 5.38-5.5 0.143-0.139 0.322-0.242 0.522-0.293l0.008-0.002q3.825-0.905 7.65-1.755c0.43-0.1 0.465-0.165 0.335-0.59q-1.13-3.645-2.24-7.285c-0.026-0.081-0.041-0.175-0.041-0.273s0.015-0.191 0.043-0.279l-0.002 0.007q1.095-3.615 2.215-7.23c0.16-0.5 0.13-0.555-0.37-0.67q-3.81-0.87-7.615-1.74c-0.196-0.045-0.366-0.14-0.5-0.27l0 0q-2.685-2.755-5.38-5.53c-0.155-0.16-0.25-0.24-0.35-0.24z"
  />
  <path
    d="M16.22 25.735c-3.31-0.080-5.965-1.18-8-3.53-1.455-1.588-2.347-3.714-2.347-6.047 0-0.286 0.013-0.569 0.040-0.848l-0.003 0.036c0.34-3.86 2.4-6.55 5.87-8.155 1.226-0.591 2.666-0.936 4.186-0.936 0.965 0 1.898 0.139 2.779 0.398l-0.070-0.018c3.42 0.93 5.84 3.035 7 6.41 0.335 0.898 0.529 1.936 0.529 3.020 0 1.76-0.512 3.401-1.395 4.781l0.021-0.036c-1.497 2.502-4.004 4.267-6.944 4.738l-0.056 0.007c-0.615 0.11-1.215 0.135-1.61 0.18zM16 23.355h3.95c0.56 0 0.79-0.235 0.8-0.79 0-0.355 0-0.72 0-1.075 0.019-0.143 0.087-0.268 0.185-0.36l0-0c0.4-0.345 0.845-0.64 1.215-1 1.193-1.127 1.936-2.72 1.936-4.486 0-0.038-0-0.077-0.001-0.115l0 0.006c-0.034-2.009-1.001-3.785-2.485-4.919l-0.015-0.011c-1.483-1.223-3.403-1.964-5.496-1.964-0.412 0-0.818 0.029-1.215 0.085l0.046-0.005c-2 0.183-3.766 1.058-5.085 2.38l-0 0c-1.196 1.126-1.94 2.72-1.94 4.488 0 0.027 0 0.054 0.001 0.081l-0-0.004c0.028 2.002 0.97 3.779 2.427 4.935l0.013 0.010c0.29 0.245 0.715 0.415 0.855 0.72 0.062 0.229 0.097 0.492 0.097 0.763 0 0.143-0.010 0.285-0.029 0.423l0.002-0.016c0 0.68 0.205 0.88 0.895 0.88z"
  />
  <path
    d="M9.89 17.5c0.083-1.355 1.202-2.422 2.57-2.422 0.035 0 0.070 0.001 0.105 0.002l-0.005-0c0.012-0 0.026-0 0.040-0 1.411 0 2.555 1.144 2.555 2.555s-1.144 2.555-2.555 2.555c-0.054 0-0.108-0.002-0.162-0.005l0.007 0c-0.003 0-0.006 0-0.009 0-1.408 0-2.55-1.142-2.55-2.55 0-0.047 0.001-0.095 0.004-0.142l-0 0.007z"
  />
  <path
    d="M22.13 17.63c-0.063 1.41-1.222 2.53-2.643 2.53s-2.579-1.12-2.642-2.524l-0-0.006c0.063-1.41 1.222-2.53 2.642-2.53s2.579 1.12 2.642 2.524l0 0.006z"
  />
  <path d="M16.065 18.385l0.825 1.76h-1.765l0.82-1.765z" />
  <path
    d="M17.78 14.095c0.15 0.145 0.295 0.23 0.345 0.355 0.006 0.026 0.010 0.056 0.010 0.088 0 0.102-0.040 0.194-0.105 0.263l0-0c-0.339 0.224-0.734 0.447-1.144 0.644l-0.061 0.026c-0.090 0.040-0.295-0.055-0.37-0.145s-0.080-0.325 0-0.36c0.4-0.3 0.845-0.565 1.325-0.87z"
  />
  <path
    d="M14.435 14.11c0.135 0.045 0.21 0.060 0.275 0.090 0.325 0.18 0.65 0.355 0.965 0.54 0.137 0.056 0.232 0.189 0.232 0.343 0 0.204-0.166 0.37-0.37 0.37-0.077 0-0.149-0.024-0.208-0.064l0.001 0.001c-0.417-0.209-0.759-0.407-1.089-0.622l0.044 0.027c-0.084-0.083-0.136-0.199-0.136-0.326 0-0.026 0.002-0.051 0.006-0.076l-0 0.003c0.025-0.115 0.19-0.2 0.28-0.285z"
  />
</svg>
