<svg xmlns="http://www.w3.org/2000/svg" viewBox="0 0 31 32">
  <path
    d="M12.807 6.933c8.262-2.201 14.817 1.723 15.918 2.392-0.367-0.335-7.433-6.667-16.572-4.035-8.086 2.329-11.021 9.761-11.34 10.575 0.782-1.26 4.482-6.938 11.994-8.948z"
  />
  <path
    d="M16.46 20.697c7.959-1.962 12.568-7.066 14.259-8.948-0.782-0.67-7.544-6.22-16.667-4.259-10.048 2.169-13.78 11.468-14.052 12.154 2.408 0.845 8.804 2.935 16.444 1.053z"
  />
  <path
    d="M16.667 23.935c-7.48 1.595-13.19 0.144-15.838-1.451 1.292 1.563 7.544 6.364 16.3 4.45 8.246-1.802 11.898-8.134 13.031-11.994-1.802 3.349-6.523 7.512-13.493 8.996z"
  />
</svg>
