<svg xmlns="http://www.w3.org/2000/svg" viewBox="0 0 32 32">
  <path d="M0 25.933h20.853v6.053h-20.853v-6.053z" />
  <path d="M11.933 0h-11.933v6.053h7.52c0.907-2.387 2.44-4.467 4.413-6.053z" />
  <path d="M6.68 12.973h-6.68v6.053h8.933c-1.173-1.787-1.96-3.84-2.24-6.053z" />
  <path
    d="M32 24.64l-3.493-5.48c2.107-2.027 3.427-4.853 3.427-8 0-6.12-4.973-11.093-11.093-11.093s-11.093 4.973-11.093 11.093 4.973 11.093 11.093 11.093c1.24 0 2.44-0.213 3.56-0.6l3.56 5.573 4.040-2.587zM14.547 11.16c0-3.467 2.827-6.293 6.293-6.293s6.293 2.827 6.293 6.293-2.827 6.293-6.293 6.293-6.293-2.827-6.293-6.293z"
  />
</svg>
