<svg xmlns="http://www.w3.org/2000/svg" viewBox="0 0 32 32">
  <path
    d="M8.37 10.665h15.26c-0.104-0.905-0.351-1.73-0.72-2.485l0.020 0.045c1.782-1.774 2.885-4.229 2.885-6.942 0-0.001 0-0.002 0-0.003v0c0-0.707-0.573-1.28-1.28-1.28s-1.28 0.573-1.28 1.28v0c-0.002 1.847-0.698 3.531-1.841 4.807l0.006-0.007c-1.388-1.385-3.304-2.241-5.42-2.241s-4.032 0.856-5.42 2.241l0-0c-1.137-1.269-1.833-2.953-1.835-4.799v-0.001c0-0.707-0.573-1.28-1.28-1.28s-1.28 0.573-1.28 1.28v0c0 0.001 0 0.002 0 0.003 0 2.713 1.103 5.168 2.885 6.942l0 0c-0.349 0.71-0.596 1.535-0.697 2.405l-0.003 0.035z"
  />
  <path
    d="M29.44 25.175c-2.366-0.008-4.353-1.62-4.932-3.804l-0.008-0.036h4.735c0.707 0 1.28-0.573 1.28-1.28s-0.573-1.28-1.28-1.28h-4.735c0.588-2.223 2.58-3.836 4.95-3.84h0c0.707 0 1.28-0.573 1.28-1.28s-0.573-1.28-1.28-1.28v0c-2.298 0.001-4.359 1.013-5.762 2.616l-0.008 0.009v-0.92h-15.36v0.92c-1.409-1.609-3.466-2.621-5.759-2.625h-0.001c-0.707 0-1.28 0.573-1.28 1.28s0.573 1.28 1.28 1.28v0c2.366 0.008 4.353 1.62 4.932 3.804l0.008 0.036h-4.725c-0.707 0-1.28 0.573-1.28 1.28s0.573 1.28 1.28 1.28h4.725c-0.588 2.223-2.58 3.836-4.95 3.84h-0c-0.707 0-1.28 0.573-1.28 1.28s0.573 1.28 1.28 1.28v0c2.314-0.002 4.388-1.028 5.792-2.65l0.008-0.010c0.386 3.912 3.659 6.943 7.64 6.943s7.254-3.031 7.637-6.911l0.003-0.032c1.413 1.632 3.486 2.658 5.8 2.66h0c0.707 0 1.28-0.573 1.28-1.28s-0.573-1.28-1.28-1.28v0z"
  />
</svg>
