<svg xmlns="http://www.w3.org/2000/svg" viewBox="0 0 32 32">
  <path
    d="M14.75 14.24c0.124-0.059 0.269-0.093 0.422-0.093 0.45 0 0.831 0.297 0.956 0.706l0.002 0.007c0.031 0.341 0.049 0.737 0.049 1.137s-0.018 0.797-0.052 1.188l0.004-0.051c-0.155 0.865-1.605 0.905-1.835 0.065-0.047-0.41-0.073-0.885-0.073-1.366 0-0.241 0.007-0.48 0.020-0.717l-0.001 0.033c-0.003-0.026-0.004-0.056-0.004-0.086 0-0.357 0.202-0.667 0.499-0.821l0.005-0.002zM15.095 14.74c-0.021 0.373-0.034 0.81-0.034 1.25s0.012 0.877 0.036 1.31l-0.003-0.060 0.195-0.065c0.032-0.349 0.051-0.755 0.051-1.165s-0.018-0.816-0.054-1.217l0.004 0.052-0.2-0.11z"
  />
  <path
    d="M16.44 14.235h1.34c0 0.23 0 0.465 0 0.695h-0.55v0.67h0.5v0.65h-0.5v1.5h-0.79v-3.5z"
  />
  <path
    d="M3.625 2c0.675-0.304 1.464-0.481 2.294-0.481 0.478 0 0.942 0.059 1.385 0.169l-0.039-0.008c0.91 0.22 1.875 0.735 2.22 1.665 0.191 0.754 0.3 1.62 0.3 2.511 0 0.281-0.011 0.56-0.032 0.836l0.002-0.037h-3.255c-0.025-0.92 0.050-1.84-0.045-2.755 0-0.635-1.1-0.63-1.085 0-0.12 1.435-0.030 2.885-0.055 4.33-0.013 0.276-0.020 0.6-0.020 0.926 0 0.649 0.029 1.292 0.086 1.926l-0.006-0.082c0.090 0.365 0.545 0.395 0.835 0.27s0.23-0.455 0.255-0.7c0.035-0.685 0-1.37 0-2.055 1.095 0 2.185 0 3.28 0-0.030 1.040 0.060 2.145-0.375 3.115-0.725 1.205-2.24 1.655-3.57 1.61-1.175 0-2.5-0.28-3.25-1.29-0.5-0.82-0.5-1.84-0.545-2.775 0-1.66-0.060-3.325 0.055-5 0.097-0.973 0.705-1.784 1.548-2.168l0.017-0.007z"
  />
  <path
    d="M11.5 1.71c1.59 0 3.175 0 4.765 0 0.6 3.76 1.245 7.5 1.86 11.275h-3.045c-0.090-0.7-0.155-1.41-0.265-2.11h-1.095c0.065-0.63 0.135-1.26 0.205-1.89h0.67c-0.2-1.61-0.355-3.23-0.6-4.835-0.32 2.95-0.705 5.89-1.055 8.835h-3.075c0.545-3.76 1.135-7.515 1.635-11.275z"
  />
  <path
    d="M18.705 1.7h3.265v9h2c0 0.755 0 1.5 0 2.265h-5.26c0-3.76 0-7.5 0-11.285z"
  />
  <path
    d="M24.74 1.7h3.26v9h2c0 0.755 0 1.5 0 2.265h-5.255c-0.005-3.74 0-7.505-0.005-11.265z"
  />
  <path
    d="M0 19c1.44 0 2.885 0 4.325 0.060 0.808 0.001 1.574 0.185 2.256 0.514l-0.031-0.014c0.599 0.373 0.993 1.024 1 1.769v0.001c0.1 1.96 0.045 3.93 0.050 5.895-0.040 0.81 0.045 1.75-0.54 2.395s-1.595 0.63-2.435 0.665c-1.535 0-3.075 0-4.615 0v-11.285zM3.285 20.94v7.42c0.31-0.065 0.785 0 0.92-0.37 0.087-0.556 0.137-1.198 0.137-1.851 0-0.228-0.006-0.455-0.018-0.681l0.001 0.031c-0.030-1.36 0.055-2.72-0.050-4.080-0.045-0.5-0.63-0.465-1-0.5z"
  />
  <path
    d="M8.405 19h3.255c0 2.74 0 5.5 0 8.22-0.001 0.046-0.002 0.1-0.002 0.155 0 0.33 0.026 0.654 0.077 0.97l-0.005-0.035c0.045 0.41 0.77 0.39 0.8 0 0.046-0.269 0.073-0.579 0.073-0.895 0-0.063-0.001-0.127-0.003-0.189v0.009c0-2.74 0-5.475 0-8.21h3.255c0 2.635 0 5.27 0 7.905-0.035 0.725 0.045 1.525-0.385 2.155-0.56 0.787-1.449 1.309-2.462 1.365h-0.008c-0.246 0.042-0.529 0.066-0.817 0.066-1.022 0-1.974-0.3-2.773-0.818l0.020 0.012c-0.595-0.454-0.976-1.163-0.976-1.962 0-0.022 0-0.044 0.001-0.066v0.003c-0.075-2.895 0-5.795-0.040-8.69z"
  />
  <path
    d="M16.56 19h7.165v2.265h-1.94v9h-3.285v-9h-1.935c-0.015-0.765-0.005-1.52-0.005-2.265z"
  />
  <path
    d="M24.31 19c1 0 2 0 3 0 0.615 2 1.29 4.035 1.93 6.055 0.189 0.439 0.321 0.948 0.369 1.481l0.001 0.019c0 1.25 0 2.5 0 3.75h-3c0-1.2 0-2.4 0-3.6 0.001-0.026 0.002-0.057 0.002-0.088 0-0.255-0.037-0.502-0.106-0.735l0.005 0.018c-0.74-2.28-1.465-4.595-2.2-6.9z"
  />
  <path
    d="M29 19h3c-0.705 2.135-1.4 4.275-2.1 6.41-0.45-1.425-0.95-2.835-1.355-4.275 0.095-0.73 0.315-1.43 0.455-2.135z"
  />
</svg>
