<svg xmlns="http://www.w3.org/2000/svg" viewBox="0 0 32 32">
  <path
    d="M20.747 20.747c0 2.622-2.125 4.747-4.747 4.747s-4.747-2.125-4.747-4.747c0-2.622 2.125-4.747 4.747-4.747s4.747 2.125 4.747 4.747z"
  />
  <path
    d="M25.893 9.507l-2.667-5.507h-14.453l-2.667 5.56h-6.107v22.44h32v-22.493zM16 29.187c-4.661 0-8.44-3.779-8.44-8.44s3.779-8.44 8.44-8.44c4.661 0 8.44 3.779 8.44 8.44v0c0 4.661-3.779 8.44-8.44 8.44v0zM28.667 14.667c-0.781-0.009-1.41-0.644-1.41-1.427 0-0.788 0.639-1.427 1.427-1.427s1.427 0.639 1.427 1.427c0 0.033-0.001 0.065-0.003 0.098l0-0.004c-0.050 0.747-0.669 1.333-1.424 1.333-0.006 0-0.012-0-0.017-0h0.001z"
  />
</svg>
