<svg xmlns="http://www.w3.org/2000/svg" viewBox="0 0 32 32">
  <path
    d="M14.267 7.747c0.335 0.131 0.722 0.206 1.128 0.206 1.76 0 3.187-1.427 3.187-3.187s-1.427-3.187-3.187-3.187c-1.355 0-2.513 0.846-2.974 2.039l-0.007 0.022c-0.133 0.337-0.21 0.726-0.21 1.134 0 1.354 0.848 2.509 2.041 2.965l0.022 0.007z"
  />
  <path
    d="M26.893 26.933c-0.771 0.663-1.782 1.067-2.887 1.067-0.002 0-0.005 0-0.007 0h0c-0.031 0.001-0.067 0.001-0.104 0.001-1.063 0-2.038-0.378-2.797-1.007l0.007 0.006c-1.366-1.041-3.097-1.668-4.975-1.668-0.046 0-0.093 0-0.139 0.001l0.007-0c-0.070-0.002-0.153-0.003-0.236-0.003-1.838 0-3.535 0.602-4.906 1.619l0.022-0.016c-0.764 0.663-1.768 1.067-2.867 1.067-0.005 0-0.009 0-0.014-0h0.001c-0.028 0.001-0.062 0.001-0.095 0.001-1.061 0-2.034-0.378-2.792-1.007l0.007 0.006c-1.365-1.041-3.095-1.668-4.971-1.668-0.053 0-0.105 0-0.157 0.001l0.008-0v4c0.066-0.002 0.145-0.003 0.223-0.003 1.838 0 3.535 0.602 4.906 1.619l-0.022-0.016c0.762 0.663 1.765 1.067 2.862 1.067 0.011 0 0.022-0 0.033-0h-0.002c0.031 0.001 0.067 0.001 0.104 0.001 1.063 0 2.038-0.378 2.797-1.007l-0.007 0.006c1.365-1.041 3.094-1.668 4.97-1.668 0.048 0 0.096 0 0.144 0.001l-0.007-0c0.043-0.001 0.094-0.001 0.145-0.001 1.877 0 3.608 0.627 4.995 1.683l-0.020-0.015c0.752 0.623 1.726 1.001 2.789 1.001 0.032 0 0.064-0 0.096-0.001l-0.005 0c0.025 0.001 0.055 0.001 0.085 0.001 1.069 0 2.050-0.378 2.816-1.007l-0.008 0.006c1.357-1.041 3.080-1.668 4.948-1.668 0.056 0 0.111 0.001 0.167 0.002l-0.008-0v-4c-0.073-0.002-0.158-0.004-0.244-0.004-1.831 0-3.521 0.602-4.884 1.619l0.022-0.015z"
  />
  <path
    d="M6.587 24.72c0.773 0.52 0.827 0.547 1.333 0.547s0.64 0 1.413-0.547c1.708-1.26 3.849-2.026 6.167-2.053l0.006-0 2.093-2.933 3.733-5.293c0.796-0.401 1.46-0.954 1.977-1.627l0.010-0.013-0.547-0.387 2.56-3.547h1.787l4-5.6-4.533-3.267-3.92 5.6 0.533 1.72-2.627 3.573c-0.872 0.754-2.018 1.213-3.27 1.213-0.258 0-0.511-0.019-0.758-0.057l0.028 0.003c-0.773-0.083-1.457-0.408-1.989-0.896l0.003 0.002c-0.248-1.208-1.098-2.173-2.216-2.579l-0.024-0.008h-0.133c-0.373-0.148-0.806-0.233-1.258-0.233-1.473 0-2.735 0.909-3.254 2.197l-0.008 0.024-3.067 8.107c-1.815-0.429-3.382-1.312-4.629-2.522l0.002 0.002 2.333 6.667c1.622 0.355 3.050 1.018 4.284 1.928l-0.031-0.022zM13.787 14.667c0.67 0.341 1.449 0.585 2.271 0.69l0.035 0.004c0.299 0.043 0.645 0.067 0.997 0.067 0.034 0 0.068-0 0.102-0.001l-0.005 0h0.147l-3.12 4.373c-0.8 0-1.587 0-2.36 0z"
  />
  <path
    d="M18.667 22.88c1.525 0.378 2.862 1.013 4.033 1.863l-0.033-0.023c0.773 0.52 0.827 0.547 1.413 0.547s0.627 0 1.413-0.547c1.203-0.887 2.631-1.545 4.18-1.88l0.073-0.013 2.333-6.667c-3.158 1.688-6.854 2.833-10.776 3.204l-0.117 0.009z"
  />
</svg>
