<svg xmlns="http://www.w3.org/2000/svg" viewBox="0 0 151.11 151.11">
  <circle
    class="cls-1"
    cx="75.56"
    cy="75.56"
    r="74.56"
    style="
      fill: #e70a11;
      stroke: #e70a11;
      stroke-miterlimit: 10;
      stroke-width: 2px;
    "
  />
  <circle class="cls-2" cx="75.56" cy="75.56" r="38.97" style="fill: #fff" />
  <path
    d="M57.86,93.42l5.42-7.49c2.81,2.67,6.29,4.75,10.23,4.75,4.82,0,7.83-2.41,7.83-7.09s-3-7.16-7.29-7.16c-2.74,0-4.08.6-7,2.47L61.8,75.49,63.08,50.8h28v10H73.31l-.73,8.43a12.55,12.55,0,0,1,5.15-1c8.43,0,15.52,4.76,15.52,15.06,0,10.77-8.43,17.06-18,17.06A23.7,23.7,0,0,1,57.86,93.42Z"
  />
  <path
    class="cls-2"
    d="M142.05,109.26a74.5,74.5,0,0,0,0-67.41,74.5,74.5,0,0,0,0,67.41Z"
    style="fill: #fff"
  />
  <path
    class="cls-2"
    d="M9.06,41.85a74.5,74.5,0,0,0,0,67.41,74.25,74.25,0,0,0,8.06-33.7A74.26,74.26,0,0,0,9.06,41.85Z"
    style="fill: #fff"
  />
  <path
    class="cls-2"
    d="M110.23,141.55a74.51,74.51,0,0,0-69.35,0,74.51,74.51,0,0,0,69.35,0Z"
    style="fill: #fff"
  />
  <path
    class="cls-2"
    d="M108.29,8.56a74.63,74.63,0,0,0-65.46,0,74.17,74.17,0,0,0,32.73,7.56A74.23,74.23,0,0,0,108.29,8.56Z"
    style="fill: #fff"
  />
</svg>
