<svg xmlns="http://www.w3.org/2000/svg" viewBox="0 0 32 32">
  <path
    d="M18.15 31.85c-0.648 0.093-1.397 0.147-2.158 0.147-8.809 0-15.95-7.141-15.95-15.95s7.141-15.95 15.95-15.95c8.047 0 14.701 5.958 15.793 13.704l0.010 0.084c0.094 0.651 0.148 1.402 0.148 2.166 0 8.047-5.961 14.702-13.709 15.789l-0.084 0.010z"
    fill="#fff"
    style="fill: #fff"
  />
  <path
    d="M17.83 0.21c1.245 1.236 2.314 2.648 3.167 4.195l0.048 0.095c1.402 2.544 2.227 5.576 2.227 8.8 0 6.976-3.861 13.050-9.562 16.202l-0.095 0.048c-0.939 0.52-2.035 0.993-3.178 1.359l-0.132 0.036c1.69 0.645 3.645 1.019 5.687 1.019 2.864 0 5.556-0.735 7.898-2.027l-0.084 0.043c0.988-0.542 1.839-1.122 2.628-1.773l-0.028 0.023c3.416-2.951 5.565-7.289 5.565-12.129 0-8.181-6.14-14.928-14.063-15.884l-0.076-0.008z"
    fill="#292929"
    opacity="0.1"
    style="fill: #292929"
  />
  <path
    d="M15.2 4.46l-0.2-0.025c0.385-3.1 1.16-3.9 1.19-3.935l0.070 0.070 0.070 0.065s-0.75 0.81-1.13 3.825z"
    fill="#d6d6d6"
    style="fill: #d6d6d6"
  />
  <path
    d="M9.145 7.735c-1.905-0.95-5.365-1.34-5.4-1.345v-0.195c0.035 0 3.535 0.4 5.465 1.37z"
    fill="#d6d6d6"
    style="fill: #d6d6d6"
  />
  <path
    d="M26.050 8.5c-4.585-0.955-7.5-0.39-7.53-0.385l-0.020-0.17c0.030 0 3-0.575 7.605 0.385z"
    fill="#d6d6d6"
    style="fill: #d6d6d6"
  />
  <path
    d="M5 19.325l-0.18-0.065c0-0.045 1.6-4.5 4.885-6.645l0.105 0.16c-3.22 2.095-4.785 6.505-4.81 6.55z"
    fill="#d6d6d6"
    style="fill: #d6d6d6"
  />
  <path
    d="M2.315 18.57c-1.74-2.5-1.575-6.935-1.565-7.135l0.19-0.585c0 0.050-0.17 5.15 1.56 7.61z"
    fill="#d6d6d6"
    style="fill: #d6d6d6"
  />
  <path
    d="M19.185 21.84c-1.002-3.251-2.25-6.066-3.781-8.697l0.106 0.197 0.165-0.105c1.434 2.451 2.689 5.287 3.616 8.267l0.079 0.293z"
    fill="#d6d6d6"
    style="fill: #d6d6d6"
  />
  <path
    d="M25.18 21.5l-0.18-0.12c3.060-5.545 3.285-7.69 3.29-7.72h0.19c0.020 0.045-0.22 2.23-3.3 7.84z"
    fill="#d6d6d6"
    style="fill: #d6d6d6"
  />
  <path
    d="M15.685 26.275c-5.59-0.19-8.365-1.745-8.395-1.775l0.105-0.165c0.030 0 2.765 1.54 8.295 1.735z"
    fill="#d6d6d6"
    style="fill: #d6d6d6"
  />
  <path
    d="M2.23 24.12l0.115 0.195c0.118-0.225 0.254-0.418 0.412-0.592l-0.002 0.002-0.135-0.135c-0.145 0.155-0.274 0.329-0.383 0.516l-0.007 0.014z"
    fill="#d6d6d6"
    style="fill: #d6d6d6"
  />
  <path
    d="M6.17 26.81l-0.17 0.095c0.853 1.393 1.907 2.57 3.136 3.533l0.029 0.022c0.26 0.125 0.5 0.24 0.785 0.35-1.529-1.065-2.792-2.399-3.747-3.943l-0.033-0.057z"
    fill="#d6d6d6"
    style="fill: #d6d6d6"
  />
  <path
    d="M17.32 31.945l0.385-0.045c0.955-0.808 1.763-1.752 2.402-2.809l0.028-0.051-0.165-0.095c-0.716 1.174-1.598 2.167-2.627 2.982l-0.023 0.018z"
    fill="#d6d6d6"
    style="fill: #d6d6d6"
  />
  <path
    d="M25.14 25.8l-0.085 0.175c0.799 0.392 1.735 0.635 2.723 0.67l0.012 0h0.12l0.185-0.205c-0.030 0-0.066 0.001-0.102 0.001-1.036 0-2.018-0.236-2.893-0.658l0.040 0.017z"
    fill="#d6d6d6"
    style="fill: #d6d6d6"
  />
  <path
    d="M31.935 15.5c-0.17-0.573-0.426-1.073-0.758-1.512l0.008 0.012-0.145 0.125c0.432 0.614 0.748 1.343 0.899 2.13l0.006 0.035c0-0.29 0-0.53-0.010-0.79z"
    fill="#d6d6d6"
    style="fill: #d6d6d6"
  />
  <path
    d="M25.5 3.24c0.818 0.767 1.472 1.698 1.91 2.742l0.020 0.053 0.185-0.070c-0.295-0.742-0.67-1.382-1.127-1.955l0.012 0.015c-0.34-0.275-0.665-0.525-1-0.785z"
    fill="#d6d6d6"
    style="fill: #d6d6d6"
  />
  <path
    d="M19.5 7.875s-3.25 4.45-3.735 5.72c0 0-5.090-0.575-6.69-0.5-0.322-1.576-0.506-3.387-0.506-5.241 0-0.205 0.002-0.41 0.007-0.615l-0.001 0.030c1.827-1.474 4.020-2.575 6.419-3.148l0.111-0.022s3.29 2.075 4.395 3.775z"
    fill="#292929"
    style="fill: #292929"
  />
  <path
    d="M5.28 18.5s0.72 3.8 2.84 6.32c-0.666 0.731-1.257 1.551-1.746 2.434l-0.034 0.066s-3.21-2.035-4-3.915c-0.341-1.024-0.537-2.203-0.537-3.428 0-0.74 0.072-1.463 0.209-2.163l-0.012 0.071c0.972 0.36 2.095 0.583 3.266 0.615l0.014 0z"
    fill="#292929"
    style="fill: #292929"
  />
  <path
    d="M25.39 21s-4.53-0.18-6.425-0.315c0 0-2.4 3.705-3.5 5.54 0 0 2.95 2.37 4.525 2.88 2.118-0.594 3.925-1.715 5.334-3.214l0.006-0.006s0.53-1.225 0.060-4.885z"
    fill="#292929"
    style="fill: #292929"
  />
  <path
    d="M21.34 0.955c-1.537-0.606-3.318-0.957-5.18-0.957-0.819 0-1.623 0.068-2.405 0.199l0.085-0.012h-0.080c0.833 0.105 1.59 0.344 2.278 0.698l-0.038-0.018s3.145-0.43 5.34 0.090z"
    fill="#292929"
    style="fill: #292929"
  />
  <path
    d="M4.295 6.36c0.212-0.789 0.499-1.479 0.863-2.119l-0.023 0.044c-2.060 1.91-4 5-4.58 7.73 0.56-1.725 1.575-4.015 3.74-5.655z"
    fill="#292929"
    style="fill: #292929"
  />
  <path
    d="M28.465 6.105c-0.406-0.368-0.858-0.699-1.342-0.98l-0.038-0.020-1.78 3.13s2.315 3.575 2.97 6.265l3.375 0.405c0.065-0.332 0.111-0.726 0.129-1.127l0.001-0.018c-0.432-2.937-1.612-5.541-3.339-7.686l0.024 0.031z"
    fill="#292929"
    style="fill: #292929"
  />
</svg>
