<svg xmlns="http://www.w3.org/2000/svg" viewBox="0 0 32 32">
  <path d="M0 0h32v32h-32v-32z" fill="#477be9" style="fill: #477be9" />
  <path
    d="M7.5 32h-7.5v-32h24.5c0.125 18.13-6.42 27.285-17 32z"
    fill="#f7d054"
    style="fill: #f7d054"
  />
  <path
    d="M0 24.1v7.9h7.5s9.055-3.73 13-21.5c0 0-6 13-20.5 13.6z"
    fill="#f3b254"
    style="fill: #f3b254"
  />
  <path
    d="M32 8.75c0-0.002 0-0.004 0-0.007 0-4.832-3.918-8.75-8.75-8.75s-8.75 3.917-8.75 8.75c0 2.974 1.484 5.602 3.752 7.183l0.029 0.019c-2.43 4.93-7.35 12.91-14.885 16.055h10.685c5.085-4.765 8.42-10.77 10.15-14.56 4.392-0.507 7.77-4.204 7.77-8.69v-0z"
    fill="#fff"
    style="fill: #fff"
  />
</svg>
