<svg xmlns="http://www.w3.org/2000/svg" viewBox="0 0 32 32">
  <path
    d="M18.12 14c0.446 0.329 1.007 0.527 1.614 0.527 0.136 0 0.27-0.010 0.4-0.029l-0.015 0.002c0.117-0.027 0.252-0.042 0.39-0.042 0.695 0 1.299 0.39 1.606 0.962l0.005 0.010c0.111 0.157 0.275 0.272 0.464 0.319l0.006 0.001c1.64 0.325 1.94 0.18 2.87-1.215 0.185-0.321 0.294-0.705 0.294-1.115 0-0.204-0.027-0.402-0.078-0.591l0.004 0.016c-0.159-1.121-0.439-2.132-0.831-3.085l0.031 0.085c-1.078-2.409-2.41-4.484-4.002-6.327l0.027 0.032c-0.090-0.105-0.17-0.22-0.275-0.365 0.83-0.5 1.755-0.75 2.4-1.5-0.345-0.11-0.756-0.202-1.179-0.256l-0.036-0.004c-1.23-0.145-2.465-0.285-3.7-0.41-0.152-0.010-0.271-0.136-0.271-0.289 0-0.029 0.004-0.056 0.012-0.083l-0.001 0.002c0.045-0.185 0.075-0.39 0.145-0.645h-0.335c-1.957 0.046-3.695 0.95-4.856 2.349l-0.009 0.011-0.025 0.030c-1.871 2.218-3.582 4.694-5.044 7.328l-0.121 0.237c-0.835 1.597-1.325 3.489-1.325 5.495 0 0.032 0 0.063 0 0.095l-0-0.005c0.030 4.205 1.245 7.825 2.065 11.93 0.060 0.305 0.18 0.38 0.47 0.38 5.18 0 9.36 0 14.54 0 0.375 0 0.47-0.15 0.5-0.5l1.305-6.040c0.006-0.030 0.010-0.064 0.010-0.1 0-0.234-0.16-0.43-0.377-0.485l-0.003-0.001c-0.705-0.295-1.295-0.596-1.859-0.936l0.064 0.036c-2.449-1.641-4.473-3.717-6.005-6.136l-0.050-0.084c-0.031-0.057-0.058-0.123-0.078-0.193l-0.002-0.007 0.060-0.080c0.467 0.225 0.858 0.45 1.233 0.698l-0.038-0.024z"
  />
  <path
    d="M25.685 32h-18.94c0.022-0.114 0.048-0.211 0.080-0.306l-0.005 0.016c0.325-0.825 0.66-1.645 0.97-2.5 0.048-0.183 0.212-0.315 0.407-0.315 0.022 0 0.044 0.002 0.066 0.005l-0.002-0c5.215 0 10.435 0 15.65 0.030 0.145 0 0.375 0.070 0.425 0.18 0.455 0.945 0.88 1.89 1.35 2.89z"
  />
</svg>
