<svg xmlns="http://www.w3.org/2000/svg" viewBox="0 0 32 32">
  <path d="M20.5 9.315v0z" />
  <path d="M11.5 9.325v0z" />
  <path
    d="M11.425 8.965v0.070c0.003 0.104 0.029 0.202 0.072 0.289l-0.002-0.004c0.25 0.275 1.85 0.685 4.5 0.685s4.255-0.41 4.5-0.685c0.041-0.083 0.067-0.181 0.070-0.284v-0.071c-0.001-0.32-0.208-0.591-0.495-0.688l-0.005-0.002 1.435-3.775c0-0.64-2.255-1-4.72-1.050l-0.255-0.95h0.825c0.276 0 0.5-0.224 0.5-0.5v0 0c0-0.276-0.224-0.5-0.5-0.5v0h-0.695l0.26-1c0-0.665-1.83-0.665-1.83 0l0.26 1h-0.695c-0.276 0-0.5 0.224-0.5 0.5v0 0c0 0.276 0.224 0.5 0.5 0.5v0h0.85l-0.245 0.95c-2.49 0.050-4.755 0.41-4.755 1.050l1.415 3.775c-0.288 0.102-0.49 0.372-0.49 0.689 0 0 0 0 0 0.001v0z"
  />
  <path
    d="M16 11.34c-0.072 0.001-0.158 0.002-0.244 0.002-1.185 0-2.344-0.112-3.467-0.325l0.115 0.018c-0.135-0.025-0.32-0.065-0.5-0.12v0.615c-0.263 0.065-0.456 0.297-0.46 0.575v0.055c0 0 0 0.001 0 0.001 0 0.179 0.084 0.339 0.214 0.443l0.001 0.001c0.5 0.265 2 0.585 4.36 0.585s3.86-0.32 4.36-0.585c0.131-0.104 0.215-0.264 0.215-0.444 0-0.001 0-0.001 0-0.002v0-0.055c-0.004-0.278-0.197-0.51-0.456-0.574l-0.004-0.001v-0.61c-1.082 0.273-2.324 0.429-3.603 0.429-0.187 0-0.373-0.003-0.559-0.010l0.027 0.001z"
  />
  <path
    d="M11.265 30.525c-0.784-0.063-1.506-0.272-2.158-0.6l0.033 0.015v1.060c0 1.335 13.72 1.335 13.72 0v-1.050c-0.78 0.445-2.6 0.84-6.86 0.84-0.087 0.001-0.189 0.001-0.292 0.001-1.566 0-3.109-0.097-4.624-0.284l0.181 0.018z"
  />
  <path
    d="M16 25.345c0.158 0.005 0.343 0.008 0.529 0.008 1.555 0 3.063-0.202 4.498-0.58l-0.123 0.027c-1.33-2-1.23-6.315-1.13-10.615l-0.18 0.035c-1.008 0.195-2.166 0.307-3.351 0.307-0.086 0-0.171-0.001-0.257-0.002h0.013c-0.072 0.001-0.158 0.002-0.244 0.002-1.185 0-2.344-0.112-3.467-0.325l0.115 0.018-0.18-0.035c0.1 4.3 0.2 8.61-1.13 10.615 1.313 0.351 2.821 0.553 4.376 0.553 0.186 0 0.371-0.003 0.556-0.009l-0.027 0.001z"
  />
  <path
    d="M22.405 26l-0.18-0.070c-1.010 0.695-3.090 1.070-6.225 1.070-0.083 0.001-0.181 0.002-0.279 0.002-1.455 0-2.878-0.135-4.258-0.394l0.142 0.022c-0.692-0.116-1.311-0.35-1.864-0.683l0.024 0.013-0.17 0.065c-1.37 0.5-1.37 1.5-0.455 2.5 0 1.39 13.72 1.39 13.72 0 0.915-1.025 0.915-2.025-0.455-2.525z"
  />
</svg>
