<svg xmlns="http://www.w3.org/2000/svg" viewBox="0 0 32 32">
  <path
    d="M28.925 12.645c-0.14-2.355-0.43-4.705-0.625-7.060-0.022-0.438-0.323-0.8-0.728-0.913l-0.007-0.002-11.39-4.67h-0.425l-11.25 4.575c-0.487 0.141-0.836 0.583-0.836 1.106 0 0.019 0 0.038 0.001 0.056l-0-0.003c0 0.615-0.125 1.225-0.165 1.835-0.225 3.66-0.64 7.32-0.62 11 0 4.275-0.22 4.68 3.855 7.66 2.91 2.1 6.095 3.85 9.16 5.77h0.28c0.27-0.18 0.53-0.385 0.81-0.545 3.669-2.054 6.804-4.14 9.767-6.437l-0.177 0.132c1.559-1.165 2.557-3.006 2.557-5.080 0-0.165-0.006-0.329-0.019-0.491l0.001 0.021c-0.085-2.315-0.055-4.64-0.19-6.955zM27.705 20.55c0.002 0.042 0.003 0.091 0.003 0.14 0 1.156-0.539 2.187-1.38 2.854l-0.008 0.006c-1.21 0.95-2.375 1.95-3.655 2.79-2 1.345-4.125 2.585-6.21 3.845-0.133 0.076-0.291 0.12-0.46 0.12-0.124 0-0.242-0.024-0.351-0.068l0.006 0.002q-4.44-2.795-8.835-5.655c-1.591-0.983-2.635-2.717-2.635-4.695 0-0.218 0.013-0.434 0.038-0.646l-0.002 0.026c0.27-4.245 0.5-8.5 0.735-12.75 0-0.002-0-0.004-0-0.006 0-0.411 0.277-0.757 0.654-0.862l0.006-0.002c3.3-1.29 6.58-2.65 9.89-3.92 0.149-0.054 0.321-0.086 0.5-0.086s0.351 0.031 0.51 0.089l-0.010-0.003q5 2 9.975 4.060c0.262 0.134 0.454 0.372 0.524 0.658l0.001 0.007 0.72 11.185c-0.015 0.97-0.010 1.94-0.015 2.91z"
  />
  <path
    d="M8.25 13.97c0.145-1.5 0.285-2.885 0.42-4.29 0.070-0.68 0.13-1.365 0.185-2.050 0.002-0.495 0.323-0.914 0.767-1.063l0.008-0.002c0.58-0.23 1.14-0.5 1.755-0.805l0.22 1.11c0.565-0.2 1.040-0.415 1.494-0.662l-0.054 0.027c0.182-0.164 0.296-0.4 0.296-0.663 0-0.013-0-0.026-0.001-0.039l0 0.002c-0.010-0.045-0.015-0.097-0.015-0.15 0-0.364 0.257-0.668 0.6-0.739l0.005-0.001c0.045 0 0.085-0.040 0.13-0.060 2.125-1 2.145-1 4.165 0.18 0.181 0.116 0.305 0.309 0.325 0.532l0 0.003c-0.1 0.685 0.235 1 0.83 1.17 0.378 0.138 0.681 0.269 0.976 0.415l-0.056-0.025 0.25-1.11c0.905 0.4 1.634 0.772 2.341 1.179l-0.121-0.064c0.215 0.135 0.28 0.58 0.32 0.895 0.21 1.855 0.415 3.71 0.57 5.57 0.040 0.5 0.18 0.71 0.675 0.635 0.755-0.115 0.94 0.265 0.9 0.945s0 1.47 0 2.2c-0.066 0.311-0.173 0.587-0.317 0.839l0.007-0.014-0.215-0.040c0.2 0.965 0.35 1.94 0.61 2.89 0.034 0.103 0.053 0.221 0.053 0.343 0 0.341-0.15 0.647-0.387 0.856l-0.001 0.001c-1.463 1.602-3.184 2.939-5.103 3.951l-0.102 0.049c-1.090 0.57-2.175 1.14-3.28 1.675-0.141 0.075-0.309 0.119-0.487 0.119-0.108 0-0.212-0.016-0.31-0.046l0.007 0.002c-2.34-1.115-4.71-2.2-6.71-3.855-2.58-2.125-2.57-2.135-1.855-5.315 0.075-0.335 0.28-0.695-0.245-0.87-0.065 0-0.095-0.21-0.095-0.32 0-0.97-0.030-1.945 0-2.915 0-0.17 0.3-0.395 0.5-0.47 0.162-0.029 0.349-0.046 0.539-0.046 0.143 0 0.284 0.009 0.422 0.028l-0.016-0.002zM16.595 11.74c1.305 0 2.5-0.030 3.705 0 0.385 0 0.74 0.21 0.875-0.355s-0.205-0.64-0.59-0.76c-1.268-0.425-2.727-0.669-4.244-0.669-0.678 0-1.344 0.049-1.995 0.143l0.074-0.009c-1.273 0.221-2.341 0.473-3.386 0.779l0.216-0.054c-0.29 0.070-0.67 0.19-0.455 0.595 0.070 0.13 0.46 0.16 0.68 0.12 0.34-0.065 0.66-0.275 1-0.34 0.975-0.18 1.955-0.32 3.025-0.5-0.63 2.135-0.78 2.265-2.675 2.465-0.010-0-0.021-0-0.033-0-0.112 0-0.222 0.009-0.329 0.027l0.012-0.002c-0.775 0.185-1.64 0.245-2.040 1.085-0.093 0.285-0.356 0.487-0.667 0.487-0.054 0-0.107-0.006-0.158-0.018l0.005 0.001c-0.111-0.006-0.24-0.010-0.37-0.010s-0.259 0.003-0.388 0.010l0.018-0.001 0.045 0.79 5.655 0.42c-0.112-0.113-0.217-0.234-0.313-0.361l-0.007-0.009c-0.11-0.22-0.205-0.45-0.305-0.675 0.196-0.091 0.424-0.164 0.662-0.207l0.018-0.003c0.85-0.025 1.705-0.025 2.555 0 0.35 0.037 0.666 0.097 0.973 0.18l-0.043-0.010c-0.155 0.295-0.31 0.595-0.46 0.895 0 0.030 0 0.085 0 0.19l5.5-0.435-0.055-0.76c-0.41 0-0.745 0-1.070 0-0.16 0-0.4-0.105-0.44-0.22-0.31-0.85-1.050-1.035-1.795-1.19-0.5-0.116-1.080-0.19-1.674-0.205l-0.011-0c-0.88 0.005-1.2-0.595-1.515-1.395zM22.425 17.885c-0.615 1.125-1.265 2.175-2.23 2.65-0.242-0.137-0.522-0.247-0.819-0.316l-0.021-0.004q-3.34-0.030-6.67 0c-0.23 0-0.455 0.195-0.86 0.38-0.435-0.347-0.823-0.705-1.185-1.089l-0.005-0.006c-0.334-0.449-0.664-0.96-0.963-1.492l-0.037-0.073h-0.19c-0.112 0.318-0.2 0.692-0.247 1.078l-0.003 0.027c-0.055 1.64 0.83 2.715 2.215 3.415 0.47 0.258 1.030 0.41 1.626 0.41 0.922 0 1.759-0.364 2.376-0.956l-0.001 0.001c0.141-0.174 0.355-0.284 0.595-0.284s0.454 0.11 0.594 0.283l0.001 0.001c0.652 0.577 1.514 0.93 2.458 0.93 1.33 0 2.496-0.699 3.153-1.749l0.009-0.016c0.377-0.475 0.605-1.082 0.605-1.744 0-0.534-0.149-1.033-0.407-1.459l0.007 0.012zM20.455 18c-1.055 0.055-2.065 0.075-3.065 0.165-0.73 0.065-1.265 0-1.255-0.925 0-0.075-0.11-0.155-0.205-0.28l-0.28 1.13h-4.055c0 1.12 0 1.12 1 1.12h6.705c1.005 0.015 1.005 0.015 1.155-1.21z"
  />
</svg>
