<svg xmlns="http://www.w3.org/2000/svg" viewBox="0 0 40 40">
  <path
    d="M42.817,30.000 C42.817,30.000 39.864,32.207 36.817,35.000 C33.865,37.705 28.817,41.000 28.817,41.000 C28.817,41.000 27.565,42.000 25.817,42.000 C24.065,42.000 21.817,41.000 21.817,41.000 C21.817,41.000 15.759,36.555 13.817,36.000 C13.456,35.897 12.817,36.000 12.817,36.000 L9.817,36.000 C9.817,37.657 8.473,39.000 6.817,39.000 L3.817,39.000 C2.160,39.000 0.817,37.657 0.817,36.000 L0.817,25.000 C0.817,23.343 2.160,22.000 3.817,22.000 L6.817,22.000 C8.473,22.000 9.817,23.343 9.817,25.000 L15.817,25.000 C15.801,24.655 20.561,27.044 22.817,28.000 C25.262,29.037 27.972,28.009 29.817,28.000 C33.208,27.983 31.817,31.000 31.817,31.000 L36.817,27.000 C36.817,27.000 41.009,23.463 42.817,25.000 C44.617,26.531 42.817,30.000 42.817,30.000 ZM8.098,26.563 C8.098,25.044 6.867,23.813 5.348,23.813 C3.829,23.813 2.598,25.044 2.598,26.563 L2.598,34.094 C2.598,35.613 3.829,36.844 5.348,36.844 C6.867,36.844 8.098,35.613 8.098,34.094 L8.098,26.563 ZM41.817,27.000 C39.993,25.498 34.831,31.294 29.817,34.000 C28.290,34.824 27.465,34.670 27.083,34.739 C28.024,33.802 31.141,30.565 29.817,30.000 C28.996,29.650 27.586,30.158 24.817,30.000 C21.112,29.788 16.817,27.000 16.817,27.000 L9.160,26.656 L8.817,34.000 L13.817,34.000 C13.817,34.000 15.171,34.654 15.817,35.000 C18.761,36.577 23.714,40.232 25.817,40.000 C27.292,39.837 32.140,37.261 35.817,34.000 C39.787,30.478 43.103,28.060 41.817,27.000 ZM27.083,34.739 C26.921,34.899 26.817,35.000 26.817,35.000 C26.841,34.826 26.931,34.766 27.083,34.739 ZM22.723,23.813 C16.147,23.813 10.817,18.482 10.817,11.906 C10.817,5.331 16.147,-0.000 22.723,-0.000 C29.298,-0.000 34.629,5.331 34.629,11.906 C34.629,18.482 29.298,23.813 22.723,23.813 ZM22.676,1.875 C17.231,1.875 12.817,6.289 12.817,11.734 C12.817,17.180 17.231,21.594 22.676,21.594 C28.121,21.594 32.535,17.180 32.535,11.734 C32.535,6.289 28.121,1.875 22.676,1.875 ZM27.348,17.844 C25.967,17.844 24.848,16.501 24.848,14.844 C24.848,13.187 25.967,11.844 27.348,11.844 C28.728,11.844 29.848,13.187 29.848,14.844 C29.848,16.501 28.728,17.844 27.348,17.844 ZM27.254,13.000 C26.443,13.000 25.785,13.790 25.785,14.766 C25.785,15.741 26.443,16.531 27.254,16.531 C28.065,16.531 28.723,15.741 28.723,14.766 C28.723,13.790 28.065,13.000 27.254,13.000 ZM18.482,17.685 L24.983,6.271 L26.405,7.130 L19.903,18.544 L18.482,17.685 ZM18.317,12.000 C16.936,12.000 15.817,10.657 15.817,9.000 C15.817,7.343 16.936,6.000 18.317,6.000 C19.697,6.000 20.817,7.343 20.817,9.000 C20.817,10.657 19.697,12.000 18.317,12.000 ZM18.223,7.156 C17.412,7.156 16.754,7.947 16.754,8.922 C16.754,9.897 17.412,10.688 18.223,10.688 C19.034,10.688 19.692,9.897 19.692,8.922 C19.692,7.947 19.034,7.156 18.223,7.156 Z"
  />
</svg>
