<svg xmlns="http://www.w3.org/2000/svg" viewBox="0 0 32 32">
  <path
    d="M32 4.787h-6.067v-0.573h-11.693c0-0.107 0.027-0.2 0.027-0.307 0-2.16-1.747-3.907-3.893-3.907s-3.907 1.747-3.907 3.907c0 1.227 0.573 2.307 1.467 3.027-1 0.787-1.827 1.547-1.92 1.987-0.267 1.16 0.413 11.68 0 12.88s-3.773 7.2-3.773 7.2v3h6.013s-0.613-2.987-0.88-3.507c0 0 3.88-3.933 4.013-4.227 0.133-0.307 1.067-2.893 1.067-2.893s2.093 2.48 2.147 3.307c0.053 0.827 0 7.333 0 7.333h7.133s0.040-1.68-0.493-2.147c-0.547-0.467-2.133-1.12-2.133-1.12s0.333-7.52 0.333-7.987c0-0.467-2.547-4.147-2.547-4.147v-3.96s1.547 0.4 2.227 0.36 3.4-5.093 3.4-5.093h3.453v-0.76h6.067v-2.347zM19.013 8.92l-1.2-1.107h1.907l-0.707 1.107z"
  />
</svg>
