<svg xmlns="http://www.w3.org/2000/svg" viewBox="0 0 32 32">
  <path
    d="M13.235 0h0.855c0.646 0.264 1.202 0.574 1.715 0.942l-0.025-0.017c0.165 0.7 0.455 1.45 0.205 2.17-0.22 0.161-0.473 0.296-0.744 0.393l-0.021 0.007c0.030 0.275 0.075 0.55 0.12 0.825 0.568-0.073 1.056-0.164 1.536-0.279l-0.096 0.019c0.035-0.313 0.129-0.597 0.271-0.851l-0.006 0.011c0.040 0.195 0.070 0.39 0.095 0.585 0.223 0.188 0.508 0.309 0.821 0.33h0.004c2 0 4 0 6.035 0 0.225 0 0.33 0.215 0.5 0.335 0-0.425 0-0.85 0-1.28h0.235c-0.003 0.069-0.005 0.15-0.005 0.232 0 0.316 0.029 0.624 0.085 0.924l-0.005-0.031c0.097 0.022 0.215 0.039 0.335 0.049l0.010 0.001c0 0.145 0 0.295 0 0.44 0.211 0.017 0.457 0.027 0.705 0.027 0.405 0 0.804-0.026 1.196-0.077l-0.046 0.005c0.186-0.016 0.403-0.024 0.622-0.024s0.436 0.009 0.651 0.026l-0.028-0.002c0.009 0.164 0.025 0.316 0.048 0.465l-0.003-0.025c-0.231 0.029-0.499 0.045-0.77 0.045s-0.539-0.016-0.802-0.048l0.032 0.003c-0.82-0.1-1.635 0.075-2.455 0.030 0 0.11-0.055 0.22-0.080 0.33-0.785 0-1.57 0-2.355 0-0.027-0.003-0.059-0.005-0.091-0.005-0.245 0-0.466 0.106-0.619 0.274l-0.001 0.001c-0.235 0.29-0.5 0.535-0.735 0.83 0 0.020 0 0.044 0 0.068 0 0.544 0.095 1.065 0.271 1.548l-0.010-0.032-0.55 0.2c-0.19 0.585-0.115 1.335-0.65 1.745-0.263 0.241-0.556 0.457-0.871 0.642l-0.024 0.013c-0.093 0.023-0.201 0.036-0.311 0.036-0.161 0-0.315-0.028-0.458-0.079l0.010 0.003c-0.92-0.14-1.685-0.705-2.5-1.1-0.055 0.225-0.115 0.445-0.175 0.665 0.25 0.165 0.575 0.3 0.655 0.62 0.036 0.215 0.056 0.463 0.056 0.715s-0.020 0.5-0.060 0.741l0.004-0.026c-0.040 0.435-0.050 0.87-0.095 1.305-0.076 0.433-0.266 0.812-0.537 1.117l0.002-0.002c-0.235-0.055-0.465-0.125-0.695-0.185-0.064 0.157-0.101 0.34-0.101 0.531 0 0.423 0.181 0.803 0.47 1.068l0.001 0.001c1.070 1.165 1.65 2.665 2.195 4.125 0.095 0.31 0.41 0.5 0.465 0.82 0.115 0.312 0.183 0.673 0.185 1.049v0.001c-0.040 0.635-0.085 1.27-0.15 1.905-0.069 0.297-0.109 0.639-0.109 0.989 0 0.125 0.005 0.249 0.015 0.372l-0.001-0.016c0.051 0.175 0.081 0.375 0.081 0.582s-0.029 0.408-0.084 0.598l0.004-0.015c-0.126 0.368-0.199 0.792-0.199 1.233 0 0.094 0.003 0.187 0.010 0.279l-0.001-0.012c-0.004 0.038-0.006 0.082-0.006 0.127 0 0.308 0.098 0.594 0.264 0.828l-0.003-0.004c0.268 0.354 0.548 0.668 0.852 0.957l0.003 0.003c0.4 0.26 0.95 0.265 1.28 0.64 0.025 0.101 0.039 0.216 0.039 0.335s-0.014 0.234-0.041 0.345l0.002-0.010c-0.372 0.072-0.799 0.113-1.236 0.113-0.675 0-1.326-0.098-1.942-0.28l0.048 0.012c-0.57-0.185-1.2 0.135-1.74-0.18 0.041-0.692 0.19-1.337 0.43-1.937l-0.015 0.042c0.022-0.182 0.034-0.392 0.034-0.605 0-0.681-0.126-1.332-0.357-1.932l0.012 0.037c-0.19-0.745-0.307-1.604-0.325-2.488v-0.012c-0.050-0.415 0.3-0.725 0.315-1.13 0.019-0.082 0.030-0.177 0.030-0.274 0-0.272-0.086-0.524-0.233-0.73l0.003 0.004c-0.39 0-0.91 0.090-1.125-0.325-0.455-0.67-0.89-1.35-1.345-2-0.155-0.29-0.535-0.225-0.79-0.35-0.207-0.221-0.375-0.482-0.494-0.768l-0.006-0.017c-0.079 0.31-0.225 0.579-0.422 0.802l0.002-0.002c-0.304 0.374-0.538 0.819-0.674 1.304l-0.006 0.026c-0.131 0.297-0.236 0.643-0.296 1.004l-0.004 0.026c-0.050 0.27-0.060 0.585-0.305 0.76-0.355 0.27-0.5 0.725-0.805 1-0.226 0.23-0.389 0.522-0.463 0.848l-0.002 0.012c0.010 0.129 0.015 0.28 0.015 0.433s-0.005 0.303-0.016 0.453l0.001-0.020c-0.198 0.577-0.411 1.062-0.658 1.527l0.028-0.057c-0.15 0.345-0.23 0.715-0.395 1.055-0.105 0.235-0.385 0.31-0.54 0.5-0.309 0.533-0.491 1.173-0.491 1.856 0 0.247 0.024 0.489 0.069 0.723l-0.004-0.024c0.103 0.229 0.163 0.496 0.163 0.777 0 0.105-0.008 0.208-0.024 0.309l0.001-0.011c-0.275 0.035-0.545 0.080-0.82 0.105h-0.85c-0.242-0.034-0.461-0.099-0.665-0.191l0.015 0.006c-0.068-0.218-0.107-0.468-0.107-0.727s0.039-0.51 0.112-0.745l-0.005 0.018c0.2-0.71 0.38-1.425 0.56-2.135 0.12-0.35-0.17-0.665-0.14-1 0.039-0.518 0.221-0.988 0.505-1.378l-0.005 0.008c0.215-0.385 0.14-0.845 0.29-1.245 0.34-0.88 1-1.59 1.365-2.445 0.023-0.161 0.036-0.348 0.036-0.538s-0.013-0.376-0.038-0.559l0.002 0.021c0.056-0.749 0.155-1.433 0.298-2.101l-0.018 0.101c0.033-0.118 0.052-0.253 0.052-0.392s-0.019-0.275-0.055-0.403l0.003 0.011c-0.091-0.223-0.144-0.481-0.144-0.752 0-0.068 0.003-0.135 0.010-0.201l-0.001 0.008c0.040-0.3-0.135-0.595 0-0.885s0.285-0.385 0.465-0.535c0.035-1-0.335-2-0.18-3 0.203-0.191 0.454-0.333 0.733-0.407l0.012-0.003-1.080-0.23c-0.001-0.030-0.001-0.065-0.001-0.1 0-0.394 0.046-0.776 0.133-1.143l-0.007 0.034c0.135-0.62 0.060-1.265 0.16-1.89 0-0.16 0.19-0.215 0.325-0.22 0.363-0.013 0.707-0.055 1.041-0.122l-0.041 0.007c-0.066-0.359-0.103-0.771-0.103-1.192s0.038-0.834 0.109-1.235l-0.006 0.042c0.133-0.991 0.628-1.846 1.344-2.445l0.006-0.005c0.535-0.36 1.31-0.575 1.875-0.14l0.18-0.125c-0.125-0.319-0.197-0.689-0.197-1.076 0-0.596 0.172-1.153 0.47-1.621l-0.007 0.012c0.358-0.503 0.877-0.871 1.482-1.031l0.018-0.004zM18.5 6.045c-0.002 0.24-0.128 0.45-0.317 0.568l-0.003 0.002c0.316-0.007 0.619-0.037 0.915-0.090l-0.035 0.005c0-0.165 0-0.335 0-0.5h-0.54zM17.91 6.68l-0.1 0.13c0.102 0.32 0.25 0.597 0.439 0.841l-0.005-0.006c0.225-0.32 0.455-0.635 0.67-0.965-0.15-0.012-0.324-0.019-0.5-0.019s-0.35 0.007-0.523 0.020l0.023-0.001z"
  />
</svg>
