<svg xmlns="http://www.w3.org/2000/svg" viewBox="0 0 32 32">
  <path d="M26.213 32h5.787v-5.787l-5.787 5.787z" />
  <path d="M5.653 0l-5.653 5.933 5.787-0.147-0.133-5.787z" />
  <path
    d="M11.387 15.653c-1.333 1.027-2.56 1.533-3.36 0.747-1.080-1.080 0.227-3.053 2.76-5.587s4.507-3.84 5.587-2.813c0.76 0.747 0.4 1.72-0.507 3.067l4.2 2c1.253-2.28 2.667-5.547-0.24-8.467-3.693-3.68-8.507-2.267-13.013 2.24s-5.92 9.333-2.227 13c3 3.013 6.533 1.333 8.747 0z"
  />
  <path
    d="M30.387 23.387c1.253-2.28 2.667-5.547-0.253-8.467-3.68-3.68-8.493-2.267-13 2.24s-5.92 9.333-2.227 13c3 3 6.533 1.333 8.733 0l-1.933-4.16c-1.333 1.040-2.56 1.547-3.36 0.76-1.080-1.080 0.227-3.053 2.76-5.587s4.507-3.84 5.56-2.8c0.76 0.747 0.4 1.72-0.507 3.067z"
  />
</svg>
