<svg xmlns="http://www.w3.org/2000/svg" viewBox="0 0 32 32">
  <path
    d="M30.915 6.13c-1.416 0.933-3.152 1.489-5.018 1.489-0.316 0-0.628-0.016-0.936-0.047l0.039 0.003c-1.845-0.11-3.7-0.025-5.55 0-2.28 0-3.16 0.62-3.93 2.805-0.805 2.275-1.59 4.555-2.385 6.83-0.12 0.33-0.265 0.65-0.435 1.075-0.94-0.895-1.78-1.65-2.565-2.465-0.34-0.355-1.030-0.545-0.65-1.345s0.73-1.25 1.675-1.095c0.272 0.037 0.586 0.058 0.905 0.058s0.633-0.021 0.941-0.062l-0.036 0.004c0.28-0.027 0.52-0.178 0.668-0.397l0.002-0.003c0.41-1 0.755-2.025 1.17-3.175-3.935 0-7.705 0.050-11.47 0-1.14 0-2.050 0.215-2.68 0.905-0.41 0.46-0.66 1.070-0.66 1.739 0 0.002 0 0.004 0 0.007v-0 3.655c0.389-0.307 0.737-0.618 1.064-0.949l0.001-0.001c1.14-1.31 1.245-1.325 2.46-0.115q5.26 5.235 10.505 10.455c0.28 0.28 0.58 0.53 0.965 0.885 0.935-2.72 1.83-5.27 2.675-7.84 0.083-0.498 0.511-0.874 1.027-0.874 0.059 0 0.118 0.005 0.174 0.015l-0.006-0.001c1.7 0.055 3.4 0.045 5.095 0 0.001 0 0.003 0 0.005 0 0.36 0 0.682-0.165 0.893-0.423l0.002-0.002c0.46-1 0.815-2.075 1.295-3.335h-6.915c0.295-0.825 0.525-1.455 0.77-2.14 2.645 0 5.25 0 7.85 0 0.33 0 0.835-0.105 0.965-0.33 1.050-1.845 2.030-3.725 3.175-5.86-0.433 0.183-0.79 0.362-1.134 0.561l0.049-0.026z"
  />
</svg>
