<svg xmlns="http://www.w3.org/2000/svg" viewBox="0 0 32 32">
  <path d="M22.027 8.347h0.813v0.213h-0.813v-0.213z" />
  <path
    d="M31.28 3.493c-17.24-7.747-30.587 0-30.587 0 0.973 27.613 15.293 28.467 15.293 28.467 16.707-4.12 15.293-28.467 15.293-28.467zM14.293 20.8h-1.093l-1.24-0.64 0.147-2.693-1.027-1.56h-0.88l-0.44 1.56-0.627 0.853-0.707 3.24v1.32l-0.267 0.507-0.827 0.267-0.347-0.413 0.493-2.24-0.12-2.947 0.173-1.027 0.907-2.827-0.36-0.293-0.027-1.040 0.387-0.413-0.213-0.493 0.053-1.36-1.413-0.067-0.067-1.773h-1.88v0.32h-0.293v-0.32h-2.093v-0.267h-0.773v-0.36h0.587v-0.947h0.413l0.533 0.947h1.24v-0.413h0.32v-0.293h4.987v-0.44l-0.493-0.947v-0.627l0.173-0.68 0.707-0.627h1.027l0.507 0.627v1.173l-0.173 0.507v0.773l0.853 0.32 0.973 1.093 0.467 0.947v1.24l-0.467 1.093-0.92-0.267-0.213 0.467v0.587l0.267 1.213 0.467 1.733 0.627 1.507-0.213 0.973v1.48l0.907 0.76v0.493zM30.267 9.587h-3.493l-0.56 0.84-0.707 0.133-2.987 1.667-1.36-0.493-0.28 1.28-0.507 1.467 0.2 1 1.173 2.067v2.040l-0.32 1.133 1.32 1.027v0.493h-1.453l-1.16-0.627v-3.213l-1-1.187h-0.427l-0.827 2.4-1.467 1.987-0.067 1.2-0.693 1.053h-0.84v-1.013l0.44-0.627 0.347-1.187 0.533-1.507v-3.773l0.307-2.733 0.4-2.947 0.907-1.227 0.92-0.32v-1l1.187-0.947h1.253l0.933 1.36h2.32l0.827-0.253h1.573v0.64h-2.213v0.213h4.427v0.587h1.28v0.453z"
  />
</svg>
