<svg xmlns="http://www.w3.org/2000/svg" viewBox="0 0 32 32">
  <path
    d="M7.175 12.375h18.65c0.649 0 1.175-0.526 1.175-1.175v0-1.65c0-0.649-0.526-1.175-1.175-1.175h-14.5l0.67-2c0.246-0.726 0.922-1.24 1.718-1.24 0.001 0 0.001 0 0.002 0h11.035c0.69 0 1.25-0.56 1.25-1.25s-0.56-1.25-1.25-1.25v0h-11.040c-0.002 0-0.003 0-0.005 0-1.894 0-3.502 1.221-4.081 2.92l-0.009 0.030-0.935 2.8h-1.5c-0.002 0-0.003 0-0.005 0-0.645 0-1.169 0.52-1.175 1.164v1.651c0 0.649 0.526 1.175 1.175 1.175v0z"
  />
  <path
    d="M7.5 29.375h17c3.786-0.004 6.915-2.813 7.421-6.461l0.004-0.039h-31.85c0.51 3.687 3.639 6.496 7.425 6.5v0z"
  />
  <path
    d="M24.5 14.375h-17c-3.786 0.004-6.915 2.813-7.421 6.461l-0.004 0.039h31.85c-0.51-3.687-3.639-6.496-7.425-6.5v0z"
  />
</svg>
