<svg xmlns="http://www.w3.org/2000/svg" viewBox="0 0 32 32">
  <path
    d="M32 16c0 8.837-7.163 16-16 16s-16-7.163-16-16c0-8.837 7.163-16 16-16s16 7.163 16 16z"
    fill="#eb0a29"
    style="fill: #eb0a29"
  />
  <path
    d="M23.8 18.36c-0.907 3.653-4.16 6.533-8.387 6.533h-3.84v-5.147l-1.92 1.12v-2.4l1.92-1.12v-1.947l-1.92 1.093v-2.4l1.92-1.12v-5.867h3.787v3.68l4.4-2.533v2.427l-4.4 2.533v1.947l4.4-2.533v2.4l-4.4 2.533v4h0.4c2.133 0 4.187-1.493 4.773-4.080l3.253 0.88z"
    fill="#fff"
    style="fill: #fff"
  />
</svg>
