<svg xmlns="http://www.w3.org/2000/svg" viewBox="0 0 32 32">
  <path
    d="M32 16c0 8.837-7.163 16-16 16s-16-7.163-16-16c0-8.837 7.163-16 16-16s16 7.163 16 16z"
    fill="#eb0a29"
    style="fill: #eb0a29"
  />
  <path
    d="M6.027 15.627v7h-2.933v-12.16h3.013l3.507 6.653v-6.653h2.92v12.16h-2.787l-3.707-7z"
    fill="#02f"
    style="fill: #02f"
  />
  <path
    d="M15.48 13.027h-2.613v-2.573h8.147v2.573h-2.587v9.6h-2.96v-9.6z"
    fill="#02f"
    style="fill: #02f"
  />
  <path
    d="M26.387 22.76v1.693h-1.92v-1.64c-1.573-0.147-2.72-0.693-3.613-1.547l1.4-2.267c0.707 0.76 1.787 1.293 2.96 1.293 0.88 0 1.4-0.453 1.4-1.053 0-0.733-0.707-1.080-1.733-1.453-1.573-0.56-3.667-1.24-3.667-3.813 0-1.693 1.147-3.253 3.24-3.613v-1.733h1.92v1.693c1.173 0.16 2.213 0.627 3.013 1.333l-1.347 2.187c-0.76-0.693-1.733-1-2.573-1s-1.24 0.413-1.24 0.973c0 0.653 0.693 0.987 1.747 1.373 1.547 0.56 3.627 1.333 3.627 3.8 0 1.973-1.173 3.413-3.227 3.8z"
    fill="#02f"
    style="fill: #02f"
  />
</svg>
