<svg xmlns="http://www.w3.org/2000/svg" viewBox="0 0 32 32">
  <g>
    <ellipse
      class="cls-1"
      style="fill: #db0004"
      cx="16.02"
      cy="16.09"
      rx="16"
      ry="15.96"
    />
  </g>
  <path
    class="cls-2"
    style="fill: #f8d906"
    d="M20.97,23.51H11.08v-2.31c1.31-.35,1.97-1.27,1.97-2.74v-1.18h-1.75v-2.21h1.75v-1.9c0-1.34,.41-2.43,1.24-3.26,.83-.83,1.95-1.24,3.36-1.24,.86,0,1.66,.17,2.38,.5v2.63c-.67-.45-1.38-.67-2.13-.67-1.25,0-1.87,.78-1.87,2.34v1.61h2.73v2.21h-2.73v.88c0,1.25-.52,2.21-1.55,2.89h6.49v2.46Z"
  />
</svg>
