<svg xmlns="http://www.w3.org/2000/svg" viewBox="0 0 32 32">
  <path
    d="M32 16c0 8.837-7.163 16-16 16s-16-7.163-16-16c0-8.837 7.163-16 16-16s16 7.163 16 16z"
    fill="#0f76f8"
    style="fill: #0f76f8"
  />
  <path
    d="M16 30.8l-12.827-7.4v-14.8l12.827-7.4 12.827 7.4v14.813l-12.827 7.4zM4.253 22.787l11.747 6.787 11.747-6.787v-13.573l-11.747-6.773-11.747 6.773v13.56z"
    fill="#fff"
    style="fill: #fff"
  />
  <path
    d="M20.787 7.947h-9.64l-1.12 4.92h11.947l-1.187-4.92zM12.853 19.613v-3.267l-2.867-1.8-3.24 2.4 4.413 7.68h1.773l2.080-1.96v-0.96l-2.173-2.080z"
    fill="#fff"
    style="fill: #fff"
  />
  <path
    d="M19.107 13.6h-6.227l1.027 2.733-0.307 3.080h4.787l-0.307-3.080 1.027-2.733z"
    fill="#fff"
    style="fill: #fff"
  />
  <path
    d="M21.973 14.507l-2.827 1.84v3.267l-2.147 2.080v0.96l2.080 1.933h1.747l4.387-7.653-3.24-2.427z"
    fill="#fff"
    style="fill: #fff"
  />
</svg>
