<svg xmlns="http://www.w3.org/2000/svg" viewBox="0 0 32 32">
  <path
    d="M32 16c0 8.837-7.163 16-16 16s-16-7.163-16-16c0-8.837 7.163-16 16-16s16 7.163 16 16z"
    fill="#eac749"
    style="fill: #eac749"
  />
  <path
    d="M22 9.733h-3.88c0.76 0.613 1.28 1.427 1.493 2.373h2.373v1.933h-2.333c-0.32 2.253-1.96 3.533-3.533 3.893l3.707 6.227h-4.027l-3.213-5.813h-2.627v-2.8h3.747c1.2 0 2.080-0.587 2.427-1.52h-6.133v-1.933h6.2c-0.347-0.96-1.227-1.493-2.453-1.493h-3.747v-2.8h12.013v1.907z"
    fill="#276304"
    style="fill: #276304"
  />
</svg>
