<svg xmlns="http://www.w3.org/2000/svg" viewBox="0 0 32 32">
  <path
    d="M32 16c0 8.837-7.163 16-16 16s-16-7.163-16-16c0-8.837 7.163-16 16-16s16 7.163 16 16z"
    fill="#0f97f8"
    style="fill: #0f97f8"
  />
  <path
    d="M24.987 13.813v-1.507h-2.547c-0.467-2.307-2.32-4.067-5.36-4.067h-7.653v4.067h-2.413v1.507h2.413v1.013h-2.413v1.507h2.413v8.267h3.48v-4.2h4.173c3.040 0 4.92-1.76 5.387-4.067h2.533v-1.507h-2.413c0-0.32 0-0.733 0-1.013h2.413zM12.907 11.24h3.707c0.92 0 1.667 0.413 2.080 1.080h-5.773v-1.080zM16.613 17.413h-3.707v-1.080h5.787c-0.4 0.68-1.16 1.080-2.080 1.080zM19.013 14.84h-6.107v-1.013h6.107c0 0.28 0 0.693 0 1.013z"
    fill="#fff"
    style="fill: #fff"
  />
</svg>
