<svg xmlns="http://www.w3.org/2000/svg" viewBox="0 0 32 32">
  <path
    d="M32 16c0 8.837-7.163 16-16 16s-16-7.163-16-16c0-8.837 7.163-16 16-16s16 7.163 16 16z"
    fill="#ff2e20"
    style="fill: #ff2e20"
  />
  <path
    d="M9.547 17.613h-3.387v4.747h-2.827v-11.64h2.827v4.413h3.387v-4.413h2.827v11.64h-2.827v-4.747z"
    fill="#fff"
    style="fill: #fff"
  />
  <path
    d="M16.6 18.093l-0.733 1.227v3.040h-2.827v-11.64h2.827v4.92l2.88-4.92h3.28l-3.64 5.44 3.867 6.2h-3.333l-2.32-4.253z"
    fill="#fff"
    style="fill: #fff"
  />
  <path
    d="M27.16 22.48v1.627h-1.827v-1.573c-1.507-0.147-2.6-0.667-3.453-1.48l1.347-2.16c0.68 0.733 1.707 1.24 2.827 1.24 0.84 0 1.347-0.44 1.347-1.013 0-0.693-0.68-1.027-1.653-1.4-1.507-0.547-3.507-1.187-3.507-3.64 0-1.627 1.093-3.107 3.107-3.453v-1.653h1.827v1.627c1.12 0.16 2.107 0.6 2.88 1.28l-1.293 2.093c-0.733-0.667-1.653-0.96-2.453-0.96s-1.187 0.4-1.187 0.92c0 0.627 0.667 0.947 1.68 1.307 1.48 0.547 3.467 1.28 3.467 3.627 0 1.88-1.12 3.267-3.093 3.627z"
    fill="#fff"
    style="fill: #fff"
  />
</svg>
