<svg xmlns="http://www.w3.org/2000/svg" viewBox="0 0 32 32">
  <path
    d="M32 16c0 8.837-7.163 16-16 16s-16-7.163-16-16c0-8.837 7.163-16 16-16s16 7.163 16 16z"
    fill="#914fff"
    style="fill: #914fff"
  />
  <path
    d="M21.853 12.107c-0.413-0.24-0.947-0.24-1.427 0l-3.333 1.96-2.267 1.253-3.267 1.96c-0.413 0.24-0.947 0.24-1.427 0l-2.56-1.547c-0.413-0.24-0.72-0.72-0.72-1.253v-2.973c0-0.48 0.24-0.947 0.72-1.253l2.56-1.493c0.413-0.24 0.947-0.24 1.427 0l2.56 1.547c0.413 0.24 0.72 0.72 0.72 1.253v1.96l2.267-1.307v-2.027c0-0.48-0.24-0.947-0.72-1.253l-4.76-2.8c-0.413-0.24-0.947-0.24-1.427 0l-4.88 2.853c-0.48 0.24-0.72 0.72-0.72 1.187v5.587c0 0.48 0.24 0.947 0.72 1.253l4.813 2.8c0.413 0.24 0.947 0.24 1.427 0l3.267-1.907 2.267-1.307 3.267-1.907c0.413-0.24 0.947-0.24 1.427 0l2.56 1.493c0.413 0.24 0.72 0.72 0.72 1.253v2.973c0 0.48-0.24 0.947-0.72 1.253l-2.493 1.493c-0.413 0.24-0.947 0.24-1.427 0l-2.56-1.493c-0.413-0.24-0.72-0.72-0.72-1.253v-1.907l-2.267 1.307v1.96c0 0.48 0.24 0.947 0.72 1.253l4.813 2.8c0.413 0.24 0.947 0.24 1.427 0l4.813-2.8c0.413-0.24 0.72-0.72 0.72-1.253v-5.653c0-0.48-0.24-0.947-0.72-1.253l-4.813-2.8z"
    fill="#fff"
    style="fill: #fff"
  />
</svg>
