<svg xmlns="http://www.w3.org/2000/svg" viewBox="0 0 32 32">
  <path
    d="M32 16c0 8.837-7.163 16-16 16s-16-7.163-16-16c0-8.837 7.163-16 16-16s16 7.163 16 16z"
    fill="#edf6ff"
    style="fill: #edf6ff"
  />
  <path
    d="M10.12 17.093h-2.813v6.040h-2.84v-16.173h7.107c3.2 0 5.28 2.080 5.28 5.067s-1.893 4.44-3.827 4.747l3.947 6.347h-3.267l-3.587-6.040zM11.187 9.467h-3.88v5.133h3.88c1.6 0 2.76-1.013 2.76-2.573s-1.16-2.573-2.76-2.573z"
    fill="#eb0a29"
    style="fill: #eb0a29"
  />
  <path
    d="M18.107 27.587v-16.173h2.547v1.6c0.867-1.16 2.227-1.893 3.76-1.893 3.027 0 5.187 2.28 5.187 6.133s-2.16 6.16-5.187 6.16c-1.48 0-2.813-0.653-3.76-1.92v6.080h-2.547zM23.653 13.387c-1.187 0-2.453 0.707-3 1.573v4.627c0.56 0.853 1.813 1.573 3 1.573 2.013 0 3.293-1.627 3.293-3.907s-1.28-3.88-3.293-3.88z"
    fill="#eb0a29"
    style="fill: #eb0a29"
  />
</svg>
