<svg xmlns="http://www.w3.org/2000/svg" viewBox="0 0 32 32">
  <g>
    <ellipse
      class="cls-1"
      cx="16"
      cy="16.13"
      rx="16"
      ry="15.96"
      style="fill: #02529c"
    />
  </g>
  <g>
    <path
      class="cls-2"
      style="fill: #dc1e35"
      d="M17.72,23.3h-3.86l-3.33-5.17h-.04v5.17h-3.22V7.86h3.22v9.83h.04l3.11-4.82h3.82l-3.74,4.9,4,5.53Z"
    />
    <path
      class="cls-2"
      style="fill: #dc1e35"
      d="M25.73,15.78c-.39-.21-.84-.32-1.35-.32-.7,0-1.25,.26-1.64,.77-.39,.51-.59,1.21-.59,2.09v4.98h-3.22V12.87h3.22v1.94h.04c.51-1.41,1.43-2.12,2.75-2.12,.34,0,.6,.04,.79,.12v2.96Z"
    />
  </g>
</svg>
