<svg xmlns="http://www.w3.org/2000/svg" viewBox="0 0 32 32">
  <path
    d="M16 0c8.84 0 16 7.16 16 16s-7.16 16-16 16-16-7.16-16-16 7.16-16 16-16z"
    fill="#eb0a29"
    style="fill: #eb0a29"
  />
  <path
    d="M25.080 14.6c-1.107-1.373-2.707-2.76-4.36-3.787l-0.093-0.053-0.4 0.053-0.080 0.133c-0.36 0.573-0.96 1.64-0.96 2.213 0 0.267 0.133 0.64 0.747 0.947 1.333 0.68 2.627 1.64 3.573 2.64 1 1.107 1.6 2.293 1.6 3.187 0 0.013-0.053 0.093-0.2 0.16-1.4 0.787-2.52 1.12-3.733 1.12-1.76 0-2.56-0.76-2.627-2.453v-0.307h-1.28l-0.040 0.267c-0.093 0.6-0.093 1.080-0.093 1.36 0 2.64 1.333 4.107 3.76 4.107 1.533 0 3.213-0.56 5.147-1.707l0.080-0.053 0.040-0.080c0.52-1.080 0.787-2.187 0.787-3.28 0-1.467-0.587-2.88-1.853-4.453z"
    fill="#fff"
    style="fill: #fff"
  />
  <path
    d="M14.027 24.067c-1.080 0-1.893 0.8-1.893 1.88 0 1.133 0.76 1.933 1.853 1.933h0.040c1.12 0 1.88-0.773 1.88-1.933 0-1.067-0.8-1.88-1.88-1.88z"
    fill="#fff"
    style="fill: #fff"
  />
  <path
    d="M10.453 5.373l-0.533-0.173-0.133 0.12c-0.573 0.52-1.28 1.28-1.8 1.933l-0.080 0.093v0.12c0.16 1.627 0.653 7.24 0.653 11.12v1.76c0 1.12-0.013 2.413-0.187 3.533l-0.040 0.227 0.653 0.347 0.173-0.187c1.027-1.133 1.6-1.96 1.653-3.067 0.080-0.72 0.12-1.76 0.12-3 0-5.32-0.147-9.347-0.467-12.653v-0.213z"
    fill="#fff"
    style="fill: #fff"
  />
</svg>
