<svg xmlns="http://www.w3.org/2000/svg" viewBox="0 0 32 32">
  <path
    d="M32 16c0 8.837-7.163 16-16 16s-16-7.163-16-16c0-8.837 7.163-16 16-16s16 7.163 16 16z"
    fill="#e9e4d2"
    style="fill: #e9e4d2"
  />
  <path
    d="M5.413 12.76l0.227-2.48h9.413v11.12h-3.547v-8.027h-2.987l-0.093 0.8c-0.507 5.573-2.053 7.507-5.32 7.507v-3.36c0.893 0 1.867-0.533 2.307-5.547z"
    fill="#279904"
    style="fill: #279904"
  />
  <path
    d="M17.627 10.28h7.387c2.533 0 3.653 1.453 3.653 2.853 0 1.307-0.827 2.213-1.907 2.533 1.267 0.253 2.16 1.333 2.16 2.693 0 1.64-1.173 3.040-3.707 3.040h-7.587v-11.12zM24.253 12.853h-3.080v1.613h3.080c0.547 0 0.853-0.387 0.853-0.8 0-0.44-0.293-0.8-0.853-0.8zM24.387 17.040h-3.227v1.773h3.227c0.6 0 0.96-0.387 0.96-0.893 0-0.467-0.347-0.88-0.96-0.88z"
    fill="#279904"
    style="fill: #279904"
  />
</svg>
