<svg xmlns="http://www.w3.org/2000/svg" viewBox="0 0 32 32">
  <path
    d="M32 16c0 8.837-7.163 16-16 16s-16-7.163-16-16c0-8.837 7.163-16 16-16s16 7.163 16 16z"
    fill="#02f"
    style="fill: #02f"
  />
  <path
    d="M19.787 15.773c1.387-0.28 2.533-1.52 2.533-3.373 0-1.96-1.427-3.747-4.227-3.747h-0.96v-1.467h-2.267v1.467h-4.507v14.693h4.507v1.467h2.267v-1.467h1.2c2.8 0 4.28-1.76 4.28-3.96 0-1.853-1.253-3.373-2.827-3.613zM17.413 11.32c1.053 0 1.72 0.707 1.72 1.613 0 0.947-0.667 1.627-1.72 1.627h-0.28v-3.24h0.28zM13.493 11.32h1.373v3.24h-1.373v-3.24zM13.493 20.68v-3.453h1.373v3.453h-1.373zM17.52 20.68h-0.387v-3.453h0.387c1.24 0 1.893 0.787 1.893 1.72 0 1.053-0.707 1.733-1.893 1.733z"
    fill="#eb0a29"
    style="fill: #eb0a29"
  />
</svg>
