<svg xmlns="http://www.w3.org/2000/svg" viewBox="0 0 32 32">
  <path
    d="M16 0c8.84 0 16 7.16 16 16s-7.16 16-16 16-16-7.16-16-16 7.16-16 16-16z"
    fill="#eb0a29"
    style="fill: #eb0a29"
  />
  <path
    d="M10.507 17.053l-0.893 1.107v3.853h-3.4v-13.187h3.4v5.413l4.053-5.413h4.187l-5.12 6.173 5.4 7.027h-4.173l-3.467-4.96z"
    fill="#fff"
    style="fill: #fff"
  />
  <path
    d="M19.067 12.467h3.040v1.213c0.627-0.773 1.84-1.44 2.987-1.44v2.947c-0.173-0.053-0.44-0.093-0.747-0.093-0.787 0-1.84 0.333-2.24 0.893v6.053h-3.040v-9.547z"
    fill="#fff"
    style="fill: #fff"
  />
  <path
    d="M26.28 18.533c1.013 0 1.853 0.853 1.853 1.853s-0.853 1.853-1.853 1.853-1.853-0.853-1.853-1.853 0.853-1.853 1.853-1.853z"
    fill="#fff"
    style="fill: #fff"
  />
</svg>
