<svg xmlns="http://www.w3.org/2000/svg" viewBox="0 0 32 32">
  <path
    d="M32 16c0 8.837-7.163 16-16 16s-16-7.163-16-16c0-8.837 7.163-16 16-16s16 7.163 16 16z"
    fill="#ffc800"
    style="fill: #ffc800"
  />
  <path
    d="M6.493 9.92h2.987v12.947h-2.987v-12.947z"
    fill="#0f76f8"
    style="fill: #0f76f8"
  />
  <path
    d="M16.027 13.267c2.773 0 4.8 2.040 4.8 5.227v0.64h-6.68c0.173 0.88 0.987 1.667 2.387 1.667 0.84 0 1.76-0.333 2.293-0.8l1.267 1.867c-0.933 0.84-2.48 1.24-3.92 1.24-2.893 0-5.12-1.88-5.12-4.933 0-2.72 2.053-4.907 4.987-4.907zM14.107 17.187h3.867c-0.080-0.653-0.56-1.613-1.947-1.613-1.307 0-1.8 0.933-1.92 1.613z"
    fill="#0f76f8"
    style="fill: #0f76f8"
  />
  <path
    d="M22.080 10.6c0-0.947 0.76-1.707 1.707-1.707s1.707 0.76 1.707 1.707-0.76 1.707-1.707 1.707-1.707-0.76-1.707-1.707zM22.293 13.493h2.987v9.373h-2.987v-9.373z"
    fill="#0f76f8"
    style="fill: #0f76f8"
  />
</svg>
