<svg xmlns="http://www.w3.org/2000/svg" viewBox="0 0 32 32">
  <path
    d="M32 16c0 8.837-7.163 16-16 16s-16-7.163-16-16c0-8.837 7.163-16 16-16s16 7.163 16 16z"
    fill="#279904"
    style="fill: #279904"
  />
  <path
    d="M9.413 18.16h-2.813v6.040h-2.827v-16.173h7.107c3.2 0 5.28 2.080 5.28 5.067s-1.893 4.44-3.827 4.747l3.947 6.347h-3.267l-3.587-6.040zM10.48 10.533h-3.88v5.133h3.88c1.6 0 2.76-1.013 2.76-2.573s-1.16-2.573-2.76-2.573z"
    fill="#ffc800"
    style="fill: #ffc800"
  />
  <path
    d="M23.6 24.44v2.187h-1.933v-2.16c-2.52-0.2-4.36-1.187-5.64-2.547l1.573-2.187c0.947 1 2.32 1.893 4.067 2.16v-4.68c-2.493-0.627-5.133-1.547-5.133-4.707 0-2.467 2.013-4.44 5.133-4.707v-2.227h1.933v2.28c1.987 0.2 3.613 0.973 4.867 2.187l-1.627 2.107c-0.893-0.893-2.040-1.453-3.253-1.693v4.173c2.52 0.68 5.24 1.627 5.24 4.867 0 2.467-1.6 4.6-5.24 4.947zM21.667 14.12v-3.773c-1.387 0.147-2.227 0.893-2.227 1.987 0 0.947 0.947 1.427 2.227 1.787zM25.96 19.76c0-1.12-1-1.627-2.347-2.040v4.173c1.667-0.24 2.347-1.213 2.347-2.133z"
    fill="#ffc800"
    style="fill: #ffc800"
  />
</svg>
