<svg xmlns="http://www.w3.org/2000/svg" viewBox="0 0 32 32">
  <path
    d="M32 16c0 8.837-7.163 16-16 16s-16-7.163-16-16c0-8.837 7.163-16 16-16s16 7.163 16 16z"
    fill="#edf6ff"
    style="fill: #edf6ff"
  />
  <path
    d="M6.133 18.44c0.933 0.933 2.373 1.707 4.133 1.707 1.147 0 1.84-0.48 1.84-1.107 0-0.733-0.84-1.027-2.213-1.32-2.133-0.427-5.12-0.973-5.12-4.040 0-2.173 1.84-4.053 5.16-4.053 2.080 0 3.88 0.627 5.253 1.8l-1.827 2.387c-1.093-0.893-2.507-1.333-3.653-1.333s-1.533 0.44-1.533 1.013c0 0.68 0.8 0.907 2.227 1.187 2.133 0.44 5.080 1.067 5.080 4 0 2.6-1.92 4.333-5.4 4.333-2.613 0-4.44-0.813-5.747-2.053l1.76-2.507z"
    fill="#eb0a29"
    style="fill: #eb0a29"
  />
  <path
    d="M23.187 22.947v1.773h-2.16v-1.773c-2.053-0.2-3.547-0.933-4.653-2l1.76-2.507c0.947 0.933 2.387 1.707 4.16 1.707 1.12 0 1.84-0.48 1.84-1.107 0-0.733-0.853-1.027-2.227-1.32-2.12-0.427-5.107-0.973-5.107-4.040 0-1.96 1.52-3.693 4.227-4v-1.827h2.16v1.84c1.547 0.2 2.933 0.8 4.013 1.733l-1.827 2.387c-1.067-0.893-2.507-1.333-3.653-1.333s-1.533 0.44-1.533 1.013c0 0.68 0.8 0.907 2.227 1.187 2.133 0.44 5.080 1.067 5.080 4 0 2.333-1.52 3.947-4.333 4.267z"
    fill="#eb0a29"
    style="fill: #eb0a29"
  />
</svg>
