<svg xmlns="http://www.w3.org/2000/svg" viewBox="0 0 32 32">
  <path
    d="M32 16c0 8.837-7.163 16-16 16s-16-7.163-16-16c0-8.837 7.163-16 16-16s16 7.163 16 16z"
    fill="#31a105"
    style="fill: #31a105"
  />
  <path
    d="M15.8 18.76h-2.013v5.187h-3.947v-15.307h7.667c3.4 0 5.32 2.253 5.32 5.093 0 2.667-1.627 4.080-3.053 4.587l3.12 5.627h-4.52l-2.573-5.187zM16.907 11.973h-3.12v3.44h3.12c1.027 0 1.907-0.667 1.907-1.72s-0.867-1.72-1.907-1.72z"
    fill="#ffc800"
    style="fill: #ffc800"
  />
</svg>
