<svg xmlns="http://www.w3.org/2000/svg" viewBox="0 0 32 32">
  <path
    d="M32 16c0 8.837-7.163 16-16 16s-16-7.163-16-16c0-8.837 7.163-16 16-16s16 7.163 16 16z"
    fill="#eb0a29"
    style="fill: #eb0a29"
  />
  <path
    d="M8.453 17.8h-1.987v4.56h-2.693v-12.72h5.947c2.653 0 4.267 1.733 4.267 4.093s-1.413 3.453-2.787 3.773l2.853 4.84h-3.107l-2.493-4.56zM9.307 11.973h-2.84v3.507h2.84c1.080 0 1.907-0.68 1.907-1.747s-0.813-1.747-1.907-1.747z"
    fill="#ffc800"
    style="fill: #ffc800"
  />
  <path
    d="M25.507 13.213l-3.587 9.147h-1.187l-3.587-9.147v9.147h-2.707v-12.72h3.787l3.093 7.92 3.093-7.92h3.813v12.707h-2.72v-9.147z"
    fill="#ffc800"
    style="fill: #ffc800"
  />
</svg>
