<svg xmlns="http://www.w3.org/2000/svg" viewBox="0 0 32 32">
  <circle cx="16" cy="16" fill="#0622FF" r="16" />
  <path
    d="M15.4,19.4c-1,0-1.8,0.8-1.8,1.8s0.8,1.8,1.8,1.8c1,0,1.8-0.8,1.8-1.8S16.4,19.4,15.4,19.4z"
    fill="#fff"
  />
  <path
    d="M24.2,10.2c-0.3-0.1-1.7,0.5-2.1,1.3c-0.4,0.8-0.5,1.5,0.3,1.7c1.2,0.5,3.6,3.8,2.7,4.3    c-0.6,0.4-2.1,1-3.4,0.8c-0.6-0.2-0.6-0.7-0.6-1.1c0.2-0.2-1.7-0.4-1.9,0.1c0,1.4-0.3,3.6,0.6,4.2c1,0.7,7.6-0.6,8-2.6    C28.3,17.4,27.2,11.2,24.2,10.2z"
    fill="#fff"
  />
  <path
    d="M10.5,23.2C9.9,22.9,9.7,22,10.5,22c0.8,0,1.2,0.1,1.2,0.1s0.4-1.3,0.3-1.5c-0.1-0.2-1.7-0.8-2.8-0.1    c-1,0.5-1.6,2-1.4,2.8C8,23.9,9,24.6,9,24.6l-1.2,0.5l1,1.6l4.4-1.5l0.3-1.9C13.5,23.3,11.3,23.7,10.5,23.2z"
    fill="#fff"
  />
  <path
    d="M11.5,4.9C11.2,4.1,7.1,7,7,7.5c-0.2,0.5,1.9,11,1.9,11l2.4-0.3c0,0,0.7-3.9,0.7-5.8    C12,10.3,11.8,5.7,11.5,4.9z"
    fill="#fff"
  />
</svg>
