<svg xmlns="http://www.w3.org/2000/svg" viewBox="0 0 32 32">
  <path
    d="M32 16c0 8.837-7.163 16-16 16s-16-7.163-16-16c0-8.837 7.163-16 16-16s16 7.163 16 16z"
    fill="#ffc800"
    style="fill: #ffc800"
  />
  <path
    d="M17.44 14.213h1.44v-1.88h-1.453c-0.4-2.347-2.24-3.987-5.067-3.987h-7.173v3.987h-1.427v1.88h1.427v9.48h3.267v-5.493h2.387l3.013 5.493h3.747l-3.453-5.84c1.453-0.347 2.947-1.507 3.28-3.64zM8.453 11.16h3.427c0.947 0 1.733 0.44 2.093 1.173h-5.52v-1.173zM11.88 15.387h-3.427v-1.173h5.52c-0.36 0.733-1.133 1.173-2.093 1.173z"
    fill="#a30"
    style="fill: #a30"
  />
  <path
    d="M23.96 16.773c-1.24-0.253-2.12-0.507-2.12-1.2 0-0.64 0.693-1.040 1.747-1.040 1.36 0 2.627 0.573 3.293 1.293l1.173-2c-1.107-0.88-2.6-1.52-4.493-1.52-2.92 0-4.56 1.64-4.56 3.493 0 2.64 2.467 3.107 4.373 3.48 1.267 0.253 2.227 0.533 2.227 1.307 0 0.693-0.6 1.133-1.867 1.133-1.387 0-3.040-0.76-3.84-1.52l-1.267 2.053c1.173 1.080 3.040 1.72 4.973 1.72 3.080 0 4.813-1.547 4.813-3.56 0-2.76-2.56-3.267-4.467-3.64z"
    fill="#a30"
    style="fill: #a30"
  />
</svg>
