<svg xmlns="http://www.w3.org/2000/svg" viewBox="0 0 32 32">
  <path
    d="M32 16c0 8.837-7.163 16-16 16s-16-7.163-16-16c0-8.837 7.163-16 16-16s16 7.163 16 16z"
    fill="#0f8ff8"
    style="fill: #0f8ff8"
  />
  <path
    d="M20.72 19.587l2.427 1.24c-1.24 1.933-3.227 3.64-6.493 3.64-3.92 0-7.12-2.307-8.147-5.867h-1.267v-1.627h0.973c-0.027-0.293-0.053-0.587-0.053-0.867 0-0.32 0.027-0.627 0.053-0.92h-0.973v-1.627h1.28c1.013-3.533 4.213-5.813 8.12-5.813 3.267 0 5.28 1.693 6.493 3.64l-2.427 1.24c-0.773-1.333-2.32-2.347-4.067-2.347-2.333 0-4.213 1.28-5.067 3.293h6.547v1.627h-7c-0.027 0.293-0.053 0.6-0.053 0.92 0 0.293 0.027 0.587 0.053 0.867h7v1.627h-6.56c0.853 2.040 2.733 3.347 5.093 3.347 1.747 0 3.293-1 4.067-2.347z"
    fill="#fff"
    style="fill: #fff"
  />
</svg>
