<svg xmlns="http://www.w3.org/2000/svg" viewBox="0 0 32 32">
  <path
    d="M32 16c0 8.837-7.163 16-16 16s-16-7.163-16-16c0-8.837 7.163-16 16-16s16 7.163 16 16z"
    fill="#eb0a29"
    style="fill: #eb0a29"
  />
  <path
    d="M21.947 9.413h-1.253v12.187h-3.547v-1.293c-0.933 1.067-2.067 1.573-3.32 1.573-2.76 0-4.96-2.093-4.96-5.893s2.16-5.867 4.96-5.867c1.227 0 2.413 0.493 3.32 1.6v-2.293h-3.253v-1.947h3.253v-1.347h3.547v1.347h1.253v1.947zM11.2 23.92h8.427v1.973h-8.427v-1.973zM17.147 14.267c-0.467-0.6-1.387-1-2.16-1-1.413 0-2.453 1.040-2.453 2.72s1.040 2.733 2.453 2.733c0.76 0 1.693-0.413 2.16-1.027v-3.44z"
    fill="#ffc800"
    style="fill: #ffc800"
  />
</svg>
