<svg xmlns="http://www.w3.org/2000/svg" viewBox="0 0 32 32">
  <ellipse cx="16" cy="15.96" rx="16" ry="15.96" style="fill: #032d9c" />
  <path
    d="M22,8.11a6.75,6.75,0,0,0-4.91-2.27C13.64,5.61,10,7.63,10.41,10.4c.17,1.46,1.87,2.17,1.87,2.17l3.46,1,0,.73H11.24v1.92h4.48l0,7.41s-2.73-.41-3.35-2.39C11.78,18.74,15.06,19,15.18,19s.23-1.3.23-1.3-.51-.74-2.81-.35a3.47,3.47,0,0,0-2.38,5,6.61,6.61,0,0,0,4,3.15c2.13.77,2,.64,2,.64h2l0-9.82,4,0V14.46h-4l.07-2.6S13,10.78,13,9.93c.21-1.85,3.59-2.24,5.13-1.72a10.16,10.16,0,0,1,2.75,1.42Z"
    fill="#d90024"
  />
</svg>
