<svg xmlns="http://www.w3.org/2000/svg" viewBox="0 0 32 32">
  <path
    d="M32 16c0 8.837-7.163 16-16 16s-16-7.163-16-16c0-8.837 7.163-16 16-16s16 7.163 16 16z"
    fill="#0f97f8"
    style="fill: #0f97f8"
  />
  <path
    d="M25.187 14.373h1.387v1.507h-1.8l-0.533 1.893h2.333v1.507h-2.76l-1.627 5.693h-3.027l-1.507-5.693h-3.267l-1.507 5.693h-3.027l-1.627-5.693h-2.76v-1.507h2.32l-0.533-1.893h-1.787v-1.507h1.36l-1.6-5.573h3.173l1.4 5.573h3.587l1.507-5.573h2.253l1.507 5.573h3.56l1.4-5.573h3.173l-1.6 5.573zM13 15.88h-2.813l0.48 1.893h1.813l0.507-1.893zM11.547 21.267l0.533-1.987h-1.040l0.507 1.987zM17.267 17.773l-0.507-1.893h-1.507l-0.48 1.893h2.493zM16 13.053l-0.333 1.333h0.707l-0.36-1.333zM21.84 15.893h-2.813l0.507 1.893h1.813l0.48-1.893zM20.987 19.28h-1.040l0.533 1.987 0.507-1.987z"
    fill="#fff"
    style="fill: #fff"
  />
</svg>
