<svg xmlns="http://www.w3.org/2000/svg" viewBox="0 0 32 32">
  <path
    d="M32 16c0 8.837-7.163 16-16 16s-16-7.163-16-16c0-8.837 7.163-16 16-16s16 7.163 16 16z"
    fill="#cd1442"
    style="fill: #cd1442"
  />
  <path
    d="M10.653 15.253l-1.693 6.693h-1.027l-1.653-6.693v6.693h-2.4v-11.053h3.133l1.44 5.813 1.48-5.813h3.107v11.053h-2.373v-6.693z"
    fill="#3ae606"
    style="fill: #3ae606"
  />
  <path
    d="M18.653 20.16h-2.187l-0.28 1.787h-2.44l2.373-11.053h2.88l2.373 11.053h-2.44l-0.28-1.787zM16.747 17.973h1.627l-0.813-4.867-0.813 4.867z"
    fill="#3ae606"
    style="fill: #3ae606"
  />
  <path
    d="M22.107 10.893h3.080c2.84 0 4.027 2.413 4.027 5.533s-1.173 5.52-4.013 5.52h-3.093v-11.053zM25.187 19.76c0.947 0 1.453-1.107 1.453-3.333 0-2.333-0.533-3.347-1.453-3.347h-0.573v6.68h0.573z"
    fill="#3ae606"
    style="fill: #3ae606"
  />
</svg>
