<svg xmlns="http://www.w3.org/2000/svg" viewBox="0 0 32 32">
  <path
    d="M31.965 16.035c0 8.817-7.148 15.965-15.965 15.965s-15.965-7.148-15.965-15.965c0-8.817 7.148-15.965 15.965-15.965s15.965 7.148 15.965 15.965z"
    fill="#c2a633"
    style="fill: #c2a633"
  />
  <path
    d="M15.605 6.5h-5.5v8.5h-2.255v2.085h2.255v8.5h6.395s9 0.755 9-9.395c0-9.985-8.595-9.69-9.895-9.69zM16.365 22.080h-2.65v-5h4v-2.080h-4v-5h2.5c0.945 0 5.7 0.38 5.71 6.25s-4.88 5.805-5.56 5.805z"
    fill="#fff"
    style="fill: #fff"
  />
</svg>
