<svg xmlns="http://www.w3.org/2000/svg" viewBox="0 0 32 32">
  <path
    d="M32 16c0 8.837-7.163 16-16 16s-16-7.163-16-16c0-8.837 7.163-16 16-16s16 7.163 16 16z"
    fill="#0f5ef8"
    style="fill: #0f5ef8"
  />
  <path
    d="M6.733 18.347h-0.8v3.6h-3.12v-11.027h4.867c2.28 0 3.707 1.64 3.707 3.667 0 1.853-0.92 2.8-1.653 3.213l1.707 4.147h-3.453l-1.24-3.6zM7.187 13.587h-1.24v2.093h1.24c0.56 0 1.027-0.4 1.027-1.053s-0.467-1.040-1.027-1.040z"
    fill="#fff"
    style="fill: #fff"
  />
  <path
    d="M11.987 10.92h4.173c3.24 0 5.16 2.2 5.16 5.507s-1.907 5.52-5.147 5.52h-4.187v-11.027zM16.16 19.227c1.227 0 1.987-1.040 1.987-2.8 0-1.867-0.693-2.773-1.987-2.773h-1.040v5.573h1.040z"
    fill="#fff"
    style="fill: #fff"
  />
  <path
    d="M26.507 22.053v1.56h-2v-1.507c-1.44-0.133-2.507-0.64-3.36-1.427l1.453-2.387c0.68 0.693 1.667 1.16 2.733 1.16 0.573 0 1.027-0.267 1.027-0.68 0-0.48-0.493-0.747-1.36-1.027-1.44-0.467-3.507-1.040-3.507-3.507 0-1.56 1.013-3.027 3.013-3.413v-1.587h2v1.56c1.093 0.147 2.067 0.56 2.827 1.213l-1.427 2.32c-0.707-0.613-1.627-0.893-2.333-0.893s-0.907 0.293-0.907 0.627c0 0.467 0.493 0.693 1.4 0.987 1.44 0.467 3.453 1.12 3.453 3.427 0 1.907-1.12 3.213-3.027 3.573z"
    fill="#fff"
    style="fill: #fff"
  />
</svg>
