<svg xmlns="http://www.w3.org/2000/svg" viewBox="0 0 32 32">
  <path
    d="M32 16c0 8.837-7.163 16-16 16s-16-7.163-16-16c0-8.837 7.163-16 16-16s16 7.163 16 16z"
    fill="#edf6ff"
    style="fill: #edf6ff"
  />
  <path
    d="M22.8 25.68c-1.227-0.187-2.36-0.693-3.533-1.067-0.173-0.053-0.387-0.093-0.347-0.347 0.027-0.187 0.227-0.253 0.507-0.213 0.613 0.107 1.227 0.253 1.84 0.307 1.187 0.107 2.253-0.267 3.213-0.933 1.013-0.693 1.787-1.613 2.467-2.627 0.587-0.88 0.493-1.907-0.24-2.84-0.613-0.773-1.227-1.52-1.853-2.28-0.213-0.267-0.333-0.547-0.253-0.893 0.093-0.36 0.307-0.613 0.68-0.707 0.4-0.093 0.733 0.027 1 0.333 0.573 0.68 1.12 1.387 1.693 2.053 0.453 0.533 0.733 1.133 0.893 1.8 0.053 0.213 0.080 0.427 0.133 0.64v0.867c-0.013 0.093-0.040 0.173-0.040 0.267-0.093 0.667-0.28 1.307-0.667 1.853-0.373 0.52-0.76 1.040-1.16 1.533-0.627 0.76-1.347 1.453-2.267 1.853-0.427 0.173-0.88 0.253-1.32 0.373h-0.707z"
    fill="#00a862"
    style="fill: #00a862"
  />
  <path
    d="M7.88 22.533c-1.080-0.053-1.92 0-2.733-0.267-1.52-0.493-2.373-1.893-2.080-3.493 0.213-1.16 0.6-2.267 1.267-3.253 0.093-0.147 0.28-0.28 0.453-0.333 0.227-0.080 0.44 0.027 0.573 0.227 0.147 0.213 0.107 0.44 0 0.667-0.28 0.573-0.573 1.147-0.787 1.747-0.413 1.147 0.027 2 1.213 2.36 0.413 0.133 0.853 0.2 1.293 0.227 0.987 0.080 1.96 0 2.907-0.267 1.173-0.347 1.747-1.080 1.747-2.307 0-0.827-0.053-1.653-0.147-2.48-0.187-1.627-0.413-3.253-0.653-4.867-0.107-0.68-0.293-1.333-0.427-2-0.12-0.667-0.053-1.333 0.28-1.947 0.16-0.293 0.293-0.307 0.533-0.107 0.387 0.32 0.773 0.653 1.173 0.96 0.693 0.533 0.8 1.253 0.173 1.947-0.373 0.413-0.44 0.827-0.373 1.347 0.267 2.267 0.507 4.533 0.747 6.8 0.093 0.853 0.040 1.693-0.253 2.507-0.493 1.347-1.507 2.067-2.867 2.32-0.747 0.133-1.507 0.16-2.027 0.213z"
    fill="#00a862"
    style="fill: #00a862"
  />
  <path
    d="M21.707 17.813c-0.187-0.747-0.253-1.507-0.72-2.147-0.573-0.787-0.547-1.56 0.013-2.347 0.16-0.227 0.293-0.24 0.507-0.053 0.467 0.413 0.773 0.933 0.933 1.533 0.333 1.2 0.32 2.427 0.28 3.653-0.013 0.413-0.053 0.827-0.067 1.24 0 0.213-0.107 0.32-0.333 0.32-1.853 0-3.707 0-5.56-0.013-0.84 0-1.453-0.507-1.627-1.387-0.16-0.787-0.227-1.587-0.347-2.373-0.24-1.653-0.493-3.307-0.747-4.96-0.067-0.453-0.12-0.907-0.187-1.36-0.053-0.387 0.040-0.76 0.2-1.107 0.107-0.24 0.187-0.493 0.307-0.72 0.053-0.093 0.187-0.213 0.267-0.2 0.093 0 0.213 0.133 0.253 0.227 0.427 1.267 0.76 2.547 0.853 3.893 0.107 1.667 0.267 3.333 0.4 5 0.040 0.533 0.347 0.8 0.893 0.813 1 0 2.013 0 3.013 0 0.533 0 1.080 0 1.653 0z"
    fill="#00a862"
    style="fill: #00a862"
  />
  <path
    d="M18.827 22.16c-0.387 0.347-0.76 0.693-1.133 1.040-0.173 0.16-0.333 0.147-0.48-0.027-0.333-0.387-0.653-0.773-0.987-1.147-0.147-0.173-0.147-0.32 0.027-0.48 0.333-0.293 0.653-0.6 0.973-0.88 0.2-0.173 0.32-0.173 0.493 0.027 0.32 0.36 0.627 0.733 0.933 1.093 0.4-0.373 0.773-0.72 1.16-1.080 0.147-0.133 0.307-0.133 0.44 0.027 0.347 0.387 0.68 0.773 1.013 1.16 0.133 0.16 0.12 0.307-0.040 0.44-0.333 0.307-0.653 0.613-0.987 0.92-0.187 0.173-0.32 0.173-0.493-0.027-0.32-0.347-0.627-0.707-0.933-1.053z"
    fill="#00a862"
    style="fill: #00a862"
  />
</svg>
