<svg xmlns="http://www.w3.org/2000/svg" viewBox="0 0 32 32">
  <path
    d="M32 16c0 8.837-7.163 16-16 16s-16-7.163-16-16c0-8.837 7.163-16 16-16s16 7.163 16 16z"
    fill="#f0b90b"
    style="fill: #f0b90b"
  />
  <path
    d="M16 4.2l2.92 2.987-7.347 7.347-2.92-2.92 7.347-7.413z"
    fill="#473800"
    style="fill: #473800"
  />
  <path
    d="M20.427 8.627l2.92 2.987-11.76 11.76-2.92-2.92 11.76-11.827z"
    fill="#473800"
    style="fill: #473800"
  />
  <path
    d="M7.147 13.053l2.92 2.987-2.92 2.92-2.92-2.92 2.92-2.987z"
    fill="#473800"
    style="fill: #473800"
  />
  <path
    d="M24.853 13.053l2.92 2.987-11.76 11.76-2.92-2.92 11.76-11.84z"
    fill="#473800"
    style="fill: #473800"
  />
</svg>
