<svg xmlns="http://www.w3.org/2000/svg" viewBox="0 0 32 32">
  <path
    d="M16 0c8.84 0 16 7.16 16 16s-7.16 16-16 16-16-7.16-16-16 7.16-16 16-16z"
    fill="#1c3bd8"
    style="fill: #1c3bd8"
  />
  <path
    d="M21.307 19.373h-3.4v-4.093c0-2.267-0.827-3.4-3.24-3.4h-4.707v12.493h-3.4v-15.613h8.12c4.973 0 6.64 2.333 6.64 6.213v4.4zM12.173 13.787h3.44v7.467h4.707c2.413 0 3.24-1.133 3.24-3.373v-9.12h3.4v9.387c0 3.893-1.64 6.213-6.64 6.213h-8.147v-10.587z"
    fill="#fff"
    style="fill: #fff"
  />
</svg>
