<svg xmlns="http://www.w3.org/2000/svg" viewBox="0 0 32 32">
  <path
    d="M32 16c0 8.837-7.163 16-16 16s-16-7.163-16-16c0-8.837 7.163-16 16-16s16 7.163 16 16z"
    fill="#0f76f8"
    style="fill: #0f76f8"
  />
  <path
    d="M5.28 15.293v5.853h-2.507v-9.693h2.573l3.92 5.587v-5.587h2.52v9.693h-2.413l-4.093-5.853z"
    fill="#fff"
    style="fill: #fff"
  />
  <path
    d="M13.24 19.16l4.133-5.52h-4.133v-2.173h7.427v1.987l-4.147 5.52h4.24v2.187h-7.533v-1.987z"
    fill="#fff"
    style="fill: #fff"
  />
  <path
    d="M26.787 21.28v1.32h-1.613v-1.32c-1.547-0.147-2.653-0.693-3.493-1.493l1.32-1.88c0.707 0.693 1.787 1.28 3.107 1.28 0.84 0 1.387-0.36 1.387-0.827 0-0.547-0.64-0.773-1.667-0.987-1.587-0.32-3.827-0.72-3.827-3.027 0-1.467 1.133-2.76 3.173-3v-1.36h1.613v1.387c1.16 0.147 2.2 0.6 3.013 1.293l-1.373 1.787c-0.8-0.667-1.88-1-2.733-1s-1.147 0.333-1.147 0.76c0 0.507 0.6 0.68 1.667 0.88 1.6 0.333 3.813 0.8 3.813 3 0 1.747-1.133 2.947-3.24 3.2z"
    fill="#fff"
    style="fill: #fff"
  />
</svg>
