<svg xmlns="http://www.w3.org/2000/svg" viewBox="0 0 32 32">
  <path
    d="M32 16c0 8.837-7.163 16-16 16s-16-7.163-16-16c0-8.837 7.163-16 16-16s16 7.163 16 16z"
    fill="#6cde07"
    style="fill: #6cde07"
  />
  <path
    d="M11.2 18.933c1.2 1.2 2.933 2.267 5.2 2.267 1.867 0 2.8-0.933 2.8-1.867 0-1.2-1.467-1.6-3.333-2.133-2.667-0.667-6.133-1.333-6.133-4.933 0-2.667 2.4-4.933 6.133-4.933 2.533 0 4.8 0.8 6.4 2.267l-2 2.533c-1.333-1.2-3.067-1.733-4.667-1.733-1.467 0-2.267 0.667-2.267 1.6 0 1.067 1.333 1.467 3.2 1.867 2.667 0.667 6.133 1.467 6.133 5.067 0 2.933-2.133 5.2-6.533 5.2-3.2 0-5.333-1.067-6.933-2.533l2-2.667z"
    fill="#1f4002"
    style="fill: #1f4002"
  />
</svg>
