<svg xmlns="http://www.w3.org/2000/svg" viewBox="0 0 32 32">
  <path
    d="M32 16c0 8.837-7.163 16-16 16s-16-7.163-16-16c0-8.837 7.163-16 16-16s16 7.163 16 16z"
    fill="#ffc800"
    style="fill: #ffc800"
  />
  <path
    d="M16.053 7.307c3.387 0 5.52 1.64 6.773 3.573l-2.893 1.573c-0.76-1.147-2.16-2.053-3.88-2.053-2.96 0-5.12 2.28-5.12 5.373s2.16 5.373 5.12 5.373c1.493 0 2.813-0.613 3.533-1.253v-1.987h-4.36v-2.987h7.8v6.253c-1.667 1.867-4 3.093-6.96 3.093-4.773 0-8.707-3.333-8.707-8.48s3.92-8.453 8.707-8.453z"
    fill="#473800"
    style="fill: #473800"
  />
</svg>
