<svg xmlns="http://www.w3.org/2000/svg" viewBox="0 0 32 32">
  <path
    d="M32 16c0 8.837-7.163 16-16 16s-16-7.163-16-16c0-8.837 7.163-16 16-16s16 7.163 16 16z"
    fill="#0f76f8"
    style="fill: #0f76f8"
  />
  <path
    d="M12.347 19.16l-0.893 1.067v2.253h-2.987v-12.947h2.987v7.32l2.853-3.747h3.613l-3.453 4.267 3.627 5.107h-3.693l-2.053-3.32z"
    fill="#ffc800"
    style="fill: #ffc800"
  />
  <path
    d="M19.067 13.093h2.987v1.187c0.627-0.76 1.8-1.413 2.933-1.413v2.893c-0.173-0.053-0.427-0.093-0.733-0.093-0.773 0-1.8 0.333-2.187 0.88v5.933h-2.987v-9.373z"
    fill="#ffc800"
    style="fill: #ffc800"
  />
</svg>
