<svg xmlns="http://www.w3.org/2000/svg" viewBox="0 0 32 32">
  <path
    d="M32 16c0 0.8-0.053 1.6-0.173 2.373-0.027 0.187-0.053 0.373-0.093 0.56-0.16 0.88-0.4 1.733-0.707 2.56h-0.013s0 0.027-0.013 0.040c-0.133 0.373-0.267 0.747-0.44 1.107-0.8 1.747-1.893 3.32-3.227 4.667h-0.013c-0.24 0.253-0.493 0.48-0.747 0.707-2.28 2.013-5.147 3.387-8.32 3.827-0.067 0.013-0.133 0.013-0.2 0.027-0.667 0.093-1.36 0.133-2.053 0.133-1.653 0-3.253-0.253-4.76-0.72t-0.027 0c-0.267-0.080-0.52-0.16-0.773-0.267-1.333-0.48-2.587-1.147-3.72-1.96-0.293-0.2-0.587-0.427-0.867-0.667-0.013 0-0.027-0.027-0.053-0.027-0.853-0.72-1.627-1.52-2.32-2.387-0.32-0.4-0.627-0.813-0.893-1.24 0-0.013 0-0.027-0.013-0.027-1.28-1.947-2.12-4.2-2.427-6.6-0.040-0.187-0.053-0.36-0.067-0.533-0.053-0.52-0.080-1.040-0.080-1.56 0-0.387 0.013-0.76 0.053-1.147 0-0.147 0.013-0.293 0.027-0.453 0.293-3.013 1.44-5.8 3.187-8.093 0.133-0.173 0.28-0.347 0.427-0.52 2.933-3.547 7.36-5.8 12.307-5.8 1.013 0 2 0.093 2.96 0.28 0.24 0.040 0.48 0.093 0.707 0.147 1.347 0.307 2.613 0.787 3.8 1.413 0.227 0.12 0.44 0.253 0.667 0.373 3.2 1.893 5.693 4.88 6.947 8.453 0.067 0.147 0.12 0.307 0.16 0.453 0.293 0.893 0.493 1.813 0.613 2.76 0.040 0.2 0.053 0.4 0.080 0.587 0.040 0.507 0.067 1.013 0.067 1.533z"
    fill="#024ad6"
    style="fill: #024ad6"
  />
  <path
    d="M30.627 22.253c-0.027 0.133-0.040 0.267-0.067 0.387 0.173-0.36 0.307-0.733 0.44-1.107-0.2 0.187-0.333 0.453-0.373 0.72z"
    fill="#6fc0ff"
    style="fill: #6fc0ff"
  />
  <path
    d="M31.24 19.28c-0.427 0.613-0.933 1.173-1.493 1.68-0.28 0.253-0.453 0.6-0.493 0.973-0.027 0.253-0.067 0.507-0.107 0.747-0.387 2.027-1.293 3.44-1.627 3.973l-0.947 1.36c0.253-0.227 0.507-0.453 0.747-0.693h0.013s0.36-0.547 0.36-0.547c0.36-0.547 1.28-1.987 1.667-4.053 0.053-0.253 0.080-0.507 0.12-0.76 0.027-0.333 0.173-0.627 0.427-0.84 0.56-0.52 1.067-1.093 1.507-1.72 0.107-0.147 0.213-0.307 0.32-0.467 0.040-0.187 0.067-0.373 0.093-0.56-0.187 0.32-0.373 0.613-0.587 0.907zM3.227 6.413c-0.267 0.733-0.453 1.48-0.547 2.24l-0.067 0.213-0.093 0.147c-0.413 0.627-1.28 1.933-1.613 3.813-0.040 0.2-0.12 0.4-0.227 0.587l-0.6 0.987c-0.013 0.16-0.027 0.307-0.027 0.453 0.040-0.067 0.093-0.147 0.147-0.227l0.667-1.093c0.12-0.213 0.213-0.44 0.253-0.667 0.333-1.84 1.173-3.12 1.587-3.733l0.053-0.080 0.133-0.36c0.107-0.747 0.28-1.493 0.547-2.2l0.067-0.2s0.027-0.067 0.067-0.173c0.027-0.093 0.067-0.2 0.12-0.333-0.147 0.173-0.293 0.347-0.427 0.52l-0.040 0.107z"
    fill="#6fc0ff"
    style="fill: #6fc0ff"
  />
  <path
    d="M31.853 13.88c-0.027 0.080-0.053 0.147-0.080 0.213v0.093c-0.080 0.6-0.213 1.187-0.4 1.76-0.293 0.893-0.733 1.733-1.28 2.493-0.467 0.667-1.027 1.267-1.653 1.773-0.173 0.12-0.307 0.293-0.4 0.48s-0.147 0.387-0.16 0.6c0 0.373-0.053 0.747-0.133 1.12-0.32 1.76-1.12 2.987-1.453 3.507l-0.76 1.147c-1.16 1.533-2.52 2.52-4.16 3.027l-0.333 0.107-0.36 0.067c-0.467 0.080-0.933 0.12-1.413 0.12h-0.493l-0.547 0.027c-0.293 0-0.573 0.053-0.853 0.147-1.147 0.387-2.48 0.573-4.2 0.573-0.973 0-1.92-0.067-2.733-0.133 0.253 0.107 0.507 0.187 0.773 0.267t0.027 0c0.613 0.027 1.267 0.053 1.933 0.053 1.733 0 3.093-0.187 4.267-0.573 0.253-0.093 0.52-0.133 0.787-0.147l0.56-0.027h0.467c0.493 0.013 0.973-0.040 1.453-0.12l0.387-0.067 0.347-0.107c1.68-0.52 3.080-1.533 4.253-3.107l0.773-1.147c0.347-0.533 1.16-1.787 1.493-3.587 0.067-0.387 0.107-0.773 0.133-1.16 0-0.173 0.053-0.347 0.133-0.507s0.2-0.307 0.333-0.413c0.653-0.52 1.227-1.133 1.693-1.813 0.573-0.773 1.013-1.64 1.307-2.547 0.173-0.507 0.293-1.027 0.373-1.547-0.027-0.187-0.040-0.387-0.080-0.587zM11.96 1.373c0.107 0 0.2 0 0.32 0 0.573 0 1.133 0.080 1.693 0.213 0.507 0.133 1.040 0.080 1.52-0.16 0.933-0.453 1.867-0.733 2.787-0.853 0.067 0 0.133-0.013 0.187-0.027 0.147 0 0.36-0.040 0.64-0.067 0.16-0.013 0.347-0.027 0.56-0.040-0.227-0.053-0.467-0.107-0.707-0.147-0.213 0.027-0.4 0.040-0.52 0.053-0.053 0.013-0.12 0.013-0.2 0.027-0.933 0.12-1.893 0.413-2.84 0.867-0.427 0.213-0.92 0.267-1.387 0.147-0.56-0.147-1.147-0.213-1.733-0.213h-0.48c-0.68 0.053-1.36 0.173-2.013 0.36-1.133 0.333-2.187 0.933-3.053 1.72l-0.32 0.293-0.293 0.36c-0.88 1.080-1.213 2.080-1.4 2.613-0.027 0.107-0.053 0.173-0.080 0.227l-0.053 0.16c-0.24 0.68-0.413 1.373-0.493 2.067-0.040 0.093-0.067 0.187-0.093 0.267l-0.040 0.133c-0.027 0.080-0.067 0.173-0.093 0.227l-0.147 0.213c-0.373 0.573-1.173 1.773-1.427 3.453-0.040 0.253-0.133 0.507-0.253 0.733l-0.4 0.733-0.040 0.053s-0.093 0.12-0.147 0.187l-0.2 0.28c-0.547 0.787-0.933 1.547-1.173 2.32 0.013 0.173 0.027 0.347 0.067 0.533 0.213-0.907 0.627-1.8 1.28-2.747l0.187-0.253s0.107-0.133 0.16-0.2l0.44-0.8c0.147-0.253 0.24-0.533 0.28-0.813 0.253-1.627 1.027-2.8 1.413-3.36l0.147-0.24c0.027-0.067 0.067-0.16 0.107-0.253l0.040-0.133c0.027-0.080 0.053-0.173 0.093-0.28 0.080-0.693 0.253-1.387 0.493-2.040l0.053-0.16s0.040-0.12 0.080-0.24c0.173-0.52 0.507-1.493 1.36-2.547l0.28-0.36 0.307-0.267c0.853-0.773 1.88-1.347 2.973-1.68 0.64-0.187 1.307-0.307 1.973-0.347h0.147z"
    fill="#6fc0ff"
    style="fill: #6fc0ff"
  />
  <path
    d="M31.080 10.667c-0.013 0.48-0.093 0.893-0.147 1.2v0.040c-0.107 0.6-0.28 1.187-0.52 1.747v0.067s-0.027 0.053-0.027 0.053c0 0.053-0.027 0.107-0.027 0.16v0.080c-0.067 0.493-0.173 1-0.347 1.48-0.24 0.76-0.613 1.48-1.080 2.12-0.467 0.667-0.987 1.2-1.573 1.627-0.267 0.2-0.493 0.467-0.653 0.76-0.147 0.293-0.24 0.64-0.24 0.973 0 0.4-0.040 0.787-0.12 1.187-0.267 1.48-0.92 2.493-1.28 3.040l-0.56 0.84c-0.987 1.387-2.147 2.267-3.56 2.693l-0.067 0.027c-0.12 0.040-0.24 0.067-0.36 0.080l-0.093 0.027c-0.387 0.067-0.773 0.093-1.16 0.093h-0.347s-0.107 0-0.24 0.013h-0.24c-0.16 0.013-0.347 0.013-0.52 0.027-0.293 0.013-0.6 0.067-0.88 0.173-1.013 0.36-2.253 0.533-3.867 0.533-1.027 0-2.027-0.067-2.88-0.133l-0.253-0.027c-0.173-0.027-0.36-0.040-0.547-0.067-0.773-0.080-1.827-0.2-3-0.747l-0.28-0.147c-0.12-0.067-0.24-0.133-0.36-0.213 0.28 0.24 0.573 0.467 0.867 0.667 1.080 0.453 2.040 0.56 2.76 0.64 0.173 0.013 0.36 0.040 0.533 0.053l0.267 0.027c0.853 0.067 1.867 0.147 2.893 0.147 1.64 0 2.893-0.173 3.933-0.547 0.267-0.107 0.547-0.16 0.827-0.173 0.16 0 0.347-0.013 0.52-0.013h0.24s0.587-0.013 0.587-0.013c0.387 0 0.787-0.040 1.173-0.107h0.093c0.133-0.040 0.253-0.067 0.387-0.107l0.067-0.027c1.453-0.44 2.653-1.347 3.667-2.773l0.56-0.84c0.36-0.56 1.027-1.587 1.32-3.12 0.067-0.4 0.107-0.8 0.107-1.213 0.013-0.307 0.093-0.613 0.227-0.88 0.147-0.28 0.347-0.52 0.6-0.693 0.6-0.44 1.133-0.987 1.613-1.667 0.48-0.667 0.853-1.4 1.107-2.173 0.173-0.493 0.28-1.013 0.347-1.533v-0.067s0.013-0.093 0.027-0.16l0.027-0.067c0.24-0.573 0.413-1.173 0.52-1.787v-0.053c0.040-0.213 0.080-0.48 0.12-0.773-0.040-0.147-0.093-0.307-0.16-0.453zM6.16 7.333c0.040-0.107 0.067-0.187 0.12-0.307 0.147-0.467 0.413-1.253 1.107-2.107l0.213-0.253 0.227-0.213c1.64-1.493 3.48-1.613 4.093-1.653h0.107s0.24-0.013 0.24-0.013c0.733 0 1.44 0.147 2.12 0.427 0.133 0.067 0.267 0.093 0.413 0.080 0.147 0 0.28-0.040 0.4-0.107h0.027c0.613-0.36 1.76-1.027 3.24-1.213 0.067 0 0.133-0.013 0.173-0.013 0.133-0.027 0.347-0.040 0.6-0.067 0.44-0.040 1.107-0.093 1.827-0.093 1.2 0 2.213 0.133 3.067 0.413-0.227-0.12-0.44-0.253-0.667-0.373-0.707-0.16-1.493-0.24-2.4-0.24-0.72 0-1.4 0.053-1.853 0.093-0.253 0.027-0.467 0.053-0.587 0.067-0.053 0.013-0.12 0.013-0.187 0.027-1.493 0.187-2.653 0.84-3.293 1.213h-0.013c-0.107 0.067-0.227 0.093-0.333 0.093-0.12 0.013-0.24-0.013-0.347-0.053-0.693-0.293-1.427-0.44-2.187-0.44h-0.36c-0.627 0.053-2.52 0.173-4.213 1.707l-0.24 0.227-0.227 0.267c-0.707 0.88-0.973 1.68-1.133 2.173-0.040 0.107-0.067 0.187-0.107 0.293l-0.053 0.12c-0.213 0.613-0.373 1.24-0.427 1.867-0.013 0.027-0.013 0.040-0.013 0.040-0.067 0.2-0.133 0.4-0.173 0.533-0.080 0.213-0.173 0.413-0.2 0.48l-0.12 0.173s-0.027 0.053-0.053 0.080l-0.027 0.040c-0.36 0.547-1.12 1.693-1.253 3.24-0.013 0.173-0.053 0.333-0.12 0.493l-0.147 0.387c-0.040 0.107-0.107 0.213-0.187 0.32-0.12 0.147-0.24 0.293-0.347 0.453l-0.027 0.027s-0.093 0.12-0.147 0.187l-0.253 0.347c-1.347 1.933-1.6 3.627-0.92 6.040l0.040 0.133c0.147 0.467 0.32 0.96 0.573 1.48 0.053 0.12 0.107 0.24 0.16 0.36l0.040 0.080c0.080 0.173 0.16 0.36 0.24 0.547 0.013 0 0.013 0 0.013 0.027 0.267 0.427 0.573 0.84 0.893 1.24-0.427-0.667-0.72-1.32-0.973-1.893l-0.040-0.080c-0.053-0.12-0.107-0.24-0.16-0.36-0.253-0.507-0.413-1-0.56-1.453l-0.040-0.133c-0.667-2.347-0.413-4 0.88-5.88l0.267-0.333s0.093-0.12 0.133-0.187l0.027-0.040c0.12-0.147 0.227-0.293 0.347-0.44 0.093-0.12 0.173-0.24 0.213-0.373l0.16-0.387c0.067-0.173 0.107-0.36 0.12-0.533 0.133-1.507 0.867-2.613 1.227-3.16l0.027-0.040s0.053-0.067 0.067-0.080l0.107-0.187c0.053-0.080 0.133-0.28 0.227-0.507 0.040-0.133 0.107-0.347 0.173-0.547v-0.040c0.080-0.64 0.227-1.267 0.44-1.853l0.040-0.12z"
    fill="#6fc0ff"
    style="fill: #6fc0ff"
  />
  <path
    d="M29.387 8.36l-0.053-0.12-0.067-0.12c-0.453-0.733-0.96-1.12-1.267-1.36-0.067-0.053-0.133-0.107-0.187-0.16l-0.16-0.147c-0.307-0.28-0.453-0.467-0.667-0.733-0.667-0.853-1.36-1.613-3.107-2.267l-0.080-0.027c-0.733-0.267-1.64-0.387-2.733-0.387-0.667 0-1.307 0.053-1.72 0.080-0.24 0.027-0.427 0.053-0.56 0.067-0.040 0-0.107 0-0.16 0.027-1.227 0.147-2.213 0.707-2.8 1.053-0.267 0.133-0.533 0.253-0.827 0.36-0.093 0.040-0.2 0.053-0.32 0.053-0.107-0.013-0.213-0.040-0.307-0.080-0.467-0.213-1.36-0.573-2.107-0.573-0.067 0-0.133 0-0.187 0h-0.080c-0.867 0.053-2.16 0.253-3.347 1.333l-0.16 0.147-0.147 0.187c-0.56 0.68-0.76 1.293-0.893 1.707-0.040 0.133-0.080 0.24-0.133 0.373l-0.027 0.080c-0.187 0.507-0.32 1.040-0.373 1.587-0.027 0.147-0.027 0.16-0.040 0.213-0.080 0.213-0.16 0.493-0.2 0.627-0.12 0.333-0.293 0.68-0.347 0.773l-0.12 0.173s-0.040 0.067-0.067 0.107l-0.040 0.053c-0.347 0.52-0.987 1.493-1.027 2.773v0.307l-0.027 0.467c0 0.107-0.053 0.213-0.12 0.293-0.4 0.427-0.667 0.773-0.96 1.147-0.080 0.107-0.16 0.227-0.253 0.347l-0.107 0.133c-1.080 1.573-1.267 2.84-0.707 4.84l0.027 0.093c0.12 0.387 0.28 0.84 0.493 1.28 0.067 0.16 0.147 0.32 0.213 0.48 0.573 1.28 1.28 2.88 3.187 3.947l0.187 0.093c1 0.467 1.893 0.573 2.627 0.64 0.187 0.027 0.373 0.053 0.573 0.080h0.173c0.827 0.080 1.813 0.147 2.787 0.147 1.653 0 2.853-0.187 3.773-0.6 0.067-0.027 0.147-0.053 0.227-0.067 0.16-0.027 0.76-0.053 1.347-0.067h0.080c0.16-0.013 0.253-0.013 0.32-0.013h0.333c0.32 0 0.64-0.027 0.96-0.080l0.2-0.040 0.173-0.053c1.613-0.493 3.333-2.867 3.413-2.973 0.36-0.56 0.893-1.4 1.133-2.653 0.133-0.733 0.093-1.453 0.053-2.080-0.013-0.040 0-0.107 0-0.2 0.013-0.2 0.067-0.387 0.187-0.56 0.107-0.16 0.267-0.293 0.44-0.373 0.827-0.373 1.52-0.973 2.107-1.813 0.4-0.547 0.707-1.16 0.92-1.8 0.133-0.4 0.227-0.827 0.28-1.24v-0.067c0-0.080 0.027-0.16 0.040-0.253 0.013-0.12 0.053-0.24 0.107-0.347v-0.027c0.213-0.467 0.347-0.96 0.427-1.453v-0.053c0.133-0.733 0.347-1.973-0.307-3.293zM29.533 11.627v0.040c-0.093 0.493-0.227 0.973-0.427 1.44h-0.013c-0.053 0.133-0.093 0.267-0.107 0.4-0.027 0.093-0.027 0.173-0.040 0.253v0.067c-0.053 0.413-0.147 0.813-0.28 1.213-0.2 0.627-0.507 1.213-0.893 1.747-0.573 0.813-1.24 1.387-2.027 1.76-0.213 0.093-0.4 0.24-0.52 0.44-0.133 0.187-0.213 0.413-0.227 0.653v0.213c0.040 0.613 0.093 1.32-0.053 2.040-0.227 1.213-0.747 2.040-1.093 2.573-0.027 0.027-1.773 2.44-3.32 2.907l-0.173 0.053-0.173 0.040c-0.307 0.053-0.613 0.080-0.92 0.080-0.067-0.013-0.133 0-0.213-0.013h-0.133s-0.173 0-0.333 0.013h-0.080c-0.64 0.027-1.2 0.053-1.36 0.080-0.093 0.013-0.187 0.040-0.28 0.080-0.893 0.4-2.067 0.573-3.693 0.573-0.973 0-1.947-0.067-2.773-0.12l-0.16-0.027c-0.2-0.027-0.4-0.040-0.587-0.067-0.707-0.080-1.6-0.173-2.56-0.627l-0.187-0.093c-1.84-1.040-2.547-2.6-3.107-3.853-0.067-0.16-0.133-0.32-0.213-0.48-0.213-0.44-0.36-0.88-0.48-1.267l-0.027-0.093c-0.547-1.933-0.373-3.16 0.68-4.68l0.093-0.133c0.093-0.12 0.187-0.227 0.267-0.347 0.28-0.36 0.547-0.707 0.947-1.133 0.093-0.107 0.16-0.253 0.173-0.4l0.027-0.48v-0.133s-0.013-0.16-0.013-0.16c0.053-1.24 0.667-2.173 1.013-2.693l0.027-0.053s0.053-0.080 0.080-0.107l0.107-0.16c0.067-0.107 0.24-0.467 0.373-0.813 0.040-0.147 0.12-0.427 0.2-0.64 0.027-0.080 0.027-0.093 0.040-0.253 0.053-0.52 0.187-1.040 0.36-1.547l0.027-0.067c0.053-0.147 0.093-0.253 0.147-0.387 0.12-0.4 0.32-1 0.853-1.653l0.147-0.173 0.147-0.133c1.147-1.040 2.4-1.24 3.24-1.293h0.253c0.72 0 1.573 0.347 2.027 0.547 0.12 0.053 0.253 0.093 0.387 0.093s0.267-0.013 0.387-0.067c0.293-0.093 0.573-0.227 0.853-0.373 0.573-0.333 1.533-0.88 2.72-1.027 0.067-0.013 0.12-0.013 0.173-0.027 0.133-0.013 0.32-0.027 0.547-0.053 0.413-0.040 1.040-0.093 1.707-0.093 1.080 0 1.96 0.133 2.68 0.373l0.067 0.027c1.707 0.64 2.387 1.387 3.040 2.227 0.213 0.267 0.373 0.467 0.68 0.747l0.147 0.133s0.147 0.133 0.213 0.187c0.293 0.227 0.787 0.6 1.213 1.307l0.067 0.107 0.053 0.12c0.627 1.267 0.427 2.467 0.307 3.187z"
    fill="#6fc0ff"
    style="fill: #6fc0ff"
  />
  <path
    d="M28.107 8.987l-0.067-0.12c-0.307-0.507-0.653-0.773-0.907-0.973-0.12-0.093-0.24-0.187-0.347-0.293l-0.080-0.080c-0.4-0.36-0.613-0.627-0.84-0.92-0.573-0.733-1.080-1.28-2.507-1.827h-0.027c-0.587-0.2-1.32-0.307-2.267-0.307-0.48 0-1.013 0.027-1.573 0.080-0.227 0.027-0.4 0.040-0.507 0.053h-0.027s-0.093 0-0.147 0.027c-0.947 0.107-1.747 0.573-2.28 0.88-0.507 0.28-1.253 0.56-1.693 0.68-0.213 0.053-0.44 0.027-0.627-0.067-0.080-0.040-0.16-0.093-0.267-0.147l-0.080-0.040c-0.36-0.187-0.893-0.48-1.6-0.48h-0.16c-0.707 0.053-1.64 0.213-2.493 0.987l-0.080 0.067-0.080 0.093c-0.387 0.48-0.52 0.893-0.64 1.267-0.053 0.133-0.093 0.267-0.173 0.453v0.027c-0.16 0.413-0.253 0.84-0.307 1.28-0.013 0.173-0.040 0.333-0.093 0.493-0.067 0.173-0.133 0.387-0.173 0.533l-0.027 0.093c-0.16 0.413-0.4 0.973-0.547 1.16l-0.067 0.093s-0.053 0.080-0.080 0.12l-0.040 0.067c-0.307 0.467-0.773 1.147-0.8 2.040v0.2c0.027 0.133 0.040 0.267 0.067 0.4l0.147 0.4s0.027 0.12 0.013 0.173c-0.013 0.067-0.053 0.12-0.093 0.16-0.773 0.72-1.12 1.173-1.52 1.693-0.093 0.12-0.173 0.227-0.28 0.36l-0.053 0.067c-0.84 1.227-0.96 2.040-0.507 3.64v0.040c0.12 0.347 0.253 0.747 0.44 1.107 0.067 0.16 0.133 0.307 0.213 0.467v0.053c0.547 1.2 1.107 2.44 2.587 3.267l0.107 0.053c0.773 0.373 1.48 0.44 2.16 0.52 0.2 0.027 0.413 0.040 0.627 0.067h0.093c0.787 0.080 1.733 0.147 2.667 0.147 1.453 0 2.48-0.16 3.227-0.48 0.16-0.080 0.333-0.133 0.507-0.16 0.267-0.053 0.747-0.067 1.533-0.093h0.080c0.187-0.013 0.32-0.013 0.4-0.013h0.333c0.253 0 0.48-0.027 0.72-0.067h0.107s0.080-0.040 0.080-0.040c1.24-0.373 2.56-2.267 2.613-2.36 0.347-0.533 0.773-1.187 0.96-2.173 0.107-0.56 0.067-1.147 0.027-1.733-0.027-0.427-0.093-1.333 0.093-1.533l0.133-0.187c0.2-0.307 0.507-0.533 0.853-0.64 0.787-0.253 1.373-0.72 1.92-1.507 0.32-0.427 0.573-0.907 0.733-1.413 0.107-0.32 0.173-0.64 0.213-0.973v-0.067c0-0.093 0.027-0.2 0.053-0.32 0.040-0.227 0.107-0.44 0.187-0.64 0.173-0.373 0.28-0.773 0.347-1.173v-0.053c0.12-0.64 0.267-1.507-0.187-2.427zM28.133 11.387v0.053c-0.080 0.387-0.187 0.76-0.347 1.12-0.093 0.227-0.16 0.453-0.2 0.68-0.027 0.133-0.040 0.24-0.053 0.333v0.080c-0.040 0.307-0.12 0.627-0.213 0.933-0.16 0.493-0.387 0.947-0.707 1.36-0.52 0.76-1.080 1.2-1.827 1.44-0.387 0.12-0.733 0.373-0.947 0.72l-0.133 0.16c-0.2 0.227-0.173 0.96-0.12 1.693 0.027 0.547 0.067 1.12-0.040 1.667-0.173 0.947-0.587 1.587-0.92 2.107 0 0.013-1.347 1.92-2.52 2.28h-0.067s-0.093 0.040-0.093 0.040c-0.227 0.040-0.467 0.053-0.693 0.053h-0.333c-0.080 0-0.213 0-0.427 0h-0.053c-0.813 0.027-1.293 0.053-1.56 0.107-0.2 0.027-0.373 0.093-0.56 0.16-0.707 0.32-1.72 0.467-3.147 0.467-0.933 0-1.867-0.067-2.653-0.12h-0.080c-0.227-0.040-0.427-0.067-0.627-0.093-0.68-0.067-1.373-0.147-2.12-0.493l-0.080-0.040c-1.44-0.813-1.973-2.027-2.507-3.2v-0.053c-0.080-0.147-0.16-0.307-0.227-0.467-0.173-0.347-0.307-0.747-0.413-1.080v-0.040c-0.44-1.533-0.333-2.32 0.48-3.48l0.040-0.067c0.093-0.133 0.187-0.24 0.267-0.36 0.4-0.52 0.747-0.96 1.507-1.667 0.067-0.067 0.12-0.16 0.147-0.253 0.013-0.093 0.013-0.187-0.013-0.28l-0.147-0.387c-0.027-0.12-0.040-0.24-0.053-0.36v-0.187c0.027-0.827 0.467-1.493 0.76-1.933l0.040-0.067s0.067-0.093 0.093-0.133l0.053-0.080c0.173-0.227 0.427-0.84 0.56-1.2l0.040-0.107c0.040-0.147 0.107-0.36 0.173-0.533 0.053-0.173 0.093-0.347 0.107-0.533 0.040-0.413 0.133-0.84 0.28-1.24l0.027-0.027c0.067-0.173 0.107-0.32 0.16-0.453 0.107-0.36 0.24-0.76 0.613-1.2l0.067-0.080 0.067-0.067c0.813-0.747 1.707-0.893 2.4-0.933h0.133c0.667 0 1.173 0.267 1.507 0.453l0.093 0.040c0.093 0.053 0.187 0.107 0.267 0.147 0.227 0.12 0.507 0.147 0.76 0.080 0.453-0.133 1.2-0.413 1.747-0.707 0.507-0.293 1.293-0.747 2.2-0.853 0.053 0 0.093-0.013 0.133-0.013h0.027c0.107 0 0.293-0.040 0.507-0.053 0.56-0.053 1.080-0.080 1.56-0.080 0.92 0 1.64 0.093 2.213 0.293l0.027-0.093v0.093c1.373 0.52 1.867 1.053 2.427 1.76 0.227 0.293 0.44 0.573 0.853 0.947l0.080 0.067c0.107 0.12 0.227 0.227 0.36 0.32 0.24 0.187 0.573 0.44 0.867 0.92l0.053 0.107c0.427 0.867 0.28 1.707 0.187 2.32z"
    fill="#6fc0ff"
    style="fill: #6fc0ff"
  />
  <path
    d="M26.68 11.093c-0.067 0.387-0.147 0.573-0.227 0.787v0c-0.093 0.24-0.213 0.493-0.307 1.027-0.040 0.213-0.053 0.36-0.080 0.507v0s0 0.013 0 0.013c-0.027 0.213-0.040 0.36-0.133 0.627-0.067 0.213-0.187 0.573-0.48 0.96-0.24 0.307-0.627 0.827-1.147 0.893-0.040 0-0.147 0-0.173 0-1.48-0.76-2.76-1.32-3.2-1.44-0.507-0.147-0.453-1.267-0.387-2.253 0.027-0.44 0.053-0.853 0.027-1.213-0.067-1.24-0.293-2.613-1.373-3.28-0.653-0.4-1.48-0.507-2.28-0.52 0.147-0.067 0.307-0.16 0.493-0.267v0c0.467-0.28 1.053-0.613 1.64-0.667 0.187-0.013 0.373-0.040 0.56-0.067 1.173-0.133 2.173-0.24 3.24 0.12 0.48 0.16 1.48 0.72 1.733 1.227 0.173 0.36 0.48 0.64 1.093 1.213 0.32 0.293 0.52 0.467 0.68 0.587v0c0.213 0.187 0.253 0.213 0.32 0.347 0.2 0.4 0.12 0.827 0.027 1.413z"
    fill="#fff"
    style="fill: #fff"
  />
  <path
    d="M21.253 16.213c0.080 0.027 0.12 0.133 0.067 0.213-0.16 0.24-0.333 0.56-0.547 0.947-0.107 0.187-0.2 0.373-0.28 0.507-0.293 0.493-0.307 0.907-0.333 1.24-0.013 0.347-0.040 0.507-0.24 0.653-0.173 0.12-0.347 0.16-1.573 0.333-0.213 0.027-0.307 0.080-0.387 0.107-0.013 0-0.027 0-0.040 0.013-0.080 0.040-0.173-0.040-0.16-0.133 0-0.173 0.013-0.387 0.013-0.64v-0.053c0-0.24 0-0.44 0-0.587-0.013-0.307-0.013-0.44 0.067-0.573 0.107-0.16 0.187-0.213 0.307-0.293 0.187-0.12 0.427-0.267 0.8-0.787 0.2-0.267 0.24-0.413 0.267-0.547 0-0.053 0.013-0.067 0.173-0.187s0.653-0.493 1.28-0.387c0.16 0.027 0.373 0.093 0.6 0.16v0z"
    fill="#fff"
    style="fill: #fff"
  />
  <path
    d="M16.427 21.853s-0.053 0.053-0.107 0.053c-0.133 0-0.213-0.027-0.28-0.093-0.12-0.147-0.107-0.467-0.080-0.64l0.52-0.133c0.040 0.28 0.053 0.667-0.053 0.827z"
    fill="#fff"
    style="fill: #fff"
  />
  <path
    d="M16.467 19.987c0 0.080-0.013 0.16-0.013 0.253 0 0.027 0 0.067 0 0.093 0 0.080 0 0.213 0 0.28-0.16 0.053-0.293 0.053-0.48 0.053 0-0.053 0-0.133 0-0.187 0-0.040 0-0.080 0-0.12s0-0.080 0-0.133 0-0.267 0.027-0.307c0.053 0 0.093-0.013 0.147-0.027 0.107-0.027 0.24-0.053 0.333-0.040 0 0.040 0 0.080 0 0.12z"
    fill="#fff"
    style="fill: #fff"
  />
  <path
    d="M15.507 21.693c-0.027 0.267-0.107 0.587-0.36 0.64-0.107 0.027-0.16 0-0.2-0.040-0.173-0.16-0.2-0.627-0.173-0.96 0.107 0 0.253-0.027 0.427-0.053 0.107-0.027 0.213-0.040 0.293-0.067 0 0.12 0.013 0.307 0 0.48z"
    fill="#fff"
    style="fill: #fff"
  />
  <path
    d="M15.387 20.747l-0.56 0.2c0.027-0.213 0.067-0.52 0.080-0.733 0-0.147 0.053-0.187 0.053-0.2 0 0 0 0 0.027 0 0 0 0 0 0 0v0s0.36-0.013 0.36-0.013c0.013 0.16 0.013 0.533 0 0.76z"
    fill="#fff"
    style="fill: #fff"
  />
  <path
    d="M14.493 20.573c-0.027 0.080-0.067 0.32-0.093 0.493l-0.707-0.027c0.040-0.213 0.093-0.44 0.16-0.613s0.133-0.307 0.187-0.347c0.067-0.040 0.227-0.053 0.32 0.027 0.16 0.133 0.2 0.28 0.133 0.453z"
    fill="#fff"
    style="fill: #fff"
  />
  <path
    d="M14.227 22.72c-0.053 0.080-0.12 0.107-0.187 0.12-0.080 0-0.133 0-0.187-0.053-0.227-0.2-0.2-0.867-0.2-1.187 0.293-0.067 0.6-0.12 0.76-0.133 0.027 0.267 0.027 0.96-0.187 1.253z"
    fill="#fff"
    style="fill: #fff"
  />
  <path
    d="M13.307 21.013c-0.040 0.093-0.067 0.173-0.093 0.253-0.080 0.027-0.333 0-0.587-0.053l0.173-1.107c0.293-0.080 0.627-0.107 0.707-0.013 0.107 0.107-0.107 0.68-0.2 0.92z"
    fill="#fff"
    style="fill: #fff"
  />
  <path
    d="M12.987 22.88c-0.133 0.173-0.347 0.24-0.627 0.24-0.2 0-0.267-0.080-0.307-0.133-0.16-0.253 0-0.84 0.147-1.213l0.947 0.053s0.013 0.147 0.027 0.24c0 0.267-0.027 0.6-0.2 0.813z"
    fill="#fff"
    style="fill: #fff"
  />
  <path
    d="M23.4 15.88c-1.133-0.573-2.2-0.907-2.547-1-0.867-0.253-0.787-1.507-0.72-2.707 0.027-0.427 0.053-0.84 0.040-1.173-0.067-1.12-0.267-2.36-1.173-2.92-0.973-0.6-2.587-0.467-3.573-0.333-0.333 0.093-0.653 0.173-0.907 0.173h-0.053c-0.587-0.040-1.040-0.28-1.44-0.493-0.307-0.173-0.587-0.32-0.84-0.32h-0.040c-0.773 0.053-1.12 0.24-1.44 0.52-0.080 0.080-0.187 0.28-0.507 1.213-0.16 0.467-0.187 0.72-0.213 0.973-0.027 0.227-0.053 0.453-0.187 0.8-0.080 0.24-0.133 0.453-0.2 0.653-0.16 0.533-0.28 0.947-0.653 1.453-0.053 0.053-0.107 0.133-0.173 0.24-0.080 0.133-0.187 0.307-0.32 0.493-0.107 0.133-0.333 0.653-0.32 0.8 0.027 0.253 0.107 0.4 0.187 0.587 0.093 0.173 0.2 0.373 0.227 0.653v0.040c0.027 0.44-0.027 0.653-0.867 1.4-0.533 0.48-0.907 0.947-1.16 1.28-0.027 0.027 0 0.067 0.040 0.067h0.16c0.213 0.027 0.4 0.107 0.547 0.253 0.027 0.027 0.067 0.040 0.093 0.027 0.133-0.053 0.293-0.053 0.427-0.040 0.173 0.027 0.347 0.067 0.467 0.173 0.040 0.040 0.093 0.067 0.16 0.053 0.133-0.027 0.267-0.027 0.4 0.027 0.093 0.027 0.173 0.080 0.24 0.147s0.173 0.080 0.253 0.040c0.027-0.027 0.067-0.040 0.093-0.053 0.187-0.053 0.387-0.027 0.56 0.040 0.093 0.027 0.173 0.067 0.253 0.107 0.133 0.093 0.213 0.213 0.267 0.347 0.053 0.107 0.187 0.147 0.28 0.080 0.12-0.080 0.213-0.093 0.293-0.053 0.040 0.027 0.080 0.040 0.093 0.067 0.067 0.080 0.173 0.16 0.28 0.133 0.267-0.067 0.6-0.027 0.84 0.107 0.093 0.040 0.173 0.12 0.24 0.227v-0.053s0.027-0.040 0.053-0.040h0.053c0.147-0.067 0.853-0.267 1.12 0.027 0.013 0.013 0.040 0.013 0.053 0l0.080-0.080c0.187-0.107 0.493-0.12 0.693 0.067 0.040 0.027 0.107 0.013 0.147-0.027 0-0.027 0.040-0.053 0.053-0.067 0.080-0.067 0.173-0.093 0.267-0.093h0.387c0.107-0.027 0.4-0.040 0.507-0.067h0.013s0.093-0.013 0.147-0.027c0.187-0.040 0.4-0.093 0.573-0.013s0.147 0.28 0.133 0.44c-0.013 0.067-0.027 0.147-0.027 0.213 0 0.027 0 0.067 0.013 0.093 0 0.147 0 0.28-0.027 0.387v0.080c0.040 0.080 0.12 0.12 0.187 0.080 0.133-0.080 0.267-0.187 0.307-0.24h0.013s0.013-0.067 0.027-0.133c0.027-0.147 0.053-0.44 0.053-1.040v-0.067c0-0.213 0-0.4-0.013-0.547-0.013-0.333-0.027-0.587 0.133-0.84s0.307-0.347 0.453-0.44c0.173-0.107 0.36-0.227 0.68-0.667 0.16-0.213 0.187-0.307 0.2-0.373 0.027-0.173 0.080-0.267 0.333-0.453 0.187-0.147 0.8-0.6 1.613-0.467 0.267 0.040 0.693 0.187 1.12 0.36 0.027 0 0.040 0 0.053 0.013h0.013c0.373 0.16 0.733 0.32 0.973 0.453 0.067 0.040 0.147 0 0.2-0.040 0.080-0.093 0.16-0.147 0.24-0.2 0.040 0 0.067-0.040 0.093-0.053 0.080-0.067 0.067-0.213-0.027-0.267zM12.693 15.133c-0.267 1.16-2.067 2.44-2.88 2.44h-0.013s-0.027 0-0.040-0.013h-0.053s-0.013-0.013-0.027-0.013c-0.147-0.053-0.347-0.16-0.507-0.32-0.107-0.093-0.187-0.227-0.213-0.36 0 0 0-0.040 0-0.067-0.053-0.2-0.107-0.44 0.067-0.84 0.027-0.053 0.053-0.107 0.067-0.16 0-0.013 0.013-0.027 0.013-0.040 0.027-0.040 0.040-0.080 0.053-0.12 0.027-0.067 0.053-0.12 0.067-0.16 0-0.013 0.013-0.027 0.013-0.053 0.053-0.133 0.053-0.187 0.067-0.24 0-0.040 0.013-0.093 0.027-0.173 0.053-0.213 0.080-0.4 0.107-0.56 0.040-0.293 0.067-0.547 0.227-0.787 0.027-0.040 0.067-0.067 0.093-0.107 0.013-0.013 0.027-0.013 0.040-0.027s0.027-0.027 0.040-0.027c0.040-0.027 0.080-0.053 0.12-0.080 0 0 0.027-0.013 0.040-0.013 0.040-0.013 0.067-0.027 0.107-0.027 0.147-0.040 0.32-0.053 0.52-0.027 0.213 0.027 0.413 0.067 0.587 0.107 0.147 0.053 0.28 0.093 0.4 0.133 0.013 0 0.027 0 0.027 0.027 0.027 0 0.053 0.013 0.067 0.013 0.027 0.013 0.053 0.027 0.080 0.040 0.040 0.013 0.067 0.040 0.107 0.040h0.027c0.12 0.080 0.227 0.133 0.32 0.2 0.040 0.040 0.093 0.067 0.12 0.107 0.013 0 0.027 0.027 0.040 0.040 0.013 0 0.027 0.013 0.040 0.027 0.347 0.36 0.32 0.787 0.267 1.040zM13.52 10.747l-0.027 0.213c-0.080 0.467-0.267 1.12-0.947 1.28-0.667 0.16-0.813 0.2-1.28 0.227h-0.040c-0.333 0-0.987-0.213-1.107-0.76-0.080-0.333 0.080-0.587 0.32-1 0.053-0.067 0.093-0.147 0.147-0.227 0.32-0.56 0.453-0.96 0.56-1.28s0.187-0.573 0.4-0.787c0.053-0.053 0.107-0.107 0.173-0.147 0.040-0.027 0.093-0.053 0.133-0.080 0.067-0.027 0.133-0.053 0.2-0.080 0.147-0.053 0.32-0.067 0.48-0.067 0.32 0 0.64 0.080 0.867 0.267 0.093 0.080 0.24 0.24 0.32 0.733 0.053 0.24-0.027 0.693-0.2 1.707zM18.387 12.093c-0.24 0.4-0.36 0.627-0.56 0.787-0.413 0.333-0.88 0.413-1.267 0.413-0.28 0-0.507-0.040-0.653-0.067-0.4-0.067-1.133-0.2-1.387-0.787-0.040-0.12-0.053-0.2-0.053-0.293s0-0.24-0.040-0.613v-0.027c-0.013-0.16-0.040-0.347 0.013-0.6v-0.027c0.133-0.707 0.173-0.813 0.213-0.88 0.067-0.147 0.24-0.2 0.373-0.12 0.147 0.067 0.2 0.227 0.133 0.373-0.013 0.040-0.053 0.187-0.16 0.733v0.040c-0.040 0.147-0.027 0.267 0 0.413v0.027c0.040 0.4 0.040 0.587 0.040 0.68v0.053s0 0.013 0 0.013c0.040 0.093 0.12 0.173 0.24 0.24 0.093 0.053 0.187-0.040 0.173-0.147-0.12-0.627-0.107-1.333 0.12-1.773 0.080-0.147 0.227-0.4 0.36-0.627v0s0.027-0.040 0.040-0.067c0.013-0.027 0.013-0.040 0.027-0.053 0.067-0.107 0.12-0.2 0.173-0.28 0 0 0-0.013 0-0.027h0.013s0.013-0.053 0.027-0.067h0.013s0.013-0.027 0.013-0.040 0 0 0-0.027c0.040-0.053 0.080-0.107 0.107-0.147 0.080-0.107-0.013-0.24-0.133-0.187-0.2 0.093-0.333 0.2-0.36 0.213-0.12 0.107-0.307 0.080-0.4-0.040s-0.080-0.307 0.053-0.4c0.147-0.12 0.92-0.68 1.853-0.413 0.667 0.187 1.027 0.693 1.16 0.893 0.107 0.16 0.427 0.627 0.413 1.293 0 0.507-0.213 0.867-0.6 1.533z"
    fill="#fff"
    style="fill: #fff"
  />
  <path
    d="M12.333 8.613c-0.053 0.12-0.107 0.253-0.16 0.413-0.147 0.36-0.307 0.773-0.387 0.92-0.133 0.253-0.24 0.413-0.32 0.547-0.093 0.147-0.173 0.267-0.227 0.427-0.107 0.293-0.12 0.613-0.053 0.96-0.173-0.013-0.467-0.147-0.507-0.293-0.027-0.12 0.053-0.24 0.253-0.587 0.040-0.067 0.093-0.147 0.133-0.227 0.36-0.613 0.507-1.067 0.613-1.4 0.12-0.36 0.173-0.507 0.36-0.64 0.080-0.053 0.187-0.093 0.293-0.12z"
    fill="#fff"
    style="fill: #fff"
  />
  <path
    d="M11.987 21.427c-0.2 0.4-0.44 0.773-0.6 0.96-0.133-0.347-0.347-1.133-0.293-1.76 0-0.013 0-0.040 0-0.053 0.027-0.2 0.080-0.373 0.173-0.52 0.067-0.093 0.227-0.147 0.427-0.147 0.147 0 0.293 0.027 0.427 0.107v0c0.067 0.040 0.173 0.12 0.173 0.333 0.013 0.307-0.133 0.707-0.32 1.080z"
    fill="#fff"
    style="fill: #fff"
  />
  <path
    d="M22.813 16.907s0.027 0.027 0.013 0.053c-0.053 0.12-0.133 0.2-0.213 0.307-0.107 0.12-0.213 0.253-0.32 0.467-0.147 0.307-0.2 0.573-0.227 1.28-0.027 0.827 0 1.293 0.027 1.627s0.040 0.52-0.027 0.84c-0.12 0.64-0.387 1.067-0.747 1.613-0.44 0.68-0.893 1.373-1.64 1.587-0.067 0.027-0.067 0.027-0.267 0.027-0.173 0-0.453 0-0.987 0.027-0.973 0.040-1.467 0.053-1.88 0.133-0.44 0.080-0.667 0.173-0.893 0.267-0.2 0.080-0.387 0.16-0.747 0.227-0.213 0.040-0.547 0.093-1.64 0.093-1.147 0-1.84 0-2.747-0.107-1.253-0.147-1.88-0.213-2.307-0.44-0.987-0.52-1.4-1.467-2.093-3.040 0 0 0 0 0 0 0-0.013 0.013-0.040 0.040-0.027 0.027 0.027 0.067 0.040 0.107 0.053 0.027 0 0.067 0.013 0.093 0.027 0.067 0 0.133 0 0.2 0 0 0 0.027 0 0.027 0s0 0 0 0 0.027 0 0.027 0c0.040 0.12 0.12 0.227 0.227 0.293 0.12 0.067 0.253 0.067 0.387 0.067s0.267 0 0.4-0.027c0.067 0 0.147 0.027 0.173 0.093 0.12 0.293 0.28 0.507 0.507 0.547 0 0 0.027 0 0.053 0 0.040 0 0.107 0 0.2-0.067 0.107-0.067 0.28-0.027 0.36 0.067 0.053 0.053 0.107 0.107 0.147 0.133 0.24 0.24 0.8 0.36 1.28 0.36 0.267 0 0.493-0.040 0.627-0.107 0.2-0.093 0.2-0.24 0.187-0.307-0.013-0.107-0.027-0.213-0.040-0.32 0 0 0.013-0.013 0.027 0 0.027 0.067 0.067 0.147 0.16 0.16 0 0 0.027 0 0.040 0 0.133 0 0.347 0.040 0.373 0.173 0.013 0.067 0.040 0.133 0.080 0.187 0.080 0.133 0.24 0.28 0.56 0.28h0.027c0.373 0 0.653-0.12 0.853-0.36 0-0.013 0.027-0.027 0.040-0.053 0.067-0.093 0.28-0.107 0.36-0.027 0.093 0.093 0.227 0.133 0.36 0.133 0.027 0 0.040 0 0.067 0 0.16-0.013 0.307-0.107 0.413-0.253 0.067-0.093 0.12-0.213 0.16-0.347 0-0.040 0.067-0.053 0.093-0.027 0.067 0.067 0.187 0.133 0.347 0.133 0.040 0 0.080 0 0.133-0.013 0.32-0.067 0.48-0.333 0.56-0.627 0 0 0.013 0 0.027 0 0.080 0.093 0.227 0.213 0.493 0.213 0.013 0 0.027 0 0.040 0 0.133 0 0.253-0.067 0.347-0.173 0.093-0.133 0.147-0.32 0.147-0.507 0-0.067 0.053-0.133 0.12-0.16 0.267-0.12 0.6-0.36 0.693-0.52 0 0 0 0 0 0 0.027-0.053 0.080-0.093 0.133-0.107 0.2-0.040 0.293-0.080 0.373-0.12 0.067-0.027 0.12-0.053 0.28-0.080 1.24-0.187 1.48-0.227 1.747-0.413 0.4-0.267 0.427-0.64 0.44-0.987 0.013-0.307 0.040-0.64 0.267-1.040 0.080-0.147 0.187-0.333 0.293-0.52 0.173-0.333 0.427-0.787 0.613-1.040 0.040-0.053 0.12-0.080 0.187-0.053 0.413 0.173 0.773 0.36 0.853 0.413v0z"
    fill="#fff"
    style="fill: #fff"
  />
  <path
    d="M10.787 20.587c-0.053 0.427-0.080 1 0 1.747 0.013 0.213 0.053 0.427 0.080 0.653-0.053 0.027-0.24 0.080-0.547 0.067-0.453 0-0.88-0.12-1.013-0.267h-0.027c-0.107-0.107-0.187-0.16-0.187-0.32 0-0.053 0.013-0.107 0.067-0.173 0.027-0.040 0.067-0.093 0.107-0.147 0.080-0.107 0.173-0.227 0.267-0.387 0.28-0.48 0.387-0.627 0.52-0.8 0-0.013 0.027-0.027 0.040-0.040 0.080-0.107 0.173-0.24 0.32-0.453 0.107-0.16 0.187-0.28 0.267-0.387 0.12-0.16 0.2-0.253 0.253-0.293 0 0.080-0.027 0.173-0.040 0.267-0.027 0.147-0.053 0.333-0.080 0.547v0z"
    fill="#fff"
    style="fill: #fff"
  />
  <path
    d="M10.573 13.933s0 0 0 0c-0.053 0.080-0.12 0.173-0.2 0.347-0.213 0.48-0.213 0.747-0.227 0.96 0 0.12 0 0.2-0.040 0.307-0.027 0.067-0.053 0.147-0.093 0.24-0.12 0.293-0.293 0.667-0.213 1.173-0.107-0.053-0.253-0.16-0.28-0.227 0-0.027 0-0.053-0.013-0.080-0.040-0.16-0.053-0.267 0.040-0.493 0.267-0.613 0.293-0.76 0.32-0.92 0-0.040 0-0.067 0.013-0.107 0.053-0.24 0.080-0.453 0.107-0.613 0.040-0.253 0.053-0.413 0.147-0.547 0.027-0.040 0.12-0.067 0.24-0.067 0.053 0 0.107 0 0.173 0h0.013s0 0 0.013 0z"
    fill="#fff"
    style="fill: #fff"
  />
  <path
    d="M10.227 19.973c-0.013-0.147-0.040-0.293-0.093-0.427 0 0-0.013-0.040-0.027-0.053 0-0.013-0.027-0.040-0.027-0.053 0 0 0 0 0 0s0 0 0 0 0 0-0.013-0.013c0 0-0.013-0.013-0.027-0.027 0 0 0 0 0 0s0 0-0.013 0c0 0-0.027 0-0.027-0.013 0 0 0 0-0.013 0 0 0 0 0 0 0s0 0 0 0 0 0 0 0 0 0 0 0 0 0 0 0 0 0 0 0c-0.080-0.027-0.173-0.067-0.267-0.080 0 0 0 0 0 0v0s-0.027 0-0.027 0c0 0-0.027 0-0.040 0 0 0 0 0-0.013 0v0s0 0 0 0c0 0 0 0 0 0v0s-0.040 0-0.067 0.013c0 0-0.013 0-0.027 0.013 0 0-0.013 0-0.027 0.013 0 0 0 0 0 0v0s-0.013 0.027-0.027 0.027c0 0 0 0.013-0.013 0.027 0 0 0 0 0 0v0s0 0 0 0c0 0 0 0 0 0s0 0 0 0c-0.040 0.053-0.067 0.107-0.107 0.16-0.080 0.12-0.173 0.253-0.253 0.373-0.080 0.107-0.16 0.227-0.24 0.333-0.040 0.067-0.080 0.12-0.133 0.187 0 0-0.013 0.027-0.027 0.027 0.053 0 0.107 0.013 0.147 0.027 0.12 0.027 0.227 0.040 0.347 0.053 0.24 0.027 0.48 0.053 0.72 0.040 0 0 0.027 0 0.040 0 0.053-0.080 0.133-0.187 0.213-0.32 0.053-0.080 0.093-0.147 0.133-0.213-0.013-0.027-0.027-0.067-0.040-0.107v0z"
    fill="#fff"
    style="fill: #fff"
  />
  <path
    d="M9.373 20.96c-0.027 0.187-0.227 0.667-0.547 1.12-0.267 0.387-0.44 0.467-0.467 0.48-0.133-0.013-0.253-0.347-0.36-0.667-0.040-0.133-0.080-0.253-0.107-0.373-0.067-0.24-0.080-0.573-0.067-0.773 0.267 0.147 0.747 0.187 1.427 0.2v0s0.093 0 0.133 0.013z"
    fill="#fff"
    style="fill: #fff"
  />
  <path
    d="M8.893 19.44v0s0 0 0 0.013c-0.12 0.173-0.227 0.333-0.347 0.507-0.067 0.093-0.12 0.173-0.173 0.267-0.027 0.053-0.080 0.107-0.12 0.16-0.093-0.027-0.187-0.040-0.28-0.067-0.080-0.027-0.16-0.040-0.227-0.080-0.013 0-0.027 0-0.040-0.013 0-0.027-0.027-0.053-0.053-0.067 0 0 0 0 0 0 0.027-0.053 0.053-0.107 0.080-0.173 0.053-0.107 0.107-0.2 0.16-0.307 0.107-0.173 0.227-0.36 0.4-0.467 0 0 0.013 0 0.027-0.013 0.067-0.040 0.133-0.067 0.213-0.080 0 0 0.067 0 0.093 0 0 0 0 0 0 0v0s0 0 0 0c0.027 0 0.040 0 0.067 0.013 0 0 0.013 0 0.027 0s0.040 0.027 0.053 0.040c-0.027-0.027 0.040 0.040 0.040 0.040 0.053 0.067 0.067 0.133 0.080 0.227z"
    fill="#fff"
    style="fill: #fff"
  />
  <path
    d="M7.973 18.96c-0.213 0.173-0.373 0.413-0.493 0.653-0.067 0.133-0.133 0.267-0.213 0.413 0 0.013-0.013 0.027-0.027 0.040-0.067-0.013-0.133-0.027-0.187-0.053-0.067-0.027-0.133-0.040-0.2-0.080-0.027-0.013-0.053-0.027-0.093-0.040 0.067-0.12 0.147-0.24 0.213-0.347 0.107-0.16 0.213-0.32 0.333-0.467 0.040-0.053 0.093-0.12 0.16-0.16s0.147-0.027 0.213-0.027c0.080 0 0.16 0 0.24 0.040 0.013 0 0.027 0.013 0.040 0.027z"
    fill="#fff"
    style="fill: #fff"
  />
  <path
    d="M7.64 21.827s-0.013 0.013-0.027 0.027c0 0-0.013 0-0.013 0-0.053 0-0.107 0-0.16 0-0.093 0-0.2 0-0.307 0-0.053 0-0.107 0-0.133-0.040-0.040-0.053-0.053-0.16-0.067-0.227-0.067-0.36-0.080-0.747-0.027-1.12 0.187 0.067 0.387 0.12 0.587 0.16-0.040 0.333 0.027 0.827 0.080 0.973 0.027 0.067 0.040 0.133 0.067 0.213z"
    fill="#fff"
    style="fill: #fff"
  />
  <path
    d="M7.027 18.84c-0.173 0.213-0.32 0.427-0.467 0.653-0.053 0.093-0.12 0.187-0.16 0.293-0.067-0.013-0.133-0.040-0.187-0.080-0.053-0.027-0.093-0.067-0.147-0.093 0 0-0.040-0.040-0.067-0.053 0 0 0 0-0.013 0 0.013-0.040 0.040-0.093 0.053-0.12 0.040-0.080 0.080-0.16 0.12-0.227 0.080-0.133 0.16-0.28 0.267-0.4 0.040-0.040 0.067-0.107 0.133-0.12 0.053-0.013 0.12 0 0.16 0 0.12 0.027 0.227 0.080 0.307 0.173v0z"
    fill="#fff"
    style="fill: #fff"
  />
  <path
    d="M5.72 19.733s0.013 0 0.027 0c0.040 0.067 0.107 0.12 0.173 0.16 0.027 0.027 0.053 0.040 0.093 0.067 0 0 0 0 0 0.013-0.067 0.28-0.12 0.587-0.12 0.88 0 0.013-0.027 0.013-0.027 0-0.080-0.347-0.2-0.92-0.147-1.12z"
    fill="#fff"
    style="fill: #fff"
  />
  <path
    d="M6.547 20.36c-0.040 0.253-0.053 0.507-0.040 0.76 0 0.133 0.027 0.28 0.040 0.413 0 0 0 0 0 0v0s-0.067 0-0.093 0c0 0 0 0-0.013 0v0s0 0-0.013 0c-0.040 0-0.040 0-0.067-0.027-0.040-0.027-0.080-0.067-0.107-0.107-0.067-0.12-0.080-0.267-0.093-0.387 0-0.267 0-0.52 0.067-0.773 0.040 0.013 0.080 0.027 0.133 0.053s0.12 0.053 0.187 0.080v0s0 0 0 0z"
    fill="#fff"
    style="fill: #fff"
  />
</svg>
