<svg xmlns="http://www.w3.org/2000/svg" viewBox="0 0 32 32">
  <path
    d="M16 0c8.84 0 16 7.16 16 16s-7.16 16-16 16-16-7.16-16-16 7.16-16 16-16z"
    fill="#0d4fd1"
    style="fill: #0d4fd1"
  />
  <path
    d="M9.8 19.213l-0.907 1.093v2.293h-3.040v-13.2h3.040v7.453l2.907-3.813h3.68l-3.52 4.347 3.693 5.2h-3.76l-2.093-3.387z"
    fill="#dbecff"
    style="fill: #dbecff"
  />
  <path
    d="M23.107 17.080c0-1.173-0.613-1.587-1.56-1.587s-1.507 0.493-1.853 0.933v6.173h-3.040v-9.547h3.040v1.173c0.573-0.667 1.707-1.4 3.307-1.4 2.173 0 3.16 1.267 3.16 3.027v6.76h-3.040v-5.52z"
    fill="#dbecff"
    style="fill: #dbecff"
  />
</svg>
