<svg xmlns="http://www.w3.org/2000/svg" viewBox="0 0 32 32">
  <path
    d="M32 16c0 8.837-7.163 16-16 16s-16-7.163-16-16c0-8.837 7.163-16 16-16s16 7.163 16 16z"
    fill="#000"
    style="fill: #000"
  />
  <path
    d="M5.52 9.667h9.667v2.867h-6.267v2.2h6.133v2.893h-6.133v2.373h6.267v2.867h-9.667v-13.2z"
    fill="#fff"
    style="fill: #fff"
  />
  <path
    d="M26.933 22.080c-0.533 0.573-1.48 1.013-3.040 1.013-0.947 0-1.64-0.253-2.253-0.493-0.453-0.2-0.893-0.36-1.347-0.36-0.693 0-1.507 0.32-2.28 0.747l-1.12-2.28c1.013-0.493 1.92-1.24 1.92-2.173 0-0.36-0.080-0.693-0.2-1.013h-2.16v-1.893h1.053c-0.36-0.6-0.667-1.227-0.667-1.973 0-2.693 2.693-4.187 4.987-4.187s4.013 0.773 4.907 2.467l-2.707 1.56c-0.293-0.827-0.987-1.28-1.76-1.28-0.973 0-1.68 0.627-1.68 1.507 0 0.693 0.28 1.213 0.573 1.72l0.12 0.2h2.747v1.893h-2.173v0.133c0 0.787-0.52 1.627-1.187 2 0.32-0.12 0.693-0.16 0.947-0.16 0.573 0 0.947 0.16 1.32 0.293 0.333 0.16 0.653 0.28 1.093 0.28 0.813 0 1.347-0.333 1.6-0.693l1.32 2.693z"
    fill="#fff"
    style="fill: #fff"
  />
</svg>
