<svg xmlns="http://www.w3.org/2000/svg" viewBox="0 0 32 32">
  <path
    d="M16 0c8.84 0 16 7.16 16 16s-7.16 16-16 16-16-7.16-16-16 7.16-16 16-16z"
    fill="#e7eaef"
    style="fill: #e7eaef"
  />
  <path
    d="M10.187 17.84l-0.893 1.107v3.853h-3.4v-13.187h3.4v5.413l4.053-5.413h4.187l-5.12 6.173 5.4 7.027h-4.173l-3.467-4.96z"
    fill="#0f7cf8"
    style="fill: #0f7cf8"
  />
  <path
    d="M23.32 13.013c2.053 0 3.347 0.907 3.92 1.76l-1.973 1.84c-0.373-0.56-0.987-0.907-1.8-0.907-1.267 0-2.24 0.867-2.24 2.32s0.973 2.333 2.24 2.333c0.813 0 1.427-0.4 1.8-0.933l1.973 1.853c-0.573 0.827-1.853 1.76-3.92 1.76-2.987 0-5.227-2.013-5.227-5.027s2.24-5 5.227-5zM20.080 8.96h1.8l1.36 1.6 1.307-1.6h1.813l-1.773 2.853h-2.667l-1.84-2.853z"
    fill="#0f7cf8"
    style="fill: #0f7cf8"
  />
</svg>
