<svg xmlns="http://www.w3.org/2000/svg" viewBox="0 0 32 32">
  <path
    d="M32 16c0 8.837-7.163 16-16 16s-16-7.163-16-16c0-8.837 7.163-16 16-16s16 7.163 16 16z"
    fill="#e647ff"
    style="fill: #e647ff"
  />
  <path
    d="M10.987 15.253v-2.373c0-3.747 2.267-6.107 6.2-6.107 2.987 0 4.667 1.267 5.96 2.893l-2.533 1.933c-0.973-1.187-1.893-1.893-3.4-1.893-1.8 0-2.88 1.24-2.88 3.227v2.293h6.707v2.693h-6.707v4.427h8.76v2.773h-14.227v-2.013l2.133-0.627v-4.547h-2.133v-2.693h2.133z"
    fill="#fff"
    style="fill: #fff"
  />
</svg>
