<svg xmlns="http://www.w3.org/2000/svg" viewBox="0 0 32 32">
  <path
    d="M32 16c0 8.837-7.163 16-16 16s-16-7.163-16-16c0-8.837 7.163-16 16-16s16 7.163 16 16z"
    fill="#00a862"
    style="fill: #00a862"
  />
  <path
    d="M22.587 16.52c-1.053-0.213-1.787-0.427-1.787-1.013 0-0.547 0.587-0.88 1.48-0.88 1.147 0 2.213 0.48 2.773 1.093l0.987-1.693c-0.933-0.733-2.2-1.28-3.787-1.28-2.467 0-3.84 1.373-3.84 2.947 0 2.227 2.080 2.613 3.693 2.933 1.067 0.213 1.88 0.44 1.88 1.107 0 0.587-0.507 0.947-1.573 0.947-1.16 0-2.56-0.64-3.24-1.28l-1.067 1.733c0.987 0.907 2.56 1.453 4.187 1.453 2.6 0 4.053-1.307 4.053-3.013 0-2.333-2.16-2.76-3.76-3.067z"
    fill="#fff"
    style="fill: #fff"
  />
  <path
    d="M17.093 14.333h1.107v-1.547h-1.12c-0.32-1.987-1.893-3.373-4.28-3.373h-6.053v3.373h-1.107v1.547h1.107v8.013h2.76v-4.64h2.013l2.547 4.64h3.16l-2.907-4.933c1.24-0.293 2.493-1.28 2.773-3.093zM9.507 11.773h2.893c0.813 0 1.48 0.387 1.773 1.013h-4.667v-1.013zM12.4 15.347h-2.893v-1.013h4.667c-0.293 0.627-0.96 1.013-1.773 1.013z"
    fill="#fff"
    style="fill: #fff"
  />
</svg>
