<svg xmlns="http://www.w3.org/2000/svg" viewBox="0 0 32 32">
  <path
    d="M32 16c0 8.837-7.163 16-16 16s-16-7.163-16-16c0-8.837 7.163-16 16-16s16 7.163 16 16z"
    fill="#27b504"
    style="fill: #27b504"
  />
  <path
    d="M27.187 15.48c-0.72-2.773-0.827-2.813-1.147-2.933-0.28-0.12-0.613 0.013-0.76 0.293l-0.973 2c-0.067 0.147-0.080 0.32-0.013 0.48 0.040 0.107 0.107 0.2 0.2 0.267 0.053 0.093 0.24 0.413 0.627 1.493 0.333 0.92 0.467 1.413 0.533 1.667-0.133 0.040-0.373 0.093-0.773 0.147-1.253 0.173-2.253 0.12-2.573 0.040 0-0.067 0-0.16 0-0.28v-0.653c0-0.267-0.173-0.493-0.413-0.56-0.16-0.053-0.413-0.027-0.56 0.067-0.28 0.16-0.453 0.493-0.6 1.16-0.12 0.52-0.187 0.92-0.187 1.227 0 0.867 0.253 1.453 0.747 1.76 0.333 0.213 0.853 0.307 1.693 0.307 0.653 0 1.427-0.067 2.307-0.187 1.387-0.2 2.067-0.467 2.347-0.907 0.173-0.267 0.253-0.64 0.253-1.173 0-0.947-0.227-2.32-0.707-4.2z"
    fill="#0a2901"
    style="fill: #0a2901"
  />
  <path
    d="M19.12 21.64c-0.667-0.693-1.853-0.653-2.507-0.040-0.347 0.32-0.533 0.773-0.533 1.293 0 0.493 0.173 0.933 0.52 1.253 0.333 0.32 0.76 0.493 1.253 0.493 1.093 0 1.76-0.667 1.76-1.76 0-0.48-0.16-0.907-0.48-1.24z"
    fill="#0a2901"
    style="fill: #0a2901"
  />
  <path
    d="M15.653 10.173l-0.653-0.707-0.133-1.573c-0.013-0.227-0.173-0.427-0.387-0.507-0.227-0.080-0.467-0.027-0.627 0.147l-1.453 1.48c-0.147 0.147-0.2 0.373-0.147 0.573 0.173 0.64 0.32 1.24 0.467 1.773v6.547c0 0.32 0 0.587 0 0.8-0.187 0.067-0.533 0.16-1.213 0.267-0.64 0.093-1.173 0.133-1.587 0.133-2.4 0-3.373-0.427-3.48-0.827 0 0-0.027-0.133-0.027-0.627 0-0.187 0.040-0.453 0.107-0.813 0.080-0.453 0.12-0.787 0.12-1.080 0-0.213-0.147-0.427-0.333-0.533-0.093-0.053-0.187-0.080-0.293-0.080-0.427 0-0.68 0.32-1.187 1.24-0.48 0.853-0.733 1.653-0.733 2.413 0 2.16 1.973 3.253 5.84 3.253 0.733 0 1.627-0.093 2.627-0.293 1.68-0.307 2.4-0.707 2.52-1.387 0.027-0.133 0.053-0.44 0.053-1.48v-6.72l0.613-1.307c0.107-0.213 0.067-0.48-0.107-0.653z"
    fill="#0a2901"
    style="fill: #0a2901"
  />
  <path
    d="M7.867 17.32c0.173 0.093 0.4 0.133 0.693 0.133 2.693 0 3.093-1.653 3.093-2.64 0-0.16-0.013-0.4-0.173-0.6-0.067-0.093-0.16-0.16-0.28-0.2-0.053-0.013-0.32-0.067-0.813-0.133 0.133-0.253 0.293-0.56 0.467-0.893 0.093-0.187 0.080-0.413-0.027-0.587s-0.307-0.293-0.52-0.293c-0.48 0-0.92 0.347-1.453 1.133-0.467 0.693-0.68 1.227-0.68 1.653 0 0.573 0.24 0.867 0.467 1.027-0.2 0.093-0.453 0.187-0.733 0.307-0.213 0.093-0.36 0.293-0.373 0.533 0 0.24 0.12 0.453 0.333 0.56z"
    fill="#0a2901"
    style="fill: #0a2901"
  />
</svg>
