<svg xmlns="http://www.w3.org/2000/svg" viewBox="0 0 32 32">
  <ellipse cx="16" cy="15.96" fill="#ea00ff" rx="16" ry="15.96" />
  <path
    d="M21.65,19.69c0-2.96-2.22-4.13-4.2-5.09v-4.61c.81,.18,1.46,.62,2.2,1.3l1.77-2.03c-1.03-1.07-2.24-1.91-3.96-2.15v-.73h0v-1.99h-2.36v2.77c-2.51,.48-4.04,2.27-4.04,4.87s2.1,3.84,4.04,4.84v5.1c-1.09-.18-2.11-.71-3.18-1.57l-1.55,2.39c1.27,1.15,3.1,1.89,4.73,2.08v2.67h2.36v-1.99h0v-.78c2.74-.55,4.2-2.48,4.2-5.09Zm-7.26-7.81c0-.73,.25-1.25,.69-1.58v2.95c-.43-.38-.69-.81-.69-1.37Zm3.06,9.8v-3.37c.5,.45,.83,.97,.83,1.64,0,.8-.27,1.38-.83,1.73Z"
    fill="#fff600"
  />
</svg>
