<svg xmlns="http://www.w3.org/2000/svg" viewBox="0 0 32 32">
  <path
    d="M31.965 16.035c0 8.817-7.148 15.965-15.965 15.965s-15.965-7.148-15.965-15.965c0-8.817 7.148-15.965 15.965-15.965s15.965 7.148 15.965 15.965z"
    fill="#5e5e5e"
    style="fill: #5e5e5e"
  />
  <path
    d="M23.24 24.765l-2.5-2.47-2.28-2.26c-0.673-0.677-1.605-1.096-2.635-1.096s-1.962 0.419-2.635 1.096l-0 0-4.775 4.73h-3l0.435-0.45 1.5-1.5 3.435-3.4c0.41-0.405 0.81-0.825 1.245-1.2 0.819-0.728 1.865-1.218 3.019-1.353l0.026-0.002c0.236-0.034 0.509-0.054 0.786-0.054 1.453 0 2.779 0.54 3.791 1.43l-0.006-0.006c0.355 0.305 0.67 0.645 1 0.97l4.075 4.030 1.435 1.425c0.027 0.024 0.050 0.052 0.069 0.083l0.001 0.002z"
    fill="#fff"
    style="fill: #fff"
  />
  <path
    d="M8.465 7.5l1.7 1.69c0.78 0.77 1.55 1.54 2.33 2.305 0.336 0.348 0.687 0.675 1.054 0.983l0.021 0.017c0.619 0.486 1.409 0.779 2.268 0.779 1.021 0 1.944-0.414 2.612-1.084l0-0c1.090-1.090 2.19-2.17 3.29-3.26l1.46-1.43h3l-0.34 0.36-3.185 3.14-2.77 2.74c-0.846 0.842-1.959 1.416-3.201 1.582l-0.029 0.003c-0.266 0.044-0.572 0.069-0.883 0.069-1.522 0-2.903-0.598-3.924-1.571l0.002 0.002c-0.555-0.5-1.075-1.050-1.61-1.58l-4.72-4.675c-0.025-0.025-0.045-0.055-0.070-0.085z"
    fill="#fff"
    style="fill: #fff"
  />
</svg>
