<svg xmlns="http://www.w3.org/2000/svg" viewBox="0 0 32 32">
  <path
    d="M32 16c0 8.837-7.163 16-16 16s-16-7.163-16-16c0-8.837 7.163-16 16-16s16 7.163 16 16z"
    fill="#00a862"
    style="fill: #00a862"
  />
  <path
    d="M22.893 15.187v1.547h1.493v1.653h-1.493v5.293h-3.173l-3.747-5.293h-3.547v5.293h-3.293v-5.293h-1.52v-1.653h1.52v-1.547h-1.52v-1.653h1.52v-5.2h3.387l3.707 5.2h3.387v-5.2h3.293v5.2h1.493v1.653h-1.493zM12.427 13.533h0.12l-0.12-0.16v0.16zM14.8 16.733l-1.080-1.547h-1.293v1.547h2.373zM19.613 15.187h-2.213l1.107 1.547h1.107v-1.547z"
    fill="#fff"
    style="fill: #fff"
  />
</svg>
