<svg xmlns="http://www.w3.org/2000/svg" viewBox="0 0 32 32">
  <path
    d="M32 16c0 8.837-7.163 16-16 16s-16-7.163-16-16c0-8.837 7.163-16 16-16s16 7.163 16 16z"
    fill="#eb0a29"
    style="fill: #eb0a29"
  />
  <path
    d="M13.413 17.88v2.053h5.987v1.6h-5.987v2.64h-2.84v-2.64h-1.547v-1.6h1.547v-2.053h-1.547v-2.227h1.547v-7.64h7.107c3.387 0 5.28 2.28 5.28 4.947s-1.92 4.92-5.28 4.92h-4.267zM13.413 15.653h3.88c1.6 0 2.76-1.013 2.76-2.573s-1.16-2.573-2.76-2.573h-3.88v5.133z"
    fill="#fff"
    style="fill: #fff"
  />
</svg>
