<svg xmlns="http://www.w3.org/2000/svg" viewBox="0 0 32 32">
  <path
    d="M32 16c0 8.837-7.163 16-16 16s-16-7.163-16-16c0-8.837 7.163-16 16-16s16 7.163 16 16z"
    fill="#e7eaef"
    style="fill: #e7eaef"
  />
  <path
    d="M16 28.25v0c-0.088-0.001-0.172-0.015-0.251-0.042l0.006 0.002c-0.056-0.020-0.103-0.044-0.148-0.072l0.003 0.002-7.665-4.595c-0.218-0.133-0.362-0.369-0.362-0.639 0-0.064 0.008-0.127 0.023-0.186l-0.001 0.005 2.685-11.12c0.021-0.093 0.060-0.175 0.111-0.247l-0.001 0.002 5-7.285c0.145-0.185 0.369-0.304 0.62-0.304s0.475 0.118 0.619 0.302l0.001 0.002 5 7.285c0.050 0.070 0.089 0.152 0.109 0.24l0.001 0.005 2.685 11.12c0.014 0.054 0.022 0.117 0.022 0.181 0 0.27-0.144 0.507-0.359 0.637l-0.003 0.002-7.705 4.595c-0.040 0.025-0.086 0.047-0.135 0.064l-0.005 0.002c-0.074 0.029-0.16 0.045-0.25 0.045-0 0-0 0-0 0h0zM20.79 14.19l-3.5 11.67 5.53-3.32zM9.19 22.54l5.53 3.32-3.5-11.67zM12 11.66l4 13.24 4-13.24-4-5.83z"
    fill="#231f20"
    style="fill: #231f20"
  />
</svg>
