<svg xmlns="http://www.w3.org/2000/svg" viewBox="0 0 32 32">
  <path
    d="M0 1.827v3.507h3.613v24.8h3.053c0.355-1.591 1.754-2.762 3.427-2.762s3.072 1.171 3.422 2.739l0.004 0.023h4.987c0.355-1.591 1.754-2.762 3.427-2.762s3.072 1.171 3.422 2.739l0.004 0.023h3.080v-24.8h3.56v-3.507zM21.507 24.627l-5.213-5.213c-0.769 0.362-1.671 0.573-2.621 0.573-3.468 0-6.28-2.812-6.28-6.28 0-1.084 0.274-2.103 0.758-2.993l-0.016 0.033 3.44 3.44c0.341 0.341 0.813 0.552 1.333 0.552 1.041 0 1.886-0.844 1.886-1.886 0-0.521-0.211-0.992-0.552-1.333v0l-3.493-3.387c0.865-0.478 1.896-0.759 2.993-0.759 3.468 0 6.28 2.812 6.28 6.28 0 0.978-0.224 1.905-0.623 2.73l0.016-0.037 5.213 5.213z"
  />
</svg>
