<svg xmlns="http://www.w3.org/2000/svg" viewBox="0 0 32 32">
  <path
    d="M20.521 7.802c0.457 0.269 1.008 0.428 1.595 0.428 1.76 0 3.187-1.427 3.187-3.187s-1.427-3.187-3.187-3.187c-1.17 0-2.193 0.631-2.747 1.571l-0.008 0.015c-0.268 0.458-0.427 1.009-0.427 1.596 0 1.173 0.631 2.198 1.572 2.755l0.015 0.008z"
  />
  <path
    d="M25.961 16.842l0.6-1.8-2.173-0.72c-2.187-0.849-3.858-2.608-4.571-4.799l-0.015-0.054c-0.042-1.009-0.555-1.89-1.324-2.433l-0.010-0.007-0.28-0.187c-0.497-0.353-1.116-0.564-1.785-0.564-1.042 0-1.965 0.513-2.529 1.301l-0.006 0.009-4.973 7.093 1.333 0.92 4 3.827v7.907h3.333v-9.333l-1.8-1.72 2.2-3.12c1.157 1.843 2.828 3.269 4.812 4.095l0.068 0.025c-2.483 1.007-4.202 3.4-4.202 6.194 0 3.682 2.985 6.667 6.667 6.667s6.667-2.985 6.667-6.667c0-3.451-2.622-6.29-5.983-6.632l-0.028-0.002zM25.361 27.442c-2.209 0-4-1.791-4-4s1.791-4 4-4c2.209 0 4 1.791 4 4v0c0 2.209-1.791 4-4 4v0z"
  />
  <path
    d="M6.694 16.776c-3.682 0-6.667 2.985-6.667 6.667s2.985 6.667 6.667 6.667c3.682 0 6.667-2.985 6.667-6.667v0c0-3.682-2.985-6.667-6.667-6.667v0zM6.694 27.442c-2.209 0-4-1.791-4-4s1.791-4 4-4c2.209 0 4 1.791 4 4v0c0 2.209-1.791 4-4 4v0z"
  />
</svg>
