<svg xmlns="http://www.w3.org/2000/svg" viewBox="0 0 32 32">
  <path
    d="M23.58 19.227l-7.4-9.173c-0.799-0.117-1.722-0.184-2.66-0.184-0.608 0-1.209 0.028-1.803 0.083l0.076-0.006-1.773-1.773 1.333-3.093-4.253-5.080-1.24 4.76-1.013 1.093-4.8 1.2 5.080 4.227 2.92-1.253 1.88 1.867c-0.042 0.473-0.065 1.024-0.065 1.581 0 0.938 0.067 1.86 0.197 2.762l-0.012-0.103 9.173 7.4z"
  />
  <path
    d="M27.073 25.213v0c0.627-0.613 0.787-1.44 0.36-1.813l-1.893-1.667-0.267-0.4-3.893 3.893 0.373 0.307 1.667 1.893c0.36 0.427 1.16 0.267 1.773-0.32l4.88 4.893 1.88-1.893z"
  />
</svg>
