<svg xmlns="http://www.w3.org/2000/svg" viewBox="0 0 40 40">
  <path
    d="M28.000,26.250 L28.000,25.012 C26.741,24.725 25.587,23.875 25.000,22.406 C24.648,21.527 24.994,19.398 25.000,19.406 L28.000,19.406 C28.000,19.406 27.748,21.067 28.000,21.406 C29.749,23.765 31.522,20.061 28.000,18.406 C24.655,16.835 24.208,12.329 26.000,10.406 C26.561,9.805 27.261,9.414 28.000,9.221 L28.000,8.406 L30.000,8.406 L30.000,9.182 C31.449,9.502 32.708,10.588 33.000,12.406 C33.253,13.978 33.004,14.407 33.000,14.406 L30.000,14.406 C30.000,14.406 30.215,13.173 30.000,12.406 C29.662,11.202 27.476,11.890 28.000,13.406 C29.154,16.748 32.518,17.235 33.000,19.406 C33.706,22.588 32.033,24.510 30.000,24.993 L30.000,26.250 L28.000,26.250 ZM39.992,23.406 C39.992,26.261 39.994,28.693 40.000,29.406 C40.047,34.823 35.297,34.406 35.297,34.406 L34.297,34.406 L19.219,34.406 L15.945,34.406 L13.000,34.406 L12.000,34.406 C12.000,34.406 6.953,34.719 7.000,29.303 C7.018,27.271 7.000,25.406 7.000,25.406 L9.000,25.406 C9.000,25.406 8.990,27.310 9.000,29.366 C9.015,32.507 12.000,32.406 12.000,32.406 L13.000,32.406 L15.945,32.406 L19.219,32.406 L34.297,32.406 L35.297,32.406 C35.297,32.406 37.985,32.548 38.000,29.406 C38.004,28.685 38.005,26.256 38.004,23.406 L38.000,23.406 C38.000,23.406 38.002,20.717 38.003,17.406 C38.002,14.095 38.000,11.406 38.000,11.406 L38.004,11.406 C38.005,8.557 38.004,6.127 38.000,5.406 C37.985,2.264 35.297,2.406 35.297,2.406 L34.297,2.406 L19.219,2.406 L15.945,2.406 L13.000,2.406 L12.000,2.406 C12.000,2.406 9.015,2.305 9.000,5.447 C8.990,7.503 9.000,9.406 9.000,9.406 L7.000,9.406 C7.000,9.406 7.018,7.541 7.000,5.509 C6.953,0.093 12.000,0.406 12.000,0.406 L13.000,0.406 L15.945,0.406 L19.219,0.406 L34.297,0.406 L35.297,0.406 C35.297,0.406 40.047,-0.010 40.000,5.406 C39.994,6.120 39.992,8.552 39.992,11.406 L40.000,11.406 C40.000,11.406 39.997,14.096 39.995,17.406 C39.997,20.717 40.000,23.406 40.000,23.406 L39.992,23.406 ZM11.469,10.719 C11.469,9.890 12.140,9.219 12.969,9.219 L18.250,9.219 C19.078,9.219 19.750,9.890 19.750,10.719 L19.750,16.000 C19.750,16.169 19.715,16.328 19.662,16.478 C19.803,16.707 19.906,16.961 19.906,17.250 L19.906,22.906 C19.906,23.735 19.235,24.406 18.406,24.406 L12.750,24.406 C11.922,24.406 11.250,23.735 11.250,22.906 L11.250,18.625 L2.215,18.625 C1.423,18.625 0.781,17.983 0.781,17.191 L0.781,17.184 C0.781,16.392 1.423,15.750 2.215,15.750 L11.469,15.750 L11.469,10.719 Z"
  />
</svg>
