<svg xmlns="http://www.w3.org/2000/svg" viewBox="0 0 32 32">
  <path
    d="M2.5 23h27c1.381 0 2.5 1.119 2.5 2.5s-1.119 2.5-2.5 2.5h-27c-1.381 0-2.5-1.119-2.5-2.5s1.119-2.5 2.5-2.5z"
  />
  <path
    d="M2.5 13.5h27c1.381 0 2.5 1.119 2.5 2.5s-1.119 2.5-2.5 2.5h-27c-1.381 0-2.5-1.119-2.5-2.5s1.119-2.5 2.5-2.5z"
  />
  <path
    d="M14 4h15.5c1.381 0 2.5 1.119 2.5 2.5s-1.119 2.5-2.5 2.5h-15.5c-1.381 0-2.5-1.119-2.5-2.5s1.119-2.5 2.5-2.5z"
  />
  <path
    d="M2.5 4h3.5c1.381 0 2.5 1.119 2.5 2.5s-1.119 2.5-2.5 2.5h-3.5c-1.381 0-2.5-1.119-2.5-2.5s1.119-2.5 2.5-2.5z"
  />
</svg>
