<svg xmlns="http://www.w3.org/2000/svg" viewBox="0 0 32 32">
  <path
    d="M26.632 1.071h-21.263c-2.373 0-4.297 1.924-4.297 4.297v0 21.263c0 2.373 1.924 4.297 4.297 4.297v0h21.263c2.373 0 4.297-1.924 4.297-4.297v0-21.263c0-2.373-1.924-4.297-4.297-4.297v0zM7.705 27.612c-1.832 0-3.317-1.485-3.317-3.317s1.485-3.317 3.317-3.317c1.832 0 3.317 1.485 3.317 3.317v0c0 1.832-1.485 3.317-3.317 3.317v0zM7.705 11.022c-1.832 0-3.317-1.485-3.317-3.317s1.485-3.317 3.317-3.317c1.832 0 3.317 1.485 3.317 3.317v0c0 1.832-1.485 3.317-3.317 3.317v0zM16 19.317c-1.832 0-3.317-1.485-3.317-3.317s1.485-3.317 3.317-3.317c1.832 0 3.317 1.485 3.317 3.317v0c0 1.832-1.485 3.317-3.317 3.317v0zM24.295 27.612c-1.832 0-3.317-1.485-3.317-3.317s1.485-3.317 3.317-3.317c1.832 0 3.317 1.485 3.317 3.317v0c0 1.832-1.485 3.317-3.317 3.317v0zM24.295 11.022c-1.832 0-3.317-1.485-3.317-3.317s1.485-3.317 3.317-3.317c1.832 0 3.317 1.485 3.317 3.317v0c0 1.832-1.485 3.317-3.317 3.317v0z"
  />
</svg>
