<svg xmlns="http://www.w3.org/2000/svg" viewBox="0 0 32 32">
  <path
    d="M4.427 8.306l4.453 2.987c-0.051 0.211-0.081 0.453-0.081 0.702 0 1.137 0.616 2.13 1.533 2.664l0.015 0.008 7.6 4.293c0.3 0.171 0.65 0.297 1.022 0.358l0.018 0.002c0.138 0.019 0.298 0.030 0.46 0.030s0.322-0.011 0.478-0.032l-0.018 0.002 0.373 1.493c0.093 0.356 0.291 0.657 0.557 0.878l0.003 0.002 5.333 4.573 2.12-2.573-4.907-4.227-0.933-3.76c-0.182-0.892-0.725-1.631-1.466-2.072l-0.014-0.008-7.64-4.293c-0.434-0.251-0.955-0.4-1.51-0.4-0.173 0-0.343 0.014-0.508 0.042l0.018-0.002-4.667-3.147-2.373-5.827h-3.613l3.133 7.56c0.127 0.311 0.339 0.566 0.607 0.743l0.006 0.004z"
  />
  <path
    d="M26.893 26.999c-0.759 0.623-1.739 1.001-2.808 1.001-0.030 0-0.060-0-0.090-0.001l0.004 0c-0.031 0.001-0.067 0.001-0.104 0.001-1.063 0-2.038-0.378-2.797-1.007l0.007 0.006c-1.366-1.041-3.097-1.668-4.975-1.668-0.046 0-0.093 0-0.139 0.001l0.007-0c-0.041-0.001-0.088-0.001-0.136-0.001-1.876 0-3.605 0.627-4.99 1.683l0.020-0.015c-0.752 0.623-1.727 1.001-2.79 1.001-0.037 0-0.073-0-0.109-0.001l0.005 0c-0.028 0.001-0.062 0.001-0.095 0.001-1.061 0-2.034-0.378-2.792-1.007l0.007 0.006c-1.365-1.041-3.095-1.668-4.971-1.668-0.053 0-0.105 0-0.157 0.001l0.008-0v4c0.041-0.001 0.088-0.001 0.136-0.001 1.876 0 3.605 0.627 4.99 1.683l-0.020-0.015c0.75 0.623 1.723 1.001 2.785 1.001 0.038 0 0.076-0.001 0.114-0.001l-0.006 0c0.031 0.001 0.067 0.001 0.104 0.001 1.063 0 2.038-0.378 2.797-1.007l-0.007 0.006c1.365-1.041 3.094-1.668 4.97-1.668 0.048 0 0.096 0 0.144 0.001l-0.007-0c0.043-0.001 0.094-0.001 0.145-0.001 1.877 0 3.608 0.627 4.995 1.683l-0.020-0.015c0.752 0.623 1.726 1.001 2.789 1.001 0.032 0 0.064-0 0.096-0.001l-0.005 0c0.025 0.001 0.055 0.001 0.085 0.001 1.069 0 2.050-0.378 2.816-1.007l-0.008 0.006c1.36-1.041 3.086-1.668 4.957-1.668 0.053 0 0.105 0 0.157 0.001l-0.008-0v-4c-0.044-0.001-0.097-0.001-0.149-0.001-1.872 0-3.597 0.627-4.977 1.683l0.020-0.015z"
  />
  <path
    d="M30.187 15.239c-0.538-0.919-1.52-1.526-2.644-1.526-1.686 0-3.053 1.367-3.053 3.053s1.367 3.053 3.053 3.053c0.561 0 1.087-0.151 1.538-0.415l-0.014 0.008c0.918-0.541 1.525-1.525 1.525-2.651 0-0.56-0.15-1.085-0.413-1.537l0.008 0.015z"
  />
</svg>
