<svg xmlns="http://www.w3.org/2000/svg" viewBox="0 0 32 32">
  <path
    d="M32 3.050v-1.5c0 0 0 0 0 0 0-0.421-0.34-0.762-0.76-0.765h-3.050c-0.026-0.001-0.056-0.001-0.086-0.001-0.239 0-0.472 0.030-0.694 0.085l0.020-0.004v-0.105c0 0 0 0 0 0 0-0.42-0.34-0.76-0.76-0.76-0.002 0-0.003 0-0.005 0h-4.57c-0.045-0.004-0.098-0.006-0.151-0.006-0.938 0-1.725 0.646-1.941 1.517l-0.003 0.014h-0.605c-0.176-0.21-0.298-0.47-0.344-0.756l-0.001-0.009c-0.003-0.42-0.344-0.76-0.765-0.76 0 0 0 0 0 0h-5.335c-0.392 0.003-0.713 0.3-0.755 0.682v0.003c0 0.16-0.34 0.84-0.845 0.84h-2.090c-0.070-0.089-0.131-0.192-0.177-0.301l-0.003-0.009c-0.123-0.27-0.39-0.454-0.7-0.455h-7.62c-0.42 0.003-0.76 0.344-0.76 0.765 0 0 0 0 0 0v0 6.095c0.077 1.961 0.35 3.819 0.8 5.607l-0.040-0.187v1.155l-0.5 0.5c-0.154 0.134-0.252 0.327-0.26 0.544v3.046c0 0.001 0 0.002 0 0.002 0 0.21 0.086 0.401 0.225 0.538v0l0.535 0.54v3.37l-0.72 2.165c-0.019 0.064-0.030 0.138-0.030 0.215s0.011 0.151 0.031 0.221l-0.001-0.006 0.705 2.83-0.705 2.075c-0.025 0.072-0.039 0.154-0.039 0.24 0 0.419 0.34 0.759 0.759 0.76h10.67c0.211-0.002 0.401-0.092 0.535-0.235v0l0.070-0.070c0.353 0.592 0.963 0.999 1.671 1.069l0.009 0.001h2.285c0.558-0.036 1.070-0.202 1.515-0.468l-0.015 0.009c0.23-0.143 0.499-0.248 0.786-0.298l0.014-0.002h3.81c0.208-0.008 0.393-0.098 0.525-0.24v0l0.185-0.185 0.14 0.18c0.37 0.5 0.76 1 1.42 1h3.81c0.42 0 0.76-0.34 0.76-0.76v-0.55l2.105 0.5c0.056 0.015 0.12 0.023 0.186 0.023 0.178 0 0.341-0.062 0.47-0.164l-0.002 0.001c0.171-0.137 0.281-0.342 0.29-0.574v-0.001c0-0.075-0.050-7.55 0-11.415 0-0.003 0-0.007 0-0.011 0-0.212-0.086-0.405-0.225-0.544v0l-0.535-0.54v-3.46c0-0.004 0-0.008 0-0.012 0-0.216-0.092-0.411-0.24-0.547v0l-0.375-0.375 0.46-0.925 0.675-0.67c0.144-0.136 0.235-0.327 0.24-0.539v-3.821c0.003-0.027 0.005-0.058 0.005-0.090s-0.002-0.063-0.006-0.094v0.004l-0.715-2.77 0.635-1.27c0.050-0.097 0.080-0.213 0.080-0.335 0-0.002 0-0.004 0-0.006v0zM22.925 6.095l2.32 1.525-0.775 4.57-6.185-4.57zM8.38 25.905l-3.045-2.285 1.5-5.335 6.115 6.095zM24.535 25.145h-3.535l-15.665-18.345 2.845-0.705 18.5 14.11z"
  />
</svg>
