<svg xmlns="http://www.w3.org/2000/svg" viewBox="0 0 32 32">
  <path
    d="M27.2 6.533h-0.133c-1.2 0-2.133 0.933-2.133 2.133v0 2.4h-1.333v-4.4c-0.133-1.2-1.067-2-2.267-1.867-1.067 0.133-1.867 0.933-1.867 1.867v4.4h-1.333v-6.133c0-1.2-0.933-2.133-2.133-2.133s-2.133 0.933-2.133 2.133v6.133h-1.333v-4.8c0-1.2-0.933-2.133-2.133-2.133s-2 0.933-2 2.133v11.733h-1.467v-4.667c0-0.267-0.133-0.4-0.4-0.4-0.133 0-0.267 0.133-0.4 0.267l-2 1.867c-0.8 0.8-1.333 1.867-1.333 2.933v2.4c0 1.067 0.4 2 1.2 2.667l4.667 4.4c1.067 1.067 2.667 1.6 4.133 1.6h11.067c3.067 0 5.6-2.533 5.6-5.6v-14.8c-0.133-1.2-1.067-2.133-2.267-2.133z"
  />
</svg>
