<svg xmlns="http://www.w3.org/2000/svg" viewBox="0 0 142 32">
  <path
    d="M3.216 10.987c0-3.155 2.039-4.904 5.81-4.915 2.713 0 3.2 1.737 3.2 2.363 0 1.217-1.75 2.505-1.75 2.505s0.102 0.75 1.6 0.744c1.498-0.006 2.965-0.975 2.953-3.409 0-2.795-3.007-4.077-5.943-4.065-2.466 0-8.986 0.349-8.986 6.729 0 5.678 10.905 6.174 10.917 9.813 0 3.941-4.487 5.004-6.015 5.010s-2.147-1.064-2.147-1.654c0-3.19 3.224-4.082 3.224-4.082-0.007-0.179-0.050-0.354-0.126-0.516s-0.185-0.307-0.32-0.428c-0.134-0.12-0.292-0.213-0.463-0.273s-0.353-0.086-0.535-0.077c-3.212 0-4.499 2.73-4.487 5.388 0 2.263 1.636 3.675 4.096 3.669 4.697 0 9.997-2.275 9.979-7.279-0.018-4.679-10.995-5.902-11.007-9.524z"
  />
  <path
    d="M48.026 23.53c-0.036-0.089-0.138-0.065-0.283 0.047-0.615 0.567-1.34 1.006-2.132 1.292s-1.633 0.413-2.476 0.374c-5.203 0-6.105-8.407-6.105-8.407s3.97-2.913 4.571-4.082c0.602-1.17-1.335-1.453-1.335-1.453s-2.773 3.32-4.74 4.295c0.21-1.442 1.66-4.726 1.75-6.623s-2.292-1.412-2.701-1.217c0 0.827-2.117 8.319-2.893 12.436-0.451 0.715-1.101 1.536-1.684 1.536-0.337 0-0.463-0.591-0.463-1.495 0-1.217 0.68-3.173 0.68-4.36 0-0.821-0.385-0.874-0.716-0.868h-0.529c-0.848 0-0.571-0.709-1.335-0.703-2.334 0-5.311 2.511-5.413 6.298-0.788 0.514-1.889 1.182-2.454 1.182s-0.782-0.561-0.782-1.028c0-0.815 1.341-5.66 1.341-5.66s1.708-0.431 2.46-0.591c0.565-0.112 0.722-0.154 0.944-0.419s0.65-0.821 0.992-1.318c0.343-0.496 0-0.886-0.602-0.88-1.042 0.101-2.075 0.275-3.092 0.52 0 0 1.053-4.561 1.047-4.65s-0.126-0.142-0.301-0.142c-0.552 0.056-1.095 0.185-1.612 0.384-0.328 0.15-0.622 0.362-0.866 0.625s-0.432 0.57-0.553 0.905c-0.12 0.402-0.926 3.545-0.926 3.545s-4.337 1.471-4.932 1.696c-0.017 0.006-0.033 0.017-0.043 0.032s-0.017 0.033-0.017 0.051c0 0.035 0.499 1.902 1.51 1.896 0.734 0 2.869-0.857 2.869-0.857s-1.095 4.271-1.089 5.695c0 0.916 0.439 1.991 2.268 1.985 1.458-0.072 2.858-0.582 4.012-1.459 0.182 0.438 0.496 0.81 0.901 1.067s0.879 0.385 1.361 0.368c1.175-0.089 2.273-0.61 3.074-1.459 0.122 0.395 0.363 0.744 0.692 1.002s0.729 0.411 1.149 0.44c0.65 0 1.323-0.721 1.804-1.406-0.009 0.144-0.009 0.288 0 0.431 0.198 1.772 2.887 0.733 3.007 0.484 0.090-1.288 0-3.917 0.553-5.536 0.692 5.536 3.326 9.258 8.054 9.24 2.641 0 3.994-0.756 4.559-1.371 0.238-0.239 0.407-0.535 0.491-0.859s0.078-0.664-0.016-0.985zM25.363 21.704c-2.268 0 0.698-5.772 2.634-5.778-0.024 0.744-0.066 5.772-2.634 5.778z"
  />
  <path
    d="M43.774 23.477c0.743-0.015 1.476-0.18 2.152-0.484s1.28-0.743 1.776-1.288c0.373-0.561-0.439-1.412-0.698-1.394-0.342 0.417-0.774 0.754-1.265 0.987s-1.028 0.356-1.574 0.36c-1.804 0-1.383-1.926-1.383-1.926s3.441 0.437 4.812-1.991c0.378-0.708 0.483-1.526 0.295-2.304-0.186-0.467-1.203-1.318-2.773-1.182-1.955 0.165-4.421 2.168-4.962 4.573-0.439 1.926 0.385 4.661 3.621 4.65zM45.957 15.365c0.325 0 0.295 0.514 0.211 1.058-0.12 0.739-1.161 2.617-3.134 2.546 0.138-1.093 1.606-3.533 2.923-3.604z"
  />
  <path
    d="M57.364 0v32"
    stroke-linecap="butt"
    stroke-linejoin="miter"
    stroke-miterlimit="4"
    stroke-width="0.8421"
  />
  <path
    d="M66.627 24h8.288c2.887 0 4.555-0.792 5.476-2.543 0.548-1.127 0.697-2.447 0.697-6.765 0-2.783-0.398-4.15-1.593-5.325-0.946-0.936-2.389-1.367-4.679-1.367h-8.189v16zM69.813 21.361v-10.699h4.679c1.469 0 2.24 0.264 2.713 0.912 0.523 0.696 0.647 1.607 0.647 4.39 0 2.735-0.149 3.694-0.697 4.438-0.498 0.672-1.344 0.96-2.862 0.96h-4.48z"
  />
  <path
    d="M83.024 24h3.186v-5.325h4.48c1.767-0.048 2.539 0.696 2.489 2.447v2.879h3.21v-3.478c0.025-1.943-0.92-3.022-2.812-3.118v-0.12c2.414-0.456 2.986-1.319 2.986-4.51 0-3.574-1.368-4.774-5.376-4.774h-8.164v16zM86.211 16.060v-5.421h4.679c2.041 0 2.44 0.432 2.44 2.687 0 1.367-0.125 1.847-0.648 2.255-0.373 0.336-1.020 0.48-2.016 0.48h-4.455z"
  />
  <path
    d="M108.941 20.93l1.070 3.070h3.261l-5.625-16h-4.704l-5.526 16h3.336l1.021-3.070h7.168zM108.22 18.651h-5.699l2.837-8.3 2.862 8.3z"
  />
  <path
    d="M117.474 8h-3.187v16h3.187v-6.837h1.493l6.098 6.837h4.033l-7.417-8.18 6.72-7.82h-3.933l-5.501 6.525h-1.493v-6.525z"
  />
  <path
    d="M133.336 10.543h8.164v-2.543h-11.35v16h11.425v-2.543h-8.239v-4.51h7.741v-2.255h-7.741v-4.15z"
  />
</svg>
