<svg xmlns="http://www.w3.org/2000/svg" viewBox="0 0 32 32">
  <path
    d="M31.695 21.5l-4.065-13.445c-0.546-1.761-2.16-3.018-4.067-3.018-0.44 0-0.864 0.067-1.263 0.191l0.030-0.008c-0.642 0.199-1.194 0.523-1.653 0.948l0.003-0.003h-9.36c-0.456-0.422-1.008-0.746-1.62-0.937l-0.030-0.008c-0.369-0.116-0.793-0.183-1.233-0.183-1.908 0-3.522 1.257-4.059 2.988l-0.008 0.030-4.065 13.445c-0.116 0.369-0.183 0.793-0.183 1.233 0 2.347 1.903 4.25 4.25 4.25 1.908 0 3.522-1.257 4.059-2.988l0.008-0.030 1.5-4.97c0.313 0.119 0.676 0.189 1.054 0.19h0.001c1.479-0.002 2.707-1.073 2.952-2.482l0.003-0.018h4.090c0.248 1.427 1.476 2.498 2.955 2.5v0c0.002 0 0.005 0 0.008 0 0.378 0 0.739-0.068 1.074-0.192l-0.021 0.007 1.5 4.97c0.547 1.761 2.162 3.018 4.070 3.018 2.349 0 4.253-1.904 4.253-4.253 0-0.441-0.067-0.866-0.191-1.265l0.008 0.030zM6.695 11.305h-1.445v-1.255h1.44c0.318 0.029 0.564 0.295 0.564 0.617s-0.247 0.588-0.562 0.617h-0.002zM8.745 13.56h-1.245v-1.455c0-0.34 0.275-0.615 0.615-0.615s0.615 0.275 0.615 0.615v0zM8.745 9.25c0 0.34-0.275 0.615-0.615 0.615s-0.615-0.275-0.615-0.615v0-1.46h1.23zM11 11.285h-1.44c-0.318-0.029-0.564-0.295-0.564-0.617s0.247-0.588 0.562-0.617h1.442zM21.75 11.415c-0.552 0-1-0.448-1-1s0.448-1 1-1c0.552 0 1 0.448 1 1v0c0 0.552-0.448 1-1 1v0zM24 13.665c-0.552 0-1-0.448-1-1s0.448-1 1-1c0.552 0 1 0.448 1 1v0c0 0.552-0.448 1-1 1v0zM24 9.165c-0.552 0-1-0.448-1-1s0.448-1 1-1c0.552 0 1 0.448 1 1v0c0 0.552-0.448 1-1 1v0zM26.25 11.415c-0.552 0-1-0.448-1-1s0.448-1 1-1c0.552 0 1 0.448 1 1v0c0 0.552-0.448 1-1 1v0z"
  />
</svg>
