<svg xmlns="http://www.w3.org/2000/svg" viewBox="0 0 32 32">
  <path
    d="M8.405 21.155c1.394-1.516 2.248-3.547 2.248-5.778 0-0.166-0.005-0.331-0.014-0.494l0.001 0.023c1.89-2.932 3.013-6.514 3.013-10.357 0-0.245-0.005-0.49-0.014-0.733l0.001 0.035c-0.31-5.54-7.075-1.705-9.75 2.245-2.24 3.187-3.662 7.095-3.888 11.32l-0.002 0.055c1.184-5.444 4.799-9.858 9.624-12.115l0.106-0.045c0.002 0.085 0.002 0.186 0.002 0.286 0 2.931-0.755 5.685-2.081 8.079l0.044-0.086c-1.583 0.031-3.046 0.514-4.275 1.324l0.030-0.019c-0.586 0.37-0.969 1.014-0.969 1.747 0 0.3 0.064 0.584 0.179 0.841l-0.005-0.013-2.155 1.86c-0.159 0.14-0.258 0.343-0.258 0.57 0 0.419 0.339 0.758 0.758 0.758 0.192 0 0.367-0.071 0.501-0.189l-0.001 0.001 2-1.75 0.96 1.305-2.030 1.74c-0.161 0.138-0.263 0.342-0.263 0.57 0 0.414 0.336 0.75 0.75 0.75 0.004 0 0.009-0 0.013-0h-0.001c0.004 0 0.009 0 0.014 0 0.187 0 0.357-0.070 0.487-0.186l-0.001 0.001 2-1.69c0.374 0.373 0.891 0.603 1.461 0.603 0.597 0 1.135-0.253 1.513-0.657l0.001-0.001z"
  />
  <path
    d="M28.595 23.5l-2.465-0.77c0.037-0.147 0.058-0.315 0.058-0.488 0-1.023-0.735-1.874-1.705-2.055l-0.013-0.002c-0.471-0.091-1.012-0.144-1.565-0.144-1.848 0-3.56 0.584-4.961 1.577l0.027-0.018c-0.030-0-0.065-0-0.101-0-4.053 0-7.816 1.245-10.926 3.373l0.066-0.043c-4.51 3.17 2.305 6.875 7.075 7.070 0.32 0.017 0.695 0.026 1.073 0.026 3.903 0 7.568-1.020 10.742-2.808l-0.11 0.057c-1.759 0.658-3.792 1.038-5.914 1.038-3.556 0-6.862-1.069-9.614-2.903l0.064 0.040c2.294-1.511 5.067-2.479 8.053-2.663l0.047-0.002c0.828 1.259 1.966 2.254 3.306 2.889l0.049 0.021c0.264 0.131 0.574 0.208 0.903 0.208 0.706 0 1.33-0.355 1.702-0.896l0.005-0.007 2.725 0.855c0.066 0.022 0.141 0.035 0.219 0.035 0.002 0 0.004 0 0.006-0h-0c0.414-0.001 0.749-0.336 0.749-0.75 0-0.333-0.217-0.616-0.518-0.713l-0.005-0.002-2.565-0.8 0.595-1.5 2.555 0.805c0.067 0.019 0.145 0.030 0.225 0.030h0c0.405-0.012 0.729-0.343 0.729-0.75 0-0.328-0.211-0.607-0.504-0.709l-0.005-0.002z"
  />
  <path
    d="M31 10.695c-2.765-6.47-7.46-9.44-7.46-9.44 3.155 3.142 5.108 7.489 5.108 12.292 0 0.874-0.065 1.733-0.189 2.573l0.012-0.095c-2.456-1.546-4.436-3.638-5.806-6.114l-0.044-0.086c0.759-1.21 1.21-2.681 1.21-4.257 0-0.006 0-0.012-0-0.019v0.001c0-0.003 0-0.007 0-0.012 0-1.024-0.745-1.874-1.723-2.037l-0.012-0.002-0.38-2.85c-0.051-0.373-0.367-0.657-0.75-0.657-0.418 0-0.757 0.339-0.757 0.757 0 0.035 0.002 0.070 0.007 0.104l-0-0.004 0.375 2.65-1.59 0.11-0.36-2.645c-0.051-0.373-0.367-0.657-0.75-0.657-0.418 0-0.757 0.339-0.757 0.757 0 0.035 0.002 0.070 0.007 0.104l-0-0.004 0.36 2.56c-0.958 0.204-1.666 1.042-1.666 2.046 0 0.191 0.026 0.377 0.074 0.553l-0.003-0.015c0.609 2.268 2.062 4.124 3.994 5.248l0.041 0.022c1.687 3.583 4.322 6.484 7.583 8.451l0.087 0.049c4.785 2.765 5.235-4.995 3.39-9.385z"
  />
</svg>
