<svg xmlns="http://www.w3.org/2000/svg" viewBox="0 0 32 32">
  <path
    d="M11.575 17.5c-3.345-0.034-6.228-1.982-7.608-4.8l-0.022-0.050c-1.235-2.5-1.165-5.14 0.175-6.785 2.245-2.74 5.46-1.645 6.845-0.685l-1.135 1.645c-0.255-0.175-2.56-1.65-4.16 0.31-0.835 1-0.805 2.875 0.065 4.625 1.085 2.232 3.334 3.743 5.937 3.743 0.064 0 0.129-0.001 0.193-0.003l-0.009 0 0.080 2z"
    fill="#fec700"
    style="fill: #fec700"
  />
  <path
    d="M20.425 17.5c3.345-0.034 6.228-1.982 7.608-4.8l0.022-0.050c1.235-2.5 1.165-5.14-0.175-6.785-2.245-2.74-5.46-1.645-6.845-0.685l1.135 1.645c0.255-0.175 2.56-1.65 4.16 0.31 0.835 1 0.805 2.875-0.065 4.625-1.085 2.232-3.334 3.743-5.937 3.743-0.064 0-0.129-0.001-0.193-0.003l0.009 0-0.080 2z"
    fill="#fec700"
    style="fill: #fec700"
  />
  <path
    d="M26.875 30.040l-0.43-1.34c-0.235-0.745-0.675-1.2-1.15-1.2h-18.59c-0.475 0-0.915 0.455-1.15 1.2l-0.43 1.34c-0.275 0.87 0.070 1.96 0.63 1.96h20.5c0.55 0 0.895-1.090 0.62-1.96z"
    fill="#a14400"
    style="fill: #a14400"
  />
  <path d="M9 26.5h14v5h-14v-5z" fill="#a14400" style="fill: #a14400" />
  <path
    d="M13.415 27.5h5.17c0.505 0 0.915 0.41 0.915 0.915v1.17c0 0.505-0.41 0.915-0.915 0.915h-5.17c-0.505 0-0.915-0.41-0.915-0.915v-1.17c0-0.505 0.41-0.915 0.915-0.915z"
    fill="#fed43f"
    style="fill: #fed43f"
  />
  <path
    d="M23 26.5h-14l0.875-2.5h12.25l0.875 2.5z"
    fill="#b95200"
    style="fill: #b95200"
  />
  <path
    d="M19.95 24.845v0l-0.675-1.345h-6.55l-0.675 1.345c-0.029 0.044-0.047 0.097-0.050 0.154l-0 0.001c0 0.55 1.79 1 4 1s4-0.45 4-1c-0.003-0.058-0.021-0.111-0.051-0.156l0.001 0.001z"
    fill="#fed43f"
    style="fill: #fed43f"
  />
  <path
    d="M19.275 23.5c0 0.552-1.466 1-3.275 1s-3.275-0.448-3.275-1c0-0.552 1.466-1 3.275-1s3.275 0.448 3.275 1z"
    fill="#feb300"
    style="fill: #feb300"
  />
  <path
    d="M17.5 19.5h-3c0.002 0.060 0.003 0.131 0.003 0.202 0 1.397-0.372 2.706-1.022 3.835l0.020-0.037c0 0.665 5 0.665 5 0-0.631-1.092-1.003-2.401-1.003-3.798 0-0.071 0.001-0.142 0.003-0.212l-0 0.010z"
    fill="#fed43f"
    style="fill: #fed43f"
  />
  <path
    d="M17.635 21.060l-1.635 1.44-1.635-1.44 0.1-0.755h3.070l0.1 0.755z"
    fill="#feb300"
    style="fill: #feb300"
  />
  <path
    d="M16 0l-7 3.5 2.5 14.5 4.5 3.5 4.5-3.5 2.5-14.5-7-3.5z"
    fill="#fed43f"
    style="fill: #fed43f"
  />
  <path
    d="M13 12.93v-7.030h3.14c2.215 0 3.86 1.265 3.86 3.5s-1.645 3.5-3.85 3.5zM17.84 9.43c0.003-0.037 0.005-0.080 0.005-0.123 0-0.851-0.689-1.54-1.54-1.54-0.055 0-0.108 0.003-0.162 0.008l0.007-0.001h-1v3.32h1c0.020 0.001 0.043 0.001 0.066 0.001 0.897 0 1.625-0.728 1.625-1.625 0-0.022-0-0.043-0.001-0.064l0 0.003z"
    fill="#bc8727"
    style="fill: #bc8727"
  />
</svg>
