<svg xmlns="http://www.w3.org/2000/svg" viewBox="0 0 32 32">
  <path
    d="M15.95 12.785c-2.19-0.925-4.68 0.085-7.835 3.91s-2.335 6.75-2.265 7.805 1.54 7.35 9.215 7.5 10.28-12.16 10.28-12.16-7.21-6.135-9.395-7.055z"
    fill="#fed100"
    style="fill: #fed100"
  />
  <path
    d="M16.84 0.27c-0.244-0.105-0.528-0.165-0.826-0.165-0.881 0-1.639 0.532-1.969 1.292l-0.005 0.014-7.5 17.74c-0.022 0.053-0.035 0.114-0.035 0.178 0 0.19 0.114 0.354 0.277 0.426l0.003 0.001 3.095 1.305c0.051 0.021 0.111 0.034 0.174 0.034 0.189 0 0.352-0.113 0.425-0.276l0.001-0.003 7.52-17.745c0.105-0.243 0.166-0.527 0.166-0.824 0-0.887-0.541-1.648-1.311-1.97l-0.014-0.005z"
    fill="#fed100"
    style="fill: #fed100"
  />
  <path
    d="M25.025 4.765c-0.379-0.345-0.884-0.556-1.439-0.556-0.615 0-1.17 0.26-1.56 0.675l-0.001 0.001-12.84 13.92c-0.076 0.081-0.122 0.19-0.122 0.31 0 0.132 0.056 0.252 0.147 0.335l0 0 2.47 2.275c0.082 0.076 0.192 0.122 0.313 0.122 0.133 0 0.253-0.057 0.337-0.147l0-0 12.82-13.915c0.351-0.379 0.566-0.888 0.566-1.448 0-0.621-0.265-1.181-0.689-1.571l-0.002-0.001z"
    fill="#fed100"
    style="fill: #fed100"
  />
  <path
    d="M18.885 18.925l-2.28-1.595c-1.479-1.047-3.305-1.696-5.28-1.76l-0.015-0-2.31-0.070c-0.013-0.001-0.028-0.001-0.044-0.001-0.519 0-0.965 0.314-1.158 0.763l-0.003 0.008-0.295 0.68 11.3 3.735 0.265-0.295c0.149-0.174 0.24-0.401 0.24-0.65 0-0.335-0.165-0.631-0.417-0.813l-0.003-0.002z"
    fill="#ddae34"
    style="fill: #ddae34"
  />
  <path
    d="M17.193 21.074l-0.021-0.013c-0.998-0.622-1.302-1.935-0.68-2.933l0.562-0.901c0.622-0.998 1.935-1.302 2.933-0.68l0.021 0.013c0.998 0.622 1.302 1.935 0.68 2.933l-0.562 0.901c-0.622 0.998-1.935 1.302-2.933 0.68z"
    fill="#ddae34"
    style="fill: #ddae34"
  />
  <path
    d="M21.5 14.5c-0.323-0.206-0.718-0.328-1.14-0.328-0.757 0-1.423 0.392-1.804 0.985l-0.005 0.008-1.32 2.095c-0.18 0.307-0.287 0.676-0.287 1.071 0 1.182 0.958 2.14 2.14 2.14 0.728 0 1.371-0.363 1.757-0.919l0.005-0.007 1.32-2.095c0.207-0.324 0.33-0.718 0.33-1.142 0-0.757-0.393-1.422-0.987-1.803l-0.009-0.005z"
    fill="#fed100"
    style="fill: #fed100"
  />
  <path
    d="M21.137 23.27l-0.021-0.013c-0.992-0.627-1.287-1.94-0.66-2.932l0.649-1.027c0.627-0.992 1.94-1.287 2.932-0.66l0.021 0.013c0.992 0.627 1.287 1.94 0.66 2.932l-0.649 1.027c-0.627 0.992-1.94 1.287-2.932 0.66z"
    fill="#ddae34"
    style="fill: #ddae34"
  />
  <path
    d="M25.065 17.035c-0.324-0.209-0.719-0.333-1.144-0.333-0.755 0-1.418 0.393-1.796 0.985l-0.005 0.009-1.12 1.765c-0.208 0.324-0.331 0.719-0.331 1.142 0 1.18 0.956 2.136 2.136 2.136 0.756 0 1.42-0.393 1.8-0.985l0.005-0.009 1.12-1.745c0.214-0.326 0.341-0.726 0.341-1.156 0-0.76-0.398-1.427-0.997-1.804l-0.009-0.005z"
    fill="#fed100"
    style="fill: #fed100"
  />
  <path
    d="M18.79 20.5s-0.475 2.55-4.345 1.95-4.945-0.525-4.945-0.525l1.93-3.35z"
    fill="#ddae34"
    style="fill: #ddae34"
  />
  <path
    d="M18.55 18.965l-3.76-1.91c-0.848-0.444-1.841-0.738-2.894-0.818l-0.026-0.002-3.075-0.235c-0.043-0.004-0.094-0.006-0.145-0.006-0.77 0-1.423 0.503-1.647 1.199l-0.003 0.012-0.875 2.825s1.53 6.275 5.060 1.575c1.535-2.045 1.935 0.3 5.115 0.095 1.5-0.095 2.24-0.605 2.63-1.125 0.132-0.178 0.212-0.401 0.212-0.644 0-0.419-0.238-0.783-0.586-0.963l-0.006-0.003z"
    fill="#fed100"
    style="fill: #fed100"
  />
</svg>
