<svg xmlns="http://www.w3.org/2000/svg" viewBox="0 0 32 32">
  <path
    d="M29.43 25.955l-1.825-3.070c-0.053 0.030-0.099 0.063-0.141 0.101l0.001-0.001s0.8-0.775 0.8-3.565c0-4-2.91-4.5-3.5-4.585l0.335-3.555c0.070 0 6.73 0.685 6.73 8.14 0.005 4.74-1.83 6.2-2.4 6.535z"
    fill="#c7c7c7"
    style="fill: #c7c7c7"
  />
  <path
    d="M2.57 25.955c-0.57-0.335-2.405-1.795-2.405-6.535 0-7.455 6.66-8.135 6.73-8.14l0.335 3.555c-0.585 0.065-3.5 0.59-3.5 4.585 0 2.46 0.65 3.465 0.66 3.465z"
    fill="#c7c7c7"
    style="fill: #c7c7c7"
  />
  <path
    d="M19.060 23.185v-3.62h-7.14v3.62c-0.294 0.111-0.499 0.389-0.5 0.715v4.1c0 0.001 0 0.002 0 0.002 0 0.327 0.206 0.607 0.495 0.716l0.005 0.002v0.645c0 0.795 0.645 1.44 1.44 1.44v0h4.26c0.795 0 1.44-0.645 1.44-1.44v-0.665c0.294-0.111 0.5-0.39 0.5-0.718 0-0.001 0-0.002 0-0.003v0-4.080c-0.001-0.326-0.206-0.604-0.495-0.713l-0.005-0.002z"
    fill="#969696"
    style="fill: #969696"
  />
  <path
    d="M6.235 0.13h19.525c1.243 0 2.25 1.007 2.25 2.25v19.525c0 1.243-1.007 2.25-2.25 2.25h-19.525c-1.243 0-2.25-1.007-2.25-2.25v-19.525c0-1.243 1.007-2.25 2.25-2.25z"
    fill="#e6e6e6"
    style="fill: #e6e6e6"
  />
  <path
    d="M14.215 10.64c0 1.831-1.484 3.315-3.315 3.315s-3.315-1.484-3.315-3.315c0-1.831 1.484-3.315 3.315-3.315s3.315 1.484 3.315 3.315z"
    fill="#969696"
    style="fill: #969696"
  />
  <path
    d="M12.43 10.64c0 0.845-0.685 1.53-1.53 1.53s-1.53-0.685-1.53-1.53c0-0.845 0.685-1.53 1.53-1.53s1.53 0.685 1.53 1.53z"
    fill="#ff3733"
    style="fill: #ff3733"
  />
  <path
    d="M22.368 7.58c1.691 0.701 2.495 2.64 1.794 4.331s-2.64 2.495-4.331 1.794c-1.691-0.701-2.495-2.64-1.794-4.331s2.64-2.495 4.331-1.794z"
    fill="#969696"
    style="fill: #969696"
  />
  <path
    d="M22.63 10.64c0 0.845-0.685 1.53-1.53 1.53s-1.53-0.685-1.53-1.53c0-0.845 0.685-1.53 1.53-1.53s1.53 0.685 1.53 1.53z"
    fill="#ff3733"
    style="fill: #ff3733"
  />
  <path
    d="M5.29 31.87c-2.853 0-5.165-2.312-5.165-5.165s2.312-5.165 5.165-5.165c2.853 0 5.165 2.312 5.165 5.165v0h-3.060c0-1.163-0.942-2.105-2.105-2.105s-2.105 0.942-2.105 2.105c0 1.163 0.942 2.105 2.105 2.105v0z"
    fill="#fff"
    style="fill: #fff"
  />
  <path
    d="M26.71 31.87v-3.060c1.163 0 2.105-0.942 2.105-2.105s-0.942-2.105-2.105-2.105c-1.163 0-2.105 0.942-2.105 2.105v0h-3.060c0-2.853 2.312-5.165 5.165-5.165s5.165 2.312 5.165 5.165c0 2.853-2.312 5.165-5.165 5.165v0z"
    fill="#fff"
    style="fill: #fff"
  />
</svg>
