<svg xmlns="http://www.w3.org/2000/svg" viewBox="0 0 32 32">
  <path
    d="M29.5 24.42c0 6.175-26.95 6.175-26.95 0l1.24-8.42h24.42z"
    fill="#acb6c9"
    style="fill: #acb6c9"
  />
  <path
    d="M28.605 24.72c0 5.78-25.21 5.78-25.21 0l1.235-7.88h22.74z"
    fill="#62b9f9"
    style="fill: #62b9f9"
  />
  <path
    d="M27.37 16.84l1.26 8v4.635l-1.26-8v-4.635z"
    fill="#3d749c"
    style="fill: #3d749c"
  />
  <path
    d="M4.63 16.84l-1.26 8v4.635l1.26-8v-4.635z"
    fill="#3d749c"
    style="fill: #3d749c"
  />
  <path
    d="M4.63 16.84h22.735v4.63h-22.735v-4.63z"
    fill="#4e94c7"
    style="fill: #4e94c7"
  />
  <path
    d="M21 24.42c-1.062 0.023-1.98 0.617-2.462 1.485l-0.008 0.015c-0.522 0.879-1.466 1.458-2.545 1.458s-2.023-0.58-2.538-1.445l-0.007-0.014c-0.49-0.883-1.408-1.477-2.467-1.5l-0.003-0h-8.445v6.74h26.975v-6.74z"
    fill="#acb6c9"
    style="fill: #acb6c9"
  />
  <path
    d="M21 25.265c-1.062 0.022-1.981 0.616-2.462 1.485l-0.008 0.015c-0.522 0.879-1.466 1.458-2.545 1.458s-2.023-0.58-2.538-1.445l-0.007-0.014c-0.489-0.884-1.408-1.478-2.467-1.5l-0.003-0h-8.445v6.735h26.975v-6.735z"
    fill="#848c9b"
    style="fill: #848c9b"
  />
  <path
    d="M1.454 10.311l23.492-10.122 5.934 13.771-23.492 10.122-5.934-13.771z"
    fill="#fff"
    style="fill: #fff"
  />
  <path
    d="M19.63 12.275l11.25 1.685-0.285-0.66-10.78-1.44-0.185 0.415z"
    fill="#c8d8e3"
    style="fill: #c8d8e3"
  />
  <path
    d="M13.46 14.595l-6.355 8.825 0.285 0.66 6.5-9.33-0.43-0.155z"
    fill="#c8d8e3"
    style="fill: #c8d8e3"
  />
  <path
    d="M1.455 10.31l14.875 3.325c0.050 0.012 0.107 0.019 0.166 0.019 0.274 0 0.514-0.146 0.647-0.365l0.002-0.003 7.8-13.095-6.75 15.35c-0.121 0.269-0.387 0.452-0.695 0.452-0.090 0-0.176-0.015-0.255-0.044l0.005 0.002z"
    fill="#8a98a1"
    style="fill: #8a98a1"
  />
</svg>
