<svg xmlns="http://www.w3.org/2000/svg" viewBox="0 0 32 32">
  <path
    d="M29.87 4.87h-0.005c1.179 0 2.135 0.956 2.135 2.135v1.065c0 1.179-0.956 2.135-2.135 2.135h0.005c-1.179 0-2.135-0.956-2.135-2.135v-1.065c0-1.179 0.956-2.135 2.135-2.135z"
    fill="#c7c7c7"
    style="fill: #c7c7c7"
  />
  <path
    d="M2.135 4.87h-0.005c1.179 0 2.135 0.956 2.135 2.135v1.065c0 1.179-0.956 2.135-2.135 2.135h0.005c-1.179 0-2.135-0.956-2.135-2.135v-1.065c0-1.179 0.956-2.135 2.135-2.135z"
    fill="#c7c7c7"
    style="fill: #c7c7c7"
  />
  <path
    d="M8.8 0.070h14.4c3.976 0 7.2 3.224 7.2 7.2v1.065c0 3.976-3.224 7.2-7.2 7.2h-14.4c-3.976 0-7.2-3.224-7.2-7.2v-1.065c0-3.976 3.224-7.2 7.2-7.2z"
    fill="#e6e6e6"
    style="fill: #e6e6e6"
  />
  <path
    d="M22.135 3.27h-12.27c-2.439 0.084-4.384 2.081-4.384 4.533s1.945 4.449 4.377 4.532l0.008 0h12.27c2.439-0.084 4.384-2.081 4.384-4.532s-1.945-4.449-4.377-4.532l-0.008-0z"
    fill="#2e2e2e"
    style="fill: #2e2e2e"
  />
  <path
    d="M10.665 11.8v2.135l2.135-2.135h-2.135z"
    fill="#2e2e2e"
    style="fill: #2e2e2e"
  />
  <path
    d="M12.435 7.7c0 1.27-1.030 2.3-2.3 2.3s-2.3-1.030-2.3-2.3c0-1.27 1.030-2.3 2.3-2.3s2.3 1.030 2.3 2.3z"
    fill="#2c71a6"
    style="fill: #2c71a6"
  />
  <path
    d="M11.745 7.7c0 0.889-0.721 1.61-1.61 1.61s-1.61-0.721-1.61-1.61c0-0.889 0.721-1.61 1.61-1.61s1.61 0.721 1.61 1.61z"
    fill="#3a96dd"
    style="fill: #3a96dd"
  />
  <path
    d="M24.165 7.7c0 1.27-1.030 2.3-2.3 2.3s-2.3-1.030-2.3-2.3c0-1.27 1.030-2.3 2.3-2.3s2.3 1.030 2.3 2.3z"
    fill="#2c71a6"
    style="fill: #2c71a6"
  />
  <path
    d="M23.475 7.7c0 0.889-0.721 1.61-1.61 1.61s-1.61-0.721-1.61-1.61c0-0.889 0.721-1.61 1.61-1.61s1.61 0.721 1.61 1.61z"
    fill="#3a96dd"
    style="fill: #3a96dd"
  />
  <path
    d="M7.87 19.28h16.26c3.463 0 6.27 2.807 6.27 6.27v0.115c0 3.463-2.807 6.27-6.27 6.27h-16.26c-3.463 0-6.27-2.807-6.27-6.27v-0.115c0-3.463 2.807-6.27 6.27-6.27z"
    fill="#e6e6e6"
    style="fill: #e6e6e6"
  />
  <path
    d="M9.535 22.47h12.93c1.731 0 3.135 1.404 3.135 3.135s-1.404 3.135-3.135 3.135h-12.93c-1.731 0-3.135-1.404-3.135-3.135s1.404-3.135 3.135-3.135z"
    fill="#c7c7c7"
    style="fill: #c7c7c7"
  />
</svg>
