<svg xmlns="http://www.w3.org/2000/svg" viewBox="0 0 32 32">
  <path
    d="M28.74 4.73c-3.31-2.66-8.155-2.23-11.165 0.77l-0.975 1c-0.153 0.156-0.365 0.252-0.6 0.252s-0.447-0.096-0.6-0.252l-0-0-0.975-1c-3-3-7.855-3.445-11.165-0.785-1.906 1.528-3.116 3.857-3.116 6.468 0 2.286 0.927 4.355 2.426 5.852l0 0 12.555 12.465c0.225 0.222 0.534 0.359 0.875 0.359s0.65-0.137 0.875-0.359l-0 0 12.555-12.465c1.494-1.496 2.418-3.562 2.418-5.844 0-2.607-1.207-4.933-3.092-6.449l-0.016-0.013z"
    fill="#de2a42"
    style="fill: #de2a42"
  />
  <path
    d="M26.5 6.5c0 0.828-1.119 1.5-2.5 1.5s-2.5-0.672-2.5-1.5c0-0.828 1.119-1.5 2.5-1.5s2.5 0.672 2.5 1.5z"
    fill="#de5265"
    style="fill: #de5265"
  />
</svg>
