<svg xmlns="http://www.w3.org/2000/svg" viewBox="0 0 32 32">
  <path
    d="M15 0s1.625 7.92-2.64 6.905c0 0-2.54 4.365-2.54 8.63s-4.465 1.22-3.25-2.235c0 0-7.31 6.090 0.41 13.605 0 0 0.2 1.22-2.035 0 0 0 2.44 5.075 10.765 5.075s10.34-4.26 10.34-4.26h-1.42s7.31-4.67 2.030-14.625c0 0-0.405 2.845-2.030 2.44s0.2-5.075-1-7.715-5.7-6.705-8.63-7.82z"
    fill="#de2a42"
    style="fill: #de2a42"
  />
  <path
    d="M7.165 6.805c-0.422 1.18-1.043 2.193-1.831 3.052l0.006-0.007c-0.78 0.89-0.205 3.045-0.205 3.045s3.25-3.045 2.030-6.090z"
    fill="#de2a42"
    style="fill: #de2a42"
  />
  <path
    d="M16.71 5.38s0.405 2.845-1.625 4.47-3.045 4.87-3.45 8.325-3.455 4.265-5.080 1.42c0 0-1.625 9.745 9.14 12.385 0 0 7.105-0.405 9.745-8.12 0 0-1.825 0.61-1.825-0.81s1.215-1.83 0.405-4.47c0 0-2.435 2.030-3.45-0.81s2.84-6.5-3.86-12.39z"
    fill="#fed43f"
    style="fill: #fed43f"
  />
  <path
    d="M17.5 15.33s-3 2.44-4.040 6.095-2.84 3.655-2.84 3.655 0.81 6.5 5.075 6.9 5.89-6.295 5.89-6.295-1.425-0.605-1.22-2.84c0 0-4.465 0.61-2.865-7.515z"
    fill="#fff"
    style="fill: #fff"
  />
</svg>
