<svg xmlns="http://www.w3.org/2000/svg" viewBox="0 0 32 32">
  <path
    d="M32 16c0 8.837-7.163 16-16 16s-16-7.163-16-16c0-8.837 7.163-16 16-16s16 7.163 16 16z"
    fill="#fff"
    style="fill: #fff"
  />
  <path
    d="M27.2 16c0 6.186-5.014 11.2-11.2 11.2s-11.2-5.014-11.2-11.2c0-6.186 5.014-11.2 11.2-11.2s11.2 5.014 11.2 11.2z"
    fill="#557086"
    style="fill: #557086"
  />
  <path
    d="M20.8 16c0 2.651-2.149 4.8-4.8 4.8s-4.8-2.149-4.8-4.8c0-2.651 2.149-4.8 4.8-4.8s4.8 2.149 4.8 4.8z"
    fill="#071d2a"
    style="fill: #071d2a"
  />
  <path
    d="M22.4 12.8c0 1.767-1.433 3.2-3.2 3.2s-3.2-1.433-3.2-3.2c0-1.767 1.433-3.2 3.2-3.2s3.2 1.433 3.2 3.2z"
    fill="#fff"
    style="fill: #fff"
  />
</svg>
