<svg xmlns="http://www.w3.org/2000/svg" viewBox="0 0 32 32">
  <path
    d="M7.85 16.38c-0.356-0.003-0.691-0.090-0.988-0.241l0.013 0.006c-0.331-0.168-0.553-0.505-0.553-0.895 0-0.553 0.448-1.001 1.001-1.001 0.163 0 0.317 0.039 0.453 0.108l-0.006-0.003c0.023 0.016 0.052 0.025 0.083 0.025 0.001 0 0.001 0 0.002 0h-0c-0.032-0.138-0.080-0.26-0.144-0.372l0.004 0.007c-0.24-0.4-1.305-0.97-2.24-1.47-2.425-1.3-6.090-3.26-5.39-7.22 0.53-3 3.135-4.135 5.33-3.905 1.75 0.18 2.945 1.155 2.905 2.365-0.025 0.775 0 1.42 0 1.425 0.001 0.012 0.001 0.026 0.001 0.040 0 0.553-0.448 1.001-1.001 1.001-0.539 0-0.978-0.426-1-0.959l-0-0.002c0-0.030-0.025-0.675 0-1.5-0.418-0.265-0.927-0.423-1.472-0.423-0.239 0-0.471 0.030-0.692 0.087l0.019-0.004c-1.122 0.186-1.987 1.085-2.119 2.208l-0.001 0.012c-0.415 2.35 1.55 3.6 4.365 5.11 1.335 0.71 2.5 1.33 3 2.2 0.255 0.362 0.407 0.812 0.407 1.297 0 0.563-0.205 1.079-0.545 1.476l0.003-0.003c-0.358 0.387-0.868 0.629-1.435 0.63h-0z"
    fill="#fec700"
    style="fill: #fec700"
  />
  <path
    d="M24.15 16.38c-0.004 0-0.008 0-0.012 0-0.565 0-1.075-0.24-1.432-0.624l-0.001-0.001c-0.334-0.393-0.537-0.905-0.537-1.466 0-0.482 0.15-0.929 0.407-1.297l-0.005 0.007c0.5-0.87 1.675-1.5 3-2.2 2.815-1.5 4.78-2.76 4.365-5.11-0.133-1.135-0.998-2.034-2.105-2.218l-0.015-0.002c-0.202-0.053-0.434-0.083-0.673-0.083-0.546 0-1.055 0.158-1.484 0.429l0.011-0.007c0 0.82 0 1.465 0 1.5-0.022 0.535-0.461 0.961-1 0.961-0.553 0-1.001-0.448-1.001-1.001 0-0.014 0-0.028 0.001-0.042l-0 0.002s0-0.65 0-1.43c-0.040-1.205 1.155-2.18 2.905-2.36 2.195-0.23 4.8 0.895 5.33 3.905 0.7 3.96-2.965 5.92-5.39 7.22-0.935 0.5-2 1.070-2.24 1.47-0.072 0.098-0.115 0.221-0.115 0.354 0 0.006 0 0.012 0 0.017l-0-0.001c0.017-0.011 0.037-0.021 0.058-0.029l0.002-0.001c0.13-0.067 0.284-0.106 0.448-0.106 0.553 0 1.001 0.448 1.001 1.001 0 0.39-0.223 0.727-0.547 0.892l-0.006 0.003c-0.279 0.136-0.607 0.215-0.953 0.215-0.004 0-0.008 0-0.012-0h0.001z"
    fill="#fec700"
    style="fill: #fec700"
  />
  <path
    d="M26.875 30.040l-0.43-1.34c-0.235-0.745-0.675-1.2-1.15-1.2h-18.59c-0.475 0-0.915 0.455-1.15 1.2l-0.43 1.34c-0.275 0.87 0.070 1.96 0.63 1.96h20.5c0.55 0 0.895-1.090 0.62-1.96z"
    fill="#a14400"
    style="fill: #a14400"
  />
  <path d="M8 26.5h16v5h-16v-5z" fill="#a14400" style="fill: #a14400" />
  <path d="M10 27.5h12v3h-12v-3z" fill="#fed43f" style="fill: #fed43f" />
  <path d="M24 26.5h-16l1-2.5h14l1 2.5z" fill="#b95200" style="fill: #b95200" />
  <path
    d="M21.5 25c0 0.552-2.462 1-5.5 1s-5.5-0.448-5.5-1c0-0.552 2.462-1 5.5-1s5.5 0.448 5.5 1z"
    fill="#fed43f"
    style="fill: #fed43f"
  />
  <path
    d="M21.435 24.85l-0.935-1.35h-9l-0.93 1.35h10.865z"
    fill="#fed43f"
    style="fill: #fed43f"
  />
  <path
    d="M20.5 23.5c0 0.552-2.015 1-4.5 1s-4.5-0.448-4.5-1c0-0.552 2.015-1 4.5-1s4.5 0.448 4.5 1z"
    fill="#feb300"
    style="fill: #feb300"
  />
  <path
    d="M17.5 19.5h-3c0.002 0.060 0.003 0.131 0.003 0.202 0 1.397-0.372 2.706-1.022 3.835l0.020-0.037c0 0.665 5 0.665 5 0-0.631-1.092-1.003-2.401-1.003-3.798 0-0.071 0.001-0.142 0.003-0.212l-0 0.010z"
    fill="#fed43f"
    style="fill: #fed43f"
  />
  <path
    d="M14 18.5h4c0.552 0 1 0.448 1 1s-0.448 1-1 1h-4c-0.552 0-1-0.448-1-1s0.448-1 1-1z"
    fill="#feb300"
    style="fill: #feb300"
  />
  <path
    d="M16 19v0c-0 0-0 0-0.001 0-4.019 0-7.332-3.022-7.791-6.918l-0.004-0.037-1.205-10.545c0-2 18-2 18 0l-1.205 10.545c-0.462 3.933-3.775 6.955-7.794 6.955-0 0-0 0-0.001 0h0z"
    fill="#fed43f"
    style="fill: #fed43f"
  />
  <path
    d="M16.79 12.5l-0.79-3.5-0.79 3.5h-1.955l-1.755-6.155h2.080l0.79 3.755 0.93-3.755h1.4l0.93 3.755 0.78-3.755h2.090l-1.76 6.155z"
    fill="#bc8727"
    style="fill: #bc8727"
  />
  <path
    d="M25 1.5c0-2-18-2-18 0l0.18 1.565c2.651-0.572 5.697-0.9 8.82-0.9s6.169 0.328 9.106 0.951l-0.286-0.051z"
    fill="#fec700"
    style="fill: #fec700"
  />
</svg>
