<svg xmlns="http://www.w3.org/2000/svg" viewBox="0 0 32 32">
  <path
    d="M5.075 16.699c0.406 0.428 0.698 0.527 0.772 0 0-0.424 0.343-0.767 0.767-0.767s0.767 0.343 0.767 0.767c0.49 0.461 0.764 0.497 0.772 0 0-0.424 0.343-0.767 0.767-0.767s0.767 0.343 0.767 0.767c0.448 0.338 0.756 0.431 0.772 0 0-0.424 0.343-0.767 0.767-0.767s0.767 0.343 0.767 0.767c0.44 0.352 0.731 0.416 0.772 0 0-0.424 0.343-0.767 0.767-0.767v-12.769c-0.424 0-0.767-0.343-0.767-0.767h-0.772c0 0.424-0.343 0.767-0.767 0.767s-0.767-0.343-0.767-0.767h-0.772c0 0.424-0.343 0.767-0.767 0.767s-0.767-0.343-0.767-0.767h-0.772c0 0.424-0.343 0.767-0.767 0.767s-0.767-0.343-0.767-0.767h-0.772c0 0.424-0.343 0.767-0.767 0.767v12.769c0.424 0 0.767 0.343 0.767 0.767z"
    fill="#263742"
    style="fill: #263742"
  />
  <path
    d="M20.424 28.968c-0.069 0-0.131 0.009-0.186 0.024-0.283 0.078-0.371 0.349-0.191 0.671h-0.772c-0.216-0.384-0.735-0.695-1.158-0.695s-0.593 0.311-0.376 0.695h-0.772c-0.216-0.384-0.735-0.695-1.158-0.695s-0.593 0.311-0.376 0.695h-0.772c-0.215-0.384-0.735-0.695-1.158-0.695-0.012 0-0.022 0-0.032 0-0.399 0.015-0.556 0.32-0.344 0.694h-0.772c-0.215-0.384-0.735-0.695-1.157-0.695l-6.506-11.574c0.422 0 0.591-0.311 0.376-0.695h0.772c0.215 0.384 0.735 0.695 1.157 0.695s0.593-0.311 0.378-0.695h0.772c0.215 0.384 0.735 0.695 1.157 0.695s0.593-0.311 0.376-0.695h0.771c0.216 0.384 0.735 0.695 1.158 0.695s0.593-0.311 0.376-0.695h0.771c0.216 0.384 0.735 0.695 1.158 0.695l6.506 11.574z"
    fill="#263742"
    style="fill: #263742"
  />
  <path
    d="M20.264 28.684c-0.006 0.105-0.014 0.207-0.026 0.308-0.283 0.078-0.371 0.349-0.191 0.671h-0.772c-0.216-0.384-0.735-0.695-1.158-0.695s-0.593 0.311-0.376 0.695h-0.772c-0.216-0.384-0.735-0.695-1.158-0.695s-0.593 0.311-0.376 0.695h-0.772c-0.215-0.384-0.735-0.695-1.158-0.695-0.012 0-0.022 0-0.032 0-0.42-0.53-0.812-1.126-1.161-1.778-1.78-3.327-1.734-6.821 0.104-7.804 0.769-0.412 1.729-0.317 2.717 0.174l5.128 9.123z"
    fill="#3c8725"
    style="fill: #3c8725"
  />
  <path
    d="M16.632 22.647c0 0.52-0.212 0.988-0.556 1.324-0.082 0.082-0.173 0.155-0.269 0.219-0.296 0.197-0.649 0.312-1.030 0.312-0.608 0-1.149-0.292-1.486-0.744-0.055-0.072-0.104-0.146-0.145-0.224-0.145-0.264-0.225-0.566-0.225-0.886s0.081-0.622 0.225-0.886c0.042-0.078 0.090-0.152 0.145-0.224 0.337-0.452 0.877-0.744 1.486-0.744 0.381 0 0.735 0.115 1.030 0.312 0.096 0.064 0.187 0.137 0.269 0.219 0.343 0.335 0.556 0.804 0.556 1.324z"
    fill="#69e244"
    style="fill: #69e244"
  />
  <path
    d="M15.021 23.267h0.050v-0.261h-0.152c-0.020-0.074-0.037-0.15-0.045-0.228h0.143v-0.261h-0.143c0.008-0.078 0.023-0.154 0.045-0.228h0.152v-0.261h-0.050c0.205-0.388 0.598-0.663 1.056-0.704-0.082-0.082-0.173-0.155-0.269-0.219-0.485 0.123-0.884 0.468-1.076 0.923h-0.22v0.261h0.137c-0.017 0.074-0.028 0.15-0.036 0.228h-0.156v0.261h0.156c0.006 0.078 0.018 0.154 0.036 0.228h-0.137v0.261h0.22c0.193 0.454 0.591 0.8 1.076 0.923 0.096-0.064 0.187-0.137 0.269-0.219-0.458-0.041-0.851-0.316-1.056-0.704z"
    fill="#3c8725"
    style="fill: #3c8725"
  />
  <path
    d="M13.873 22.778v-0.261h-0.132c-0.006-0.078-0.019-0.154-0.037-0.228h0.114v-0.261h-0.197c-0.078-0.184-0.191-0.351-0.329-0.49-0.055 0.072-0.104 0.146-0.145 0.224 0.072 0.079 0.134 0.17 0.186 0.266h-0.074v0.261h0.178c0.020 0.074 0.037 0.15 0.045 0.228h-0.168v0.261h0.168c-0.008 0.078-0.023 0.154-0.045 0.228h-0.178v0.261h0.074c-0.051 0.096-0.114 0.187-0.186 0.266 0.042 0.078 0.090 0.152 0.145 0.224 0.138-0.14 0.251-0.307 0.329-0.49h0.197v-0.261h-0.114c0.017-0.074 0.029-0.15 0.037-0.228h0.132z"
    fill="#3c8725"
    style="fill: #3c8725"
  />
  <path
    d="M20.028 29.663h-0.772c0.216-0.384 0.047-0.695-0.376-0.695s-0.942 0.311-1.158 0.695h-0.772c0.216-0.384 0.047-0.695-0.376-0.695s-0.942 0.311-1.158 0.695h-0.772c0.216-0.384 0.047-0.695-0.376-0.695s-0.942 0.311-1.158 0.695h-0.772c0.216-0.384 0.047-0.695-0.376-0.695l6.506-11.574c0.424 0 0.942-0.311 1.158-0.695h0.772c-0.216 0.384-0.047 0.695 0.376 0.695s0.942-0.311 1.158-0.695h0.772c-0.216 0.384-0.047 0.695 0.376 0.695s0.942-0.311 1.158-0.695h0.772c-0.216 0.384-0.047 0.695 0.376 0.695s0.942-0.311 1.158-0.695h0.772c-0.216 0.384-0.047 0.695 0.376 0.695l-6.506 11.574c-0.424 0-0.942 0.311-1.158 0.695z"
    fill="#334552"
    style="fill: #334552"
  />
  <path
    d="M20.119 14.308c-1.093-1.213-1.376-2.875-0.882-4.317 0.044-0.128 0.092-0.255 0.148-0.379 0.241-0.534 0.593-1.025 1.053-1.44 0-0.001 0.004-0.003 0.005-0.004 0.063-0.058 0.129-0.111 0.195-0.164 0.548-0.439 1.171-0.722 1.819-0.858h0.004c0.134-0.028 0.268-0.049 0.403-0.063v0c1.344-0.151 2.737 0.326 3.709 1.408 1.096 1.215 1.377 2.877 0.881 4.321v0c-0.044 0.129-0.092 0.256-0.148 0.38-0.242 0.531-0.591 1.021-1.052 1.435 0 0.001-0.004 0.003-0.005 0.004-0.064 0.058-0.129 0.111-0.195 0.164-0.535 0.429-1.144 0.709-1.775 0.847-0.132 0.028-0.265 0.052-0.399 0.067-1.359 0.169-2.776-0.307-3.762-1.403z"
    fill="#263742"
    style="fill: #263742"
  />
  <path
    d="M23.881 15.711c-2.28-1.335-3.835-3.25-4.644-5.719 0.044-0.128 0.092-0.255 0.148-0.379 0.792 2.648 2.432 4.668 4.895 6.031-0.132 0.028-0.265 0.052-0.399 0.067z"
    fill="#0b1823"
    style="fill: #0b1823"
  />
  <path
    d="M27.306 13.193c-0.827-2.706-2.451-4.731-4.849-6.047h0.003l0.403-0.063c2.216 1.297 3.752 3.215 4.59 5.729v0c-0.044 0.129-0.092 0.256-0.148 0.38z"
    fill="#0b1823"
    style="fill: #0b1823"
  />
  <path
    d="M26.249 14.632l-5.612-6.629c-0.067 0.052-0.132 0.108-0.195 0.164l5.612 6.629c0.067-0.052 0.132-0.108 0.195-0.164z"
    fill="#0b1823"
    style="fill: #0b1823"
  />
  <path
    d="M24.892 15.048c-0.159 0.035-0.319 0.063-0.48 0.081-1.636 0.204-3.34-0.37-4.525-1.687-0.325-0.361-0.591-0.755-0.797-1.171 0.15 0.735 0.49 1.44 1.028 2.038 0.986 1.094 2.403 1.572 3.762 1.403 0.133-0.014 0.266-0.038 0.399-0.067 0.631-0.138 1.242-0.419 1.775-0.847 0.067-0.052 0.131-0.108 0.195-0.164 0-0.001 0.004-0.003 0.005-0.004 0.077-0.069 0.148-0.141 0.22-0.214-0.498 0.302-1.033 0.513-1.582 0.634z"
    fill="#3c8725"
    style="fill: #3c8725"
  />
</svg>
