<svg xmlns="http://www.w3.org/2000/svg" viewBox="0 0 32 32">
  <path
    d="M12.088 20.686v7.442c0 2.161 1.751 3.912 3.912 3.912v0c2.161 0 3.912-1.751 3.912-3.912v-7.442h-7.825z"
    fill="#0b1823"
    style="fill: #0b1823"
  />
  <path
    d="M16.991 22.528h-2.191c-2.294 0-4.223-1.723-4.481-4.001v0c-0.303-2.675 1.789-5.018 4.481-5.018h2.191c2.692 0 4.785 2.342 4.481 5.018v0c-0.259 2.28-2.188 4.001-4.481 4.001z"
    fill="#0b1823"
    style="fill: #0b1823"
  />
  <path
    d="M8.269 17.705c-0.195-0.801-0.305-1.627-0.329-2.455-0.047-1.59 0.214-3.144 0.776-4.618v0c0.959 0.654 1.475 1.786 1.345 2.939-0.055 0.49-0.056 0.998-0.037 1.618 0.001 0.058 0.004 0.114 0.006 0.172 0.051 1.102-0.689 2.085-1.76 2.345v0z"
    fill="#3c8725"
    style="fill: #3c8725"
  />
  <path
    d="M23.731 17.705c0.195-0.801 0.305-1.627 0.329-2.455 0.047-1.59-0.214-3.144-0.776-4.618v0c-0.959 0.654-1.475 1.786-1.345 2.939 0.055 0.49 0.056 0.998 0.037 1.618-0.001 0.058-0.004 0.114-0.006 0.172-0.051 1.102 0.689 2.085 1.76 2.345v0z"
    fill="#3c8725"
    style="fill: #3c8725"
  />
  <path
    d="M17.061 10.444c0 0.586-0.475 1.061-1.061 1.061s-1.061-0.475-1.061-1.061c0-0.586 0.475-1.061 1.061-1.061s1.061 0.475 1.061 1.061z"
    fill="#69e244"
    style="fill: #69e244"
  />
  <path
    d="M13.344 17.772l0.481 7.741h4.14l0.481-7.741h-5.102zM16.878 21.554c-0.020 0.324-0.289 0.576-0.613 0.576h-0.741c-0.325 0-0.593-0.252-0.613-0.576l-0.184-2.968h2.336l-0.184 2.968z"
    fill="#263742"
    style="fill: #263742"
  />
  <path
    d="M24.865 5.693c-2.058-0.75-3.306-0.796-3.583 0-0.191 0-0.262 0.252-0.099 0.352 1.796 1.092 3.229 2.723 4.076 4.664 0.239 0.552-0.157 1.169-0.758 1.169h-17.212c-0.6 0-0.997-0.617-0.758-1.169 0.846-1.942 2.28-3.572 4.074-4.664 0.164-0.1 0.093-0.352-0.099-0.352-0.675-0.764-1.751-0.937-3.583 0-2.428 2.401-3.903 5.765-3.793 9.466 0.119 4.031 2.129 7.601 5.162 9.86 2.080 1.549 4.641 2.481 7.405 2.523 2.921 0.044 5.626-0.899 7.799-2.515 3.133-2.328 5.167-6.057 5.167-10.253 0-3.549-1.455-6.764-3.8-9.080zM23.031 22.066c-1.841 1.804-4.361 2.917-7.136 2.917s-5.294-1.114-7.135-2.917c-1.416-1.386-2.431-3.18-2.853-5.189-0.128-0.609 0.445-1.135 1.044-0.961l3.255 0.943h11.378l3.255-0.943c0.599-0.174 1.172 0.352 1.044 0.961-0.422 2.010-1.437 3.803-2.853 5.189z"
    fill="#334552"
    style="fill: #334552"
  />
  <path
    d="M23.498 25.027c-2.173 1.617-4.878 2.559-7.799 2.515-2.764-0.042-5.325-0.974-7.405-2.523l0.466-2.953c1.841 1.804 4.36 2.917 7.135 2.917s5.295-1.114 7.136-2.917l0.467 2.961z"
    fill="#263742"
    style="fill: #263742"
  />
  <path
    d="M15.895 4.563c1.364 0 2.668 0.27 3.858 0.758 0.579 0.237 1.194 0.372 1.819 0.372h3.293c-2.308-2.28-5.477-3.69-8.97-3.69s-6.662 1.411-8.97 3.69h3.293c0.626 0 1.24-0.136 1.819-0.372 1.19-0.489 2.493-0.758 3.858-0.758z"
    fill="#263742"
    style="fill: #263742"
  />
  <path
    d="M16.997 19.306h-2.203c-2.307 0-4.244-1.732-4.504-4.023v0c-0.305-2.689 1.798-5.044 4.504-5.044h2.203c2.706 0 4.809 2.355 4.504 5.044v0c-0.26 2.291-2.198 4.023-4.504 4.023z"
    fill="#263742"
    style="fill: #263742"
  />
  <path
    d="M16.681 16.703h-1.569c-1.644 0-3.026-1.234-3.212-2.867v0c-0.218-1.916 1.283-3.596 3.212-3.596h1.569c1.929 0 3.428 1.679 3.212 3.596v0c-0.186 1.633-1.567 2.867-3.212 2.867z"
    fill="#334552"
    style="fill: #334552"
  />
</svg>
