<svg xmlns="http://www.w3.org/2000/svg" viewBox="0 0 32 32">
  <path
    d="M6.712 26.665v-7.666h-4.105v7.666c0 0.728 0.59 1.317 1.317 1.317h4.106c-0.728 0-1.317-0.59-1.317-1.317z"
    fill="#0b1823"
    style="fill: #0b1823"
  />
  <path
    d="M27.835 4.835v20.536c0 1.443-1.17 2.611-2.612 2.611h-21.181c0.75-0.032 1.317-0.59 1.317-1.317v-20.454c0-0.76 0.616-1.376 1.376-1.376h21.101z"
    fill="#263742"
    style="fill: #263742"
  />
  <path
    d="M8.038 22.618v4.207c-0.077 0.648-0.612 1.128-1.307 1.158h16.723c1.443 0 2.612-1.17 2.612-2.612v-2.753h-18.029z"
    fill="#334552"
    style="fill: #334552"
  />
  <path
    d="M8.488 16.221h17.129c0.248 0 0.449 0.201 0.449 0.449v0.064c0 0.248-0.201 0.449-0.449 0.449h-17.129c-0.248 0-0.449-0.201-0.449-0.449v-0.064c0-0.248 0.201-0.449 0.449-0.449z"
    fill="#334552"
    style="fill: #334552"
  />
  <path
    d="M8.488 13.443h17.129c0.248 0 0.449 0.201 0.449 0.449v0.064c0 0.248-0.201 0.449-0.449 0.449h-17.129c-0.248 0-0.449-0.201-0.449-0.449v-0.064c0-0.248 0.201-0.449 0.449-0.449z"
    fill="#334552"
    style="fill: #334552"
  />
  <path
    d="M10.387 10.463v0c-0.266 0-0.481 0.215-0.481 0.481s0.215 0.481 0.481 0.481v0c0.266 0 0.481-0.215 0.481-0.481s-0.215-0.481-0.481-0.481z"
    fill="#69e244"
    style="fill: #69e244"
  />
  <path
    d="M8.488 19h17.129c0.248 0 0.449 0.201 0.449 0.449v0.064c0 0.248-0.201 0.449-0.449 0.449h-17.129c-0.248 0-0.449-0.201-0.449-0.449v-0.064c0-0.248 0.201-0.449 0.449-0.449z"
    fill="#334552"
    style="fill: #334552"
  />
  <path
    d="M27.69 4.836h-20.94c0.751 0.032 1.317 0.59 1.317 1.317v2.61h20.941v-2.61c0-0.728-0.59-1.317-1.317-1.317z"
    fill="#334552"
    style="fill: #334552"
  />
  <path
    d="M8.137 10.463h0.963v0.963h-0.963v-0.963z"
    fill="#3c8725"
    style="fill: #3c8725"
  />
  <path
    d="M12.045 10.463l-0.564 0.963h1.129l-0.564-0.963z"
    fill="#3c8725"
    style="fill: #3c8725"
  />
</svg>
