<svg xmlns="http://www.w3.org/2000/svg" viewBox="0 0 32 32">
  <path
    d="M5.075 16.699c0.369 0.236 0.621 0.223 0.772 0 0-0.424 0.343-0.767 0.767-0.767s0.767 0.343 0.767 0.767c0.297 0.293 0.549 0.259 0.772 0 0-0.424 0.343-0.767 0.767-0.767s0.767 0.343 0.767 0.767c0.325 0.224 0.581 0.219 0.772 0 0-0.424 0.343-0.767 0.767-0.767s0.767 0.343 0.767 0.767c0.278 0.3 0.536 0.314 0.772 0 0-0.424 0.343-0.767 0.767-0.767v-12.769c-0.424 0-0.767-0.343-0.767-0.767h-0.772c0 0.424-0.343 0.767-0.767 0.767s-0.767-0.343-0.767-0.767h-0.772c0 0.424-0.343 0.767-0.767 0.767s-0.767-0.343-0.767-0.767h-0.772c0 0.424-0.343 0.767-0.767 0.767s-0.767-0.343-0.767-0.767h-0.772c0 0.424-0.343 0.767-0.767 0.767v12.769c0.424 0 0.767 0.343 0.767 0.767z"
    fill="#263742"
    style="fill: #263742"
  />
  <path
    d="M20.424 28.968c-0.069 0-0.131 0.009-0.186 0.024-0.283 0.078-0.371 0.349-0.191 0.671h-0.772c-0.216-0.384-0.735-0.695-1.158-0.695s-0.593 0.311-0.376 0.695h-0.772c-0.216-0.384-0.735-0.695-1.158-0.695s-0.593 0.311-0.376 0.695h-0.772c-0.215-0.384-0.735-0.695-1.158-0.695-0.012 0-0.022 0-0.032 0-0.399 0.015-0.556 0.32-0.344 0.694h-0.772c-0.215-0.384-0.735-0.695-1.157-0.695l-6.506-11.574c0.422 0 0.591-0.311 0.376-0.695h0.772c0.215 0.384 0.735 0.695 1.157 0.695s0.593-0.311 0.378-0.695h0.772c0.215 0.384 0.735 0.695 1.157 0.695s0.593-0.311 0.376-0.695h0.771c0.216 0.384 0.735 0.695 1.158 0.695s0.593-0.311 0.376-0.695h0.771c0.216 0.384 0.735 0.695 1.158 0.695l6.506 11.574z"
    fill="#263742"
    style="fill: #263742"
  />
  <path
    d="M20.264 28.684c-0.006 0.105-0.014 0.207-0.026 0.308-0.283 0.078-0.371 0.349-0.191 0.671h-0.772c-0.216-0.384-0.735-0.695-1.158-0.695s-0.593 0.311-0.376 0.695h-0.772c-0.216-0.384-0.735-0.695-1.158-0.695s-0.593 0.311-0.376 0.695h-0.772c-0.215-0.384-0.735-0.695-1.158-0.695-0.012 0-0.022 0-0.032 0-0.42-0.53-0.812-1.126-1.161-1.778-1.78-3.327-1.734-6.821 0.104-7.804 0.769-0.412 1.729-0.317 2.717 0.174l5.128 9.123z"
    fill="#3c8725"
    style="fill: #3c8725"
  />
  <path
    d="M27.692 11.4c0 2.399-1.945 4.344-4.344 4.344s-4.344-1.945-4.344-4.344c0-2.399 1.945-4.344 4.344-4.344s4.344 1.945 4.344 4.344z"
    fill="#263742"
    style="fill: #263742"
  />
  <path
    d="M26.888 13.917c0.298-0.419 0.524-0.893 0.658-1.403l-0.896 0.988 0.237 0.415z"
    fill="#0b1823"
    style="fill: #0b1823"
  />
  <path
    d="M24.641 12.6l0.223-2.056-1.885-0.847-1.389 1.532 1.028 1.795 2.024-0.424z"
    fill="#0b1823"
    style="fill: #0b1823"
  />
  <path
    d="M19.112 10.426l0.468-0.099 0.143-1.324c-0.284 0.428-0.494 0.908-0.612 1.422z"
    fill="#3c8725"
    style="fill: #3c8725"
  />
  <path
    d="M20.026 12.524l-0.826 0.173c0.26 0.835 0.764 1.559 1.427 2.092l0.426-0.471-1.028-1.795z"
    fill="#3c8725"
    style="fill: #3c8725"
  />
  <path
    d="M23.063 15.219l-0.055 0.512c0.156 0.012 0.314 0.017 0.474 0.012 0.675-0.020 1.309-0.195 1.87-0.486l-0.264-0.461-2.024 0.424z"
    fill="#3c8725"
    style="fill: #3c8725"
  />
  <path
    d="M26.911 10.237l0.586-0.123c-0.244-0.788-0.705-1.48-1.313-2.004l-0.302 0.333 1.028 1.795z"
    fill="#0b1823"
    style="fill: #0b1823"
  />
  <path
    d="M23.873 7.54l0.049-0.447c-0.232-0.031-0.467-0.044-0.708-0.036-0.593 0.018-1.155 0.155-1.663 0.385l0.298 0.521 2.024-0.424z"
    fill="#0b1823"
    style="fill: #0b1823"
  />
  <path
    d="M16.632 22.647c0 0.52-0.212 0.988-0.556 1.324-0.082 0.082-0.173 0.155-0.269 0.219-0.296 0.197-0.649 0.312-1.030 0.312-0.608 0-1.149-0.292-1.486-0.744-0.055-0.072-0.104-0.146-0.145-0.224-0.145-0.264-0.225-0.566-0.225-0.886s0.081-0.622 0.225-0.886c0.042-0.078 0.090-0.152 0.145-0.224 0.337-0.452 0.877-0.744 1.486-0.744 0.381 0 0.735 0.115 1.030 0.312 0.096 0.064 0.187 0.137 0.269 0.219 0.343 0.335 0.556 0.804 0.556 1.324z"
    fill="#69e244"
    style="fill: #69e244"
  />
  <path
    d="M15.021 23.267h0.050v-0.261h-0.152c-0.020-0.074-0.037-0.15-0.045-0.228h0.143v-0.261h-0.143c0.008-0.078 0.023-0.154 0.045-0.228h0.152v-0.261h-0.050c0.205-0.388 0.598-0.663 1.056-0.704-0.082-0.082-0.173-0.155-0.269-0.219-0.485 0.123-0.884 0.468-1.076 0.923h-0.22v0.261h0.137c-0.017 0.074-0.028 0.15-0.036 0.228h-0.156v0.261h0.156c0.006 0.078 0.018 0.154 0.036 0.228h-0.137v0.261h0.22c0.193 0.454 0.591 0.8 1.076 0.923 0.096-0.064 0.187-0.137 0.269-0.219-0.458-0.041-0.851-0.316-1.056-0.704z"
    fill="#3c8725"
    style="fill: #3c8725"
  />
  <path
    d="M13.873 22.778v-0.261h-0.132c-0.006-0.078-0.019-0.154-0.037-0.228h0.114v-0.261h-0.197c-0.078-0.184-0.191-0.351-0.329-0.49-0.055 0.072-0.104 0.146-0.145 0.224 0.072 0.079 0.134 0.17 0.186 0.266h-0.074v0.261h0.178c0.020 0.074 0.037 0.15 0.045 0.228h-0.168v0.261h0.168c-0.008 0.078-0.023 0.154-0.045 0.228h-0.178v0.261h0.074c-0.051 0.096-0.114 0.187-0.186 0.266 0.042 0.078 0.090 0.152 0.145 0.224 0.138-0.14 0.251-0.307 0.329-0.49h0.197v-0.261h-0.114c0.017-0.074 0.029-0.15 0.037-0.228h0.132z"
    fill="#3c8725"
    style="fill: #3c8725"
  />
  <path
    d="M20.028 29.663h-0.772c0.216-0.384 0.047-0.695-0.376-0.695s-0.942 0.311-1.158 0.695h-0.772c0.216-0.384 0.047-0.695-0.376-0.695s-0.942 0.311-1.158 0.695h-0.772c0.216-0.384 0.047-0.695-0.376-0.695s-0.942 0.311-1.158 0.695h-0.772c0.216-0.384 0.047-0.695-0.376-0.695l6.506-11.574c0.424 0 0.942-0.311 1.158-0.695h0.772c-0.216 0.384-0.047 0.695 0.376 0.695s0.942-0.311 1.158-0.695h0.772c-0.216 0.384-0.047 0.695 0.376 0.695s0.942-0.311 1.158-0.695h0.772c-0.216 0.384-0.047 0.695 0.376 0.695s0.942-0.311 1.158-0.695h0.772c-0.216 0.384-0.047 0.695 0.376 0.695l-6.506 11.574c-0.424 0-0.942 0.311-1.158 0.695z"
    fill="#334552"
    style="fill: #334552"
  />
</svg>
