<svg xmlns="http://www.w3.org/2000/svg" viewBox="0 0 32 32">
  <path
    d="M29.208 16.686h-2.152v-5.1h2.152c1.039 0 1.039 5.1 0 5.1z"
    fill="#0b1823"
    style="fill: #0b1823"
  />
  <path
    d="M29.922 8.181l0.933 0.254-1.482 5.451c-0.070 0.257-0.336 0.41-0.594 0.34v0c-0.257-0.070-0.41-0.336-0.34-0.594l1.482-5.451z"
    fill="#263742"
    style="fill: #263742"
  />
  <path
    d="M32 8.664c0 0.889-0.72 1.609-1.609 1.609s-1.609-0.72-1.609-1.609c0-0.889 0.72-1.609 1.609-1.609s1.609 0.72 1.609 1.609z"
    fill="#0b1823"
    style="fill: #0b1823"
  />
  <path
    d="M27.602 21.501l-11.375 0.388-11.54-0.388v-15.892h22.916v15.892z"
    fill="#263742"
    style="fill: #263742"
  />
  <path
    d="M6.035 7.054h20.216v13.001h-20.216v-13.001z"
    fill="#0f212e"
    style="fill: #0f212e"
  />
  <path
    d="M6.566 9.514h3.542v7.397h-3.542v-7.397z"
    fill="#0b1823"
    style="fill: #0b1823"
  />
  <path
    d="M10.469 9.514h3.542v7.397h-3.542v-7.397z"
    fill="#0b1823"
    style="fill: #0b1823"
  />
  <path
    d="M14.372 9.514h3.542v7.397h-3.542v-7.397z"
    fill="#0b1823"
    style="fill: #0b1823"
  />
  <path
    d="M18.275 9.514h3.542v7.397h-3.542v-7.397z"
    fill="#0b1823"
    style="fill: #0b1823"
  />
  <path
    d="M22.179 9.514h3.542v7.397h-3.542v-7.397z"
    fill="#0b1823"
    style="fill: #0b1823"
  />
  <path
    d="M29.012 26.959h-25.738v-4.129l12.726-0.576 13.012 0.576v4.129z"
    fill="#263742"
    style="fill: #263742"
  />
  <path
    d="M29.012 22.83h-25.738l1.412-1.329h22.916l1.411 1.329z"
    fill="#334552"
    style="fill: #334552"
  />
  <path
    d="M24.023 23.451h0.001c0.836 0 1.514 0.678 1.514 1.514v0.001c0 0.836-0.678 1.514-1.514 1.514h-0.001c-0.836 0-1.514-0.678-1.514-1.514v-0.001c0-0.836 0.678-1.514 1.514-1.514z"
    fill="#334552"
    style="fill: #334552"
  />
  <path
    d="M9.389 13.923h-0.21v0.21h-1.892v-0.42h1.261v-0.42h-1.051v-0.21h-0.21v-0.841h0.21v-0.21h1.892v0.42h-1.261v0.42h1.051v0.21h0.21v0.841z"
    fill="#3c8625"
    style="fill: #3c8625"
  />
  <path
    d="M13.292 12.451h-0.631v1.682h-0.841v-1.682h-0.631v-0.42h2.102v0.42z"
    fill="#3c8625"
    style="fill: #3c8625"
  />
  <path
    d="M17.194 14.132h-0.841v-0.841h-0.42v0.841h-0.841v-1.892h0.21v-0.21h1.682v0.21h0.21v1.892zM16.353 12.872v-0.42h-0.42v0.42h0.42z"
    fill="#3c8625"
    style="fill: #3c8625"
  />
  <path
    d="M21.097 14.132h-0.841v-0.841h-0.42v0.841h-0.841v-2.102h1.892v0.21h0.21v0.631h-0.21v0.42h0.21v0.841zM20.256 12.872v-0.42h-0.42v0.42h0.42z"
    fill="#3c8625"
    style="fill: #3c8625"
  />
  <path
    d="M25 12.451h-0.631v1.682h-0.841v-1.682h-0.631v-0.42h2.102v0.42z"
    fill="#3c8625"
    style="fill: #3c8625"
  />
  <path
    d="M21.778 21.335v0.782c0 0.182 1.006 0.328 2.246 0.328s2.246-0.147 2.246-0.328v-0.782h-4.492z"
    fill="#3c8625"
    style="fill: #3c8625"
  />
  <path
    d="M26.269 21.335c0 0.182-1.006 0.328-2.246 0.328s-2.246-0.147-2.246-0.328c0-1.207 4.492-1.207 4.492 0z"
    fill="#69e044"
    style="fill: #69e044"
  />
  <path
    d="M6.035 21.335h3.169v0.831h-3.169v-0.831z"
    fill="#263742"
    style="fill: #263742"
  />
  <path
    d="M10.295 21.335h3.169v0.831h-3.169v-0.831z"
    fill="#263742"
    style="fill: #263742"
  />
  <path
    d="M10.295 21.335h3.169v0.166h-3.169v-0.166z"
    fill="#334552"
    style="fill: #334552"
  />
  <path
    d="M6.035 21.335h3.169v0.166h-3.169v-0.166z"
    fill="#334552"
    style="fill: #334552"
  />
  <path
    d="M15.183 9.514s0.078 0.988 1.261 1.174c0 0 0.163 0.155 0.317 0.109s0.092-0.232 0.092-0.232c0 0 0.262-0.291 0.247-1.050h-1.919z"
    fill="#0f212e"
    style="fill: #0f212e"
  />
  <path
    d="M22.99 9.514s0.078 0.988 1.261 1.174c0 0 0.163 0.155 0.317 0.109s0.092-0.232 0.092-0.232c0 0 0.262-0.291 0.247-1.050h-1.919z"
    fill="#0f212e"
    style="fill: #0f212e"
  />
  <path
    d="M9.359 16.020v-0.32h-2.043v0.605h1.162c-0.165 0.193-0.305 0.396-0.422 0.605h0.703c0.151-0.285 0.349-0.581 0.599-0.891z"
    fill="#0f212e"
    style="fill: #0f212e"
  />
  <path
    d="M21.038 16.020v-0.32h-2.043v0.605h1.162c-0.165 0.193-0.305 0.396-0.422 0.605h0.703c0.151-0.285 0.349-0.581 0.599-0.891z"
    fill="#0f212e"
    style="fill: #0f212e"
  />
  <path
    d="M12.041 9.514c-0.049 0.088-0.096 0.178-0.136 0.27-0.137 0.308-0.206 0.623-0.206 0.942h0.782v-0.207c0-0.326 0.077-0.641 0.23-0.943 0.010-0.019 0.022-0.040 0.033-0.060h-0.703z"
    fill="#0f212e"
    style="fill: #0f212e"
  />
  <path
    d="M21.155 10.253c0 0.262-0.212 0.474-0.474 0.474s-0.474-0.212-0.474-0.474c0-0.262 0.212-0.474 0.474-0.474s0.474 0.212 0.474 0.474z"
    fill="#0f212e"
    style="fill: #0f212e"
  />
  <path
    d="M20.869 9.819s0.070-0.129 0.036-0.303h-0.223s0.054 0.116 0 0.265 0.188 0.038 0.188 0.038z"
    fill="#0f212e"
    style="fill: #0f212e"
  />
  <path
    d="M19.834 9.514h-0.741c-0.096 0.095-0.155 0.227-0.155 0.372 0 0.291 0.236 0.526 0.526 0.526s0.526-0.236 0.526-0.526c0-0.146-0.059-0.278-0.155-0.372z"
    fill="#0f212e"
    style="fill: #0f212e"
  />
  <path
    d="M9.446 10.253c0 0.262-0.212 0.474-0.474 0.474s-0.474-0.212-0.474-0.474c0-0.262 0.212-0.474 0.474-0.474s0.474 0.212 0.474 0.474z"
    fill="#0f212e"
    style="fill: #0f212e"
  />
  <path
    d="M9.161 9.819s0.070-0.129 0.036-0.303h-0.223s0.054 0.116 0 0.265 0.188 0.038 0.188 0.038z"
    fill="#0f212e"
    style="fill: #0f212e"
  />
  <path
    d="M8.125 9.514h-0.741c-0.096 0.095-0.155 0.227-0.155 0.372 0 0.291 0.236 0.526 0.526 0.526s0.526-0.236 0.526-0.526c0-0.146-0.059-0.278-0.155-0.372z"
    fill="#0f212e"
    style="fill: #0f212e"
  />
  <path
    d="M11.771 15.736s1.055 0.049 1.345 0l-0.017 0.273s-1.135 0.061-1.402-0.020l0.073-0.253z"
    fill="#0f212e"
    style="fill: #0f212e"
  />
  <path
    d="M12.040 15.932s-0.233 0.535-0.529 0.916l0.143 0.044s0.223-0.16 0.541-0.899l-0.156-0.061z"
    fill="#0f212e"
    style="fill: #0f212e"
  />
  <path
    d="M12.655 15.932h0.2s0.261 0.374 0.196 0.979h-0.211s0.109-0.532-0.184-0.979z"
    fill="#0f212e"
    style="fill: #0f212e"
  />
  <path
    d="M11.698 16.488c-0.257 0-0.471 0.182-0.522 0.422h1.043c-0.051-0.242-0.265-0.422-0.522-0.422z"
    fill="#0f212e"
    style="fill: #0f212e"
  />
  <path
    d="M23.493 15.736s1.055 0.049 1.345 0l-0.017 0.273s-1.135 0.061-1.402-0.020l0.073-0.253z"
    fill="#0f212e"
    style="fill: #0f212e"
  />
  <path
    d="M23.762 15.932s-0.233 0.535-0.529 0.916l0.143 0.044s0.223-0.16 0.541-0.899l-0.156-0.061z"
    fill="#0f212e"
    style="fill: #0f212e"
  />
  <path
    d="M24.378 15.932h0.2s0.261 0.374 0.196 0.979h-0.211s0.109-0.532-0.184-0.979z"
    fill="#0f212e"
    style="fill: #0f212e"
  />
  <path
    d="M23.42 16.488c-0.257 0-0.471 0.182-0.522 0.422h1.043c-0.051-0.242-0.265-0.422-0.522-0.422z"
    fill="#0f212e"
    style="fill: #0f212e"
  />
  <path
    d="M16.347 16.648s-0.172-0.795-1.197-0.763c0 0-0.006 0.634 0.529 1.027h1.284s0.251-0.207 0.34-0.662c0 0-0.631-0.17-0.956 0.398z"
    fill="#0f212e"
    style="fill: #0f212e"
  />
  <path
    d="M23.832 24.046h0.381v1.958h-0.381v-1.958z"
    fill="#0f212e"
    style="fill: #0f212e"
  />
</svg>
