<svg xmlns="http://www.w3.org/2000/svg" viewBox="0 0 32 32">
  <path
    d="M16 6.54c-1.384 0-2.509-1.125-2.509-2.509s1.125-2.509 2.509-2.509 2.509 1.125 2.509 2.509-1.125 2.509-2.509 2.509zM16 2.627c-0.774 0-1.404 0.63-1.404 1.404s0.63 1.404 1.404 1.404 1.404-0.63 1.404-1.404-0.63-1.404-1.404-1.404z"
    fill="#263742"
    style="fill: #263742"
  />
  <path
    d="M26.87 17.471c0 6.003-4.867 10.87-10.87 10.87s-10.87-4.867-10.87-10.87c0-6.003 4.867-10.87 10.87-10.87s10.87 4.867 10.87 10.87z"
    fill="#263742"
    style="fill: #263742"
  />
  <path
    d="M27.011 16.044c0 6.081-4.93 11.011-11.011 11.011s-11.011-4.93-11.011-11.011c0-6.081 4.93-11.011 11.011-11.011s11.011 4.93 11.011 11.011z"
    fill="#334552"
    style="fill: #334552"
  />
  <path
    d="M22.633 9.946l-3.476-2.382 1.628-2.376c0.554-0.809 4.029 1.574 3.476 2.382l-1.628 2.376z"
    fill="#0c1d29"
    style="fill: #0c1d29"
  />
  <path
    d="M25.441 16.044c0 5.214-4.227 9.441-9.441 9.441s-9.441-4.227-9.441-9.441c0-5.214 4.227-9.441 9.441-9.441s9.441 4.227 9.441 9.441z"
    fill="#263742"
    style="fill: #263742"
  />
  <path
    d="M24.029 16.044c0 4.435-3.595 8.029-8.029 8.029s-8.029-3.595-8.029-8.029c0-4.435 3.595-8.029 8.029-8.029s8.029 3.595 8.029 8.029z"
    fill="#0c1d29"
    style="fill: #0c1d29"
  />
  <path
    d="M16.673 16.044c0 0.372-0.301 0.673-0.673 0.673s-0.673-0.301-0.673-0.673c0-0.372 0.301-0.673 0.673-0.673s0.673 0.301 0.673 0.673z"
    fill="#69e244"
    style="fill: #69e244"
  />
  <path
    d="M14.401 19.446c-1.876-0.882-2.685-3.126-1.804-5.001 0.882-1.876 3.126-2.685 5.001-1.804 0.498 0.234 0.712 0.827 0.477 1.325s-0.827 0.712-1.325 0.477c-0.882-0.415-1.937-0.035-2.35 0.847-0.415 0.882-0.035 1.937 0.847 2.35 0.374 0.175 0.783 0.215 1.183 0.115 0.534-0.134 1.075 0.188 1.21 0.722s-0.188 1.075-0.722 1.21c-0.84 0.212-1.733 0.125-2.518-0.243z"
    fill="#3c8725"
    style="fill: #3c8725"
  />
  <path
    d="M10.237 13.335c1.494-3.177 5.293-4.548 8.471-3.054 3.177 1.494 4.548 5.293 3.054 8.471-1.037 2.207-3.196 3.608-5.635 3.66-0.481 0.010-0.879-0.372-0.89-0.854-0.010-0.483 0.372-0.879 0.854-0.89 1.772-0.037 3.34-1.055 4.093-2.657 1.084-2.308 0.090-5.068-2.218-6.152s-5.068-0.090-6.152 2.218c-0.205 0.435-0.724 0.623-1.16 0.419s-0.623-0.724-0.419-1.16z"
    fill="#263742"
    style="fill: #263742"
  />
  <path
    d="M10.82 18.461v1.609h1.609l-1.609-1.609z"
    fill="#69e244"
    style="fill: #69e244"
  />
</svg>
