<svg xmlns="http://www.w3.org/2000/svg" viewBox="0 0 32 32">
  <path
    d="M28.703 16c0 7.016-5.687 12.703-12.703 12.703s-12.703-5.687-12.703-12.703c0-7.016 5.687-12.703 12.703-12.703s12.703 5.687 12.703 12.703z"
    fill="#263742"
    style="fill: #263742"
  />
  <path
    d="M27.297 14.9c0 6.239-5.058 11.297-11.297 11.297s-11.297-5.058-11.297-11.297c0-6.239 5.058-11.297 11.297-11.297s11.297 5.058 11.297 11.297z"
    fill="#0c1d29"
    style="fill: #0c1d29"
  />
  <path
    d="M23.602 14.408c0 4.198-3.404 7.602-7.602 7.602s-7.602-3.404-7.602-7.602c0-4.198 3.404-7.602 7.602-7.602s7.602 3.404 7.602 7.602z"
    fill="#0c1d29"
    style="fill: #0c1d29"
  />
  <path
    d="M23.108 14.9c0 3.926-3.182 7.108-7.108 7.108s-7.108-3.182-7.108-7.108c0-3.926 3.182-7.108 7.108-7.108s7.108 3.182 7.108 7.108z"
    fill="#263742"
    style="fill: #263742"
  />
  <path
    d="M19.647 14.451c0 2.014-1.633 3.647-3.647 3.647s-3.647-1.633-3.647-3.647c0-2.014 1.633-3.647 3.647-3.647s3.647 1.633 3.647 3.647z"
    fill="#0c1d29"
    style="fill: #0c1d29"
  />
  <path
    d="M16 11.254c1.939 0 3.524 1.513 3.639 3.423 0.005-0.074 0.008-0.148 0.008-0.224 0-2.015-1.633-3.647-3.647-3.647s-3.647 1.633-3.647 3.647c0 0.076 0.003 0.15 0.008 0.224 0.116-1.91 1.701-3.423 3.639-3.423z"
    fill="#3c8725"
    style="fill: #3c8725"
  />
  <path
    d="M18.377 14.794c0 1.313-1.064 2.377-2.377 2.377s-2.377-1.064-2.377-2.377c0-1.313 1.064-2.377 2.377-2.377s2.377 1.064 2.377 2.377z"
    fill="#69e244"
    style="fill: #69e244"
  />
  <path
    d="M17.388 14.464c0 0.766-0.621 1.388-1.388 1.388s-1.388-0.621-1.388-1.388c0-0.766 0.621-1.388 1.388-1.388s1.388 0.621 1.388 1.388z"
    fill="#3c8725"
    style="fill: #3c8725"
  />
  <path
    d="M16.413 14.464c0 0.228-0.185 0.413-0.413 0.413s-0.413-0.185-0.413-0.413c0-0.228 0.185-0.413 0.413-0.413s0.413 0.185 0.413 0.413z"
    fill="#0c1d29"
    style="fill: #0c1d29"
  />
  <path
    d="M15.931 13.919c0 0.228-0.185 0.413-0.413 0.413s-0.413-0.185-0.413-0.413c0-0.228 0.185-0.413 0.413-0.413s0.413 0.185 0.413 0.413z"
    fill="#69e244"
    style="fill: #69e244"
  />
  <path
    d="M16.799 14.89c0 0.114-0.092 0.206-0.206 0.206s-0.206-0.092-0.206-0.206c0-0.114 0.092-0.206 0.206-0.206s0.206 0.092 0.206 0.206z"
    fill="#69e244"
    style="fill: #69e244"
  />
</svg>
