<svg xmlns="http://www.w3.org/2000/svg" viewBox="0 0 32 32">
  <path
    d="M22.47 25.59c0 3.574-2.897 6.47-6.47 6.47s-6.47-2.897-6.47-6.47c0-2.239 1.137-4.211 2.863-5.372 0.105-0.070 0.211-0.138 0.319-0.201 0.964-0.571 2.088-0.897 3.288-0.897 3.574 0 6.47 2.897 6.47 6.47z"
    fill="#263742"
    style="fill: #263742"
  />
  <path
    d="M16.836 31.017l-1.537-1.495 1.664-1.853-2.696 0.316-1.094-2.442-0.421 2.591-1.874-0.21 1.769 1.642 0.178 1.663c0.029 0.017 0.058 0.033 0.087 0.050l1.252-0.933c1.58 0.864 2.674 0.673 2.674 0.673z"
    fill="#0c1d29"
    style="fill: #0c1d29"
  />
  <path
    d="M16.773 23.246l-1.706-1.811 1.411-1.411s-1.411 0.147-2.559 0.758l-1.274-0.484-0.127 1.348s-0.863 0.653-1.769 1.916l1.769-0.401 0.653 2.38 1.053-2.548 2.548 0.252z"
    fill="#3c8725"
    style="fill: #3c8725"
  />
  <path
    d="M16.479 20.024h2.4l1.221 1.874 0.202-1.14c-0.778-0.694-1.724-1.201-2.77-1.455l0.019 0.090-1.074 0.632z"
    fill="#3c8725"
    style="fill: #3c8725"
  />
  <path
    d="M20.879 26.173l1.306-0.927-1.263-0.758s-0.337-1.847-0.822-2.591c0 0-0.358 1.622-0.737 2.001l-2.591-0.653 1.874 2.063-1.684 2.359 2.484-0.969 1.011 2.211s0.484-1.411 0.421-2.738z"
    fill="#0c1d29"
    style="fill: #0c1d29"
  />
  <path
    d="M20.617 30.121h-0.027l-0.132-1.211c-0.232 0.861-1.475 2.106-1.475 2.106h-2.148l1.061 0.76c1.043-0.32 1.974-0.896 2.719-1.655z"
    fill="#0c1d29"
    style="fill: #0c1d29"
  />
  <path
    d="M9.697 25.857s0.463-1.896 1.053-2.295l-1.027 0.732-0.022-0.188c-0.111 0.477-0.173 0.973-0.173 1.485 0 0.676 0.104 1.327 0.296 1.939l1.052 0.393s-0.989-1.243-1.179-2.063z"
    fill="#0c1d29"
    style="fill: #0c1d29"
  />
  <path
    d="M22.639 6.984c-0.502 2.156-1.745 4.077-3.448 5.445-0.754 0.605-1.599 1.102-2.51 1.462-0.407 0.161-0.829 0.294-1.262 0.398-0.362 0.088-0.732 0.154-1.108 0.197-1.015 0.119-2.075 0.073-3.16-0.163-0.64-0.141-1.172-0.599-1.404-1.211-0.018-0.046-0.036-0.093-0.052-0.14-0.050-0.137-0.096-0.273-0.138-0.41-0.063-0.198-0.118-0.396-0.166-0.594-0.047-0.189-0.087-0.376-0.12-0.566-0.087-0.466-0.137-0.931-0.151-1.393-0.028-0.831 0.056-1.646 0.239-2.433 0.721-3.108 2.982-5.737 5.949-6.913 0.746-0.298 1.542-0.503 2.367-0.599 0.485-0.058 0.983-0.078 1.49-0.058h0.010l0.548 0.042h0.008c0.349 0.033 0.701 0.087 1.055 0.161 0.689 0.146 1.251 0.63 1.495 1.289 0.38 1.023 0.576 2.051 0.604 3.054 0.028 0.832-0.058 1.646-0.243 2.429z"
    fill="#263742"
    style="fill: #263742"
  />
  <path
    d="M9.389 11.969c-0.047-0.188-0.087-0.376-0.12-0.566 2.601-4.026 5.924-7.852 9.894-11.396h0.010l0.548 0.042h0.009c-4.188 3.695-7.663 7.702-10.34 11.919z"
    fill="#0c1d29"
    style="fill: #0c1d29"
  />
  <path
    d="M22.639 6.984c-1.983-2.726-4.408-4.856-7.333-6.319 0.746-0.298 1.541-0.503 2.367-0.599 2.212 0.946 3.935 2.458 5.208 4.489 0.028 0.832-0.058 1.645-0.243 2.429z"
    fill="#334552"
    style="fill: #334552"
  />
  <path
    d="M16.681 13.891c-0.749 0.296-1.545 0.5-2.371 0.595-0.261-0.118-0.515-0.244-0.762-0.379-0.125-0.067-0.25-0.137-0.371-0.209-1.633-0.96-2.97-2.276-4.060-3.887-0.028-0.831 0.056-1.646 0.239-2.433 1.938 2.339 4.069 4.274 6.41 5.761 0.051 0.033 0.104 0.065 0.156 0.097 0.25 0.157 0.503 0.308 0.758 0.454z"
    fill="#334552"
    style="fill: #334552"
  />
  <path
    d="M16.681 13.891c-0.749 0.296-1.545 0.5-2.371 0.595-0.261-0.118-0.515-0.244-0.762-0.379 0.568-0.093 1.445-0.285 2.374-0.671 0.25 0.157 0.503 0.308 0.758 0.454z"
    fill="#3c8725"
    style="fill: #3c8725"
  />
  <path
    d="M15.751 2.964l0.667 0.575c0.311 0.268 0.346 0.738 0.078 1.049l-3.087 3.583c-0.268 0.311-0.738 0.346-1.049 0.078l-0.667-0.575c-0.311-0.268-0.346-0.738-0.078-1.049l3.087-3.583c0.268-0.311 0.738-0.346 1.049-0.078z"
    fill="#334552"
    style="fill: #334552"
  />
  <path
    d="M18.346 16.678c0 0.621-0.239 1.184-0.636 1.605-0.067 0.072-0.137 0.14-0.214 0.202-0.406 0.339-0.929 0.54-1.498 0.54s-1.089-0.202-1.496-0.54c-0.077-0.061-0.148-0.129-0.214-0.202-0.396-0.421-0.636-0.983-0.636-1.605s0.241-1.184 0.636-1.605c0.065-0.072 0.137-0.14 0.214-0.202 0.407-0.339 0.928-0.54 1.496-0.54s1.091 0.202 1.498 0.54c0.077 0.061 0.147 0.129 0.214 0.202 0.396 0.421 0.636 0.983 0.636 1.605z"
    fill="#3c8725"
    style="fill: #3c8725"
  />
  <path
    d="M17.71 15.073c-0.067-0.072-0.137-0.14-0.214-0.202-0.48 0.453-0.778 1.096-0.778 1.807s0.3 1.353 0.778 1.806c0.077-0.061 0.147-0.129 0.214-0.202-0.43-0.401-0.698-0.972-0.698-1.605s0.268-1.204 0.698-1.605z"
    fill="#69e244"
    style="fill: #69e244"
  />
  <path
    d="M14.504 14.871c-0.077 0.061-0.148 0.129-0.214 0.202 0.43 0.401 0.698 0.972 0.698 1.605s-0.268 1.204-0.698 1.605c0.065 0.072 0.137 0.14 0.214 0.202 0.48-0.453 0.78-1.096 0.78-1.806s-0.3-1.353-0.78-1.807z"
    fill="#69e244"
    style="fill: #69e244"
  />
</svg>
