<svg xmlns="http://www.w3.org/2000/svg" viewBox="0 0 32 32">
  <path
    d="M27.768 25.617v0.495c-0.486 0-0.879 0.394-0.879 0.881h-21.775l1.667-1.376h20.988z"
    fill="#3c8725"
    style="fill: #3c8725"
  />
  <path
    d="M14.3 26.13c0 0.272-1.543 0.493-3.446 0.493s-3.446-0.221-3.446-0.493c0-0.272 1.543-0.493 3.446-0.493s3.446 0.221 3.446 0.493z"
    fill="#0b1823"
    style="fill: #0b1823"
  />
  <path
    d="M26.889 19.054c0 0.486 0.393 0.881 0.879 0.881v0.886c-0.486 0-0.879 0.393-0.879 0.879s0.393 0.881 0.879 0.881v0.884c-0.486 0-0.879 0.394-0.879 0.881s0.393 0.879 0.879 0.879v0.39h-21.646c0-0.486-0.394-0.879-0.881-0.879v-0.886c0.486 0 0.881-0.394 0.881-0.879s-0.394-0.881-0.881-0.881v-0.886c0.486 0 0.881-0.393 0.881-0.879s-0.394-0.881-0.881-0.881v-0.884c0.486 0 0.881-0.394 0.881-0.881s-0.394-0.881-0.881-0.881v-0.389h21.647c0 0.485 0.393 0.879 0.879 0.879v0.886c-0.486 0-0.879 0.393-0.879 0.879z"
    fill="#0b1823"
    style="fill: #0b1823"
  />
  <path
    d="M5.898 21.204v0.886c0.486 0 0.881 0.394 0.881 0.881s-0.394 0.879-0.881 0.879v0.886c0.486 0 0.881 0.393 0.881 0.879l-1.667 1.376c0-0.486-0.394-0.881-0.881-0.881v-0.886c0.486 0 0.881-0.393 0.881-0.879s-0.394-0.881-0.881-0.881v-0.884c0.486 0 0.881-0.394 0.881-0.881s-0.394-0.879-0.881-0.879v-0.886c0.486 0 0.881-0.394 0.881-0.881s-0.394-0.879-0.881-0.879v-0.886c0.486 0 0.881-0.394 0.881-0.879h0.785v0.389c0.486 0 0.881 0.394 0.881 0.881s-0.394 0.881-0.881 0.881v0.884c0.486 0 0.881 0.394 0.881 0.881s-0.394 0.879-0.881 0.879z"
    fill="#263742"
    style="fill: #263742"
  />
  <path
    d="M13.866 23.118c0 0.696-0.234 1.334-0.63 1.844-0.060 0.074-0.12 0.147-0.187 0.215-0.086 0.093-0.177 0.18-0.275 0.26-0.521 0.434-1.192 0.694-1.921 0.694s-1.398-0.26-1.92-0.694c-0.099-0.078-0.192-0.166-0.275-0.26-0.113-0.12-0.215-0.25-0.306-0.387-0.156-0.229-0.278-0.479-0.364-0.746-0.095-0.292-0.146-0.603-0.146-0.928 0-0.799 0.307-1.519 0.815-2.060 0.083-0.093 0.177-0.18 0.275-0.26 0.521-0.435 1.19-0.694 1.92-0.694 0.12 0 0.242 0.008 0.358 0.022 0.097 0.010 0.193 0.026 0.287 0.046 0.477 0.105 0.913 0.321 1.276 0.625 0.099 0.078 0.189 0.166 0.275 0.26 0.083 0.087 0.16 0.18 0.232 0.276 0.369 0.499 0.584 1.114 0.584 1.783z"
    fill="#3c8725"
    style="fill: #3c8725"
  />
  <path
    d="M11.675 21.942c-0.165-0.361-0.247-0.749-0.247-1.139 0-0.211 0.024-0.421 0.073-0.627-0.093-0.020-0.189-0.036-0.287-0.046-0.147 0.646-0.082 1.327 0.197 1.934 0.119 0.26 0.179 0.538 0.179 0.824 0 0.549-0.219 1.059-0.614 1.437-0.397 0.379-0.916 0.572-1.467 0.548-0.623-0.028-1.174-0.349-1.518-0.826 0.086 0.266 0.209 0.517 0.364 0.746 0.33 0.219 0.722 0.352 1.14 0.371 0.036 0.001 0.072 0.003 0.108 0.003 0.59 0 1.144-0.223 1.573-0.631 0.454-0.434 0.705-1.019 0.705-1.649 0-0.329-0.070-0.648-0.205-0.945z"
    fill="#69e244"
    style="fill: #69e244"
  />
  <path
    d="M13.236 24.963c0.394-0.509 0.63-1.148 0.63-1.844s-0.215-1.283-0.584-1.783c0.033 0.168 0.086 0.332 0.159 0.489 0.329 0.722 0.329 1.559-0.004 2.292-0.12 0.269-0.188 0.552-0.2 0.845z"
    fill="#69e244"
    style="fill: #69e244"
  />
  <path
    d="M31.026 13.407l-0.303 0.832c-0.457-0.166-0.963 0.068-1.13 0.526-0.166 0.456 0.069 0.961 0.526 1.129l-0.303 0.832c-0.457-0.168-0.963 0.068-1.13 0.525-0.166 0.457 0.069 0.963 0.526 1.13l-0.305 0.831c-0.456-0.166-0.961 0.068-1.129 0.526-0.166 0.457 0.069 0.963 0.526 1.129l-0.305 0.832c-0.456-0.168-0.961 0.069-1.129 0.525l-20.454-7.47-0.733-0.877 0.513-1.084c0.456 0.166 0.961-0.068 1.129-0.526 0.168-0.456-0.069-0.963-0.525-1.129l0.303-0.832c0.457 0.168 0.963-0.068 1.129-0.525 0.168-0.457-0.069-0.963-0.525-1.13l0.303-0.832c0.457 0.168 0.963-0.067 1.129-0.525 0.168-0.457-0.068-0.963-0.525-1.129l0.303-0.832c0.457 0.166 20.85 6.066 20.85 6.066l0.733 0.877c-0.168 0.457 0.067 0.963 0.525 1.129z"
    fill="#0b1823"
    style="fill: #0b1823"
  />
  <path
    d="M26.87 22.22l-20.454-7.466-0.733-0.877 20.454 7.469 0.733 0.874z"
    fill="#3c8725"
    style="fill: #3c8725"
  />
  <path
    d="M27.267 20.819l0.303-0.832c-0.457-0.166-0.692-0.672-0.525-1.129 0.166-0.457 0.672-0.691 1.129-0.525l0.303-0.832c-0.457-0.166-0.692-0.672-0.525-1.129 0.166-0.457 0.672-0.691 1.129-0.525l0.303-0.832c-0.457-0.166-0.692-0.672-0.525-1.129 0.166-0.457 0.672-0.692 1.129-0.525l0.303-0.832c-0.457-0.166-0.692-0.672-0.525-1.129l-20.456-7.468c-0.166 0.457-0.672 0.691-1.129 0.525l-0.303 0.832c0.457 0.166 0.691 0.672 0.525 1.129s-0.672 0.691-1.129 0.525l-0.303 0.832c0.457 0.166 0.691 0.672 0.525 1.129s-0.672 0.692-1.129 0.525l-0.303 0.832c0.457 0.166 0.691 0.672 0.525 1.129s-0.672 0.692-1.129 0.525l-0.303 0.832c0.457 0.166 0.691 0.672 0.525 1.129l20.454 7.469c0.166-0.457 0.672-0.691 1.129-0.525z"
    fill="#334552"
    style="fill: #334552"
  />
</svg>
