<svg xmlns="http://www.w3.org/2000/svg" viewBox="0 0 32 32">
  <path
    d="M24.549 19.459l-0.558-0.366h-5.347v1.935l5.905-1.569z"
    fill="#263742"
    style="fill: #263742"
  />
  <path
    d="M18.209 20.776v4.063l4.868-2.203c0.896-0.406 1.472-1.298 1.472-2.281v-0.895l-6.34 1.317z"
    fill="#334552"
    style="fill: #334552"
  />
  <path
    d="M14.043 26.264v-6.931h3.914v6.931c0 0.658-0.535 1.193-1.193 1.193h-1.528c-0.658 0-1.193-0.535-1.193-1.193z"
    fill="#263742"
    style="fill: #263742"
  />
  <path
    d="M13.070 18.623v6.543c0 1.362 5.86 1.362 5.86 0v-6.543h-5.86z"
    fill="#334552"
    style="fill: #334552"
  />
  <path
    d="M5.765 8.247l7.305 10.403c0 1.531 5.86 1.531 5.86 0l7.305-10.403h-20.47z"
    fill="#263742"
    style="fill: #263742"
  />
  <path
    d="M26.235 7.963c0 1.015-1.747 1.912-4.417 2.45-0.863 0.174-1.821 0.31-2.849 0.401-0.25 0.022-0.502 0.041-0.759 0.056-0.712 0.046-1.45 0.070-2.209 0.070s-1.498-0.024-2.209-0.070c-0.257-0.015-0.509-0.035-0.759-0.056-1.027-0.091-1.987-0.227-2.849-0.402-2.669-0.536-4.417-1.434-4.417-2.449 0-1.645 4.584-2.979 10.235-2.979s10.235 1.334 10.235 2.979z"
    fill="#334552"
    style="fill: #334552"
  />
  <path
    d="M18.209 10.87c-0.712 0.046-1.45 0.070-2.209 0.070s-1.498-0.024-2.209-0.070l0.174-3.404h4.070l0.174 3.404z"
    fill="#0c1d29"
    style="fill: #0c1d29"
  />
  <path
    d="M18.035 7.466c0 0.431-0.911 0.781-2.035 0.781s-2.035-0.35-2.035-0.781c0-0.431 0.911-0.781 2.035-0.781s2.035 0.35 2.035 0.781z"
    fill="#3c8725"
    style="fill: #3c8725"
  />
  <path
    d="M17.457 7.244c0 0.309-0.652 0.559-1.457 0.559s-1.457-0.25-1.457-0.559c0-0.309 0.652-0.559 1.457-0.559s1.457 0.25 1.457 0.559z"
    fill="#0c1d29"
    style="fill: #0c1d29"
  />
  <path
    d="M16 6.364c-0.402 0-0.728 0.348-0.728 0.538s0.326 0.343 0.728 0.343c0.402 0 0.728-0.154 0.728-0.343s-0.326-0.538-0.728-0.538z"
    fill="#69e244"
    style="fill: #69e244"
  />
  <path
    d="M19.992 19.246v-0.288l1.030-0.003 0.279 0.119v0.192l-1.108 0.151-0.201-0.172z"
    fill="#69e244"
    style="fill: #69e244"
  />
</svg>
