<svg xmlns="http://www.w3.org/2000/svg" viewBox="0 0 32 32">
  <path
    d="M30.982 9.555l-0.372-0.384-1.427 1.386-1.253-1.253 2.813-2.813-0.378-0.378-2.813 2.813-1.006-1.006 3.27-3.284-0.379-0.378-3.269 3.283-1.51-1.51 3.424-3.424-0.378-0.378-3.424 3.424-1.38-1.38 2.797-2.807-0.379-0.378-2.796 2.806-1.153-1.153 1.288-1.307-0.381-0.375-1.285 1.304-1.052-1.052-0.378 0.378 1.055 1.055-3.83 3.886-1.356-1.356-0.378 0.378 1.358 1.358-3.731 3.785 0.381 0.375 3.729-3.782 1.128 1.128-4.719 4.736-0.454-0.454-0.378 0.378 0.454 0.454-0.772 0.774 0.379 0.378 0.772-0.774 1.362 1.362-1.661 1.661 0.378 0.378 1.661-1.661 1.532 1.532-1.42 1.426 0.379 0.378 1.418-1.425 0.986 0.986-0.707 0.707 0.378 0.378 0.707-0.707 0.472 0.472 0.378-0.378-0.472-0.472 4.727-4.727 1.188 1.188-4.008 3.895 0.372 0.384 4.013-3.9 1.217 1.217 0.378-0.378-1.212-1.212 3.913-3.803 0.769 0.769 0.378-0.378-0.764-0.764 1.421-1.381zM27.173 9.304l-3.858 3.858-0.997-0.997 3.85-3.867 1.005 1.005zM25.789 7.921l-3.85 3.867-1.519-1.519 3.858-3.858 1.512 1.512zM23.9 6.031l-3.858 3.858-1.372-1.372 3.852-3.866 1.379 1.379zM17.162 7.009l3.83-3.886 1.151 1.151-3.852 3.866-1.13-1.13zM13.574 13.632l4.719-4.736 1.371 1.371-4.727 4.727-1.362-1.362zM15.315 15.373l4.727-4.727 1.521 1.521-4.717 4.737-1.531-1.531zM18.211 18.268l-0.986-0.986 4.717-4.737 0.996 0.996-4.727 4.727zM24.887 14.734l-1.193-1.193 3.858-3.858 1.248 1.248-3.913 3.803z"
    fill="#263742"
    style="fill: #263742"
  />
  <path
    d="M25.695 15.543l-0.43-0.431 0.428-0.416-0.372-0.383-0.434 0.421-1.193-1.193 0.531-0.531-0.378-0.379-0.531 0.531-0.564-0.564-0.379 0.379 0.564 0.564-2.034 2.035-2.186-2.18-0.378 0.379 2.185 2.179-1.996 1.997 0.378 0.378 1.997-1.996 1.983 1.983 0.379-0.378-1.984-1.984 2.035-2.035 1.188 1.188-0.515 0.499 0.372 0.384 0.52-0.504 0.436 0.435 0.378-0.378z"
    fill="#3c8725"
    style="fill: #3c8725"
  />
  <path
    d="M29.367 2.499c-3.538-3.538-9.545-3.288-13.391 0.557-1.864 1.864-3.475 4.838-4.207 7.762-0.173 0.69-0.292 1.354-0.36 1.99h-0.012l-0.019 0.316c-0.012 0.147-0.022 0.294-0.028 0.439-0.063 0.707-0.603 5.435-3.896 8.762l-0.471 0.475 1.056 1.046 1.029 1.038 0.475-0.47c2.482-2.459 5.743-3.383 7.533-3.72 0.666-0.125 1.126-0.17 1.27-0.182 0.101-0.004 0.716-0.055 0.716-0.055 0.635-0.068 1.299-0.187 1.989-0.36 2.332-0.584 4.696-1.728 6.504-3.114 0.458-0.349 0.881-0.717 1.257-1.093 3.845-3.845 4.096-9.853 0.557-13.391zM10.95 20.916c0.605-1.019 1.056-2.044 1.389-2.991 0.206 0.324 0.443 0.622 0.712 0.89 0.27 0.27 0.57 0.508 0.896 0.714-0.948 0.333-1.975 0.782-2.996 1.388zM27.444 14.524c-0.389 0.389-0.845 0.771-1.349 1.133-2.058 1.487-4.929 2.679-7.427 2.911l-0.379 0.019c-0.023 0.001-0.101 0.006-0.225 0.018-0.218 0.006-0.431 0.004-0.641-0.006-1.213-0.060-2.272-0.412-3.008-1.148-0.844-0.845-1.181-2.113-1.156-3.555 0.018-0.179 0.024-0.289 0.026-0.319l0.028-0.52c0.326-3.080 2.079-6.687 4.028-8.636 1.504-1.504 3.45-2.386 5.477-2.483 0.124-0.006 0.248-0.009 0.371-0.009 1.86 0 3.557 0.68 4.813 1.935 1.338 1.338 2.022 3.178 1.925 5.183-0.097 2.028-0.979 3.973-2.483 5.477z"
    fill="#263742"
    style="fill: #263742"
  />
  <path
    d="M28.019 24.159v6.319c0 0.813-0.658 1.471-1.471 1.471h-6.319c-0.812 0-1.471-0.658-1.471-1.471v-6.319c0-0.667 0.444-1.23 1.052-1.409 0.132-0.040 0.273-0.061 0.419-0.061h6.319c0.145 0 0.285 0.020 0.417 0.060 0.609 0.179 1.053 0.742 1.053 1.411z"
    fill="#334552"
    style="fill: #334552"
  />
  <path
    d="M26.479 22.688c-0.799 0.776-1.889 1.252-3.090 1.252s-2.291-0.476-3.090-1.252h6.18z"
    fill="#3c8725"
    style="fill: #3c8725"
  />
  <path
    d="M26.591 19.5c0 0.847-0.328 1.615-0.868 2.19-0.091 0.099-0.187 0.191-0.292 0.275-0.554 0.462-1.267 0.737-2.043 0.737s-1.486-0.275-2.042-0.737c-0.105-0.084-0.204-0.177-0.292-0.275-0.54-0.575-0.868-1.343-0.868-2.19s0.328-1.615 0.868-2.19c0.088-0.099 0.187-0.191 0.292-0.275 0.554-0.462 1.266-0.737 2.042-0.737s1.489 0.275 2.043 0.737c0.105 0.084 0.201 0.177 0.292 0.275 0.54 0.575 0.868 1.341 0.868 2.19z"
    fill="#3c8725"
    style="fill: #3c8725"
  />
  <path
    d="M25.723 17.309c-0.091-0.099-0.187-0.191-0.292-0.275-0.655 0.618-1.062 1.495-1.062 2.465s0.408 1.846 1.062 2.465c0.105-0.084 0.201-0.177 0.292-0.275-0.586-0.547-0.952-1.326-0.952-2.19s0.366-1.644 0.952-2.19z"
    fill="#69e244"
    style="fill: #69e244"
  />
  <path
    d="M21.347 17.034c-0.105 0.084-0.204 0.177-0.292 0.275 0.586 0.547 0.952 1.326 0.952 2.19s-0.366 1.644-0.952 2.19c0.088 0.099 0.187 0.191 0.292 0.275 0.655-0.618 1.062-1.495 1.062-2.465s-0.408-1.846-1.062-2.465z"
    fill="#69e244"
    style="fill: #69e244"
  />
  <path
    d="M7.525 22.084l-5.582 5.582c-0.191-0.191-0.499-0.191-0.69 0l-1.030 1.030c-0.641 0.641 2.387 3.668 3.027 3.027l1.030-1.030c0.191-0.191 0.191-0.499 0-0.69v0l5.582-5.582c0.524-0.524-1.814-2.86-2.337-2.337z"
    fill="#334552"
    style="fill: #334552"
  />
</svg>
