<svg xmlns="http://www.w3.org/2000/svg" viewBox="0 0 32 32">
  <path
    d="M6.668 14.668c0 0.007-0 0.015-0 0.023 0 2.205 0.636 4.262 1.734 5.996l-0.027-0.046-8.373 7.36 4 4 7.32-8.373c1.691 1.071 3.751 1.707 5.958 1.707 0.019 0 0.039-0 0.058-0h-0.003z"
  />
  <path
    d="M28.988 3.015c-3.653-3.653-9.52-3.933-14.467-1.133l0.933 4.52h3l1.333 9.067-3.307-5.84-3.48 1.333-2.64-5.627c-1.249 1.434-2.243 3.129-2.888 4.986l-0.032 0.107 14.147 14.093c2.33-0.78 4.322-2.033 5.947-3.654l-0 0c5.333-5.333 5.973-13.32 1.453-17.853z"
  />
</svg>
