<svg xmlns="http://www.w3.org/2000/svg" viewBox="0 0 32 32">
  <path
    d="M22.356 15.592l-5.413 4.408-3.136-12.671 2.857-2.646 5.692 10.908z"
    fill="#263742"
    style="fill: #263742"
  />
  <path
    d="M27.625 4.974c-2.758 0.71-5.513 0.86-8.261 0.44h-0.003l0.444-0.48 0.567-0.614 6.723-0.385 0.285 0.561 0.224 0.439 0.020 0.040z"
    fill="#334552"
    style="fill: #334552"
  />
  <path
    d="M19.361 27.84l0.594 1.563h7.549l1.425-1.151 0.461-0.995-10.029 0.582z"
    fill="#0c1d29"
    style="fill: #0c1d29"
  />
  <path
    d="M29.39 6.812l-0.416-1.166-1.879-1.71 0.53 2.168 1.765 0.708z"
    fill="#0c1d29"
    style="fill: #0c1d29"
  />
  <path
    d="M28.033 28.293l-9.608 0.037v-22.861l9.608-0.558v23.382z"
    fill="#334552"
    style="fill: #334552"
  />
  <path
    d="M26.403 24.12s-0.211-3.512-3.694-3.468c-3.192 0.042-2.844 3.377-2.845 3.372l6.54 0.095z"
    fill="#0c1d29"
    style="fill: #0c1d29"
  />
  <path
    d="M26.397 24.073c0 1.806-1.464 3.27-3.27 3.27s-3.27-1.464-3.27-3.27c0-1.806 1.464-3.27 3.27-3.27s3.27 1.464 3.27 3.27z"
    fill="#0c1d29"
    style="fill: #0c1d29"
  />
  <path
    d="M26.090 24.090c0 1.357-1.1 2.456-2.456 2.456s-2.456-1.1-2.456-2.456c0-1.357 1.1-2.456 2.456-2.456s2.456 1.1 2.456 2.456z"
    fill="#263742"
    style="fill: #263742"
  />
  <path
    d="M26.504 17.125s0.017-3.661-3.594-3.63c-3.269 0.028-2.944 3.538-2.944 3.534l6.54 0.095z"
    fill="#0c1d29"
    style="fill: #0c1d29"
  />
  <path
    d="M26.5 17.078c0 1.806-1.464 3.27-3.27 3.27s-3.27-1.464-3.27-3.27c0-1.806 1.464-3.27 3.27-3.27s3.27 1.464 3.27 3.27z"
    fill="#0c1d29"
    style="fill: #0c1d29"
  />
  <path
    d="M26.193 17.094c0 1.357-1.1 2.456-2.456 2.456s-2.456-1.1-2.456-2.456c0-1.357 1.1-2.456 2.456-2.456s2.456 1.1 2.456 2.456z"
    fill="#263742"
    style="fill: #263742"
  />
  <path
    d="M26.6 10.131l-6.538-0.095c-0.585-1.126-0.215-4.33 2.957-4.187 2.113 0.095 3.003 1.967 3.357 3.204 0.178 0.618 0.224 1.078 0.224 1.078z"
    fill="#3c8725"
    style="fill: #3c8725"
  />
  <path
    d="M26.601 10.083c0 1.806-1.464 3.27-3.27 3.27s-3.27-1.464-3.27-3.27c0-1.806 1.464-3.27 3.27-3.27s3.27 1.464 3.27 3.27z"
    fill="#0c1d29"
    style="fill: #0c1d29"
  />
  <path
    d="M25.775 7.912s-1.164-1.586-3.352-1.257c-2.188 0.329-2.488 2.095-2.318 2.895l5.67-1.638z"
    fill="#0c1d29"
    style="fill: #0c1d29"
  />
  <path
    d="M26.397 10.083c0 1.694-1.373 3.067-3.067 3.067s-3.067-1.373-3.067-3.067c0-1.694 1.373-3.067 3.067-3.067s3.067 1.373 3.067 3.067z"
    fill="#3c8725"
    style="fill: #3c8725"
  />
  <path
    d="M26.294 10.099c0 1.357-1.1 2.456-2.456 2.456s-2.456-1.1-2.456-2.456c0-1.357 1.1-2.456 2.456-2.456s2.456 1.1 2.456 2.456z"
    fill="#69e244"
    style="fill: #69e244"
  />
  <path
    d="M26.377 9.053h-0.063l-0.539-1.142s-0.956-1.905-2.995-1.847c-2.040 0.058-2.958 1.72-2.675 3.484l0.073 0.379-0.031 0.106h-0.086c-0.585-1.126-0.215-4.33 2.957-4.187 2.113 0.095 3.003 1.967 3.357 3.204z"
    fill="#0c1d29"
    style="fill: #0c1d29"
  />
  <path
    d="M28.033 4.911l1.649 2.312v19.811l-1.649 1.26v-23.382z"
    fill="#0c1d29"
    style="fill: #0c1d29"
  />
  <path
    d="M27.604 4.934l-8.243 0.48 0.444-0.48 7.575-0.439 0.224 0.439z"
    fill="#0c1d29"
    style="fill: #0c1d29"
  />
  <path
    d="M14.509 27.662l-1.396 0.735-11.48-21.798 1.398-0.736 11.479 21.8z"
    fill="#334552"
    style="fill: #334552"
  />
  <path
    d="M3.578 6.236c-0.001 0.050-0.006 0.097-0.014 0.146-0.012 0.078-0.032 0.154-0.056 0.228 0 0.001-0.003 0.004 0 0.005-0.038 0.109-0.091 0.212-0.155 0.307-0.023 0.035-0.047 0.067-0.072 0.099-0.168 0.205-0.393 0.365-0.655 0.449-0.074 0.023-0.154 0.042-0.236 0.052-0.084 0.010-0.168 0.014-0.25 0.009-0.092-0.004-0.183-0.018-0.27-0.038-0.035-0.009-0.068-0.019-0.101-0.032-0.023-0.006-0.045-0.014-0.067-0.023-0.209-0.083-0.396-0.216-0.539-0.388-0.165-0.193-0.278-0.438-0.314-0.709-0.069-0.506 0.148-0.982 0.526-1.271 0.032-0.023 0.064-0.047 0.097-0.067 0.164-0.105 0.352-0.175 0.557-0.204 0.191-0.026 0.378-0.009 0.552 0.040 0.148 0.044 0.288 0.109 0.413 0.197 0.305 0.212 0.521 0.548 0.575 0.943 0.012 0.087 0.015 0.173 0.009 0.256z"
    fill="#334552"
    style="fill: #334552"
  />
  <path
    d="M3.578 6.236c-0.001 0.050-0.006 0.097-0.014 0.146-0.012 0.078-0.032 0.154-0.056 0.228 0 0.001-0.003 0.004 0 0.005-0.038 0.109-0.091 0.212-0.155 0.307-0.023 0.035-0.047 0.067-0.072 0.099-0.168 0.205-0.393 0.365-0.655 0.449-0.074 0.023-0.154 0.042-0.236 0.052-0.084 0.010-0.168 0.014-0.25 0.009-0.092-0.004-0.183-0.018-0.27-0.038-0.035-0.009-0.068-0.019-0.101-0.032 0.020-0.408 0.223-0.78 0.538-1.019 0.031-0.023 0.064-0.046 0.096-0.067 0.164-0.104 0.352-0.174 0.557-0.204 0.192-0.024 0.379-0.008 0.552 0.041 0.023 0.006 0.046 0.014 0.068 0.023z"
    fill="#0c1d29"
    style="fill: #0c1d29"
  />
  <path
    d="M12.388 27.022s0.116-1.129 1.16-1.187l0.961 1.827-1.498 0.547-0.625-1.187z"
    fill="#0c1d29"
    style="fill: #0c1d29"
  />
  <path
    d="M10.358 19.785s-1.499 0.109-0.948 1.588l-1.038-1.978 1.45-0.639 0.536 1.027z"
    fill="#0c1d29"
    style="fill: #0c1d29"
  />
  <path
    d="M9.297 19.405s-0.396 0.192-0.562 0.682l-6.606-12.545c0.521-0.741 1.381-0.768 1.381-0.768l5.787 12.631z"
    fill="#334552"
    style="fill: #334552"
  />
  <path
    d="M14.963 28.773c-0.124 0.192-0.296 0.357-0.512 0.471-0.671 0.355-1.501 0.096-1.855-0.573-0.202-0.387-0.205-0.823-0.041-1.193h0.001c0.044-0.101 0.097-0.196 0.166-0.282 0.116-0.154 0.269-0.285 0.449-0.381 0.672-0.353 1.501-0.096 1.853 0.576 0.241 0.454 0.2 0.982-0.061 1.382z"
    fill="#334552"
    style="fill: #334552"
  />
  <path
    d="M18.806 14.461l-4.367 1.016c-0.119 0.028-0.179 0.16-0.122 0.268l2.248 4.195c0.019 0.035 0.045 0.060 0.074 0.079v0.003c0.123 0.115 0.303-0.022 0.303-0.022l0.66-0.538c-0.561 0.434-0.36-0.228-0.36-0.228v0l1.775-4.524c0.055-0.138-0.069-0.282-0.214-0.248z"
    fill="#0c1d29"
    style="fill: #0c1d29"
  />
  <path
    d="M17.604 19.461c0.028-0.022 0.059-0.046 0.091-0.074l-0.091 0.074z"
    fill="#0c1d29"
    style="fill: #0c1d29"
  />
  <path
    d="M19.043 14.651l-0.344 0.877c0.407-1.11-0.53-0.719-0.607-0.686-0.136 0.061-0.285 0.129-0.445 0.202-0.022 0.010-0.042 0.020-0.064 0.029-0.014 0.008-0.028 0.014-0.044 0.022-0.119 0.055-0.246 0.115-0.379 0.178v0c-0.398 0.188-0.856 0.41-1.373 0.664-1.609 0.797-3.784 1.93-6.488 3.468l-6.58-12.389s3.692-2.314 7.625-4.237h0.003c0.11-0.054 0.218-0.106 0.328-0.16 0.189-0.091 0.378-0.179 0.564-0.268 0.212-0.101 0.424-0.198 0.636-0.293 0.215-0.097 0.467-0.012 0.581 0.195l0.255 0.462v0.003l0.006 0.010 6.301 11.418s0.003 0.006 0.008 0.018c0.005 0.013 0.012 0.027 0.015 0.042 0.029 0.088 0.072 0.27 0.003 0.445z"
    fill="#334552"
    style="fill: #334552"
  />
  <path
    d="M19.043 14.651l-0.344 0.877c0.407-1.11-0.53-0.719-0.607-0.686-0.136 0.061-0.285 0.129-0.445 0.202-0.022 0.010-0.042 0.020-0.064 0.029-0.014 0.008-0.028 0.014-0.044 0.022-0.119 0.055-0.246 0.115-0.379 0.178v0c-0.645-4.52-4.274-12.188-4.443-12.545l6.301 11.418s0.003 0.006 0.008 0.018c0.005 0.013 0.012 0.027 0.015 0.042 0.029 0.088 0.072 0.27 0.003 0.445z"
    fill="#3c8725"
    style="fill: #3c8725"
  />
</svg>
