<svg xmlns="http://www.w3.org/2000/svg" viewBox="0 0 38 32">
  <path
    d="M37.928 30.448c0 0.857-7.601 1.552-16.978 1.552s-16.978-0.695-16.978-1.552c0-0.857 7.601-1.552 16.978-1.552s16.978 0.695 16.978 1.552z"
    fill="#071824"
    style="fill: #071824"
  />
  <path
    d="M10.739 26.817l3.383-0.962 0.403 1.086-2.638 0.9z"
    fill="#071824"
    style="fill: #071824"
  />
  <path
    d="M37.897 22.875c0.279-3.88-9.094-4.438-12.912-3.756l0.217 0.931c10.211-0.466 11.732 1.738 11.577 2.98-0.59 4.376-12.198 2.824-12.198 6.208-0.124 2.359 8.473 1.397 8.473 1.397l-0.559-0.155 1.024-0.372-1.459 0.124 0.931-0.497c0 0-7.48 0.683-7.046-0.838 0.341-1.428 11.608-1.21 11.95-6.021z"
    fill="#557086"
    style="fill: #557086"
  />
  <path
    d="M32.801 21.372c0.421 2.013-3.849 4.61-9.536 5.799s-10.64 0.522-11.061-1.492c-0.421-2.013 3.848-4.61 9.536-5.799s10.64-0.522 11.061 1.492z"
    fill="#071824"
    style="fill: #071824"
  />
  <path
    d="M32.674 20.329c0.365 1.745-3.991 4.132-9.729 5.332s-10.686 0.758-11.051-0.987c-0.365-1.745 3.991-4.132 9.729-5.332s10.686-0.758 11.051 0.987z"
    fill="#0f212e"
    style="fill: #0f212e"
  />
  <path
    d="M32.307 19.883c0.365 1.745-3.882 4.11-9.486 5.282s-10.443 0.707-10.808-1.037c-0.365-1.745 3.882-4.11 9.486-5.282s10.443-0.707 10.808 1.037z"
    fill="#1a2c38"
    style="fill: #1a2c38"
  />
  <path
    d="M15.022 23.496c0.248 1.148 3.631 1.366 7.573 0.559s6.952-2.421 6.704-3.538l-1.583-9.715-15.022 2.98 2.328 9.715z"
    fill="#2d4454"
    style="fill: #2d4454"
  />
  <path
    d="M12.788 14.526c0 0 3.569 1.676 15.302-1.49l0.093 0.528c0 0-10.056 3.352-15.178 1.645-0.155-0.186-0.217-0.435-0.217-0.683z"
    fill="#557086"
    style="fill: #557086"
  />
  <path
    d="M30.895 8.961c0.284 1.359-4.355 3.479-10.361 4.735s-11.106 1.173-11.391-0.186c-0.284-1.359 4.355-3.479 10.361-4.735s11.106-1.173 11.391 0.186z"
    fill="#071824"
    style="fill: #071824"
  />
  <path
    d="M30.375 8.131c0.239 1.141-4.288 3.053-10.11 4.27s-10.735 1.28-10.974 0.139c-0.239-1.141 4.288-3.053 10.11-4.27s10.735-1.28 10.974-0.139z"
    fill="#1a2c38"
    style="fill: #1a2c38"
  />
  <path
    d="M30.281 7.665c0.239 1.141-4.288 3.053-10.11 4.27s-10.735 1.28-10.974 0.139c-0.239-1.141 4.288-3.053 10.11-4.27s10.735-1.28 10.974-0.139z"
    fill="#2d4454"
    style="fill: #2d4454"
  />
  <path
    d="M19.057 6.146c0.528-0.124 1.086-0.217 1.117-0.062s-1.024 0.652-1.024 0.652-1.148 0-1.179-0.155 0.714-0.341 1.086-0.435z"
    fill="#0f212e"
    style="fill: #0f212e"
  />
  <path
    d="M2.359 0.341c0 0 1.086-0.497 1.738-0.31 0 0 1.024 4.066 1.179 4.532s0.528 0.652 1.242 0.497 8.877-1.893 10.18-2.111 2.731 0.652 3.042 1.831 1.086 4.935 1.086 4.935c0.062 0.248-1.769 0.714-1.831 0.435 0 0-0.931-4.376-1.148-4.966s-0.807-0.528-1.335-0.435-9.373 1.769-10.18 1.986-2.266-0.124-2.638-1.521c-0.404-1.335-1.335-4.873-1.335-4.873z"
    fill="#0f212e"
    style="fill: #0f212e"
  />
  <path
    d="M8.039 13.812c-0.186-0.838 0.31-1.676 1.117-1.862 3.507-0.931 12.043-3.166 12.415-3.259 0.466-0.124 0.497-0.372 0.497-0.372l-0.217-0.9-14.495 3.818-0.869 1.8 3.849 14.308c0.217 0.869 1.117 1.366 1.955 1.117 0.031 0 0.031 0 0.062-0.031l3.383-1.086-1.459-0.497-2.111 0.59c-0.435 0.124-0.9-0.124-1.024-0.59 0 0 0 0 0-0.031l-3.104-13.005z"
    fill="#0f212e"
    style="fill: #0f212e"
  />
  <path
    d="M6.27 13.719c-0.31-1.366 0.528-2.762 1.893-3.104 3.942-1.024 11.298-2.918 12.198-3.166 1.241-0.31 1.986-0.062 1.241 0.248-0.559 0.248-8.597 2.328-12.663 3.383-1.304 0.341-2.080 1.645-1.738 2.949l3.166 13.346c0.155 0.652 0.9 1.179 1.583 1.179-1.862 0.124-2.7-1.583-2.918-2.607l-2.762-12.229z"
    fill="#2d4454"
    style="fill: #2d4454"
  />
  <path
    d="M17.754 7.822l0.062 0.31c0 0 0.341 0.124 1.676-0.155s1.459-0.466 1.459-0.466l-0.062-0.31-3.135 0.621z"
    fill="#0f212e"
    style="fill: #0f212e"
  />
  <path
    d="M17.971 6.58l0.186 1.024c0 0-0.466 0.124-0.435 0.217s0.776 0.062 1.614-0.124c0.869-0.186 1.552-0.341 1.521-0.466s-0.466-0.093-0.466-0.093l-0.217-1.055c-0.341 0.186-0.714 0.31-1.086 0.372-0.341 0.093-0.745 0.124-1.117 0.124z"
    fill="#071824"
    style="fill: #071824"
  />
  <path
    d="M1.428 14.867l3.569 14.495c0.062 0.31 0.341 0.372 0.776 0.248l1.273-0.466-3.756-15.395-1.366 0.31c-0.372 0.093-0.559 0.435-0.497 0.807 0-0.031 0 0 0 0z"
    fill="#071824"
    style="fill: #071824"
  />
  <path
    d="M10.242 27.686c0 0-0.403-1.521-0.528-2.017-0.341-1.428-2.017-1.397-1.676-0.155 0.093 0.372 0.372 1.459 0.372 1.459 0.093 0.31-0.093 0.621-0.403 0.714l-3.042 1.117-3.507-13.843c-0.093-0.341 0.093-0.683 0.435-0.745h0.031l2.669-0.59c0.341-0.062 0.714 0.124 0.807 0.497l0.341 1.21c0.404 1.49 1.521 0.993 1.366 0.279l-0.59-2.266c-0.186-0.683-0.869-1.117-1.583-0.993l-3.538 0.714c-0.962 0.217-1.552 1.179-1.335 2.142v0.031l3.445 13.781c0.124 0.559 0.528 1.055 1.086 1.273 0.217 0.093 0.466 0.155 0.683 0.124v0c0.124 0 0.248 0 0.372-0.031l3.787-1.241c0.621-0.155 0.993-0.807 0.807-1.459zM0.869 14.122v0 0z"
    fill="#0f212e"
    style="fill: #0f212e"
  />
  <path
    d="M13.284 16.667c0 0 8.008-0.745 14.774-4.314 0 0 0.186 0.124 0.031 0.714 0 0-5.556 3.166-14.619 4.221-0.124-0.186-0.217-0.404-0.186-0.621z"
    fill="#557086"
    style="fill: #557086"
  />
  <path
    d="M14.339 21.137c0 0 9.156 1.273 14.743-3.197 0.124 0.248 0.186 0.528 0.124 0.838 0 0-5.618 4.656-14.681 2.98-0.124-0.124-0.155-0.341-0.186-0.621z"
    fill="#557086"
    style="fill: #557086"
  />
  <path
    d="M14.619 22.285c0 0 8.411 0.372 14.588-3.166 0.124 0.279 0.155 0.59 0.093 0.9 0 0-5.494 3.383-14.433 2.98-0.124-0.155-0.217-0.404-0.248-0.714z"
    fill="#557086"
    style="fill: #557086"
  />
  <path
    d="M14.277 20.578c5.587-0.279 10.398-2.669 13.967-6.983 0.093 0.31 0.155 0.559 0.124 0.776 0 0-4.252 6.332-13.843 7.046-0.124-0.248-0.217-0.528-0.248-0.838z"
    fill="#557086"
    style="fill: #557086"
  />
</svg>
