<svg xmlns="http://www.w3.org/2000/svg" viewBox="0 0 32 32">
  <path
    d="M28.131 6.651c0 0.925-0.75 1.674-1.674 1.674s-1.674-0.75-1.674-1.674c0-0.925 0.75-1.674 1.674-1.674s1.674 0.75 1.674 1.674z"
    fill="#334552"
    style="fill: #334552"
  />
  <path
    d="M9.539 25.591l0.458 0.772 0.024-0.014c0.316 0.216 1.286-0.033 2.304-0.613 1.016-0.581 1.724-1.29 1.699-1.673l0.024-0.014-0.458-0.772-4.051 2.314z"
    fill="#0b1823"
    style="fill: #0b1823"
  />
  <path
    d="M13.589 23.278c0.196 0.343-0.552 1.139-1.67 1.778s-2.184 0.878-2.38 0.535c-0.196-0.343 0.552-1.139 1.67-1.778s2.184-0.878 2.38-0.535z"
    fill="#3c8725"
    style="fill: #3c8725"
  />
  <path
    d="M27.72 11.117l-0.325 0.837c0.013 0.383 0.787 1.019 1.856 1.496s2.060 0.63 2.353 0.383l0.378-0.814-4.26-1.902z"
    fill="#334552"
    style="fill: #334552"
  />
  <path
    d="M30.143 11.415c1.176 0.525 1.999 1.243 1.838 1.604s-1.245 0.228-2.421-0.297c-1.176-0.525-1.999-1.243-1.838-1.604s1.245-0.228 2.421 0.297z"
    fill="#334552"
    style="fill: #334552"
  />
  <path
    d="M7.927 0l4.611 9.763-10.469-2.335 1.988-7.183 3.871-0.244z"
    fill="#334552"
    style="fill: #334552"
  />
  <path
    d="M14.431 2.388l-6.504-2.388-1.917 7.428 6.528 2.335 1.893-7.374z"
    fill="#263742"
    style="fill: #263742"
  />
  <path
    d="M2.068 7.428h3.941l6.528 2.335-4.018 0.088-6.451-2.423z"
    fill="#3c8725"
    style="fill: #3c8725"
  />
  <path
    d="M25.119 8.705l-10.688-0.065 1.238 10.492 7.741-2.15 1.709-8.276z"
    fill="#263742"
    style="fill: #263742"
  />
  <path
    d="M17.174 10.762l-1.504 8.37-5.893-5.056 1.499-8.334c5.363 0.433 7.845 1.919 5.898 5.021z"
    fill="#3c8725"
    style="fill: #3c8725"
  />
  <path
    d="M14.021 12.202c0.208 0.737 0.003 1.44-0.459 1.57s-1.004-0.362-1.212-1.098c-0.208-0.737-0.003-1.44 0.459-1.57s1.004 0.362 1.212 1.098z"
    fill="#69e244"
    style="fill: #69e244"
  />
  <path
    d="M18.799 15.911c0.237 0.215 0.113 0.738-0.277 1.169s-0.899 0.605-1.136 0.39c-0.237-0.215-0.113-0.738 0.277-1.169s0.899-0.605 1.136-0.39z"
    fill="#0c1d29"
    style="fill: #0c1d29"
  />
  <path
    d="M21.379 13.222c0.237 0.215 0.113 0.738-0.277 1.169s-0.899 0.605-1.136 0.39c-0.237-0.215-0.113-0.738 0.277-1.169s0.899-0.605 1.136-0.39z"
    fill="#0c1d29"
    style="fill: #0c1d29"
  />
  <path
    d="M23.81 10.385c0.237 0.215 0.113 0.738-0.277 1.169s-0.899 0.605-1.136 0.39c-0.237-0.215-0.113-0.738 0.277-1.169s0.899-0.605 1.136-0.39z"
    fill="#0c1d29"
    style="fill: #0c1d29"
  />
  <path
    d="M11.274 5.741l7.905-1.871 5.939 4.836-7.945 2.057-5.9-5.021z"
    fill="#334552"
    style="fill: #334552"
  />
  <path
    d="M17.856 7.961c0.666 0.121 1.163 0.458 1.11 0.753s-0.637 0.436-1.303 0.315c-0.666-0.121-1.163-0.458-1.11-0.753s0.637-0.436 1.303-0.315z"
    fill="#0c1d29"
    style="fill: #0c1d29"
  />
  <path
    d="M18.892 5.013c0.62 0.113 1.086 0.41 1.040 0.665s-0.587 0.37-1.207 0.257c-0.62-0.113-1.086-0.41-1.040-0.665s0.587-0.37 1.207-0.257z"
    fill="#0c1d29"
    style="fill: #0c1d29"
  />
  <path
    d="M20.923 18.26l-2.656 3.557-3.539 5.091 4.934-5.202 1.261-3.446z"
    fill="#3c8725"
    style="fill: #3c8725"
  />
  <path
    d="M20.923 18.26l-1.953 2.86 6.524 4.829 1.892-3.104-6.463-4.585z"
    fill="#263742"
    style="fill: #263742"
  />
  <path
    d="M14.728 26.908l4.243-5.788c3.181 0.086 5.221 1.9 6.524 4.829l-4.159 5.754-6.609-4.795z"
    fill="#263742"
    style="fill: #263742"
  />
  <path
    d="M7.963 14.802c0 0.925-0.75 1.674-1.674 1.674s-1.674-0.75-1.674-1.674c0-0.925 0.75-1.674 1.674-1.674s1.674 0.75 1.674 1.674z"
    fill="#69e244"
    style="fill: #69e244"
  />
</svg>
