<svg xmlns="http://www.w3.org/2000/svg" viewBox="0 0 32 32">
  <path
    d="M10.88 9.107c1.414-0.346 2.446-1.602 2.446-3.099 0-1.76-1.427-3.187-3.187-3.187s-3.187 1.427-3.187 3.187c0 0.262 0.032 0.517 0.091 0.761l-0.005-0.022c0.346 1.414 1.602 2.447 3.1 2.447 0.263 0 0.518-0.032 0.762-0.092l-0.022 0.005z"
  />
  <path
    d="M27.76 7.067l1.333-1.893h-3.24c-7.347 0-9.853 6.733-12.52 11.307 1.172 0.491 2.534 0.777 3.963 0.777 0.098 0 0.195-0.001 0.292-0.004l-0.014 0h2.027v4.4h-1.787v-2.667h-0.173c-0.202 0.015-0.437 0.023-0.674 0.023-2.442 0-4.675-0.892-6.392-2.367l0.013 0.011c0.059-0.268 0.093-0.575 0.093-0.891 0-2.379-1.928-4.307-4.307-4.307-1.856 0-3.438 1.175-4.044 2.821l-0.010 0.030-2.093 6.080c-0.145 0.414-0.229 0.891-0.229 1.388 0 1.876 1.195 3.472 2.866 4.069l0.030 0.009c0.415 0.139 0.893 0.22 1.391 0.22 0.149 0 0.296-0.007 0.441-0.021l-0.018 0.001 3.68 1.573c0.894 0.392 1.507 1.269 1.507 2.29 0 0.001 0 0.002 0 0.004v-0 2.080h15.44c1.096-1.72 1.746-3.816 1.746-6.063 0-2.065-0.549-4.002-1.509-5.672l0.029 0.055c0.001-0.014 0.002-0.030 0.002-0.047s-0.001-0.033-0.002-0.049l0 0.002c-0.844-1.528-1.341-3.35-1.341-5.288 0-0.147 0.003-0.294 0.009-0.44l-0.001 0.021s1.4 4 4.493 2.667l1.613 2.547 1.627-2.507zM14.933 32h-1.6v-2.080c-0.010-2.38-1.445-4.423-3.496-5.319l-0.037-0.015-1.653-0.707c0.124-0.203 0.232-0.436 0.313-0.683l0.007-0.024 1-3.173c0.379 0.269 0.815 0.539 1.267 0.781l0.066 0.032c-0.272 0.545-0.56 1.227-0.81 1.928l-0.043 0.139 0.387 0.16c2.695 1.178 4.544 3.819 4.547 6.893v0z"
  />
</svg>
