<svg xmlns="http://www.w3.org/2000/svg" viewBox="0 0 32 32">
  <path
    d="M24 21.655c0.865 0 1.73 0 2.59 0 0.015 0.001 0.033 0.001 0.051 0.001 0.42 0 0.791-0.215 1.006-0.542l0.003-0.005c0.103-0.173 0.197-0.375 0.272-0.585l0.008-0.025v-6.455c-0.091-0.051-0.197-0.089-0.309-0.109l-0.006-0.001c-0.595 0-1.19 0-1.785 0-0.235 0-0.285 0.050-0.285 0.275 0 0.41 0 0.815 0 1.225 0 0.165 0.065 0.26 0.245 0.26s0.2 0.090 0.2 0.23c0 1.24 0 2.475 0 3.715 0 0.165-0.075 0.24-0.235 0.24h-0.605c-0.175 0-0.25-0.075-0.25-0.255 0-0.35 0-0.705 0-1.055v-7.675c0-0.3 0.030-0.33 0.335-0.33s0.5 0 0.77 0c0.17 0 0.255 0.075 0.25 0.25 0 0.3 0 0.595 0 0.895 0 0.18 0.080 0.26 0.265 0.255 0.365 0 0.73 0 1.095 0 0.119-0.024 0.224-0.064 0.32-0.118l-0.006 0.003v-2.5c-0.117-0.299-0.403-0.507-0.738-0.507-0.038 0-0.075 0.003-0.111 0.008l0.004-0.001c-1.030 0-2.060 0-3.090 0-0.025-0.002-0.054-0.003-0.083-0.003-0.594 0-1.075 0.481-1.075 1.075 0 0.028 0.001 0.055 0.003 0.082l-0-0.004v10.45c-0.002 0.024-0.003 0.052-0.003 0.081 0 0.621 0.504 1.125 1.125 1.125 0.013 0 0.027-0 0.040-0.001l-0.002 0z"
  />
  <path
    d="M3.91 16.88c0 1.395 0 2.795 0 4.19-0.002 0.019-0.004 0.040-0.004 0.062 0 0.301 0.244 0.545 0.545 0.545 0.017 0 0.034-0.001 0.051-0.002l-0.002 0h0.77c0.5 0 0.68-0.19 0.68-0.675 0-1.415 0-2.835 0-4.25 0-0.195 0.050-0.27 0.255-0.265 0.58 0 1.165 0 1.745 0 0.015 0.001 0.033 0.001 0.051 0.001 0.525 0 0.95-0.425 0.95-0.95 0-0.018-0.001-0.036-0.002-0.054l0 0.002c0-0.065 0-0.125 0-0.185q0-2.16 0-4.315c0-0.465 0-0.93 0-1.39 0-0.003 0-0.007 0-0.010 0-0.391-0.314-0.709-0.705-0.715h-4.081c-0.185 0-0.26 0.090-0.255 0.27v0.56c0 1.535 0 3.070 0 4.605 0 0.185-0.050 0.3-0.255 0.33-0.070 0-0.13 0.085-0.195 0.13v1.615c0.055 0.040 0.105 0.11 0.165 0.11 0.28 0.010 0.285 0.18 0.285 0.39zM5.965 10.96c0-0.27 0.055-0.325 0.325-0.325 0.125 0 0.25 0 0.375 0s0.275 0.090 0.27 0.28v1.72c0 0.55 0 1.105 0 1.655 0 0.255-0.060 0.315-0.315 0.32h-0.335c-0.265 0-0.32-0.060-0.32-0.335s0-0.425 0-0.64c0-0.895-0.005-1.785 0-2.675z"
  />
  <path
    d="M16.5 15.655c0.285 0.040 0.3 0.22 0.3 0.45 0 1.74 0 3.5 0 5.225 0 0.185 0.050 0.32 0.26 0.32 1.17 0 2.335 0 3.5 0 0.681-0.038 1.218-0.599 1.22-1.285v-0c0-1.455 0-2.915 0-4.375 0-0.012 0.001-0.026 0.001-0.040 0-0.281-0.107-0.538-0.282-0.731l0.001 0.001-0.44-0.5c0.128-0.080 0.239-0.162 0.343-0.253l-0.003 0.003c0.141-0.157 0.228-0.366 0.228-0.594 0-0.041-0.003-0.081-0.008-0.12l0 0.005c0-1.41 0-2.82 0-4.23 0.002-0.019 0.003-0.042 0.003-0.065 0-0.351-0.284-0.635-0.635-0.635-0.028 0-0.055 0.002-0.081 0.005l0.003-0h-3.75c-0.32 0-0.355 0.035-0.355 0.355v4.355c0 0.19-0.050 0.31-0.26 0.355-0.093 0.043-0.161 0.127-0.18 0.228l-0 0.002c0 0.425 0 0.855 0 1.285 0.005 0.085 0.085 0.23 0.135 0.24zM18.735 10.815c-0.001-0.007-0.001-0.015-0.001-0.023 0-0.127 0.103-0.23 0.23-0.23 0.013 0 0.025 0.001 0.037 0.003l-0.001-0h0.435c0.19 0 0.27 0.1 0.27 0.285v2.82c0 0.25-0.075 0.32-0.32 0.325h-0.385c-0.17 0-0.265-0.090-0.265-0.255 0.005-0.975 0.005-1.95 0.010-2.925zM18.735 16.15c-0.002-0.011-0.003-0.025-0.003-0.038 0-0.135 0.11-0.245 0.245-0.245 0.013 0 0.027 0.001 0.039 0.003l-0.001-0h0.435c0.010-0.001 0.021-0.002 0.033-0.002 0.135 0 0.245 0.11 0.245 0.245 0 0.013-0.001 0.026-0.003 0.039l0-0.001c0 0.575 0 1.15 0 1.72v1.68c0 0.26-0.060 0.32-0.315 0.32h-0.355c-0.255 0-0.32-0.065-0.32-0.32v-3.4z"
  />
  <path
    d="M10.215 20.46c0.050 0.633 0.555 1.133 1.186 1.175l0.004 0c1 0 2 0 3 0 0.63-0.040 1.132-0.537 1.18-1.161l0-0.004c0-0.205 0.030-0.41 0.030-0.62v-9.85c0-0.27 0-0.535 0-0.805s-0.085-0.335-0.335-0.335h-1.28c-0.39 0-0.435 0.045-0.435 0.435v10.205c0 0.29-0.075 0.365-0.37 0.37h-0.475c-0.39 0-0.44-0.050-0.44-0.445v-10.18c0-0.33-0.060-0.385-0.385-0.385h-1.25c-0.41 0-0.455 0.040-0.455 0.445q0 5.34 0 10.68c0.005 0.155 0.015 0.315 0.025 0.475z"
  />
  <path
    d="M32 12.84v-3.62h-0.95v-4.22h-30.1v4.37h-0.95v3.63h0.95v4.82h-0.95v3.62h0.95v4.060h30.1v-4.22h0.95v-3.62h-0.95v-4.82zM29.425 23.69h-26.85v-16.88h26.85z"
  />
</svg>
