<svg xmlns="http://www.w3.org/2000/svg" viewBox="0 0 32 32">
  <path
    d="M21.855 10.75c0.070-0.055 0.115 0 0.16 0.040 0.203 0.122 0.437 0.225 0.684 0.295l0.020 0.005c0.295 0.065 0.455-0.105 0.39-0.41-0.076-0.271-0.191-0.507-0.34-0.717l0.005 0.007c-0.16-0.243-0.256-0.541-0.256-0.862 0-0.167 0.026-0.328 0.074-0.479l-0.003 0.011c0.19-0.584 0.729-0.999 1.365-1h0c1.235-0.055 1.72 1.295 1.28 2.2-0.101 0.203-0.245 0.371-0.421 0.497l-0.004 0.003c-0.172 0.12-0.323 0.25-0.459 0.394l-0.001 0.001c-0.077 0.080-0.139 0.175-0.183 0.279l-0.002 0.006c-0.070 0.19 0 0.31 0.195 0.31 0.314-0.018 0.596-0.14 0.817-0.331l-0.002 0.001c0.482-0.37 0.877-0.828 1.164-1.353l0.011-0.022c0.67-1.165 1.189-2.517 1.485-3.951l0.015-0.089c0.171-0.696 0.282-1.502 0.309-2.331l0-0.019c0-0.040 0-0.080 0.030-0.11 0.559 0.608 1.075 1.277 1.53 1.987l0.035 0.058c-0.015 0.058-0.027 0.128-0.035 0.199l-0 0.006c-0.249 1.886-0.809 3.594-1.63 5.142l0.040-0.082c-0.175 0.357-0.353 0.658-0.551 0.945l0.016-0.025c-0.15 0.041-0.281 0.099-0.401 0.174l0.006-0.004c-0.438 0.289-0.724 0.779-0.724 1.336 0 0.058 0.003 0.115 0.009 0.171l-0.001-0.007c0.016 0.303 0.117 0.579 0.278 0.81l-0.003-0.005c0.065 0.091 0.122 0.195 0.166 0.305l0.003 0.010c0.070 0.205 0 0.33-0.215 0.345-0.028 0.004-0.060 0.006-0.093 0.006s-0.065-0.002-0.096-0.006l0.004 0c-0.297-0.066-0.555-0.206-0.761-0.401l0.001 0.001c-0.065-0.055-0.105-0.075-0.175 0-0.365 0.405-0.735 0.805-1.105 1.205-0.045 0.045-0.072 0.107-0.072 0.176 0 0.021 0.003 0.041 0.008 0.061l-0-0.002c0.056 0.358 0.088 0.771 0.088 1.192 0 0.616-0.068 1.216-0.198 1.792l0.010-0.054c-0.383 1.69-1.076 3.175-2.023 4.463l0.023-0.033c-0.090 0.118-0.143 0.268-0.143 0.43 0 0.025 0.001 0.049 0.004 0.073l-0-0.003c0.050 0.675 0.16 1.335 0.275 2 0.015 0.113 0.088 0.206 0.188 0.249l0.002 0.001c1.336 0.652 2.486 1.423 3.518 2.326l-0.018-0.016c0.171 0.179 0.354 0.343 0.549 0.492l0.011 0.008 0.86 0.89c0.070 0.070 0.070 0.105 0 0.175-1.023 0.914-2.17 1.725-3.405 2.397l-0.095 0.048c-0.047 0.024-0.102 0.038-0.16 0.038-0.016 0-0.031-0.001-0.046-0.003l0.002 0c-0.337-0.060-0.632-0.211-0.866-0.426l0.001 0.001c-1.166-0.939-2.556-1.653-4.073-2.053l-0.077-0.017c-0.509-0.14-1.113-0.25-1.733-0.307l-0.042-0.003c-0.356-0.039-0.77-0.061-1.188-0.061-0.066 0-0.131 0.001-0.197 0.002l0.010-0c-1.506 0.040-2.925 0.371-4.217 0.938l0.072-0.028c-1.082 0.486-2.015 1.068-2.857 1.758l0.022-0.018c-0.146 0.138-0.345 0.223-0.563 0.223-0.15 0-0.29-0.040-0.411-0.11l0.004 0.002c-1.251-0.7-2.332-1.472-3.32-2.347l0.019 0.017c-0.125-0.11-0.13-0.17 0-0.285 0.275-0.27 0.535-0.555 0.8-0.83 0.055 0 0.080-0.040 0.11-0.070 1.211-1.136 2.61-2.091 4.142-2.809l0.098-0.041c0.062-0.024 0.108-0.078 0.12-0.144l0-0.001c0.23-0.82 0.362-1.762 0.362-2.734 0-0.462-0.030-0.917-0.088-1.364l0.006 0.053c-0.202-1.56-0.638-2.976-1.275-4.275l0.036 0.080c-0.045-0.1-0.090-0.115-0.19-0.095-0.53 0.125-1.055 0.23-1.585 0.345-0.070 0-0.14 0-0.155-0.080-0.080-0.44-0.175-0.88-0.225-1.325-0.030-0.245-0.040-0.5-0.060-0.74-0.045-0.595-0.105-1.185-0.15-1.775-0.005-0.138-0.053-0.265-0.131-0.367l0.001 0.002c-0.395-0.5-0.81-1-1.185-1.5s-0.655-0.94-0.94-1.44-0.64-1.11-0.88-1.67c-0.466-0.969-0.816-2.094-0.992-3.275l-0.008-0.065c0.349-0.55 0.7-1.025 1.080-1.474l-0.015 0.019c0.175-0.205 0.36-0.42 0.54-0.63 0 0.31 0.045 0.62 0.070 0.93 0.065 0.707 0.198 1.356 0.393 1.977l-0.018-0.067c0.286 1.058 0.727 1.985 1.304 2.809l-0.019-0.028c0.269 0.378 0.602 0.692 0.986 0.932l0.014 0.008c0.252 0.161 0.559 0.257 0.889 0.257 0.029 0 0.057-0.001 0.085-0.002l-0.004 0c0.115 0 0.24-0.025 0.295-0.155s-0.040-0.235-0.12-0.32c-0.159-0.159-0.353-0.282-0.569-0.357l-0.011-0.003c-0.487-0.207-0.825-0.675-0.84-1.223v-0.002c-0.014-0.072-0.022-0.154-0.022-0.239 0-0.479 0.262-0.897 0.651-1.118l0.006-0.003c0.218-0.143 0.486-0.228 0.773-0.228 0.246 0 0.477 0.062 0.679 0.172l-0.008-0.004c0.403 0.26 0.666 0.706 0.666 1.214 0 0.046-0.002 0.092-0.006 0.136l0-0.006c-0.026 0.275-0.086 0.527-0.177 0.765l0.007-0.020c-0.073 0.167-0.121 0.361-0.135 0.565l-0 0.005c0 0.125-0.030 0.275 0.11 0.335s0.23-0.040 0.315-0.135c0.219-0.235 0.401-0.508 0.537-0.806l0.008-0.019c0.11-0.24 0.205-0.5 0.305-0.73 0 0.070 0 0.14 0 0.21-0.005 0.183-0.008 0.398-0.008 0.615 0 0.736 0.036 1.464 0.106 2.181l-0.007-0.091c0.134 1.189 0.37 2.268 0.703 3.304l-0.033-0.119c0.513 1.595 1.177 2.981 1.998 4.255l-0.043-0.070c0.388 0.576 0.725 1.236 0.98 1.936l0.020 0.064c0.092 0.22 0.146 0.475 0.146 0.743 0 0.055-0.002 0.11-0.007 0.164l0.001-0.007c-0.075 0.471-0.251 0.89-0.506 1.249l0.006-0.009c-0.335 0.5-0.755 0.9-1.115 1.365-0.238 0.263-0.428 0.573-0.554 0.915l-0.006 0.020c-0.009 0.026-0.014 0.055-0.014 0.086 0 0.058 0.018 0.111 0.050 0.155l-0.001-0.001c0.040 0.075 0.11 0 0.165 0 1.251-0.361 2.689-0.568 4.175-0.568 0.114 0 0.229 0.001 0.342 0.004l-0.017-0c0.24 0 0.5 0 0.715 0.040 0.445 0.045 0.89 0.080 1.33 0.155 0.682 0.111 1.262 0.243 1.829 0.407l-0.109-0.027c0.11 0.030 0.135 0 0.14-0.11 0-0.009 0-0.019 0-0.029 0-0.16-0.043-0.311-0.118-0.44l0.002 0.004c-0.212-0.351-0.443-0.656-0.703-0.933l0.003 0.003c-0.394-0.428-0.754-0.901-1.067-1.405l-0.023-0.040c-0.177-0.296-0.282-0.652-0.282-1.033 0-0.254 0.047-0.497 0.131-0.721l-0.005 0.014c0.332-0.859 0.715-1.597 1.168-2.285l-0.028 0.045c0.842-1.348 1.527-2.907 1.972-4.564l0.028-0.121c0.185-0.646 0.346-1.434 0.451-2.239l0.009-0.086z"
  />
  <path d="M4.14 9.99v0 0z" />
  <path
    d="M21.58 7.75c-0.013 0.785-0.11 1.54-0.284 2.266l0.014-0.071c-0.215 0.984-0.454 1.809-0.741 2.611l0.046-0.146c-0.458 1.354-1.026 2.526-1.719 3.611l0.039-0.066c-0.314 0.493-0.654 0.921-1.032 1.312l0.002-0.002c-0.431 0.474-1.009 0.809-1.661 0.932l-0.019 0.003c-0.079 0.011-0.17 0.018-0.262 0.018-0.326 0-0.634-0.081-0.904-0.223l0.011 0.005c-0.658-0.373-1.2-0.878-1.604-1.483l-0.011-0.017c-0.766-1.068-1.418-2.294-1.896-3.604l-0.034-0.106c-0.205-0.523-0.425-1.207-0.611-1.907l-0.034-0.148c-0.178-0.594-0.324-1.303-0.409-2.030l-0.006-0.060c-0.034-0.224-0.053-0.483-0.053-0.746 0-0.482 0.065-0.948 0.187-1.391l-0.009 0.037c0.153-0.464 0.412-0.857 0.748-1.168l0.002-0.002c0.676-0.605 1.502-1.056 2.415-1.291l0.040-0.009c0.44-0.131 0.952-0.222 1.48-0.254l0.020-0.001c0.229-0.021 0.496-0.032 0.766-0.032 0.073 0 0.147 0.001 0.22 0.003l-0.011-0c1.122 0.030 2.177 0.288 3.129 0.73l-0.049-0.020c0.626 0.288 1.155 0.684 1.586 1.17l0.004 0.005c0.288 0.349 0.487 0.782 0.558 1.256l0.002 0.014c0.051 0.239 0.080 0.514 0.080 0.796 0 0.003 0 0.006 0 0.009v-0zM15.875 3.9c-0.010-0-0.021-0-0.033-0-0.359 0-0.711 0.031-1.053 0.090l0.037-0.005c-0.678 0.087-1.294 0.268-1.864 0.531l0.040-0.016c-0.584 0.243-1.082 0.581-1.5 1l-0 0c-0.192 0.191-0.348 0.418-0.455 0.671l-0.005 0.014c-0.156 0.439-0.246 0.945-0.246 1.472 0 0.186 0.011 0.369 0.033 0.55l-0.002-0.022c0.078 0.753 0.229 1.441 0.45 2.098l-0.020-0.068c0.352 1.097 0.758 2.037 1.244 2.927l-0.044-0.087c0.437 0.851 0.979 1.579 1.623 2.203l0.002 0.002c0.371 0.356 0.828 0.626 1.337 0.774l0.023 0.006c0.177 0.049 0.38 0.076 0.59 0.076 0.448 0 0.866-0.127 1.22-0.347l-0.010 0.006c0.586-0.358 1.074-0.816 1.455-1.355l0.010-0.015c0.419-0.553 0.804-1.177 1.126-1.838l0.029-0.067c0.381-0.768 0.734-1.678 1.006-2.622l0.029-0.118c0.168-0.559 0.279-1.205 0.309-1.873l0.001-0.017c0.003-0.068 0.005-0.149 0.005-0.229 0-0.21-0.013-0.417-0.038-0.62l0.002 0.024c-0.046-0.327-0.126-0.622-0.239-0.9l0.009 0.025c-0.209-0.438-0.521-0.798-0.906-1.059l-0.009-0.006c-0.373-0.29-0.803-0.533-1.266-0.709l-0.034-0.011c-0.83-0.307-1.789-0.485-2.789-0.485-0.023 0-0.046 0-0.069 0h0.004z"
  />
  <path
    d="M19.68 3.97v0.445c0 0.090-0.035 0.125-0.125 0.075-0.486-0.24-1.053-0.444-1.645-0.584l-0.055-0.011c-0.263-0.064-0.585-0.119-0.913-0.152l-0.032-0.003c-0.238-0.025-0.513-0.039-0.792-0.039-0.089 0-0.177 0.001-0.265 0.004l0.013-0c-1.223 0.002-2.38 0.282-3.412 0.78l0.047-0.021c-0.18 0.080-0.185 0.080-0.185-0.115-0.009-0.117-0.014-0.252-0.014-0.389 0-0.365 0.036-0.721 0.105-1.065l-0.006 0.034c0.108-0.59 0.618-1.031 1.231-1.031 0.132 0 0.259 0.020 0.378 0.058l-0.009-0.002c0.245 0.035 0.235 0.050 0.195-0.205-0.029-0.187-0.089-0.356-0.174-0.508l0.004 0.008c-0.078-0.209-0.27-0.357-0.498-0.37l-0.002-0c-0.156-0.020-0.297-0.073-0.419-0.152l0.004 0.002c-0.080-0.045-0.17-0.095-0.17-0.19s0.095-0.14 0.17-0.185c0.167-0.082 0.361-0.142 0.566-0.169l0.009-0.001c0.607-0.108 1.312-0.175 2.031-0.185l0.009-0c0.405 0 0.805 0 1.21 0 0.658 0.009 1.288 0.116 1.88 0.308l-0.045-0.013c0.125 0.040 0.28 0.1 0.29 0.235s-0.15 0.19-0.26 0.245c-0.145 0.067-0.314 0.116-0.491 0.139l-0.009 0.001c-0.112 0.012-0.209 0.072-0.269 0.159l-0.001 0.001c-0.158 0.213-0.263 0.475-0.29 0.759l-0 0.006c0 0.11 0 0.155 0.145 0.115 0.119-0.031 0.255-0.049 0.395-0.049s0.276 0.018 0.406 0.051l-0.011-0.002c0.469 0.098 0.83 0.47 0.909 0.938l0.001 0.007c0.067 0.244 0.105 0.525 0.105 0.814 0 0.090-0.004 0.179-0.011 0.267l0.001-0.012z"
  />
</svg>
