<svg xmlns="http://www.w3.org/2000/svg" viewBox="0 0 512 512">
  <!--        <path-->
  <!--          d="M24.205 0.21c-0.35 0-0.7-0.065-1.055-0.090-0.5-0.035-1.045-0.070-1.57-0.090s-1.080-0.030-1.645-0.030c-0.044-0.001-0.096-0.001-0.148-0.001-0.998 0-1.957 0.171-2.847 0.485l0.060-0.018c-1.442 0.493-2.614 1.462-3.354 2.716l-0.016 0.029c-0.437 0.746-0.756 1.618-0.904 2.547l-0.006 0.043c-0.086 0.509-0.135 1.095-0.135 1.693 0 0.032 0 0.065 0 0.097l-0-0.005c0 1.33 0 2.66 0 4 0 0.045 0 0.090 0 0.14h-4.9v5.7h4.895v14.575h5.92v-14.58h4.885c0.245-1.905 0.5-3.795 0.735-5.7h-5.62c-0.001-0.016-0.002-0.036-0.002-0.055s0.001-0.039 0.002-0.058l-0 0.003c0-1.285 0-2.575 0-3.86 0-0.003-0-0.006-0-0.010 0-0.41 0.079-0.802 0.222-1.161l-0.007 0.021c0.204-0.53 0.633-0.933 1.167-1.097l0.013-0.003c0.36-0.118 0.774-0.185 1.204-0.185 0.021 0 0.043 0 0.064 0l-0.003-0h3.030c0.125 0 0.125 0 0.125-0.12v-4.855c0-0.080-0.010-0.125-0.11-0.13z"-->
  <!--        />-->
  <path
    d="M504 256C504 119 393 8 256 8S8 119 8 256c0 123.78 90.69 226.38 209.25 245V327.69h-63V256h63v-54.64c0-62.15 37-96.48 93.67-96.48 27.14 0 55.52 4.84 55.52 4.84v61h-31.28c-30.8 0-40.41 19.12-40.41 38.73V256h68.78l-11 71.69h-57.78V501C413.31 482.38 504 379.78 504 256z"
  />
</svg>
