<svg xmlns="http://www.w3.org/2000/svg" viewBox="0 0 258.32 253">
  <path
    class="cls-2"
    d="M129.16,11.09c-62.05,0-112.35,49.08-112.35,109.62,0,33.35,15.27,63.23,39.36,83.33l-1.09,27.09c-.32,7.95,8.09,13.27,15.14,9.57l27.85-14.62c9.87,2.77,20.31,4.26,31.09,4.26,62.05,0,112.35-49.08,112.35-109.62S191.21,11.09,129.16,11.09Z"
  />
  <path
    d="M187.07,92.04l-28.83,21.92c-.94,.72-3.47,2.38-6.3,4.36-1.61-.25-3.29-.32-5.05-.15l-.23,.02-22.91-16.77c-.41-.3-.85-.55-1.3-.75-.48-.46-.98-.9-1.52-1.33h0c-8.12-6.37-19.79-5.36-26.69,2.32h0c-.85,.95-1.58,1.94-2.21,2.96-.01,.02-.03,.03-.04,.05l-29.87,48.47c-3.27,5.23,3.13,11.1,8.06,7.4l28.97-21.73c1.09-.82,3.87-2.61,6.7-4.63,1.36,.19,2.78,.24,4.25,.14l23.69,17.34c.32,.23,.65,.43,.99,.6,.38,.34,.78,.68,1.2,1.01l.39,.3c8.16,6.32,19.82,5.23,26.67-2.49l.33-.37c1.36-1.53,2.41-3.16,3.2-4.85,.08-.08,.16-.17,.22-.27l28.38-46.2c3.24-5.25-3.2-11.08-8.11-7.35Z"
    style="fill: #fff"
  />
</svg>
