<svg xmlns="http://www.w3.org/2000/svg" viewBox="0 0 32 32">
  <path
    d="M15.080 27.653l-7.080 3.44c-0.232 0.124-0.508 0.196-0.801 0.196-0.957 0-1.733-0.776-1.733-1.733 0-0.079 0.005-0.156 0.015-0.232l-0.001 0.009 1.093-8c0.012-0.076 0.019-0.164 0.019-0.253 0-0.456-0.18-0.869-0.473-1.174l0.001 0.001-5.613-5.907c-0.299-0.311-0.483-0.734-0.483-1.2 0-0.85 0.612-1.557 1.419-1.705l0.011-0.002 8-1.44c0.53-0.093 0.968-0.421 1.209-0.871l0.004-0.009 3.84-7.133c0.295-0.548 0.865-0.915 1.52-0.915s1.225 0.367 1.515 0.906l0.005 0.009 3.787 7.133c0.245 0.459 0.683 0.787 1.203 0.879l0.010 0.001 8 1.44c0.818 0.15 1.429 0.857 1.429 1.706 0 0.466-0.184 0.889-0.483 1.201l0.001-0.001-5.613 5.853c-0.297 0.305-0.48 0.722-0.48 1.181 0 0.106 0.010 0.209 0.028 0.309l-0.002-0.010 1.093 8c0.009 0.067 0.014 0.144 0.014 0.223 0 0.957-0.776 1.733-1.733 1.733-0.293 0-0.569-0.073-0.81-0.201l-7.111-3.435c-0.264-0.127-0.573-0.201-0.9-0.201s-0.636 0.074-0.913 0.206l0.013-0.006z"
  />
</svg>
