<svg xmlns="http://www.w3.org/2000/svg" viewBox="0 0 32 32">
  <path
    d="M10.253 9.947c0.456 0.268 1.005 0.426 1.591 0.426 1.76 0 3.187-1.427 3.187-3.187s-1.427-3.187-3.187-3.187c-1.176 0-2.204 0.638-2.756 1.586l-0.008 0.015c-0.266 0.455-0.422 1.002-0.422 1.586 0 1.174 0.635 2.2 1.581 2.753l0.015 0.008z"
  />
  <path
    d="M32 15.213h-12v-1.88c-1.29 0.005-2.405 0.744-2.951 1.821l-0.009 0.019h-2.587c-0.848-1.321-2.185-2.264-3.749-2.58l-0.037-0.006c-0.599-0.129-1.129-0.331-1.617-0.602l0.030 0.015c-0.7-0.411-1.279-0.952-1.722-1.595l-0.012-0.018c-0.486-0.732-1.059-1.356-1.717-1.881l-0.016-0.013-0.693-0.493c-0.564-0.448-0.922-1.134-0.922-1.904 0-0.038 0.001-0.077 0.003-0.114l-0 0.005v-5.987h-3.4v6.32c0.010 1.67 0.814 3.151 2.054 4.084l0.013 0.009 2.493 1.867-0.907 4.48c-0.038 0.188-0.060 0.405-0.060 0.627s0.022 0.438 0.063 0.648l-0.003-0.021-0.92 2.32c-0.844 2.071-1.333 4.475-1.333 6.992 0 0.017 0 0.034 0 0.050v-0.003 4.627h3.333v-5.72c0-0.005 0-0.011 0-0.017 0-1.325 0.265-2.589 0.744-3.741l-0.024 0.065 0.76-1.92h0.080l0.547 0.107c0.16 0.025 0.345 0.040 0.533 0.040s0.373-0.015 0.553-0.042l-0.020 0.003 3.827 3.467c0.205 0.188 0.333 0.458 0.333 0.757 0 0.001 0 0.002 0 0.003v-0 7h3.333v-6.467c-0.001-1.359-0.563-2.587-1.466-3.466l-0.001-0.001-3.427-3.24c0.070-0.169 0.138-0.378 0.193-0.593l0.007-0.034 0.253-1.333 0.213 0.333c0.503 0.804 1.383 1.331 2.386 1.333h3c0.602 0.89 1.608 1.468 2.748 1.468 0.032 0 0.064-0 0.096-0.001l-0.005 0v-1.453h12z"
  />
</svg>
