<svg xmlns="http://www.w3.org/2000/svg" viewBox="0 0 32 32">
  <path
    d="M15.214 23.739c-0.648 1.212-1.682 2.147-2.935 2.653l-0.039 0.014c-0.507 0.183-1.091 0.289-1.7 0.289-0.838 0-1.63-0.2-2.329-0.556l0.029 0.014c-1.25-0.598-2.202-1.65-2.656-2.937l-0.011-0.036c-0.186-0.514-0.294-1.108-0.294-1.727 0-0.827 0.192-1.609 0.534-2.304l-0.014 0.031c0.211-0.373 0.335-0.819 0.335-1.293s-0.124-0.921-0.342-1.307l0.007 0.013c-0.469-0.805-1.328-1.338-2.312-1.338-1.079 0-2.008 0.64-2.428 1.562l-0.007 0.017c-0.674 1.351-1.069 2.943-1.069 4.627 0 5.826 4.723 10.549 10.549 10.549 4.142 0 7.726-2.387 9.452-5.861l0.028-0.061 8.2-17.84-3.587-1.787c-3.027 5.747-7.28 13.773-9.413 17.28z"
  />
  <path d="M28.014-0.008s-0.853 1.653-2.147 4.107l3.48 1.733 2.667-5.84z" />
  <path
    d="M15.014 18.032c1.405-0.822 2.334-2.323 2.334-4.042 0-2.577-2.089-4.667-4.667-4.667s-4.667 2.089-4.667 4.667c0 0.86 0.233 1.665 0.638 2.357l-0.012-0.022c0.822 1.404 2.323 2.332 4.040 2.332 0.859 0 1.664-0.232 2.355-0.637l-0.022 0.012z"
  />
</svg>
