<svg xmlns="http://www.w3.org/2000/svg" viewBox="0 0 32 32">
  <path
    d="M16 0c-8.837 0-16 7.163-16 16s7.163 16 16 16c8.837 0 16-7.163 16-16v0c0-8.837-7.163-16-16-16v0zM15.493 9.107h7.173l-0.8 2.027h-3.44v1.893h2.827l-0.787 2.027h-2.040v3.36h-2.933zM10.587 9.107h2.907v9.333h-2.907zM2.587 9.107h7.107l-0.76 2.027h-3.44v1.893h2.827l-0.787 2.027h-2.040v3.36h-2.947zM27.92 22.893h-23.733v-2.213h23.627zM27.733 17.147h-3.36l-0.373 1.253h-2.787l3.32-9.333h3.013l3.373 9.333h-2.92z"
  />
  <path d="M24.867 15.373h2.28l-1.16-3.88-1.12 3.88z" />
</svg>
