<svg xmlns="http://www.w3.org/2000/svg" viewBox="0 0 32 32">
  <path
    d="M30 30h-2.25c-0.966 0-1.75-0.784-1.75-1.75v0-3.815l5-0.435 0.77-2.315c-1.245 0-7.41 0.205-12.27 1.63v1.685l4-0.35v3.6c0 0.966-0.784 1.75-1.75 1.75v0h-9c-0.966 0-1.75-0.784-1.75-1.75v0-3.060c-1 0.055-2 0.080-3 0.090v2.97c0 0.966-0.784 1.75-1.75 1.75v0h-0.125c-1.386 0-2.616-0.663-3.392-1.689l-0.008-0.011c-0.141-0.2-0.225-0.449-0.225-0.717 0-0.001 0-0.002 0-0.003v0c-0.027-0.601-0.52-1.078-1.125-1.080h-0.25c-0.621 0-1.125 0.504-1.125 1.125v0 0.5c0.001 0.246 0.079 0.473 0.212 0.658l-0.002-0.003 1 1.4c0.789 1.097 2.062 1.803 3.5 1.805h27.29c-0.009-1.098-0.901-1.985-2-1.985 0 0 0 0 0 0v0z"
  />
  <path
    d="M31 11c-0.5-1.315-1.5-6.82-1.5-6.82-2.435-3.18-6.24-4.735-12-4 0.039 0.457 0.061 0.99 0.061 1.528s-0.022 1.070-0.066 1.596l0.005-0.069 3.12 0.765-0.24 1-2.975-0.76c-0.084 0.667-0.189 1.241-0.323 1.804l0.023-0.114 2.59 1.11-0.39 0.92-2.465-1.055c-0.186 0.607-0.389 1.119-0.629 1.61l0.029-0.065 2.070 1.66-0.62 0.78-1.935-1.55c-0.373 0.599-0.798 1.116-1.281 1.571l-0.004 0.004 1.42 1.775-0.78 0.62-1.425-1.775c-0.341 0.236-0.731 0.452-1.141 0.628l-0.044 0.017c-0.255 0.105-0.5 0.205-0.77 0.3l0.735 1.835-0.93 0.37-0.75-1.87c-5.46 1.805-10.785 1.865-10.785 8.365v1.155c0 0.070 0 0.14 0 0.21 0.165 0.915 1.36 1.675 2.35 1.69h0.62c4.13 0.075 11.050 0.19 13.81-1.025 5.645-2.465 14.815-2.53 15.22-2.53 0-1.74-0.155-7.565-1-9.68z"
  />
</svg>
