<svg xmlns="http://www.w3.org/2000/svg" viewBox="0 0 32 32">
  <path
    d="M3.145 23.492v-2.935h-1.468v-6.776s1.232-0.254 1.232-0.29c1.631-5.109 3.732-8.044 7.301-10.255-1.939 0.942-3.895 1.884-5.834 2.826-0.145 0.109-0.29 0.236-0.435 0.362-0.308 0.29-0.544 0.58-0.725 0.852-0.942 1.395-1.902 3.116-2.645 5.182-0.217 0.58-0.399 1.141-0.544 1.685v7.483l1.993 5.997c0.109 0.254 0.254 0.525 0.453 0.779 0.435 0.29 1.105 0.707 1.739 1.069 0.525 0.29 1.051 0.507 1.522 0.689-0.435-0.888-0.87-1.866-1.286-2.899-0.525-1.323-0.942-2.573-1.286-3.732z"
  />
  <path
    d="M30.739 8.291c-0.942-2.138-2.247-3.696-3.316-4.765 0.072-0.308 0.127-0.562 0.163-0.761 0.054-0.236 0.054-0.308 0.036-0.399-0.091-0.29-0.453-0.417-0.616-0.453-1.341-0.399-3.334-0.833-5.761-0.833-2.138 0-7.12-0.036-10.853 3.243-1.413 1.232-2.355 2.7-3.479 4.457-1.105 1.721-1.631 3.279-2.12 4.403 0 0.054 0 10.182 0 10.074l2.229 6.106c0.181 0.199 0.489 0.507 0.96 0.67 0 0 0.525 0.181 1.178 0.054 0.96-0.181 9.005-2.736 19.912-6.341 0.525-0.707 1.051-1.413 1.558-2.138 0.598-1.449 2.772-7.302 0.091-13.335zM15.538 15.973c-3.714 3.696-9.168 5.761-9.313 5.888 0 0 0 0 0 0-0.109 0 0-8.733 0-8.733 2.174-0.906 6.577-2.536 11.052-4.403 0.199-0.091 0.924 0.507 1.25 1.304 0.852 2.102-1.939 4.874-2.989 5.925z"
  />
</svg>
