<svg xmlns="http://www.w3.org/2000/svg" viewBox="0 0 32 32">
  <path
    d="M31.999 0.003h-3.52l-12.2 24.76c-1.861 0.354-4.001 0.557-6.189 0.557-3.37 0-6.628-0.481-9.709-1.378l0.245 0.061c-0.396 0.988-0.625 2.134-0.625 3.333s0.229 2.345 0.647 3.396l-0.022-0.062c2.903 0.843 6.238 1.328 9.687 1.328s6.783-0.485 9.941-1.39l-0.254 0.062c0.232-0.883 0.366-1.896 0.366-2.94s-0.133-2.058-0.384-3.023l0.018 0.083zM5.333 28.936c-0.853-0.133-1.693-0.28-2.533-0.467-0.079-0.37-0.127-0.798-0.133-1.235l-0-0.005c0.893 0.187 1.773 0.32 2.667 0.44zM11.999 29.336c-0.56 0-1.12 0-1.68 0-0.773 0-1.56 0-2.333-0.093v-1.24c0.72 0 1.453 0.067 2.187 0.067v0c0.613 0 1.227 0 1.827 0zM17.666 28.563c-1 0.227-2 0.387-3 0.52v-1.333c1-0.133 2.013-0.28 3.027-0.493 0.008 0.135 0.012 0.293 0.012 0.452 0 0.282-0.014 0.561-0.042 0.836l0.003-0.035z"
  />
  <path
    d="M10.999 18.043c1.405-0.822 2.334-2.323 2.334-4.042 0-2.577-2.089-4.667-4.667-4.667s-4.667 2.089-4.667 4.667c0 0.86 0.233 1.665 0.638 2.357l-0.012-0.022c0.822 1.404 2.323 2.332 4.040 2.332 0.859 0 1.664-0.232 2.355-0.637l-0.022 0.012z"
  />
</svg>
