<svg xmlns="http://www.w3.org/2000/svg" viewBox="0 0 32 32">
  <path
    d="M26.667 4h1.333c0.736 0 1.333 0.597 1.333 1.333v4c0 0.736-0.597 1.333-1.333 1.333h-1.333c-0.736 0-1.333-0.597-1.333-1.333v-4c0-0.736 0.597-1.333 1.333-1.333z"
  />
  <path
    d="M25.333 20h1.333c0.736 0 1.333 0.597 1.333 1.333v4c0 0.736-0.597 1.333-1.333 1.333h-1.333c-0.736 0-1.333-0.597-1.333-1.333v-4c0-0.736 0.597-1.333 1.333-1.333z"
  />
  <path
    d="M4 4h1.333c0.736 0 1.333 0.597 1.333 1.333v4c0 0.736-0.597 1.333-1.333 1.333h-1.333c-0.736 0-1.333-0.597-1.333-1.333v-4c0-0.736 0.597-1.333 1.333-1.333z"
  />
  <path
    d="M5.333 20h1.333c0.736 0 1.333 0.597 1.333 1.333v4c0 0.736-0.597 1.333-1.333 1.333h-1.333c-0.736 0-1.333-0.597-1.333-1.333v-4c0-0.736 0.597-1.333 1.333-1.333z"
  />
  <path
    d="M21.333 19.373c2.347-1.263 3.917-3.701 3.92-6.506v-1.12l-2.587-1.080v-6.667l2.667-4h-18.667l2.667 4v6.667l-2.6 1.080v1.107c0.017 2.801 1.588 5.231 3.894 6.474l0.039 0.019 2.667 9.987-5.333-1.333v4h16v-4l-5.333 1.333zM12.653 19.373l1.693-8.36h-3.387l8.4-8.347-1.693 8.373h3.373z"
  />
</svg>
