<svg xmlns="http://www.w3.org/2000/svg" viewBox="0 0 32 32">
  <path
    d="M22.87 2.585c-0.15 0.88-0.29 1.725-0.455 2.685h5.585c-0.13 1.326-0.323 2.507-0.582 3.663l0.037-0.198c-0.555 2-0.195 4.035-0.090 6.045 0.155 2.97 0.415 5.935 0.645 9.1l-10.070-0.645v3.915l-8.44 1.7v-4.795l-5.5 1.61 0.43-6.585c0.155-2.345 0.44-4.695 0.435-7.045 0-1.65-0.385-3.3-0.605-4.95-0.11-0.55-0.19-1.085-0.26-1.79h5.39c0.040-0.94 0.080-1.805 0.125-2.71h13.355zM25.925 0h-18.88l-0.115 2.465v0.245h-5.93l0.4 2.93 0.1 0.65c0.060 0.405 0.105 0.77 0.155 1.13 0.070 0.545 0.16 1.080 0.245 1.6 0.177 0.878 0.299 1.91 0.339 2.963l0.001 0.037c0 1.5-0.125 3.050-0.26 4.67-0.060 0.715-0.12 1.46-0.17 2.2-0.1 1.5-0.195 2.965-0.295 4.5l-0.13 2.11-0.24 3.68 5.76-1.68v4.5l13.62-2.73v-3.27l3.41 0.215 6.885 0.445-0.215-2.955c-0.070-0.965-0.145-1.91-0.215-2.84-0.165-2.145-0.325-4.175-0.43-6.215-0.025-0.465-0.060-0.925-0.095-1.37-0.12-1.45-0.215-2.705 0.1-3.855 0.2-0.757 0.364-1.667 0.459-2.598l0.006-0.077c0.040-0.355 0.085-0.715 0.14-1.085l0.43-2.975h-5.53l0.455-2.69z"
  />
  <path
    d="M16.255 12.9h3.040v4.6h-2.325c-0.795 0-0.795 0-0.795 0.785 0 2.31 0 4.62 0 6.93 0 0.335-0.080 0.465-0.435 0.525-1.325 0.225-2.64 0.5-3.96 0.74-0.106 0.019-0.23 0.032-0.357 0.035l-0.003 0v-21.985c0.155 0 0.295 0 0.435 0 2.65 0 5.3 0 7.95 0 0.375 0 0.465 0.11 0.425 0.47-0.145 1.4-0.265 2.8-0.4 4.27h-3.33c-0.18 0-0.34 0-0.34 0.255 0 1.095 0 2.195 0 3.29 0.030-0.015 0.055 0.010 0.095 0.085z"
  />
</svg>
