<svg xmlns="http://www.w3.org/2000/svg" viewBox="0 0 32 32">
  <path
    d="M11.755 7.442c0.955-0.562 1.585-1.585 1.585-2.755 0-1.76-1.427-3.187-3.187-3.187s-3.187 1.427-3.187 3.187c0 0.587 0.159 1.138 0.436 1.61l-0.008-0.015c0.561 0.958 1.586 1.592 2.759 1.592 0.59 0 1.142-0.16 1.616-0.44l-0.015 0.008z"
  />
  <path
    d="M22.075 21.122l-1.987 1.147 4.84 1.333 1.373-0.787 5.68-3.28-1.787-3.107-8.12 4.693z"
  />
  <path
    d="M18.781 24.002l-6.6-1.84 1.133-3.493c0.272-0.977 1.154-1.682 2.2-1.682 0.033 0 0.065 0.001 0.098 0.002l-0.005-0c-0.642 0.646-1.040 1.536-1.040 2.52 0 0.476 0.093 0.929 0.261 1.344l-0.009-0.024 4.84 1.333-1.533-2.667 3.187-1.773c1.087-0.63 1.806-1.788 1.806-3.114 0-0.655-0.175-1.269-0.482-1.797l0.009 0.017-2.227-3.72c3.467-1.233 5.905-4.485 5.907-8.306v-0.8h-3.333v0.8c-0.007 2.818-2.151 5.133-4.897 5.411l-0.023 0.002c-0.453-0.226-0.987-0.358-1.552-0.358-0.645 0-1.25 0.172-1.772 0.473l0.017-0.009-0.12 0.080c-0.975 0.566-1.642 1.57-1.733 2.735l-0.001 0.012-0.387 0.187c-1.259 0.731-2.77 1.162-4.381 1.162-1.368 0-2.663-0.311-3.819-0.865l0.053 0.023-1.427 3.040c1.519 0.732 3.304 1.159 5.188 1.159 2.162 0 4.193-0.563 5.954-1.551l-0.061 0.032 0.773 1.333c-2.228 0.299-4.021 1.877-4.63 3.961l-0.010 0.039-1.2 3.667-3.653-1.067c-1.008-0.284-1.734-1.195-1.734-2.275 0-0.234 0.034-0.461 0.098-0.675l-0.004 0.017-3.44-0.907c-0.137 0.475-0.216 1.021-0.216 1.585 0 2.711 1.822 4.996 4.308 5.698l0.042 0.010 1.853 0.507 0.84 0.227 6.253 1.733 4.533 1.24 0.307 0.093 2.413 0.667 6.32 1.733 0.947-3.44-9.053-2.48z"
  />
  <path
    d="M9.968 28.108c-0.337 0.2-0.743 0.318-1.176 0.318-0.861 0-1.613-0.466-2.018-1.16l-0.006-0.011-3.093 1.787c1.040 1.78 2.941 2.957 5.117 2.957 1.091 0 2.113-0.296 2.99-0.812l-0.028 0.015 2.427-1.387 1.533-0.893-4.84-1.333z"
  />
</svg>
