<svg xmlns="http://www.w3.org/2000/svg" viewBox="0 0 32 32">
  <path
    d="M23.85 23.845l-21.92-21.915-1.87 1.87 5.755 5.755c-2.386 1.703-4.338 3.856-5.764 6.348l-0.051 0.097c3.315 5.835 9.24 9.725 16 9.725 0.002 0 0.004 0 0.006 0 1.85 0 3.631-0.293 5.301-0.834l-0.121 0.034 5.115 5.115 1.87-1.87-4.32-4.32zM16.030 22.935c-3.828-0.006-6.93-3.111-6.93-6.94 0-0.95 0.191-1.856 0.537-2.681l-0.017 0.046 2.33 2.325c0 0.105 0 0.21 0 0.315 0 2.264 1.836 4.1 4.1 4.1v0h0.315l2.325 2.325c-0.772 0.323-1.668 0.51-2.609 0.51-0.018 0-0.036-0-0.054-0l0.003 0z"
  />
  <path
    d="M16.030 9.065c0 0 0.001 0 0.001 0 3.83 0 6.935 3.105 6.935 6.935 0 0.969-0.199 1.892-0.558 2.73l0.017-0.045 3.765 3.765c2.382-1.707 4.332-3.861 5.759-6.353l0.051-0.097c-3.315-5.835-9.24-9.725-16-9.725-1.852 0.003-3.636 0.295-5.308 0.834l0.123-0.034 2.535 2.53c0.791-0.341 1.712-0.54 2.68-0.54h0z"
  />
  <path
    d="M15.66 11.92l4.45 4.45c0-0.125 0-0.245 0-0.37 0-2.264-1.836-4.1-4.1-4.1v0c-0.105 0-0.225 0.010-0.35 0.020z"
  />
</svg>
