<svg xmlns="http://www.w3.org/2000/svg" viewBox="0 0 32 32">
  <path
    d="M12.445 23.82l2.135 3.2 9.92-5.52-3.52-5.145-8.535 7.465z"
    fill="#fed100"
    style="fill: #fed100"
  />
  <path
    d="M8.7 10.41c-1.82 0.92-2.545 3.11-1.795 7.305s3.12 5.285 3.85 5.82 5.665 3.075 10.025-1.865-2.245-13.5-2.245-13.5-8.035 1.33-9.835 2.24z"
    fill="#fed100"
    style="fill: #fed100"
  />
  <path
    d="M1 2.875c-0.6 0.31-1.003 0.926-1.003 1.636 0 0.303 0.073 0.588 0.203 0.84l-0.005-0.010 7.455 14.755c0.064 0.128 0.195 0.215 0.345 0.215 0.066 0 0.128-0.017 0.182-0.046l-0.002 0.001 2.575-1.295c0.13-0.067 0.217-0.199 0.217-0.353 0-0.065-0.016-0.126-0.043-0.18l0.001 0.002-7.425-14.755c-0.305-0.611-0.926-1.023-1.643-1.023-0.314 0-0.609 0.079-0.867 0.218l0.010-0.005z"
    fill="#fed100"
    style="fill: #fed100"
  />
  <path
    d="M8.5 0c-0.914 0.111-1.616 0.882-1.616 1.817 0 0.086 0.006 0.17 0.017 0.252l-0.001-0.010 2 16.12c0.022 0.197 0.187 0.348 0.388 0.348 0.017 0 0.033-0.001 0.049-0.003l-0.002 0 2.865-0.35c0.195-0.027 0.343-0.192 0.343-0.392 0-0.017-0.001-0.034-0.003-0.050l0 0.002-2-16.125c-0.11-0.918-0.884-1.623-1.823-1.623-0.077 0-0.152 0.005-0.226 0.014l0.009-0.001z"
    fill="#fed100"
    style="fill: #fed100"
  />
  <path
    d="M14.35 11.9l-2.31 0.6c-1.635 0.438-3.027 1.313-4.088 2.492l-0.007 0.008-1.345 1.5c-0.173 0.192-0.279 0.448-0.279 0.729 0 0.177 0.042 0.345 0.117 0.492l-0.003-0.006 0.29 0.565 8.73-5.345-0.050-0.335c-0.062-0.414-0.415-0.727-0.841-0.727-0.076 0-0.15 0.010-0.22 0.029l0.006-0.001z"
    fill="#ddae34"
    style="fill: #ddae34"
  />
  <path
    d="M14.901 14.098l-0.019 0.006c-0.962 0.301-1.986-0.236-2.286-1.198l-0.271-0.869c-0.301-0.962 0.236-1.986 1.198-2.286l0.019-0.006c0.962-0.301 1.986 0.236 2.286 1.198l0.271 0.869c0.301 0.962-0.236 1.986-1.198 2.286z"
    fill="#ddae34"
    style="fill: #ddae34"
  />
  <path
    d="M12.9 7.735c-0.75 0.24-1.284 0.931-1.284 1.747 0 0.196 0.031 0.384 0.088 0.561l-0.004-0.013 0.63 2.030c0.26 0.717 0.936 1.22 1.729 1.22 1.013 0 1.835-0.822 1.835-1.835 0-0.171-0.023-0.336-0.067-0.493l0.003 0.013-0.63-2.025c-0.238-0.753-0.931-1.29-1.749-1.29-0.197 0-0.387 0.031-0.564 0.089l0.013-0.004z"
    fill="#fed100"
    style="fill: #fed100"
  />
  <path
    d="M18.442 12.847l-0.019 0.006c-0.962 0.301-1.986-0.236-2.286-1.198l-0.312-0.997c-0.301-0.962 0.236-1.986 1.198-2.286l0.019-0.006c0.962-0.301 1.986 0.236 2.286 1.198l0.312 0.997c0.301 0.962-0.236 1.986-1.198 2.286z"
    fill="#ddae34"
    style="fill: #ddae34"
  />
  <path
    d="M16.545 6.805c-0.752 0.244-1.286 0.939-1.286 1.758 0 0.193 0.030 0.38 0.085 0.555l-0.004-0.013 0.535 1.71c0.26 0.717 0.936 1.22 1.729 1.22 1.013 0 1.835-0.822 1.835-1.835 0-0.171-0.023-0.336-0.067-0.493l0.003 0.013-0.53-1.72c-0.245-0.748-0.937-1.278-1.752-1.278-0.196 0-0.384 0.030-0.561 0.087l0.013-0.004z"
    fill="#fed100"
    style="fill: #fed100"
  />
  <path
    d="M15.335 12.845s1.405 1.73-1.14 3.925-3.090 2.93-3.090 2.93l-1.105-3.125z"
    fill="#ddae34"
    style="fill: #ddae34"
  />
  <path
    d="M14.19 12.145l-3.34 1.395c-0.841 0.357-1.559 0.85-2.159 1.459l-0.001 0.001-1.865 1.875c-0.264 0.27-0.426 0.64-0.426 1.048 0 0.294 0.084 0.567 0.23 0.799l-0.004-0.006 1.375 2.14s4.955 2.5 3.84-2.43c-0.5-2.145 1.27-1.1 2.905-3.295 0.76-1.025 0.85-1.805 0.725-2.35-0.101-0.413-0.468-0.714-0.905-0.714-0.136 0-0.265 0.029-0.381 0.082l0.006-0.002z"
    fill="#fed100"
    style="fill: #fed100"
  />
  <path
    d="M14.935 29.865l-1.78-3.2 11.025-7.11 2.485 3.91-11.73 6.4z"
    fill="#fff"
    style="fill: #fff"
  />
  <path
    d="M13.155 28.8l13.155-8.18 5.69 8v3.38h-17.065l-1.78-3.2z"
    fill="#de2a42"
    style="fill: #de2a42"
  />
  <path
    d="M27.375 24.18c0 0.588-0.477 1.065-1.065 1.065s-1.065-0.477-1.065-1.065c0-0.588 0.477-1.065 1.065-1.065s1.065 0.477 1.065 1.065z"
    fill="#fff"
    style="fill: #fff"
  />
</svg>
