<svg xmlns="http://www.w3.org/2000/svg" viewBox="0 0 32 32">
  <path
    d="M16 6.275c-6.76 0-12.685 3.89-16 9.725 3.315 5.835 9.24 9.725 16 9.725s12.685-3.89 16-9.725c-3.315-5.835-9.24-9.725-16-9.725zM16.030 22.935c-3.83 0-6.935-3.105-6.935-6.935s3.105-6.935 6.935-6.935c3.83 0 6.935 3.105 6.935 6.935v0c0 0.001 0 0.003 0 0.005 0 3.827-3.103 6.93-6.93 6.93-0.002 0-0.003 0-0.005 0h0z"
  />
  <path
    d="M20.13 16c0 2.264-1.836 4.1-4.1 4.1s-4.1-1.836-4.1-4.1c0-2.264 1.836-4.1 4.1-4.1s4.1 1.836 4.1 4.1z"
  />
</svg>
