<svg xmlns="http://www.w3.org/2000/svg" viewBox="0 0 32 32">
  <path
    d="M23.88 10.667c0-3.68-3.52-6.667-7.88-6.667s-7.88 2.987-7.88 6.667 3.52 6.667 7.88 6.667 7.88-2.987 7.88-6.667z"
  />
  <path
    d="M22.547 1.413c-1.923-0.893-4.174-1.414-6.547-1.414s-4.624 0.521-6.645 1.454l0.098-0.041c0.44 0.28 2.293 1.253 6.547 1.253s6.107-0.973 6.547-1.253z"
  />
  <path
    d="M6.053 10.667c1.056-1.751 1.681-3.865 1.681-6.125 0-0.747-0.068-1.479-0.199-2.188l0.011 0.074c-4.558 2.87-7.543 7.872-7.547 13.573v0.001c0.004 0.775 0.067 1.532 0.184 2.271l-0.011-0.084c2.373-2.096 4.34-4.586 5.812-7.379l0.068-0.141z"
  />
  <path
    d="M24.427 2.413c-0.118 0.634-0.185 1.362-0.185 2.107 0 2.267 0.624 4.388 1.709 6.201l-0.031-0.055c1.54 2.966 3.517 5.484 5.88 7.576l0.027 0.024c0.109-0.68 0.172-1.465 0.173-2.265v-0.002c-0.005-5.711-3.002-10.72-7.507-13.548l-0.067-0.039z"
  />
  <path
    d="M2.12 17.867c-0.692 0.701-1.207 1.579-1.471 2.56l-0.009 0.040c1.388 4.624 4.684 8.295 8.95 10.16l0.103 0.040c1.421-0.128 2.682-0.729 3.643-1.642l-0.003 0.002c2.667-2.667 2.24-7.227-0.84-10.307s-7.76-3.467-10.373-0.853z"
  />
  <path
    d="M19.573 18.667c-3.080 3.080-3.467 7.693-0.853 10.307 0.933 0.923 2.17 1.541 3.547 1.691l0.027 0.002c4.375-1.91 7.672-5.592 9.024-10.113l0.029-0.113c-0.258-1.045-0.771-1.947-1.468-2.668l0.002 0.002c-2.613-2.52-7.213-2.133-10.307 0.893z"
  />
</svg>
