<svg xmlns="http://www.w3.org/2000/svg" viewBox="0 0 32 32">
  <path
    d="M10.818 18.040c1.405-0.822 2.334-2.323 2.334-4.042 0-2.577-2.089-4.667-4.667-4.667s-4.667 2.089-4.667 4.667c0 0.86 0.233 1.665 0.638 2.357l-0.012-0.022c0.822 1.404 2.323 2.332 4.040 2.332 0.859 0 1.664-0.232 2.355-0.637l-0.022 0.012z"
  />
  <path
    d="M29.151-0l-16.187 18.507c-1.579 1.795-3.667 3.108-6.037 3.715l-0.083 0.018-4.64 1.16c-1.171 0.298-2.023 1.344-2.023 2.588 0 0.155 0.013 0.307 0.039 0.455l-0.002-0.016 0.187 1.12c0.437 2.543 2.625 4.454 5.26 4.454 0.026 0 0.051-0 0.077-0.001l-0.004 0h4.133c1.21-0.002 2.231-0.809 2.555-1.914l0.005-0.019 1.147-4c0.694-2.373 1.762-4.439 3.153-6.244l-0.033 0.044 15.12-19.867z"
  />
</svg>
