<svg xmlns="http://www.w3.org/2000/svg" viewBox="0 0 32 32">
  <path
    d="M24.98 2.76c-1.124-0.773-2.417-1.424-3.796-1.888l-0.11-0.032c-0.19 2.788-0.664 5.385-1.398 7.87l0.065-0.256h3.733c0.95-1.514 1.513-3.355 1.513-5.327 0-0.129-0.002-0.257-0.007-0.385l0.001 0.018z"
  />
  <path
    d="M18.94 20.827h4.44c0.497-1.276 0.785-2.753 0.785-4.298 0-0.186-0.004-0.371-0.012-0.555l0.001 0.026c0-0.042 0.001-0.091 0.001-0.141 0-1.693-0.313-3.313-0.885-4.804l0.031 0.092h-14.667c-0.509 1.356-0.803 2.922-0.803 4.558 0 0.104 0.001 0.207 0.004 0.311l-0-0.015c-0.007 0.16-0.012 0.347-0.012 0.536 0 1.551 0.288 3.035 0.813 4.402l-0.028-0.084h10.333z"
  />
  <path
    d="M12.154 23.493h-3.68c-0.861 1.42-1.37 3.136-1.37 4.972 0 0.296 0.013 0.59 0.039 0.879l-0.003-0.037c1.094 0.741 2.351 1.369 3.689 1.821l0.111 0.032c0.113-2.774 0.549-5.398 1.271-7.901l-0.058 0.234z"
  />
  <path
    d="M8.46 8.453h3.733c-0.669-2.229-1.143-4.825-1.327-7.501l-0.006-0.112c-1.47 0.501-2.744 1.151-3.906 1.954l0.052-0.034c-0.006 0.134-0.010 0.29-0.010 0.448 0 1.939 0.544 3.75 1.488 5.29l-0.025-0.044z"
  />
  <path
    d="M23.514 23.493h-3.68c0.672 2.266 1.117 4.889 1.238 7.596l0.003 0.071c1.449-0.476 2.707-1.095 3.857-1.863l-0.057 0.036c0.022-0.246 0.035-0.531 0.035-0.82 0-1.855-0.519-3.588-1.419-5.063l0.024 0.043z"
  />
  <path
    d="M17.060 23.493h-2.133c-0.787 2.473-1.27 5.322-1.333 8.274l-0.001 0.033c0.717 0.12 1.547 0.193 2.393 0.2l0.007 0c0.861-0.006 1.701-0.078 2.52-0.213l-0.093 0.013c-0.073-2.989-0.565-5.836-1.419-8.522l0.059 0.216z"
  />
  <path
    d="M27.527 4.933c-0.166 1.907-0.81 3.637-1.81 5.103l0.024-0.037c0.684 1.731 1.081 3.737 1.081 5.835 0 0.058-0 0.116-0.001 0.173l0-0.009c0.008 0.182 0.013 0.395 0.013 0.609 0 1.968-0.397 3.844-1.115 5.552l0.035-0.094c0.913 1.463 1.52 3.205 1.69 5.074l0.003 0.046c2.809-2.88 4.542-6.822 4.542-11.168 0-4.306-1.701-8.214-4.467-11.091l0.005 0.005z"
  />
  <path
    d="M6.234 22.040c-0.682-1.612-1.079-3.487-1.079-5.455 0-0.206 0.004-0.41 0.013-0.614l-0.001 0.029c-0.001-0.049-0.001-0.107-0.001-0.165 0-2.098 0.397-4.104 1.119-5.946l-0.038 0.111c-0.977-1.43-1.621-3.159-1.784-5.027l-0.003-0.040c-2.754 2.869-4.45 6.773-4.45 11.072 0 4.34 1.728 8.276 4.533 11.158l-0.003-0.004c0.173-1.915 0.78-3.657 1.722-5.17l-0.029 0.050z"
  />
  <path
    d="M14.954 8.453h2.080c0.739-2.445 1.219-5.27 1.331-8.189l0.002-0.064c-0.708-0.119-1.529-0.191-2.365-0.2l-0.009-0c-0.861 0.006-1.701 0.078-2.52 0.213l0.093-0.013c0.134 2.991 0.631 5.813 1.45 8.495l-0.063-0.242z"
  />
</svg>
