<svg xmlns="http://www.w3.org/2000/svg" viewBox="0 0 32 32">
  <path
    d="M27.72 16c-0.006-0.683-0.064-1.347-0.17-1.995l0.010 0.075 4.080-3-3.56-6.16-4.627 2.027c-0.953-0.782-2.056-1.43-3.251-1.892l-0.082-0.028-0.56-5.027h-7.12l-0.56 5.027c-1.277 0.49-2.38 1.138-3.355 1.937l0.021-0.017-4.627-2.027-3.56 6.16 4.080 3c-0.096 0.573-0.154 1.237-0.16 1.914l-0 0.006c0.006 0.683 0.064 1.347 0.17 1.995l-0.010-0.075-4.080 3 3.56 6.16 4.627-2.027c0.953 0.782 2.056 1.43 3.251 1.892l0.082 0.028 0.56 5.027h7.12l0.56-5.027c1.277-0.49 2.38-1.138 3.355-1.937l-0.021 0.017 4.627 2.027 3.56-6.16-4.080-3c0.096-0.573 0.154-1.237 0.16-1.914l0-0.006zM16 20.333c-2.393 0-4.333-1.94-4.333-4.333s1.94-4.333 4.333-4.333c2.393 0 4.333 1.94 4.333 4.333v0c-0.008 2.39-1.943 4.326-4.333 4.333h-0.001z"
  />
</svg>
