<svg xmlns="http://www.w3.org/2000/svg" viewBox="0 0 32 32">
  <path
    d="M16 0c-8.837 0-16 7.163-16 16s7.163 16 16 16c8.837 0 16-7.163 16-16v0c0-8.837-7.163-16-16-16v0zM30.755 17.15l-0.935-1.15-1-4.265 0.030-0.225 0.29-2.29c1.046 1.967 1.662 4.301 1.665 6.779v0.001c0 0.385-0.020 0.77-0.050 1.15zM28.16 7.57l-0.41 3.225-2.545-0.15-5.705-5.515-0.125-2.045 3.125-0.39c2.308 1.153 4.212 2.807 5.628 4.827l0.032 0.048zM16 30.805c-0.004 0-0.008 0-0.012 0-3.362 0-6.461-1.128-8.938-3.026l0.035 0.026-0.825-1.18 2.795-3 4.115 0.655 4.78 4.25-1.89 2.265zM2.72 13.34l1.14-4.745 0.030-0.095 6.26-3.5 2.425 2.26-1.55 7.090-4 2.5zM24.3 11.435l-0.040 0.445-1 4.060-6.835 2-3.2-2.555-1.030-0.935 1.5-6.89 5.175-1.34zM23.42 26.435l-4.42 1.42-4.5-3.965 1.87-4.675 7.215-2.115 2.64 3zM20.13 1.785l-1.735 0.215v0.095l-4.6-0.705v-0.035c0.649-0.102 1.397-0.16 2.159-0.16 0.016 0 0.032 0 0.048 0h-0.002c1.472 0.001 2.893 0.216 4.235 0.617l-0.105-0.027zM12.545 1.605l0.060 0.1-1.775 1.54-6.5 3.635c2.036-2.577 4.864-4.45 8.113-5.254l0.102-0.021zM1.2 15.855l1-1.395 4.765 3.885 1.17 4.5-2.73 2.93-1.16-0.775c-1.903-2.457-3.050-5.583-3.050-8.977 0-0.008 0-0.016 0-0.025v0.001c0-0.050 0.005-0.1 0.005-0.145zM25.025 27.725l-0.435-1 3.2-7.225 1.78-1.905 0.97 1.185c-0.722 3.664-2.71 6.772-5.481 8.92l-0.034 0.025z"
  />
</svg>
