<svg xmlns="http://www.w3.org/2000/svg" viewBox="0 0 32 32">
  <path
    d="M15.98 0c-8.828 0.012-15.98 7.171-15.98 16 0 3.762 1.298 7.221 3.471 9.953l-0.025-0.033c2.956 3.718 7.479 6.080 12.554 6.080 8.837 0 16-7.163 16-16s-7.163-16-16-16c-0.007 0-0.014 0-0.021 0h0.001zM15.98 2.667c0.005 0 0.011 0 0.017 0 3.15 0 6.043 1.101 8.315 2.939l-0.025-0.019c0.787 0.653 1.72 1.613 1.653 2.413-0.16 1.733-1.96 0.467-2.96 2.347s1.867 3.92 0.84 5.133-3.213-0.133-4.627 1.64c-1.68 2.093 0.493 4-1.133 5.24s-2.32-1.333-4.733-0.24-0.413 4.36-2.68 4.813c-1.6 0.32-3.32-0.893-4.173-1.6-2.357-2.403-3.811-5.698-3.811-9.333 0-7.358 5.961-13.325 13.317-13.333h0.001z"
  />
  <path
    d="M7.686 22.667c0.071 0.009 0.154 0.014 0.237 0.014 1.105 0 2-0.895 2-2s-0.895-2-2-2c-1.015 0-1.853 0.756-1.983 1.736l-0.001 0.010c-0.010 0.076-0.016 0.165-0.016 0.254 0 1.021 0.765 1.863 1.753 1.985l0.010 0.001z"
  />
  <path
    d="M13.74 19.76c0.893-0.213 1.548-1.004 1.548-1.948 0-1.105-0.895-2-2-2s-2 0.895-2 2c0 0.161 0.019 0.318 0.055 0.468l-0.003-0.014c0.214 0.892 1.004 1.545 1.948 1.545 0.16 0 0.316-0.019 0.466-0.055l-0.014 0.003z"
  />
  <path
    d="M18.46 15.013c0.554-0.362 0.915-0.979 0.915-1.68 0-1.105-0.895-2-2-2s-2 0.895-2 2c0 0.407 0.121 0.785 0.33 1.101l-0.005-0.007c0.356 0.555 0.969 0.917 1.667 0.917 0.407 0 0.786-0.123 1.1-0.335l-0.007 0.004z"
  />
  <path
    d="M8.66 15.293c0.895-0.212 1.55-1.004 1.55-1.949 0-1.105-0.895-2-2-2s-2 0.895-2 2c0 0.157 0.018 0.309 0.052 0.456l-0.003-0.014c0.209 0.899 1.003 1.558 1.95 1.558 0.159 0 0.314-0.019 0.463-0.054l-0.014 0.003z"
  />
  <path
    d="M14.086 10.28c0.549-0.363 0.905-0.977 0.905-1.674 0-1.105-0.895-2-2-2s-2 0.895-2 2c0 0.404 0.12 0.78 0.326 1.095l-0.005-0.008c0.365 0.55 0.982 0.908 1.683 0.908 0.405 0 0.783-0.12 1.098-0.326l-0.008 0.005z"
  />
  <path
    d="M18.473 9.333c0.332 0.254 0.752 0.406 1.209 0.406 1.105 0 2-0.895 2-2s-0.895-2-2-2c-0.649 0-1.226 0.309-1.592 0.789l-0.004 0.005c-0.253 0.331-0.405 0.751-0.405 1.206 0 0.648 0.308 1.225 0.787 1.59l0.005 0.004z"
  />
</svg>
