<svg xmlns="http://www.w3.org/2000/svg" viewBox="0 0 32 32">
  <path
    d="M16.365 6.545c0.004 0 0.008 0 0.013 0 2.24 0 4.293 0.797 5.892 2.122l-0.015-0.012 4.655-4.655c-2.802-2.484-6.51-4.001-10.573-4.001-5.917 0-11.082 3.218-13.841 7.999l-0.041 0.077 5.145 4.425c1.417-3.518 4.802-5.955 8.756-5.955 0.003 0 0.006 0 0.009 0h-0z"
  />
  <path
    d="M6.91 16c0-0.002 0-0.003 0-0.005 0-1.186 0.216-2.322 0.612-3.37l-0.022 0.066 0.1-0.19-5.145-4.425c-0.135 0.24-0.27 0.5-0.39 0.725-1.072 2.098-1.7 4.575-1.7 7.2s0.628 5.102 1.742 7.291l-0.042-0.091c0.030 0.065 0.070 0.125 0.1 0.19l5.22-4.5c-0.295-0.862-0.469-1.855-0.475-2.887v-0.003z"
  />
  <path
    d="M31.635 16c-0.015-1.039-0.145-2.041-0.379-3.002l0.019 0.092h-14.91v6.185h8.58c-0.284 1.464-0.974 2.734-1.946 3.726l0.001-0.001 4.415 4.415c2.585-2.725 4.22-6.575 4.22-11.415z"
  />
  <path
    d="M23 23c-0.387 0.398-0.818 0.749-1.286 1.048l-0.029 0.017-0.105 0.060c-1.428 0.844-3.148 1.342-4.983 1.342-0.078 0-0.156-0.001-0.233-0.003l0.012 0c-0.007 0-0.016 0-0.025 0-4.034 0-7.477-2.53-8.828-6.090l-0.022-0.065c-0.045-0.13-0.085-0.26-0.125-0.395l-5.22 4.5c2.716 5.141 8.028 8.585 14.145 8.585 0.023 0 0.046-0 0.069-0h-0.004c0.033 0 0.071 0 0.11 0 3.647 0 6.996-1.277 9.624-3.408l-0.029 0.022c0.245-0.195 0.5-0.39 0.72-0.605s0.415-0.4 0.615-0.605z"
  />
</svg>
