<svg xmlns="http://www.w3.org/2000/svg" viewBox="0 0 32 32">
  <path d="M7.76 20.227l-0.64 1.4 3.947 1.133-0.84-1.787-2.467-0.747z" />
  <path
    d="M29.933 9.44v-1.187l-2.467-1.587-3.36-0.573-0.28 0.92 0.947 0.92c-1.24 1-3.227 2.28-4.907 1.76-2.667-0.813-3.733-4-8.48-5.493-1.173-0.36-4-0.227-5.16 1.067h-0.12c0 0.173-0.12 0.36-0.187 0.533s0 0-0.067 0.12l-0.080 0.267c-1.227 3.267-3.6 7.6-5.773 7.6v2c2.733 0 4.933-3.16 6.333-5.92 0.107 0.227 0.24 0.453 0.373 0.693h-0.040c0.272 0.608 0.661 1.121 1.141 1.528l0.006 0.005c0.271 0.304 0.55 0.582 0.843 0.844l0.010 0.009 3.84 8.267 0.827 1.693 0.24 0.28 4.187 4.813h4.733v-1.467l-4.133-1.333c-0.657-1.044-1.316-2.274-1.893-3.548l-0.080-0.199c-0.385-0.809-0.804-1.849-1.171-2.915l-0.069-0.232c-0.216-0.595-0.445-1.376-0.634-2.171l-0.033-0.162c1.027 0.656 1.921 1.359 2.74 2.14l-0.007-0.007c0.28 0.813 0.587 1.587 0.893 2.293l2.667-1.667h0.080l0.213-0.067c1.542-0.922 2.675-2.394 3.136-4.139l0.011-0.048c0.36-1.747 3.867-3.773 4.92-2.867s2.867-0.653 2.867-0.653z"
  />
</svg>
