<svg xmlns="http://www.w3.org/2000/svg" viewBox="0 0 32 32">
  <path
    d="M16.56 0c-8.837 0-16 7.163-16 16s7.163 16 16 16v0c2.493 0 4.547-1.333 4.547-3.52 0-3.28-0.907-4.307-0.907-6.227 0-7.147 11.24-2.787 11.24-10.893 0-5.36-6.76-11.36-14.88-11.36zM6.773 20.507c-1.361-0.030-2.453-1.14-2.453-2.506 0-1.384 1.122-2.507 2.507-2.507s2.506 1.122 2.507 2.506v0c0 0 0 0 0 0.001 0 1.384-1.122 2.507-2.507 2.507-0.019 0-0.037-0-0.056-0.001l0.003 0zM8.56 12.507c-0.004 0-0.009 0-0.013 0-1.384 0-2.507-1.122-2.507-2.507s1.122-2.507 2.507-2.507c1.384 0 2.507 1.122 2.507 2.507v0c0 0 0 0 0 0 0 1.38-1.115 2.499-2.493 2.507h-0.001zM16.56 8.507c-0.004 0-0.009 0-0.013 0-1.384 0-2.507-1.122-2.507-2.507s1.122-2.507 2.507-2.507c1.384 0 2.507 1.122 2.507 2.507v0c-0.008 1.374-1.119 2.486-2.493 2.493h-0.001zM24.56 12.507c-0.004 0-0.009 0-0.013 0-1.384 0-2.507-1.122-2.507-2.507s1.122-2.507 2.507-2.507c1.384 0 2.507 1.122 2.507 2.507v0c0 0 0 0 0 0 0 1.38-1.115 2.499-2.493 2.507h-0.001z"
  />
</svg>
