<svg xmlns="http://www.w3.org/2000/svg" viewBox="0 0 32 32">
  <path
    d="M23.067 2.28c-0.148-0.010-0.321-0.016-0.496-0.016-2.761 0-5.184 1.447-6.552 3.624l-0.019 0.032c-1.387-2.209-3.81-3.656-6.571-3.656-0.174 0-0.347 0.006-0.519 0.017l0.023-0.001c-5.227 0-8.933 4.52-8.933 9.947s7.293 13.907 16 17.493c8.707-3.587 16-12 16-17.493s-3.707-9.947-8.933-9.947zM26.347 15.293h-6.080l-3.027 5.507c-0.227 0.431-0.672 0.72-1.184 0.72-0.006 0-0.011-0-0.017-0h0.001c-0.005 0-0.010 0-0.016 0-0.512 0-0.957-0.289-1.18-0.713l-0.004-0.007-4.28-7.827-0.96 1.693c-0.233 0.409-0.666 0.68-1.162 0.68-0.009 0-0.017-0-0.026-0l0.001 0h-2.76c-0.762 0-1.38-0.618-1.38-1.38s0.618-1.38 1.38-1.38v0h1.973l1.787-3.12c0.255-0.411 0.704-0.681 1.216-0.681 0.013 0 0.026 0 0.039 0.001l-0.002-0c0.005-0 0.010-0 0.016-0 0.512 0 0.957 0.289 1.18 0.713l0.004 0.007 4.133 7.747 2.2-4c0.227-0.431 0.672-0.72 1.184-0.72 0.010 0 0.021 0 0.031 0l-0.002-0h6.893c0.762 0 1.38 0.618 1.38 1.38s-0.618 1.38-1.38 1.38v0z"
  />
</svg>
