<svg xmlns="http://www.w3.org/2000/svg" viewBox="0 0 32 32">
  <path
    d="M25.147 24.627c-0.739 0.917-1.863 1.5-3.122 1.5-2.209 0-4-1.791-4-4s1.791-4 4-4c0.947 0 1.818 0.329 2.503 0.88l-0.008-0.006c0.92 0.739 1.505 1.864 1.505 3.126 0 0.95-0.331 1.822-0.884 2.508l0.006-0.008z"
  />
  <path
    d="M17.24 17.253l1.333-8.653 13.427 0.107v-3.373l-15.72-0.133-16.187-4.533v3.467l11.907 3.387-1.107 8.92c-0.013 0.106-0.021 0.229-0.021 0.353 0 0.783 0.296 1.497 0.783 2.037l-0.002-0.003-1.92 13.173h3.373l0.853-5.733 1.147 5.733h3.4l-2.507-12.667c0.672-0.48 1.133-1.217 1.239-2.065l0.001-0.015z"
  />
  <path
    d="M24.52 19c-0.677-0.544-1.548-0.874-2.495-0.874-2.209 0-4 1.791-4 4s1.791 4 4 4c1.259 0 2.383-0.582 3.116-1.492l0.006-0.008c0.547-0.678 0.878-1.551 0.878-2.5 0-1.262-0.584-2.387-1.497-3.12l-0.008-0.006z"
  />
</svg>
