<svg xmlns="http://www.w3.org/2000/svg" viewBox="0 0 32 32">
  <path
    d="M9.4 7.65l-0.135-1.070c0.68-0.13 1.33-0.28 2-0.37 0.908-0.14 1.956-0.22 3.022-0.22 2.664 0 5.212 0.499 7.555 1.408l-0.142-0.049c2.016 0.727 3.736 1.843 5.144 3.269l0.001 0.001c0.935 0.937 1.648 2.096 2.054 3.391l0.016 0.059c0.14 0.465 0.215 0.96 0.325 1.475h2.76v1.025h-1.365c-0.405 0-0.805 0-1.205 0-0.116 0.021-0.209 0.104-0.244 0.213l-0.001 0.002c-0.302 2.063-1.341 3.84-2.837 5.090l-0.013 0.010c-1.733 1.529-3.84 2.677-6.164 3.291l-0.106 0.024c-1.77 0.508-3.802 0.801-5.903 0.801-0.057 0-0.114-0-0.17-0.001l0.009 0c-0.23 0-0.3-0.105-0.34-0.385-0.095-0.745-0.105-0.74-0.715-0.78-2.187-0.135-4.212-0.698-6.036-1.606l0.091 0.041c-0.105-0.050-0.2-0.11-0.37-0.2 0.365-0.5 0.695-0.94 1.045-1.37 0.055-0.065 0.21 0 0.31 0 1.151 0.485 2.489 0.856 3.885 1.050l0.085 0.010c0.65 0.099 1.401 0.156 2.165 0.156 2.654 0 5.147-0.686 7.312-1.891l-0.077 0.039c1.182-0.649 2.148-1.558 2.846-2.654l0.019-0.031c0.451-0.718 0.718-1.592 0.718-2.527s-0.267-1.809-0.73-2.548l0.012 0.020c-0.468-0.759-1.040-1.402-1.705-1.934l-0.015-0.011c-1.514-1.182-3.351-2.021-5.357-2.37l-0.073-0.010c-0.894-0.183-1.922-0.288-2.975-0.288-0.548 0-1.089 0.028-1.622 0.084l0.067-0.006c-2.553 0.162-4.869 1.057-6.774 2.474l0.034-0.024c-0.74 0.565-1.362 1.241-1.851 2.009l-0.019 0.031c-0.464 0.711-0.739 1.581-0.739 2.516 0 0.072 0.002 0.143 0.005 0.214l-0-0.010c0 0.14 0 0.28 0 0.5-0.28 0-0.545 0-0.81 0-0.47 0-0.945 0-1.415 0-0.090 0-0.24-0.025-0.265-0.095-0.235-0.68-0.45-1.38-0.705-2.175 0.585 0 1.080 0 1.58 0 0.145 0 0.235-0.045 0.295-0.235 0.468-1.415 1.28-2.61 2.34-3.527l0.010-0.008c1.355-1.196 2.977-2.126 4.761-2.689l0.094-0.026z"
  />
  <path
    d="M18.5 15.66v0.76c-0.5 0-0.965 0-1.44 0-0.18 0-0.275 0.065-0.39 0.26-0.145 0.275-0.342 0.504-0.58 0.681l-0.005 0.004c-0.5 0.351-1.122 0.561-1.793 0.561s-1.292-0.21-1.803-0.568l0.010 0.007c-0.167-0.116-0.311-0.252-0.432-0.406l-0.003-0.004c-0.181-0.225-0.29-0.514-0.29-0.829 0-0.358 0.141-0.682 0.371-0.921l-0 0c0.374-0.381 0.865-0.645 1.415-0.733l0.015-0.002c0.229-0.058 0.492-0.092 0.763-0.092 0.53 0 1.030 0.128 1.47 0.355l-0.018-0.008c0.322 0.245 0.608 0.497 0.874 0.769l0.001 0.001c0.088 0.090 0.203 0.154 0.331 0.179l0.004 0.001c0.5-0.005 1-0.015 1.5-0.015z"
  />
</svg>
