<svg xmlns="http://www.w3.org/2000/svg" viewBox="0 0 32 32">
  <path
    d="M18.307 29.333l-7.533-7.533c-0.24-0.241-0.388-0.573-0.388-0.94s0.148-0.699 0.388-0.94l-0 0c0.241-0.24 0.573-0.388 0.94-0.388s0.699 0.148 0.94 0.388l3.773 3.773 0.947-0.947-5.667-5.653c-0.242-0.242-0.392-0.577-0.392-0.947 0-0.739 0.599-1.339 1.339-1.339 0.37 0 0.704 0.15 0.947 0.392v0l5.653 5.667 0.947-0.947-4.72-4.72c-0.24-0.241-0.388-0.573-0.388-0.94s0.148-0.699 0.388-0.94l-0 0c0.239-0.228 0.563-0.368 0.92-0.368 0.364 0 0.693 0.146 0.934 0.382l-0-0 7.533 7.547 0.947-0.947-2.827-2.827c-0.244-0.242-0.394-0.577-0.394-0.947s0.151-0.705 0.394-0.947l0-0c0.241-0.24 0.573-0.388 0.94-0.388s0.699 0.148 0.94 0.388l3.773 3.773c0.889 1.162 1.47 2.603 1.598 4.171l0.002 0.029c1.099-2.087 1.749-4.56 1.76-7.183v-0.003c0-8.837-7.163-16-16-16s-16 7.163-16 16c0 8.837 7.163 16 16 16v0c0.002 0 0.005 0 0.007 0 1.806 0 3.541-0.303 5.157-0.86l-0.111 0.033c-1.056-0.488-1.963-1.104-2.752-1.845l0.005 0.005z"
  />
</svg>
