<svg xmlns="http://www.w3.org/2000/svg" viewBox="0 0 32 32">
  <path
    d="M13.2 12.12s5.44-0.455 5.58 4.645-4.875 5.81-8 5.67-9.66-4.435-9.165-11.305l0.385-2.44 1.095-1.26s2.5-5.080 8.25-6.61c0 0 0.5-0.82 1.090-0.82s1.095 0.66 1.97 0.765 1.195-0.815 2.015-0.765 0.875 0.66 1.75 0.82 5.135 0.68 8.575 5.355c0 0 0.165 1.205 0.655 1.42s1.64 0.71 1.805 1.095 1.31 4.5 1.2 6.23-0.6 9.885-6 12.4l-0.11 1.5c-2.498 1.998-5.704 3.205-9.191 3.205-0.36 0-0.717-0.013-1.071-0.038l0.047 0.003c-6.175-0.44-7.835-1.090-9.285-3.060-0.189-0.357-0.359-0.775-0.488-1.211l-0.012-0.049-0.55-1.17s-0.5-0.82 0.545-0.655 4.81 1.655 6.885 1.695 3.17-1.040 3.55-1.15 2.625-1 3.28-1.090 4.7-2.585 5.3-8.535-4.755-9.44-7.805-9.495c0 0-1.91-0.055-2.35 0.215s-3.275 1.585-4.535 1.75c0 0-1.035 1-0.87 2.185s0.16 5.34 4.53 5.345c-0.010 0 1.035-0.56 0.925-4.645z"
  />
</svg>
