<svg xmlns="http://www.w3.org/2000/svg" viewBox="0 0 32 32">
  <path
    d="M32 17.935c-0.19 0.86-0.315 1.74-0.585 2.575-2.095 6.355-6.415 10.17-13.035 11.325-0.748 0.132-1.61 0.207-2.489 0.207-2.009 0-3.925-0.394-5.677-1.109l0.1 0.036c-0.135-0.050-0.265-0.115-0.5-0.22 4.465-0.71 8.075-2.715 10.755-6.25s3.645-7.54 3.125-11.975c0.165 0.095 0.29 0.165 0.415 0.245l7.645 4.87c0.080 0.050 0.165 0.090 0.245 0.13zM24.815 20.525c0.905 0.385 0.74-0.46 1.050-0.76 0.364 0.379 0.605 0.877 0.659 1.43l0.001 0.010c0.141 0.665 0.719 1.158 1.414 1.165h0.001c0.175-0.046 0.318-0.158 0.403-0.307l0.002-0.003c0.007-0.029 0.012-0.061 0.012-0.095 0-0.107-0.043-0.204-0.112-0.275l0 0c-0.13-0.115-0.31-0.24-0.5 0-0.040 0.050-0.195 0.040-0.28 0-0.455-0.16-0.26-0.61-0.425-0.885 0.835-0.62 1.3 0.115 1.96 0.435l-0.195-1.065c-0.59 0.205-0.82-0.235-1.195-0.365 0.22-0.5 0.595-1 0.215-1.5-0.030-0.045 0.050-0.17 0.080-0.255s0.045-0.16 0.080-0.28c-0.195 0.126-0.419 0.239-0.656 0.327l-0.024 0.008c-0.245 0.060-0.3 0.15-0.185 0.36 0.12 0.298 0.189 0.643 0.189 1.004 0 0.24-0.031 0.473-0.088 0.695l0.004-0.019c-0.040 0.325-0.3 0.39-0.5 0.145-0.197-0.211-0.373-0.445-0.524-0.696l-0.011-0.019c-0.034-0.1-0.053-0.214-0.053-0.333 0-0.059 0.005-0.117 0.014-0.173l-0.001 0.006c0-0.11 0-0.215 0-0.32-0.125 0-0.325 0-0.37 0.065-0.335 0.54-0.635 1.11-0.965 1.7zM25.745 23.19c-0.158-0.116-0.337-0.221-0.526-0.307l-0.019-0.008c-0.043-0.013-0.092-0.021-0.143-0.021-0.101 0-0.196 0.030-0.274 0.082l0.002-0.001c-0.5 0.465-1 0.94-1.45 1.435-0.38 0.405-0.36 0.795 0.1 1.095 0.422 0.259 0.915 0.51 1.428 0.724l0.072 0.026c0.445 0.19 0.68 0.050 0.725-0.44-0.006-0.303-0.048-0.593-0.121-0.871l0.006 0.026c-0.36 0.6-0.6 0.65-1.095 0.345-0.090-0.060-0.185-0.12-0.27-0.185-0.415-0.305-0.43-0.455 0-0.77 0.48-0.385 1.010-0.735 1.565-1.13zM21.585 27.11l-0.12-0.035c-0.070 0.135-0.235 0.33-0.2 0.385 0.21 0.28-0.025 0.5-0.14 0.645-0.050 0.065-0.345-0.040-0.47-0.055l0.345-0.735-0.125-0.080-1.095 0.815 0.705 0.36c-0.045 0.115-0.080 0.205-0.11 0.29s-0.080 0.205-0.105 0.31c-0.065 0.265 0.1 0.43 0.355 0.35 0.141-0.066 0.263-0.143 0.373-0.233l-0.003 0.003c-0.050-0.075-0.075-0.105-0.095-0.14l-0.145-0.275c0.044-0.008 0.095-0.013 0.148-0.013s0.103 0.005 0.153 0.014l-0.005-0.001c0.21 0.065 0.405 0.165 0.61 0.24 0.056 0.032 0.123 0.052 0.195 0.052 0.213 0 0.387-0.169 0.395-0.381l0-0.001-0.5-0.25c0.27-0.185 0.27-0.18 0.655-0.040 0.195 0.065 0.425 0.21 0.56-0.075 0.17-0.365 0.305-0.75 0.465-1.15l-0.365-0.145c-0.24 0.32-0.415 0.79-0.665 0.83-0.016 0.001-0.035 0.002-0.054 0.002-0.395 0-0.72-0.299-0.761-0.684l-0-0.003zM17.5 29.285l-0.125 0.125 0.56 1c0.585 0 0.7-0.23 0.585-1.335l-0.435 0.74zM26.85 24.465c0.003-0.022 0.004-0.046 0.004-0.072 0-0.326-0.264-0.59-0.59-0.59-0.016 0-0.031 0.001-0.046 0.002l0.002-0c-0.119 0.009-0.223 0.069-0.289 0.159l-0.001 0.001c-0.040 0.080 0 0.225 0.065 0.32 0.1 0.175 0.22 0.335 0.335 0.5 0.050 0.070 0.125 0.195 0.16 0.19 0.1-0.029 0.182-0.094 0.234-0.178l0.001-0.002c0.050-0.094 0.092-0.204 0.123-0.319l0.002-0.011zM29.255 18.4l-0.255 0.635c0.12 0.030 0.29 0.13 0.36 0.080 0.265-0.17 0.205-0.385-0.105-0.715z"
  />
  <path
    d="M9.295 11.060c0-0.955-0.030-1.905 0-2.855 0.080-2.205 0.205-4.41 0.29-6.615 0-0.305 0.19-0.35 0.39-0.425 4.79-1.84 9.465-1.62 13.935 0.905s7.12 6.5 8 11.58c0 0.095 0 0.19 0.025 0.39-2.825-3.54-6.38-5.64-10.78-6.195-0.634-0.090-1.367-0.141-2.112-0.141-3.692 0-7.089 1.264-9.782 3.382l0.034-0.026zM16.38 3.45v0c0.085-0.040 0.17-0.13 0.25-0.12 0.635 0.065 1.275 0.13 1.9 0.25 0.19 0.040 0.345 0.265 0.5 0.4 0.035 0.030 0.080 0.055 0.17 0.115v-0.315c0.826 0.285 1.54 0.7 2.154 1.227l-0.009-0.007c0.118 0.083 0.252 0.161 0.393 0.228l0.017 0.007 0.080-0.205c-1.305-1.195-3.052-1.927-4.969-1.927-0.364 0-0.721 0.026-1.070 0.077l0.040-0.005c0.338-0.114 0.775-0.229 1.22-0.321l0.080-0.014c0.424-0.109 0.91-0.172 1.411-0.172 1.088 0 2.107 0.296 2.981 0.812l-0.027-0.015c0.22 0.173 0.392 0.399 0.496 0.659l0.004 0.011 0.225-0.195 0.14-0.14c0.41 0.5 0.825 0.945 1.225 1.425 1.052 1.261 2.284 2.328 3.665 3.173l0.065 0.037c0.375 0.217 0.814 0.421 1.271 0.586l0.059 0.018c0.075 0.014 0.162 0.022 0.25 0.022s0.175-0.008 0.259-0.024l-0.009 0.001 0.055-0.22c-0.864-0.005-1.654-0.314-2.271-0.825l0.006 0.005c0.246 0.062 0.534 0.105 0.829 0.12l0.011 0c0.175-0.021 0.322-0.123 0.404-0.267l0.001-0.003c0.015-0.052 0.023-0.113 0.023-0.175 0-0.13-0.036-0.25-0.1-0.353l0.002 0.003c-0.115-0.19-0.295-0.245-0.415 0.040-0.040 0.095-0.14 0.23-0.215 0.235-0.036 0.002-0.078 0.002-0.121 0.002-0.754 0-1.446-0.269-1.984-0.716l0.005 0.004c0.278 0.049 0.607 0.083 0.942 0.095l0.013 0c0.006 0 0.013 0 0.020 0 0.318 0 0.575-0.257 0.575-0.575 0-0.037-0.004-0.074-0.010-0.109l0.001 0.004c-0.057-0.156-0.174-0.279-0.321-0.343l-0.004-0.002c-0.070-0.030-0.23 0.145-0.33 0.245s-0.14 0.255-0.24 0.285c-0.063 0.008-0.135 0.013-0.209 0.013-0.613 0-1.153-0.314-1.467-0.791l-0.004-0.007c0.815 0.105 1.055 0 1.11-0.5-0.047-0.006-0.1-0.009-0.155-0.009s-0.108 0.003-0.161 0.010l0.006-0.001c-0.123 0.038-0.265 0.060-0.411 0.060-0.312 0-0.602-0.099-0.838-0.268l0.004 0.003c-0.289-0.202-0.543-0.419-0.773-0.658l-0.002-0.002c-1.157-1.166-2.734-1.914-4.484-1.999l-0.016-0.001c-0.204-0.019-0.44-0.030-0.679-0.030-1.324 0-2.569 0.335-3.656 0.925l0.040-0.020c-0.532-0.383-1.197-0.612-1.915-0.612-0.044 0-0.088 0.001-0.131 0.003l0.006-0c0.661 0.107 1.243 0.388 1.714 0.794l-0.005-0.004c-0.921 0.532-1.656 1.294-2.141 2.21l-0.014 0.030c0.635-0.813 1.454-1.453 2.395-1.865l0.040-0.015c0.055 0.105 0.095 0.175 0.125 0.245 0.19 0.5 0.17 0.5-0.3 0.705-0.379 0.159-0.7 0.327-1.004 0.517l0.029-0.017c-0.741 0.513-1.322 1.209-1.683 2.024l-0.012 0.031c0.875-0.905 1.5-2.13 3.085-2.145l-0.14 0.705c0.163-0.234 0.286-0.508 0.352-0.805l0.003-0.015c0.040-0.265 0.15-0.4 0.4-0.42 0.935-0.075 1.89-0.22 2.55 0.695 0.135-0.485-0.55-1.44-1.305-1.825z"
  />
  <path
    d="M15.23 24.41l-4 2.065c-1.46 0.755-2.925 1.5-4.375 2.285-0.085 0.059-0.19 0.095-0.304 0.095-0.149 0-0.284-0.061-0.381-0.16l-0-0c-3.133-2.427-5.308-5.961-5.939-10.007l-0.011-0.088c-0.149-0.81-0.234-1.741-0.234-2.693 0-3.977 1.486-7.606 3.933-10.363l-0.014 0.016c0.695-0.746 1.411-1.44 2.161-2.096l0.034-0.029c0.077-0.060 0.164-0.115 0.256-0.161l0.009-0.004c-1.61 4.195-1.695 8.33 0.035 12.43s4.69 6.935 8.83 8.71zM4.035 7.135c-0.046 0.048-0.086 0.102-0.118 0.161l-0.002 0.004c-0.555 1.43-1.1 2.865-1.66 4.29-0.065 0.129-0.104 0.282-0.104 0.444 0 0.33 0.16 0.622 0.406 0.805l0.003 0.002c0.239 0.189 0.415 0.447 0.498 0.745l0.002 0.010c0.16 1.090 0.23 2.19 0.37 3.285 0.050 0.223 0.161 0.416 0.315 0.565l0 0c0.21 0.23 0.5 0.37 0.695 0.62 0.565 0.815 1.095 1.655 1.62 2.5 0.044 0.070 0.069 0.155 0.069 0.246 0 0.053-0.009 0.105-0.025 0.153l0.001-0.003c-0.084 0.127-0.133 0.284-0.133 0.451 0 0.265 0.124 0.5 0.317 0.652l0.002 0.001c0.97 1 1.95 2 2.94 2.95 0.076 0.049 0.168 0.077 0.267 0.077 0.058 0 0.114-0.010 0.166-0.028l-0.004 0.001c0.56-0.235 1.105-0.5 1.65-0.765-0.645-0.46-1.265-0.915-1.905-1.355-0.096-0.060-0.213-0.095-0.337-0.095-0.029 0-0.058 0.002-0.086 0.006l0.003-0c-0.044 0.006-0.095 0.010-0.147 0.010-0.343 0-0.649-0.157-0.851-0.403l-0.002-0.002c-0.152-0.173-0.316-0.329-0.492-0.469l-0.008-0.006c-0.126-0.064-0.21-0.192-0.21-0.34 0-0.058 0.013-0.113 0.036-0.162l-0.001 0.002c0.021-0.080 0.034-0.173 0.034-0.268 0-0.312-0.132-0.594-0.343-0.792l-0.001-0.001c-1.644-2-2.745-4.504-3.045-7.248l-0.005-0.062c-0.011-0.336-0.185-0.629-0.446-0.803l-0.004-0.002c-0.243-0.139-0.404-0.397-0.404-0.692 0-0.076 0.011-0.149 0.030-0.218l-0.001 0.006c0.1-0.5 0.13-1.055 0.245-1.57 0.19-0.885 0.43-1.76 0.665-2.7zM2.23 19.425c0.165 0.77 0.37 1.405 1.2 1.575 0.582 0.176 1.056 0.56 1.344 1.064l0.006 0.011c0.5 0.685 0.61 1.25-0.045 1.86-0.17 0.155-0.15 0.315 0 0.5 0.575 0.655 1.135 1.32 1.705 2 0.045 0.050 0.155 0.105 0.205 0.085 0.275-0.12 0.545-0.25 0.805-0.395 0.038-0.042 0.062-0.099 0.062-0.161 0-0.027-0.004-0.052-0.012-0.076l0 0.002c-0.305-0.37-0.060-0.68 0.080-1 0.055-0.125 0.115-0.32 0.060-0.4-0.192-0.245-0.389-0.464-0.599-0.669l-0.001-0.001-0.405 0.68c-0.263-0.131-0.44-0.397-0.44-0.705 0-0.164 0.050-0.317 0.137-0.443l-0.002 0.003c0.024-0.060 0.037-0.13 0.037-0.204 0-0.109-0.031-0.212-0.084-0.299l0.001 0.003c-0.435-0.75-0.89-1.5-1.345-2.235-0.067-0.13-0.164-0.237-0.282-0.313l-0.003-0.002c-0.785-0.27-1.575-0.56-2.425-0.88zM3.45 19.345c-0.060-1.185-0.6-1.71-1.63-1.605 0.080 0.33 0.15 0.665 0.24 1 0.021 0.089 0.078 0.162 0.153 0.204l0.002 0.001c0.4 0.135 0.81 0.26 1.235 0.4zM2.925 17.415c0.065-1.045-0.19-1.335-1.245-1.45-0.1 1.16-0.070 1.2 1.055 1.415zM2.805 15.775c0-1.13-0.165-1.41-1.115-1.735 0 0.34-0.050 0.675-0.050 1 0.012 0.116 0.074 0.216 0.164 0.279l0.001 0.001c0.31 0.18 0.64 0.3 1 0.455z"
  />
  <path
    d="M16.38 3.45l0.88 1h-2.435l-0.155-0.875c0.301-0.111 0.649-0.176 1.012-0.176 0.253 0 0.499 0.031 0.733 0.090l-0.021-0.004z"
  />
</svg>
