<svg xmlns="http://www.w3.org/2000/svg" viewBox="0 0 32 32">
  <path
    d="M16 0c-8.837 0-16 7.163-16 16s7.163 16 16 16c8.837 0 16-7.163 16-16v0c0-8.837-7.163-16-16-16v0zM24.125 17c-5.745 6-11.19 5.845-16.335 0-0.212-0.253-0.34-0.582-0.34-0.941 0-0.401 0.16-0.764 0.421-1.029l-0 0q8.13-7.585 16.21-0.005c0.254 0.261 0.411 0.618 0.411 1.012 0 0.37-0.139 0.708-0.367 0.965l0.001-0.001z"
  />
  <path
    d="M16 13c-0 0-0.001 0-0.001 0-0.369 0-0.725 0.057-1.059 0.162l0.025-0.007c0.617 0.279 1.039 0.89 1.039 1.599 0 0.966-0.784 1.75-1.75 1.75-0.709 0-1.32-0.422-1.595-1.028l-0.004-0.011c-0.099 0.31-0.157 0.666-0.157 1.035 0 1.933 1.567 3.5 3.5 3.5s3.5-1.567 3.5-3.5c0-1.932-1.566-3.499-3.498-3.5h-0z"
  />
</svg>
