<svg xmlns="http://www.w3.org/2000/svg" viewBox="0 0 32 32">
  <path
    d="M21.947 0c-4.027 0.046-7.424 2.692-8.595 6.335l-0.018 0.065h-10.587c-1.009 0-1.827 0.818-1.827 1.827v0 21.947c0 1.009 0.818 1.827 1.827 1.827v0h18.28c1.009 0 1.827-0.818 1.827-1.827v0-12c4.548-0.561 8.034-4.401 8.034-9.055 0-4.974-3.982-9.018-8.931-9.118l-0.009-0zM5.48 10.973h5.493v2.747h-5.493zM18.28 27.427h-12.8v-2.747h12.8zM18.28 20.573h-12.8v-2.747h12.8zM21.947 14.667c-0.004 0-0.009 0-0.013 0-3.034 0-5.493-2.459-5.493-5.493s2.459-5.493 5.493-5.493c3.034 0 5.493 2.459 5.493 5.493 0 0.005 0 0.009-0 0.014v-0.001c0 3.027-2.453 5.48-5.48 5.48v0zM22.667 12.84l-2.093-3.307v-4h2.747v3.227l1.627 2.667z"
  />
</svg>
