<svg xmlns="http://www.w3.org/2000/svg" viewBox="0 0 32 32">
  <path
    d="M28.933 2l0.92-1.333h-2.28c-7.92 0-8 11-12.173 11-3.92 0-8.507 0.253-9.8 3.027-1.391 0.282-2.486 1.31-2.86 2.64l-0.006 0.026c-0.96 3.093-2.667 3.067-2.667 3.067v5.56c2.787 0 4.64-4.853 5.507-7.8 0.587 1.627 1.8 2.76 1.747 3.2-0.080 0.68-2.053 2.773-2.053 2.773v7.84h1.6s0.213-6.373 0.707-6.947 4.28-3.12 4.827-6.12c0 0 7.88 0.667 10.32-3.6h2.44s-1.653 3.827-4.093 3.827l-0.787 2.173s8.973-1.12 8.973-8.12c0 0-2.88-1.147-2.88-5.933 0 0 1 2.893 3.213 1.947l1.147 1.813 1.267-1.787z"
  />
</svg>
