<svg xmlns="http://www.w3.org/2000/svg" viewBox="0 0 32 32">
  <path
    d="M23.69 21.93s-0.77 0.385-1.15 0 1.15-0.385 2.69-3.85-1.155-7.31-1.155-7.31-0.385 1.925-1.535 1.54-0.385-2.31-0.77-5.385-6.925-6.925-6.925-6.925c1.535 7.695-1.925 5.77-1.925 5.77-2.31 4.23-1.54 8.465-3.080 8.080s-1.34-3.27-1.34-3.27-1.925 1.155-2.31 4.615 2.695 6.54 2.695 6.54l-1.54-0.385c1.535 5.39 13.075 5.775 16.345 0.58z"
    fill="#fe713f"
    style="fill: #fe713f"
  />
  <path
    d="M27.435 29.39l-3.935-1.25c0.793-0.095 1.403-0.763 1.403-1.574 0-0.649-0.39-1.206-0.947-1.452l-0.010-0.004c0.778-0.107 1.371-0.767 1.371-1.566 0-0.632-0.371-1.177-0.907-1.43l-0.010-0.004c0.8-0.088 1.417-0.76 1.417-1.576 0-0.656-0.399-1.219-0.967-1.46l-0.010-0.004-3.625-1.5c-0.458-0.196-0.992-0.311-1.552-0.311-0.075 0-0.15 0.002-0.224 0.006l0.010-0-1.5 0.090-0.045-1 0.925-3.625c0.037-0.134 0.059-0.289 0.059-0.448 0-0.961-0.779-1.74-1.74-1.74-0.713 0-1.325 0.429-1.594 1.042l-0.004 0.011-1.465 2.93-3.5 3.2-3.64-0.45c-2.21-0.575-4.64 9.725-2.445 10.26l4.835-0.62 8.615 2.805 8.75 2.24c0.11 0.033 0.237 0.052 0.367 0.052 0.738 0 1.337-0.598 1.337-1.337 0-0.607-0.405-1.12-0.96-1.283l-0.009-0.002z"
    fill="#fed100"
    style="fill: #fed100"
  />
  <path
    d="M23.45 28.14l-4.3-1.385 5.075 1.095c-0.208 0.177-0.478 0.286-0.774 0.29h-0.001z"
    fill="#fea03f"
    style="fill: #fea03f"
  />
  <path
    d="M23.915 25.065l-3.075-0.92 3.66 0.8c-0.173 0.075-0.374 0.12-0.585 0.12h-0z"
    fill="#fea03f"
    style="fill: #fea03f"
  />
  <path
    d="M24.445 22.075l-3.145-0.85 3.7 0.66c-0.16 0.093-0.347 0.16-0.547 0.189l-0.008 0.001z"
    fill="#fea03f"
    style="fill: #fea03f"
  />
  <path
    d="M18.045 17.31l-2.89 0.225 2.765-0.74 0.125 0.515z"
    fill="#fea03f"
    style="fill: #fea03f"
  />
</svg>
