<svg xmlns="http://www.w3.org/2000/svg" viewBox="0 0 32 32">
  <path
    d="M15 0s1.625 7.92-2.64 6.905c0 0-2.54 4.365-2.54 8.63s-4.465 1.215-3.25-2.235c0 0-7.31 6.090 0.41 13.605 0 0 0.2 1.22-2.035 0 0 0 2.44 5.075 10.765 5.075s10.34-4.255 10.34-4.255h-1.42s7.31-4.67 2.030-14.62c0 0-0.405 2.845-2.030 2.44s0.2-5.080-1-7.72-5.7-6.7-8.63-7.825z"
    fill="#de2a42"
    style="fill: #de2a42"
  />
  <path
    d="M7.165 6.81c-0.421 1.18-1.042 2.194-1.831 3.051l0.006-0.006c-0.78 0.895-0.205 3.050-0.205 3.050s3.25-3.050 2.030-6.095z"
    fill="#de2a42"
    style="fill: #de2a42"
  />
  <path
    d="M16.060 17.365c-1.7-0.425-3.395 0.595-5.26 3.735s-0.93 5.18-0.76 5.94 1.96 5.18 7.555 4.41 6.105-10 6.105-10-5.94-3.665-7.64-4.085z"
    fill="#fed100"
    style="fill: #fed100"
  />
  <path
    d="M15.29 8.155c-0.115-0.030-0.246-0.047-0.382-0.047-0.734 0-1.351 0.502-1.525 1.181l-0.002 0.011-3.43 13.765c-0.006 0.024-0.010 0.052-0.010 0.081 0 0.157 0.107 0.29 0.252 0.329l0.002 0.001 2.4 0.6c0.024 0.006 0.051 0.009 0.080 0.009 0.159 0 0.293-0.109 0.33-0.257l0.001-0.002 3.435-13.76c0.030-0.114 0.047-0.246 0.047-0.381 0-0.736-0.504-1.353-1.186-1.527l-0.011-0.002z"
    fill="#fed100"
    style="fill: #fed100"
  />
  <path
    d="M21.76 10.5c-0.246-0.168-0.55-0.267-0.876-0.267-0.544 0-1.023 0.277-1.305 0.697l-0.004 0.006-7.755 11.565c-0.035 0.052-0.056 0.116-0.056 0.185 0 0.116 0.059 0.219 0.15 0.279l0.001 0.001 2.055 1.375c0.053 0.037 0.118 0.059 0.189 0.059 0.115 0 0.216-0.059 0.275-0.148l0.001-0.001 7.755-11.57c0.166-0.246 0.265-0.548 0.265-0.874 0-0.541-0.273-1.019-0.689-1.303l-0.005-0.004z"
    fill="#fed100"
    style="fill: #fed100"
  />
  <path
    d="M18.895 21.5l-1.84-0.9c-0.924-0.464-2.014-0.735-3.167-0.735-0.313 0-0.621 0.020-0.924 0.059l0.036-0.004-1.705 0.21c-0.388 0.048-0.699 0.327-0.794 0.694l-0.001 0.006-0.13 0.525 8.66 1.44 0.155-0.25c0.073-0.111 0.116-0.247 0.116-0.394 0-0.284-0.164-0.531-0.402-0.649l-0.004-0.002z"
    fill="#ddae34"
    style="fill: #ddae34"
  />
  <path
    d="M18.024 23.233l-0.018-0.008c-0.793-0.344-1.157-1.266-0.813-2.059l0.31-0.716c0.344-0.793 1.266-1.157 2.059-0.813l0.018 0.008c0.793 0.344 1.157 1.266 0.813 2.059l-0.31 0.716c-0.344 0.793-1.266 1.157-2.059 0.813z"
    fill="#ddae34"
    style="fill: #ddae34"
  />
  <path
    d="M20.295 18c-0.185-0.082-0.4-0.129-0.626-0.129-0.645 0-1.199 0.386-1.445 0.939l-0.004 0.010-0.72 1.65c-0.082 0.185-0.13 0.401-0.13 0.628 0 0.87 0.705 1.575 1.575 1.575 0.643 0 1.196-0.385 1.441-0.938l0.004-0.010 0.725-1.675c0.077-0.18 0.122-0.388 0.122-0.608 0-0.641-0.383-1.192-0.932-1.438l-0.010-0.004z"
    fill="#fed100"
    style="fill: #fed100"
  />
  <path
    d="M21.027 24.413l-0.018-0.008c-0.793-0.344-1.157-1.266-0.813-2.059l0.356-0.821c0.344-0.793 1.266-1.157 2.059-0.813l0.018 0.008c0.793 0.344 1.157 1.266 0.813 2.059l-0.356 0.821c-0.344 0.793-1.266 1.157-2.059 0.813z"
    fill="#ddae34"
    style="fill: #ddae34"
  />
  <path
    d="M23.18 19.42c-0.184-0.082-0.399-0.129-0.625-0.129-0.644 0-1.197 0.386-1.441 0.939l-0.004 0.010-0.61 1.41c-0.082 0.185-0.13 0.401-0.13 0.628 0 0.87 0.705 1.575 1.575 1.575 0.643 0 1.196-0.385 1.441-0.938l0.004-0.010 0.61-1.405c0.082-0.185 0.13-0.401 0.13-0.628 0-0.646-0.386-1.201-0.94-1.448l-0.010-0.004z"
    fill="#fed100"
    style="fill: #fed100"
  />
  <path
    d="M19 22.665s-0.055 1.91-2.94 1.915c-0.246-0.010-0.534-0.016-0.823-0.016-0.997 0-1.978 0.067-2.938 0.198l0.112-0.012 1.025-2.66z"
    fill="#ddae34"
    style="fill: #ddae34"
  />
  <path
    d="M18.655 21.57l-2.955-0.965c-0.527-0.179-1.134-0.282-1.764-0.282-0.153 0-0.305 0.006-0.455 0.018l0.020-0.001-2.28 0.16c-0.595 0.045-1.073 0.495-1.159 1.073l-0.001 0.007-0.32 2.155s1.825 4.395 3.86 0.575c0.89-1.665 1.445 0 3.735-0.5 1.070-0.24 1.565-0.695 1.79-1.12 0.055-0.105 0.087-0.23 0.087-0.361 0-0.354-0.231-0.654-0.551-0.757l-0.006-0.002z"
    fill="#fed100"
    style="fill: #fed100"
  />
</svg>
