<svg xmlns="http://www.w3.org/2000/svg" viewBox="0 0 32 32">
  <path
    d="M28.72 5.8c-3.315-2.665-8.16-2.22-11.165 0.785l-1 0.975c-0.154 0.153-0.366 0.248-0.6 0.248s-0.446-0.095-0.6-0.248l0 0-1-0.975c-3-3-7.85-3.45-11.16-0.785-1.888 1.527-3.086 3.844-3.086 6.441 0 2.292 0.933 4.366 2.44 5.864l0 0 13.45 13.325 13.41-13.325c1.494-1.496 2.418-3.562 2.418-5.844 0-2.607-1.207-4.933-3.092-6.449l-0.016-0.013z"
    fill="#de2a42"
    style="fill: #de2a42"
  />
  <path
    d="M23.427 0.268l6.169 6.17c3.183 3.183 3.183 8.343 0 11.526v0l-13.587 13.587-6.169-6.169c-3.183-3.183-3.183-8.343 0-11.526v0l13.587-13.587z"
    fill="#fed43f"
    style="fill: #fed43f"
  />
  <path
    d="M23.425 0.265l-13.685 13.685c-1.454 1.449-2.354 3.453-2.354 5.667s0.9 4.219 2.354 5.667l5.385 5.385c-1.378-1.377-2.23-3.28-2.23-5.383s0.852-4.005 2.23-5.382l8.3-8.3c1.456-1.449 2.356-3.454 2.356-5.67s-0.901-4.221-2.356-5.67l-0-0z"
    fill="#fe933f"
    style="fill: #fe933f"
  />
  <path
    d="M16 2s0.5 3.5-3 4.5c0 0-1-2 0.5-2.5 1.030-0.426 1.878-1.114 2.488-1.982l0.012-0.018z"
    fill="#fe933f"
    style="fill: #fe933f"
  />
</svg>
