<svg xmlns="http://www.w3.org/2000/svg" viewBox="0 0 32 32">
  <path
    d="M25.35 0.165c0.189 0.913 0.537 1.722 1.015 2.434l-0.015-0.024c0.721 1.097 1.797 1.91 3.061 2.28l0.039 0.010c0.205 0.060 0.42 0.095 0.63 0.14-0.594 1.111-1.055 2.399-1.316 3.759l-0.014 0.086c-0.122 0.613-0.192 1.319-0.192 2.040 0 1.374 0.254 2.689 0.718 3.9l-0.025-0.075c0.29 0.775 0.615 1.54 0.85 2.34 0.262 0.824 0.413 1.772 0.413 2.756 0 1.61-0.405 3.125-1.118 4.449l0.025-0.050c-0.961 1.854-2.422 3.335-4.206 4.294l-0.054 0.026c-0.958 0.513-2.068 0.923-3.237 1.17l-0.083 0.015c-1.25 0.285-2.5 0.5-3.76 0.785-0.18 0.040-0.355 0.105-0.535 0.14-0.247 0.059-0.457 0.193-0.608 0.378l-0.002 0.002c-0.27 0.31-0.565 0.6-0.835 0.905-0.090 0.1-0.13 0.080-0.205 0-0.325-0.355-0.66-0.705-1-1.055-0.066-0.069-0.149-0.122-0.241-0.154l-0.004-0.001c-0.534-0.173-1.216-0.346-1.912-0.481l-0.118-0.019c-1.539-0.258-2.852-0.567-4.132-0.951l0.237 0.061c-2.835-0.87-5.1-2.858-6.319-5.438l-0.026-0.062c-0.568-1.178-0.901-2.561-0.901-4.022 0-0.219 0.008-0.437 0.022-0.652l-0.002 0.029c0.097-1.181 0.37-2.273 0.791-3.287l-0.026 0.072c0.296-0.681 0.591-1.522 0.831-2.387l0.034-0.143c0.081-0.287 0.145-0.627 0.178-0.976l0.002-0.024c0.052-0.256 0.084-0.552 0.090-0.855l0-0.005c0.010-0.186 0.016-0.403 0.016-0.621 0-1.828-0.394-3.564-1.102-5.127l0.032 0.078c-0.119-0.322-0.257-0.599-0.421-0.859l0.011 0.019s0-0.040 0-0.065c2.685-0.5 4.065-2.305 4.73-4.835 0.175 0.155 0.35 0.315 0.53 0.465 0.743 0.66 1.616 1.194 2.573 1.556l0.057 0.019c0.417 0.15 0.898 0.236 1.399 0.236 0.274 0 0.543-0.026 0.803-0.076l-0.027 0.004c1.579-0.314 2.927-1.14 3.896-2.295l0.008-0.010c0.095-0.065 0.095-0.065 0.185 0 0.878 1.035 2.038 1.806 3.36 2.197l0.050 0.013c0.371 0.105 0.796 0.165 1.236 0.165 0.891 0 1.724-0.247 2.435-0.677l-0.021 0.012c0.786-0.439 1.465-0.936 2.076-1.506l-0.006 0.006c0.050-0.060 0.070-0.115 0.13-0.11zM3.445 5.72c0.538 1.183 0.912 2.556 1.051 3.997l0.004 0.053c0.033 0.336 0.052 0.726 0.052 1.12 0 0.842-0.086 1.664-0.251 2.458l0.014-0.078c-0.231 1.024-0.518 1.909-0.875 2.757l0.040-0.107c-0.353 0.805-0.633 1.743-0.795 2.72l-0.010 0.070c-0.050 0.341-0.079 0.735-0.079 1.136 0 1.173 0.246 2.288 0.69 3.297l-0.021-0.053c1.066 2.387 3.034 4.211 5.46 5.060l0.065 0.020c0.976 0.337 2.144 0.626 3.345 0.815l0.12 0.015c0.7 0.14 1.41 0.25 2.1 0.435 0.549 0.078 1.029 0.326 1.395 0.69l-0-0c0.075 0.090 0.17 0.225 0.25 0.22s0.165-0.145 0.25-0.225c0.127-0.142 0.274-0.264 0.436-0.36l0.009-0.005c0.43-0.19 0.932-0.347 1.455-0.448l0.045-0.007c1.265-0.26 2.54-0.475 3.8-0.78 2.257-0.507 4.172-1.731 5.541-3.417l0.014-0.018c1.165-1.406 1.872-3.228 1.872-5.215 0-0.73-0.096-1.439-0.275-2.113l0.013 0.057c-0.243-0.91-0.516-1.68-0.842-2.421l0.042 0.106c-0.531-1.28-0.856-2.764-0.895-4.32l-0-0.015c-0.002-0.081-0.003-0.176-0.003-0.271 0-1.837 0.382-3.584 1.070-5.168l-0.032 0.084c0.035-0.080 0.030-0.105-0.055-0.13-0.902-0.283-1.668-0.785-2.261-1.445l-0.004-0.005c-0.551-0.595-0.992-1.302-1.285-2.081l-0.015-0.044c-0.040-0.1-0.060-0.11-0.145-0.035-0.36 0.307-0.765 0.582-1.199 0.808l-0.036 0.017c-0.652 0.349-1.418 0.58-2.23 0.644l-0.020 0.001c-0.128 0.009-0.276 0.014-0.427 0.014-1.306 0-2.524-0.378-3.55-1.030l0.027 0.016c-0.49-0.312-0.916-0.655-1.3-1.040l-0-0c-0.251 0.247-0.522 0.475-0.81 0.681l-0.020 0.014c-0.968 0.717-2.153 1.194-3.441 1.323l-0.029 0.002c-0.146 0.013-0.317 0.021-0.489 0.021-1.084 0-2.099-0.296-2.968-0.81l0.027 0.015c-0.424-0.225-0.789-0.473-1.125-0.753l0.010 0.008c-0.7 1.78-1.835 3.115-3.71 3.72z"
  />
  <path
    d="M3.84 20.255c-0.065-0.15 0.050-0.24 0.185-0.345q5.125-3.83 10.235-7.68l10.34-7.775c0.085-0.065 0.125-0.070 0.19 0.025 0.553 0.754 1.243 1.372 2.038 1.828l0.032 0.017c0.048 0.018 0.082 0.064 0.082 0.117 0 0.023-0.006 0.045-0.017 0.063l0-0.001c-0.448 1.315-0.706 2.829-0.706 4.404 0 0.060 0 0.121 0.001 0.181l-0-0.009c0.003 0.609 0.052 1.205 0.144 1.786l-0.009-0.066c0.002 0.011 0.003 0.023 0.003 0.035 0 0.066-0.035 0.123-0.088 0.155l-0.001 0-9.305 7.010q-4.31 3.24-8.625 6.5c-0.039 0.034-0.089 0.055-0.145 0.055s-0.107-0.021-0.145-0.055l0 0c-1.66-0.872-2.95-2.26-3.675-3.948l-0.020-0.052c-0.281-0.66-0.466-1.424-0.514-2.226l-0.001-0.019zM11.585 20h-0.025c-0.023-0.029-0.045-0.062-0.063-0.096l-0.002-0.004-1.785-2.73c-0.055-0.085-0.090-0.105-0.18-0.035l-1.925 1.455c-0.040 0.025-0.090 0.040-0.1 0.1 0.409 0.024 0.732 0.361 0.732 0.774 0 0.036-0.002 0.071-0.007 0.105l0-0.004v5.59l0.135-0.1c0.43-0.325 0.86-0.65 1.295-0.97 0.064-0.042 0.106-0.113 0.106-0.193 0-0.006-0-0.012-0.001-0.017l0 0.001q0-1.83 0-3.66c-0.007-0.022-0.011-0.047-0.011-0.073s0.004-0.051 0.011-0.074l-0 0.002 1.735 2.63 1.5-1.14c0.058-0.037 0.097-0.101 0.097-0.174 0-0.009-0.001-0.018-0.002-0.027l0 0.001v-6.86l-0.095 0.065c-0.445 0.335-0.89 0.675-1.34 1-0.061 0.042-0.1 0.111-0.1 0.19 0 0.004 0 0.007 0 0.011l-0-0.001c0 1.375 0 2.755 0 4.13zM19.28 9.84l-1.44 1.085c-0.060 0.040-0.055 0.095-0.055 0.15 0 0.79 0 1.575 0 2.365 0 0.004 0 0.009 0 0.014 0 0.073-0.038 0.138-0.095 0.176l-0.001 0.001c-0.385 0.28-0.765 0.57-1.145 0.855l-0.5 0.365v-2.59l-2.31 1.74c0.288 0.017 0.535 0.18 0.668 0.416l0.002 0.004c0.055 0.122 0.087 0.264 0.087 0.414 0 0.021-0.001 0.043-0.002 0.064l0-0.003v5.39c-0.008 0.022-0.013 0.047-0.013 0.073s0.005 0.051 0.013 0.074l-0-0.002c0.038-0.020 0.071-0.042 0.101-0.066l-0.001 0.001c0.455-0.34 0.905-0.685 1.36-1 0.055-0.037 0.091-0.1 0.091-0.17 0-0.007-0-0.014-0.001-0.020l0 0.001v-2.355c-0-0.005-0.001-0.010-0.001-0.016 0-0.068 0.034-0.127 0.085-0.164l0.001-0 1.555-1.14c0.030 0 0.055-0.060 0.11-0.055v2.555c0.5-0.355 0.925-0.7 1.385-1.040 0.064-0.042 0.106-0.113 0.106-0.193 0-0.006-0-0.012-0.001-0.017l0 0.001c0-2.24 0-4.5 0-6.725zM22.155 7.68l-2.325 1.745 0.15 0.035c0.293 0.054 0.521 0.279 0.579 0.565l0.001 0.005c0.005 0.049 0.008 0.105 0.008 0.162s-0.003 0.114-0.008 0.17l0.001-0.007c0 1.785 0 3.57 0 5.36 0 0.045 0 0.095 0 0.14l0.11-0.075c1.31-1 2.615-1.97 3.93-2.945 0.205-0.15 0.33-0.295 0.25-0.56-0.002-0.020-0.004-0.044-0.004-0.068s0.001-0.047 0.004-0.070l-0 0.003c-0.013-0.196-0.020-0.425-0.020-0.655s0.007-0.459 0.022-0.686l-0.002 0.031-2.76 2.075z"
  />
  <path
    d="M9.78 27.19l0.655-0.5 16.205-12.165c0.045-0.030 0.070-0.070 0.1 0 0.275 0.975 0.685 1.9 1 2.855 0.268 0.74 0.424 1.594 0.424 2.485 0 0.081-0.001 0.162-0.004 0.242l0-0.012c-0.049 1.498-0.568 2.866-1.412 3.972l0.012-0.017c-1.213 1.607-2.944 2.765-4.942 3.229l-0.058 0.011c-1.2 0.29-2.42 0.5-3.63 0.73-0.597 0.106-1.121 0.25-1.625 0.436l0.064-0.021c-0.196 0.099-0.362 0.228-0.498 0.383l-0.002 0.002c-0.030 0.030-0.060 0.080-0.11 0-0.311-0.33-0.73-0.555-1.2-0.619l-0.010-0.001c-1-0.245-2-0.405-3-0.6-0.65-0.1-1.305-0.23-1.97-0.41z"
  />
  <path
    d="M21.83 4.73l-17.775 13.35c0.095-0.375 0.205-0.71 0.325-1.045 0.28-0.775 0.62-1.535 0.835-2.33 0.358-1.131 0.564-2.431 0.564-3.78 0-0.306-0.011-0.61-0.032-0.91l0.002 0.041c-0.083-1.298-0.327-2.509-0.714-3.655l0.029 0.1c-0.010-0.016-0.015-0.035-0.015-0.056 0-0.048 0.031-0.089 0.074-0.104l0.001-0c1.007-0.584 1.829-1.386 2.418-2.345l0.017-0.030c0.060-0.1 0.105-0.115 0.21-0.060 0.813 0.465 1.771 0.779 2.791 0.878l0.029 0.002c0.176 0.015 0.38 0.023 0.586 0.023 0.842 0 1.651-0.14 2.406-0.399l-0.052 0.016c0.903-0.302 1.686-0.712 2.389-1.227l-0.024 0.017c0.027-0.025 0.063-0.040 0.102-0.040s0.076 0.015 0.103 0.041l-0-0c0.97 0.724 2.131 1.249 3.393 1.492l0.052 0.008c0.375 0.072 0.806 0.113 1.247 0.113 0.329 0 0.653-0.023 0.97-0.067l-0.037 0.004z"
  />
</svg>
