<svg xmlns="http://www.w3.org/2000/svg" viewBox="0 0 32 32">
  <path
    d="M27.407 9.394v13.398c0 0.308-0.223 0.559-0.498 0.559h-21.819c-0.275 0-0.498-0.251-0.498-0.559v-13.398c0-0.307 0.223-0.557 0.498-0.557h21.819c0.275 0 0.498 0.25 0.498 0.557z"
    fill="#334552"
    style="fill: #334552"
  />
  <path
    d="M11.822 13.658c0 1.68-1.362 3.041-3.041 3.041s-3.041-1.362-3.041-3.041c0-1.68 1.362-3.041 3.041-3.041s3.041 1.362 3.041 3.041z"
    fill="#0c1d29"
    style="fill: #0c1d29"
  />
  <path
    d="M15.517 23.351h-10.427c-0.275 0-0.498-0.251-0.498-0.559v-3.356c1.162-0.886 2.614-1.411 4.188-1.411 3.274 0 6.016 2.272 6.737 5.326z"
    fill="#0c1d29"
    style="fill: #0c1d29"
  />
  <path
    d="M15.279 16.823h10.743v1.070h-10.743v-1.070z"
    fill="#0c1d29"
    style="fill: #0c1d29"
  />
  <path
    d="M15.279 19.259h10.208c0.296 0 0.535 0.239 0.535 0.535v0c0 0.296-0.239 0.535-0.535 0.535h-10.208v-1.070z"
    fill="#0c1d29"
    style="fill: #0c1d29"
  />
  <path
    d="M8.255 8.22h16.724c0 0.681-0.553 1.234-1.234 1.234h-16.724c0-0.681 0.553-1.234 1.234-1.234z"
    fill="#263742"
    style="fill: #263742"
  />
  <path
    d="M15.279 13.106h3.19v1.103h-3.19v-1.103z"
    fill="#3c8725"
    style="fill: #3c8725"
  />
  <path
    d="M17.853 11.95v3.415l1.708-1.708-1.708-1.708z"
    fill="#69e244"
    style="fill: #69e244"
  />
  <path
    d="M19.663 11.95h0.988v3.415h-0.988v-3.415z"
    fill="#3c8725"
    style="fill: #3c8725"
  />
</svg>
