<svg xmlns="http://www.w3.org/2000/svg" viewBox="0 0 32 32">
  <path
    d="M27.407 9.394v13.398c0 0.308-0.223 0.559-0.498 0.559h-21.819c-0.275 0-0.498-0.251-0.498-0.559v-13.398c0-0.307 0.223-0.557 0.498-0.557h21.819c0.275 0 0.498 0.25 0.498 0.557z"
    fill="#334552"
    style="fill: #334552"
  />
  <path
    d="M11.822 13.658c0 1.68-1.362 3.041-3.041 3.041s-3.041-1.362-3.041-3.041c0-1.68 1.362-3.041 3.041-3.041s3.041 1.362 3.041 3.041z"
    fill="#0c1d29"
    style="fill: #0c1d29"
  />
  <path
    d="M15.517 23.351h-10.427c-0.275 0-0.498-0.251-0.498-0.559v-3.356c1.162-0.886 2.614-1.411 4.188-1.411 3.274 0 6.016 2.272 6.737 5.326z"
    fill="#0c1d29"
    style="fill: #0c1d29"
  />
  <path
    d="M15.279 16.823h10.743v1.070h-10.743v-1.070z"
    fill="#0c1d29"
    style="fill: #0c1d29"
  />
  <path
    d="M25.487 19.259h-10.208v1.070h10.208c0.296 0 0.535-0.239 0.535-0.535s-0.239-0.535-0.535-0.535z"
    fill="#0c1d29"
    style="fill: #0c1d29"
  />
  <path
    d="M8.255 8.22h16.724c0 0.681-0.553 1.234-1.234 1.234h-16.724c0-0.681 0.553-1.234 1.234-1.234z"
    fill="#263742"
    style="fill: #263742"
  />
  <path
    d="M17.814 13.106v0c-0.305 0-0.552 0.247-0.552 0.552s0.247 0.552 0.552 0.552v0c0.305 0 0.552-0.247 0.552-0.552s-0.247-0.552-0.552-0.552z"
    fill="#3c8725"
    style="fill: #3c8725"
  />
  <path
    d="M15.279 13.106h1.103v1.103h-1.103v-1.103z"
    fill="#3c8725"
    style="fill: #3c8725"
  />
  <path
    d="M19.756 13.106l-0.646 1.103h1.292l-0.645-1.103z"
    fill="#69e244"
    style="fill: #69e244"
  />
</svg>
