<svg xmlns="http://www.w3.org/2000/svg" viewBox="0 0 258.32 253">
  <path
    d="M131.82,0C61.95,0,5.32,56.64,5.32,126.5c0,22.36,5.81,43.37,16,61.6l-.28-.17s-2.84,9.12-8.11,16.42c-5.27,7.3-11.83,12.16-12.7,13.38-.88,1.22,.34,10.74,14.33,17.23,17.43,7.7,44.6-4.26,44.6-4.26l.64-.21c20.44,14.19,45.26,22.51,72.03,22.51,69.86,0,126.5-56.64,126.5-126.5S201.68,0,131.82,0Zm0,231.98c-26.68,0-51.03-9.91-69.61-26.24l-1.23-.18c-.12,.07-1.38,.66-10.75,4.86-11.76,5.27-18.65,4.87-18.65,4.87,0,0,2.43-3.45,6.28-10.54,3.85-7.1,6.49-17.64,6.49-17.64l.45-1c-11.64-16.96-18.46-37.49-18.46-59.62,0-58.26,47.23-105.48,105.48-105.48s105.48,47.23,105.48,105.48-47.23,105.48-105.48,105.48Z"
    style="fill: #000"
  />
  <rect height="54.33" rx="7.1" ry="7.1" width="14.19" x="57.32" y="106.43" />
  <circle
    cx="64.54"
    cy="95.88"
    r="8.27"
    transform="translate(-19.83 16.89) rotate(-12.94)"
  />
  <path
    d="M154.33,113.32s-4.54-6.18-10.42-6.89c-4.15-.91-10.57,0-14.14,2.26-1.53,.98-3.32,2.72-4.5,3.94-.08-.06-.17-.1-.25-.15v-.06s-3.63-5.29-9.51-6c-5.88-.71-9.93,.63-12.47,2.25-1.29,.83-2.38,1.84-3.13,2.63-.94-2.82-3.61-4.86-6.73-4.86h0c-3.9,0-7.1,3.19-7.1,7.1v40.14c0,3.9,3.19,7.1,7.1,7.1h0c3.9,0,7.1-3.19,7.1-7.1v-30.98s.93-2.25,4.79-4c6.59-1.7,9.16,3.55,9.16,3.55v31.68c0,3.9,3.19,7.1,7.1,7.1s7.1-3.19,7.1-7.1v-31.23s1.8-2.25,5.65-4c4.45-1.15,7.06,.87,8.3,2.3v32.93c0,3.9,3.19,7.1,7.1,7.1s7.1-3.19,7.1-7.1v-35.41c0-2.03-.87-3.86-2.25-5.16l.02-.03Z"
    style="fill: #000"
  />
  <path
    d="M188.75,106.49c-13.72,0-24.83,12.16-24.83,27.15s11.12,27.15,24.83,27.15,24.83-12.16,24.83-27.15-11.12-27.15-24.83-27.15Zm0,42.48c-5.88,0-10.64-6.86-10.64-15.33s4.77-15.33,10.64-15.33,10.64,6.86,10.64,15.33-4.77,15.33-10.64,15.33Z"
    style="fill: #000"
  />
</svg>
