<svg xmlns="http://www.w3.org/2000/svg" viewBox="0 0 32 32">
  <path
    d="M5.94 20.53h1.655c0.348 0 0.63 0.282 0.63 0.63v3.205c0 0.348-0.282 0.63-0.63 0.63h-1.655c-0.348 0-0.63-0.282-0.63-0.63v-3.205c0-0.348 0.282-0.63 0.63-0.63z"
  />
  <path
    d="M5.93 2.38h1.665c0.693 0 1.255 0.562 1.255 1.255v2.345c0 0.693-0.562 1.255-1.255 1.255h-1.665c-0.693 0-1.255-0.562-1.255-1.255v-2.345c0-0.693 0.562-1.255 1.255-1.255z"
  />
  <path
    d="M22.41 20.53h1.655c0.348 0 0.63 0.282 0.63 0.63v3.205c0 0.348-0.282 0.63-0.63 0.63h-1.655c-0.348 0-0.63-0.282-0.63-0.63v-3.205c0-0.348 0.282-0.63 0.63-0.63z"
  />
  <path
    d="M22.4 2.38h1.665c0.693 0 1.255 0.562 1.255 1.255v2.345c0 0.693-0.562 1.255-1.255 1.255h-1.665c-0.693 0-1.255-0.562-1.255-1.255v-2.345c0-0.693 0.562-1.255 1.255-1.255z"
  />
  <path
    d="M16.965 23.125c8.33-2.335 5.5-8.655 5.5-8.655 2.175-1.41 2-6.5 2-6.5-0.428-0.025-0.929-0.039-1.433-0.039s-1.005 0.014-1.502 0.042l0.069-0.003c-0.509 0.156-0.94 0.442-1.267 0.821l-0.003 0.004h-2.83l-1-4.845h3.1l1.5-3.95h-12.185l1.5 3.95h3.085l-1 4.84h-2.86c-0.33-0.383-0.761-0.669-1.251-0.82l-0.019-0.005c-0.428-0.025-0.929-0.039-1.433-0.039s-1.005 0.014-1.502 0.042l0.069-0.003s-0.16 5.095 2 6.5c0 0-2.815 6.32 5.5 8.655 0.158 2.127 0.405 4.039 0.746 5.919l-0.051-0.339-5.7-3.2v4.5l7 2 7-2v-4.5l-5.7 3.2c0.282-1.546 0.518-3.459 0.655-5.399l0.010-0.176zM13.28 20.28v-4.28h3.44v4.28c0 0.95-0.77 1.72-1.72 1.72s-1.72-0.77-1.72-1.72v0z"
  />
</svg>
