<svg xmlns="http://www.w3.org/2000/svg" viewBox="0 0 24 24">
  <path
    d="M17.89 5.89c-3.48 0-5.19 2.65-6.71 5-1.64 2.53-2.8 4.060-5.070 4.060-1.624 0-2.94-1.316-2.94-2.94s1.316-2.94 2.94-2.94v0c0.042-0.002 0.092-0.003 0.142-0.003 0.954 0 1.819 0.383 2.449 1.003l-0-0 0.38-0.58c0.41-0.64 0.88-1.35 1.42-2.070-1.129-0.953-2.6-1.533-4.207-1.533-0.064 0-0.129 0.001-0.193 0.003l0.009-0c-3.374 0-6.11 2.736-6.11 6.11s2.736 6.11 6.11 6.11v0c4.16 0 6.14-3 7.73-5.51 1.42-2.2 2.38-3.54 4.050-3.54 1.624 0 2.94 1.316 2.94 2.94s-1.316 2.94-2.94 2.94v0c-0.034 0.001-0.075 0.002-0.115 0.002-0.768 0-1.478-0.248-2.055-0.669l0.010 0.007c-0.617 0.971-1.229 1.806-1.891 2.599l0.031-0.039c1.072 0.794 2.421 1.271 3.881 1.271 0.042 0 0.084-0 0.125-0.001l-0.006 0c3.374 0 6.11-2.736 6.11-6.11s-2.736-6.11-6.11-6.11v0z"
  />
</svg>
