<svg xmlns="http://www.w3.org/2000/svg" viewBox="0 0 32 32">
  <path
    d="M32 16c0 2.74-0.7 5.32-1.9 7.56-2.7 5.020-8 8.44-14.1 8.44h-0.24c-1.66-0.020-3.28-0.3-4.78-0.8-6.38-2.1-10.98-8.12-10.98-15.2 0-0.5 0.020-1 0.080-1.5 0.4-4.54 2.72-8.52 6.12-11.14 0.74-0.58 1.54-1.1 2.4-1.54 2.2-1.16 4.72-1.82 7.4-1.82 3.54 0 6.82 1.16 9.48 3.12 1.040 0.76 1.98 1.64 2.8 2.64 1.74 2.080 2.96 4.6 3.46 7.36 0.040 0.2 0.080 0.42 0.1 0.62 0.1 0.74 0.16 1.5 0.16 2.26z"
    fill="#399bed"
  />
  <path
    d="M18.18 28.58c-0.28 0.12-0.86 0.62-0.96 1.68-0.080 0.8-0.76 1.36-1.46 1.74-1.66-0.020-3.28-0.3-4.78-0.8 0.020-0.64 0.080-1.24 0.16-1.72 0.1-0.64-0.060-2.22-1.68-3.48-2.020-1.56-1.68-2.68-1.080-3.48 0.6-0.78 0-1.22-0.6-2.020-0.46-0.62-2.34-1.82-3.22-2.36-3.24 0-3.66-1.48-3.46-2.24-0.86 0-0.92-0.9-0.84-1.34-0.060-0.020-0.12-0.040-0.18-0.060 0.4-4.54 2.72-8.52 6.12-11.14l0.16 0.2c1.78 1.34 3.58 0.68 4.060 0.34 0.36-0.26 0.92-0.56 1.32-0.5 0.14 0 0.26 0.040 0.34 0.16 0.66 0.92-0.040 1.28-0.78 1.52h-0.020c-0.32 0.1-0.64 0.18-0.86 0.28-0.58 0.26-0.24 1 0 1.34 0.92 0.56 2.1-0.060 2.74-0.58 0.1-0.060 0.18-0.14 0.24-0.2 0.26-0.14 0.78-0.32 1.22-0.22 0.16 0.020 0.32 0.1 0.44 0.22 0.6 0.56 1.2 1 2.16 1.68s0 1.9-0.96 1.12c-0.76-0.62-1.12-0.26-1.2 0 0.84 1.34-1.18 1.24-2.38 1.46s-2.14 1.9-2.74 2.24c-0.6 0.34-0.6 2.48-1.56 2.7-0.76 0.18-0.72-0.3-0.6-0.56 0-2.14-4.52-1.12-4.52 0.56s1.66 1.56 2.62 1.56c0.76 0 0.64 0.6 0.48 0.9 0.24 0 0.72 0.18 0.72 0.9s0.86 1.060 1.3 1.12c0.96-0.52 2.16-0.78 2.76-0.78 3.34 0.22 7.040 4.040 8.46 6.62 1.16 2.060-0.48 2.96-1.42 3.14z"
    fill="#69c531"
  />
  <path
    d="M25.78 9.26c-0.1-0.56-0.080-1.64 0.8-1.64s1.26-0.66 1.32-0.98l0.38-0.88c1.74 2.080 2.96 4.6 3.46 7.36-0.060-0.060-0.14-0.12-0.2-0.16-0.12 0-0.58-0.24-1.32-1.2-0.9-1.2-1.82 0-1.82 0.34 0 0.32-0.5 0.86-1.82 0.86-1.040 0-0.64-0.8-0.3-1.2 0.9 0.18 1.46-0.44 1.62-0.76-1.14-0.52-1.020-1.38-0.8-1.74-0.66 0.6-1.16 0.24-1.32 0z"
    fill="#69c531"
  />
  <path
    d="M32 16c0 2.74-0.7 5.32-1.9 7.56-0.18-0.28-0.28-0.64-0.28-1.1 0-1.64-1.22-1.2-1.92-0.98-2.18 1.12-3.28-0.26-3.54-1.1-0.28-0.62-0.66-2.22 0-3.7 0.64-1.5 1.54-2.22 1.92-2.4 0.38 0 1.36-0.18 2.32-0.88 0.98-0.7 1.5-0.14 1.62 0.22 0.14 0.26 0.6 0.68 1.32 0.32 0.14-0.060 0.24-0.14 0.3-0.2 0.1 0.74 0.16 1.5 0.16 2.26z"
    fill="#69c531"
  />
  <path
    d="M25.48 3.12l-0.24 0.42c-0.040 0.6-1.040 1.82-4.7 1.82-0.34 0.64-1.3 1.86-2.42 1.6-0.3-0.060-0.84-0.48-0.64-1.6 0.26-0.62 0.5-1.82-0.62-1.82s-2.080-0.2-2.42-0.3c-0.42-0.18-1.3-0.34-1.4 0.3s0.3 0.88 0.5 0.9c0.56 0.22 1.34 0.7 1.080 1.26-0.080 0.18-0.26 0.38-0.56 0.56-0.16 0.12-0.5 0.16-0.9-0.14-0.24-0.18-0.5-0.48-0.76-0.96-0.3 0.040-0.74 0.040-1.1-0.080h-0.020c-0.3-0.12-0.52-0.3-0.52-0.64 0-0.42 0.56-0.74 0.98-1.040 0.52-0.38 0.88-0.74-0.1-1.18-0.3-0.26-1.32-0.72-3.040-0.4 2.2-1.16 4.72-1.82 7.4-1.82 3.54 0 6.82 1.16 9.48 3.12z"
    fill="#69c531"
  />
</svg>
