<svg xmlns="http://www.w3.org/2000/svg" viewBox="0 0 32 32">
  <path
    d="M25.539 3.382c-2.278-1.851-4.414-2.794-6.122-3.132-1.175-0.231-2.331-0.267-3.417-0.267-1.281 0-5.161-0.178-9.557 3.381-0.712 0.694-1.584 1.762-1.584 2.865v17.459c0.018 0.569 0.107 1.103 0.231 1.566 0.801 2.99 3.417 5.392 6.353 6.656l3.702-3.809c0.214-0.285 1.139-0.285 1.37-0.018l3.986 3.898c2.99-1.264 5.588-3.684 6.407-6.709 0.125-0.463 0.214-0.997 0.231-1.566v-17.441c0-1.103-0.872-2.171-1.602-2.865zM15.697 24.062c-3.417 0.036-6.229 0.712-8.204 1.353 0.694-1.068 2.598-4.734 5.998-5.695 0.836-0.249 1.62-0.552 2.331-0.569 0.641 0 1.37 0.285 2.118 0.48 3.577 0.872 5.713 4.609 6.531 5.802-1.993-0.641-5.037-1.388-8.774-1.353z"
  />
</svg>
