<svg xmlns="http://www.w3.org/2000/svg" viewBox="0 0 32 32">
  <path
    d="M27.813 11.834l4.187-4.227-2.667-2.573-4.24 4.293c-0.628 0.668-1.013 1.57-1.013 2.563 0 0.73 0.209 1.411 0.569 1.986l-0.009-0.016c-1.156-0.252-2.022-1.227-2.106-2.418l-0-0.008v-8.773h-3.493v8.853c0.174 2.475 1.764 4.539 3.957 5.399l0.043 0.015-1.507 1.587c-1.479-1.764-3.246-3.229-5.239-4.338l-0.095-0.048c-1.728-0.899-3.145-2.183-4.174-3.745l-0.026-0.041c-0.508-1.533-1.928-2.62-3.603-2.62-1.791 0-3.292 1.244-3.686 2.914l-0.005 0.026-1.8 7.84-2.907 12.68 3.44 0.813 2.667-11.76 3.133 4v7.76h3.507v-8.453c0-0.006 0-0.012 0-0.019 0-0.403-0.141-0.773-0.376-1.064l0.002 0.003-2.013-2.547 1.107-4.853c0.858 0.713 1.812 1.387 2.817 1.984l0.103 0.056c2.386 1.291 4.301 3.189 5.577 5.489l0.036 0.071c0.179 0.68 0.528 1.262 0.999 1.719l0.001 0.001 0.12 0.107c0.656 0.621 1.543 1.003 2.52 1.003 1.050 0 1.997-0.441 2.665-1.148l0.002-0.002 4.36-4.627c0.649-0.671 1.049-1.586 1.049-2.595 0-1.081-0.459-2.055-1.194-2.736l-0.002-0.002z"
  />
  <path
    d="M12.68 6.221c0.999-0.588 1.659-1.658 1.659-2.882 0-1.841-1.492-3.333-3.333-3.333s-3.333 1.492-3.333 3.333c0 0.615 0.166 1.19 0.456 1.685l-0.008-0.016c0.587 1.002 1.659 1.664 2.885 1.664 0.617 0 1.195-0.168 1.69-0.46l-0.016 0.008z"
  />
  <path
    d="M19.667 23.994c-0.483-0.287-1.065-0.456-1.687-0.456-1.848 0-3.347 1.498-3.347 3.347s1.498 3.347 3.347 3.347c1.234 0 2.311-0.668 2.892-1.661l0.009-0.016c0.284-0.48 0.451-1.058 0.451-1.675 0-1.226-0.662-2.298-1.649-2.877l-0.016-0.009z"
  />
</svg>
