<svg xmlns="http://www.w3.org/2000/svg" viewBox="0 0 32 32">
  <path
    d="M13.253 17.667h1.413c0.066 0.004 0.143 0.007 0.221 0.007 1.29 0 2.427-0.659 3.091-1.66l0.009-0.014c-1.717-0.336-3.211-1.133-4.39-2.257l0.004 0.003c-0.208-0.243-0.379-0.526-0.5-0.833l-0.007-0.020c0.014-0.121 0.022-0.261 0.022-0.403 0-1.708-1.181-3.141-2.771-3.525l-0.025-0.005c-0.272-0.070-0.585-0.111-0.907-0.111s-0.634 0.040-0.933 0.116l0.026-0.006-7.173 1.4c-0.766 0.161-1.333 0.831-1.333 1.633 0 0.002 0 0.005 0 0.007v-0 5.333h3.333v-4l2.36-0.44-1.427 6.28-2.733 12.12 3.253 0.707 2.56-11.227 2.987 3.76v7.467h3.333v-8c0-0.004 0-0.009 0-0.015 0-0.389-0.136-0.747-0.363-1.029l0.002 0.003-1.92-2.427 0.813-3.587c0.303 0.236 0.647 0.474 1.004 0.692l0.049 0.028z"
  />
  <path
    d="M28 24.987l2.667-2.453c0.688-0.655 1.116-1.577 1.116-2.6 0-0.956-0.374-1.825-0.984-2.468l0.002 0.002-4.133-4.373c-0.642-0.672-1.546-1.090-2.547-1.090-0.935 0-1.784 0.364-2.415 0.959l0.002-0.002-0.093 0.107c-0.582 0.549-0.973 1.295-1.065 2.131l-0.001 0.016c-0.13 0.448-0.284 0.832-0.471 1.198l0.017-0.038c-0.157 0.307-0.312 0.564-0.482 0.811l0.016-0.024c-0.182 0.269-0.375 0.505-0.587 0.721l0.001-0.001-0.080 0.093c-0.224 0.234-0.468 0.444-0.731 0.63l-0.016 0.010h-0.080c-0.28 0.193-0.601 0.368-0.939 0.507l-0.034 0.013c-0.695 0.296-1.503 0.468-2.351 0.468-0.036 0-0.072-0-0.107-0.001l0.005 0v3.333c0.081 0.003 0.177 0.004 0.273 0.004 3.085 0 5.802-1.578 7.387-3.971l0.020-0.033 1.107 1.16c-2.156 0.846-3.683 2.848-3.826 5.223l-0.001 0.017v6.667h3.333v-6.547c0.116-1.128 0.92-2.041 1.981-2.316l0.019-0.004c-0.329 0.531-0.525 1.174-0.525 1.864 0 0.952 0.372 1.817 0.979 2.458l-0.002-0.002 4 4 2.547-2.427z"
  />
  <path
    d="M13.587 7.467c0.96-0.561 1.595-1.587 1.595-2.761 0-1.76-1.427-3.187-3.187-3.187s-3.187 1.427-3.187 3.187c0 0.59 0.16 1.142 0.439 1.616l-0.008-0.015c0.558 0.957 1.58 1.591 2.751 1.591 0.588 0 1.139-0.16 1.611-0.439l-0.015 0.008z"
  />
  <path
    d="M20.253 13.427c0.964-0.56 1.601-1.588 1.601-2.764 0-1.76-1.427-3.187-3.187-3.187s-3.187 1.427-3.187 3.187c0 0.586 0.158 1.134 0.434 1.606l-0.008-0.015c0.557 0.963 1.582 1.601 2.756 1.601 0.586 0 1.134-0.159 1.605-0.435l-0.015 0.008z"
  />
</svg>
