<svg xmlns="http://www.w3.org/2000/svg" viewBox="0 0 258.32 253">
  <path
    d="M128.84,47.58c-49.37,0-89.39,31.34-89.39,70.01,0,25.24,17.06,47.36,42.64,59.67-2.79,9.6-6.84,23.55-7.97,27.64-1.94,7.15,.11,8.23,4.32,6.08,2.96-2.37,27.75-18.72,36.19-24.27,0,0,0,0,.01,0,4.63,.58,9.37,.89,14.21,.89,49.37,0,89.39-31.34,89.39-70.01s-40.02-70.01-89.39-70.01Z"
  />
  <g>
    <path
      d="M193.13,133.68l-12.2-16.59,10.83-10.83c2.05-2.05,2.05-5.41,0-7.46-2.05-2.05-5.41-2.05-7.46,0l-12.97,12.97v-10.04c0-2.99-2.44-5.43-5.43-5.43s-5.43,2.44-5.43,5.43v34.78c0,2.99,2.44,5.43,5.43,5.43s5.43-2.44,5.43-5.43v-11.76c.63-.03,1.25-.17,1.83-.42l11.47,15.6c1.72,2.34,5.04,2.84,7.38,1.12h0c2.34-1.72,2.84-5.04,1.12-7.38Z"
      style="fill: #fff"
    />
    <path
      d="M153.59,131.14h-10.2v-29.36c0-3.01-2.46-5.48-5.48-5.48s-5.48,2.46-5.48,5.48v33.9c0,.13,.03,.25,.04,.37,0,.12-.04,.24-.04,.37h0c0,2.9,2.37,5.28,5.28,5.28h15.88c2.9,0,5.28-2.37,5.28-5.28s-2.37-5.28-5.28-5.28Z"
      style="fill: #fff"
    />
    <path
      d="M92.89,96.3h-25.88c-2.89,0-5.26,2.37-5.26,5.26s2.37,5.26,5.26,5.26h7.07v29.85c0,2.9,2.37,5.28,5.28,5.28h.38c2.9,0,5.28-2.37,5.28-5.28v-29.85h7.88c2.89,0,5.26-2.37,5.26-5.26s-2.37-5.26-5.26-5.26Z"
      style="fill: #fff"
    />
    <path
      d="M129.68,135.16l-13.47-35.31c-.5-1.43-2.73-3.3-6.48-3.3-2.77,0-5.46,1.95-5.93,3.3l-13.47,35.31c-.96,2.78,.49,5.78,3.23,6.67,2.74,.89,5.77-.66,6.74-3.44l1.76-5.06h15.01c.3,0,.58-.04,.86-.09l1.79,5.15c.96,2.78,4,4.32,6.74,3.44h0c2.74-.89,4.2-3.89,3.23-6.67Zm-24.25-11.57l4.43-12.76h.28s4.43,12.76,4.43,12.76h-9.14Z"
      style="fill: #fff"
    />
  </g>
  <path
    d="M222.51,16.54H35.81c-9.13,0-16.61,7.47-16.61,16.61V219.85c0,9.13,7.47,16.61,16.61,16.61H222.51c9.13,0,16.61-7.47,16.61-16.61V33.15c0-9.13-7.47-16.61-16.61-16.61Zm-93.68,171.06c-4.84,0-9.58-.31-14.21-.89,0,0,0,0-.01,0-8.43,5.55-33.23,21.9-36.19,24.27-4.2,2.15-6.26,1.07-4.32-6.08,1.14-4.1,5.18-18.04,7.97-27.64-25.58-12.32-42.64-34.43-42.64-59.67,0-38.67,40.02-70.01,89.39-70.01s89.39,31.34,89.39,70.01-40.02,70.01-89.39,70.01Z"
    style="fill: #fff"
  />
</svg>
