<svg xmlns="http://www.w3.org/2000/svg" viewBox="0 0 16 16">
  <path
    d="M15.287 2.667h-14.573c-0.394 0-0.713 0.319-0.713 0.713v0 9.287c0 0.368 0.298 0.667 0.667 0.667v0h14.667c0.368 0 0.667-0.298 0.667-0.667v0-9.287c0-0.394-0.319-0.713-0.713-0.713v0zM8.773 4.453h1.547v1.333h-1.547zM8.773 7.327h1.547v1.333h-1.547zM5.68 4.453h1.547v1.333h-1.547zM5.68 7.327h1.547v1.333h-1.547zM2.593 4.453h1.547v1.333h-1.547zM2.593 7.327h1.547v1.333h-1.547zM13.407 11.547h-10.813v-1.333h10.813zM13.407 8.673h-1.547v-1.34h1.547zM13.407 5.807h-1.547v-1.333h1.547z"
  />
</svg>
