<svg xmlns="http://www.w3.org/2000/svg" viewBox="0 0 32 32">
  <path
    d="M22.8 15.2c-0.35-2.7-2.25-4.9-4.75-5.7v0c-1.45-0.45-1.55-1.75-1.55-1.75v6.050c0 0 0 0 0 0s0 0 0.050 0 0.1 0.050 0.15 0.050c0 0 0 0 0 0 0.050 0 0.1 0.050 0.15 0.050 0 0 0 0 0.050 0s0.1 0.050 0.15 0.050c0 0 0 0 0 0 0.050 0 0.1 0.050 0.15 0.050 0 0 0 0 0 0 0.050 0.050 0.1 0.050 0.15 0.1 0 0 0 0 0 0 0.050 0.050 0.1 0.050 0.1 0.1 0 0 0 0 0 0 0.050 0.050 0.1 0.050 0.1 0.1 0 0 0 0 0 0 0.050 0.050 0.1 0.1 0.1 0.1s0 0 0 0c0.2 0.2 0.35 0.45 0.45 0.7s0.15 0.55 0.15 0.85c0 1.1-0.75 2-1.8 2.25v4.2c3.3-0.25 5.95-3.050 5.95-6.4 0-0.3 0-0.6-0.050-0.85h0.45z"
  />
  <path
    d="M9.35 16.9c0.35 2.7 2.25 4.9 4.75 5.7v0c1.45 0.45 1.55 1.75 1.55 1.75v-6.050c0 0 0 0 0 0s0 0-0.050 0-0.1-0.050-0.15-0.050c0 0 0 0 0 0-0.050 0-0.1-0.050-0.15-0.050 0 0 0 0-0.050 0s-0.1-0.050-0.15-0.050c0 0 0 0 0 0-0.050 0-0.1-0.050-0.15-0.050 0 0 0 0 0 0-0.050-0.050-0.1-0.050-0.15-0.1 0 0 0 0 0 0-0.050-0.050-0.1-0.050-0.1-0.1 0 0 0 0 0 0-0.050-0.050-0.1-0.050-0.1-0.1 0 0 0 0 0 0-0.050-0.050-0.1-0.1-0.1-0.1s0 0 0 0c-0.2-0.2-0.35-0.45-0.45-0.7s-0.15-0.55-0.15-0.85c0-1.1 0.75-2 1.8-2.25v-4.2c-3.3 0.25-5.95 3.050-5.95 6.4 0 0.3 0 0.6 0.050 0.85h-0.45z"
  />
  <path
    d="M30.45 13.15c0 0 0 0 0 0-0.050-0.3-0.1-0.55-0.2-0.8-1.4-7 1.75-10.8 1.75-10.8l-8.3 8.25c1.4 1.7 2.2 3.85 2.2 6.25 0 5.45-4.45 9.9-9.9 9.9-2.4 0-4.6-0.85-6.3-2.25l-3.45 3.45c2.6 2.3 6 3.7 9.75 3.7 3.3 0 6.35-1.1 8.8-2.9l-0.5-0.5c1.2-0.85 2.2-1.9 3.1-3.1l0.6 0.35c1.75-2.45 2.8-5.4 2.8-8.65-0.050-1-0.15-1.95-0.35-2.9v0z"
  />
  <path
    d="M1.55 18.85c0 0 0 0 0 0 0.050 0.3 0.1 0.55 0.2 0.8 1.4 7-1.75 10.8-1.75 10.8l8.3-8.25c-1.4-1.7-2.2-3.85-2.2-6.25 0-5.45 4.45-9.9 9.9-9.9 2.4 0 4.6 0.85 6.3 2.25l3.45-3.45c-2.6-2.3-6-3.7-9.75-3.7-3.3 0-6.35 1.1-8.8 2.9l0.5 0.5c-1.2 0.9-2.2 1.95-3.1 3.15l-0.6-0.35c-1.75 2.45-2.8 5.4-2.8 8.65 0.050 0.95 0.15 1.9 0.35 2.85v0z"
  />
</svg>
