<svg xmlns="http://www.w3.org/2000/svg" viewBox="0 0 32 32">
  <path
    d="M29.28 2.72c-3.627-3.627-9.507-3.627-13.133 0-1.533 1.533-2.4 3.947-2.653 5.427-0.4 2.32-1.627 5.16-3.187 6.347-0.467 0.24-0.907 0.56-1.293 0.96-1.64 1.64-1.973 4.093-1.013 6.067l-8 8 2.48 2.48 8-8c1.987 0.96 4.427 0.627 6.067-1.013 0.387-0.387 0.707-0.827 0.96-1.293 1.2-1.56 4.6-2.827 6.333-3.2 1.96-0.427 3.92-1.12 5.44-2.64 3.627-3.627 3.627-9.507 0-13.133zM26.453 5.547c1.267 1.267 1.747 3.027 1.453 4.68l-6.133-6.133c0.307-0.053 0.613-0.093 0.933-0.093 1.413 0 2.747 0.547 3.747 1.547zM25.16 13.907l-7.053-7.053c0.253-0.507 0.533-0.987 0.853-1.293 0.080-0.080 0.187-0.147 0.28-0.227l7.44 7.44c-0.080 0.093-0.133 0.187-0.227 0.28-0.333 0.333-0.76 0.627-1.293 0.867zM14.32 19.28l-0.2 0.267-0.16 0.307c-0.067 0.12-0.147 0.227-0.24 0.333-0.347 0.347-0.733 0.387-0.947 0.387s-0.6-0.053-0.947-0.387c-0.347-0.347-0.387-0.733-0.387-0.947s0.053-0.6 0.387-0.947c0.093-0.093 0.213-0.173 0.333-0.24l0.293-0.16 0.267-0.2c2.413-1.84 3.88-5.24 4.507-7.933l5.040 5.040c-1.68 0.453-5.907 1.827-7.947 4.493z"
  />
  <path
    d="M21.667 23.293c-2.227 1.293-3 4.147-1.707 6.373s4.147 3 6.373 1.707 3-4.147 1.707-6.373-4.147-3-6.373-1.707z"
  />
</svg>
