<svg xmlns="http://www.w3.org/2000/svg" viewBox="0 0 32 32">
  <path
    d="M16 0c-8.832 0-16 7.168-16 16s7.168 16 16 16c8.832 0 16-7.168 16-16s-7.168-16-16-16zM28.704 14.4h-5.536c-0.176-4.048-1.040-7.664-2.336-10.256 4.208 1.712 7.296 5.6 7.872 10.256zM3.296 17.6h5.536c0.176 4.048 1.040 7.664 2.336 10.256-4.208-1.712-7.28-5.6-7.872-10.256zM8.832 14.4h-5.536c0.576-4.656 3.664-8.544 7.872-10.256-1.296 2.592-2.144 6.208-2.336 10.256zM18.176 26c-0.544 1.2-1.104 1.984-1.568 2.416-0.224 0.208-0.384 0.304-0.48 0.352-0.080 0.032-0.112 0.032-0.128 0.032v0 0c-0.016 0-0.048 0-0.128-0.032-0.096-0.048-0.256-0.144-0.48-0.352-0.464-0.432-1.024-1.216-1.568-2.416-0.928-2.080-1.616-5.008-1.792-8.4h7.92c-0.16 3.392-0.848 6.32-1.776 8.4zM12.032 14.4c0.16-3.392 0.848-6.32 1.792-8.4 0.544-1.2 1.104-1.984 1.568-2.416 0.224-0.208 0.384-0.304 0.48-0.352 0.080-0.032 0.112-0.032 0.128-0.032v0 0c0.016 0 0.048 0 0.128 0.032 0.096 0.048 0.256 0.144 0.48 0.352 0.464 0.432 1.024 1.216 1.568 2.416 0.928 2.080 1.616 5.008 1.792 8.4h-7.936zM20.832 27.856c1.28-2.592 2.144-6.208 2.336-10.256h5.536c-0.576 4.656-3.664 8.544-7.872 10.256z"
  />
</svg>
