<svg xmlns="http://www.w3.org/2000/svg" viewBox="0 0 32 32">
  <path
    d="M5.82 0c-0.403 0.001-0.729 0.327-0.729 0.73 0 0.164 0.054 0.315 0.145 0.437l-0.001-0.002 2.040 2.715v24.24l-2.775 2.715c-0.091 0.121-0.145 0.274-0.145 0.44 0 0.118 0.028 0.23 0.077 0.329l-0.002-0.004c0.123 0.239 0.368 0.4 0.65 0.4h21.1c0 0 0.001 0 0.002 0 0.23 0 0.434-0.107 0.567-0.274l3.636-3.636c0.1-0.123 0.161-0.282 0.161-0.455 0-0.4-0.325-0.725-0.725-0.725 0 0 0 0-0.001 0h-15.275v-26.185c0-0.4-0.325-0.725-0.725-0.725v0zM16 2.91v1.455c0.006 0 0.013 0 0.020 0 7.218 0 13.070 5.852 13.070 13.070 0 3.036-1.035 5.83-2.772 8.049l0.022-0.029h1.795c1.51-2.255 2.411-5.030 2.411-8.015 0-8.025-6.505-14.53-14.53-14.53-0.005 0-0.011 0-0.016 0h0.001zM16 5.82v19.635h8.43c1.985-2.081 3.207-4.905 3.207-8.015 0-6.418-5.202-11.62-11.62-11.62-0.006 0-0.012 0-0.018 0h0.001zM5.82 7.085c-2.502 2.458-4.115 5.813-4.318 9.543l-0.002 0.037c0 0.26 0 0.525 0 0.79 0 0.43 0 0.855 0.055 1.275 0.326 3.586 1.913 6.751 4.307 9.092l0.003 0.003v-2.16c-1.812-2.221-2.91-5.087-2.91-8.21s1.098-5.989 2.929-8.234l-0.019 0.024zM5.82 11.835c-0.916 1.62-1.455 3.557-1.455 5.62s0.54 4 1.485 5.678l-0.030-0.058z"
  />
</svg>
