<svg xmlns="http://www.w3.org/2000/svg" viewBox="0 0 32 32">
  <path
    d="M32 13.733c0-7.16-7.173-12.973-16-12.973s-16 5.813-16 12.973c0 6.427 5.693 11.8 13.333 12.813 0.52 0.12 1.227 0.347 1.4 0.787 0.051 0.218 0.080 0.469 0.080 0.727s-0.029 0.508-0.084 0.749l0.004-0.022-0.227 1.333c-0.067 0.4-0.32 1.573 1.333 0.853 4.823-2.586 8.963-5.693 12.57-9.33l0.004-0.004c2.105-2.005 3.454-4.786 3.586-7.883l0.001-0.024zM10.36 17.573c-0.007 0.164-0.142 0.293-0.306 0.293-0 0-0 0-0 0h-4.493c-0.004 0-0.009 0-0.013 0-0.162 0-0.293-0.131-0.293-0.293 0-0 0-0 0-0v0-6.987c0-0.169 0.137-0.307 0.307-0.307v0h1.107c0.169 0 0.307 0.137 0.307 0.307v0 5.547h3.080c0 0 0 0 0 0 0.165 0 0.299 0.13 0.306 0.293l0 0.001zM13.027 17.573c-0.007 0.164-0.142 0.293-0.306 0.293-0 0-0 0-0 0h-1.093c-0.004 0-0.009 0-0.013 0-0.162 0-0.293-0.131-0.293-0.293 0-0 0-0 0-0v0-6.987c0-0.169 0.137-0.307 0.307-0.307v0h1.133c0.169 0 0.307 0.137 0.307 0.307v0zM20.747 17.573c0 0 0 0 0 0 0 0.162-0.131 0.293-0.293 0.293-0.005 0-0.009-0-0.014-0l0.001 0h-1.413l-3.2-4.32v4.147c0 0 0 0 0 0 0 0.162-0.131 0.293-0.293 0.293-0.005 0-0.009-0-0.014-0l0.001 0h-1.133c-0 0-0 0-0 0-0.165 0-0.299-0.13-0.306-0.293l-0-0.001v-7.107c0-0.169 0.137-0.307 0.307-0.307v0h1.333l3.2 4.32v-4.013c0-0.169 0.137-0.307 0.307-0.307v0h1.133c0.169 0 0.307 0.137 0.307 0.307v0zM26.947 11.72c-0.013 0.149-0.131 0.267-0.279 0.28l-0.001 0h-3.040v1.2h3.040c0.166 0.007 0.3 0.14 0.307 0.306l0 0.001v1.16c0 0.169-0.137 0.307-0.307 0.307h-3.040v1.187h3.040c0 0 0 0 0 0 0.165 0 0.299 0.13 0.306 0.293l0 0.001v1.147c-0.007 0.164-0.142 0.293-0.306 0.293-0 0-0 0-0 0h-4.48c-0.004 0-0.009 0-0.013 0-0.162 0-0.293-0.131-0.293-0.293 0-0 0-0 0-0v0-7.013c0-0.169 0.137-0.307 0.307-0.307h4.48c0.169 0 0.307 0.137 0.307 0.307v0z"
  />
</svg>
