<svg xmlns="http://www.w3.org/2000/svg" viewBox="0 0 40 40">
  <path
    d="M39.709,32.507 L30.633,40.011 L30.633,35.008 L18.532,35.008 L18.532,30.006 L30.633,30.006 L30.633,25.003 L39.709,32.507 ZM28.702,25.000 L25.702,25.000 C25.702,25.000 26.020,24.048 22.702,22.000 C20.382,20.567 14.924,20.070 10.702,23.000 C5.872,26.352 2.702,36.000 2.702,36.000 L0.702,36.000 C0.702,36.001 3.442,23.430 11.702,20.000 C12.397,19.711 13.071,19.480 13.726,19.298 C10.817,18.271 7.680,15.987 7.702,11.000 C7.734,3.790 13.389,1.297 16.702,1.000 C17.286,0.948 17.542,0.942 17.655,0.951 C17.768,0.942 18.023,0.948 18.608,1.000 C21.921,1.297 27.576,3.790 27.608,11.000 C27.631,16.116 24.328,18.392 21.359,19.380 C26.166,20.950 28.702,25.000 28.702,25.000 ZM25.608,11.000 C25.739,2.813 18.603,2.945 17.702,2.994 L17.702,3.000 C17.702,3.000 17.671,2.998 17.655,2.997 C17.639,2.998 17.608,3.000 17.608,3.000 L17.608,2.994 C16.707,2.945 9.571,2.813 9.702,11.000 C9.782,16.032 14.407,17.602 16.702,18.000 C17.259,18.097 17.497,18.097 17.608,18.074 L17.608,18.034 C17.614,18.045 17.629,18.056 17.656,18.066 C17.681,18.056 17.697,18.045 17.702,18.034 L17.702,18.077 C17.818,18.098 18.066,18.094 18.608,18.000 C20.903,17.602 25.528,16.032 25.608,11.000 Z"
  />
</svg>
