<svg xmlns="http://www.w3.org/2000/svg" viewBox="0 0 64 32">
  <path
    d="M4.153 9.196c0-4.281 2.718-6.654 7.745-6.67 3.616 0 4.265 2.357 4.265 3.207 0 1.651-2.333 3.399-2.333 3.399s0.136 1.018 2.133 1.010c1.996-0.008 3.952-1.323 3.936-4.626 0-3.792-4.008-5.532-7.921-5.516-3.287 0-11.977 0.473-11.977 9.131 0 7.704 14.535 8.378 14.551 13.316 0 5.347-5.981 6.79-8.017 6.798s-2.862-1.443-2.862-2.245c0-4.329 4.297-5.54 4.297-5.54-0.009-0.242-0.067-0.48-0.169-0.7s-0.247-0.417-0.426-0.581c-0.179-0.163-0.389-0.29-0.617-0.371s-0.47-0.117-0.713-0.104c-4.281 0-5.997 3.704-5.981 7.312 0 3.070 2.181 4.987 5.46 4.979 6.261 0 13.324-3.087 13.3-9.877-0.024-6.35-14.655-8.009-14.671-12.924z"
  />
  <path
    d="M63.88 26.216c-0.048-0.12-0.184-0.088-0.377 0.064-0.82 0.769-1.786 1.365-2.841 1.753s-2.177 0.561-3.3 0.507c-6.935 0-8.137-11.408-8.137-11.408s5.291-3.952 6.093-5.54c0.802-1.587-1.78-1.972-1.78-1.972s-3.696 4.505-6.317 5.828c0.281-1.956 2.213-6.414 2.333-8.987s-3.054-1.916-3.6-1.652c0 1.122-2.822 11.288-3.856 16.876-0.601 0.97-1.467 2.084-2.245 2.084-0.449 0-0.617-0.802-0.617-2.028 0-1.651 0.906-4.305 0.906-5.917 0-1.114-0.513-1.187-0.954-1.179h-0.706c-1.13 0-0.762-0.962-1.78-0.954-3.111 0-7.079 3.407-7.215 8.546-1.050 0.697-2.517 1.603-3.271 1.603s-1.042-0.762-1.042-1.395c0-1.106 1.788-7.68 1.788-7.68s2.277-0.585 3.279-0.802c0.754-0.152 0.962-0.208 1.259-0.569s0.866-1.114 1.323-1.788c0.457-0.674 0-1.203-0.802-1.195-1.389 0.138-2.766 0.373-4.121 0.706 0 0 1.403-6.189 1.395-6.309s-0.168-0.192-0.401-0.192c-0.736 0.076-1.459 0.251-2.149 0.521-0.437 0.204-0.83 0.492-1.154 0.848s-0.576 0.774-0.738 1.228c-0.16 0.545-1.235 4.81-1.235 4.81s-5.78 1.996-6.574 2.301c-0.023 0.008-0.043 0.023-0.058 0.043s-0.022 0.044-0.022 0.069c0 0.048 0.665 2.581 2.012 2.573 0.978 0 3.824-1.163 3.824-1.163s-1.459 5.796-1.451 7.728c0 1.243 0.585 2.702 3.022 2.694 1.943-0.098 3.809-0.789 5.347-1.98 0.243 0.594 0.662 1.1 1.201 1.448s1.172 0.523 1.814 0.5c1.566-0.121 3.029-0.828 4.097-1.98 0.163 0.536 0.484 1.010 0.922 1.36s0.972 0.557 1.531 0.597c0.866 0 1.764-0.978 2.405-1.908-0.013 0.195-0.013 0.39 0 0.585 0.265 2.405 3.848 0.994 4.009 0.657 0.12-1.748 0-5.315 0.738-7.512 0.922 7.512 4.433 12.563 10.735 12.539 3.519 0 5.323-1.026 6.077-1.86 0.317-0.324 0.543-0.726 0.654-1.165s0.104-0.9-0.021-1.336zM33.672 23.739c-3.022 0 0.93-7.833 3.512-7.841-0.032 1.010-0.088 7.833-3.512 7.841z"
  />
  <path
    d="M58.212 26.144c0.991-0.020 1.967-0.244 2.868-0.657s1.707-1.009 2.367-1.748c0.497-0.762-0.585-1.916-0.93-1.892-0.456 0.566-1.032 1.024-1.686 1.34s-1.371 0.483-2.098 0.488c-2.405 0-1.844-2.614-1.844-2.614s4.586 0.593 6.414-2.702c0.504-0.961 0.644-2.071 0.393-3.127-0.249-0.633-1.603-1.788-3.696-1.603-2.606 0.224-5.893 2.942-6.614 6.205-0.585 2.614 0.513 6.325 4.826 6.309zM61.122 15.136c0.433 0 0.393 0.697 0.281 1.435-0.16 1.002-1.547 3.552-4.177 3.455 0.184-1.483 2.141-4.794 3.896-4.89z"
  />
</svg>
