<svg xmlns="http://www.w3.org/2000/svg" viewBox="0 0 32 32">
  <path
    d="M29.613 27.16c-0.13 0.237-0.34 0.416-0.592 0.504l-0.008 0.002c-0.081 0.017-0.174 0.027-0.269 0.027-0.278 0-0.536-0.085-0.749-0.23l0.005 0.003-26.667-14.48-1.227 2.347 26.56 14.467c0.593 0.349 1.304 0.56 2.063 0.573l0.004 0c0.008 0 0.018 0 0.027 0 0.371 0 0.729-0.059 1.064-0.167l-0.024 0.007c0.973-0.32 1.751-1.003 2.19-1.885l0.010-0.022z"
  />
  <path
    d="M7.853 13.587l10.893 6.16 9.707 5.587 1.653-2.907-9.6-5.467 0.133-0.187 9.84 4.227 1.333-3.067-12.293-5.333-8.453-4.733c-0.323-0.182-0.7-0.317-1.1-0.384l-0.021-0.003c-0.149-0.024-0.32-0.038-0.495-0.038-1.812 0-3.28 1.469-3.28 3.28 0 1.225 0.671 2.292 1.665 2.856l0.016 0.008z"
  />
  <path
    d="M4.347 8.813c1.187-0.477 2.010-1.619 2.010-2.952 0-1.753-1.421-3.173-3.173-3.173s-3.173 1.421-3.173 3.173c0 0.415 0.080 0.811 0.224 1.174l-0.008-0.021c0.474 1.193 1.619 2.021 2.957 2.021 0.419 0 0.819-0.081 1.185-0.229l-0.021 0.008z"
  />
</svg>
