<svg xmlns="http://www.w3.org/2000/svg" viewBox="0 0 32 32">
  <path
    d="M22.667 10.36c0.459 0.271 1.011 0.431 1.601 0.431 1.76 0 3.187-1.427 3.187-3.187s-1.427-3.187-3.187-3.187c-1.174 0-2.2 0.635-2.753 1.58l-0.008 0.015c-0.265 0.456-0.421 1.003-0.421 1.586 0 1.17 0.628 2.194 1.566 2.752l0.015 0.008z"
  />
  <path
    d="M5.813 21.773h0.093c0.148 0.092 0.319 0.177 0.499 0.246l0.021 0.007c0.456 0.186 0.985 0.293 1.54 0.293 0.012 0 0.024-0 0.035-0h-0.002c0.033 0.001 0.072 0.001 0.111 0.001 1.054 0 2.021-0.373 2.776-0.994l-0.008 0.006c1.367-1.049 3.101-1.681 4.983-1.681 0.048 0 0.096 0 0.144 0.001l-0.007-0c0.035-0.001 0.077-0.001 0.119-0.001 1.884 0 3.619 0.632 5.007 1.695l-0.020-0.015c0.748 0.615 1.715 0.988 2.769 0.988 0.044 0 0.087-0.001 0.131-0.002l-0.006 0c0.032 0.001 0.069 0.001 0.106 0.001 1.060 0 2.033-0.373 2.796-0.994l-0.008 0.006c1.36-1.049 3.089-1.681 4.965-1.681 0.050 0 0.099 0 0.149 0.001l-0.007-0v-4c-0.039-0.001-0.086-0.001-0.132-0.001-1.879 0-3.611 0.632-4.994 1.695l0.019-0.014c-0.754 0.615-1.727 0.988-2.788 0.988-0.037 0-0.074-0-0.111-0.001l0.005 0c-0.037 0.001-0.080 0.002-0.124 0.002-1.054 0-2.022-0.373-2.777-0.994l0.008 0.006c-1.016-0.771-2.242-1.32-3.577-1.553l-0.050-0.007h-0.253c-0.371-0.057-0.801-0.091-1.238-0.093h-0.002c-0.047-0.001-0.102-0.002-0.158-0.002-1.867 0-3.588 0.622-4.969 1.67l0.020-0.015c-0.748 0.615-1.715 0.988-2.769 0.988-0.039 0-0.078-0-0.117-0.002l0.006 0c-0.038 0.001-0.083 0.002-0.129 0.002-1.053 0-2.019-0.373-2.772-0.995l0.007 0.006-0.493-0.333-0.107-0.067-0.507-0.267-0.147-0.080-0.52-0.253h-0.12c-0.946-0.425-2.050-0.675-3.212-0.68h-0.002v4c0.037-0.001 0.080-0.001 0.124-0.001 1.882 0 3.616 0.632 5.003 1.695l-0.020-0.014z"
  />
  <path
    d="M32 22.32c-0.227 0-0.44 0-0.653 0-1.695 0.114-3.227 0.728-4.472 1.694l0.019-0.014c-0.754 0.615-1.727 0.988-2.788 0.988-0.037 0-0.074-0-0.111-0.001l0.005 0c-0.037 0.001-0.080 0.002-0.124 0.002-1.054 0-2.022-0.373-2.777-0.994l0.008 0.006c-1.23-0.937-2.763-1.538-4.43-1.639l-0.023-0.001c-0.213 0-0.413 0-0.64 0v0c-0.227 0-0.44 0-0.64 0-1.705 0.094-3.252 0.696-4.514 1.655l0.020-0.015c-0.748 0.615-1.715 0.988-2.769 0.988-0.039 0-0.078-0-0.117-0.002l0.006 0c-0.038 0.001-0.083 0.002-0.129 0.002-1.053 0-2.019-0.373-2.772-0.995l0.007 0.006c-1.227-0.936-2.754-1.536-4.417-1.639l-0.023-0.001c-0.213 0-0.427 0-0.653 0h-0.013v4c0.052-0.001 0.114-0.002 0.175-0.002 1.859 0 3.574 0.617 4.952 1.657l-0.021-0.015c0.746 0.615 1.712 0.989 2.765 0.989 0.045 0 0.090-0.001 0.135-0.002l-0.007 0c0.033 0.001 0.072 0.001 0.111 0.001 1.054 0 2.021-0.373 2.776-0.994l-0.008 0.006c1.367-1.049 3.101-1.681 4.983-1.681 0.048 0 0.096 0 0.144 0.001l-0.007-0c0.035-0.001 0.077-0.001 0.119-0.001 1.884 0 3.619 0.632 5.007 1.695l-0.020-0.015c0.748 0.615 1.715 0.988 2.769 0.988 0.044 0 0.087-0.001 0.131-0.002l-0.006 0c0.032 0.001 0.069 0.001 0.106 0.001 1.060 0 2.033-0.373 2.796-0.994l-0.008 0.006c1.364-1.049 3.095-1.681 4.974-1.681 0.047 0 0.093 0 0.139 0.001l-0.007-0v-4z"
  />
  <path
    d="M6.587 15.107c0.773 0.52 0.827 0.547 1.333 0.547s0.64 0 1.413-0.547c1.777-1.326 4.017-2.122 6.443-2.122 0.079 0 0.157 0.001 0.236 0.002l-0.012-0c0.025-0 0.054-0 0.083-0 2.471 0 4.757 0.795 6.616 2.143l-0.033-0.023c0.773 0.52 0.827 0.547 1.413 0.547s0.627 0 1.413-0.547c1.627-1.197 3.641-1.958 5.825-2.079l0.028-0.001-1.52-2.467c-7.213 4.2-9.467 0.427-10.213-0.813-2.88-4.827-8.213-8.64-13.613-6.28l1.333 3.053c2.667-1.147 5.147 0.16 7.027 1.947l-10.36 5.227c0.988 0.402 1.84 0.876 2.624 1.439l-0.037-0.026z"
  />
</svg>
