<svg xmlns="http://www.w3.org/2000/svg" viewBox="0 0 32 32">
  <path
    d="M7.347 28h19.32v1.333c0 1.473-1.194 2.667-2.667 2.667v0h-13.987c-1.473 0-2.667-1.194-2.667-2.667v0zM29.333 9.333v8l-2.667 8h-19.32l-4.68-8v-9.333c0.056-0.749 0.678-1.336 1.436-1.336 0.029 0 0.059 0.001 0.088 0.003l-0.004-0h2.48v-1.333c0-2.209 1.791-4 4-4v0h3.707c0.731-0.815 1.785-1.327 2.959-1.333h1.335c1.175 0.006 2.229 0.519 2.957 1.33l0.003 0.004h3.707c2.209 0 4 1.791 4 4v0 4zM9.333 6.667h4v-2.667h-2.667c-0.736 0-1.333 0.597-1.333 1.333v0zM13.333 9.333h-8v2.667h5.333c1.473 0 2.667-1.194 2.667-2.667v0zM20 4c0-0.736-0.597-1.333-1.333-1.333v0h-1.333c-0.736 0-1.333 0.597-1.333 1.333v0 8c0 0.736 0.597 1.333 1.333 1.333v0h1.333c0.736 0 1.333-0.597 1.333-1.333v0zM26.667 5.333c0-0.736-0.597-1.333-1.333-1.333v0h-2.667v8c-0.004 0.479-0.092 0.937-0.249 1.361l0.009-0.028h1.573c1.473 0 2.667-1.194 2.667-2.667v0z"
  />
</svg>
