<svg xmlns="http://www.w3.org/2000/svg" viewBox="0 0 32 32">
  <path
    d="M31.333 27.427v-13.48c0-1.56-0.627-3.067-1.72-4.16l-8.053-8.053c-1.107-1.107-2.6-1.72-4.16-1.72h-13.627l12.16 12.16 6.147-6.147 4.613 4.653v12.133l4.64 4.64z"
  />
  <path
    d="M28.92 32l-7.16-7.16v-11.533l-5.84 5.84-5.787-5.787v12.96l-4.933-5.027v-12.88l-4.533-4.533v14.093c0 1.56 0.627 3.067 1.72 4.16l8.147 8.147c1.107 1.107 2.6 1.72 4.16 1.72h14.227z"
  />
  <path d="M31.333 7.307v-7.307h-7.307l7.307 7.307z" />
  <path d="M31.28 32h0.053v-0.067l-0.053 0.067z" />
  <path d="M0.667 24.6v7.4h7.387l-7.387-7.4z" />
</svg>
