<svg xmlns="http://www.w3.org/2000/svg" viewBox="0 0 32 32">
  <path
    d="M26.893 27c-0.759 0.623-1.739 1.001-2.808 1.001-0.030 0-0.060-0-0.090-0.001l0.004 0c-0.031 0.001-0.067 0.001-0.104 0.001-1.063 0-2.038-0.378-2.797-1.007l0.007 0.006c-1.366-1.041-3.097-1.668-4.975-1.668-0.046 0-0.093 0-0.139 0.001l0.007-0c-0.041-0.001-0.088-0.001-0.136-0.001-1.876 0-3.605 0.627-4.99 1.683l0.020-0.015c-0.292 0.18-0.545 0.364-0.782 0.567l0.008-0.007c-0-0.050-0.001-0.108-0.001-0.167 0-1.677 0.2-3.307 0.576-4.868l-0.029 0.141c1.589-1.38 2.768-3.193 3.355-5.257l0.019-0.077s7.213 0.613 9.44-3.293h2.253s-1.507 3.507-3.747 3.507l-0.653 2.053s8.2-1.027 8.2-7.427c0 0-2.667-1.053-2.667-5.427 0 0 0.907 2.667 2.933 1.773l1.040 1.653 1.16-1.653-2.773-6.667 0.84-1.24h-2.067c-7.293 0.040-7.4 10.053-11.187 10.053s-7.787 0.227-8.973 2.773c-1.292 0.234-2.314 1.176-2.661 2.403l-0.006 0.024c-0.827 2.88-5.173 3.040-5.173 3.040v3.76c4.133 0 6.573-4 7.64-6.387 0.453 1.693 1.773 2.88 1.693 3.32s-1.88 2.533-1.88 2.533v5.867c-0.908-0.093-1.72-0.439-2.383-0.967l0.009 0.007c-1.374-1.065-3.123-1.707-5.022-1.707-0.021 0-0.041 0-0.062 0l0.003-0v4c0.041-0.001 0.088-0.001 0.136-0.001 1.876 0 3.605 0.627 4.99 1.683l-0.020-0.015c0.75 0.623 1.723 1.001 2.785 1.001 0.038 0 0.076-0.001 0.114-0.001l-0.006 0c0.031 0.001 0.067 0.001 0.104 0.001 1.063 0 2.038-0.378 2.797-1.007l-0.007 0.006c1.365-1.041 3.094-1.668 4.97-1.668 0.048 0 0.096 0 0.144 0.001l-0.007-0c0.043-0.001 0.094-0.001 0.145-0.001 1.877 0 3.608 0.627 4.995 1.683l-0.020-0.015c0.752 0.623 1.726 1.001 2.789 1.001 0.032 0 0.064-0 0.096-0.001l-0.005 0c0.025 0.001 0.055 0.001 0.085 0.001 1.069 0 2.050-0.378 2.816-1.007l-0.008 0.006c1.36-1.041 3.086-1.668 4.957-1.668 0.053 0 0.105 0 0.157 0.001l-0.008-0v-4c-0.044-0.001-0.097-0.001-0.149-0.001-1.872 0-3.597 0.627-4.977 1.683l0.020-0.015z"
  />
  <path
    d="M2.747 3.413c0.552-0.322 0.917-0.912 0.917-1.587 0-1.011-0.82-1.831-1.831-1.831-0.336 0-0.651 0.091-0.922 0.249l0.009-0.005c-0.553 0.328-0.917 0.921-0.917 1.6 0 0.333 0.088 0.646 0.242 0.916l-0.005-0.009c0.325 0.549 0.915 0.912 1.589 0.912 0.338 0 0.654-0.091 0.927-0.25l-0.009 0.005z"
  />
  <path
    d="M9.747 3.413c0.552-0.325 0.916-0.915 0.916-1.591 0-0.331-0.088-0.642-0.241-0.911l0.005 0.009c-0.322-0.552-0.912-0.917-1.587-0.917-1.011 0-1.831 0.82-1.831 1.831 0 0.336 0.091 0.651 0.249 0.922l-0.005-0.009c0.322 0.549 0.909 0.911 1.581 0.911 0.336 0 0.651-0.091 0.921-0.249l-0.009 0.005z"
  />
  <path
    d="M2.747 10.507c0.545-0.323 0.904-0.908 0.904-1.576 0-1.009-0.818-1.827-1.827-1.827s-1.827 0.818-1.827 1.827c0 0.335 0.090 0.649 0.247 0.918l-0.005-0.009c0.321 0.552 0.91 0.917 1.584 0.917 0.34 0 0.658-0.093 0.931-0.255l-0.008 0.005z"
  />
  <path
    d="M7.92 7.347c-0.541 0.324-0.898 0.907-0.898 1.573 0 1.009 0.818 1.827 1.827 1.827s1.827-0.818 1.827-1.827c0-0.339-0.092-0.656-0.253-0.928l0.005 0.008c-0.323-0.546-0.908-0.907-1.578-0.907-0.342 0-0.663 0.094-0.937 0.258l0.008-0.005z"
  />
  <path
    d="M4.107 6.733c0.325 0.301 0.761 0.486 1.241 0.486 1.009 0 1.827-0.818 1.827-1.827s-0.818-1.827-1.827-1.827c-0.533 0-1.013 0.228-1.347 0.592l-0.001 0.001c-0.297 0.324-0.479 0.757-0.479 1.233 0 0.529 0.225 1.006 0.584 1.339l0.001 0.001z"
  />
</svg>
