<svg xmlns="http://www.w3.org/2000/svg" viewBox="0 0 176 32">
  <path
    d="M163.734 26.291l-6.586-15.126h4.41l4.496 10.848 5.197-10.848h4.336l-10.25 20.835h-4.41l2.803-5.709zM147.702 23.158c0.39-0.090 0.765-0.227 1.117-0.416 0.339-0.182 0.656-0.403 0.941-0.666 0.285-0.259 0.531-0.56 0.73-0.89 0.208-0.346 0.371-0.72 0.483-1.11 0.118-0.426 0.179-0.864 0.176-1.306 0.003-0.448-0.054-0.893-0.176-1.322-0.112-0.39-0.272-0.762-0.483-1.11-0.202-0.333-0.445-0.634-0.73-0.899-0.282-0.262-0.598-0.483-0.941-0.656-0.355-0.179-0.73-0.314-1.117-0.4-0.406-0.093-0.822-0.141-1.242-0.138-0.416 0-0.829 0.045-1.232 0.138-0.381 0.090-0.752 0.224-1.104 0.4-0.342 0.176-0.659 0.397-0.941 0.656-0.288 0.262-0.534 0.566-0.736 0.899-0.208 0.346-0.368 0.72-0.474 1.11-0.115 0.432-0.173 0.874-0.166 1.322-0.003 0.442 0.054 0.88 0.166 1.306 0.106 0.39 0.266 0.765 0.474 1.11 0.202 0.333 0.448 0.63 0.736 0.89s0.602 0.48 0.941 0.666c0.349 0.189 0.717 0.326 1.104 0.416 0.403 0.093 0.819 0.141 1.232 0.138 0.419 0 0.835-0.045 1.242-0.138zM143.258 26.544c-0.675-0.173-1.328-0.432-1.933-0.774-1.184-0.666-2.163-1.645-2.826-2.832-0.342-0.614-0.602-1.267-0.774-1.949-0.362-1.462-0.362-2.989 0-4.454 0.17-0.678 0.432-1.331 0.774-1.942 0.666-1.181 1.642-2.16 2.826-2.826 0.608-0.342 1.258-0.602 1.933-0.774 0.723-0.182 1.466-0.275 2.211-0.269 0.403 0 0.803 0.022 1.203 0.074 0.368 0.045 0.733 0.118 1.088 0.221 0.33 0.093 0.656 0.208 0.97 0.342 0.294 0.125 0.582 0.275 0.854 0.445 0.256 0.16 0.496 0.346 0.717 0.554 0.205 0.195 0.397 0.403 0.57 0.627v-1.824h4.189v15.213h-4.189v-1.824c-0.269 0.336-0.573 0.64-0.912 0.906-0.374 0.294-0.784 0.538-1.219 0.73-0.483 0.214-0.992 0.368-1.51 0.467-0.579 0.109-1.168 0.163-1.76 0.16-0.746 0.003-1.488-0.086-2.211-0.269zM128.045 15.018c0.602 0.010 1.2-0.058 1.782-0.205 0.454-0.115 0.877-0.326 1.242-0.621 0.33-0.275 0.579-0.627 0.73-1.030 0.163-0.454 0.243-0.934 0.234-1.418 0.010-0.48-0.070-0.957-0.234-1.408-0.15-0.397-0.403-0.746-0.73-1.014-0.365-0.291-0.787-0.499-1.242-0.614-0.582-0.147-1.181-0.214-1.782-0.205h-4.118v6.512h4.118zM119.59 4.915h8.861c1.392 0 2.598 0.17 3.619 0.512 1.021 0.339 1.862 0.813 2.525 1.418 0.659 0.598 1.165 1.344 1.482 2.176 0.333 0.877 0.496 1.808 0.49 2.746 0.010 0.934-0.157 1.862-0.49 2.736-0.32 0.826-0.829 1.565-1.482 2.16-0.662 0.608-1.504 1.082-2.525 1.424s-2.23 0.512-3.619 0.512h-4.525v7.782h-4.336v-21.462zM100.97 11.165h4.16v1.824c0.256-0.355 0.56-0.672 0.906-0.941 0.365-0.285 0.762-0.525 1.184-0.717 0.464-0.208 0.954-0.358 1.453-0.451 0.557-0.106 1.12-0.157 1.686-0.154 0.88-0.013 1.757 0.134 2.582 0.438 0.736 0.272 1.405 0.704 1.955 1.264 0.554 0.579 0.973 1.277 1.226 2.035 0.294 0.874 0.435 1.792 0.422 2.717v9.197h-4.16v-8.118c0.010-0.592-0.074-1.184-0.25-1.75-0.144-0.467-0.387-0.902-0.707-1.27-0.31-0.342-0.698-0.605-1.133-0.768-0.493-0.176-1.011-0.266-1.533-0.256-0.525-0.010-1.046 0.077-1.539 0.256-0.435 0.16-0.826 0.422-1.139 0.768-0.323 0.368-0.563 0.803-0.707 1.27-0.173 0.566-0.259 1.158-0.25 1.75v8.118h-4.16v-15.213zM90.73 23.114c0.397-0.096 0.781-0.237 1.146-0.422 0.346-0.176 0.662-0.406 0.941-0.678 0.275-0.269 0.512-0.573 0.707-0.906 0.198-0.342 0.346-0.71 0.438-1.094 0.099-0.416 0.147-0.842 0.147-1.27 0-0.426-0.048-0.851-0.147-1.264-0.186-0.762-0.582-1.456-1.146-2-0.282-0.272-0.598-0.502-0.941-0.685-0.362-0.195-0.746-0.339-1.146-0.432-0.432-0.099-0.877-0.147-1.322-0.147-0.438 0-0.88 0.048-1.306 0.147-0.397 0.090-0.781 0.237-1.139 0.432-0.339 0.186-0.656 0.416-0.934 0.685-0.275 0.266-0.509 0.57-0.694 0.906-0.189 0.342-0.336 0.71-0.438 1.088-0.109 0.416-0.163 0.842-0.16 1.27 0 0.429 0.051 0.854 0.16 1.27 0.099 0.381 0.246 0.749 0.438 1.094 0.186 0.333 0.419 0.637 0.694 0.906 0.275 0.272 0.592 0.499 0.934 0.678 0.362 0.186 0.742 0.33 1.139 0.422 0.429 0.102 0.867 0.157 1.306 0.154 0.445 0 0.89-0.048 1.322-0.154zM86.957 26.538c-0.752-0.176-1.478-0.438-2.17-0.781-0.65-0.323-1.251-0.733-1.789-1.219-0.522-0.47-0.973-1.014-1.344-1.613-0.374-0.608-0.662-1.267-0.854-1.955-0.4-1.456-0.4-2.995 0-4.454 0.192-0.688 0.48-1.344 0.854-1.949 0.371-0.595 0.826-1.139 1.344-1.613 0.538-0.49 1.139-0.902 1.789-1.226 0.691-0.346 1.418-0.605 2.17-0.781 1.622-0.371 3.312-0.371 4.934 0 0.746 0.173 1.469 0.435 2.154 0.781 0.646 0.33 1.248 0.742 1.789 1.226 0.528 0.474 0.986 1.014 1.366 1.613 0.381 0.605 0.669 1.261 0.861 1.949 0.4 1.459 0.4 2.995 0 4.454-0.192 0.691-0.483 1.347-0.861 1.955-0.378 0.602-0.835 1.142-1.366 1.613-0.541 0.48-1.142 0.89-1.789 1.219-0.682 0.346-1.402 0.608-2.147 0.781-1.626 0.371-3.315 0.371-4.941 0zM70.72 23.114c0.397-0.096 0.781-0.237 1.146-0.422 0.346-0.176 0.666-0.406 0.941-0.678 0.275-0.269 0.512-0.573 0.707-0.906 0.198-0.342 0.346-0.71 0.438-1.094 0.099-0.416 0.147-0.842 0.147-1.27 0-0.426-0.048-0.851-0.147-1.264-0.186-0.762-0.582-1.456-1.146-2-0.282-0.272-0.598-0.502-0.941-0.685-0.362-0.195-0.746-0.339-1.146-0.432-0.432-0.099-0.877-0.147-1.322-0.147-0.438 0-0.877 0.048-1.306 0.147-0.397 0.090-0.781 0.237-1.139 0.432-0.339 0.186-0.656 0.416-0.934 0.685-0.275 0.266-0.509 0.57-0.694 0.906-0.189 0.346-0.336 0.71-0.438 1.088-0.109 0.416-0.163 0.842-0.16 1.27 0 0.429 0.051 0.854 0.16 1.27 0.099 0.381 0.246 0.749 0.438 1.094 0.186 0.333 0.419 0.637 0.694 0.906 0.275 0.272 0.592 0.499 0.934 0.678 0.362 0.186 0.742 0.33 1.139 0.422 0.429 0.102 0.867 0.157 1.306 0.154 0.445 0 0.89-0.048 1.322-0.154zM66.947 26.538c-0.752-0.176-1.478-0.438-2.166-0.781-0.65-0.323-1.251-0.733-1.789-1.219-0.522-0.47-0.973-1.014-1.344-1.613-0.374-0.608-0.662-1.267-0.854-1.955-0.4-1.456-0.4-2.995 0-4.454 0.192-0.688 0.48-1.344 0.854-1.949 0.371-0.595 0.826-1.139 1.344-1.613 0.538-0.49 1.139-0.902 1.789-1.226 0.691-0.342 1.418-0.605 2.166-0.781 1.626-0.371 3.312-0.371 4.934 0 0.746 0.173 1.469 0.435 2.154 0.781 0.646 0.33 1.248 0.742 1.789 1.226 0.528 0.474 0.986 1.014 1.366 1.613 0.381 0.605 0.669 1.261 0.861 1.949 0.4 1.456 0.4 2.995 0 4.454-0.192 0.691-0.483 1.347-0.861 1.955-0.378 0.602-0.835 1.142-1.366 1.613-0.541 0.48-1.142 0.89-1.789 1.219-0.682 0.346-1.402 0.608-2.147 0.781-1.626 0.371-3.315 0.371-4.941 0zM34.106 4.918h4.381l7.491 11.446 7.52-11.446h4.381v21.462h-4.336v-14.717l-6.221 9.491h-2.656l-6.221-9.491v14.717h-4.336v-21.462z"
    fill="#fff"
    style="fill: #fff"
  />
  <path
    d="M24.106 8.758c2.419 0 4.381-1.962 4.381-4.381s-1.962-4.378-4.381-4.378-4.381 1.962-4.381 4.381c0 2.419 1.962 4.381 4.378 4.381v0zM10.672 28.486c-5.891 0-10.672-4.781-10.672-10.675s4.781-10.678 10.675-10.678 10.675 4.781 10.675 10.675-4.781 10.675-10.675 10.675v0z"
    fill="#7d00ff"
    style="fill: #7d00ff"
  />
</svg>
