<svg xmlns="http://www.w3.org/2000/svg" viewBox="0 0 32 32">
  <path
    d="M26.634 14.667c-0.82 0.007-1.594 0.198-2.285 0.534l0.032-0.014-1.333-1.573c1.030-0.597 2.266-0.95 3.585-0.95 0.961 0 1.878 0.187 2.717 0.527l-0.049-0.017c-0.089-3.612-3.039-6.507-6.665-6.507-0.001 0-0.001 0-0.002 0h-5.333l2.667 2.667h-12l-2.667-1.333h-5.333l6.947 6.947c-0.48-0.172-1.034-0.274-1.611-0.28l-0.003-0c-2.946 0-5.333 2.388-5.333 5.333s2.388 5.333 5.333 5.333c2.946 0 5.333-2.388 5.333-5.333v0c-0.004-0.579-0.107-1.133-0.291-1.648l0.011 0.035 2.947 2.947 6.453 1.133c-0.27-0.73-0.426-1.573-0.426-2.453 0-1.781 0.64-3.413 1.702-4.678l-0.009 0.011 1.333 1.56c-0.618 0.859-0.988 1.933-0.988 3.093 0 2.946 2.388 5.333 5.333 5.333s5.333-2.388 5.333-5.333c0-2.946-2.388-5.333-5.333-5.333-0.023 0-0.046 0-0.068 0l0.003-0zM5.301 22.667c-1.473 0-2.667-1.194-2.667-2.667s1.194-2.667 2.667-2.667c1.473 0 2.667 1.194 2.667 2.667v0c0 1.473-1.194 2.667-2.667 2.667v0zM26.634 22.667c-1.473 0-2.667-1.194-2.667-2.667s1.194-2.667 2.667-2.667c1.473 0 2.667 1.194 2.667 2.667v0c0 1.473-1.194 2.667-2.667 2.667v0z"
  />
</svg>
