<svg xmlns="http://www.w3.org/2000/svg" viewBox="0 0 32 32">
  <path
    d="M16 0c-8.837 0-16 7.163-16 16s7.163 16 16 16c8.837 0 16-7.163 16-16v0c0-8.837-7.163-16-16-16v0zM16 3.5c5.104 0.001 9.492 3.060 11.433 7.445l0.032 0.080c-1.47-0.25-2.95-0.435-4.335-0.565l-4.555-1.14c-0.773-0.203-1.66-0.319-2.575-0.319s-1.802 0.116-2.648 0.335l0.073-0.016-4.555 1.14c-1.385 0.13-2.865 0.315-4.335 0.565 1.973-4.465 6.361-7.524 11.465-7.525v0zM12.75 28.070c-4.477-1.245-7.895-4.796-8.928-9.26l-0.017-0.085c1.667-0.474 3.645-0.847 5.673-1.044l0.142-0.011c1.439 0.379 2.582 1.402 3.119 2.734l0.011 0.031zM16 18.25c-2.071 0-3.75-1.679-3.75-3.75s1.679-3.75 3.75-3.75c2.071 0 3.75 1.679 3.75 3.75v0c0 2.071-1.679 3.75-3.75 3.75v0zM19.25 28.070v-7.635c0.548-1.363 1.691-2.386 3.098-2.758l0.032-0.007c2.17 0.208 4.148 0.581 6.059 1.113l-0.244-0.058c-1.050 4.549-4.468 8.1-8.857 9.324l-0.088 0.021z"
  />
  <path
    d="M18.25 14.5c0 1.243-1.007 2.25-2.25 2.25s-2.25-1.007-2.25-2.25c0-1.243 1.007-2.25 2.25-2.25s2.25 1.007 2.25 2.25z"
  />
</svg>
