<svg xmlns="http://www.w3.org/2000/svg" viewBox="0 0 32 32">
  <path
    d="M17.25 27.425c2.852-0.368 5.299-1.86 6.921-4.009l0.019-0.026-2.090-1.39c-1.427 1.824-3.628 2.985-6.1 2.985s-4.673-1.161-6.087-2.968l-0.013-0.017-2.090 1.375c1.638 2.181 4.085 3.678 6.888 4.044l0.052 0.006v2.075h-10.75v2.5h24.5v-2.5h-11.25z"
  />
  <path
    d="M23.5 7.5c-0.001-4.141-3.358-7.498-7.5-7.498-2.551 0-4.804 1.273-6.159 3.219l-0.016 0.025 13.675 8.755z"
  />
  <path
    d="M1.5 1.065l-1.5 2.375 8.5 5.445v6.115c0.019 4.128 3.37 7.467 7.5 7.467 3.019 0 5.622-1.784 6.811-4.355l0.019-0.046 7.67 4.9 1.5-2.375z"
  />
</svg>
