<svg xmlns="http://www.w3.org/2000/svg" viewBox="0 0 32 32">
  <path
    d="M16 0c-8.837 0-16 7.163-16 16s7.163 16 16 16c8.837 0 16-7.163 16-16v0c0-8.837-7.163-16-16-16v0zM14.48 16.133l-3.893 1.933c-0.054 0.018-0.092 0.068-0.092 0.127s0.038 0.109 0.091 0.126l0.001 0h4.080c0.075 0.007 0.134 0.070 0.134 0.146 0 0.005-0 0.010-0.001 0.015l0-0.001-0.693 3.2c-0.017 0.060-0.070 0.103-0.133 0.107l-0 0h-10.96c-0.002 0-0.004 0-0.006 0-0.074 0-0.133-0.060-0.133-0.133 0-0.014 0.002-0.028 0.006-0.041l-0 0.001 0.64-2.667c-0.003-0.014-0.005-0.030-0.005-0.047s0.002-0.033 0.005-0.048l-0 0.002 8.493-4.76c0.004-0.014 0.007-0.030 0.007-0.047s-0.003-0.033-0.007-0.048l0 0.001 0.080-0.347c0-0.004 0.001-0.009 0.001-0.014 0-0.077-0.059-0.139-0.133-0.146l-0.001-0h-3.653c-0.056 0.003-0.103 0.041-0.12 0.092l-0 0.001-0.187 0.96c-0.007 0.060-0.058 0.107-0.119 0.107-0 0-0.001 0-0.001 0h-3.493c-0.076-0.006-0.136-0.069-0.136-0.146 0-0.010 0.001-0.019 0.003-0.028l-0 0.001 0.573-2.587c0.11-0.93 0.89-1.646 1.839-1.653h8.387c1.133 0 1.333 0.8 1.227 1.613l-0.587 2.667c-0.096 0.727-0.562 1.326-1.2 1.608l-0.013 0.005zM24.307 15.773c-0.016 0.020-0.025 0.046-0.025 0.073s0.009 0.053 0.025 0.074l-0-0 2.573 5.667c0.011 0.019 0.018 0.042 0.018 0.067 0 0.074-0.060 0.133-0.133 0.133-0.002 0-0.003-0-0.005-0h-4.32c-0.053-0.001-0.099-0.033-0.12-0.079l-0-0.001-1.533-3.24c-0.018-0.054-0.068-0.092-0.127-0.092s-0.109 0.038-0.126 0.091l-0 0.001-0.667 3.187c-0.017 0.060-0.070 0.103-0.133 0.107l-0 0h-3.867c-0.001 0-0.002 0-0.003 0-0.074 0-0.133-0.060-0.133-0.133 0-0.009 0.001-0.019 0.003-0.028l-0 0.001 2.36-11.307c0.020-0.058 0.071-0.099 0.133-0.107l0.001-0h3.867c0.001-0 0.002-0 0.003-0 0.074 0 0.133 0.060 0.133 0.133 0 0.009-0.001 0.019-0.003 0.028l0-0.001-0.587 2.787c-0.003 0.010-0.004 0.021-0.004 0.032 0 0.074 0.060 0.133 0.133 0.133 0.046 0 0.086-0.023 0.11-0.058l0-0 2.48-2.973c0.016-0.008 0.034-0.012 0.053-0.012s0.038 0.005 0.054 0.013l-0.001-0h4.52c0.073 0.001 0.131 0.060 0.131 0.133 0 0.036-0.015 0.069-0.038 0.093l0-0z"
  />
</svg>
