<svg xmlns="http://www.w3.org/2000/svg" viewBox="0 0 1609 1024">
  <path
    d="M1462.857143 0a146.285714 146.285714 0 0 1 146.285714 146.285714v585.142857a146.285714 146.285714 0 0 1-146.285714 146.285715H536.356571L292.571429 1024v-146.285714H146.285714a146.285714 146.285714 0 0 1-146.285714-146.285715V146.285714a146.285714 146.285714 0 0 1 146.285714-146.285714h1316.571429z"
    fill="#57B429"
    p-id="33855"
  />
  <path
    d="M276.187429 658.285714V402.578286L441.197714 658.285714h72.557715V241.664H432.420571v255.122286L267.410286 241.664h-72.557715V658.285714h81.334858z m609.133714 0v-72.557714h-193.097143V484.498286h164.425143v-72.557715H692.224V314.221714h193.097143v-72.557714H610.889143V658.285714h274.432z m213.577143 0l76.653714-252.781714L1252.205714 658.285714h67.876572l111.762285-416.621714h-84.845714l-64.950857 262.729143-76.068571-262.729143h-60.854858l-76.068571 262.729143-64.365714-262.729143h-84.845715L1031.021714 658.285714h67.876572z"
    fill="#FFFFFF"
    p-id="33856"
  />
</svg>
