<svg xmlns="http://www.w3.org/2000/svg" viewBox="0 0 32 32">
  <path
    d="M16 0c-8.837 0-16 7.163-16 16s7.163 16 16 16c8.837 0 16-7.163 16-16v0c0-8.837-7.163-16-16-16v0zM13.64 9.68h2.787v2.413h3.333v-2.413h2.8v7.107h-2.8v-2.547h-3.333v2.547h-2.787zM6.667 16.787h-2.667v-6.307l-0.92-0.8h4l3.053 3.44v-3.44h2.747v7.107h-2.52l-3.693-3.893zM17.333 25.6h-7.773v-1.813c0.493-1.693 2.96-2.453 3.92-2.667s1.333-0.907 0-0.907c-0.975 0.064-1.854 0.431-2.555 1.006l0.008-0.006-1.52-1.507c1.078-0.838 2.45-1.343 3.941-1.343 0.124 0 0.247 0.003 0.37 0.010l-0.017-0.001c2.333 0 3.507 0.933 3.507 2.2s-1.213 1.907-2.147 2.213-2.373 0.827-2.373 0.827h4.64zM22.667 25.6h-2.667v-4.36c-0.616 0.275-1.332 0.493-2.080 0.619l-0.053 0.007v-2.187c2.4-0.507 2.76-1.187 2.76-1.187h2.067zM26.147 16.787h-2.8v-7.107h2.8v4.987h4.427v2.147z"
  />
</svg>
