<svg xmlns="http://www.w3.org/2000/svg" viewBox="0 0 32 32">
  <path
    d="M16 0c-8.837 0-16 7.163-16 16s7.163 16 16 16c8.837 0 16-7.163 16-16v0c0-8.837-7.163-16-16-16v0zM18.187 6.667l-1.107 3.76h3l1.093-3.76h2.507l-2.867 9.72h-2.467l1.16-4h-3l-1.173 4h-2.48l2.827-9.72zM3.68 16.387l2.52-8.587-1.48-1.133h4.12l1.493 5.6 1.667-5.6h2.48l-2.84 9.72h-2.307l-1.493-5.64-1.64 5.64zM14.347 23.36l-3.467 1.053c-0.124 0.041-0.218 0.14-0.253 0.264l-0.001 0.003-0.24 0.88h4.28l-0.573 1.96h-6.667l1.040-3.52c0.192-0.644 0.689-1.141 1.319-1.33l0.014-0.004 3.533-0.96c0.12-0.041 0.213-0.133 0.252-0.251l0.001-0.003 0.493-1.627h-2.080l-0.347 1.24-2.187-0.44 0.28-1.080c0.264-1.005 1.164-1.733 2.234-1.733 0.007 0 0.013 0 0.020 0h3.266c0.701 0.044 1.253 0.623 1.253 1.331 0 0.114-0.014 0.226-0.042 0.332l0.002-0.009-0.827 2.587c-0.207 0.624-0.693 1.105-1.306 1.303l-0.014 0.004zM24.48 19.36l-1.88 6.547c-0.279 0.917-1.116 1.572-2.107 1.573h-3.56c-0.69-0.003-1.249-0.563-1.249-1.253 0-0.123 0.018-0.243 0.051-0.356l-0.002 0.009 1.907-6.533c0.279-0.917 1.116-1.572 2.107-1.573h3.52c0.006-0 0.014-0 0.022-0 0.685 0 1.24 0.555 1.24 1.24 0 0.138-0.023 0.271-0.064 0.396l0.003-0.009zM24.48 16.347h-2.48l2.84-9.68h2.507l-2.28 7.747h3.84l-0.573 1.973z"
  />
  <path d="M18.187 25.507h2.213l1.667-5.667h-2.24l-1.64 5.667z" />
</svg>
