<svg xmlns="http://www.w3.org/2000/svg" viewBox="0 0 32 32">
  <path
    d="M22.428 9.462h3.882c0.465 0 0.842 0.377 0.842 0.842v18.82c0 0.465-0.377 0.842-0.842 0.842h-3.882c-0.465 0-0.842-0.377-0.842-0.842v-18.82c0-0.465 0.377-0.842 0.842-0.842z"
    fill="#263742"
    style="fill: #263742"
  />
  <path
    d="M14.060 14.938h3.882c0.465 0 0.842 0.377 0.842 0.842v13.344c0 0.465-0.377 0.842-0.842 0.842h-3.882c-0.465 0-0.842-0.377-0.842-0.842v-13.344c0-0.465 0.377-0.842 0.842-0.842z"
    fill="#263742"
    style="fill: #263742"
  />
  <path
    d="M5.69 20.283h3.882c0.465 0 0.842 0.377 0.842 0.842v7.999c0 0.465-0.377 0.842-0.842 0.842h-3.882c-0.465 0-0.842-0.377-0.842-0.842v-7.999c0-0.465 0.377-0.842 0.842-0.842z"
    fill="#263742"
    style="fill: #263742"
  />
  <path
    d="M7.63 19.196c1.114 0 2.017 0.903 2.017 2.017v5.697c0 1.114-0.903 2.017-2.017 2.017s-2.017-0.903-2.017-2.017v-5.697c0-1.114 0.903-2.017 2.017-2.017z"
    fill="#334552"
    style="fill: #334552"
  />
  <path
    d="M16 13.326c1.114 0 2.017 0.903 2.017 2.017v11.523c0 1.114-0.903 2.017-2.017 2.017s-2.017-0.903-2.017-2.017v-11.523c0-1.114 0.903-2.017 2.017-2.017z"
    fill="#334552"
    style="fill: #334552"
  />
  <path
    d="M24.369 7.68c1.114 0 2.017 0.903 2.017 2.017v17.134c0 1.114-0.903 2.017-2.017 2.017s-2.017-0.903-2.017-2.017v-17.134c0-1.114 0.903-2.017 2.017-2.017z"
    fill="#334552"
    style="fill: #334552"
  />
  <path
    d="M9.672 16.188c0 1.128-0.914 2.042-2.042 2.042s-2.042-0.914-2.042-2.042c0-1.128 0.914-2.042 2.042-2.042s2.042 0.914 2.042 2.042z"
    fill="#3c8725"
    style="fill: #3c8725"
  />
  <path
    d="M8.719 15.636c0 0.602-0.488 1.089-1.089 1.089s-1.089-0.488-1.089-1.089c0-0.602 0.488-1.089 1.089-1.089s1.089 0.488 1.089 1.089z"
    fill="#69e244"
    style="fill: #69e244"
  />
  <path
    d="M9.83 13.326l-1.81-1.81 5.741-5.741 2.235 2.235 5.976-5.976 1.811 1.811-7.788 7.786-2.235-2.236-3.931 3.931z"
    fill="#334552"
    style="fill: #334552"
  />
</svg>
