<svg xmlns="http://www.w3.org/2000/svg" viewBox="0 0 32 32">
  <path
    d="M32 12.693c0-0.013 0-0.028 0-0.044 0-3.314-2.686-6-6-6-2.078 0-3.91 1.057-4.986 2.662l-0.014 0.022c-1.090-1.627-2.922-2.683-5-2.683s-3.91 1.057-4.986 2.662l-0.014 0.022c-1.098-1.569-2.896-2.582-4.932-2.582-3.314 0-6 2.686-6 6 0 2.96 2.143 5.419 4.962 5.911l0.036 0.005c-0.007 0.106-0.010 0.229-0.010 0.353s0.004 0.248 0.011 0.37l-0.001-0.017c0.067 3.262 2.727 5.88 5.999 5.88 2.037 0 3.837-1.015 4.922-2.567l0.013-0.019c1.090 1.627 2.922 2.683 5 2.683 3.314 0 6-2.686 6-6 0-0.001 0-0.002 0-0.004v0c-0.011-0.25-0.034-0.485-0.071-0.715l0.005 0.035c2.888-0.467 5.067-2.943 5.067-5.927 0-0.016-0-0.033-0-0.049l0 0.002zM16 9.333c1.841 0 3.333 1.492 3.333 3.333v0c-0.009 0.336-0.062 0.656-0.153 0.959l0.007-0.026c-1.334 0.428-2.434 1.272-3.173 2.378l-0.014 0.022c-0.757-1.117-1.856-1.953-3.144-2.362l-0.042-0.012c-0.084-0.277-0.137-0.597-0.147-0.928l-0-0.005c-0-0.008-0-0.017-0-0.027 0-1.841 1.492-3.333 3.333-3.333 0 0 0 0 0 0v0zM2.667 12.693c0-1.841 1.492-3.333 3.333-3.333s3.333 1.492 3.333 3.333v0c-0.009 0.336-0.062 0.656-0.153 0.959l0.007-0.026c-1.337 0.417-2.441 1.253-3.187 2.352l-0.013 0.021c-1.826-0.007-3.305-1.482-3.32-3.305v-0.001zM11 22.667c-1.841 0-3.333-1.492-3.333-3.333v0c0.009-0.336 0.062-0.656 0.153-0.959l-0.007 0.026c1.334-0.428 2.434-1.272 3.173-2.378l0.014-0.022c0.757 1.117 1.856 1.953 3.144 2.362l0.042 0.012c0.084 0.277 0.137 0.597 0.147 0.928l0 0.005c0 0.008 0 0.017 0 0.027 0 1.841-1.492 3.333-3.333 3.333-0 0-0 0-0 0v0zM21 22.667c-1.841 0-3.333-1.492-3.333-3.333v0c0.009-0.336 0.062-0.656 0.153-0.959l-0.007 0.026c1.334-0.428 2.434-1.272 3.173-2.378l0.014-0.022c0.757 1.117 1.856 1.953 3.144 2.362l0.042 0.012c0.084 0.277 0.137 0.597 0.147 0.928l0 0.005c0 0.008 0 0.017 0 0.027 0 1.841-1.492 3.333-3.333 3.333-0 0-0 0-0 0v0zM26.013 16c-0.757-1.125-1.862-1.966-3.158-2.375l-0.042-0.011c-0.084-0.277-0.137-0.597-0.147-0.928l-0-0.005c-0-0.004-0-0.009-0-0.013 0-1.841 1.492-3.333 3.333-3.333s3.333 1.492 3.333 3.333c0 1.836-1.485 3.326-3.319 3.333h-0.001z"
  />
</svg>
