<svg xmlns="http://www.w3.org/2000/svg" viewBox="0 0 32 32">
  <path
    d="M15.825 0c-3.738 0.047-7.158 1.369-9.855 3.549l0.030-0.024 3 3.5c1.909-1.503 4.349-2.41 7-2.41s5.091 0.907 7.024 2.429l-0.024-0.019 3-3.5c-2.717-2.196-6.213-3.526-10.020-3.526-0.055 0-0.109 0-0.164 0.001h0.008z"
  />
  <path
    d="M5 4.39c-3.081 2.922-4.997 7.046-4.997 11.617 0 8.837 7.163 16 16 16s16-7.163 16-16c0-4.646-1.98-8.829-5.142-11.752l-0.011-0.010-3 3.5c2.174 2.079 3.525 5.002 3.525 8.241 0 0.267-0.009 0.532-0.027 0.794l0.002-0.035c-0.121 1.763-0.629 3.384-1.439 4.811l0.029-0.056-6.16-5.93-3.105-6.695v10.125l6.225 6c-1.894 1.453-4.297 2.329-6.905 2.329-1.084 0-2.132-0.151-3.125-0.434l0.080 0.020c-1.456-0.412-2.725-1.061-3.832-1.91l0.027 0.020 6.26-6.025c0-3.295 0.040-6.855 0-10.15l-3.11 6.72-6.21 6c-0.916-1.603-1.456-3.524-1.456-5.57 0-3.245 1.358-6.172 3.537-8.245l0.005-0.004-3.025-3.5z"
  />
</svg>
