<svg xmlns="http://www.w3.org/2000/svg" viewBox="0 0 32 32">
  <path
    d="M23.84 3.72c1.493 0 1.813 1.693 1.813 4.28s0.733 12.507 0.733 12.507l-4.36-7.84v-6.8c0-1.24 0.56-2.147 1.813-2.147z"
    fill="#fff"
    style="fill: #fff"
  />
  <path
    d="M22.027 6.213c1.080 2.32 2.6 5.627 1.333 5.853s-1.333-2.813-1.333-2.813z"
    fill="#aac1d1"
    style="fill: #aac1d1"
  />
  <path
    d="M23.893 13.787c-1.333-1.187 2.507 7.107 2.493 6.747 0 0-0.733-9.907-0.733-12.507 0-2.36-0.24-4-1.413-4.253 1.347 2.6 0.907 11.187-0.347 10.013z"
    fill="#aac1d1"
    style="fill: #aac1d1"
  />
  <path
    d="M17.613 0c2.147-0.4 2.547 3.040 3.453 6.667s5.040 10.013 5.333 13.92l-2.547-0.613-6.667-11.733s-0.8-4.813-0.907-6.227c-0.035-0.125-0.055-0.268-0.055-0.416 0-0.811 0.599-1.483 1.379-1.596l0.009-0.001z"
    fill="#fff"
    style="fill: #fff"
  />
  <path
    d="M15.427 28.933c-2.587 2-0.76 3.4 1.44 3.067s10.76-3.667 10.667-5.92c0-4.947-12.107 2.853-12.107 2.853z"
    fill="#fff"
    style="fill: #fff"
  />
  <path
    d="M26.093 24.413c1.493 0.24-2.080 5.6-8.827 4.627s6.813-4.933 8.827-4.627z"
    fill="#aac1d1"
    style="fill: #aac1d1"
  />
  <path
    d="M18.12 13.973c-1.214-1.789-3.239-2.95-5.534-2.95-0.305 0-0.606 0.021-0.9 0.060l0.034-0.004c-2.868 0.085-5.328 1.746-6.553 4.144l-0.020 0.043c-0.787 1.427 0 3.627 1.813 2.84s2.84-2.213 5.040-2.107c1.727 0.154 3.070 1.594 3.070 3.348 0 0.056-0.001 0.112-0.004 0.167l0-0.008c-0.012 1.774-1.336 3.235-3.049 3.465l-0.018 0.002c-1.92 0-1.92-1.987-3.173-3.053s-2.667-1.88-3.933-1.253 0.4 5.2 2.413 7.307c1.56 1.653 4.747 4 10.867 3.12s8.32-5.613 8.267-8.56-6.227-10.587-9.333-14.547c-2.693-3.213-4.653-4.987-5.947-4.36s-1.253 2.667 0.333 4.867 6.627 7.48 6.627 7.48z"
    fill="#fff"
    style="fill: #fff"
  />
  <path
    d="M12.48 15.373c-4.72-0.667-4.387 2.107-6.547 2.84 0.105 0.023 0.225 0.036 0.348 0.036 0.246 0 0.479-0.053 0.689-0.147l-0.011 0.004c1.867-0.773 2.84-2.213 5.040-2.107 1.727 0.154 3.070 1.594 3.070 3.348 0 0.056-0.001 0.112-0.004 0.167l0-0.008c-0.012 1.774-1.336 3.235-3.049 3.465l-0.018 0.002c-0.011 0-0.024 0-0.037 0-0.505 0-0.963-0.204-1.296-0.534l0 0c0.645 0.66 1.543 1.069 2.537 1.069 1.29 0 2.42-0.689 3.040-1.719l0.009-0.016c1.080-2.307 0.96-5.773-3.773-6.4z"
    fill="#aac1d1"
    style="fill: #aac1d1"
  />
  <path
    d="M16.587 12.347s2.173 2.107 2.667 1.987 0.987-2.267-4.8-4.333z"
    fill="#aac1d1"
    style="fill: #aac1d1"
  />
  <path
    d="M21.667 12c0.64 0.293 0.92-0.333-0.387-1.52s-3.667-3.693-3.667-3.693z"
    fill="#aac1d1"
    style="fill: #aac1d1"
  />
</svg>
