<svg xmlns="http://www.w3.org/2000/svg" viewBox="0 0 32 32">
  <path
    d="M16 32c-3.785-4.5-8.635-7.5-13.945-9.895 5.305-6.955 9.6-14.51 13.945-22.105 4.34 7.58 8.635 15.145 13.945 22.105-5.3 2.395-10.15 5.365-13.945 9.895zM16 5.225c-2.91 5.41-5.8 10.805-9.43 15.8 3.33 1.755 6.565 3.625 9.43 6.070 2.885-2.465 6.125-4.32 9.425-6.070-3.63-5.025-6.515-10.395-9.425-15.8z"
  />
  <path
    d="M16 8.86c2.287 4.478 4.555 8.24 7.049 11.834l-0.219-0.334c-0.105 0.070-0.185 0.135-0.275 0.185q-3.17 1.92-6.36 3.825c-0.055 0.026-0.119 0.041-0.188 0.041s-0.133-0.015-0.19-0.043l0.003 0.001q-3.24-1.945-6.47-3.87l-0.185-0.12c2.282-3.268 4.552-7.038 6.572-10.957l0.263-0.563z"
  />
</svg>
