<svg xmlns="http://www.w3.org/2000/svg" viewBox="0 0 32 32">
  <path
    d="M18.9 9.25c0 3.894-3.156 7.050-7.050 7.050s-7.050-3.156-7.050-7.050c0-3.894 3.156-7.050 7.050-7.050s7.050 3.156 7.050 7.050z"
  />
  <path
    d="M12.1 23.85c0-1.8 0.4-3.6 1.2-5.2-0.5-0.050-1-0.1-1.5-0.1-5.95 0-11 4.4-11.8 10.25h13.2c-0.7-1.55-1.1-3.25-1.1-4.95z"
  />
  <path
    d="M19.15 23.85c0 0.966-0.784 1.75-1.75 1.75s-1.75-0.784-1.75-1.75c0-0.966 0.784-1.75 1.75-1.75s1.75 0.784 1.75 1.75z"
  />
  <path
    d="M25.6 23.85c0 0.966-0.784 1.75-1.75 1.75s-1.75-0.784-1.75-1.75c0-0.966 0.784-1.75 1.75-1.75s1.75 0.784 1.75 1.75z"
  />
  <path
    d="M32 23.85c0 0.966-0.784 1.75-1.75 1.75s-1.75-0.784-1.75-1.75c0-0.966 0.784-1.75 1.75-1.75s1.75 0.784 1.75 1.75z"
  />
</svg>
