<svg xmlns="http://www.w3.org/2000/svg" viewBox="0 0 32 32">
  <path
    d="M9.19 14.952c3.182 0 5.762-2.58 5.762-5.762s-2.58-5.762-5.762-5.762c-3.182 0-5.762 2.58-5.762 5.762v0c0 3.182 2.58 5.762 5.762 5.762v0zM9.19 7.619c0.868 0 1.571 0.704 1.571 1.571s-0.704 1.571-1.571 1.571c-0.868 0-1.571-0.704-1.571-1.571v0c0-0.868 0.704-1.571 1.571-1.571v0z"
  />
  <path
    d="M22.81 17.048c-3.182 0-5.762 2.58-5.762 5.762s2.58 5.762 5.762 5.762c3.182 0 5.762-2.58 5.762-5.762v0c0-3.182-2.58-5.762-5.762-5.762v0zM22.81 24.381c-0.868 0-1.571-0.704-1.571-1.571s0.704-1.571 1.571-1.571c0.868 0 1.571 0.704 1.571 1.571v0c0 0.868-0.704 1.571-1.571 1.571v0z"
  />
  <path d="M23.103 3.429l-19.674 25.143h5.322l19.674-25.143h-5.322z" />
</svg>
