<svg xmlns="http://www.w3.org/2000/svg" viewBox="0 0 32 32">
  <path
    d="M21.662 23.255c-1.419 0.816-2.36 2.324-2.36 4.052 0 2.573 2.086 4.658 4.658 4.658s4.658-2.086 4.658-4.658c0-0.865-0.236-1.675-0.647-2.37l0.012 0.022c-0.823-1.392-2.316-2.31-4.023-2.31-0.845 0-1.638 0.225-2.321 0.619l0.023-0.012z"
  />
  <path
    d="M31.551 3.37l-2.941-2.941c-0.244-0.264-0.592-0.428-0.978-0.428s-0.734 0.165-0.977 0.428l-0.001 0.001-0.492 0.479 0.852 2.103-7.986 7.147-8.079 5.457-10.089 10.102c-0.518 0.508-0.839 1.215-0.839 1.997s0.321 1.489 0.838 1.996l0 0 1.451 1.451c0.508 0.518 1.215 0.839 1.996 0.839s1.489-0.321 1.996-0.838l0-0 10.102-10.102 5.457-8.066 7.147-7.986 2.090 0.852 0.453-0.532c0.264-0.244 0.428-0.592 0.428-0.978s-0.165-0.734-0.428-0.977l-0.001-0.001z"
  />
</svg>
