<svg xmlns="http://www.w3.org/2000/svg" viewBox="0 0 32 32">
  <path
    d="M17.595 21.76l-1.315 3.145c-4.060-2.195-7.165-5.2-9.15-9.15l3.145-1.315c1.075-1-5.66-8.27-6.735-7.295l-2.54 3.565c-0.615 0.897-0.983 2.005-0.983 3.2 0 1.238 0.394 2.383 1.064 3.318l-0.012-0.017c3.71 5.455 8.285 10.015 13.577 13.597l0.178 0.113c0.927 0.675 2.089 1.080 3.345 1.080 1.192 0 2.298-0.364 3.215-0.988l-0.020 0.013 3.525-2.525c0.97-1.075-6.325-7.81-7.295-6.74z"
  />
  <path
    d="M14.625 0h-0.125v2h0.125c8.488 0.009 15.366 6.887 15.375 15.374v0.001c0 0.040 0 0.085 0 0.125h2c0-0.040 0-0.085 0-0.125-0.011-9.591-7.784-17.364-17.374-17.375h-0.001z"
  />
  <path
    d="M14.625 5.040h-0.125v2h0.125c5.706 0.006 10.329 4.629 10.335 10.334v0.001c0 0.040 0 0.085 0 0.125h2v-0.125c-0.009-6.809-5.526-12.326-12.334-12.335h-0.001z"
  />
  <path
    d="M14.625 10.075h-0.125v2h0.125c2.925 0.006 5.294 2.375 5.3 5.299v0.001c0.001 0.019 0.002 0.041 0.002 0.063s-0.001 0.044-0.002 0.065l0-0.003h2c0-0.040 0-0.085 0-0.125-0.006-4.029-3.271-7.294-7.299-7.3h-0.001z"
  />
</svg>
