<svg xmlns="http://www.w3.org/2000/svg" viewBox="0 0 32 32">
  <path
    d="M26.41 5.75h-0.16v-3.16c0-1.43-1.16-2.59-2.59-2.59h-17.13c-1.95 0-3.53 1.58-3.53 3.53v0 24.94c0 1.95 1.58 3.53 3.53 3.53v0h19.88c1.43 0 2.59-1.16 2.59-2.59v0-21.070c0-1.43-1.16-2.59-2.59-2.59v0zM22.315 26.25h-12.13c-0.481-0.007-0.868-0.398-0.868-0.88 0-0.042 0.003-0.084 0.009-0.125l-0.001 0.005c0.516-3.401 3.42-5.978 6.925-5.978s6.409 2.577 6.92 5.939l0.005 0.039c0.005 0.036 0.008 0.078 0.008 0.12 0 0.482-0.387 0.873-0.868 0.88h-0.001zM12.25 13.6c0-2.209 1.791-4 4-4s4 1.791 4 4c0 2.209-1.791 4-4 4v0c-2.209 0-4-1.791-4-4v0zM23.75 5.040c-0.003 0.391-0.319 0.707-0.71 0.71h-16.29c-0.828 0-1.5-0.672-1.5-1.5s0.672-1.5 1.5-1.5v0h16.29c0.391 0.003 0.707 0.319 0.71 0.71v0z"
  />
</svg>
