<svg xmlns="http://www.w3.org/2000/svg" viewBox="0 0 32 32">
  <path
    d="M6.747 30.24c0 0.6 0.040 1.187 0.12 1.76h-6.733c0.413-3.867 3.040-7.067 6.6-8.307 0.453 0.213 0.947 0.373 1.453 0.493-0.92 1.813-1.44 3.88-1.44 6.053z"
  />
  <path
    d="M14.36 18.080c-1.28 0.627-2.453 1.44-3.467 2.427-0.4 0.373-0.773 0.787-1.12 1.213-1.013-0.040-1.933-0.36-2.72-0.907-1.373-0.933-2.28-2.52-2.28-4.307 0-2.893 2.347-5.227 5.227-5.227 0.68 0 1.333 0.133 1.92 0.373-0.027 0.16-0.027 0.32-0.027 0.493 0 2.32 0.947 4.413 2.467 5.933z"
  />
  <path
    d="M17.067 26.893c0 1.8 0.32 3.52 0.893 5.107h-8.413c-0.080-0.573-0.133-1.16-0.133-1.76 0-2.187 0.653-4.227 1.773-5.933 0.213-0.347 0.453-0.667 0.72-0.987 0.227-0.28 0.48-0.56 0.747-0.827 0.107-0.093 0.2-0.2 0.307-0.293 0.413-0.36 0.84-0.707 1.293-1 0.253-0.173 0.493-0.32 0.76-0.467 0.64-0.347 1.307-0.64 2.027-0.853 0.027 0.013 0.053 0.027 0.080 0.027 0.467 0.187 0.947 0.333 1.453 0.44-0.413 0.84-0.747 1.733-1 2.653-0.12 0.48-0.227 0.96-0.307 1.453-0.093 0.547-0.147 1.093-0.187 1.653v0c-0.013 0.267-0.013 0.533-0.013 0.787z"
  />
  <path
    d="M25.947 13.24s-0.080 0.027-0.107 0.053c-1.827 0.827-3.453 2-4.787 3.453-0.333 0.347-0.64 0.707-0.933 1.093-0.813 0-1.573-0.2-2.267-0.533-0.173-0.067-0.347-0.16-0.507-0.267-0.28-0.147-0.547-0.347-0.787-0.56-1.227-1.040-2-2.587-2-4.333 0-0.107 0-0.227 0.013-0.333 0.027-0.52 0.133-1.027 0.293-1.507 0.76-2.24 2.893-3.853 5.4-3.853 0.96 0 1.867 0.24 2.653 0.667 0.16 2.4 1.267 4.533 2.947 6.040v0s0.053 0.067 0.080 0.080z"
  />
  <path
    d="M32.067 15.56v16.44h-11.213c-0.653-1.413-1.040-2.96-1.107-4.6-0.013-0.16-0.013-0.333-0.013-0.507 0-0.573 0.040-1.133 0.12-1.68 0.24-1.747 0.84-3.387 1.733-4.813 0.187-0.293 0.373-0.56 0.573-0.84 0.227-0.307 0.467-0.6 0.72-0.88 0.080-0.093 0.173-0.187 0.267-0.28 0.36-0.373 0.747-0.733 1.16-1.053 0.533-0.44 1.107-0.827 1.707-1.16 0.64-0.36 1.307-0.653 2-0.893 0.293-0.107 0.6-0.2 0.893-0.28 0 0.013 0.013 0.013 0.027 0 0.947 0.36 1.987 0.547 3.067 0.547h0.067z"
  />
  <path
    d="M8.187 24.187c-0.92 1.813-1.44 3.88-1.44 6.053 0 0.6 0.040 1.187 0.12 1.76h-6.733c0.413-3.867 3.040-7.067 6.6-8.307 0.453 0.213 0.947 0.373 1.453 0.493z"
  />
  <path
    d="M4.773 16.507c0-2.893 2.347-5.227 5.227-5.227 0.68 0 1.333 0.133 1.92 0.373-0.027 0.16-0.027 0.32-0.027 0.493 0 2.32 0.947 4.413 2.467 5.933-1.28 0.627-2.453 1.44-3.467 2.427-0.4 0.373-0.773 0.787-1.12 1.213-1.013-0.040-1.933-0.36-2.72-0.907-1.373-0.933-2.28-2.52-2.28-4.307z"
  />
  <path
    d="M17.080 26.12v0c0.040-0.573 0.093-1.12 0.187-1.667 0.080-0.493 0.187-0.973 0.307-1.453 0.253-0.92 0.587-1.813 1-2.653-0.507-0.107-0.987-0.253-1.453-0.44-0.027 0-0.053-0.013-0.080-0.027-0.72 0.213-1.387 0.507-2.027 0.853-0.267 0.147-0.507 0.293-0.76 0.467-0.453 0.293-0.88 0.64-1.293 1-0.107 0.093-0.2 0.2-0.307 0.293-0.267 0.267-0.52 0.547-0.747 0.827-0.267 0.32-0.507 0.64-0.72 0.987-1.12 1.707-1.773 3.747-1.773 5.933 0 0.6 0.053 1.187 0.133 1.76h8.413c-0.573-1.587-0.893-3.307-0.893-5.107 0-0.253 0-0.52 0.013-0.773z"
  />
  <path
    d="M16.56 16.48c-1.227-1.040-2-2.587-2-4.333 0-0.107 0-0.227 0.013-0.333 0.027-0.52 0.133-1.027 0.293-1.507 0.76-2.24 2.893-3.853 5.4-3.853 0.96 0 1.867 0.24 2.653 0.667 0.16 2.4 1.267 4.533 2.947 6.040v0s0.053 0.067 0.080 0.080c-0.040 0-0.080 0.027-0.107 0.053-1.827 0.827-3.453 2-4.787 3.453-0.333 0.347-0.64 0.707-0.933 1.093-0.813 0-1.573-0.2-2.267-0.533-0.173-0.067-0.347-0.16-0.507-0.267-0.28-0.147-0.547-0.347-0.787-0.56z"
  />
  <path
    d="M32.067 0v12.893h-0.067c-1.013 0-1.973-0.24-2.827-0.653v0c-0.187-0.093-0.373-0.187-0.547-0.307-0.56-0.333-1.053-0.76-1.48-1.253-0.747-0.853-1.267-1.893-1.467-3.040-0.080-0.387-0.12-0.787-0.12-1.187 0-0.253 0.013-0.507 0.040-0.76 0.36-3.2 3.093-5.693 6.4-5.693h0.067z"
  />
  <path
    d="M32 15.56h0.067v16.44h-11.213c-0.653-1.413-1.040-2.96-1.107-4.6-0.013-0.16-0.013-0.333-0.013-0.507 0-0.573 0.040-1.133 0.12-1.68 0.24-1.747 0.84-3.387 1.733-4.813 0.187-0.293 0.373-0.56 0.573-0.84 0.227-0.307 0.467-0.6 0.72-0.88 0.080-0.093 0.173-0.187 0.267-0.28 0.36-0.373 0.747-0.733 1.16-1.053 0.533-0.44 1.107-0.827 1.707-1.16 0.64-0.36 1.307-0.653 2-0.893 0.293-0.107 0.6-0.2 0.893-0.28 0 0.013 0.013 0.013 0.027 0 0.947 0.36 1.987 0.547 3.067 0.547z"
  />
</svg>
