<svg xmlns="http://www.w3.org/2000/svg" viewBox="0 0 205 196">
  <g>
    <g>
      <path
        d="M187,.5,78,0S62.89,1.59,60,17.5V196H205V21.5S206.77,4.85,187,.5ZM90,55l-11-.5,12.5-34,13,.5L117,55H105.5l-1-4.5H91Zm32.5,94L133,139l11,10Zm26-10.5c-10.27-.1-15.5-6.5-15.5-6.5l-5,4.5c-12.52,6-20.5-4.5-20.5-4.5a16.37,16.37,0,0,1,.5-20l25-26.5L160.5,113C170.2,133.2,148.5,138.5,148.5,138.5ZM98,29,94,41.5h8S98,28.66,98,29Z"
        style="fill: var(--color-2)"
        transform="translate(0.01)"
      />
    </g>
  </g>
  <g>
    <g>
      <path
        d="M19.5.5C-1.08,2.8,0,21,0,21V195.5H60V18C62.5,4.51,76,.5,76,.5ZM36.5,55l-8-12-2,2.5V55H16V20.5H26.5V33l9-12.5H48l-12.5,16L49,55Z"
        style="fill: var(--color-1)"
        transform="translate(0.01)"
      />
    </g>
  </g>
</svg>
