<svg xmlns="http://www.w3.org/2000/svg" viewBox="0 0 32 32">
  <path
    d="M8.333 7.333c0 4.050 3.283 7.333 7.333 7.333v0-14.667c-4.050 0-7.333 3.283-7.333 7.333v0z"
  />
  <path
    d="M16.333 17.333v14.667c4.050 0 7.333-3.283 7.333-7.333s-3.283-7.333-7.333-7.333v0z"
  />
  <path
    d="M24.667 8.333c-4.050 0-7.333 3.283-7.333 7.333v0h14.667c0-4.050-3.283-7.333-7.333-7.333v0z"
  />
  <path
    d="M7.333 23.667c4.050 0 7.333-3.283 7.333-7.333v0h-14.667c0 4.050 3.283 7.333 7.333 7.333v0z"
  />
</svg>
