<svg xmlns="http://www.w3.org/2000/svg" viewBox="0 0 32 32">
  <path
    d="M25.947 3.453c-2.704-2.162-6.174-3.469-9.949-3.469-8.748 0-15.857 7.021-15.998 15.736l-0 0.013v0.107c0.050 3.194 2.651 5.764 5.853 5.764 0.629 0 1.234-0.099 1.802-0.283l-0.041 0.012c1.169-0.366 2.128-0.737 3.057-1.16l-0.164 0.067c-0.582-0.825-0.931-1.852-0.931-2.96 0-0.117 0.004-0.233 0.012-0.349l-0.001 0.016c-2.52 0.773-5.8-0.867-5.8-0.867 4.853-4.867 8.493-3.653 8.493-3.653 6.067-6.067 12.133-4.853 12.133-4.853s1.213 6.067-4.853 12.133c0 0 1.213 3.64-3.64 8.493 0 0-1.64-3.28-0.867-5.8-0.106 0.008-0.231 0.012-0.356 0.012-1.101 0-2.12-0.349-2.953-0.943l0.016 0.011c-0.351 0.757-0.722 1.716-1.039 2.698l-0.055 0.195c-0.178 0.534-0.28 1.149-0.28 1.788 0 3.188 2.554 5.779 5.728 5.839l0.006 0c8.793-0.058 15.898-7.199 15.898-16 0-5.071-2.359-9.591-6.039-12.522l-0.032-0.025z"
  />
  <path
    d="M20.773 13.64c0.263-0.3 0.423-0.696 0.423-1.13 0-0.95-0.77-1.72-1.72-1.72-0.433 0-0.829 0.16-1.132 0.425l0.002-0.002c-0.263 0.3-0.423 0.696-0.423 1.13 0 0.95 0.77 1.72 1.72 1.72 0.433 0 0.829-0.16 1.132-0.425l-0.002 0.002z"
  />
</svg>
