<svg xmlns="http://www.w3.org/2000/svg" viewBox="0 0 32 32">
  <path
    d="M26.715 20.225c-1.215-0.53 3.365-7.79-4.43-14.165 0 0 0.365 4.955-1.77 4.955-1.59-0.015 1.42-7.515-5.755-11.015 0 0 1.74 4-4.26 8-5 3.345-4.59 6.95-4.060 9.43s-2.115 1.77-2.83 0c0 0-0.71 14.57 12.035 14.57s12.75-13.105 12.75-13.105-0.44 1.86-1.68 1.33zM23.020 19.225l-2.475 2.425c-0.176 0.173-0.285 0.414-0.285 0.681 0 0.060 0.006 0.118 0.016 0.175l-0.001-0.006 0.585 3.405c0.010 0.051 0.015 0.11 0.015 0.17 0 0.519-0.421 0.94-0.94 0.94-0.161 0-0.313-0.041-0.445-0.112l0.005 0.002-3.055-1.61c-0.128-0.064-0.28-0.102-0.44-0.102s-0.312 0.038-0.446 0.105l0.006-0.003-3.060 1.585c-0.128 0.069-0.279 0.11-0.44 0.11-0.519 0-0.94-0.421-0.94-0.94 0-0.060 0.006-0.119 0.016-0.175l-0.001 0.006 0.59-3.38c0.008-0.047 0.013-0.101 0.013-0.157 0-0.265-0.108-0.505-0.283-0.678l-0-0-2.455-2.425c-0.178-0.171-0.288-0.411-0.288-0.677 0-0.466 0.338-0.852 0.783-0.927l0.006-0.001 3.42-0.5c0.31-0.041 0.568-0.231 0.703-0.495l0.002-0.005 1.53-3.095c0.159-0.312 0.477-0.522 0.845-0.522s0.686 0.21 0.843 0.517l0.002 0.005 1.53 3.095c0.137 0.269 0.395 0.459 0.7 0.5l0.005 0 3.42 0.5c0.45 0.076 0.788 0.462 0.788 0.928 0 0.266-0.11 0.506-0.288 0.677l-0 0z"
  />
</svg>
