<svg xmlns="http://www.w3.org/2000/svg" viewBox="0 0 32 32">
  <path
    d="M16.045 11.47h4.72c0.41 0 0.435 0.030 0.365 0.415-0.195 1.095-0.405 2.185-0.59 3.285-0.050 0.305-0.17 0.445-0.5 0.435-0.64-0.025-1.285 0-1.925 0-0.285 0-0.395-0.070-0.32-0.375s0.11-0.655 0.18-1c0.050-0.22 0-0.325-0.245-0.32h-3.47c-0.22 0-0.27 0.105-0.23 0.31 0.11 0.575 0.215 1.155 0.305 1.74 0.040 0.245 0.16 0.31 0.39 0.31 0.675 0 1.35 0 2.025 0 0.275 0 0.36 0.080 0.3 0.36-0.12 0.565-0.22 1.135-0.31 1.705 0 0.002 0 0.005 0 0.007 0 0.196-0.159 0.355-0.355 0.355-0.025 0-0.049-0.003-0.072-0.007l0.002 0c-0.395 0-0.79 0-1.185 0-0.225 0-0.31 0.080-0.27 0.315 0.2 1.105 0.385 2.21 0.59 3.315 0.025 0.145 0.11 0.375 0.2 0.39 0.114 0.021 0.244 0.034 0.377 0.034s0.264-0.012 0.391-0.036l-0.013 0.002c0.060 0 0.115-0.19 0.135-0.3 0.16-0.885 0.32-1.765 0.465-2.655 0.040-0.245 0.145-0.35 0.4-0.35 0.67 0 1.345 0 2 0 0.255 0 0.35 0.075 0.3 0.34q-0.465 2.565-0.91 5.125c-0.001 0.162-0.133 0.293-0.295 0.293-0.016 0-0.031-0.001-0.047-0.004l0.002 0h-4.95c-0.21 0-0.295-0.095-0.335-0.305q-1-5.825-2.050-11.665c-0.075-0.43-0.15-0.865-0.24-1.295-0.055-0.28 0.030-0.385 0.325-0.385 1.61 0 3.215 0 4.82 0z"
  />
  <path
    d="M27.12 9.43h4.5c0.445 0 0.46 0.055 0.27 0.46-0.79 1.665-1.57 3.33-2.355 5-0.325 0.685-0.66 1.37-1 2.060-0.115 0.245-0.235 0.255-0.435 0.090-0.525-0.435-1.060-0.865-1.605-1.28-0.108-0.058-0.18-0.171-0.18-0.3 0-0.075 0.024-0.145 0.066-0.201l-0.001 0.001c0.5-1 0.96-2.030 1.44-3.045 0.16-0.34 0.135-0.39-0.23-0.39h-2.71c-0.25 0-0.395 0.065-0.44 0.34q-0.34 2-0.705 4c-0.011 0.040-0.017 0.086-0.017 0.133 0 0.185 0.096 0.347 0.24 0.441l0.002 0.001c1.030 0.8 2.040 1.625 3.075 2.425 0.15 0.079 0.251 0.234 0.251 0.413 0 0.107-0.036 0.205-0.096 0.283l0.001-0.001c-0.645 1.315-1.265 2.645-1.88 3.975-0.063 0.184-0.234 0.314-0.436 0.314-0.022 0-0.045-0.002-0.066-0.005l0.002 0c-0.93 0-1.865 0-2.795 0-0.37 0-0.395-0.030-0.335-0.385 0.095-0.56 0.2-1.115 0.29-1.675 0.040-0.245 0.145-0.355 0.4-0.355 0.33 0 0.79 0.090 0.955-0.085 0.283-0.365 0.512-0.79 0.666-1.25l0.009-0.030c0.035-0.070-0.085-0.25-0.18-0.325-0.87-0.71-1.745-1.415-2.635-2.1-0.207-0.128-0.343-0.353-0.343-0.611 0-0.071 0.010-0.14 0.030-0.204l-0.001 0.005q0.67-3.66 1.285-7.335c0.050-0.27 0.16-0.375 0.44-0.37 1.5 0 3 0 4.53 0z"
  />
  <path
    d="M4.91 9.435c1.5 0 3 0 4.5 0 0.3 0 0.405 0.095 0.455 0.39 0.425 2.455 0.855 4.91 1.305 7.365 0.017 0.053 0.027 0.114 0.027 0.177 0 0.211-0.109 0.396-0.275 0.501l-0.002 0.001c-0.895 0.695-1.77 1.415-2.67 2.105-0.14 0.073-0.233 0.217-0.233 0.382 0 0.102 0.035 0.195 0.094 0.268l-0.001-0.001c0.128 0.226 0.262 0.502 0.38 0.786l0.020 0.054c0.053 0.16 0.201 0.273 0.376 0.273 0.016 0 0.031-0.001 0.046-0.003l-0.002 0h0.735c0.012-0.002 0.027-0.003 0.041-0.003 0.153 0 0.279 0.117 0.294 0.267l0 0.001c0.090 0.59 0.2 1.18 0.315 1.77 0.050 0.265-0.050 0.345-0.3 0.345-0.965 0-1.925 0-2.89 0-0.011 0.001-0.023 0.002-0.036 0.002-0.175 0-0.324-0.112-0.378-0.269l-0.001-0.003q-0.975-2.075-1.965-4.15c-0.11-0.225 0-0.335 0.155-0.455 1.045-0.835 2.085-1.675 3.135-2.5 0.148-0.097 0.245-0.262 0.245-0.45 0-0.052-0.007-0.102-0.021-0.149l0.001 0.004q-0.37-1.97-0.695-3.955c0-0 0-0 0-0.001 0-0.21-0.17-0.38-0.38-0.38-0.023 0-0.045 0.002-0.067 0.006l0.002-0c-0.92 0-1.84 0-2.76 0-0.325 0-0.355 0.065-0.215 0.365 0.5 1.025 0.965 2.055 1.45 3.080 0.040 0.055 0.065 0.124 0.065 0.198 0 0.132-0.077 0.247-0.188 0.301l-0.002 0.001c-0.5 0.395-1 0.81-1.535 1.215-0.33 0.26-0.365 0.255-0.545-0.13q-1.145-2.42-2.28-4.845c-0.335-0.715-0.68-1.43-1-2.145-0.16-0.345-0.125-0.41 0.26-0.41 1.5 0 3.040 0 4.56 0z"
  />
  <path
    d="M16 10.84c-1.615 0-3.23 0-4.85 0-0.315 0-0.455-0.095-0.5-0.415q-0.54-3.135-1.1-6.26c-0.035-0.22 0.040-0.295 0.245-0.295h2.205c0.215 0 0.27 0.115 0.3 0.29 0.22 1.255 0.445 2.5 0.665 3.765 0.085 0.5 0.090 0.5 0.56 0.5 0.27 0 0.535 0 0.805 0s0.37-0.105 0.37-0.38c0-1.24 0-2.5 0-3.725 0-0.44 0-0.45 0.44-0.45 0.635 0 1.265 0 1.895 0 0.26 0 0.35 0.070 0.35 0.345 0 1.265 0 2.53 0 3.79 0 0.315 0.085 0.455 0.42 0.425 0.129-0.008 0.28-0.013 0.433-0.013s0.303 0.005 0.453 0.014l-0.020-0.001c0.265 0 0.38-0.075 0.425-0.345 0.215-1.285 0.455-2.57 0.67-3.86 0.045-0.27 0.16-0.36 0.42-0.355 0.675 0 1.35 0 2 0 0.245 0 0.345 0.035 0.295 0.325q-0.57 3.13-1.105 6.26c-0.055 0.32-0.19 0.415-0.5 0.415-1.615 0-3.23 0-4.85 0z"
  />
  <path
    d="M15.965 28.145h-3.14c-0.375 0-0.4-0.040-0.285-0.39 0.195-0.58 0.405-1.15 0.595-1.73 0.035-0.168 0.182-0.292 0.358-0.292 0.015 0 0.030 0.001 0.044 0.003l-0.002-0c1.645 0 3.29 0 4.935 0 0.010-0.001 0.021-0.001 0.032-0.001 0.178 0 0.327 0.126 0.362 0.294l0 0.002c0.195 0.575 0.405 1.145 0.605 1.725 0.11 0.325 0.050 0.4-0.295 0.4h-3.21z"
  />
</svg>
