<svg xmlns="http://www.w3.org/2000/svg" viewBox="0 0 32 32">
  <path
    d="M28.060 7.25h-4.21c0.408-0.641 0.65-1.421 0.65-2.259 0-2.347-1.903-4.25-4.25-4.25s-4.25 1.903-4.25 4.25c0 0.003 0 0.006 0 0.009v0c0-0.003 0-0.006 0-0.009 0-2.347-1.903-4.25-4.25-4.25s-4.25 1.903-4.25 4.25c0 0.837 0.242 1.618 0.66 2.276l-0.010-0.017h-4.21c-0.795 0-1.44 0.645-1.44 1.44v0 3.12c0 0.795 0.645 1.44 1.44 1.44h24.12c0.795 0 1.44-0.645 1.44-1.44v0-3.12c0-0.795-0.645-1.44-1.44-1.44v0zM18.5 5c0-0.966 0.784-1.75 1.75-1.75s1.75 0.784 1.75 1.75c0 0.966-0.784 1.75-1.75 1.75v0h-1.75zM11.75 3.25c0.966 0 1.75 0.784 1.75 1.75v0 1.75h-1.75c-0.966 0-1.75-0.784-1.75-1.75s0.784-1.75 1.75-1.75v0z"
  />
  <path d="M4.5 29.5c0 0.975 0.79 1.765 1.765 1.765h7.235v-15h-9z" />
  <path
    d="M18.5 31.25h7.235c0 0 0 0 0 0 0.97 0 1.756-0.782 1.765-1.749v-13.251h-9z"
  />
</svg>
