<svg xmlns="http://www.w3.org/2000/svg" viewBox="0 0 32 32">
  <path
    d="M31.533 16l-15.533-15.507c-0.274-0.287-0.654-0.472-1.076-0.493l-0.004-0h-13.333c-0.008-0-0.017-0-0.027-0-0.862 0-1.56 0.698-1.56 1.56 0 0 0 0 0 0v0 13.333c0.009 0.437 0.197 0.828 0.492 1.106l0.001 0.001 15.507 15.547c0.283 0.277 0.672 0.448 1.1 0.448s0.817-0.171 1.1-0.449l13.333-13.333c0.291-0.28 0.472-0.672 0.472-1.107s-0.181-0.827-0.471-1.106l-0.001-0zM6.2 8.947c-1.473 0-2.667-1.194-2.667-2.667s1.194-2.667 2.667-2.667c1.473 0 2.667 1.194 2.667 2.667v0c0 0.004 0 0.009 0 0.014 0 1.459-1.171 2.644-2.625 2.666l-0.002 0zM24.040 18.56l-3.6 1.253c-0.293 0.107-0.519 0.334-0.624 0.619l-0.002 0.007-1.147 3.627c-0.121 0.325-0.429 0.552-0.789 0.552-0.269 0-0.509-0.127-0.663-0.324l-0.001-0.002-2.373-3.107c-0.141-0.203-0.373-0.333-0.636-0.333-0.001 0-0.003 0-0.004 0h0l-3.907-0.080c-0.458-0.007-0.827-0.381-0.827-0.84 0-0.185 0.060-0.357 0.162-0.496l-0.002 0.002 2.227-3.2c0.092-0.13 0.147-0.292 0.147-0.467 0-0.091-0.015-0.178-0.042-0.259l0.002 0.006-1.187-3.733c-0.025-0.076-0.040-0.163-0.040-0.253 0-0.457 0.37-0.827 0.827-0.827 0.090 0 0.177 0.014 0.259 0.041l-0.006-0.002 3.733 1.133c0.070 0.021 0.15 0.032 0.233 0.032 0.182 0 0.351-0.057 0.49-0.154l-0.003 0.002 3.213-2.227c0.138-0.108 0.315-0.174 0.507-0.174 0.457 0 0.827 0.37 0.827 0.827 0 0.005-0 0.010-0 0.014v-0.001l0.093 3.907c0.002 0.264 0.126 0.499 0.318 0.652l0.002 0.001 3.12 2.36c0.192 0.155 0.314 0.391 0.314 0.655 0 0.371-0.241 0.686-0.574 0.797l-0.006 0.002z"
  />
</svg>
