<svg xmlns="http://www.w3.org/2000/svg" viewBox="0 0 28 32">
  <path
    d="M13.002 27.096c-2.008-0.957-2.856-3.368-1.9-5.363s3.368-2.856 5.363-1.9l-6.508-3.112c-2.008-0.957-2.856-3.368-1.9-5.363 0.957-2.008 3.368-2.856 5.363-1.9l13.662 6.535-4.837-13.743c-0.62-1.752-2.547-2.668-4.298-2.061l-15.697 5.538c-1.752 0.62-2.681 2.547-2.061 4.298l6.966 19.725c0.62 1.752 2.547 2.668 4.298 2.061l6.562-2.317-5.012-2.398z"
  />
  <path
    d="M27.554 23.067c0 2.389-1.936 4.325-4.325 4.325s-4.325-1.936-4.325-4.325c0-2.389 1.936-4.325 4.325-4.325s4.325 1.936 4.325 4.325z"
  />
</svg>
