<svg xmlns="http://www.w3.org/2000/svg" viewBox="0 0 32 32">
  <path
    d="M20.867 17.84c10.827-1.333 8.853-11.267 8.853-11.267h-4.867c0.183-1.37 0.289-2.957 0.293-4.569v-0.005h-18.293c0.004 1.616 0.11 3.203 0.313 4.76l-0.020-0.187h-4.867s-1.973 9.92 8.853 11.267c0.764 1.129 1.607 2.113 2.55 2.991l0.010 0.009c-0.12 1.627-0.773 6.307-4.547 6.307h-2.293v2.853h18.293v-2.853l-3.173-0.107c-3-0.68-3.56-4.72-3.667-6.2 0.953-0.887 1.796-1.871 2.522-2.94l0.038-0.060zM24 10.827l0.64-1.587h2.48c-0.096 1.353-0.582 2.576-1.345 3.576l0.012-0.016c-0.811 0.921-1.871 1.605-3.075 1.949l-0.046 0.011c0.506-1.105 0.963-2.416 1.3-3.774l0.034-0.16zM6.213 12.8c-0.751-0.984-1.237-2.207-1.332-3.539l-0.001-0.021h2.453l0.667 1.587c0.407 1.552 0.89 2.882 1.477 4.155l-0.064-0.155c-1.286-0.36-2.375-1.069-3.193-2.018l-0.007-0.008zM18.107 13.96l-1.867-0.907c-0.069-0.038-0.152-0.060-0.24-0.060s-0.171 0.022-0.243 0.062l0.003-0.001-1.867 0.907c-0.056 0.025-0.121 0.040-0.19 0.040-0.258 0-0.467-0.209-0.467-0.467 0-0.019 0.001-0.038 0.003-0.056l-0 0.002 0.293-2.093c0.003-0.018 0.004-0.040 0.004-0.062 0-0.121-0.047-0.231-0.124-0.312l0 0-1.413-1.533c-0.079-0.081-0.127-0.193-0.127-0.315 0-0.22 0.157-0.403 0.364-0.445l0.003-0 2.093-0.387c0.145-0.016 0.267-0.102 0.332-0.224l0.001-0.002 1-1.867c0.078-0.144 0.228-0.24 0.4-0.24s0.322 0.096 0.399 0.238l0.001 0.002 1 1.867c0.063 0.121 0.18 0.207 0.318 0.226l0.002 0 2.093 0.387c0.211 0.042 0.367 0.225 0.367 0.445 0 0.122-0.049 0.233-0.127 0.315l0-0-1.467 1.533c-0.077 0.081-0.124 0.191-0.124 0.312 0 0.022 0.002 0.043 0.004 0.064l-0-0.002 0.293 2.093c0.006 0.028 0.010 0.061 0.010 0.095 0 0.258-0.209 0.467-0.467 0.467-0.098 0-0.189-0.030-0.265-0.082l0.002 0.001z"
  />
</svg>
