<svg xmlns="http://www.w3.org/2000/svg" viewBox="0 0 32 32">
  <path
    d="M25.733 12.133c-0.884 0-1.6 0.716-1.6 1.6v0 4.427h-1.067c0.004-0.044 0.007-0.095 0.007-0.146 0-0.884-0.716-1.6-1.6-1.6s-1.6 0.716-1.6 1.6c0 0.051 0.002 0.102 0.007 0.152l-0-0.006h-1.067v-1.067c0-0.884-0.716-1.6-1.6-1.6s-1.6 0.716-1.6 1.6v0 1.067h-1.067v-8.573c0.004-0.044 0.007-0.095 0.007-0.146 0-0.884-0.716-1.6-1.6-1.6s-1.6 0.716-1.6 1.6c0 0.051 0.002 0.102 0.007 0.152l-0.001-0.006v13.787l-3.92-2.667c-0.286-0.209-0.644-0.334-1.032-0.334-0.972 0-1.76 0.788-1.76 1.76 0 0.484 0.196 0.923 0.512 1.241l-0-0 7.107 7.36c0.768 0.782 1.836 1.267 3.017 1.267 0.003 0 0.007 0 0.010 0h7.773c2.346-0.008 4.246-1.907 4.253-4.253v-14.014c0-0.004 0-0.009 0-0.013 0-0.876-0.71-1.587-1.587-1.587-0 0-0 0-0 0v0z"
  />
  <path d="M20.267 11.947l3.76-7.6h-3.76v-4.347l-3.76 7.067h3.76v4.88z" />
</svg>
