<svg xmlns="http://www.w3.org/2000/svg" viewBox="0 0 27 32">
  <path
    d="M16.653 12.973c-1.693 0-3.080-1.373-3.080-3.080 0-0.613 0.227-1.16 0.533-1.64-0.28-0.040-0.56-0.080-0.84-0.080-2.813 0-5.093 2.28-5.093 5.093s2.28 5.093 5.093 5.093 5.093-2.28 5.093-5.093c0-0.293-0.040-0.56-0.080-0.84-0.48 0.307-1.027 0.533-1.64 0.533z"
  />
  <path
    d="M18.787 25.32c4.573-2.093 7.747-6.693 7.747-12.053 0.013-7.32-5.933-13.267-13.267-13.267s-13.267 5.947-13.267 13.267c0 5.36 3.187 9.96 7.747 12.053l-4.507 3.88c-1.12 0.96-0.44 2.8 1.040 2.8h17.973c1.48 0 2.16-1.84 1.040-2.8l-4.507-3.88zM4.36 13.267c0-4.92 3.987-8.907 8.907-8.907s8.907 3.987 8.907 8.907-3.987 8.907-8.907 8.907-8.907-3.987-8.907-8.907z"
  />
</svg>
