<svg xmlns="http://www.w3.org/2000/svg" viewBox="0 0 32 32">
  <path
    d="M20 0c-2.667 0-8 5.333-8 12 0 0-1.333-4-4-4 0 2.667-4 6-4 12 0 6.627 5.373 12 12 12s12-5.373 12-12v0c0-10.667-8-14.667-8-20zM23.4 21.427l-1.133 4.2c-0.286 1.045-1.227 1.8-2.344 1.8-0.001 0-0.002 0-0.002 0h-9.76v-9.067l7.68-7.093c0.841 0.424 1.407 1.28 1.407 2.269 0 0.52-0.157 1.004-0.426 1.407l0.006-0.009-2.267 3.427h4.493c0.002 0 0.004 0 0.006 0 1.34 0 2.427 1.086 2.427 2.427 0 0.228-0.031 0.448-0.090 0.657l0.004-0.017z"
  />
</svg>
