<svg xmlns="http://www.w3.org/2000/svg" viewBox="0 0 32 32">
  <path
    d="M20.933 2.4c-0.133 0-0.267 0-0.4 0l-4.533 1.6-4.533-1.6c-0.8-0.267-1.733 0.267-1.867 1.2 0 0.133 0 0.267 0 0.4v2.933c0 0.933 0.8 1.6 1.6 1.6 0.133 0 0.267 0 0.4 0l4.4-2 4.533 2c0.933 0.267 1.733-0.267 2-1.2 0-0.133 0-0.267 0-0.4v-2.933c0-0.933-0.8-1.6-1.6-1.6z"
  />
  <path
    d="M13.733 27.6l-6-20c-0.4-0.8-1.2-1.2-2.133-0.933l-2 0.667c-0.667 0.133-1.067 0.8-1.067 1.467l-1.2 19.2c0 0.933 0.667 1.6 1.467 1.733 0 0 0 0 0.133 0h9.2c0.933 0 1.6-0.667 1.6-1.6 0.133-0.133 0-0.4 0-0.533z"
  />
  <path
    d="M29.467 8.8c0-0.667-0.4-1.2-1.067-1.467l-2-0.8c-0.8-0.267-1.733 0.133-2 0.933l-6 20c-0.267 0.8 0.267 1.733 1.067 2 0.133 0 0.267 0.133 0.533 0.133h9.2c0.933 0 1.6-0.667 1.6-1.6l-1.333-19.2z"
  />
</svg>
