<svg xmlns="http://www.w3.org/2000/svg" viewBox="0 0 32 32">
  <path
    d="M29.6 13.533v0l-12.267-12.373c-0.322-0.329-0.771-0.532-1.267-0.532s-0.945 0.204-1.266 0.532l-0 0-12.4 12.36c-1.49 1.525-2.409 3.612-2.409 5.915 0 4.463 3.454 8.12 7.834 8.443l0.028 0.002h0.613c1.307-0.002 2.545-0.296 3.652-0.822l-0.052 0.022c-0.85 0.983-1.835 1.819-2.932 2.489l-0.054 0.031c-0.267 0.171-0.441 0.465-0.441 0.8 0 0.518 0.417 0.939 0.933 0.947h12.854c0.517-0.007 0.934-0.428 0.934-0.947 0-0.335-0.174-0.63-0.437-0.798l-0.004-0.002c-1.125-0.697-2.087-1.524-2.906-2.477l-0.014-0.016c1.055 0.504 2.293 0.798 3.599 0.8h0.614c4.386-0.35 7.812-3.996 7.812-8.441 0-2.311-0.926-4.405-2.427-5.933l0.001 0.001zM15.547 19.053l-0.88 3.747h-9l0.773-3.64 0.253-0.133c3.373-1.693 5.307-2.787 5.307-3.28-0.204-0.086-0.441-0.135-0.69-0.135-0.029 0-0.059 0.001-0.088 0.002l0.004-0c-0.74 0.008-1.421 0.257-1.968 0.673l0.008-0.006-0.56 0.4-1.693-3.133 0.4-0.32c1.1-0.833 2.492-1.334 4.001-1.334 0.028 0 0.056 0 0.084 0.001l-0.004-0c2.8 0 4.76 1.507 4.76 3.667-0.057 1.525-0.929 2.834-2.191 3.509l-0.022 0.011zM22.88 22.8h-4.147l1.080-4.92-1.107 0.907-1.987-2.667 5.067-4.12h3.467z"
  />
</svg>
