<svg xmlns="http://www.w3.org/2000/svg" viewBox="0 0 32 32">
  <path
    d="M29.867 13.733c0 2.933 0 11.733 0 11.733 0 2.8-2.4 5.2-5.2 5.2h-9.467c-1.333 0-2.667-0.533-3.733-1.6l-3.733-3.733-5.067-5.333c-0.8-0.933-0.8-2.267 0.133-3.067 0.8-0.667 1.867-0.8 2.667-0.267l4.8 3.333v-16.667c0.133-1.067 0.933-2 2-2s2 0.933 2 2v10.533h1.333v-1.333c0-1.067 0.933-2 2-2s2 0.933 2 2v1.333h1.333c0.133-1.067 1.067-1.867 2.133-1.733 0.933 0.133 1.733 0.8 1.733 1.733h1.333c0.133-1.067 1.067-1.867 2.133-1.733 0.8-0.133 1.6 0.8 1.6 1.6zM22.533 4.133c0-1.6-1.2-2.8-2.8-2.8s-2.8 1.2-2.8 2.667 1.2 2.8 2.8 2.8c0 0 0 0 0 0 1.467 0 2.8-1.2 2.8-2.667zM7.867 4.133c0-1.6-1.2-2.8-2.8-2.8-1.467 0-2.8 1.2-2.8 2.667s1.2 2.8 2.8 2.8c0 0 0 0 0 0 1.467 0 2.8-1.2 2.8-2.667zM7.867 10.933c0-1.467-1.2-2.8-2.8-2.8s-2.8 1.333-2.8 2.8c0 1.467 1.2 2.8 2.8 2.8 0 0 0 0 0 0 1.467 0 2.8-1.2 2.8-2.8z"
  />
</svg>
