<svg xmlns="http://www.w3.org/2000/svg" viewBox="0 0 32 32">
  <path
    d="M15.89 32c-0.245-1.35-0.445-2.715-0.75-4.050-0.267-1.278-0.42-2.747-0.42-4.252 0-0.402 0.011-0.802 0.033-1.199l-0.002 0.055c0-0.355-0.080-0.5-0.455-0.55-5.623-0.863-9.879-5.666-9.879-11.463 0-4.548 2.619-8.484 6.432-10.382l0.067-0.030c0.1-0.045 0.205-0.070 0.31-0.11 0.195 0.375-0.065 0.5-0.305 0.645-2.211 1.318-3.833 3.429-4.485 5.932l-0.015 0.068c-0.96 3.62 0.15 6.695 2.625 9.355 1.335 1.473 3.099 2.534 5.094 2.987l0.066 0.013q0.165 0.040 0.33 0.060c0.029 0.002 0.063 0.004 0.098 0.004s0.068-0.001 0.102-0.004l-0.004 0c0-0.165 0-0.335 0-0.5v-2.94c0-0.845-0.215-1.1-1-1.29-0.23-0.078-0.427-0.166-0.614-0.269l0.019 0.009c0.193-0.084 0.417-0.147 0.652-0.179l0.013-0.001c1.54 0 3.075 0 4.615 0 0.188 0.034 0.355 0.089 0.511 0.165l-0.011-0.005c-0.121 0.104-0.262 0.19-0.415 0.251l-0.010 0.004c-1 0.185-1.2 0.43-1.2 1.435v3.32c0.255-0.035 0.44-0.050 0.625-0.090 4.070-0.837 7.207-4.039 7.936-8.079l0.009-0.061c0.087-0.494 0.137-1.063 0.137-1.644 0-3.624-1.947-6.794-4.852-8.521l-0.046-0.025c-0.24-0.14-0.5-0.265-0.305-0.66 0.979 0.419 1.821 0.957 2.56 1.609l-0.010-0.009c3.585 3.125 4.92 7.065 3.875 11.67-1 4.5-3.92 7.295-8.36 8.5-0.415 0.11-0.85 0.14-1.265 0.26-0.154 0.059-0.27 0.188-0.309 0.347l-0.001 0.003c-0.030 0.54-0.030 1.090 0 1.63 0.1 2.75-0.9 5.315-1.24 8z"
  />
</svg>
