<svg xmlns="http://www.w3.org/2000/svg" viewBox="0 0 32 32">
  <path d="M27.893 3.667l-1.373 4.107h4.107l1.373-4.107h-4.107z" />
  <path d="M23.773 3.667h-4.107l-1.373 4.107h4.12l1.36-4.107z" />
  <path d="M23.787 16h4.107l1.373-4.107h-4.12l-1.36 4.107z" />
  <path d="M21.040 11.893h-4.107l-1.373 4.107h4.107l1.373-4.107z" />
  <path
    d="M11.44 16l1.373-4.107h-4.107l1.373-4.12h4.107l1.373-4.107h-7.333l-8.227 24.667h3.227l4.107-12.333h4.107z"
  />
  <path d="M21.040 11.893h4.107l1.373-4.12h-4.107l-1.373 4.12z" />
  <path d="M12.813 11.893h4.12l1.36-4.12h-4.107l-1.373 4.12z" />
  <path d="M18.293 20.107h4.12l1.36-4.107h-4.107l-1.373 4.107z" />
  <path d="M10.080 20.107h4.107l1.373-4.107h-4.12l-1.36 4.107z" />
</svg>
