<svg xmlns="http://www.w3.org/2000/svg" viewBox="0 0 32 32">
  <path
    d="M14.91 11.375c0.411-0.423 0.98-0.69 1.612-0.705l0.003-0c0.513-0.078 1.105-0.122 1.707-0.122 0.822 0 1.625 0.083 2.4 0.24l-0.077-0.013c1.115 0.245 2.058 0.863 2.712 1.714l0.008 0.011c0.287 0.371 0.46 0.843 0.46 1.355 0 0.012-0 0.024-0 0.037l0-0.002c0 4.165 0 8.33 0 12.5 0.001 0.042 0.002 0.092 0.002 0.142 0 1.842-1.035 3.442-2.556 4.25l-0.026 0.013c-0.765 0.454-1.657 0.791-2.607 0.958l-0.048 0.007c-0.78 0.156-1.678 0.245-2.596 0.245-1.391 0-2.735-0.204-4.003-0.585l0.098 0.025c-2.43-0.755-3.7-2.45-3.705-5q0-10.245 0-20.5c0-1.68 0.5-3.2 1.835-4.325 0.924-0.731 2.062-1.231 3.305-1.396l0.035-0.004c0.764-0.141 1.642-0.222 2.539-0.222 1.209 0 2.383 0.147 3.506 0.423l-0.1-0.021c1.65 0.42 3.050 1.235 3.74 2.87 0.285 0.661 0.476 1.428 0.534 2.232l0.001 0.023c0.090 1.21 0 2.43 0 3.68h-6.52v-0.5c0-0.78 0-1.56 0-2.34 0.002-0.021 0.004-0.045 0.004-0.069 0-0.284-0.19-0.524-0.449-0.6l-0.004-0.001c-0.207-0.080-0.447-0.126-0.698-0.126s-0.49 0.046-0.711 0.13l0.014-0.005c-0.275 0.068-0.475 0.312-0.475 0.603 0 0.004 0 0.009 0 0.013v-0.001c0 1.62 0 3.24 0 4.86 0.016 0.079 0.037 0.148 0.063 0.213l-0.003-0.008zM13.14 28.42c0.182 0.273 0.488 0.45 0.835 0.45 0.049 0 0.098-0.004 0.145-0.011l-0.005 0.001c0.33-0.070 0.66-0.125 1-0.19s0.39-0.21 0.385-0.5c0-1.375 0-2.75 0-4.125-0.010-0.052-0.016-0.112-0.016-0.173 0-0.454 0.329-0.831 0.761-0.906l0.006-0.001c0.207-0.090 0.446-0.151 0.698-0.17l0.007-0c0.35 0 0.44-0.18 0.435-0.5 0-0.595 0-1.195 0-1.79-0.005-0.027-0.008-0.059-0.008-0.091 0-0.287 0.224-0.521 0.506-0.539l0.002-0c0.685-0.12 1.36-0.265 2.045-0.395s0.68-0.125 0.67-0.8c-0.005-0.518-0.043-1.022-0.112-1.517l0.007 0.062c-0.005-0.413-0.341-0.746-0.755-0.746-0.062 0-0.122 0.008-0.18 0.022l0.005-0.001c-0.412 0.064-0.78 0.16-1.131 0.288l0.041-0.013c-0.64 0.205-1.255 0.465-1.9 0.655-0.56 0.165-0.82 0-1.1-0.5-0.035-0.065-0.125-0.155-0.17-0.145-0.705 0.135-1.565-0.3-2.065 0.625-0.061 0.093-0.097 0.206-0.097 0.328 0 0.050 0.006 0.099 0.018 0.146l-0.001-0.004c0.051 0.143 0.093 0.312 0.118 0.486l0.002 0.014c0 2.935 0 5.87 0 8.805-0.027 0.46-0.079 0.884-0.155 1.3l0.010-0.064z"
  />
  <path
    d="M17.115 20.845l-0.5-0.595c0.345 0 0.5 0.135 0.53 0.465 0.012 0.224 0.019 0.486 0.019 0.75s-0.007 0.526-0.020 0.786l0.002-0.036c-0.048 0.159-0.168 0.283-0.321 0.334l-0.004 0.001c-0.136 0.014-0.293 0.023-0.453 0.023s-0.317-0.008-0.472-0.024l0.019 0.002c-0.255 0-0.37-0.145-0.36-0.4s0-0.39 0-0.585c-0.001-0.015-0.002-0.032-0.002-0.050 0-0.422 0.342-0.765 0.765-0.765 0.098 0 0.191 0.018 0.277 0.052l-0.005-0.002c0.15 0.035 0.295 0.095 0.44 0.14z"
  />
</svg>
