<svg xmlns="http://www.w3.org/2000/svg" viewBox="0 0 32 32">
  <path
    d="M18.080 11.992c0 3-2.432 5.432-5.432 5.432s-5.432-2.432-5.432-5.432c0-3 2.432-5.432 5.432-5.432s5.432 2.432 5.432 5.432z"
  />
  <path
    d="M12.632 20.135c-3.63 0-10.863 1.819-10.863 5.423v2.72h21.735v-2.72c0-3.604-7.234-5.423-10.872-5.423zM23.175 7.048l-2.282 2.299c0.537 0.729 0.859 1.645 0.859 2.636s-0.322 1.907-0.868 2.648l0.009-0.012 2.282 2.299c2.745-2.745 2.745-6.88 0-9.87zM27.672 2.526l-2.215 2.173c1.747 1.917 2.817 4.478 2.817 7.288s-1.070 5.371-2.825 7.297l0.008-0.009 2.215 2.215c2.444-2.419 3.957-5.774 3.957-9.482s-1.513-7.063-3.956-9.481l-0.001-0.001z"
  />
</svg>
