<svg xmlns="http://www.w3.org/2000/svg" viewBox="0 0 32 32">
  <path
    d="M30.215 3.806h-12.691v-2.349h-3.048v2.349h-12.691v3.048h3.899c-1.33 2.796-3.899 8.421-3.899 10.358-0.003 0.059-0.004 0.129-0.004 0.198 0 2.586 2.096 4.682 4.682 4.682s4.682-2.096 4.682-4.682c0-0.070-0.002-0.139-0.005-0.208l0 0.010c0-1.912-2.568-7.579-3.899-10.358h7.234v20.64h-6.055v3.048h15.158v-3.048h-6.055v-20.64h7.234c-1.331 2.796-3.899 8.421-3.899 10.358-0.003 0.059-0.004 0.129-0.004 0.198 0 2.586 2.096 4.682 4.682 4.682s4.682-2.096 4.682-4.682c0-0.070-0.002-0.139-0.005-0.208l0 0.010c0-1.912-2.568-7.579-3.899-10.358h3.899zM4.017 16.707c0-1.347 2.45-6.257 2.45-6.257s2.442 4.909 2.442 6.257zM23.090 16.707c0-1.347 2.442-6.257 2.442-6.257s2.45 4.909 2.45 6.257z"
  />
</svg>
