<svg xmlns="http://www.w3.org/2000/svg" viewBox="0 0 32 32">
  <path
    d="M11.606 20.285l2.678-2.678c0.147-0.147 0.358-0.157 0.528-0.058 0.528 0.314 1.155 0.506 1.814 0.506 2.173 0 3.888-1.949 3.494-4.189-0.246-1.434-1.424-2.611-2.858-2.858-1.299-0.224-2.486 0.259-3.261 1.12l-2.678 2.656-8.704 8.704c-0.282 0.282-0.336 0.717-0.125 1.043 2.835 4.48 7.821 7.462 13.51 7.462 1.59 0 3.126-0.246 4.582-0.685 0.304-0.090 0.394-0.483 0.17-0.707l-9.13-9.13c-0.326-0.326-0.326-0.864 0-1.2l-0.022 0.013z"
    fill="#7734be"
    style="fill: #7734be"
  />
  <path
    d="M17.811 0.109c-9.645-1.066-17.811 6.464-17.811 15.898 0 0.65 0.045 1.277 0.125 1.904 0.045 0.349 0.47 0.483 0.717 0.237l9.421-9.421c1.546-1.546 3.606-2.566 5.802-2.643 4.547-0.157 8.592 3.194 8.973 7.696 0.291 3.485-1.536 6.576-4.336 8.122-0.493 0.282-0.605 0.941-0.202 1.334l4.806 4.806c0.314 0.314 0.806 0.336 1.142 0.058 3.798-3.283 6.048-8.314 5.456-13.859-0.784-7.366-6.72-13.325-14.080-14.144l-0.013 0.013z"
    fill="#7734be"
    style="fill: #7734be"
  />
</svg>
