<svg xmlns="http://www.w3.org/2000/svg" viewBox="0 0 176 32">
  <path
    d="M24.819 20.659l2.592-2.592c0.141-0.141 0.349-0.15 0.509-0.054 0.509 0.304 1.117 0.49 1.757 0.49 2.106 0 3.766-1.888 3.386-4.058-0.24-1.389-1.379-2.528-2.768-2.768-1.258-0.218-2.41 0.25-3.158 1.085l-2.592 2.573-8.432 8.432c-0.272 0.272-0.326 0.694-0.118 1.008 2.746 4.339 7.574 7.226 13.088 7.226 1.542 0 3.027-0.24 4.438-0.662 0.294-0.086 0.381-0.467 0.163-0.685l-8.845-8.845c-0.314-0.314-0.314-0.835 0-1.162l-0.022 0.010z"
    fill="#7734be"
    style="fill: #7734be"
  />
  <path
    d="M30.829 1.117c-9.344-1.030-17.254 6.262-17.254 15.398 0 0.63 0.045 1.238 0.118 1.843 0.045 0.336 0.454 0.467 0.694 0.227l9.126-9.126c1.498-1.498 3.494-2.486 5.622-2.56 4.406-0.15 8.323 3.091 8.691 7.456 0.282 3.376-1.488 6.371-4.198 7.866-0.477 0.272-0.586 0.912-0.195 1.293l4.656 4.656c0.304 0.304 0.781 0.326 1.107 0.054 3.68-3.181 5.859-8.051 5.283-13.424-0.758-7.13-6.512-12.902-13.638-13.693l-0.010 0.010z"
    fill="#7734be"
    style="fill: #7734be"
  />
  <path
    d="M54.701 28.483c-0.186-0.186-0.272-0.413-0.272-0.704v-18.394c0-0.282 0.086-0.522 0.272-0.704 0.186-0.186 0.413-0.272 0.704-0.272h4.502c0.282 0 0.531 0.099 0.726 0.294s0.294 0.422 0.294 0.685v1.562c1.434-1.693 3.363-2.538 5.795-2.538h1.725c0.282 0 0.522 0.086 0.704 0.272s0.272 0.413 0.272 0.704v4.026c0 0.259-0.086 0.49-0.272 0.685s-0.413 0.294-0.704 0.294h-3.798c-1.075 0-1.898 0.294-2.486 0.88s-0.88 1.411-0.88 2.486v10.016c0 0.282-0.099 0.522-0.294 0.704-0.195 0.186-0.435 0.272-0.726 0.272h-4.851c-0.282 0-0.522-0.086-0.704-0.272l-0.010 0.010z"
    fill="#fff"
    style="fill: #fff"
  />
  <path
    d="M73.994 26.608c-1.802-1.693-2.736-4.157-2.822-7.402v-1.366c0.109-3.082 1.062-5.478 2.877-7.216 1.811-1.738 4.243-2.605 7.302-2.605 2.214 0 4.090 0.445 5.622 1.344s2.669 2.138 3.44 3.699c0.771 1.562 1.149 3.363 1.149 5.405v0.944c0 0.259-0.086 0.49-0.272 0.685s-0.413 0.294-0.704 0.294h-12.522v0.272c0.054 1.226 0.349 2.214 0.899 2.973 0.544 0.758 1.344 1.139 2.387 1.139 0.65 0 1.184-0.141 1.606-0.413 0.413-0.272 0.794-0.608 1.139-0.998 0.24-0.282 0.422-0.467 0.563-0.531s0.368-0.099 0.685-0.099h4.851c0.24 0 0.435 0.077 0.608 0.218s0.25 0.336 0.25 0.563c0 0.685-0.39 1.466-1.149 2.342-0.771 0.89-1.888 1.661-3.341 2.31-1.466 0.65-3.181 0.976-5.165 0.976-3.136 0-5.6-0.845-7.402-2.538zM84.682 16.515v-0.077c0-1.28-0.294-2.288-0.88-3.027s-1.398-1.117-2.442-1.117-1.824 0.368-2.41 1.117-0.88 1.757-0.88 3.027v0.077h6.608z"
    fill="#fff"
    style="fill: #fff"
  />
  <path
    d="M95.514 28.483c-0.186-0.186-0.272-0.413-0.272-0.704v-18.394c0-0.282 0.086-0.522 0.272-0.704 0.186-0.186 0.413-0.272 0.704-0.272h4.266c0.282 0 0.522 0.086 0.704 0.272s0.272 0.413 0.272 0.704v1.334c0.598-0.781 1.398-1.434 2.41-1.942s2.138-0.758 3.386-0.758c2.864 0 4.851 1.117 5.946 3.363 0.63-0.989 1.498-1.802 2.627-2.432 1.117-0.63 2.323-0.944 3.603-0.944 2.138 0 3.885 0.726 5.219 2.17 1.344 1.443 2.019 3.603 2.019 6.477v11.11c0 0.259-0.086 0.49-0.272 0.685s-0.413 0.294-0.704 0.294h-4.534c-0.282 0-0.531-0.086-0.726-0.272s-0.294-0.413-0.294-0.704v-10.842c0-1.302-0.272-2.246-0.803-2.822s-1.258-0.858-2.17-0.858c-0.835 0-1.53 0.294-2.074 0.88s-0.826 1.52-0.826 2.8v10.842c0 0.259-0.086 0.49-0.272 0.685s-0.413 0.294-0.704 0.294h-4.534c-0.282 0-0.522-0.086-0.704-0.272s-0.272-0.413-0.272-0.704v-10.842c0-1.28-0.282-2.214-0.845-2.8s-1.27-0.88-2.138-0.88-1.53 0.294-2.093 0.88-0.845 1.507-0.845 2.755v10.883c0 0.259-0.086 0.49-0.272 0.685s-0.413 0.294-0.704 0.294h-4.656c-0.282 0-0.522-0.086-0.704-0.272v0.010z"
    fill="#fff"
    style="fill: #fff"
  />
  <path
    d="M131.322 5.21c-0.186-0.186-0.272-0.413-0.272-0.704v-3.53c0-0.282 0.086-0.522 0.272-0.704s0.413-0.272 0.704-0.272h4.698c0.282 0 0.522 0.086 0.704 0.272s0.272 0.413 0.272 0.704v3.526c0 0.282-0.086 0.522-0.272 0.704s-0.413 0.272-0.704 0.272h-4.698c-0.282 0-0.522-0.086-0.704-0.272zM131.366 28.496c-0.186-0.186-0.272-0.413-0.272-0.704v-18.394c0-0.282 0.086-0.522 0.272-0.704 0.186-0.186 0.413-0.272 0.704-0.272h4.624c0.282 0 0.522 0.086 0.704 0.272s0.272 0.413 0.272 0.704v18.394c0 0.259-0.086 0.49-0.272 0.685s-0.413 0.294-0.704 0.294h-4.624c-0.282 0-0.522-0.086-0.704-0.272z"
    fill="#fff"
    style="fill: #fff"
  />
  <path
    d="M142.573 28.474c-0.195-0.195-0.294-0.422-0.294-0.685v-25.837c0-0.282 0.099-0.522 0.294-0.704 0.195-0.186 0.422-0.272 0.685-0.272h4.534c0.282 0 0.522 0.086 0.704 0.272s0.272 0.413 0.272 0.704v13.107l5.437-5.99s0.15-0.141 0.294-0.272 0.294-0.227 0.445-0.294 0.336-0.099 0.544-0.099h5.242c0.24 0 0.435 0.086 0.608 0.25 0.173 0.173 0.25 0.368 0.25 0.608 0 0.282-0.109 0.509-0.314 0.662l-7.043 7.597 8.019 9.744c0.205 0.205 0.314 0.4 0.314 0.586 0 0.259-0.086 0.477-0.25 0.65-0.173 0.173-0.381 0.25-0.65 0.25h-5.36c-0.336 0-0.598-0.054-0.758-0.15-0.173-0.109-0.368-0.272-0.608-0.509l-6.186-7.434v7.117c0 0.259-0.086 0.49-0.272 0.685s-0.413 0.294-0.704 0.294h-4.534c-0.259 0-0.49-0.099-0.685-0.294l0.022 0.010z"
    fill="#fff"
    style="fill: #fff"
  />
</svg>
