<svg xmlns="http://www.w3.org/2000/svg" viewBox="0 0 32 32">
  <path
    d="M9.785 4l-9.2 10.45c-0.363 0.411-0.585 0.955-0.585 1.55s0.222 1.139 0.588 1.552l-0.002-0.003 9.2 10.45c0.434 0.488 1.064 0.794 1.765 0.795h18.105c0 0 0 0 0 0 1.293 0 2.342-1.047 2.345-2.34v-20.91c0-0.002 0-0.003 0-0.005 0-1.295-1.050-2.345-2.345-2.345 0 0 0 0 0 0h-18.105c-0.703 0.004-1.332 0.313-1.763 0.802l-0.002 0.003zM25.735 19.65l-1.81 1.8-3.64-3.64-3.64 3.64-1.81-1.81 3.665-3.64-3.64-3.64 1.81-1.81 3.64 3.64 3.64-3.64 1.81 1.81-3.665 3.64z"
  />
</svg>
