<svg xmlns="http://www.w3.org/2000/svg" viewBox="0 0 32 32">
  <path
    d="M27.307 14c0 0.021 0 0.045 0 0.070 0 1.951-0.494 3.787-1.363 5.39l0.030-0.060c-0.103 0.185-0.164 0.406-0.164 0.641 0 0.503 0.279 0.942 0.691 1.169l0.007 0.003c0.183 0.101 0.401 0.16 0.633 0.16 0.002 0 0.005 0 0.007-0h-0c0.001 0 0.002 0 0.004 0 0.502 0 0.939-0.277 1.166-0.687l0.003-0.007c1.063-1.927 1.69-4.223 1.693-6.666v-0.001c0-0.736-0.597-1.333-1.333-1.333v0c-0.012-0-0.026-0.001-0.040-0.001-0.732 0-1.326 0.59-1.333 1.32v0.001z"
  />
  <path
    d="M4 9.747c0.164 0.084 0.357 0.133 0.563 0.133 0.004 0 0.008-0 0.011-0h-0.001c0.527-0.002 0.981-0.308 1.197-0.752l0.003-0.008c0.845-1.731 2.051-3.168 3.529-4.258l0.031-0.022c0.282-0.246 0.459-0.606 0.459-1.007 0-0.736-0.597-1.333-1.333-1.333-0.237 0-0.46 0.062-0.653 0.17l0.007-0.003c-1.879 1.381-3.376 3.173-4.377 5.249l-0.036 0.084c-0.078 0.164-0.124 0.357-0.124 0.561 0 0.514 0.291 0.96 0.716 1.182l0.007 0.004z"
  />
  <path
    d="M13.453 2.987c0.765-0.18 1.643-0.283 2.545-0.283 1.077 0 2.12 0.147 3.11 0.422l-0.081-0.019c0.054 0.009 0.116 0.015 0.18 0.015s0.126-0.005 0.187-0.015l-0.007 0.001c0.052 0.007 0.112 0.011 0.173 0.011 0.743 0 1.345-0.602 1.345-1.345 0-0.681-0.507-1.245-1.164-1.333l-0.007-0.001c-1.065-0.284-2.287-0.447-3.548-0.447-1.183 0-2.332 0.144-3.431 0.414l0.098-0.020c-0.597 0.141-1.034 0.669-1.034 1.299 0 0.107 0.012 0.21 0.036 0.31l-0.002-0.009c0.141 0.597 0.669 1.034 1.299 1.034 0.107 0 0.21-0.013 0.31-0.036l-0.009 0.002z"
  />
  <path
    d="M22.987 22.987h-4.173c3.853-1.207 6.6-4.745 6.6-8.924 0-0.022-0-0.044-0-0.066l0 0.003c0-0.173 0-0.347 0-0.52l-18.56 18.52h25.147c0-4.978-4.035-9.013-9.013-9.013v0z"
  />
  <path
    d="M32 0l-32 32v-7.573l3.853-3.84c-0.18-0.127-0.324-0.293-0.423-0.486l-0.003-0.008c-0.842-1.729-1.335-3.761-1.335-5.909 0-0.065 0-0.13 0.001-0.195l-0 0.010c0-0.213 0-0.44 0-0.653 0-0.001 0-0.001 0-0.002 0-0.736 0.597-1.333 1.333-1.333 0.023 0 0.047 0.001 0.070 0.002l-0.003-0c0.707 0.037 1.267 0.619 1.267 1.332 0 0.001 0 0.001 0 0.002v-0c0 0.173 0 0.36 0 0.533-0.001 0.066-0.002 0.143-0.002 0.221 0 1.654 0.359 3.224 1.004 4.636l-0.029-0.070 1.453-1.453c-0.38-0.964-0.6-2.080-0.6-3.248 0-0.002 0-0.003 0-0.005v0c0.023-5.182 4.228-9.373 9.413-9.373 0 0 0 0 0 0h-0c1.175 0.008 2.297 0.227 3.332 0.622l-0.065-0.022 5.187-5.187z"
  />
</svg>
