<svg xmlns="http://www.w3.org/2000/svg" viewBox="0 0 32 32">
  <path
    d="M9.013 22.987h13.973c4.978 0 9.013 4.035 9.013 9.013v0h-32c0-4.978 4.035-9.013 9.013-9.013v0z"
  />
  <path
    d="M25.413 14c0 5.199-4.215 9.413-9.413 9.413s-9.413-4.215-9.413-9.413c0-5.199 4.215-9.413 9.413-9.413s9.413 4.215 9.413 9.413z"
  />
  <path
    d="M27.107 21.333c-0.002 0-0.004 0-0.007 0-0.232 0-0.45-0.059-0.64-0.163l0.007 0.003c-0.419-0.23-0.698-0.669-0.698-1.172 0-0.235 0.061-0.456 0.168-0.648l-0.003 0.007c0.84-1.543 1.334-3.379 1.334-5.33 0-0.024-0-0.049-0-0.073l0 0.004c0-0.736 0.597-1.333 1.333-1.333v0c0.736 0 1.333 0.597 1.333 1.333v0 0c-0.003 2.443-0.63 4.74-1.73 6.739l0.037-0.073c-0.222 0.411-0.643 0.69-1.131 0.707l-0.002 0zM4.627 20.8c-0.001 0-0.002 0-0.003 0-0.523 0-0.975-0.301-1.194-0.739l-0.003-0.008c-0.842-1.729-1.335-3.761-1.335-5.909 0-0.065 0-0.13 0.001-0.195l-0 0.010c0-0.213 0-0.44 0-0.653 0.033-0.711 0.617-1.275 1.333-1.275 0.737 0 1.335 0.598 1.335 1.335 0 0.021-0 0.042-0.001 0.063l0-0.003c0 0.173 0 0.36 0 0.533-0 0.020-0 0.043-0 0.066 0 1.768 0.419 3.438 1.162 4.917l-0.029-0.063c0.085 0.17 0.134 0.371 0.134 0.583 0 0.528-0.307 0.985-0.753 1.201l-0.008 0.003c-0.184 0.106-0.404 0.17-0.639 0.173h-0.001zM27.627 10.373c-0.001 0-0.003 0-0.005 0-0.543 0-1.011-0.325-1.219-0.792l-0.003-0.008c-0.771-1.784-1.924-3.275-3.364-4.422l-0.023-0.018c-0.258-0.244-0.418-0.588-0.418-0.97 0-0.736 0.597-1.333 1.333-1.333 0.275 0 0.531 0.083 0.743 0.226l-0.005-0.003c1.811 1.43 3.237 3.267 4.152 5.377l0.035 0.089c0.067 0.153 0.105 0.332 0.105 0.519 0 0.548-0.331 1.019-0.803 1.224l-0.009 0.003c-0.144 0.068-0.312 0.107-0.49 0.107-0.011 0-0.021-0-0.032-0l0.002 0zM4.6 9.88c-0.011 0-0.024 0.001-0.036 0.001-0.206 0-0.399-0.049-0.571-0.137l0.007 0.003c-0.433-0.226-0.724-0.672-0.724-1.186 0-0.204 0.046-0.396 0.127-0.569l-0.003 0.008c1.037-2.161 2.534-3.953 4.374-5.306l0.039-0.027c0.186-0.105 0.409-0.167 0.646-0.167 0.736 0 1.333 0.597 1.333 1.333 0 0.401-0.177 0.761-0.458 1.006l-0.002 0.001c-1.499 1.115-2.696 2.551-3.503 4.212l-0.030 0.068c-0.219 0.452-0.673 0.758-1.2 0.76h-0zM19.387 3.213c-0.054 0.009-0.116 0.015-0.18 0.015s-0.126-0.005-0.187-0.015l0.007 0.001c-0.908-0.256-1.951-0.403-3.029-0.403-0.902 0-1.78 0.103-2.623 0.298l0.078-0.015c-0.090 0.022-0.194 0.034-0.301 0.034-0.63 0-1.159-0.437-1.298-1.025l-0.002-0.009c-0.039-0.12-0.062-0.258-0.062-0.401 0-0.64 0.451-1.175 1.053-1.304l0.009-0.002c0.945-0.223 2.030-0.35 3.144-0.35 1.329 0 2.615 0.181 3.836 0.521l-0.1-0.024c0.664 0.089 1.171 0.652 1.171 1.333 0 0.743-0.602 1.345-1.345 1.345-0.061 0-0.121-0.004-0.18-0.012l0.007 0.001z"
  />
</svg>
