<svg xmlns="http://www.w3.org/2000/svg" viewBox="0 0 32 32">
  <path
    d="M32 4.62q-7.95-4.12-15.965-4.12c-2.881 0.005-5.671 0.389-8.324 1.107l0.224-0.052c-0.244-0.075-0.456-0.172-0.652-0.292l0.012 0.007c-0.684-0.442-1.52-0.704-2.417-0.704-0.775 0-1.505 0.196-2.141 0.541l0.024-0.012c-1.368 0.654-2.354 1.917-2.616 3.427l-0.004 0.028-0.14 0.070c0 0.26 0 0.5 0.025 0.77 0 0.095 0 0.19 0 0.29 0.011 0.036 0.025 0.068 0.041 0.098l-0.001-0.003c0.52 11.465 5.62 20.4 15.935 26.225 11-4.655 16.175-13.88 16-27.38zM16.035 4c4.531 0.044 8.811 1.074 12.65 2.884l-0.185-0.079c-0.077 2.867-0.51 5.6-1.257 8.201l0.057-0.231c-0.138-0.127-0.288-0.247-0.446-0.356l-0.014-0.009c-1.135-0.76-2.335-1.385-3.78-1.070-0.22 0.050-0.415 0.205-0.63 0.275-0.169 0.044-0.376 0.083-0.587 0.108l-0.023 0.002-0.060-0.17 1.5-0.845c-0.329-0.362-0.8-0.588-1.325-0.59h-0c-0.1-0.237-0.213-0.441-0.347-0.63l0.007 0.010c-0.34-0.435-0.705-0.85-1.070-1.265-0.23-0.255-0.465-0.5-0.73-0.79 0.125-0.22 0-0.38-0.275-0.5s-0.615-0.295-0.935-0.4c-0.024-0.005-0.051-0.008-0.078-0.008-0.105 0-0.199 0.043-0.266 0.113l-0 0c-0.030 0.041-0.047 0.092-0.047 0.148 0 0.127 0.094 0.233 0.216 0.252l0.001 0c0.104 0.038 0.186 0.112 0.234 0.208l0.001 0.002c-0.080 0-0.175 0.040-0.245 0-1.061-0.438-2.292-0.701-3.582-0.72l-0.008-0-0.67-0.040v0.115l1.54 0.54c-0.605 0.4-1.095 0.845-1.815 0.5-0.41-0.2-0.835-0.375-1.26-0.54-0.059-0.016-0.126-0.024-0.195-0.024s-0.136 0.009-0.2 0.026l0.005-0.001c-0.096 0.020-0.207 0.031-0.32 0.031-0.31 0-0.6-0.086-0.847-0.236l0.007 0.004c-0.327-0.196-0.708-0.379-1.105-0.529l-0.050-0.016c-0.021-0.004-0.045-0.006-0.069-0.006-0.106 0-0.201 0.043-0.271 0.111l0-0c-0.345 0.425-0.405 0.445-0.965 0.24 0.715-0.864 1.149-1.983 1.149-3.204 0-0.26-0.020-0.515-0.058-0.764l0.004 0.028c1.899-0.473 4.084-0.754 6.332-0.775l0.013-0zM23 14.405c-0.151-0.186-0.314-0.349-0.494-0.495l-0.006-0.005c1.195-0.63 3.415 0.535 4.435 2.075-0.125 0.36-0.245 0.715-0.38 1.065-0.565-0.095-1.15-0.055-1.71-0.14-0.699-0.12-1.292-0.26-1.871-0.434l0.111 0.029c-0.255-0.065-0.255-0.225-0.155-0.45 0.159-0.251 0.253-0.557 0.253-0.884 0-0.278-0.068-0.54-0.188-0.77l0.004 0.009zM15.38 9.825c0.368-0.313 0.85-0.503 1.375-0.503 0.19 0 0.374 0.025 0.55 0.072l-0.015-0.003c1.060 0.175 1.065 0.165 1.395 1.205 0.035 0.11 0.050 0.23 0.085 0.405-0.185 0-0.325 0-0.47 0-0.765 0.035-1.525 0.080-2.29 0.105-0.016 0.002-0.035 0.003-0.054 0.003-0.132 0-0.253-0.046-0.347-0.123l0.001 0.001c-0.385-0.5-0.945-0.405-1.46-0.5-0.058-0.004-0.126-0.006-0.195-0.006s-0.137 0.002-0.204 0.007l0.009-0.001c0-0.145 0-0.27-0.040-0.5l1.445 0.57c-0.285-0.39-0.005-0.555 0.215-0.73zM15.245 11.665l1.135 0.77c-0.4 0.14-0.74-0.090-1.195-0.69zM15.89 11.34c0.355-0.033 0.767-0.051 1.184-0.051 0.895 0 1.77 0.086 2.617 0.25l-0.086-0.014c-1.045 0.045-2.090 0.070-3 0.785zM18.89 10.29c0.405-0.245 0.92 0.105 1.39 0.97-0.965-0.17-1.23-0.36-1.41-0.97zM19 13.66l0.5 0.225c-0.265 0.7-0.675 0.89-1.37 0.575zM20.285 14.16c-0.144 0.321-0.306 0.597-0.494 0.853l0.009-0.013c-0.090 0.105-0.335 0.075-0.57 0.115 0.27-0.69 0.715-1.045 1.040-0.935zM19.285 13.42c0.435-0.555 0.435-0.555 1-0.31l0.96 0.415c-0.745 0.555-1.315 0.125-1.96-0.085zM20 12.525c-0.168 0.095-0.308 0.186-0.443 0.284l0.013-0.009c0.080-0.11 0.135-0.26 0.245-0.32 0.255-0.135 0.545-0.215 0.81-0.335 0.185-0.085 0.35-0.23 0.54-0.305 0.134-0.040 0.288-0.065 0.447-0.070l0.003-0 0.090 0.135c-0.090 0.083-0.192 0.155-0.302 0.211l-0.008 0.004c-0.46 0.145-0.93 0.25-1.395 0.405zM21.685 16.025l0.275 0.74h-0.65zM21.8 15.44c-0.030-0.155-0.090-0.285-0.050-0.325 0.153-0.153 0.316-0.296 0.488-0.427l0.012-0.008 0.085 0.095c-0.16 0.225-0.335 0.41-0.53 0.68zM22.055 15.44l0.545-0.7c0.085 0.295 0.14 0.5 0.2 0.7zM22.715 15.885l-0.465 0.715h-0.125c-0.030-0.23-0.145-0.5-0.065-0.675s0.39-0.095 0.6-0.135zM9.215 10.14c-0.065 0.23-0.13 0.465-0.205 0.72l-0.37-0.165-0.075 0.045 0.245 0.45-0.605 0.225c0-0.555-0.030-1.070 0-1.575 0.066-0.298 0.168-0.562 0.303-0.805l-0.008 0.015c0.024-0.052 0.072-0.090 0.129-0.1l0.001-0c0.5 0.035 0.975 0.085 1.465 0.135v0.12c-0.37 0.060-0.745 0.1-1.105 0.195-0.13 0.035-0.225 0.21-0.365 0.35zM9.535 8.885l0.105-0.41 1.36 0.525-0.030 0.105c-0.47 0.115-0.905-0.195-1.415-0.225zM7.915 10.885c0 0.040-0.135 0.095-0.23 0.155-0.225-1.5-0.070-2.295 0.425-2.42l-0.36 0.725c0.555 0.465 0.145 1.020 0.185 1.53zM4.055 10.24c0.231 0.034 0.497 0.053 0.768 0.053 0.932 0 1.811-0.229 2.583-0.633l-0.031 0.015c0.029 0.202 0.046 0.435 0.046 0.672 0 0.14-0.006 0.279-0.017 0.416l0.001-0.018c-0.028 0.118-0.044 0.253-0.044 0.392 0 0.581 0.283 1.096 0.72 1.415l0.005 0.003c0.303 0.283 0.711 0.457 1.16 0.457 0.271 0 0.528-0.064 0.755-0.177l-0.010 0.004c0.116-0.070 0.216-0.149 0.305-0.24l0-0c-0.495-0.064-0.934-0.159-1.361-0.285l0.061 0.015c-0.233-0.098-0.393-0.324-0.393-0.587 0-0.088 0.018-0.171 0.050-0.247l-0.002 0.004 0.47 0.315c0.385 0.255 0.425 0.245 0.695-0.125 0.041-0.060 0.083-0.112 0.127-0.162l-0.002 0.002-0.375-0.935 0.135-0.095 0.555 0.75 0.455-0.12v0.53c0.091 0.092 0.216 0.148 0.355 0.148 0.115 0 0.221-0.039 0.306-0.104l-0.001 0.001c0.188-0.118 0.312-0.325 0.312-0.561 0-0.101-0.023-0.197-0.064-0.283l0.002 0.004h1.61v-0.105l-0.73-0.26c0.046-0.005 0.099-0.008 0.152-0.008 0.512 0 0.964 0.256 1.235 0.648l0.003 0.005c0.105 0.17 0.355 0.245 0.54 0.355s0.405 0.155 0.525 0.3c0.395 0.5 0.755 1 1.12 1.5 0.17 0.235 0.315 0.5 0.47 0.725-0.334-0.089-0.611-0.183-0.879-0.293l0.049 0.018c-0.103-0.065-0.173-0.173-0.185-0.298l-0-0.002c0-0.010 0-0.023 0-0.035 0-0.887-0.577-1.639-1.376-1.901l-0.014-0.004c-0.253-0.127-0.55-0.201-0.865-0.201-0.584 0-1.108 0.255-1.468 0.659l-0.002 0.002c-0.12 0.143-0.299 0.234-0.499 0.234-0.068 0-0.134-0.010-0.195-0.030l0.005 0.001c-0.215-0.055-0.36-0.050-0.5 0.175-0.060 0.11-0.23 0.155-0.35 0.23l0.87 0.345c-0.36 1.625 0.24 2.34 1.53 2.87 0.935 0.39 1.955-0.235 2.705-1.56 0.345 0.125 0.71 0.4 1 0.33 0.67-0.15 1.115 0.225 1.635 0.465 0.347 0.174 0.791 0.364 1.245 0.533l0.1 0.032c0.179 0.039 0.312 0.193 0.32 0.379l0 0.001c0.050 0.85 0.69 1.145 1.34 1.355 0.115 0.038 0.248 0.060 0.386 0.060 0.475 0 0.89-0.259 1.111-0.643l0.003-0.006c0.27 0.225 0.5 0.5 0.8 0.67 0.612 0.435 1.375 0.695 2.199 0.695 0.021 0 0.043-0 0.064-0.001l-0.003 0c0.16 0.001 0.315 0.016 0.467 0.042l-0.017-0.002c-1.216 2.602-2.876 4.802-4.904 6.597l-0.021 0.018c-0.326-0.604-0.705-1.125-1.143-1.588l0.003 0.003c-1.145-1.25-2.475-2.307-3.95-3.134l-0.080-0.041c-0.826-0.494-1.811-0.996-2.83-1.435l-0.17-0.065c-1.533-0.624-3.321-1.112-5.18-1.38l-0.125-0.015c-0.592-0.092-1.113-0.22-1.616-0.385l0.071 0.020c-0.876-1.874-1.576-4.054-1.994-6.332l-0.026-0.168zM13.555 14.24c0.135 0.35 0.245 0.625 0.385 1l-1.055-0.13zM12.8 14.65l-0.14-0.045 0.145-1.12c0.55 0.35 0.555 0.355 0.27 0.76zM13.695 13.345c-0.090 0.075-0.355-0.065-0.54-0.11v-0.175l0.93-0.5 0.090 0.115c-0.139 0.252-0.307 0.468-0.504 0.654l-0.001 0.001zM14.025 13.55c0.16-0.275 0.295-0.5 0.43-0.76l0.135-0.045 0.5 0.87zM14.99 14.050c-0.21 0.315-0.42 0.635-0.625 0.955l-0.115-0.040c-0.080-0.183-0.165-0.419-0.237-0.66l-0.013-0.050c-0.001-0.007-0.001-0.015-0.001-0.024 0-0.083 0.037-0.157 0.096-0.206l0-0c0.265-0.040 0.54-0.050 0.81-0.070zM16.24 28.050c-3.689-2.27-6.702-5.297-8.889-8.883l-0.066-0.117h0.31c2.204 0.183 4.242 0.648 6.159 1.362l-0.159-0.052c2.016 0.689 3.763 1.651 5.303 2.864l-0.038-0.029c0.721 0.536 1.319 1.192 1.773 1.945l0.017 0.030c-1.291 1.076-2.747 2.035-4.304 2.82l-0.131 0.060z"
  />
</svg>
