<svg xmlns="http://www.w3.org/2000/svg" viewBox="0 0 32 32">
  <path
    d="M8.133 14.347c0.74-3.715 3.974-6.476 7.853-6.476 2.059 0 3.936 0.778 5.354 2.055l-0.007-0.006 3.493-4c-2.342-2.086-5.447-3.361-8.85-3.361-6.819 0-12.442 5.119-13.237 11.724l-0.006 0.064h-2.733l5.333 7.507 5.333-7.507z"
  />
  <path
    d="M32 17.653l-5.333-7.507-5.333 7.507h2.533c-0.76 3.69-3.983 6.425-7.843 6.425-2.032 0-3.887-0.758-5.298-2.006l0.008 0.007-3.493 4c2.342 2.086 5.447 3.361 8.85 3.361 6.819 0 12.442-5.119 13.237-11.724l0.006-0.064z"
  />
</svg>
