<svg xmlns="http://www.w3.org/2000/svg" viewBox="0 0 32 32">
  <path
    d="M14.253 5.947c0.456 0.268 1.005 0.426 1.591 0.426 1.76 0 3.187-1.427 3.187-3.187s-1.427-3.187-3.187-3.187c-1.176 0-2.204 0.638-2.756 1.586l-0.008 0.015c-0.266 0.455-0.422 1.002-0.422 1.586 0 1.174 0.635 2.2 1.581 2.753l0.015 0.008z"
  />
  <path
    d="M25.333 18.813h-1.84l1.333-1.253c-0.643-0.684-1.35-1.294-2.116-1.825l-0.044-0.029-2.8 2.253c0.508 0.261 0.945 0.544 1.35 0.866l-0.016-0.013h-2.387l-4.147 3.333h10.4c0.004 0 0.008 0 0.013 0 1.655 0 3.161-0.639 4.284-1.684l-0.004 0.004 2-1.88-2.267-2.427-2.080 1.973c-0.44 0.411-1.029 0.667-1.677 0.68l-0.003 0z"
  />
  <path
    d="M32 25.333h-0.653c-1.685 0.111-3.211 0.71-4.461 1.655l0.021-0.015c-0.764 0.639-1.757 1.027-2.84 1.027-0.023 0-0.047-0-0.070-0.001l0.004 0c-0.031 0.001-0.067 0.001-0.104 0.001-1.063 0-2.038-0.378-2.797-1.007l0.007 0.006c-1.233-0.936-2.762-1.544-4.426-1.665l-0.027-0.002h-1.293c-1.689 0.109-3.221 0.708-4.474 1.655l0.021-0.015c-0.76 0.639-1.75 1.027-2.831 1.027-0.027 0-0.053-0-0.080-0.001l0.004 0c-0.039 0.001-0.084 0.002-0.13 0.002-0.994 0-1.907-0.348-2.624-0.928l0.008 0.006 6.307-4.933 6.093-4.947 3.067-2.533 6.6-5.333-2.107-2.587-1.213 0.96h-11.2c-0.597-0.373-1.322-0.595-2.098-0.595-1.443 0-2.708 0.764-3.412 1.911l-0.010 0.017-2.747 4.293c-0.386 0.604-0.615 1.341-0.615 2.131 0 1.413 0.733 2.655 1.839 3.366l0.016 0.010h-5.773v3.333h3.107l4.080-3.36 1.333-1.040 4.813-3.88 0.68-0.56v-0.093c0.402-0.605 0.644-1.347 0.653-2.144l0-0.002h5.333l-3.32 2.667-4.907 3.907-5.52 4.48-4.4 3.387c-0.349-0.097-0.758-0.168-1.179-0.199l-0.021-0.001h-0.653v4c0.033-0 0.073-0.001 0.112-0.001 0.698 0 1.377 0.083 2.026 0.239l-0.059-0.012c1.156 0.303 2.167 0.799 3.050 1.457l-0.023-0.017c0.75 0.623 1.723 1.001 2.785 1.001 0.038 0 0.076-0.001 0.114-0.001l-0.006 0c0.028 0.001 0.061 0.001 0.094 0.001 1.066 0 2.044-0.378 2.806-1.007l-0.008 0.006c1.365-1.041 3.094-1.668 4.97-1.668 0.048 0 0.096 0 0.144 0.001l-0.007-0c0.043-0.001 0.094-0.001 0.145-0.001 1.877 0 3.608 0.627 4.995 1.683l-0.020-0.015c0.752 0.623 1.726 1.001 2.789 1.001 0.032 0 0.064-0 0.096-0.001l-0.005 0c0.025 0.001 0.055 0.001 0.085 0.001 1.069 0 2.050-0.378 2.816-1.007l-0.008 0.006c1.357-1.041 3.080-1.668 4.948-1.668 0.056 0 0.111 0.001 0.167 0.002l-0.008-0v-4z"
  />
</svg>
