<svg xmlns="http://www.w3.org/2000/svg" viewBox="0 0 32 32">
  <path
    d="M13.333 0.373l-12.96 12.96c-0.231-1.199-0.367-2.582-0.373-3.995l-0-0.005c0.004-2.837 0.532-5.549 1.492-8.048l-0.052 0.154c2.344-0.908 5.056-1.436 7.892-1.44h0.002c1.418 0.006 2.801 0.142 4.141 0.396l-0.141-0.022zM31.64 18.667l-12.973 12.973c1.201 0.226 2.584 0.357 3.997 0.36h0.003c2.837-0.004 5.549-0.532 8.048-1.492l-0.154 0.052c0.908-2.344 1.436-5.056 1.44-7.892v-0.002c-0.003-1.416-0.134-2.799-0.382-4.141l0.022 0.141zM30.667 15.013l-15.653 15.653c-6.391-2.339-11.341-7.289-13.629-13.523l-0.051-0.157 15.653-15.653c6.391 2.339 11.341 7.289 13.629 13.523l0.051 0.157zM23.093 16.48c-0.243-0.252-0.583-0.408-0.96-0.408s-0.717 0.156-0.96 0.408l-0 0-0.92 0.92-1.867-1.853 0.933-0.933c0.24-0.248 0.388-0.587 0.388-0.96 0-0.763-0.618-1.381-1.381-1.381-0.39 0-0.742 0.161-0.993 0.421l-0.934 0.934-1.733-1.867 0.92-0.92c0.247-0.245 0.4-0.585 0.4-0.96 0-0.747-0.606-1.353-1.353-1.353-0.372 0-0.709 0.15-0.953 0.393l0-0-4.76 4.693c-0.243 0.245-0.393 0.581-0.393 0.953 0 0.747 0.606 1.353 1.353 1.353 0.375 0 0.715-0.153 0.96-0.4l0-0 0.92-0.853 1.867 1.853-0.92 0.933c-0.226 0.24-0.364 0.564-0.364 0.92 0 0.742 0.602 1.344 1.344 1.344 0.386 0 0.734-0.163 0.979-0.423l0.001-0.001 0.933-0.92 1.853 1.867-0.92 0.92c-0.247 0.245-0.4 0.585-0.4 0.96 0 0.747 0.606 1.353 1.353 1.353 0.372 0 0.709-0.15 0.953-0.393l4.693-4.693c0.232-0.24 0.375-0.567 0.375-0.927 0-0.387-0.165-0.735-0.428-0.979l-0.001-0.001z"
  />
</svg>
