<svg xmlns="http://www.w3.org/2000/svg" viewBox="0 0 32 32">
  <path
    d="M13.030 31.1c-1.53-1.545-6.955-8.18-5.325-23.44 0.001-0.007 0.001-0.016 0.001-0.024 0-0.11-0.090-0.2-0.2-0.2-0.042 0-0.080 0.013-0.112 0.034l0.001-0c-0.73 0.5-2.405 1.655-3.375 2.5-0.248 0.214-0.417 0.514-0.459 0.853l-0.001 0.007c-0.305 2.745-1.205 16.065 9.355 20.45 0.016 0.011 0.036 0.017 0.057 0.017 0.059 0 0.107-0.048 0.107-0.107 0-0.038-0.019-0.071-0.049-0.090l-0-0z"
  />
  <path
    d="M18.93 31.33c2.245-0.96 14.3-7.33 7.5-30.95-0.056-0.22-0.252-0.38-0.485-0.38-0.005 0-0.010 0-0.015 0l0.001-0c-0.009-0-0.020-0-0.031-0-0.793 0-1.556 0.13-2.269 0.37l0.050-0.015c-0.213 0.060-0.367 0.253-0.367 0.482 0 0.046 0.006 0.090 0.017 0.132l-0.001-0.003c0.695 2.85 4.095 18.965-4.525 30.21-0.019 0.018-0.030 0.044-0.030 0.072 0 0.055 0.045 0.1 0.1 0.1 0.021 0 0.040-0.006 0.056-0.017l-0 0z"
  />
  <path
    d="M19.605 1.595c-2.4 0.34-6.73 2.715-7.93 3.39-0.19 0.113-0.316 0.317-0.32 0.549v0.001c-0.465 27.965 4.645 26.465 4.645 26.465 5.705-1.425 4.4-26.085 4.16-29.925-0.009-0.269-0.23-0.483-0.5-0.483-0.019 0-0.039 0.001-0.058 0.003l0.002-0zM16.605 19.55c-0.183 0.038-0.394 0.061-0.61 0.061-1.712 0-3.1-1.388-3.1-3.1s1.388-3.1 3.1-3.1c1.712 0 3.1 1.388 3.1 3.1 0 0.216-0.022 0.426-0.064 0.63l0.003-0.020c-0.252 1.226-1.2 2.176-2.405 2.427l-0.020 0.003z"
  />
</svg>
