<svg xmlns="http://www.w3.org/2000/svg" viewBox="0 0 32 32">
  <path
    d="M4.72 30.12l-0.56 1.627c-0.056 0.149-0.197 0.254-0.363 0.254-0.123 0-0.232-0.057-0.303-0.146l-0.001-0.001-1.067-1.413c-0.066-0.089-0.171-0.147-0.29-0.147-0.001 0-0.002 0-0.004 0h-1.76c-0 0-0 0-0 0-0.206 0-0.373-0.167-0.373-0.373 0-0.080 0.025-0.154 0.068-0.215l-0.001 0.001 1.013-1.453c0.022-0.047 0.035-0.102 0.035-0.16s-0.013-0.113-0.036-0.162l0.001 0.002-0.467-1.733c-0.011-0.034-0.018-0.074-0.018-0.115 0-0.206 0.167-0.373 0.373-0.373 0.045 0 0.088 0.008 0.127 0.022l-0.003-0.001 1.68 0.507c0.049 0.022 0.106 0.035 0.167 0.035s0.118-0.013 0.169-0.036l-0.003 0.001 1.453-1.013c0.059-0.042 0.133-0.067 0.213-0.067 0.206 0 0.373 0.167 0.373 0.373 0 0 0 0 0 0v-0 1.76c0 0.001 0 0.002 0 0.003 0 0.119 0.057 0.224 0.146 0.289l0.001 0.001 1.413 1.080c0.112 0.066 0.187 0.186 0.187 0.323 0 0.153-0.092 0.285-0.224 0.342l-0.002 0.001-1.64 0.573c-0.131 0.025-0.24 0.103-0.306 0.211l-0.001 0.002zM30.12 4.786l1.627-0.56c0.149-0.056 0.254-0.197 0.254-0.363 0-0.123-0.057-0.232-0.146-0.303l-0.001-0.001-1.413-1.067c-0.089-0.066-0.147-0.171-0.147-0.29 0-0.001 0-0.002 0-0.004v0-1.76c0-0 0-0 0-0 0-0.206-0.167-0.373-0.373-0.373-0.080 0-0.154 0.025-0.215 0.068l0.001-0.001-1.493 0.947c-0.047 0.022-0.102 0.035-0.16 0.035s-0.113-0.013-0.162-0.036l0.002 0.001-1.693-0.467c-0.034-0.011-0.074-0.018-0.115-0.018-0.206 0-0.373 0.167-0.373 0.373 0 0.045 0.008 0.088 0.022 0.127l-0.001-0.003 0.507 1.68c0.022 0.049 0.035 0.106 0.035 0.167s-0.013 0.118-0.036 0.169l0.001-0.003-1.013 1.453c-0.042 0.059-0.067 0.133-0.067 0.213 0 0.206 0.167 0.373 0.373 0.373 0 0 0 0 0 0h1.76c0.001 0 0.002 0 0.003 0 0.119 0 0.224 0.057 0.289 0.146l0.001 0.001 1.080 1.413c0.066 0.112 0.186 0.187 0.323 0.187 0.153 0 0.285-0.092 0.342-0.224l0.001-0.002 0.573-1.64c0.025-0.131 0.103-0.24 0.211-0.306l0.002-0.001z"
  />
  <path
    d="M13.333 0.373l-12.96 12.96c-0.231-1.199-0.367-2.582-0.373-3.995l-0-0.005c0.004-2.837 0.532-5.549 1.492-8.048l-0.052 0.154c2.344-0.908 5.056-1.436 7.892-1.44h0.002c1.418 0.006 2.801 0.142 4.141 0.396l-0.141-0.022zM31.64 18.666l-12.973 12.973c1.201 0.226 2.584 0.357 3.997 0.36h0.003c2.837-0.004 5.549-0.532 8.048-1.492l-0.154 0.052c0.908-2.344 1.436-5.056 1.44-7.892v-0.002c-0.003-1.416-0.134-2.799-0.382-4.141l0.022 0.141zM30.667 15.013l-15.653 15.653c-6.391-2.339-11.341-7.289-13.629-13.523l-0.051-0.157 15.653-15.653c6.391 2.339 11.341 7.289 13.629 13.523l0.051 0.157zM23.093 16.48c-0.243-0.252-0.583-0.408-0.96-0.408s-0.717 0.156-0.96 0.408l-0 0-0.92 0.92-1.867-1.853 0.933-0.933c0.24-0.248 0.388-0.587 0.388-0.96 0-0.763-0.618-1.381-1.381-1.381-0.39 0-0.742 0.161-0.993 0.421l-0.934 0.934-1.733-1.867 0.92-0.92c0.247-0.245 0.4-0.585 0.4-0.96 0-0.747-0.606-1.353-1.353-1.353-0.372 0-0.709 0.15-0.953 0.393l0-0-4.76 4.693c-0.243 0.245-0.393 0.581-0.393 0.953 0 0.747 0.606 1.353 1.353 1.353 0.375 0 0.715-0.153 0.96-0.4l0-0 0.92-0.853 1.867 1.853-0.92 0.933c-0.226 0.24-0.364 0.564-0.364 0.92 0 0.742 0.602 1.344 1.344 1.344 0.386 0 0.734-0.163 0.979-0.423l0.001-0.001 0.933-0.92 1.853 1.867-0.92 0.92c-0.247 0.245-0.4 0.585-0.4 0.96 0 0.747 0.606 1.353 1.353 1.353 0.372 0 0.709-0.15 0.953-0.393l4.693-4.693c0.232-0.24 0.375-0.567 0.375-0.927 0-0.387-0.165-0.735-0.428-0.979l-0.001-0.001z"
  />
</svg>
