<svg xmlns="http://www.w3.org/2000/svg" viewBox="0 0 32 32">
  <path
    d="M30.013 5.333c-0.008-0-0.017-0-0.027-0-1.097 0-1.987 0.889-1.987 1.987 0 0 0 0 0 0v0 3.213h4v-3.213c0-1.097-0.889-1.987-1.987-1.987v0z"
  />
  <path
    d="M18.4 24.227h-18.4c0 1.878 1.522 3.4 3.4 3.4v0h17.013c-1.347 0-2.013-1.52-2.013-3.4z"
  />
  <path
    d="M29.787 4.373h-18.387c-1.878 0-3.4 1.522-3.4 3.4v0 14.893h11.813v1.547c-0.004 0.064-0.007 0.138-0.007 0.213 0 1.878 1.522 3.4 3.4 3.4s3.4-1.522 3.4-3.4c0-0.075-0.002-0.149-0.007-0.223l0.001 0.010v-16.44s0 0 0-0.080c0.041-1.77 1.439-3.2 3.192-3.293l0.008-0s-0.013-0.013-0.013-0.027zM18.733 18.32h-7.747v-2.32h7.747zM23.387 12.12h-12.4v-2.32h12.4z"
  />
</svg>
