<svg xmlns="http://www.w3.org/2000/svg" viewBox="0 0 32 32">
  <path
    d="M12.707 13.133c0-2.053-1.773-1.907-1.773-1.907h-2.787l-0.507 3.813h3s2.080 0.147 2.080-1.907z"
  />
  <path
    d="M29.88 8.067l-0.373 3.413-6.76-0.040-0.413 2.84h5.84l-0.427 3.507h-5.947l-1.013 6.347h-4.013l2.947-16.253h10.040c-2.773-4.707-7.893-7.88-13.76-7.88-8.84 0-16 7.16-16 16 0 2.893 0.787 5.613 2.133 7.947l2.907-16.067h7.613s4.12-0.107 4.12 4.573-4.267 5.080-4.267 5.080l3.307 6.6h-4.12l-3.147-6.347h-1.427l-1.013 6.347h-3.867c2.787 4.707 7.893 7.88 13.76 7.88 8.84 0 16-7.16 16-16 0-2.893-0.773-5.6-2.12-7.933z"
  />
</svg>
