<svg xmlns="http://www.w3.org/2000/svg" viewBox="0 0 32 32">
  <path
    d="M30.4 26.667c-1.2-2.667-1.6-5.6-1.333-8.533l0.4-3.333-2.933-7.6c-0.8-1.733-2.933-2.533-4.667-1.6h-0.133c-0.4 0.267-0.8 0.533-1.2 0.933v0l-0.133 0.133c-0.133 0.133-0.133 0.133-0.267 0.267l-4.133 6h-5.2l0.8-2h2.667l-2.533-4c-0.4-0.533-0.8-1.067-1.467-1.333h-0.133c-1.733-0.933-3.733-0.133-4.667 1.6l-2.933 7.6 0.4 3.333c0.267 2.933-0.133 5.867-1.333 8.533l-1.6 3.867 3.067 1.333 1.6-3.867c1.333-3.2 1.867-6.667 1.6-10.133l-0.133-0.933 4 2.8c1.867 1.333 2.533 3.6 1.867 5.733l-1.867 5.067 3.2 1.067 1.867-5.067c1.2-3.467 0-7.467-3.067-9.6l-0.933-0.667h7.067l2.8-3.867 1.333 3.067-2 1.467c-2.8 2-4.133 5.733-3.067 9.067l1.6 5.733 3.2-0.933-1.6-5.733c-0.533-2 0.133-4.133 1.867-5.467l3.733-2.667-0.133 0.933c-0.667 3.467-0.133 6.933 1.333 10.133l1.6 3.733 3.067-1.333-1.6-3.733z"
  />
  <path
    d="M17.333 7.067c1.467-0.933 2-2.8 1.2-4.4s-2.8-2-4.4-1.2c-1.467 0.933-2 2.933-1.067 4.4 0.8 1.6 2.8 2 4.267 1.2z"
  />
</svg>
