<svg xmlns="http://www.w3.org/2000/svg" viewBox="0 0 32 32">
  <path d="M7.625 29h17v3h-17v-3z" />
  <path
    d="M0 3.5v23h32v-23zM15.25 21c0 1.105-0.895 2-2 2v0h-8c-1.105 0-2-0.895-2-2v0-12c0-1.105 0.895-2 2-2v0h8c1.105 0 2 0.895 2 2v0zM28.75 21c0 1.105-0.895 2-2 2v0h-8c-1.105 0-2-0.895-2-2v0-12c0-1.105 0.895-2 2-2v0h8c1.105 0 2 0.895 2 2v0z"
  />
  <path
    d="M9.25 10c-2.32 0-3.64 1.865-3.64 5s1.32 5 3.64 5 3.64-1.865 3.64-5-1.325-5-3.64-5zM9.25 17.89c-0.87 0-1.35-1.035-1.35-2.915s0.5-2.915 1.35-2.915 1.35 1.055 1.35 2.915-0.485 2.915-1.35 2.915z"
  />
  <path
    d="M22.75 10c-2.32 0-3.64 1.865-3.64 5s1.32 5 3.64 5 3.64-1.865 3.64-5-1.325-5-3.64-5zM22.75 17.89c-0.87 0-1.35-1.035-1.35-2.915s0.5-2.915 1.35-2.915 1.35 1.055 1.35 2.915-0.485 2.915-1.35 2.915z"
  />
</svg>
