<svg xmlns="http://www.w3.org/2000/svg" viewBox="0 0 32 32">
  <path
    d="M26.36 15.56c-0.604-0.973-1.124-2.094-1.503-3.279l-0.030-0.108c-0.733-3.2-5.107-8.987-10.667-8.987v3.333c2.547 0 4.947 2.253 6.267 4.36h-0.133s-7.36 2.96-7.52 3.053h-0.067c-0.681 0.399-1.132 1.127-1.133 1.96v0c-0.001 0.023-0.001 0.050-0.001 0.077 0 0.469 0.145 0.904 0.393 1.263l-0.005-0.007c0.086 0.125 0.178 0.234 0.28 0.333l0 0c0.19 0.192 0.416 0.349 0.666 0.461l0.014 0.006 3.627 1.64-9.093 6.747h-1.573v2.667h7.88v-2.667h-0.72l7.76-5.747c0.412-0.307 0.676-0.793 0.676-1.341 0-0.063-0.004-0.126-0.010-0.187l0.001 0.008c-0.072-0.596-0.446-1.090-0.963-1.329l-0.010-0.004-1.16-0.48 3.053-1.333c0.116-0.049 0.208-0.094 0.298-0.142l-0.018 0.009c0.56 1.040 1.147 1.96 1.333 2.253 0.299 0.466 0.814 0.771 1.4 0.773h6.6v-3.333z"
  />
  <path
    d="M1.453 24h5.533v-2.507l4.48-2.027c-0.943-0.655-1.606-1.655-1.81-2.814l-0.004-0.026-9.653 4.387 1.333 2.987z"
  />
  <path
    d="M30.253 11.187c1.065-0.609 1.771-1.738 1.771-3.031 0-1.922-1.558-3.48-3.48-3.48s-3.48 1.558-3.48 3.48c0 0.624 0.164 1.209 0.451 1.715l-0.009-0.017c0.603 1.073 1.734 1.787 3.032 1.787 0.63 0 1.222-0.168 1.731-0.462l-0.017 0.009z"
  />
</svg>
