<svg xmlns="http://www.w3.org/2000/svg" viewBox="0 0 32 32">
  <path
    d="M18.253 5.947c0.456 0.268 1.005 0.426 1.591 0.426 1.76 0 3.187-1.427 3.187-3.187s-1.427-3.187-3.187-3.187c-1.176 0-2.204 0.638-2.756 1.586l-0.008 0.015c-0.266 0.455-0.422 1.002-0.422 1.586 0 1.174 0.635 2.2 1.581 2.753l0.015 0.008z"
  />
  <path
    d="M26.853 22.867c-1.571 1.35-3.629 2.172-5.88 2.173h-12c-0.001 0-0.002 0-0.003 0-2.256 0-4.319-0.828-5.902-2.196l0.011 0.010-2.24 2.48c1.416 1.237 3.137 2.162 5.034 2.648l0.086 0.019c-0.389 0.41-0.628 0.966-0.628 1.577 0 0.031 0.001 0.063 0.002 0.094l-0-0.004c0 1.289 1.045 2.333 2.333 2.333s2.333-1.045 2.333-2.333v0c0-0.010 0-0.022 0-0.035 0-0.483-0.144-0.933-0.392-1.308l0.005 0.009h10.773c-0.242 0.366-0.387 0.816-0.387 1.299 0 0.012 0 0.024 0 0.036l-0-0.002c0 1.289 1.045 2.333 2.333 2.333s2.333-1.045 2.333-2.333v0c-0.019-0.658-0.302-1.246-0.746-1.666l-0.001-0.001c1.953-0.481 3.652-1.375 5.070-2.587l-0.017 0.014-1.027-1.333z"
  />
  <path
    d="M23.12 9.827c-0 0-0.001 0-0.001 0-0.27 0-0.523-0.074-0.739-0.204l0.007 0.004-1.693-1.013c-0.285 0.053-0.614 0.084-0.95 0.084-0.979 0-1.897-0.258-2.691-0.711l0.027 0.014c-1.379-0.811-2.364-2.168-2.661-3.766l-0.005-0.034-2.053-1.533c-0.986-0.725-2.224-1.16-3.563-1.16-0.003 0-0.007 0-0.010 0h-4.373v3.333h4.707c0.379 0.004 0.73 0.123 1.019 0.324l-0.006-0.004 2.667 1.92c-0.042 0.038-0.078 0.082-0.105 0.131l-0.001 0.003-1.48 2.56c-0.271 0.464-0.431 1.023-0.431 1.618 0 0.215 0.021 0.426 0.061 0.629l-0.003-0.021v2.853c0 0.004 0 0.008 0 0.013 0 0.477-0.188 0.909-0.494 1.228l-3.946 4.133 2.413 2.293 4-4.173c0.825-0.857 1.333-2.024 1.333-3.309 0-0.008-0-0.017-0-0.025v0.001c0.13 0.018 0.28 0.028 0.433 0.028 0.617 0 1.195-0.169 1.689-0.463l-0.015 0.008 2.573 1.92-2.027 4.133 2.987 1.467 2.147-4.373c0.196-0.388 0.311-0.846 0.311-1.33 0-0.98-0.47-1.85-1.197-2.398l-0.008-0.006-2.76-2 0.387-0.667 1.107 0.653c1.255 0.762 2.771 1.213 4.393 1.213 0.007 0 0.014 0 0.021-0h4.799v-3.373z"
  />
</svg>
