<svg xmlns="http://www.w3.org/2000/svg" viewBox="0 0 32 32">
  <path
    d="M22.48 14.28l-11.813-4.493-8-9.68-2.667 2.133 9.067 10.76-2.253 1.133-4.147-5.227-2.667 2.093 5.053 6.333c0.308 0.384 0.777 0.627 1.303 0.627 0.011 0 0.022-0 0.032-0l-0.002 0c0.272-0.006 0.528-0.069 0.758-0.178l-0.011 0.005 2.2-1.173 7.36 2.787-2.027 1.813c-0.336 0.308-0.545 0.749-0.545 1.239 0 0.181 0.029 0.356 0.082 0.52l-0.003-0.012 1.2 3.64-9.96-3.613-0.907 2.507 17.773 6.507 0.907-2.507-3.867-1.493-1.667-5.093 2.493-2.253c0.325 0.125 0.7 0.198 1.093 0.2h0.001c0.030 0.001 0.066 0.002 0.102 0.002 1.893 0 3.427-1.534 3.427-3.427 0-1.495-0.957-2.766-2.292-3.234l-0.024-0.007z"
  />
  <path
    d="M31.56 15.013c-0.562-0.958-1.586-1.591-2.758-1.591-1.76 0-3.187 1.427-3.187 3.187s1.427 3.187 3.187 3.187c0.583 0 1.13-0.157 1.6-0.43l-0.015 0.008c0.961-0.564 1.597-1.593 1.597-2.769 0-0.585-0.157-1.134-0.432-1.606l0.008 0.015z"
  />
</svg>
