<svg xmlns="http://www.w3.org/2000/svg" viewBox="0 0 32 32">
  <path
    d="M11.164 5.995c0.962-0.567 1.598-1.598 1.598-2.778 0-1.775-1.439-3.213-3.213-3.213s-3.213 1.439-3.213 3.213c0 0.591 0.159 1.144 0.437 1.619l-0.008-0.015c0.562 0.971 1.595 1.614 2.779 1.614 0.598 0 1.157-0.164 1.635-0.449l-0.015 0.008z"
  />
  <path
    d="M24.004 26.262l-3.493-13.333-2.28-4c0.295-0.023 0.639-0.036 0.987-0.036s0.691 0.013 1.032 0.039l-0.045-0.003c0.104-0.003 0.225-0.005 0.347-0.005 2.221 0 4.291 0.648 6.030 1.765l-0.044-0.027 2.187-2.52c-2.053-1.76-5.693-2.48-8.4-2.547-0.125-0.003-0.272-0.005-0.42-0.005-1.514 0-2.982 0.196-4.379 0.565l0.119-0.027c-0.361-0.136-0.778-0.214-1.213-0.214-0.647 0-1.254 0.173-1.777 0.476l0.017-0.009h-0.12c-1.084 0.617-1.803 1.765-1.803 3.080 0 0.648 0.174 1.254 0.478 1.776l-0.009-0.017 2.76 4.773-1 2.493 0.587 2.213-5.56-2.88c-0.746-0.41-1.243-1.19-1.243-2.087 0-0.392 0.095-0.761 0.263-1.086l-0.006 0.013-3.2-1.72c-0.434 0.807-0.689 1.766-0.689 2.785 0 2.288 1.287 4.276 3.177 5.279l0.032 0.016 1.667 0.907 0.773 0.4 9.987 5.253 2.507 1.333 5.92 3.080 1.68-3.2zM17.604 22.862l-1.080-4.093 0.693-1.733 0.907-0.187 1.88 7.307z"
  />
</svg>
