<svg xmlns="http://www.w3.org/2000/svg" viewBox="0 0 258.32 253">
  <g>
    <path
      d="M129.16,54.66c-54.34,0-98.39,27.57-98.39,61.58,0,13.76,7.21,26.46,19.39,36.71l-12,43.4,48.89-24.45c12.77,3.79,27.04,5.91,42.11,5.91,54.34,0,98.39-27.57,98.39-61.58s-44.05-61.58-98.39-61.58Z"
      style="fill: #000"
    />
    <g>
      <path
        class="cls-2"
        d="M161.64,109.34c-.4-2.23,.08-7.23,1.37-9.28,1.29-2.04,3.79-4.43,6.22-5.57,2.44-1.14,4.89-2.07,8.19-2.07,4.2,0,8.16,.44,9.63,1.11,1.98,.51,3.96,1.29,3.96,1.29l-2.25,8.59c-.72-.38-4.41-2.16-9.99-2.34-.81,.02-3.32,.51-3.9,.92-1.26,.96-1.77,1.68-2.22,3.48s.49,2.86,1.8,3.8c1.31,.94,8.56,3.77,9.95,4.31,1.19,.46,6.31,3.16,7.99,8.38s-.79,10.59-1.55,11.72c-1.44,2.16-3.47,3.84-6.08,5.04-2.61,1.2-5.56,1.8-8.86,1.8-4.58,0-12.19-.93-15.22-2.81,.45-.9,2.3-9.13,2.3-9.13,.68,.96,8.33,3.23,11.03,3.23s7.97-.19,7.97-5.19c0-1.95-1.58-4.39-7.76-6.4-4.8-.86-12.22-6.64-12.58-10.87Z"
        style="fill: #fff"
      />
      <path
        class="cls-2"
        d="M154.91,140.31h-10.67l-1.22-35.38-10.64,34.47h-8.54l-9-34.72-1.53,35.63h-10.13l3.06-46.65h14.33l8.34,31.13,9.2-31.13h14.36l2.45,46.65Z"
        style="fill: #fff"
      />
      <path
        class="cls-2"
        d="M95.44,94.89s-5.13-2.7-14.58-2.25c-9.45,.45-13.59,7.11-14.4,10.89-.81,3.78-.36,9.94,4.95,13.45,5.31,3.51,6.4,2.85,8.46,3.93,3.79,.99,7.08,3.42,6.63,6.57-.45,3.15-5.17,4.29-6.97,4.29s-5.6-.41-8.12-1.31-3.69-1.53-3.69-1.53l-2.43,8.82s2.34,1.43,8.37,2.56c6.03,1.13,10.8,1.04,17.1-2.56s6.73-9.61,6.73-12.65c-.34-7.02-6.1-10.85-11.05-12.38-6.15-2.38-10.08-4.41-9.72-7.11-.09-1.79,1.19-4.25,6.59-4.25s9.83,2.03,9.83,2.03l2.3-8.5Z"
        style="fill: #fff"
      />
    </g>
  </g>
</svg>
