<svg xmlns="http://www.w3.org/2000/svg" viewBox="0 0 32 32">
  <path
    d="M5.31 29.345c0 1.466-1.189 2.655-2.655 2.655s-2.655-1.189-2.655-2.655c0-1.466 1.189-2.655 2.655-2.655s2.655 1.189 2.655 2.655z"
  />
  <path
    d="M11.98 29.345c0 1.466-1.189 2.655-2.655 2.655s-2.655-1.189-2.655-2.655c0-1.466 1.189-2.655 2.655-2.655s2.655 1.189 2.655 2.655z"
  />
  <path
    d="M18.655 29.345c0 1.466-1.189 2.655-2.655 2.655s-2.655-1.189-2.655-2.655c0-1.466 1.189-2.655 2.655-2.655s2.655 1.189 2.655 2.655z"
  />
  <path
    d="M25.33 29.345c0 1.466-1.189 2.655-2.655 2.655s-2.655-1.189-2.655-2.655c0-1.466 1.189-2.655 2.655-2.655s2.655 1.189 2.655 2.655z"
  />
  <path
    d="M32 29.345c0 1.466-1.189 2.655-2.655 2.655s-2.655-1.189-2.655-2.655c0-1.466 1.189-2.655 2.655-2.655s2.655 1.189 2.655 2.655z"
  />
  <path
    d="M8.645 22.675c0 1.466-1.189 2.655-2.655 2.655s-2.655-1.189-2.655-2.655c0-1.466 1.189-2.655 2.655-2.655s2.655 1.189 2.655 2.655z"
  />
  <path
    d="M15.32 22.675c0 1.466-1.189 2.655-2.655 2.655s-2.655-1.189-2.655-2.655c0-1.466 1.189-2.655 2.655-2.655s2.655 1.189 2.655 2.655z"
  />
  <path
    d="M21.99 22.675c0 1.466-1.189 2.655-2.655 2.655s-2.655-1.189-2.655-2.655c0-1.466 1.189-2.655 2.655-2.655s2.655 1.189 2.655 2.655z"
  />
  <path
    d="M28.665 22.675c0 1.466-1.189 2.655-2.655 2.655s-2.655-1.189-2.655-2.655c0-1.466 1.189-2.655 2.655-2.655s2.655 1.189 2.655 2.655z"
  />
  <path
    d="M11.98 16c0 1.466-1.189 2.655-2.655 2.655s-2.655-1.189-2.655-2.655c0-1.466 1.189-2.655 2.655-2.655s2.655 1.189 2.655 2.655z"
  />
  <path
    d="M18.655 16c0 1.466-1.189 2.655-2.655 2.655s-2.655-1.189-2.655-2.655c0-1.466 1.189-2.655 2.655-2.655s2.655 1.189 2.655 2.655z"
  />
  <path
    d="M25.33 16c0 1.466-1.189 2.655-2.655 2.655s-2.655-1.189-2.655-2.655c0-1.466 1.189-2.655 2.655-2.655s2.655 1.189 2.655 2.655z"
  />
  <path
    d="M15.32 9.325c0 1.466-1.189 2.655-2.655 2.655s-2.655-1.189-2.655-2.655c0-1.466 1.189-2.655 2.655-2.655s2.655 1.189 2.655 2.655z"
  />
  <path
    d="M21.99 9.325c0 1.466-1.189 2.655-2.655 2.655s-2.655-1.189-2.655-2.655c0-1.466 1.189-2.655 2.655-2.655s2.655 1.189 2.655 2.655z"
  />
  <path
    d="M18.655 2.655c0 1.466-1.189 2.655-2.655 2.655s-2.655-1.189-2.655-2.655c0-1.466 1.189-2.655 2.655-2.655s2.655 1.189 2.655 2.655z"
  />
</svg>
