<svg xmlns="http://www.w3.org/2000/svg" viewBox="0 0 32 32">
  <path
    d="M20.266 7.442c0.459 0.271 1.011 0.431 1.601 0.431 1.76 0 3.186-1.426 3.186-3.186s-1.426-3.186-3.186-3.186c-1.174 0-2.2 0.635-2.752 1.58l-0.008 0.015c-0.268 0.456-0.426 1.005-0.426 1.591 0 1.17 0.631 2.193 1.571 2.747l0.015 0.008z"
  />
  <path
    d="M31.784 18.773l-3.453 0.946c0.065 0.204 0.102 0.439 0.102 0.683 0 1.088-0.745 2.002-1.752 2.26l-0.016 0.003-2.879 0.787-1.92-5.706c-0.635-2.122-2.433-3.697-4.637-3.996l-0.029-0.003 0.787-1.333c1.696 0.951 3.721 1.513 5.877 1.52h0.002c0.001 0 0.002 0 0.003 0 1.882 0 3.665-0.428 5.255-1.191l-0.073 0.032-1.413-3.093c-1.096 0.524-2.382 0.83-3.739 0.83-1.622 0-3.141-0.437-4.448-1.199l0.042 0.023-0.387-0.213c-0.114-1.172-0.792-2.164-1.756-2.71l-0.017-0.009-0.133-0.080c-0.502-0.292-1.104-0.464-1.747-0.464-0.563 0-1.094 0.132-1.566 0.367l0.020-0.009c-2.754-0.299-4.88-2.605-4.892-5.411v-0.801h-3.333v0.8c0.010 3.818 2.444 7.066 5.844 8.286l0.062 0.019-2.146 3.719c-0.297 0.511-0.473 1.125-0.473 1.78 0 1.325 0.719 2.483 1.789 3.104l0.017 0.009 3.106 1.786-4.812 7.998-2.826 0.773c-0.16 0.039-0.343 0.062-0.531 0.062-1.051 0-1.939-0.699-2.224-1.658l-0.004-0.016-3.479 0.88c0.713 2.526 2.997 4.345 5.706 4.345 0.56 0 1.101-0.078 1.614-0.223l-0.042 0.010 1.866-0.52 0.826-0.227 10.798-2.933 2.666-0.76 2.293-0.627 1.866-0.52c2.556-0.692 4.405-2.991 4.405-5.722 0-0.568-0.080-1.118-0.23-1.638l0.010 0.042zM18.693 18.773l1.853 5.572-6.492 1.786 2.893-4.799c0.296-0.51 0.471-1.123 0.471-1.776 0-0.994-0.404-1.893-1.057-2.543l-0-0c0.010-0 0.023-0 0.035-0 1.075 0 1.983 0.719 2.267 1.703l0.004 0.017z"
  />
</svg>
