<svg xmlns="http://www.w3.org/2000/svg" viewBox="0 0 32 32">
  <path
    d="M25 10.125c-0.686-0.666-1.44-1.271-2.247-1.8l-0.058-0.035c-0.314-0.22-0.673-0.428-1.050-0.606l-0.045-0.019c-0.28-0.125-0.23-0.18-0.29 0.16-0.060 0.352-0.168 0.668-0.319 0.958l0.009-0.018-0.085 0.14c-0.415-0.32-0.915-0.64-1.365-0.905-0.335-0.205-0.675-0.395-1-0.58-0.161-0.101-0.358-0.16-0.567-0.16-0.082 0-0.163 0.009-0.24 0.027l0.007-0.001c-1.149 0.203-2.175 0.607-3.086 1.176l0.036-0.021c-0.229 0.148-0.425 0.291-0.612 0.444l0.012-0.009c-0.065 0.055-0.075 0.085 0 0.145 0.18 0.145 0.35 0.3 0.54 0.46-0.828 0.304-1.521 0.808-2.043 1.456l-0.007 0.009c0.335 0.050 0.64 0.105 0.945 0.145 0.105 0 0.155 0.040 0.165 0.165 0.176 1.083 0.99 1.936 2.037 2.167l0.018 0.003c0.375 0.069 0.807 0.109 1.248 0.109 0.245 0 0.488-0.012 0.727-0.036l-0.030 0.002c0.185-0.017 0.401-0.026 0.619-0.026 0.649 0 1.278 0.084 1.877 0.243l-0.051-0.011 0.23 0.070s0 0 0.050 0c-0.38-0.43-0.755-0.855-1.17-1.24-0.245-0.235-0.5-0.455-0.76-0.685-0.085-0.071-0.191-0.12-0.307-0.135l-0.003-0c-0.278-0.045-0.599-0.070-0.925-0.070-0.151 0-0.301 0.005-0.45 0.016l0.020-0.001c-0.005 0-0.011 0-0.017 0-0.492 0-0.956-0.118-1.365-0.328l0.017 0.008c-0.299-0.15-0.548-0.297-0.786-0.457l0.026 0.017c0.563-0.542 1.283-0.925 2.084-1.076l0.026-0.004c0.002-0 0.004-0 0.006-0 0.137 0 0.264 0.039 0.372 0.107l-0.003-0.002c0.61 0.212 1.139 0.484 1.622 0.819l-0.022-0.014c0.095 0.065 0.145 0.050 0.23-0.025 0.289-0.267 0.67-0.438 1.091-0.46l0.004-0c-0.145 0.173-0.269 0.371-0.364 0.584l-0.006 0.016c-0.041 0.114-0.069 0.247-0.080 0.385l-0 0.005c-0.001 0.011-0.001 0.024-0.001 0.037 0 0.143 0.060 0.272 0.156 0.363l0 0c0.594 0.548 1.143 1.118 1.657 1.718l0.023 0.027c0.025 0.040 0.069 0.066 0.119 0.066 0.030 0 0.059-0.010 0.082-0.026l-0 0c0.337-0.157 0.729-0.258 1.142-0.28l0.008-0c0.164-0.020 0.354-0.031 0.546-0.031 0.519 0 1.020 0.083 1.488 0.236l-0.034-0.010 0.19 0.075 0.035 0.035h0.030s0 0-0.035 0 0-0.045 0-0.065c-0.453-0.505-0.944-0.958-1.474-1.361l-0.026-0.019c-0.206-0.158-0.374-0.355-0.495-0.58l-0.005-0.010c-0.209-0.38-0.431-0.707-0.679-1.012l0.009 0.012c0.040-0.045 0.075 0 0.11 0 0.366 0.156 0.681 0.354 0.96 0.594l-0.005-0.004c0.085 0.070 0.125 0.060 0.19 0 0.185-0.209 0.423-0.367 0.694-0.452l0.011-0.003c0.023-0.012 0.051-0.019 0.080-0.019 0.054 0 0.103 0.025 0.135 0.064l0 0c0.208 0.214 0.358 0.486 0.423 0.789l0.002 0.011c0.005 0.019 0.008 0.040 0.008 0.063 0 0.081-0.041 0.153-0.103 0.197l-0.001 0.001-0.275 0.235 1.025 1.115 0.11-0.815c1.125 1.535 1.987 3.34 2.477 5.294l0.023 0.106c0.198 0.849 0.311 1.824 0.311 2.826 0 1.587-0.284 3.108-0.805 4.514l0.029-0.090-1.090-1.21c-0.046 0.129-0.073 0.279-0.075 0.434v0.001c-0.241 1.92-0.967 3.636-2.049 5.066l0.019-0.026c-0.759 0.99-1.651 1.83-2.66 2.51l-0.040 0.025c-0.17 0.115-0.17 0.115-0.215-0.080-0.135-0.53-0.265-1.060-0.4-1.605-0.295 0.21-0.64 0.429-0.995 0.629l-0.059 0.031c-1.058 0.599-2.292 1.039-3.602 1.247l-0.063 0.008c-0.464 0.084-0.998 0.131-1.543 0.131-1.551 0-3.012-0.387-4.291-1.070l0.049 0.024c-0.073-0.026-0.124-0.094-0.124-0.175 0-0.025 0.005-0.050 0.014-0.072l-0 0.001c0.175-0.825 0.31-1.655 0.405-2.5 0.054-0.443 0.084-0.956 0.084-1.476 0-0.398-0.018-0.791-0.053-1.179l0.004 0.050c-0.079-0.886-0.247-1.701-0.497-2.48l0.022 0.080-0.5 0.725c-0.713 1.032-1.467 1.935-2.295 2.765l0-0c-0.309 0.307-0.635 0.598-0.976 0.871l-0.024 0.019c-0.13 0.105-0.16 0.050-0.215-0.055-0.282-0.537-0.513-1.159-0.66-1.814l-0.010-0.051c-0.185-0.789-0.313-1.713-0.359-2.659l-0.001-0.036c-0.015-0.277-0.023-0.601-0.023-0.926 0-0.596 0.028-1.186 0.084-1.768l-0.006 0.074c0.035-0.429 0.105-0.824 0.211-1.205l-0.011 0.045-2.315 0.72c-0.040-1.28 0.96-4.73 2.765-6.845-0.162-0.045-0.355-0.082-0.554-0.104l-0.016-0.001c-0.245-0.050-0.5-0.080-0.735-0.11-0.12 0-0.12-0.065-0.070-0.16 0.51-1.001 1.083-1.864 1.743-2.652l-0.018 0.022c0.691-0.839 1.461-1.572 2.31-2.205l0.035-0.025s0.045-0.075 0.095-0.030v0c-0.187 0.38-0.297 0.828-0.297 1.302 0 0.635 0.197 1.223 0.534 1.708l-0.007-0.010c0.211 0.298 0.486 0.537 0.807 0.699l0.013 0.006c0-0.001 0-0.002 0-0.003 0-0.066-0.025-0.126-0.065-0.172l0 0c-0.272-0.509-0.431-1.112-0.431-1.753 0-0.103 0.004-0.204 0.012-0.305l-0.001 0.013c0.001-0.715 0.454-1.324 1.088-1.556l0.012-0.004c0.166-0.048 0.357-0.075 0.555-0.075 0.391 0 0.757 0.108 1.069 0.296l-0.009-0.005c0.13 0.065 0.245 0.145 0.38 0.205-0.275-0.795-0.964-1.379-1.803-1.499l-0.012-0.001c0.685-0.363 1.486-0.69 2.322-0.936l0.093-0.024c1.198-0.344 2.575-0.543 3.998-0.543 0.168 0 0.335 0.003 0.501 0.008l-0.024-0.001c0.609 0.035 1.151 0.294 1.55 0.695l0 0c0.364 0.309 0.691 0.636 0.99 0.988l0.010 0.012c0.030 0.030 0.045 0.085 0.105 0.080-0.023-0.526-0.148-1.018-0.355-1.464l0.010 0.024c0.389 0.077 0.724 0.172 1.048 0.29l-0.048-0.015c1.053 0.34 1.966 0.839 2.762 1.478l-0.017-0.013c0.224 0.168 0.375 0.424 0.4 0.716l0 0.004c0.136 0.751 0.363 1.422 0.675 2.043l-0.020-0.043 0.075 0.175zM23.21 16.405c0-0.26 0-0.5 0-0.77 0-0.1-0.030-0.145-0.13-0.185-0.545-0.212-1.015-0.481-1.438-0.81l0.013 0.010c-0.054-0.041-0.121-0.065-0.195-0.065-0.028 0-0.056 0.004-0.082 0.011l0.002-0.001c-0.182 0.040-0.333 0.083-0.48 0.134l0.030-0.009c-1.203 0.441-2.241 1.044-3.153 1.795l0.018-0.015c-0.075 0.055-0.060 0.105-0.025 0.175q0.69 1.29 1.37 2.58c0.028 0.068 0.094 0.114 0.17 0.115h0c0.040 0.003 0.088 0.004 0.135 0.004 0.312 0 0.609-0.064 0.879-0.18l-0.015 0.006c1.095-0.483 2.037-1.101 2.859-1.848l-0.009 0.008c0.047-0.040 0.076-0.098 0.076-0.164 0-0.007-0-0.015-0.001-0.022l0 0.001c-0.030-0.25-0.025-0.51-0.025-0.77zM22.985 21.405c0.147 0.515 0.231 1.107 0.231 1.718 0 0.099-0.002 0.198-0.007 0.296l0-0.014 0.12-0.065 0.205-0.16c0.654-0.587 1.129-1.362 1.339-2.24l0.006-0.030c0.040-0.092 0.063-0.199 0.063-0.311 0-0.067-0.008-0.132-0.024-0.195l0.001 0.006c-0.153-0.46-0.365-0.86-0.633-1.216l0.008 0.011c-0.037-0.047-0.094-0.076-0.157-0.076-0.008 0-0.016 0-0.024 0.001l0.001-0h-1.13c-0.078 0.002-0.148 0.034-0.2 0.085l0-0c-0.421 0.351-0.888 0.682-1.381 0.973l-0.049 0.027c-0.36 0.239-0.783 0.414-1.239 0.497l-0.020 0.003c-0.15 0-0.135 0.065-0.080 0.165 0.265 0.5 0.53 1 0.785 1.5 0.050 0.090 0.085 0.11 0.185 0.080 0.78-0.202 1.457-0.568 2.021-1.060l-0.006 0.005zM25.5 14.645c-0.337 0.284-0.711 0.553-1.105 0.792l-0.040 0.023c-0.073 0.037-0.122 0.111-0.122 0.197 0 0.010 0.001 0.020 0.002 0.029l-0-0.001c0 0.5 0 0.975 0 1.465-0 0.007-0.001 0.016-0.001 0.025 0 0.135 0.058 0.256 0.15 0.34l0 0c0.412 0.4 0.766 0.858 1.049 1.36l0.016 0.030c0.030 0.096 0.080 0.178 0.145 0.245l-0-0c0.71-1.52 0.485-3.005-0.095-4.505z"
  />
  <path
    d="M8.54 2.735c0.065-0.040 0.105 0 0.15 0.035 0.798 0.395 1.485 0.843 2.114 1.36l-0.019-0.015c0.048 0.040 0.102 0.079 0.158 0.116l0.007 0.004-0.5-3.19c0.45 0.305 0.865 0.595 1.28 0.885 0.655 0.45 1.305 0.9 1.95 1.36 0.115 0.080 0.15 0.060 0.195-0.065q0.5-1.545 1.045-3.090c0.009-0.043 0.028-0.080 0.055-0.11l-0 0c0.425 0.685 0.845 1.37 1.27 2.050 0.17 0.28 0.35 0.555 0.5 0.84 0.055 0.090 0.085 0.11 0.17 0q0.735-0.825 1.5-1.64l1.165-1.275 0.225 3.23c0.225-0.265 0.42-0.5 0.635-0.76 0.413-0.469 0.863-0.885 1.352-1.253l0.023-0.017c0.030 0.055 0 0.095-0.035 0.135-0.329 0.755-0.573 1.631-0.69 2.547l-0.005 0.048c-0.040 0.265-0.075 0.535-0.105 0.805 0 0.13-0.1 0.060-0.14 0.050-0.293-0.097-0.671-0.195-1.056-0.273l-0.069-0.012c-0.723-0.13-1.555-0.205-2.404-0.205-0.127 0-0.253 0.002-0.379 0.005l0.019-0c-1.252 0.018-2.455 0.199-3.598 0.524l0.098-0.024c-1.165 0.32-2.182 0.745-3.127 1.28l0.067-0.035c-0.13 0.070-0.185 0.085-0.24-0.085-0.334-1.043-0.765-1.948-1.298-2.782l0.028 0.047c-0.105-0.165-0.22-0.32-0.33-0.5z"
  />
  <path d="M21.815 1.2v0 0 0z" />
  <path d="M22.36 10.38v0 0z" />
  <path d="M25 10.105s0 0.040 0 0.040 0 0-0.025 0z" />
  <path d="M9.11 7.795v-0.025z" />
  <path d="M8.545 2.73v0z" />
</svg>
