<svg xmlns="http://www.w3.org/2000/svg" viewBox="0 0 32 32">
  <path
    d="M19.37 0c-0.854 0.321-1.591 0.713-2.268 1.187l0.033-0.022c-0.18 0.13-0.35 0.265-0.565 0.43 1.412 0.418 2.624 0.911 3.774 1.506l-0.119-0.056c-0.85 0.035-1.7 0.035-2.545 0.11s-1.76 0.165-2.64 0.245c-0.13 0.010-0.239 0.088-0.294 0.198l-0.001 0.002c-0.641 1.005-1.141 2.175-1.435 3.423l-0.015 0.077c-0.025 0.11-0.050 0.22-0.085 0.36-0.339-0.331-0.652-0.686-0.938-1.061l-0.017-0.024c-0.457-0.548-0.873-1.163-1.226-1.816l-0.029-0.059c-0.105-0.21-0.22-0.225-0.425-0.16-1.42 0.425-2.605 0.879-3.749 1.407l0.174-0.072c-0.040 0-0.085 0.030-0.19 0.070 0.567-0.72 1.179-1.357 1.847-1.93l0.018-0.015c0.371-0.325 0.777-0.641 1.201-0.932l0.044-0.028c0.125-0.085 0.17-0.14 0.075-0.29-0.261-0.471-0.57-0.876-0.929-1.229l-0.001-0.001c0.275-0.104 0.594-0.174 0.926-0.195l0.009-0c0.532-0.082 1.145-0.128 1.77-0.128 0.341 0 0.68 0.014 1.014 0.041l-0.044-0.003c0.056 0.005 0.122 0.008 0.188 0.008 0.292 0 0.572-0.056 0.828-0.158l-0.015 0.005c1.128-0.423 2.435-0.718 3.794-0.827l0.051-0.003c0.070 0 0.16 0.035 0.205-0.060z"
  />
  <path
    d="M22.34 19.42c-0.84-0.185-1.615-0.345-2.39-0.53-1.13-0.275-2.265-0.55-3.39-0.85-0.040-0.017-0.086-0.027-0.134-0.027-0.147 0-0.273 0.091-0.325 0.219l-0.001 0.002c-0.855 1.365-1.735 2.715-2.5 4.14-0.030 0.050-0.040 0.115-0.125 0.13-0.321-1.146-0.591-2.531-0.757-3.947l-0.013-0.133c-0.055-0.455-0.105-0.91-0.125-1.365 0-0.22-0.145-0.245-0.295-0.295-1.5-0.5-3-1.070-4.47-1.72 0.17-0.123 0.365-0.229 0.572-0.309l0.018-0.006q1.885-0.885 3.84-1.605c0.155-0.029 0.271-0.163 0.271-0.325 0-0.007-0-0.014-0.001-0.021l0 0.001c0.092-1.872 0.373-3.634 0.825-5.327l-0.040 0.177c0.11 0 0.115 0.090 0.145 0.15 0.74 1.3 1.54 2.565 2.38 3.805 0.048 0.098 0.147 0.165 0.262 0.165 0.051 0 0.098-0.013 0.14-0.036l-0.002 0.001c1.83-0.595 3.68-1.12 5.555-1.53l0.18-0.035-0.19 0.255q-1.655 2.145-3.24 4.35c-0.057 0.052-0.092 0.127-0.092 0.21s0.035 0.158 0.092 0.21l0 0c1.184 1.486 2.373 2.813 3.634 4.069l0.002 0.001c0.063 0.055 0.12 0.112 0.173 0.173l0.002 0.002z"
  />
  <path
    d="M29.64 14.285c0.25 1.5 0.38 2.95 0.5 4.445 0.824-0.313 1.504-0.846 1.991-1.527l0.009-0.013c-0.103 0.711-0.278 1.352-0.52 1.957l0.020-0.057c-0.35 0.954-0.789 1.78-1.322 2.533l0.022-0.033c-0.149 0.221-0.25 0.486-0.279 0.773l-0.001 0.007c-0.104 0.915-0.331 1.75-0.667 2.527l0.022-0.057c-0.080 0.175-0.175 0.345-0.28 0.55-0.253-0.327-0.511-0.617-0.789-0.889l-0.001-0.001c-0.47-0.42-0.47-0.425-1-0.085-1.033 0.663-2.231 1.193-3.508 1.526l-0.087 0.019c-0.075 0-0.155 0-0.245 0.040 0-0.135 0.085-0.2 0.14-0.275 0.675-0.92 1.29-1.875 1.885-2.845 0.095-0.16 0.075-0.235-0.065-0.345-1.156-0.954-2.181-1.989-3.093-3.119l-0.032-0.041c0.864 0.132 1.86 0.207 2.874 0.207 0.331 0 0.66-0.008 0.987-0.024l-0.046 0.002c0.32 0 0.64-0.060 0.96-0.075 0.001 0 0.001 0 0.002 0 0.198 0 0.368-0.126 0.432-0.302l0.001-0.003c0.622-1.199 1.295-2.714 1.89-4.267l0.11-0.328z"
  />
  <path
    d="M13.435 22.545c-0.1 0.63-0.195 1.19-0.28 1.75-0.144 0.779-0.265 1.743-0.335 2.72l-0.005 0.090c-0.003 0.016-0.005 0.035-0.005 0.055 0 0.137 0.084 0.255 0.202 0.304l0.002 0.001c1 0.565 2.040 1.085 3.095 1.55 0.040 0 0.1 0 0.1 0.105-0.96 0.085-1.925 0.145-2.895 0.155-0.615 0-0.61 0-0.5 0.625 0.073 0.647 0.249 1.237 0.514 1.777l-0.014-0.032c-0.002 0-0.004 0-0.007 0-0.212 0-0.411-0.054-0.585-0.148l0.006 0.003c-1.22-0.498-2.243-1.261-3.035-2.222l-0.010-0.013c-0.165-0.19-0.395-0.321-0.654-0.359l-0.006-0.001c-1.421-0.241-2.691-0.732-3.82-1.431l0.045 0.026c-0.346-0.216-0.645-0.462-0.908-0.743l-0.002-0.002c0.295 0.049 0.636 0.076 0.983 0.076 0.203 0 0.404-0.010 0.603-0.028l-0.025 0.002c0.574-0.064 1.093-0.171 1.593-0.321l-0.063 0.016c0.21-0.060 0.225-0.13 0.12-0.315-0.557-0.966-1.080-2.094-1.503-3.27l-0.047-0.15c-0.035-0.095-0.065-0.195-0.12-0.355 0.865 0.72 1.685 1.405 2.54 2.040 0.365 0.275 0.74 0.54 1.095 0.82 0.051 0.046 0.118 0.075 0.193 0.075s0.142-0.028 0.193-0.075l-0 0c1.239-0.773 2.314-1.597 3.304-2.513l-0.014 0.013z"
  />
  <path
    d="M31.22 10.345c-0.579-0.383-1.273-0.64-2.020-0.718l-0.020-0.002c0.262 1.165 0.412 2.503 0.412 3.877 0 0.232-0.004 0.462-0.013 0.692l0.001-0.033c-0.095-0.025-0.105-0.11-0.135-0.17-0.904-1.698-1.784-3.12-2.744-4.483l0.089 0.133c-0.074-0.123-0.206-0.203-0.357-0.203-0.019 0-0.037 0.001-0.055 0.004l0.002-0c-1.506 0.077-2.92 0.277-4.29 0.592l0.165-0.032-0.23 0.040c0-0.11 0.065-0.14 0.11-0.19 0.782-0.869 1.52-1.818 2.188-2.819l0.057-0.091c0.049-0.053 0.080-0.124 0.080-0.202 0-0.095-0.045-0.179-0.114-0.233l-0.001-0c-1.091-1.199-2.297-2.261-3.611-3.179l-0.069-0.046c-0.084-0.050-0.157-0.11-0.219-0.179l-0.001-0.001c0.669 0.045 1.291 0.155 1.888 0.325l-0.063-0.015c1.176 0.3 2.201 0.692 3.165 1.185l-0.085-0.040c0.16 0.075 0.24 0.105 0.29-0.125 0.096-0.339 0.151-0.729 0.151-1.131 0-0.13-0.006-0.259-0.017-0.386l0.001 0.016c0.095 0.081 0.182 0.163 0.264 0.249l0.001 0.001c0.761 0.822 1.415 1.76 1.928 2.78l0.032 0.070c0.075 0.152 0.176 0.28 0.298 0.384l0.002 0.001c1.242 1.051 2.24 2.351 2.922 3.826l0.028 0.069z"
  />
  <path
    d="M5.82 22.25c-0.177-0.046-0.331-0.125-0.462-0.232l0.002 0.002c-0.829-0.472-1.539-0.956-2.208-1.491l0.033 0.026c-0.195-0.16-0.26-0.115-0.37 0.085-0.388 0.68-0.704 1.466-0.907 2.297l-0.013 0.063c-0.019 0.073-0.043 0.136-0.073 0.196l0.003-0.006c-0.396-0.891-0.659-1.925-0.733-3.011l-0.002-0.029c-0.017-0.196-0.026-0.424-0.026-0.655s0.010-0.459 0.028-0.685l-0.002 0.030c0.001-0.014 0.002-0.031 0.002-0.047 0-0.126-0.046-0.24-0.123-0.328l0 0.001c-0.334-0.398-0.619-0.852-0.836-1.344l-0.014-0.036c-0.036-0.053-0.057-0.119-0.057-0.189 0-0.138 0.082-0.257 0.2-0.31l0.002-0.001c0.288-0.201 0.617-0.382 0.965-0.527l0.035-0.013c0.202-0.066 0.355-0.228 0.409-0.431l0.001-0.004c0.418-1.238 0.946-2.311 1.593-3.299l-0.033 0.054c0.027-0.042 0.053-0.078 0.081-0.112l-0.001 0.002c0.085 0.765 0.165 1.5 0.245 2.23 0.035 0.28 0 0.645 0.15 0.81s0.5-0.030 0.795-0.070c0.937-0.132 2.048-0.222 3.174-0.249l0.036-0.001c0 0.125-0.125 0.17-0.195 0.23-1.091 0.92-2.072 1.889-2.972 2.932l-0.028 0.033c-0.077 0.078-0.124 0.184-0.124 0.302 0 0.061 0.013 0.118 0.035 0.171l-0.001-0.003c0.388 1.344 0.863 2.505 1.444 3.601l-0.049-0.101c0 0.040 0.055 0.080 0 0.13z"
  />
  <path
    d="M27.090 27.69c-0.688 0.7-1.46 1.312-2.303 1.821l-0.052 0.029c-2.364 1.531-5.251 2.446-8.351 2.46h-0.004c-0.037 0.004-0.081 0.006-0.125 0.006s-0.088-0.002-0.131-0.006l0.006 0c0.951-0.274 1.781-0.651 2.541-1.129l-0.041 0.024c-0.862-0.496-1.607-1.059-2.273-1.703l0.003 0.003c0.715 0.080 1.35 0.135 2 0.165s1.345 0.030 2 0c0.163-0.002 0.308-0.073 0.41-0.184l0-0c0.837-0.821 1.605-1.706 2.298-2.65l0.042-0.060 0.265-0.355c0.2 0.41 0.2 1.39 0 2.87 1.396-0.316 2.625-0.772 3.772-1.366l-0.087 0.041z"
  />
  <path
    d="M3.305 12.18c-0.438-0.587-0.844-1.25-1.187-1.951l-0.033-0.074c-0.624 0.758-1.206 1.603-1.714 2.497l-0.046 0.088c0.719-3.84 2.769-7.108 5.642-9.38l0.033-0.025c-0.501 0.778-0.972 1.676-1.363 2.615l-0.042 0.115c0.667-0.157 1.442-0.259 2.236-0.285l0.019-0-0.3 0.22c-0.982 0.739-1.844 1.459-2.668 2.221l0.023-0.021c-0.097 0.102-0.164 0.234-0.185 0.381l-0 0.004c-0.12 0.481-0.225 1.076-0.294 1.683l-0.006 0.067c-0.065 0.59-0.090 1.165-0.115 1.845z"
  />
  <path d="M31.25 10.31c0 0.025 0 0.060 0 0.065s-0.040 0-0.045-0.030z" />
  <path d="M5.815 22.255h0.040v0.035-0.040z" />
  <path d="M27.050 27.655c0.030-0.025 0.055-0.045 0.085 0l-0.045 0.040z" />
</svg>
