<svg xmlns="http://www.w3.org/2000/svg" viewBox="0 0 32 32">
  <path
    d="M16.14 0.095c0.24 0.13 0.5 0.060 0.76 0.105 0.502 0.096 0.931 0.211 1.347 0.351l-0.072-0.021c0.2 0.070 0.19 0.16 0.055 0.285-0.195 0.18-0.417 0.335-0.658 0.457l-0.017 0.008c-1.262 0.681-2.766 1.346-4.323 1.898l-0.232 0.072c-1.949 0.775-4.349 1.524-6.813 2.106l-0.372 0.074c-0.385 0.092-0.842 0.161-1.308 0.194l-0.027 0.001c-0.125 0-0.28 0-0.345-0.115s0.060-0.22 0.13-0.31c0.545-0.633 1.147-1.192 1.805-1.679l0.030-0.021c0.1-0.080 0.145-0.035 0.215 0 0.148 0.13 0.343 0.209 0.556 0.209 0.102 0 0.199-0.018 0.29-0.051l-0.006 0.002c1.45-0.4 2.905-0.77 4.36-1.15 0.662-0.218 1.222-0.459 1.758-0.74l-0.063 0.030c0.895-0.385 1.79-0.8 2.695-1.205-0.26-0.159-0.564-0.279-0.887-0.342l-0.018-0.003c0.215-0.16 0.5 0 0.715-0.155z"
  />
  <path
    d="M20.58 7.695c-1.71 0.038-3.351 0.249-4.932 0.617l0.162-0.032c-0.127 0.021-0.232 0.102-0.284 0.213l-0.001 0.002c-0.813 1.505-1.538 3.259-2.080 5.092l-0.050 0.198c-0.013 0.041-0.020 0.087-0.020 0.136 0 0.072 0.017 0.141 0.047 0.202l-0.001-0.003c0.838 1.822 1.946 3.376 3.292 4.687l0.003 0.003c0.16 0.155 0.33 0.1 0.5 0.085 0.61-0.065 0.625-0.075 0.715 0.53 0.125 0.865 0.225 1.73 0.295 2.6 0 0.145 0 0.185-0.165 0.155-2.397-0.412-4.424-1.744-5.741-3.612l-0.019-0.028c-0.857-1.205-1.431-2.667-1.597-4.251l-0.003-0.039c-0.058-0.374-0.091-0.806-0.091-1.246 0-1.79 0.546-3.452 1.48-4.829l-0.019 0.030c1.345-2.114 3.575-3.561 6.155-3.822l0.035-0.003c0.239-0.025 0.516-0.040 0.797-0.040 1.789 0 3.441 0.587 4.774 1.58l-0.021-0.015c1.993 1.369 3.368 3.515 3.686 5.992l0.004 0.043c0.087 0.467 0.137 1.005 0.137 1.555 0 2.606-1.122 4.949-2.91 6.574l-0.007 0.007c-0.71 0.652-1.537 1.192-2.443 1.583l-0.057 0.022c-0.22 0.095-0.255 0.040-0.265-0.18-0.025-0.986-0.106-1.928-0.24-2.853l0.015 0.128c-0.040-0.255-0.030-0.43 0.315-0.415 0.003 0 0.006 0 0.010 0 0.382 0 0.71-0.23 0.853-0.559l0.002-0.006c0.886-1.375 1.558-2.981 1.923-4.701l0.017-0.094c0.014-0.059 0.021-0.126 0.021-0.195 0-0.155-0.039-0.302-0.109-0.429l0.002 0.005c-0.859-1.691-1.888-3.145-3.094-4.43l0.009 0.010c-0.132-0.176-0.34-0.289-0.574-0.289-0.050 0-0.098 0.005-0.145 0.015l0.005-0.001c-0.077 0.009-0.166 0.013-0.256 0.013-0.045 0-0.091-0.001-0.135-0.004l0.006 0z"
  />
  <path
    d="M0.26 12.755c0.1-0.397 0.227-0.741 0.384-1.068l-0.014 0.033c0.25-0.615 0.588-1.144 1.004-1.599l-0.004 0.004c0.352-0.444 0.891-0.726 1.496-0.726 0.329 0 0.639 0.084 0.909 0.23l-0.010-0.005c0.918 0.467 1.662 1.162 2.177 2.011l0.013 0.024c0.925 1.393 1.584 3.044 1.861 4.821l0.009 0.069c0.143 0.828 0.225 1.782 0.225 2.754 0 0.694-0.042 1.379-0.123 2.052l0.008-0.081c-0.11 1.295-0.467 2.484-1.025 3.552l0.025-0.052c-0.123 0.226-0.249 0.419-0.388 0.601l0.008-0.011c-0.76 1-1.825 1.105-2.91 0.685s-1.66-1.32-2.155-2.35c0.4 0.070 0.861 0.11 1.331 0.11 0.361 0 0.717-0.024 1.065-0.069l-0.041 0.004c0.022-0.001 0.047-0.002 0.072-0.002s0.051 0.001 0.076 0.002l-0.003-0c0.95-0.18 0.955-0.175 1.145-1.185 0.255-1.346 0.435-2.934 0.498-4.552l0.002-0.063c0.002-0.039 0.003-0.084 0.003-0.13 0-0.457-0.095-0.892-0.266-1.286l0.008 0.021c-0.691-1.738-1.552-3.239-2.593-4.595l0.033 0.045c-0.051-0.089-0.145-0.148-0.253-0.148-0.041 0-0.079 0.008-0.114 0.023l0.002-0.001c-0.851 0.223-1.588 0.5-2.287 0.842l0.072-0.032c-0.070 0.030-0.13 0.095-0.24 0.070z"
  />
  <path
    d="M23.62 30.13c0.074-0.444 0.121-0.963 0.13-1.49l0-0.010c0.013-0.081 0.020-0.174 0.020-0.269 0-0.234-0.044-0.458-0.124-0.664l0.004 0.012c-0.15-0.22-0.55-0.17-0.845-0.235-1.307-0.303-2.943-0.576-4.607-0.758l-0.198-0.017c-0.010-0.001-0.022-0.001-0.035-0.001-0.080 0-0.155 0.017-0.224 0.047l0.003-0.001c-1.977 0.696-3.689 1.566-5.261 2.627l0.081-0.052c-0.094 0.048-0.157 0.144-0.157 0.254 0 0.029 0.004 0.056 0.012 0.083l-0.001-0.002c0.136 0.817 0.398 1.55 0.768 2.215l-0.018-0.035c-1.125-0.28-2.195-0.545-2.815-1.595-0.166-0.287-0.263-0.631-0.263-0.999 0-0.574 0.239-1.092 0.623-1.461l0.001-0.001c0.753-0.806 1.686-1.435 2.736-1.824l0.049-0.016c1.844-0.792 3.99-1.253 6.244-1.253 0.108 0 0.215 0.001 0.322 0.003l-0.016-0c1.423 0.009 2.768 0.335 3.972 0.909l-0.057-0.024c0.328 0.158 0.611 0.347 0.864 0.569l-0.004-0.004c0.422 0.352 0.688 0.878 0.688 1.466 0 0.327-0.083 0.635-0.228 0.904l0.005-0.010c-0.4 0.691-0.967 1.245-1.648 1.619l-0.022 0.011z"
  />
  <path
    d="M19.5 16.095c-0.044 0.002-0.096 0.004-0.149 0.004-1.607 0-2.91-1.303-2.91-2.91s1.303-2.91 2.91-2.91c1.541 0 2.802 1.197 2.903 2.712l0 0.009c0.005 0.061 0.007 0.132 0.007 0.203 0 1.552-1.221 2.819-2.756 2.892l-0.007 0z"
  />
  <path
    d="M32 16.205c-0.086 2.789-0.772 5.397-1.934 7.728l0.049-0.108c-0.153 0.323-0.351 0.6-0.59 0.835l-0 0c-0.23 0.215-0.36 0.175-0.41-0.135-0.043-0.37-0.067-0.798-0.067-1.232s0.024-0.863 0.072-1.284l-0.005 0.052c0.070-1.245 0.205-2.5 0.38-3.715 0.265-2.292 0.688-4.353 1.272-6.346l-0.067 0.266c0.069-0.223 0.159-0.417 0.271-0.595l-0.006 0.010c0.080-0.12 0.155-0.135 0.215 0.035 0.327 0.85 0.573 1.839 0.694 2.866l0.006 0.059c0.060 0.545 0.085 1.095 0.12 1.565z"
  />
  <path
    d="M3.32 18.8c0.001 0.035 0.002 0.076 0.002 0.117 0 0.592-0.118 1.157-0.332 1.672l0.011-0.029c-0.074 0.164-0.157 0.306-0.254 0.436l0.004-0.006c-0.17 0.272-0.468 0.45-0.808 0.45-0.253 0-0.483-0.099-0.653-0.26l0 0c-0.494-0.432-0.855-1.006-1.020-1.657l-0.005-0.023c-0.167-0.499-0.264-1.074-0.264-1.672 0-0.537 0.078-1.057 0.224-1.547l-0.010 0.038c0.086-0.279 0.212-0.522 0.374-0.736l-0.004 0.006c0.172-0.275 0.473-0.456 0.817-0.456 0.267 0 0.509 0.109 0.683 0.285l0 0c0.555 0.527 0.945 1.224 1.087 2.008l0.003 0.022c0.090 0.405 0.143 0.871 0.145 1.348v0.002z"
  />
  <path
    d="M17.575 31.905c-0.021 0-0.046 0.001-0.070 0.001-0.48 0-0.943-0.075-1.376-0.214l0.032 0.009c-0.218-0.070-0.407-0.17-0.575-0.298l0.005 0.003c-0.2-0.137-0.33-0.364-0.33-0.622 0-0.167 0.054-0.321 0.147-0.446l-0.001 0.002c0.163-0.26 0.384-0.47 0.646-0.615l0.009-0.005c0.869-0.522 1.917-0.83 3.037-0.83 0.487 0 0.961 0.058 1.414 0.168l-0.041-0.008c0.253 0.058 0.476 0.162 0.67 0.304l-0.005-0.004c0.235 0.137 0.391 0.388 0.391 0.676 0 0.212-0.084 0.404-0.221 0.544l0-0c-0.229 0.276-0.511 0.5-0.83 0.658l-0.015 0.007c-0.838 0.423-1.827 0.67-2.874 0.67-0.004 0-0.008 0-0.011 0h0.001z"
  />
  <path
    d="M22.065 1.47c1.275 0.496 2.376 1.129 3.364 1.902l-0.029-0.022c1.729 1.256 3.146 2.83 4.187 4.648l0.038 0.072c0.035 0.060 0.095 0.105 0.070 0.215-0.691-0.507-1.294-0.999-1.871-1.519l0.021 0.019c-1.875-1.675-3.74-3.365-5.605-5.050-0.076-0.073-0.146-0.149-0.211-0.23l-0.004-0.005z"
  />
  <path
    d="M7.605 2.525c0-0.125 0.1-0.12 0.16-0.155 1.387-0.82 2.998-1.458 4.709-1.826l0.106-0.019c0.051-0.005 0.11-0.007 0.17-0.007s0.119 0.003 0.178 0.008l-0.008-0.001c0.005 0.010 0.009 0.022 0.009 0.035 0 0.032-0.020 0.059-0.048 0.070l-0.001 0c-1.481 0.85-3.203 1.499-5.029 1.853l-0.106 0.017c-0.022 0.002-0.047 0.004-0.072 0.004s-0.051-0.001-0.076-0.004l0.003 0z"
  />
  <path d="M7.6 2.5v0 0z" />
  <path d="M22.025 1.5s-0.055 0-0.030-0.050 0.045 0 0.070 0z" />
</svg>
