<svg xmlns="http://www.w3.org/2000/svg" viewBox="0 0 32 32">
  <path
    d="M16 32c-0.034 0-0.075 0.001-0.115 0.001-3.397 0-6.506-1.233-8.904-3.277l0.019 0.016c-2.807-2.364-4.661-5.78-4.952-9.633l-0.003-0.047c-0.024-0.313-0.038-0.677-0.038-1.045 0-0.914 0.085-1.808 0.247-2.675l-0.014 0.090c0.438-2.298 1.384-4.324 2.718-6.031l-0.023 0.031c0.21-0.275 0.21-0.275 0.365 0.050 0.31 0.645 0.615 1.295 0.925 1.945 0.023 0.042 0.037 0.092 0.037 0.145 0 0.072-0.025 0.139-0.067 0.191l0-0.001c-0.76 1.176-1.327 2.553-1.618 4.031l-0.012 0.074c-0.128 0.632-0.201 1.359-0.201 2.103 0 0.316 0.013 0.628 0.039 0.938l-0.003-0.040c0.375 4.798 3.602 8.754 7.973 10.196l0.082 0.024c0.105 0.035 0.18 0.055 0.205-0.080 0.247-0.975 0.399-2.099 0.42-3.256l0-0.014c-0.044-1.505-0.439-2.909-1.104-4.145l0.024 0.050c-0.687-1.271-1.431-2.366-2.272-3.378l0.027 0.033c-0.044-0.040-0.072-0.097-0.072-0.16 0-0.045 0.014-0.086 0.037-0.121l-0 0.001q2.545-4.615 5.070-9.225c0.37-0.68 0.74-1.365 1.115-2.045 0.030-0.050 0.035-0.135 0.1-0.14s0.090 0.085 0.12 0.145q2.155 3.915 4.3 7.83 0.92 1.685 1.85 3.365c0.039 0.050 0.063 0.114 0.063 0.183 0 0.088-0.038 0.166-0.097 0.221l-0 0c-0.955 1.121-1.788 2.391-2.453 3.759l-0.047 0.106c-0.51 1.074-0.807 2.334-0.807 3.664 0 0.219 0.008 0.435 0.024 0.65l-0.002-0.029c0.083 0.926 0.219 1.763 0.409 2.58l-0.024-0.125c0.030 0.135 0.070 0.17 0.21 0.12 3.586-1.158 6.358-3.92 7.507-7.418l0.023-0.082c0.252-0.733 0.429-1.583 0.498-2.464l0.002-0.036c0.029-0.3 0.045-0.648 0.045-1s-0.016-0.7-0.049-1.044l0.003 0.044c-0.148-1.964-0.771-3.755-1.753-5.296l0.028 0.046c-0.056-0.073-0.089-0.166-0.089-0.267 0-0.066 0.014-0.129 0.040-0.185l-0.001 0.003c0.295-0.72 0.57-1.445 0.855-2.17 0.080-0.2 0.085-0.2 0.22-0.035 0.753 0.926 1.404 1.981 1.909 3.116l0.036 0.089c0.547 1.21 0.932 2.614 1.080 4.088l0.005 0.057c0.046 0.428 0.072 0.924 0.072 1.426 0 0.932-0.090 1.842-0.261 2.724l0.015-0.089c-0.979 5.128-4.647 9.208-9.451 10.762l-0.099 0.028c-1.211 0.4-2.605 0.631-4.053 0.631-0.046 0-0.093-0-0.139-0.001l0.007 0zM16 22.33c2.418-0.001 4.378-1.962 4.378-4.38s-1.961-4.38-4.38-4.38-4.38 1.961-4.38 4.38c0 0.042 0.001 0.084 0.002 0.126l-0-0.006c0.059 2.365 1.99 4.26 4.364 4.26 0.006 0 0.011 0 0.017-0h-0.001z"
  />
  <path
    d="M21.35 27.82c-0.125-0.7-0.265-1.375-0.355-2.060-0.097-0.554-0.152-1.192-0.152-1.843 0-0.073 0.001-0.145 0.002-0.218l-0 0.011c0.046-1.031 0.146-1.994 0.299-2.939l-0.019 0.144c0.027-0.141 0.048-0.312 0.059-0.487l0.001-0.013c0.097-0.423 0.305-0.788 0.59-1.075l-0 0c0.25-0.34 0.5-0.67 0.775-1 0.040-0.047 0.064-0.108 0.064-0.175s-0.024-0.128-0.065-0.175l0 0-0.5-0.92c-0.041-0.071-0.065-0.156-0.065-0.247 0-0.044 0.006-0.086 0.016-0.126l-0.001 0.003c0.325-1.235 0.65-2.47 1-3.69s0.71-2.335 1.060-3.5c0.395-1.295 0.82-2.585 1.23-3.875 0.57-1.78 1.155-3.55 1.775-5.31 0.021-0.101 0.11-0.175 0.215-0.175 0.003 0 0.007 0 0.010 0l-0-0c0.925-0.090 1.835-0.090 2.745-0.15 0.12 0 0.16 0 0.105 0.145-0.26 0.64-0.565 1.26-0.845 1.89-0.57 1.305-1.15 2.6-1.705 3.91q-0.715 1.68-1.395 3.375c-0.5 1.27-1 2.545-1.465 3.83-0.34 0.95-0.68 1.9-1 2.86s-0.64 2-0.905 3.045c-0.275 0.971-0.525 2.172-0.698 3.399l-0.017 0.151c-0.033 0.322-0.052 0.696-0.052 1.074 0 0.247 0.008 0.492 0.024 0.734l-0.002-0.033c0.037 0.857 0.148 1.667 0.327 2.45l-0.017-0.090c0.105 0.5 0.16 0.34-0.265 0.635-0.224 0.171-0.479 0.32-0.752 0.436l-0.023 0.009z"
  />
  <path
    d="M10.65 27.82c0.125-0.7 0.265-1.375 0.355-2.060 0.097-0.554 0.152-1.192 0.152-1.843 0-0.073-0.001-0.145-0.002-0.218l0 0.011c-0.046-1.031-0.146-1.994-0.299-2.939l0.019 0.144c-0.027-0.141-0.048-0.312-0.059-0.487l-0.001-0.013c-0.097-0.423-0.305-0.788-0.59-1.075l0 0c-0.25-0.34-0.5-0.67-0.775-1-0.040-0.047-0.064-0.108-0.064-0.175s0.024-0.128 0.065-0.175l-0 0 0.5-0.92c0.041-0.071 0.065-0.156 0.065-0.247 0-0.044-0.006-0.086-0.016-0.126l0.001 0.003c-0.325-1.235-0.65-2.47-1-3.69s-0.71-2.335-1.060-3.5c-0.395-1.295-0.82-2.585-1.23-3.875-0.585-1.79-1.17-3.56-1.79-5.32-0.021-0.101-0.11-0.175-0.215-0.175-0.003 0-0.007 0-0.010 0l0-0c-0.91-0.080-1.82-0.080-2.73-0.14-0.12 0-0.16 0-0.105 0.145 0.26 0.64 0.565 1.26 0.845 1.89 0.57 1.305 1.15 2.6 1.705 3.91q0.71 1.68 1.395 3.375c0.5 1.27 1 2.545 1.465 3.83 0.34 0.95 0.68 1.9 1 2.86s0.64 2 0.905 3.045c0.275 0.971 0.525 2.172 0.698 3.399l0.017 0.151c0.033 0.322 0.052 0.696 0.052 1.074 0 0.247-0.008 0.492-0.024 0.734l0.002-0.033c-0.037 0.857-0.148 1.667-0.327 2.45l0.017-0.090c-0.105 0.5-0.16 0.34 0.265 0.635 0.224 0.171 0.479 0.32 0.752 0.436l0.023 0.009z"
  />
  <path
    d="M12.55 17.955c0.003-1.906 1.549-3.45 3.455-3.45 1.908 0 3.455 1.547 3.455 3.455s-1.547 3.455-3.455 3.455c-0.012 0-0.025-0-0.037-0h0.002c-1.89-0.006-3.42-1.539-3.42-3.43 0-0.011 0-0.021 0-0.032v0.002z"
  />
  <path d="M12.875 19.725h0.030v-0.030z" />
  <path
    d="M6 0.5l4.5 13 5.5-9.625 5.5 9.625 4.5-13c-3.007 0.565-6.466 0.889-10 0.889s-6.993-0.323-10.349-0.942l0.349 0.053z"
  />
</svg>
