<svg xmlns="http://www.w3.org/2000/svg" viewBox="0 0 32 32">
  <path
    d="M16.55 0c0.008 0.055 0.012 0.119 0.012 0.183 0 0.149-0.023 0.292-0.064 0.427l0.003-0.010c-0.175 1.255-0.285 2.5-0.365 3.78-0.11 1.69-0.13 3.375-0.1 5.065s0.145 3.41 0.32 5.11c0.115 1.13 0.265 2.255 0.46 3.37 0.369 2.147 0.817 3.986 1.375 5.776l-0.085-0.316c0.721 2.343 1.57 4.355 2.591 6.261l-0.091-0.186c0.21 0.395 0.445 0.78 0.665 1.165 0.025 0.050 0.070 0.090 0.065 0.15v0c-0.2-0.040-0.255-0.235-0.365-0.36-0.315-0.355-0.605-0.73-0.895-1.105-0.545-0.7-1.060-1.42-1.565-2.15-0.963-1.387-1.944-3.001-2.829-4.673l-0.126-0.262c-0.255-0.5-0.5-1-0.74-1.5q-0.715-1.44-1.315-2.935c-1.535-3.569-2.936-7.838-3.972-12.247l-0.108-0.543c-0.135-0.585-0.26-1.17-0.405-1.75-0.050-0.185 0-0.255 0.165-0.325 1.5-0.585 2.96-1.185 4.44-1.775l2.61-1.040c0.070-0.030 0.155-0.040 0.205-0.11z"
  />
  <path
    d="M19.065 23.5c-0.095-0.34-0.19-0.675-0.275-1-0.165-0.64-0.335-1.28-0.5-1.925-0.085-0.37-0.145-0.75-0.22-1.125s-0.155-0.755-0.22-1.13c-0.050-0.255-0.060-0.5-0.12-0.775s-0.090-0.61-0.15-0.915-0.045-0.67-0.11-1-0.040-0.575-0.11-0.855c-0.022-0.123-0.037-0.266-0.040-0.412l-0-0.003c-0.123-1.428-0.193-3.091-0.193-4.769 0-0.795 0.016-1.586 0.047-2.374l-0.004 0.113c0.107-2.484 0.415-4.829 0.91-7.104l-0.050 0.274c0.045-0.205 0.050-0.205 0.235-0.1 1.535 0.875 3.065 1.755 4.6 2.625 0.135 0.075 0.14 0.14 0.075 0.27-0.99 1.963-1.891 4.273-2.576 6.675l-0.069 0.285c-0.355 1.245-0.645 2.5-0.88 3.78-0.13 0.695-0.235 1.4-0.31 2.105s-0.14 1.38-0.185 2.070c-0.034 0.519-0.053 1.125-0.053 1.736 0 0.445 0.010 0.887 0.031 1.327l-0.002-0.062c0.023 0.775 0.097 1.513 0.218 2.235l-0.013-0.095c0 0.060 0 0.125 0 0.185z"
  />
  <path
    d="M1.365 19.175c-0.055-0.28-0.040-0.57-0.095-0.85 0-0.115 0-0.235 0-0.35-0.018-0.274-0.028-0.594-0.028-0.917 0-4.942 2.409-9.322 6.116-12.029l0.042-0.029c0.135-0.105 0.165-0.065 0.215 0.080 0.019 0.043 0.030 0.092 0.030 0.145 0 0.137-0.076 0.257-0.188 0.319l-0.002 0.001c-1.479 1.252-2.653 2.818-3.424 4.599l-0.031 0.081c-0.76 1.647-1.268 3.561-1.417 5.575l-0.003 0.055c-0.029 0.358-0.046 0.775-0.046 1.195 0 3.028 0.864 5.854 2.359 8.245l-0.038-0.065c0.697 1.146 1.507 2.132 2.436 2.992l0.009 0.008c0.912 0.85 1.969 1.561 3.127 2.090l0.073 0.030c0.15 0.065 0.18 0.135 0.14 0.27-0.011 0.034-0.022 0.076-0.029 0.12l-0.001 0.005c0 0.15-0.095 0.145-0.205 0.1-0.95-0.405-1.76-0.845-2.523-1.351l0.058 0.036c-0.553-0.358-1.033-0.724-1.483-1.121l0.013 0.011c-0.405-0.355-0.8-0.72-1.17-1.115-0.599-0.64-1.154-1.339-1.648-2.081l-0.037-0.059c-0.433-0.662-0.844-1.426-1.191-2.224l-0.039-0.101c-0.304-0.708-0.583-1.557-0.793-2.433l-0.022-0.111c-0.070-0.37-0.135-0.745-0.205-1.12z"
  />
  <path
    d="M31.065 16.94c0 0.023 0 0.050 0 0.078 0 2.010-0.391 3.929-1.102 5.684l0.036-0.102c-0.631 1.555-1.453 2.896-2.457 4.076l0.017-0.021c-1.189 1.406-2.607 2.575-4.203 3.461l-0.077 0.039c-0.225 0.125-0.24-0.055-0.315-0.165s-0.070-0.19 0.070-0.27c0.721-0.399 1.343-0.838 1.913-1.336l-0.013 0.011c0.398-0.345 0.76-0.7 1.101-1.074l0.009-0.011c0.457-0.502 0.879-1.054 1.251-1.641l0.029-0.049c0.504-0.775 0.963-1.666 1.33-2.604l0.035-0.101c0.302-0.756 0.564-1.654 0.74-2.581l0.015-0.094c0.080-0.425 0.165-0.855 0.21-1.28 0.051-0.343 0.081-0.741 0.085-1.146l0-0.004c0-0.27 0.050-0.54 0.035-0.81-0.035-0.54-0.060-1.085-0.105-1.625-0.197-2.177-0.812-4.172-1.766-5.959l0.041 0.084c-0.891-1.775-2.148-3.246-3.681-4.361l-0.034-0.024c-0.055-0.040-0.155-0.070-0.12-0.165 0.031-0.133 0.094-0.247 0.18-0.34l-0 0c0.040-0.035 0.090 0 0.13 0.050 3.289 2.213 5.623 5.631 6.375 9.607l0.015 0.093c0.141 0.762 0.233 1.652 0.255 2.559l0 0.021z"
  />
  <path
    d="M13.055 19.11c0.15 0.34 0.305 0.675 0.44 1 0.538 1.279 1.041 2.824 1.422 4.417l0.043 0.213q0.35 1.47 0.59 2.965c0.135 0.855 0.245 1.715 0.335 2.575 0.055 0.5 0.075 1 0.14 1.5 0 0.13-0.035 0.205-0.17 0.195-0.32 0-0.635-0.055-0.95-0.070s-0.5-0.050-0.76-0.080c-0.345-0.035-0.68-0.105-1-0.17-0.179-0.052-0.41-0.105-0.645-0.144l-0.040-0.006c-0.2 0-0.185-0.14-0.15-0.255 0.080-0.245 0.125-0.5 0.185-0.75 0.135-0.565 0.23-1.13 0.33-1.7 0.065-0.375 0.12-0.75 0.17-1.125s0.090-0.76 0.125-1.14 0.075-0.675 0.095-1 0.055-0.65 0.055-1 0.045-0.75 0.040-1.125 0-0.815 0-1.225-0.030-0.965-0.075-1.445-0.12-1.105-0.18-1.66z"
  />
  <path
    d="M17.445 31.925h-0.195c-0.065 0-0.11-0.030-0.105-0.1-0.006-0.238-0.032-0.465-0.074-0.686l0.004 0.026c-0.045-0.295-0.065-0.59-0.115-0.885s-0.125-0.66-0.18-1c-0.085-0.5-0.195-1-0.295-1.5s-0.19-0.945-0.3-1.415-0.21-1.065-0.375-1.59c0 0 0-0.075 0-0.080s0.070 0.035 0.090 0.070l0.5 0.91c0.851 1.477 1.678 2.723 2.572 3.915l-0.072-0.1c0.475 0.644 0.935 1.206 1.422 1.744l-0.017-0.019c0.13 0.145 0 0.185-0.070 0.21-0.22 0.070-0.445 0.11-0.665 0.165-0.53 0.125-1.065 0.21-1.605 0.285-0.165 0.025-0.345 0.035-0.52 0.050z"
  />
  <path d="M21.335 30.775v0 0-0.030z" />
  <path d="M21.39 30.87v-0.010h0.010l-0.010 0.010z" />
</svg>
