<svg xmlns="http://www.w3.org/2000/svg" viewBox="0 0 32 32">
  <path
    d="M21.59 29.155l-3.395-5.055c-0.22-0.33-0.225-0.325-0.56-0.115-1.115 0.742-2.485 1.184-3.959 1.184-0.376 0-0.746-0.029-1.106-0.084l0.040 0.005c-0.365-0.056-0.677-0.124-0.983-0.209l0.058 0.014c-0.18-0.045-0.235 0-0.295 0.17-0.013 0.033-0.025 0.073-0.034 0.114l-0.001 0.006q-0.72 2.62-1.445 5.235c-0.070 0.255-0.145 0.5-0.21 0.77-0.045 0.18 0 0.23 0.17 0.29l0.095 0.030c1.132 0.316 2.432 0.499 3.774 0.5h0.001c0.71-0.005 1.403-0.061 2.080-0.165l-0.080 0.010c1.801-0.272 3.421-0.843 4.881-1.667l-0.071 0.037c0.355-0.2 0.705-0.41 1.040-0.645 0.15-0.1 0.16-0.18 0.070-0.33z"
  />
  <path
    d="M16.23 3.74l0.5 3.575c0.050 0.325 0.095 0.645 0.145 0.965 0.030 0.19 0.080 0.225 0.265 0.21h0.125c0.284-0.043 0.612-0.068 0.945-0.068s0.661 0.025 0.981 0.072l-0.036-0.004c1.493 0.191 2.816 0.806 3.875 1.718l-0.009-0.008c0.215 0.18 0.26 0.175 0.445-0.040q2-2.305 4-4.6c0.275-0.32 0.275-0.335-0.050-0.605-2.452-2.094-5.655-3.374-9.157-3.39h-0.003c-0.33 0-0.705 0-1.075 0.050-0.374 0.023-0.717 0.066-1.053 0.128l0.053-0.008c-0.185 0.040-0.22 0.1-0.195 0.28 0.070 0.575 0.16 1.15 0.245 1.725z"
  />
  <path
    d="M1.36 19.050c0.095 0.245 0.145 0.265 0.395 0.175l0.090-0.035 5.28-2.035 0.5-0.2c0.145-0.065 0.17-0.12 0.13-0.275 0-0.065-0.045-0.125-0.065-0.19-0.222-0.569-0.375-1.229-0.428-1.916l-0.002-0.024c-0.016-0.179-0.025-0.388-0.025-0.599 0-1.244 0.313-2.416 0.864-3.44l-0.019 0.039c0.14-0.275 0.13-0.31-0.155-0.46l-1.755-0.945-3.67-1.955c-0.225-0.12-0.28-0.1-0.4 0.11l-0.055 0.11c-1.023 1.911-1.625 4.18-1.625 6.59v0c0 0.005 0 0.012 0 0.018 0 1.195 0.15 2.356 0.431 3.464l-0.021-0.097c0.164 0.661 0.345 1.216 0.561 1.754l-0.031-0.089z"
  />
  <path
    d="M4.675 7.16c0.042 0.029 0.091 0.059 0.142 0.086l0.008 0.004 5.235 3.045c0.34 0.2 0.34 0.2 0.55-0.145 0.992-1.642 2.576-2.841 4.45-3.309l0.050-0.011c0.16-0.045 0.325-0.070 0.5-0.11s0.185-0.080 0.175-0.205l-0.030-0.2c-0.060-0.31-0.12-0.62-0.175-0.93q-0.5-2.57-0.955-5.145c-0.065-0.24-0.125-0.27-0.345-0.24s-0.44 0.085-0.66 0.14c-3.847 0.926-7.011 3.333-8.919 6.569l-0.036 0.066c-0.021 0.031-0.041 0.067-0.058 0.105l-0.002 0.005c-0.060 0.115-0.045 0.195 0.070 0.275z"
  />
  <path
    d="M11.18 23c0.055-0.19 0-0.25-0.17-0.32l-0.21-0.065c-1.925-0.656-3.453-2.042-4.281-3.82l-0.019-0.045c-0.185-0.39-0.185-0.39-0.57-0.225l-4.405 1.915-1.21 0.5c-0.2 0.090-0.22 0.15-0.14 0.35 0.013 0.036 0.026 0.065 0.042 0.094l-0.002-0.004c1.655 3.714 4.754 6.533 8.565 7.777l0.1 0.028 0.175 0.055c0.15 0 0.195-0.035 0.265-0.255q0.835-2.68 1.68-5.355c0.055-0.205 0.12-0.415 0.18-0.63z"
  />
  <path
    d="M31.865 17.855c0.001-0.064 0.002-0.14 0.002-0.216 0-0.679-0.055-1.345-0.161-1.994l0.010 0.071c-0.186-1.179-0.485-2.236-0.895-3.236l0.035 0.096c-0.789-1.944-1.927-3.597-3.349-4.955l-0.006-0.005c-0.205-0.195-0.275-0.195-0.47 0l-4.135 4.385c-0.335 0.35-0.35 0.33 0 0.68 0.944 0.932 1.633 2.12 1.955 3.45l0.010 0.050c0.122 0.508 0.191 1.091 0.191 1.69 0 0.109-0.002 0.217-0.007 0.325l0.001-0.015c0 0.265 0 0.295 0.27 0.305l3.24 0.155 1.245 0.070c0.595 0 1.195 0.055 1.795 0.075 0.205 0 0.255-0.030 0.265-0.235s0.005-0.465 0.005-0.695z"
  />
  <path
    d="M29.565 19.73l-3.065-0.23-2.39-0.19c-0.27 0-0.545-0.045-0.82-0.060s-0.29 0.020-0.29 0.25c0 0.125-0.025 0.25-0.040 0.37-0.226 1.738-1.040 3.254-2.231 4.371l-0.004 0.004c-0.209 0.199-0.434 0.388-0.671 0.562l-0.019 0.013c-0.17 0.13-0.18 0.195-0.055 0.375 0.035 0.055 0.075 0.105 0.115 0.16l3.5 4.83c0.21 0.285 0.245 0.29 0.535 0.070s0.5-0.36 0.7-0.555c2.764-2.361 4.603-5.735 4.936-9.541l0.004-0.054v-0.105c0.035-0.215 0-0.255-0.205-0.27z"
  />
  <path
    d="M10.375 16.195c0 0.003 0 0.006 0 0.010 0 2.949 2.391 5.34 5.34 5.34s5.34-2.391 5.34-5.34c0-2.947-2.388-5.337-5.335-5.34h-0c-0.002 0-0.003 0-0.005 0-2.946 0-5.334 2.385-5.34 5.329v0.001zM15.875 12.52c0.055-0.4 0-0.315 0.355-0.44 0.277-0.090 0.597-0.142 0.928-0.142 0.073 0 0.145 0.002 0.217 0.007l-0.010-0.001c0.060 0 0.125 0.030 0.195 0l-0.355-0.365c0.63 0.035 1.755 0.825 2.46 1.705-0.035 0.055-0.085 0-0.125 0l-0.295-0.155c-0.055 0.090 0 0.15 0.040 0.21 0.132 0.344 0.211 0.742 0.215 1.158v0.002c0.003 0.017 0.005 0.037 0.005 0.057 0 0.15-0.1 0.277-0.238 0.317l-0.002 0.001c-0.29 0.11-0.575 0.255-0.86 0.385-0.101 0.042-0.189 0.094-0.267 0.157l0.002-0.002c0.455-0.090 0.875-0.165 1.3-0.265 0.019-0.006 0.042-0.010 0.065-0.010 0.078 0 0.147 0.042 0.184 0.104l0.001 0.001c0.306 0.386 0.526 0.854 0.627 1.365l0.003 0.020c0.098-0.12 0.182-0.256 0.246-0.404l0.004-0.011c0.003 0.061 0.005 0.132 0.005 0.204 0 1.002-0.347 1.923-0.927 2.649l0.007-0.009c0-0.165 0.075-0.31 0.045-0.47-0.085 0-0.125 0.075-0.18 0.12-0.31 0.248-0.672 0.447-1.065 0.578l-0.025 0.007c-0.030 0.012-0.065 0.020-0.102 0.020-0.092 0-0.173-0.045-0.223-0.114l-0.001-0.001c-0.255-0.285-0.5-0.565-0.775-0.845v0c-0.020-0.049-0.057-0.088-0.104-0.109l-0.001-0.001c-0.025 0.065 0 0.1 0.050 0.14 0.18 0.32 0.345 0.645 0.54 0.955 0.045 0.056 0.072 0.128 0.072 0.206 0 0.091-0.037 0.174-0.097 0.234v0c-0.248 0.327-0.542 0.602-0.877 0.822l-0.013 0.008c-0.053 0.034-0.099 0.067-0.143 0.102l0.003-0.002s0 0 0 0.035l0.455 0.075c-0.446 0.167-0.962 0.263-1.5 0.263s-1.054-0.096-1.531-0.273l0.031 0.010 0.47-0.080c0-0.095-0.070-0.1-0.12-0.13-0.385-0.246-0.705-0.558-0.953-0.924l-0.007-0.011c-0.029-0.036-0.047-0.082-0.047-0.133s0.018-0.097 0.047-0.133l-0 0c0.215-0.37 0.425-0.75 0.61-1.15l-0.24 0.255c-0.205 0.22-0.41 0.435-0.605 0.665-0.051 0.075-0.136 0.124-0.232 0.124-0.041 0-0.080-0.009-0.114-0.024l0.002 0.001c-0.411-0.132-0.767-0.328-1.076-0.58l0.006 0.005-0.155-0.125h-0.055l0.055 0.43c-0.47-0.305-1-1.945-0.94-2.845 0.11 0.15 0.145 0.32 0.255 0.445 0.041-0.056 0.070-0.124 0.080-0.198l0-0.002c0.119-0.45 0.319-0.843 0.585-1.182l-0.005 0.007c0.040-0.061 0.108-0.101 0.185-0.101 0.025 0 0.049 0.004 0.071 0.012l-0.002-0c0.42 0.095 0.845 0.175 1.285 0.26-0.11-0.084-0.238-0.154-0.375-0.202l-0.010-0.003c-0.255-0.12-0.5-0.245-0.77-0.35-0.111-0.031-0.192-0.132-0.192-0.251 0-0.010 0.001-0.020 0.002-0.030l-0 0.001c-0-0.017-0.001-0.037-0.001-0.058 0-0.409 0.075-0.799 0.213-1.16l-0.007 0.022c0.042-0.069 0.069-0.151 0.075-0.238l0-0.002c-0.165 0.030-0.29 0.145-0.45 0.18 0.607-0.85 1.465-1.485 2.466-1.801l0.034-0.009c-0.046 0.085-0.108 0.155-0.183 0.209l-0.002 0.001c-0.057 0.052-0.119 0.102-0.184 0.146l-0.006 0.004c0.065 0.11 0.125 0.065 0.175 0.060 0.056-0.003 0.122-0.005 0.189-0.005 0.388 0 0.762 0.062 1.111 0.177l-0.025-0.007c0.137 0.025 0.24 0.143 0.24 0.286 0 0.003-0 0.007-0 0.010v-0c0 0.325 0.065 0.645 0.105 0.965 0.005 0.080 0.030 0.154 0.071 0.217l-0.001-0.002c-0.010-0.335 0.025-0.69 0.070-1.065z"
  />
  <path
    d="M13.665 15.42c-0.051 0.026-0.085 0.078-0.085 0.138 0 0.024 0.006 0.047 0.015 0.068l-0-0.001q0.38 1.135 0.74 2.275c0.014 0.081 0.084 0.141 0.168 0.141 0.008 0 0.016-0.001 0.023-0.002l-0.001 0h1.175c0.395 0 0.795 0 1.195 0 0.009 0.002 0.020 0.003 0.031 0.003 0.092 0 0.167-0.068 0.179-0.157l0-0.001c0.235-0.745 0.5-1.5 0.725-2.225 0.014-0.025 0.022-0.055 0.022-0.087 0-0.070-0.039-0.131-0.096-0.162l-0.001-0c-0.645-0.46-1.255-0.91-1.915-1.41-0.031-0.031-0.073-0.050-0.12-0.050s-0.089 0.019-0.12 0.050v0q-0.96 0.725-1.935 1.42z"
  />
</svg>
