<svg xmlns="http://www.w3.org/2000/svg" viewBox="0 0 32 32">
  <path
    d="M31.4 3.82c0-0.006 0-0.013 0-0.020 0-0.435-0.347-0.789-0.779-0.8l-0.001-0h-29.24c-0.433 0.011-0.78 0.365-0.78 0.8 0 0.007 0 0.014 0 0.021l-0-0.001v24.18c-0 0.008-0 0.016-0 0.025 0 0.432 0.345 0.784 0.774 0.795l0.001 0h29.25c0.434-0.014 0.78-0.369 0.78-0.805 0-0.005-0-0.011-0-0.016v0.001q-0.010-12.1-0.005-24.18zM25.9 16.82c-0.060 0.044-0.104 0.106-0.124 0.178l-0.001 0.002c-0.025 0.069-0.089 0.117-0.165 0.117-0.031 0-0.060-0.008-0.086-0.022l0.001 0c-0.075-0.040-0.11 0-0.135 0.060-0.012 0.092-0.089 0.162-0.184 0.162-0.036 0-0.069-0.010-0.097-0.028l0.001 0c-0.050 0-0.080 0-0.115 0l-1.080 0.525c-0.050 0-0.095 0.035-0.090 0.125s-0.18 0.175-0.255 0.12-0.14-0.040-0.16 0.075-0.185 0.2-0.27 0.12-0.070 0-0.11 0c-0.033 0.010-0.072 0.015-0.111 0.015-0.22 0-0.4-0.169-0.418-0.384l-0-0.002c0-0.135-0.045-0.275-0.060-0.41 0-0 0-0.001 0-0.001 0-0.117-0.090-0.213-0.204-0.224l-0.001-0c-0.533-0.108-1.145-0.17-1.772-0.17-0.031 0-0.062 0-0.093 0l0.005-0c-0.24 0.020-0.518 0.032-0.8 0.032s-0.56-0.012-0.836-0.034l0.036 0.002c-0.36-0.031-0.684-0.157-0.956-0.354l0.006 0.004c-0.206-0.156-0.466-0.25-0.749-0.25-0.011 0-0.022 0-0.033 0l0.002-0c-0.77 0-1.54-0.035-2.31-0.060-0.090 0-0.15 0-0.16 0.125s-0.070 0.1-0.145 0.1c-0.82 0-1.645 0-2.465 0h-1.56l0.5 0.27c0.071 0.027 0.12 0.094 0.12 0.173 0 0.001 0 0.001 0 0.002v-0c0.055 0.565 0.11 1.13 0.175 1.695 0 0.095 0 0.135-0.1 0.14s-0.105 0.065-0.1 0.16c0.080 0.78 0.115 1.56 0.125 2.345 0.001 0.015 0.001 0.033 0.001 0.051 0 0.368-0.185 0.693-0.468 0.887l-0.004 0.002c-0.215 0.152-0.463 0.307-0.721 0.446l-0.039 0.019c-0.055 0.030-0.115 0.045-0.070 0.14s-0.050 0.1-0.1 0.125c-0.635 0.32-1.29 0.575-1.945 0.83-1.056 0.362-1.92 0.724-2.757 1.133l0.142-0.063c-0.667 0.324-1.224 0.779-1.657 1.335l-0.008 0.010c-0.081 0.111-0.16 0.239-0.231 0.372l-0.009 0.018c-0.042 0.092-0.132 0.154-0.237 0.154-0.035 0-0.069-0.007-0.099-0.020l0.002 0.001c-0.13-0.035-0.225-0.151-0.225-0.29 0-0.002 0-0.003 0-0.005v0c0-0.145 0.050-0.295-0.075-0.43-0.018-0.030-0.029-0.065-0.029-0.104 0-0.060 0.027-0.114 0.069-0.151l0-0c0.062-0.063 0.101-0.15 0.101-0.246 0-0.043-0.008-0.084-0.022-0.122l0.001 0.002c-0.013-0.027-0.020-0.060-0.020-0.094 0-0.092 0.055-0.171 0.134-0.206l0.001-0.001c0.018-0.008 0.033-0.020 0.045-0.035l0-0c0.185-0.303 0.368-0.563 0.566-0.81l-0.011 0.015c0.055-0.085 0.115-0.155 0.065-0.285-0.004-0.016-0.007-0.034-0.007-0.053 0-0.083 0.049-0.155 0.121-0.187l0.001-0.001c0.059-0.024 0.1-0.082 0.1-0.148 0-0.024-0.005-0.047-0.015-0.068l0 0.001c-0.003-0.014-0.005-0.030-0.005-0.046 0-0.099 0.061-0.184 0.148-0.218l0.002-0.001s0.050 0 0.060 0c0.24-0.225 0.465-0.125 0.705 0 0.151 0.097 0.336 0.155 0.535 0.155 0.301 0 0.571-0.133 0.754-0.344l0.001-0.001c0.47-0.445 0.925-0.91 1.415-1.335 0.303-0.281 0.646-0.524 1.019-0.718l0.026-0.012c0.146-0.071 0.315-0.12 0.493-0.139l0.007-0.001c-0.165-0.415-0.325-0.825-0.46-1.24-0.072-0.191-0.139-0.424-0.189-0.663l-0.006-0.032c0-0.1-0.060-0.145-0.15-0.15-0.002 0-0.005 0-0.008 0-0.098 0-0.18-0.071-0.197-0.164l-0-0.001c-0.388-1.251-0.612-2.69-0.612-4.181 0-0.089 0.001-0.179 0.002-0.268l-0 0.013c0-0.085 0-0.175 0.030-0.285l-0.205 0.090c-0.031-0.098-0.049-0.21-0.049-0.326 0-0.061 0.005-0.122 0.014-0.18l-0.001 0.006c0.11-1.411 0.35-2.716 0.709-3.97l-0.034 0.14c0.105-0.38 0.265-0.66 0.655-0.74 0.104-0.028 0.195-0.076 0.271-0.141l-0.001 0.001-0.71-0.055c-0.395-0.035-0.795-0.060-1.19-0.1-0.013-0.002-0.028-0.003-0.043-0.003-0.088 0-0.167 0.038-0.222 0.098l-0 0c-0.69 0.62-1.34 1.22-1.99 1.805-0.18 0.149-0.31 0.354-0.364 0.588l-0.001 0.007c-0.028 0.102-0.086 0.188-0.164 0.249l-0.001 0.001c-0.281 0.29-0.656 0.488-1.076 0.544l-0.009 0.001c-0.040 0.009-0.085 0.014-0.132 0.014-0.092 0-0.179-0.020-0.257-0.056l0.004 0.002c-0.125-0.075-0.13-0.165 0-0.255l0.415-0.325 0.165-0.135c-0.1-0.070-0.145 0-0.19 0-0.119 0.054-0.257 0.094-0.402 0.114l-0.008 0.001c-0.005 0.001-0.010 0.001-0.016 0.001-0.061 0-0.112-0.046-0.119-0.105l-0-0.001c-0.007-0.016-0.011-0.034-0.011-0.053 0-0.056 0.033-0.104 0.080-0.126l0.001-0 0.185-0.080c0.255-0.091 0.464-0.257 0.607-0.471l0.003-0.004c0.117-0.191 0.313-0.323 0.542-0.35l0.003-0c0.080 0 0.105-0.065 0.14-0.115 0.655-0.88 1.315-1.765 2-2.6 0.127-0.172 0.329-0.282 0.556-0.282 0.017 0 0.034 0.001 0.051 0.002l-0.002-0c0.12 0 0.17-0.030 0.175-0.145s0.085-0.145 0.18-0.15c0.56-0.068 1.208-0.107 1.866-0.107 0.359 0 0.714 0.012 1.067 0.034l-0.048-0.002c0.322 0.020 0.622 0.071 0.91 0.152l-0.030-0.007c0.12 0.040 0.165 0.035 0.165-0.115 0-0.001 0-0.001 0-0.002 0-0.272 0.050-0.533 0.14-0.773l-0.005 0.015c0.17-0.598 0.712-1.029 1.354-1.029 0.101 0 0.2 0.011 0.295 0.031l-0.009-0.002c0.541 0.115 0.992 0.437 1.275 0.877l0.005 0.008c0.106 0.137 0.169 0.31 0.169 0.499 0 0.124-0.027 0.241-0.076 0.346l0.002-0.005c-0.073 0.177-0.115 0.383-0.115 0.599 0 0.11 0.011 0.217 0.032 0.321l-0.002-0.010c0.030 0.225 0.055 0.43-0.19 0.55-0.050 0.025-0.080 0.095-0.115 0.15-0.088 0.153-0.176 0.334-0.25 0.521l-0.010 0.029c-0.12 0.29-0.12 0.29-0.43 0.265l-0.455-0.035c-0.010-0.003-0.021-0.005-0.033-0.005-0.055 0-0.1 0.038-0.112 0.089l-0 0.001c-0.455 0.953-0.839 2.065-1.096 3.225l-0.019 0.105c-0.040 0.22-0.040 0.215 0.175 0.25l3.45 0.5c0 0 0 0 0 0 0.073 0 0.132 0.058 0.135 0.13v0c0.003 0.097 0.082 0.175 0.18 0.175 0 0 0 0 0 0v0c0.809 0.123 1.537 0.35 2.213 0.67l-0.048-0.020c0.088 0.033 0.189 0.052 0.296 0.052 0.021 0 0.042-0.001 0.062-0.002l-0.003 0c0.049-0.003 0.105-0.005 0.162-0.005 0.263 0 0.517 0.038 0.756 0.11l-0.019-0.005s0.050 0 0.060 0c0.14-0.15 0.275-0.030 0.4 0 0.76 0.27 1.5 0.64 2.215 0.965 1.176 0.534 2.547 0.856 3.991 0.88l0.009 0c0.194 0 0.385 0.011 0.573 0.032l-0.023-0.002c0.11 0.017 0.201 0.082 0.254 0.173l0.001 0.002c0.026 0.031 0.043 0.072 0.043 0.116 0 0.077-0.048 0.143-0.116 0.168l-0.001 0zM27.975 15.82c-0.027 0.001-0.058 0.002-0.090 0.002-0.994 0-1.8-0.806-1.8-1.8s0.806-1.8 1.8-1.8c0.994 0 1.8 0.806 1.8 1.8 0 0.001 0 0.002 0 0.003v-0c0.001 0.020 0.001 0.043 0.001 0.066 0 0.944-0.748 1.714-1.683 1.749l-0.003 0z"
  />
</svg>
