<svg xmlns="http://www.w3.org/2000/svg" viewBox="0 0 32 32">
  <path d="M15.95 21.63l0.105 0.13-0.050 0.040-0.060-0.165z" />
  <path
    d="M31 0.5c0-0.59-0.33-0.5-0.665-0.5h-14.335c-4.715 0-9.43 0-14.14 0-0.655 0-0.89 0.075-0.86 0.82 0.025 3.68 0 7.38 0 11.070-0.001 0.085-0.002 0.186-0.002 0.286 0 4.567 1.503 8.784 4.040 12.182l-0.038-0.054c0.27 0.365 0.215 0.55-0.085 0.845-1.085 1.045-2.115 2.15-3.22 3.175-0.445 0.415-0.125 0.575 0.115 0.79s0.38 0.67 0.84 0.18c1-1.065 2.075-2.060 3.080-3.12 0.355-0.37 0.5-0.32 0.845 0.030 2.368 2.561 5.367 4.506 8.751 5.59l0.144 0.040c0.159 0.060 0.343 0.095 0.536 0.095 0.146 0 0.287-0.020 0.42-0.057l-0.011 0.003c7.94-2.305 14.12-10.055 14.5-18.31 0.21-4.36 0.035-8.725 0.085-13.065zM14.5 7.56c0.245-0.21 0.31-0.85 0.88-0.455 0.36 0.272 0.816 0.436 1.309 0.436 0.021 0 0.043-0 0.064-0.001l-0.003 0c0.415-0.025 0.81-0.145 0.86-0.64s-0.355-0.59-0.72-0.675c-0.491-0.081-0.903-0.173-1.306-0.286l0.086 0.021c-0.649-0.197-1.113-0.79-1.113-1.491 0-0.037 0.001-0.073 0.004-0.109l-0 0.005c-0-0.009-0-0.020-0-0.030 0-0.726 0.468-1.343 1.119-1.566l0.012-0.003c0.314-0.112 0.677-0.177 1.055-0.177 0.601 0 1.163 0.164 1.645 0.451l-0.015-0.008c0.18 0.095 0.43 0.225 0.175 0.46s-0.195 0.78-0.71 0.555c-0.324-0.179-0.704-0.299-1.109-0.334l-0.011-0.001c-0.395 0-0.77 0.080-0.83 0.555s0.29 0.585 0.645 0.665 0.735 0.115 1.090 0.215c0.753 0.132 1.317 0.781 1.317 1.562 0 0.031-0.001 0.062-0.003 0.092l0-0.004c0 0.014 0.001 0.031 0.001 0.047 0 0.791-0.535 1.457-1.264 1.655l-0.012 0.003c-0.248 0.067-0.553 0.127-0.864 0.166l-0.036 0.004c-0.013 0-0.027 0-0.042 0-0.74 0-1.432-0.208-2.020-0.57l0.017 0.010c-0.185-0.11-0.56-0.26-0.22-0.55zM10.5 2.675c0.5 0 0.685 0.105 0.665 0.645-0.045 1.135 0 2.275-0.025 3.405 0 0.5 0.090 0.77 0.675 0.705s1.115 0 1.67 0 0.39 0.32 0.405 0.605 0.030 0.55-0.405 0.54c-1.065 0-2.135 0-3.2 0-0.365 0-0.405-0.175-0.405-0.47 0-0.81 0-1.625 0-2.435s0.030-1.575 0-2.365c0-0.515 0.175-0.625 0.65-0.63zM12.815 13.115c-0.635-0.63-1.195-0.68-1.805 0 0.175-0.695 0.5-1.4-0.635-1.69 0.83 0 1.5-0.055 1.5-1.125 0.17 0.87 0.565 1.255 1.5 1.050-0.76 0.435-1.040 0.96-0.53 1.765zM10.495 15.115c-0.24 0.215-0.605 0.395-0.69 0.665s0.125 0.6 0.21 0.905c-0.64-0.63-1.18-0.5-1.785 0.1 0.31-0.73 0.37-1.34-0.57-1.7 0.875 0.105 1.375-0.18 1.44-1.090 0.245 0.715 0.515 1.305 1.425 1.11zM4.315 8.57c-0.5 0-0.68-0.12-0.665-0.655 0.040-1.53 0-3.060 0-4.59 0-0.22-0.16-0.605 0.23-0.61s0.895-0.275 1.15 0.32c0.415 1 0.86 1.945 1.375 3.1 0.5-1.090 0.875-2 1.285-2.94 0.166-0.336 0.506-0.563 0.9-0.563 0.126 0 0.246 0.023 0.357 0.066l-0.007-0.002c0.21 0.085 0.175 0.25 0.175 0.405 0 1.67 0 3.34 0 5 0 0.55-0.345 0.415-0.65 0.44s-0.55-0.055-0.535-0.5c0.009-0.2 0.014-0.435 0.014-0.671 0-0.698-0.045-1.385-0.133-2.059l0.008 0.080c-0.275 0.62-0.57 1.235-0.825 1.865-0.066 0.273-0.309 0.473-0.598 0.473-0.022 0-0.043-0.001-0.064-0.003l0.003 0c-0.36 0-0.5-0.19-0.595-0.465-0.257-0.673-0.559-1.254-0.92-1.792l0.020 0.032c0 0.83 0 1.655 0 2.5 0.020 0.4-0.080 0.56-0.525 0.57zM4.935 11.4c0.82 0.055 1.385-0.12 1.445-1.095 0.17 0.845 0.58 1.255 1.5 1.080-0.78 0.37-0.96 0.87-0.57 1.66-0.65-0.62-1.21-0.525-1.795 0.075 0.365-0.77 0.29-1.345-0.58-1.72zM29.385 15.165c-1.33 7.58-5.785 12.65-12.99 15.335-0.116 0.040-0.25 0.063-0.39 0.063-0.183 0-0.357-0.040-0.513-0.112l0.008 0.003c-3.16-1.107-5.845-2.887-7.99-5.179l-0.010-0.011c-0.36-0.38-0.255-0.565 0.060-0.875q8.265-8.255 16.525-16.53l5.455-5.45 0.17 0.065c-0.21 4.23 0.415 8.525-0.325 12.69z"
  />
</svg>
