<svg xmlns="http://www.w3.org/2000/svg" viewBox="0 0 32 32">
  <path
    d="M12.76 20.87c0.092-1.056 0.144-2.284 0.144-3.525s-0.052-2.469-0.155-3.683l0.011 0.158c-0.143-2.059-0.413-3.952-0.808-5.798l0.048 0.268c-0.576-2.672-1.331-5.003-2.287-7.227l0.097 0.252c-0.060-0.14-0.11-0.175-0.295-0.095-0.792 0.357-1.432 0.691-2.052 1.055l0.102-0.055c-0.205 0.11-0.135 0.215-0.070 0.34 0.938 1.786 1.749 3.865 2.323 6.039l0.047 0.211c0.512 1.893 0.846 4.086 0.928 6.342l0.002 0.053c0.013 0.341 0.021 0.741 0.021 1.143 0 2.317-0.252 4.576-0.729 6.75l0.038-0.207c-0.541 2.505-1.313 4.714-2.318 6.788l0.078-0.178c-0.405 0.84-0.875 1.66-1.355 2.5 1.215 0 2.375 0 3.53 0 0.010 0.002 0.021 0.002 0.033 0.002 0.114 0 0.208-0.083 0.227-0.191l0-0.001c0.993-2.535 1.768-5.495 2.192-8.568l0.023-0.207c0.1-0.695 0.16-1.43 0.225-2.165z"
  />
  <path
    d="M24.090 29.43c-0.99-2.034-1.789-4.398-2.279-6.873l-0.031-0.187c-0.37-1.808-0.583-3.886-0.583-6.014 0-1.14 0.061-2.266 0.18-3.374l-0.012 0.138c0.163-1.56 0.418-2.961 0.769-4.323l-0.044 0.203c0.621-2.473 1.458-4.637 2.523-6.663l-0.078 0.163c0.075-0.14 0.050-0.22-0.105-0.31-0.507-0.303-1.131-0.629-1.772-0.922l-0.128-0.053c-0.21-0.1-0.27-0.050-0.34 0.115-0.445 1.085-0.845 2.17-1.19 3.24-1.209 3.793-1.906 8.156-1.906 12.682 0 0.112 0 0.224 0.001 0.335l-0-0.017c-0 0.014-0 0.030-0 0.046 0 5.103 0.945 9.985 2.668 14.481l-0.093-0.277c0.060 0.16 0.145 0.225 0.37 0.22q1.55 0 3.105 0c0.255 0 0.34 0 0.21-0.24-0.455-0.8-0.885-1.565-1.265-2.37z"
  />
  <path
    d="M31.755 31.88c-0.578-0.315-1.068-0.632-1.534-0.979l0.034 0.024c-1.86-1.411-3.351-3.212-4.367-5.288l-0.038-0.087c-0.897-1.754-1.565-3.79-1.896-5.937l-0.014-0.113c-0.173-1.024-0.271-2.203-0.271-3.405 0-0.408 0.011-0.814 0.034-1.216l-0.003 0.056c0.109-1.799 0.456-3.481 1.010-5.066l-0.040 0.131c0.676-1.957 1.563-3.655 2.661-5.191l-0.041 0.061c0.055-0.075 0.17-0.145 0.055-0.26-0.372-0.387-0.761-0.75-1.167-1.091l-0.023-0.019c-0.025 0-0.050 0-0.060 0.035l-0.095 0.15c-1.677 2.567-2.867 5.607-3.359 8.875l-0.016 0.125c-0.205 1.213-0.323 2.61-0.323 4.035 0 0.803 0.037 1.597 0.11 2.38l-0.008-0.1c0.189 2.011 0.595 3.861 1.2 5.618l-0.050-0.168c0.966 2.847 2.36 5.309 4.131 7.449l-0.031-0.039c0.1 0.126 0.253 0.205 0.424 0.205 0.027 0 0.053-0.002 0.079-0.006l-0.003 0c0.88 0 1.755 0 2.635 0h1.21c-0.13-0.11-0.185-0.15-0.245-0.18z"
  />
  <path
    d="M9.58 19.215c0.092-0.811 0.144-1.752 0.144-2.705 0-1.188-0.081-2.358-0.239-3.503l0.015 0.133c-0.414-3.042-1.363-5.79-2.755-8.255l0.060 0.115c-0.321-0.588-0.629-1.078-0.963-1.549l0.033 0.049c-0.435 0.358-0.826 0.717-1.197 1.097l-0.003 0.003c-0.085 0.085-0.045 0.145 0 0.215 0.15 0.22 0.305 0.44 0.45 0.66 2.021 2.999 3.227 6.694 3.227 10.67 0 0.821-0.051 1.631-0.151 2.425l0.010-0.095c-0.21 2.031-0.685 3.894-1.394 5.636l0.049-0.136c-1.28 3.185-3.205 6.025-6.865 8.060h4.035c0.119 0 0.222-0.064 0.279-0.159l0.001-0.001c0.275-0.355 0.56-0.705 0.83-1.060 0.765-1.023 1.475-2.18 2.077-3.4l0.058-0.13c1.175-2.348 1.99-5.081 2.291-7.967l0.009-0.103z"
  />
  <path
    d="M19.585 31.785c-0.233-0.73-0.438-1.613-0.573-2.518l-0.012-0.097c-0.372-2.318-0.64-5.085-0.746-7.895l-0.004-0.13c-0.165-3.41-0.235-6.82-0.255-10.23 0-2 0.030-4.045 0.045-6.065l0.020-4.575c0-0.16-0.030-0.23-0.26-0.255l-3.415-0.020c-0.37 0-0.44 0.13-0.435 0.41q0.050 3.795 0.085 7.59c0.030 4.355-0.045 8.705-0.265 13.055-0.065 1.225-0.12 2.45-0.215 3.68-0.115 1.455-0.27 2.915-0.5 4.365-0.197 1.139-0.436 2.115-0.735 3.065l0.045-0.165c0.36 0 0.695 0 1.030 0 0.003 0 0.006 0 0.009 0 0.18 0 0.336-0.105 0.41-0.257l0.001-0.003c0.079-0.164 0.158-0.366 0.225-0.574l0.010-0.036c0.035-0.185 0.13-0.25 0.34-0.3 0.595-0.069 1.060-0.546 1.11-1.14l0-0.005c0-0.305 0-0.61 0-0.915 0-0.055-0.030-0.13 0.035-0.175-0.596-0.084-1.086-0.467-1.321-0.989l-0.004-0.011h-0.32c-0.011 0.002-0.024 0.003-0.038 0.003-0.128 0-0.233-0.094-0.252-0.216l-0-0.001v-0.295c0.019-0.124 0.125-0.218 0.252-0.218 0.013 0 0.026 0.001 0.039 0.003l-0.001-0h0.29c0.258-0.676 0.9-1.148 1.654-1.148 0.059 0 0.117 0.003 0.174 0.008l-0.007-0.001c0.037-0.003 0.080-0.004 0.124-0.004 0.761 0 1.41 0.482 1.657 1.157l0.004 0.012h0.29c0.011-0.002 0.024-0.003 0.038-0.003 0.128 0 0.233 0.094 0.252 0.216l0 0.001v0.295c-0.019 0.124-0.125 0.218-0.252 0.218-0.013 0-0.026-0.001-0.039-0.003l0.001 0h-0.32c-0.236 0.528-0.718 0.908-1.295 0.999l-0.010 0.001c0.045 0.045 0 0.1 0 0.155 0 0.275 0 0.555 0 0.835 0 0.665 0.385 1.065 1.175 1.275 0.17 0.050 0.285 0.090 0.305 0.265 0.070 0.245 0.154 0.456 0.255 0.656l-0.010-0.021c0.087 0.154 0.25 0.256 0.436 0.256 0.010 0 0.020-0 0.030-0.001l-0.001 0c0.105-0.006 0.229-0.009 0.352-0.009s0.247 0.003 0.369 0.010l-0.017-0.001c0.28-0.010 0.295-0.080 0.24-0.255z"
  />
</svg>
