<svg xmlns="http://www.w3.org/2000/svg" viewBox="0 0 32 32">
  <path
    d="M30.785 0.040v18.355c0.004 0.041 0.006 0.089 0.006 0.137s-0.002 0.096-0.006 0.144l0-0.006c-0.012 0.377-0.048 0.736-0.107 1.087l0.006-0.047c-0.157 0.989-0.396 1.871-0.716 2.712l0.031-0.092c-0.74 2.037-1.858 3.778-3.281 5.216l0.001-0.001c-1.399 1.426-3.084 2.566-4.962 3.33l-0.098 0.035c-1.674 0.689-3.618 1.089-5.655 1.089-1.575 0-3.094-0.239-4.522-0.682l0.108 0.029c-1.862-0.564-3.48-1.419-4.892-2.524l0.032 0.024c-1.968-1.534-3.507-3.531-4.465-5.83l-0.035-0.095c-0.568-1.377-0.929-2.971-0.999-4.641l-0.001-0.029c0.002-0.016 0.004-0.035 0.004-0.054 0-0.054-0.010-0.106-0.030-0.153l0.001 0.003v-3.135h11.795l-0.085 0.095c-0.718 0.762-1.159 1.792-1.159 2.925 0 0.71 0.173 1.38 0.48 1.969l-0.011-0.024c0.753 1.495 2.275 2.502 4.032 2.502 0.050 0 0.1-0.001 0.15-0.002l-0.007 0c0.024 0 0.052 0.001 0.081 0.001 1 0 1.922-0.329 2.666-0.884l-0.012 0.008c0.035-0.038 0.079-0.067 0.128-0.084l0.002-0.001c0.035 0.075-0.035 0.11-0.065 0.155-0.566 0.712-0.909 1.625-0.909 2.618 0 0.287 0.029 0.568 0.083 0.839l-0.005-0.027c0.247 1.332 1.076 2.432 2.207 3.044l0.023 0.011c0.662 0.379 1.456 0.603 2.301 0.603 1.352 0 2.57-0.571 3.426-1.485l0.002-0.003c0.727-0.773 1.174-1.817 1.174-2.965 0-1.352-0.62-2.56-1.591-3.354l-0.008-0.006c-0.796-0.678-1.837-1.091-2.975-1.091-0.203 0-0.403 0.013-0.599 0.039l0.023-0.002c-0.902 0.097-1.708 0.445-2.364 0.972l0.009-0.007c-0.035 0.030-0.065 0.070-0.12 0.075s0.060-0.085 0.090-0.125c0.624-0.738 1.004-1.701 1.004-2.752 0-0.633-0.138-1.234-0.385-1.775l0.011 0.027c-0.715-1.592-2.277-2.684-4.097-2.705l-0.003-0c-0.071-0.004-0.153-0.006-0.237-0.006-1.204 0-2.298 0.473-3.105 1.243l0.002-0.002c-0.044 0.051-0.095 0.094-0.152 0.128l-0.003 0.002c-0.006-0.026-0.009-0.055-0.009-0.085s0.003-0.059 0.010-0.088l-0.001 0.003v-14.475c-0.001-0.021-0.002-0.045-0.002-0.070s0.001-0.049 0.002-0.073l-0 0.003c0-0.030 0-0.045 0.050-0.050h17.73z"
  />
  <path
    d="M13.055 0.030l-0.055-0.030h17.65c0.045 0 0.11-0.035 0.145 0.030h-17.74z"
  />
  <path
    d="M1.235 18.23l-0.025 0.040v-0.245c0.018 0.045 0.029 0.096 0.029 0.151 0 0.019-0.001 0.038-0.004 0.057l0-0.002z"
  />
  <path d="M13 14.87s-0.040 0-0.030 0.035v-0.035z" />
  <path
    d="M19.265 21.415c0-0.035 0.035-0.050 0.065-0.060s-0.005 0.075-0.065 0.060z"
  />
  <path d="M19.85 20.865s0-0.035 0.035-0.035z" />
  <path
    d="M19.82 20.885c0.004-0.015 0.018-0.025 0.034-0.025 0 0 0.001 0 0.002 0h-0z"
  />
  <path d="M19.33 21.355s0-0.030 0.040-0.040-0.015 0.040-0.040 0.040z" />
</svg>
