<svg xmlns="http://www.w3.org/2000/svg" viewBox="0 0 32 32">
  <path
    d="M8.945 5.090c0.319 0.014 0.604 0.151 0.81 0.365l0 0c0.17 0.137 0.278 0.345 0.278 0.578 0 0.078-0.012 0.152-0.034 0.223l0.001-0.005c-0.025 0.075-0.185 0-0.31 0.085-0.092 0.074-0.151 0.187-0.151 0.313 0 0.173 0.11 0.32 0.263 0.376l0.003 0.001c0.35 0.145 0.58-0.175 0.67-0.34 0.040-0.070 0.030 0.025 0 0.080-0.067 0.366-0.383 0.64-0.763 0.64-0.121 0-0.235-0.028-0.337-0.077l0.005 0.002c-0.35-0.196-0.604-0.53-0.688-0.926l-0.002-0.009c0.281-0.021 0.501-0.254 0.501-0.539 0-0.013-0-0.026-0.001-0.038l0 0.002c-0.037-0.219-0.143-0.408-0.294-0.549l-0.001-0.001c-0.070-0.070-0.135-0.195 0.050-0.18z"
  />
  <path
    d="M20.91 4.93v0c-0.532-0.111-0.954-0.492-1.122-0.989l-0.003-0.011c-0.175-0.705-0.38-0.69-0.47-0.725-0.064-0.017-0.143-0.031-0.223-0.039l-0.008-0.001c-0.215 0-0.36-0.045-0.81-0.065-0.135 0-0.435 0-0.5-0.035-0.187-0.058-0.345-0.16-0.469-0.294l-0.001-0.001c-0.111-0.159-0.178-0.356-0.178-0.569 0-0.027 0.001-0.053 0.003-0.079l-0 0.003c0.5-0.090 0.85-0.365 0.85-0.685s-0.54-0.72-1.2-0.72h-0.38c-0.054-0.211-0.091-0.457-0.105-0.71l-0-0.010h-0.73c-0.016 0.259-0.056 0.499-0.116 0.732l0.006-0.027h-0.385c-0.655 0-1.195 0.325-1.195 0.72s0.355 0.575 0.845 0.685c0.003 0.029 0.005 0.062 0.005 0.095 0 0.207-0.068 0.398-0.182 0.552l0.002-0.003c-0.123 0.137-0.282 0.24-0.463 0.293l-0.007 0.002c-0.050 0-0.355 0.030-0.5 0.035-0.455 0-0.6 0.040-0.81 0.065-0.087 0.009-0.165 0.023-0.241 0.042l0.011-0.002c-0.095 0.035-0.3 0-0.5 0.725-0.163 0.512-0.587 0.895-1.111 0.999l-0.009 0.002s-0.12 0-0.080 0.085 2.945 4.73 0.69 7.545v0c-0.55 0.74-1.115 1.765-0.775 2.965 0.055 0.149 0.128 0.278 0.217 0.393l-0.002-0.003c-2.415 1.38-2.81 2.69-2.885 3.655-0.375 4.63 11.35 6.5 8.205 12.4-0.045 0.075 0.16 0 0.39-0.25s2.5-1.745 2.89-3.395c1.080-4.085-8.615-5.41-10.565-8.205-1.22-1.725 1.225-3.375 2.19-3.94 0.315-0.195 1.625-0.97 2.965-1.63s2.675-1.35 3.345-2.035v0 0c0.115-0.115 0.165 0.265-0.1 0.815h-0.305q-0.195 0.16-0.42 0.315h0.545c-0.1 0.152-0.202 0.284-0.313 0.408l0.003-0.003h-0.88c-0.175 0.105-0.355 0.205-0.545 0.305h1.12c-0.159 0.143-0.332 0.281-0.513 0.408l-0.017 0.012h-1.465l-0.25 0.11c-0.13 0.055-0.255 0.115-0.38 0.18h1.635c-0.128 0.077-0.282 0.157-0.441 0.228l-0.029 0.012-0.41 0.2h-1.5c-0.14 0.090-0.27 0.18-0.395 0.27h1.405c-0.267 0.156-0.493 0.306-0.708 0.468l0.018-0.013h-1.305l-0.3 0.255h1.28c-2.47 2.105-1.135 4.595 0.18 5.405 0.075 0.045 0.12 0.050 0.145 0-0.247-0.241-0.401-0.577-0.401-0.949 0-0.108 0.013-0.214 0.038-0.315l-0.002 0.009c0.475-2.805 10.36-3.25 7.11-8.050-2.185-3.23 0.67-7.495 0.7-7.57s-0.090-0.070-0.090-0.070z"
  />
  <path
    d="M22.815 5.090c-0.319 0.014-0.604 0.151-0.81 0.365l-0 0c-0.158 0.136-0.258 0.337-0.258 0.561 0 0.084 0.014 0.164 0.039 0.239l-0.002-0.005c0 0.035 0.055 0.035 0.11 0.035 0.009-0.001 0.020-0.002 0.030-0.002 0.063 0 0.122 0.019 0.171 0.052l-0.001-0.001c0.096 0.074 0.158 0.189 0.158 0.318 0 0.168-0.103 0.311-0.25 0.371l-0.003 0.001c-0.35 0.145-0.58-0.175-0.67-0.34-0.040-0.070-0.030 0.025 0 0.080 0.067 0.366 0.383 0.64 0.763 0.64 0.121 0 0.235-0.028 0.337-0.077l-0.005 0.002c0.35-0.196 0.604-0.53 0.688-0.926l0.002-0.009c-0.281-0.021-0.501-0.254-0.501-0.539 0-0.013 0-0.026 0.001-0.038l-0 0.002c0.037-0.219 0.143-0.408 0.294-0.549l0.001-0.001c0.070-0.070 0.135-0.195-0.050-0.18zM25.58 13.78c-0.285-0.536-0.522-1.158-0.679-1.81l-0.011-0.055c-0.141 0.508-0.222 1.092-0.222 1.695s0.081 1.187 0.233 1.741l-0.011-0.046c0.020 0.043 0.031 0.093 0.031 0.146 0 0.109-0.049 0.207-0.126 0.273l-0 0c-0.471-1.086-0.746-2.35-0.746-3.678 0-0.952 0.141-1.872 0.403-2.739l-0.017 0.067c0.124-0.396 0.195-0.85 0.195-1.322 0-0.715-0.164-1.392-0.457-1.996l0.012 0.027c-0.075 1.525-1.61 3.785-1.29 6.16 0.202 1.74 0.82 3.304 1.751 4.632l-0.021-0.032c1.16 1.55 1.87 2.58 1.87 2.58 1.83 2.955 0.4 6.24 0.4 6.24 1.26-1.285 1.57-3.665 1.57-3.665 0.345-0.145 1.615 1.69 1.615 1.69 0.12-5.69-3.080-7.13-4.545-9.91zM23.28 4.665c-0.198-0.079-0.427-0.124-0.667-0.124-0.379 0-0.731 0.114-1.025 0.308l0.007-0.004c-0.115-0.135 0.455-0.5 0.5-0.555 0.291-0.23 0.663-0.369 1.068-0.369 0.702 0 1.306 0.418 1.577 1.018l0.004 0.011s0.395 0.635 0.15 2.32c-0.225-0.89-0.675-2.075-1.53-2.565v0l-0.080-0.050z"
  />
  <path
    d="M10.215 4.845c0.115-0.135-0.455-0.5-0.5-0.555-0.291-0.23-0.663-0.369-1.068-0.369-0.702 0-1.306 0.418-1.577 1.018l-0.004 0.011s-0.55 0.715-0.185 4.155c0.041 0.288 0.065 0.621 0.065 0.959 0 1.085-0.243 2.114-0.678 3.034l0.018-0.043c0.668-0.614 1.281-1.259 1.849-1.943l0.026-0.032c0.215-0.35 0.315 1.285-2.725 4.55-1.925 2.065-3.585 4.785-3.5 8.2 0 0 1.080-2 1.43-1.835 0 0 0.25 2.27 1.56 3.555-0.283-0.852-0.447-1.833-0.447-2.852 0-0.583 0.053-1.153 0.156-1.706l-0.009 0.057c0.384-1.746 1.13-3.276 2.158-4.573l-0.018 0.023c1.575-1.95 2.36-2.84 2.5-3.97 0.3-2.24-1.2-4.42-1.5-6 0-0.035-0.035-0.045-0.040 0-0.047 0.283-0.074 0.609-0.074 0.941 0 0.664 0.108 1.304 0.306 1.901l-0.012-0.043c-0.030 0-0.15 0-0.28-0.33-0.215-0.57-0.735-2.32 0.22-3.71 0.158-0.26 0.379-0.467 0.641-0.606l0.009-0.004c0.196-0.076 0.423-0.12 0.66-0.12 0.381 0 0.736 0.114 1.032 0.309l-0.007-0.004z"
  />
  <path
    d="M19.96 17.755h-0.935l-0.415 0.175c-0.195 0.080-0.39 0.14-0.39 0.14h1c-0.29 0.125-0.56 0.24-0.815 0.36h-1l-0.635 0.295h1c-0.26 0.125-0.5 0.255-0.715 0.375h-1.030c-0.175 0.090-0.34 0.185-0.5 0.27h1.070c-0.22 0.135-0.415 0.27-0.59 0.4h-1.11c-0.13 0.085-0.25 0.17-0.36 0.25h1.155c-2 1.65-0.765 2.795-0.235 3.18 0.037 0.027 0.080 0.054 0.124 0.077l0.006 0.003c0.030-0.030 0-0.095 0-0.105-1.2-1.5 2.155-2.090 4.095-2.915-0.25-0.605 0.075-1.535 0.31-2.195l0.070-0.205c0.003-0.009 0.006-0.019 0.006-0.030 0-0.047-0.038-0.085-0.085-0.085-0.002 0-0.004 0-0.006 0h0z"
  />
</svg>
