<svg xmlns="http://www.w3.org/2000/svg" viewBox="0 0 32 32">
  <path
    d="M16.095 0.335c0.29 0.15 0.39 0.33 0.315 0.56-0.055 0.178-0.219 0.305-0.411 0.305-0.022 0-0.045-0.002-0.066-0.005l0.002 0c-0.179-0.005-0.328-0.124-0.379-0.287l-0.001-0.003c-0.013-0.038-0.020-0.082-0.020-0.128 0-0.161 0.090-0.3 0.223-0.371l0.002-0.001 0.095-0.060z"
  />
  <path
    d="M9 6.95c-0.57 0.815-1.22 1.46-2.225 1.615-0.472 0.064-1.018 0.1-1.573 0.1-0.124 0-0.247-0.002-0.37-0.005l0.018 0c-0.46 0-0.915 0-1.375 0-0.125 0-0.175 0.030-0.175 0.17 0 2.595 0 5.185 0 7.78 0.003 1.258 0.237 2.461 0.663 3.568l-0.023-0.068c0.468 1.343 1.431 2.413 2.664 3.011l0.031 0.014c0.61 0.293 1.319 0.492 2.066 0.558l0.024 0.002c0.214 0.023 0.462 0.035 0.713 0.035 0.635 0 1.251-0.082 1.837-0.237l-0.050 0.011c0.856-0.24 1.595-0.654 2.21-1.205l-0.005 0.005c0.804-0.742 1.448-1.645 1.881-2.659l0.019-0.051c0.572-1.292 1.004-2.793 1.22-4.361l0.010-0.089c0.14-0.92 0.25-1.845 0.305-2.78 0-0.465 0.050-0.93 0.070-1.4 0-0.39 0-0.785 0.030-1.175 0-0.090 0.030-0.12 0.12-0.12 0.215 0 0.435 0 0.65 0 1.845 0 3.69 0 5.535 0 0.175 0 0.21 0.055 0.2 0.215-0.035 0.875-0.065 1.75-0.17 2.625-0.138 1.301-0.397 2.488-0.77 3.623l0.035-0.123c-0.367 1.144-0.837 2.137-1.417 3.054l0.032-0.054c-0.384 0.639-0.81 1.193-1.293 1.693l0.003-0.003c-0.426 0.433-0.878 0.838-1.355 1.212l-0.030 0.023c-0.602 0.447-1.285 0.874-2.001 1.245l-0.084 0.040c-0.676 0.349-1.465 0.651-2.288 0.867l-0.082 0.018c-0.764 0.218-1.656 0.374-2.574 0.438l-0.041 0.002c-0.294 0.018-0.639 0.028-0.985 0.028s-0.691-0.010-1.032-0.030l0.047 0.002c-1.283-0.035-2.482-0.36-3.546-0.912l0.046 0.021c-1.251-0.649-2.25-1.635-2.897-2.839l-0.018-0.036c-0.451-0.851-0.798-1.839-0.99-2.881l-0.010-0.064c-0.146-0.717-0.243-1.555-0.269-2.411l-0.001-0.024c-0.060-1.53 0-3.060-0.025-4.59 0-1.235 0-2.465 0-3.7 0-0.12 0-0.185 0.165-0.185h7.080z"
  />
  <path
    d="M8.5 16.22q0-3.17 0-6.34c0-0.16 0.045-0.195 0.2-0.195h6.25c0.145 0 0.195 0.030 0.19 0.185-0.040 1-0.040 2-0.11 3-0.086 1.457-0.264 2.808-0.532 4.126l0.032-0.186c-0.233 1.214-0.602 2.294-1.099 3.3l0.034-0.075c-0.414 0.884-1.036 1.611-1.807 2.138l-0.018 0.012c-0.522 0.341-1.151 0.563-1.827 0.614l-0.013 0.001c-0.117 0.007-0.254 0.012-0.392 0.012-0.276 0-0.548-0.017-0.815-0.050l0.032 0.003c-0.13 0-0.145-0.065-0.145-0.17q0-1.745 0-3.5z"
  />
  <path
    d="M23.4 18.66c0.013 0.243 0.021 0.528 0.021 0.815s-0.007 0.572-0.022 0.855l0.002-0.040c0 0.545-0.050 1.090-0.115 1.635-0.087 1.131-0.367 2.176-0.808 3.131l0.023-0.056c-0.287 0.594-0.68 1.093-1.158 1.494l-0.007 0.006c-0.673 0.554-1.463 0.996-2.323 1.285l-0.052 0.015c-0.869 0.292-1.877 0.495-2.922 0.568l-0.038 0.002c-0.369 0.036-0.797 0.056-1.23 0.056-1.237 0-2.436-0.166-3.574-0.478l0.095 0.022c-0.77-0.194-1.441-0.54-2.009-1.007l0.009 0.007c-0.484-0.404-0.791-1.007-0.791-1.682 0-0.017 0-0.034 0.001-0.050l-0 0.003c0-0.13 0.045-0.145 0.155-0.12 0.562 0.126 1.253 0.234 1.956 0.3l0.069 0.005c0.386 0.037 0.834 0.058 1.287 0.058 0.935 0 1.849-0.090 2.733-0.263l-0.090 0.015c0.964-0.195 1.816-0.474 2.62-0.841l-0.075 0.031c1.34-0.604 2.494-1.353 3.516-2.249l-0.016 0.014c1.1-0.941 2.003-2.075 2.666-3.353l0.029-0.062z"
  />
  <path
    d="M24.36 24.35c0.992-1.005 1.838-2.158 2.502-3.421l0.038-0.079c0.738-1.427 1.278-3.085 1.53-4.836l0.010-0.084c0.121-0.822 0.19-1.771 0.19-2.735 0-0.031-0-0.063-0-0.094l0 0.005c0-1.415 0-2.835 0-4.25 0-0.14-0.035-0.185-0.18-0.18-0.835 0-1.665 0-2.5 0-0.052 0.003-0.112 0.005-0.173 0.005-1.003 0-1.894-0.48-2.457-1.222l-0.006-0.008c-0.125-0.155-0.25-0.31-0.37-0.47 0.050-0.050 0.105-0.030 0.155-0.030h6.945c0.14 0 0.18 0.030 0.18 0.175 0 2.3 0 4.605 0 6.905-0.029 1.832-0.425 3.563-1.118 5.135l0.033-0.085c-0.4 0.924-0.868 1.72-1.421 2.449l0.021-0.029c-0.872 1.153-1.951 2.099-3.188 2.798l-0.052 0.027c-0.027 0.019-0.061 0.030-0.098 0.030-0.015 0-0.029-0.002-0.043-0.005l0.001 0z"
  />
  <path
    d="M16 1.405c0.141 0.308 0.278 0.562 0.428 0.807l-0.018-0.032c0.188 0.306 0.441 0.555 0.74 0.735l0.010 0.005c0.19 0.094 0.414 0.149 0.651 0.149 0.317 0 0.612-0.099 0.854-0.267l-0.005 0.003c0.235-0.125 0.23-0.13 0.33 0.105 0.141 0.374 0.331 0.696 0.565 0.981l-0.005-0.006c0.219 0.269 0.55 0.439 0.92 0.439 0.153 0 0.299-0.029 0.433-0.081l-0.008 0.003c0.060 0 0.135-0.080 0.175-0.030s-0.030 0.12-0.065 0.175c-0.56 0.845-1.125 1.69-1.68 2.54-0.065 0.095-0.115 0.115-0.22 0.060-0.676-0.347-1.463-0.597-2.293-0.706l-0.037-0.004c-0.231-0.030-0.499-0.047-0.771-0.047-0.473 0-0.933 0.052-1.376 0.15l0.042-0.008c-0.643 0.141-1.209 0.341-1.741 0.6l0.046-0.020c-0.16 0.075-0.235 0.065-0.335-0.095-0.5-0.805-1.050-1.605-1.575-2.405l-0.165-0.265c0.178 0.019 0.339 0.053 0.494 0.1l-0.019-0.005c0.061 0.011 0.131 0.017 0.203 0.017 0.412 0 0.776-0.202 1-0.513l0.002-0.004c0.211-0.268 0.381-0.58 0.494-0.918l0.006-0.022c0.045-0.13 0.1-0.155 0.22-0.085 0.287 0.169 0.631 0.271 0.998 0.28l0.002 0c0.008 0 0.017 0 0.026 0 0.394 0 0.749-0.167 0.999-0.434l0.001-0.001c0.286-0.34 0.515-0.739 0.667-1.174l0.008-0.026z"
  />
  <path
    d="M23.8 31.695c-0.655-0.115-1.31-0.24-1.97-0.345-0.395-0.065-0.795-0.105-1.19-0.15-1-0.125-2-0.2-2.97-0.26-0.91-0.060-1.825-0.055-2.735-0.030-0.815 0-1.63 0.090-2.44 0.19-1.035 0.125-2.065 0.255-3.090 0.455-0.28 0.055-0.555 0.095-0.835 0.135-0.065 0-0.17 0.090-0.19-0.090s0.090-0.195 0.17-0.23c0.63-0.25 1.27-0.46 1.91-0.65 0.774-0.249 1.711-0.467 2.671-0.612l0.104-0.013c0.63-0.085 1.26-0.14 1.895-0.19 0.331-0.027 0.716-0.042 1.105-0.042 0.206 0 0.41 0.004 0.614 0.013l-0.029-0.001c0.979 0.040 1.9 0.141 2.801 0.298l-0.126-0.018c1.083 0.173 2.035 0.41 2.954 0.717l-0.129-0.037c0.5 0.165 1.040 0.36 1.56 0.54 0.038 0.013 0.071 0.030 0.101 0.051l-0.001-0.001c0.045 0.032 0.074 0.084 0.074 0.143 0 0.013-0.001 0.026-0.004 0.038l0-0.001c0 0.095-0.065 0.1-0.11 0.1h-0.14z"
  />
  <path
    d="M18.74 2.22c-0.001-0.011-0.001-0.024-0.001-0.037 0-0.168 0.069-0.319 0.181-0.427l0-0c0.052-0.062 0.129-0.101 0.216-0.101 0.021 0 0.042 0.002 0.061 0.007l-0.002-0c0.098 0.034 0.168 0.123 0.175 0.229l0 0.001c0.006 0.030 0.010 0.065 0.010 0.101 0 0.186-0.094 0.35-0.238 0.447l-0.002 0.001c-0.037 0.023-0.082 0.037-0.13 0.037s-0.093-0.014-0.131-0.038l0.001 0.001c-0.078-0.046-0.131-0.126-0.14-0.219l-0-0.001z"
  />
  <path
    d="M13.215 2.13c0 0.17-0.030 0.295-0.155 0.345-0.025 0.008-0.055 0.012-0.085 0.012-0.102 0-0.193-0.050-0.249-0.126l-0.001-0.001c-0.090-0.099-0.145-0.231-0.145-0.376 0-0.059 0.009-0.115 0.026-0.168l-0.001 0.004c0.019-0.087 0.090-0.154 0.179-0.165l0.001-0c0.003-0 0.006-0 0.010-0 0.127 0 0.239 0.065 0.305 0.164l0.001 0.001c0.070 0.084 0.113 0.192 0.115 0.31v0z"
  />
  <path
    d="M10.845 3.765c0 0.090-0.035 0.2-0.18 0.205-0.158-0.013-0.281-0.144-0.281-0.304 0-0.007 0-0.015 0.001-0.022l-0 0.001c0-0.105 0-0.245 0.165-0.255s0.295 0.19 0.295 0.375z"
  />
  <path
    d="M21.3 3.97c-0.165 0-0.17-0.125-0.18-0.23-0-0.007-0.001-0.014-0.001-0.022 0-0.156 0.118-0.285 0.269-0.303l0.001-0c0.14 0 0.185 0.070 0.19 0.185 0.001 0.010 0.002 0.023 0.002 0.035 0 0.167-0.121 0.306-0.28 0.335l-0.002 0z"
  />
</svg>
