<svg xmlns="http://www.w3.org/2000/svg" viewBox="0 0 32 32">
  <path
    d="M4.5 4.9c1.2 0.6 2.2 0.9 3.2 1.3h-0.1l0.6-1.5c0.1-0.3 0.2-0.5 0.3-0.7 0.5-0.5 1.4-0.5 1.9 0 0.4 0.4 0.5 1 0.3 1.5v0l-0.5 1.2c1.6 0.3 3 0.5 4.5 0.5v0-2.7c0-0.3 0.1-0.7 0.4-0.9 0.5-0.5 1.4-0.5 1.9 0 0.3 0.3 0.4 0.6 0.4 0.9v0 2.8c1.3 0 2.6-0.2 3.9-0.4h0.1l-0.5-1.3c-0.2-0.5-0.1-1.1 0.3-1.5 0.5-0.5 1.4-0.5 1.9 0 0.1 0.1 0.3 0.3 0.3 0.5v0l0.6 1.6c1-0.3 2.2-0.7 3.3-1.3l0.1-0.1c0 0-0.1-0.1-0.2-0.2-6.2-6.2-16.4-6.2-22.6 0v0l-0.1 0.3z"
  />
  <path
    d="M24.9 8.7l0.6 1.6c0.2 0.5 0.1 1-0.3 1.4v0c-0.1 0.1-0.3 0.2-0.5 0.3v0c-0.5 0.2-1 0.1-1.4-0.3-0.1-0.1-0.2-0.3-0.3-0.5v0l-0.7-1.9c-1.8 0.4-5 0.6-5 0.6v1.2c0 0.3-0.1 0.7-0.4 0.9v0c0 0 0 0 0 0-0.3 0.3-0.6 0.4-0.9 0.4v0c-0.3 0-0.7-0.1-0.9-0.4s-0.4-0.6-0.4-0.9v0-1.2c-1.7-0.1-3.5-0.3-5.2-0.7h-0.1l-0.7 1.9c-0.1 0.2-0.2 0.3-0.3 0.5v0c0 0 0 0 0 0-0.5 0.5-1.4 0.5-1.9 0-0.5-0.2-0.6-0.8-0.5-1.3v0l0.7-1.7c-1.2-0.4-2.5-0.9-3.7-1.6l-0.2-0.1c-3.7 5.5-3.7 12.7 0 18.1l0.1 0.1c1.4-0.7 3.8-1.7 3.8-1.7l-0.7-1.7c-0.1-0.5 0-1 0.3-1.3 0.5-0.5 1.4-0.5 1.9 0 0.1 0.1 0.2 0.3 0.3 0.4v0l0.8 2c1.9-0.4 3.7-0.6 5.4-0.7v0-1.2c0-0.3 0.2-0.6 0.4-0.8 0.5-0.5 1.4-0.5 1.9 0 0.2 0.2 0.4 0.5 0.4 0.8v0 1.2c1.6 0.1 3.3 0.3 4.9 0.6h0.1l0.7-1.9c0-0.3 0.2-0.6 0.4-0.8 0.5-0.5 1.4-0.5 1.9 0s0.5 1.2 0.1 1.7v0l-0.6 1.6c1.3 0.4 2.7 1 4.1 1.7l0.2 0.1c3.8-5.5 3.8-12.7 0.1-18.1h-0.2c-1.5 0.7-4.2 1.7-4.2 1.7v0z"
  />
  <path
    d="M27.5 27.2c-1.3-0.6-2.4-1.1-3.6-1.4h0.1l-0.6 1.7c-0.1 0.2-0.2 0.3-0.3 0.5v0c0 0 0 0 0 0-0.5 0.5-1.4 0.5-1.9 0-0.4-0.4-0.5-1-0.3-1.4v0l0.5-1.3c-1.4-0.3-2.7-0.4-4.1-0.5v0l-0.1 2.7c0 0.3-0.1 0.6-0.4 0.9 0 0 0 0 0 0v0c0 0 0 0 0 0-0.3 0.3-0.6 0.4-0.9 0.4v0c-0.3 0-0.7-0.1-0.9-0.4-0.3-0.3-0.4-0.6-0.4-0.9v0-2.7c-1.4 0.1-2.9 0.3-4.3 0.6h-0.1l0.5 1.2c0.2 0.5 0.1 1-0.3 1.4v0c-0.1 0.1-0.3 0.2-0.5 0.3v0c-0.5 0.2-1 0.1-1.4-0.3-0.1-0.1-0.2-0.3-0.3-0.5v0l-0.6-1.5c-0.9 0.3-1.9 0.7-3 1.1l-0.2 0.1c0.1 0.1 0.1 0.1 0.2 0.2 0 0 0 0 0 0 6.2 6.2 16.4 6.2 22.6 0v0l0.3-0.2z"
  />
</svg>
