<svg xmlns="http://www.w3.org/2000/svg" viewBox="0 0 32 32">
  <path
    d="M5.654 15.447c0.597-0.972 1.117-2.093 1.502-3.274l0.032-0.112c0.733-3.2 5.107-8.987 10.667-8.987v3.333c-2.547 0-4.947 2.253-6.267 4.36h0.133s7.387 2.92 7.547 3.013h0.067c0.681 0.399 1.132 1.127 1.133 1.96v0c0.001 0.023 0.001 0.050 0.001 0.077 0 0.469-0.145 0.904-0.393 1.263l0.005-0.007c-0.086 0.125-0.178 0.234-0.28 0.333l-0 0c-0.19 0.192-0.416 0.349-0.666 0.461l-0.014 0.006-3.627 1.64 9.093 6.747h1.573v2.667h-7.907v-2.667h0.72l-7.76-5.707c-0.412-0.307-0.676-0.793-0.676-1.341 0-0.063 0.004-0.126 0.010-0.187l-0.001 0.008c0.072-0.592 0.44-1.084 0.95-1.329l0.010-0.004 1.173-0.48-3.067-1.333c-0.105-0.043-0.192-0.088-0.276-0.139l0.009 0.005c-0.56 1.040-1.147 1.96-1.333 2.253-0.299 0.466-0.814 0.771-1.4 0.773h-6.6v-3.333z"
  />
  <path
    d="M30.56 23.887h-5.533v-2.507l-4.48-2.027c0.943-0.655 1.606-1.655 1.81-2.814l0.004-0.026 9.653 4.387-1.333 2.987z"
  />
  <path
    d="M1.747 11.073c-1.059-0.61-1.761-1.736-1.761-3.026 0-1.922 1.558-3.48 3.48-3.48s3.48 1.558 3.48 3.48c0 0.621-0.163 1.205-0.448 1.71l0.009-0.017c-0.606 1.074-1.74 1.788-3.041 1.788-0.632 0-1.225-0.169-1.736-0.463l0.017 0.009z"
  />
</svg>
