<svg xmlns="http://www.w3.org/2000/svg" viewBox="0 0 32 32">
  <path
    d="M26.667 13.333c-2.933 0-5.333 2.4-5.333 5.333s2.4 5.333 5.333 5.333 5.333-2.4 5.333-5.333-2.4-5.333-5.333-5.333zM26.667 21.333c-1.467 0-2.667-1.2-2.667-2.667s1.2-2.667 2.667-2.667 2.667 1.2 2.667 2.667-1.2 2.667-2.667 2.667z"
  />
  <path
    d="M19.867 21.333c-1.467-3.733 0.267-8 4-9.467 0.533-0.267 1.2-0.4 1.733-0.4l-1.6-5.2-2.533 0.8 1.067 3.067-7.333 2.533-6.667-2.4-0.667 1.6c3.733 1.333 5.733 5.6 4.267 9.333 0 0 0 0.133 0 0.133h7.733z"
  />
  <path
    d="M5.333 13.333c-2.933 0-5.333 2.4-5.333 5.333s2.4 5.333 5.333 5.333 5.333-2.4 5.333-5.333-2.4-5.333-5.333-5.333zM5.333 20c-0.8 0-1.333-0.533-1.333-1.333s0.533-1.333 1.333-1.333c0.8 0 1.333 0.533 1.333 1.333s-0.533 1.333-1.333 1.333z"
  />
</svg>
