<svg xmlns="http://www.w3.org/2000/svg" viewBox="0 0 32 32">
  <path
    d="M21.71 23.228c-1.412 0.827-2.346 2.336-2.346 4.064 0 2.592 2.101 4.693 4.693 4.693s4.693-2.101 4.693-4.693c0-0.863-0.233-1.672-0.639-2.366l0.012 0.022c-0.826-1.414-2.337-2.349-4.066-2.349-0.864 0-1.674 0.234-2.369 0.641l0.022-0.012z"
  />
  <path
    d="M29.164 1.682c-1.337-1.040-3.039-1.667-4.888-1.667-2.27 0-4.32 0.946-5.776 2.464l-0.003 0.003-2.12 2.12c-2.371 2.406-3.835 5.71-3.835 9.357 0 0.165 0.003 0.329 0.009 0.493l-0.001-0.024c0.006 0.095 0.010 0.205 0.010 0.317 0 1.365-0.543 2.604-1.424 3.511l0.001-0.001-3.813 3.813-1.093-1.093-6.227 6.213 4.707 4.707 6.227-6.213-1.093-1.093 3.813-3.813c0.906-0.88 2.145-1.423 3.51-1.423 0.111 0 0.222 0.004 0.331 0.011l-0.015-0.001c0.14 0.005 0.304 0.008 0.469 0.008 3.647 0 6.952-1.464 9.359-3.837l-0.002 0.002 2.36-2.307c1.436-1.411 2.326-3.374 2.326-5.545 0-2.411-1.097-4.565-2.82-5.991l-0.013-0.010zM27.177 10.655l-2.36 2.347c-2.253 2.24-6.2 3.56-7.827 1.92s-0.347-5.6 1.92-7.813l2.080-2.133c0.809-0.878 1.965-1.427 3.249-1.427 0.997 0 1.917 0.331 2.655 0.888l-0.011-0.008 0.32 0.28c0.767 0.763 1.241 1.819 1.241 2.987s-0.475 2.223-1.241 2.986l-0 0z"
  />
</svg>
