<svg xmlns="http://www.w3.org/2000/svg" viewBox="0 0 32 32">
  <path
    d="M25.533 1.333h-19.067l-5.133 5.133v19.067l5.133 5.133h19.067l5.133-5.133v-19.067zM27.32 23.36l-4 4h-14.667l-4-4v-14.667l4-4h14.667l4 4z"
  />
  <path
    d="M16 12.253c-0.008-0-0.017-0-0.027-0-0.92 0-1.667 0.746-1.667 1.667s0.746 1.667 1.667 1.667c0.92 0 1.667-0.746 1.667-1.667 0-0.005-0-0.009-0-0.014v0.001c-0.007-0.905-0.736-1.638-1.639-1.653l-0.001-0z"
  />
  <path
    d="M22.067 6.667h-12.133l-3.267 3.267v12.133l3.267 3.267h12.133l3.267-3.267v-12.133zM14.307 22.107c-0.044 0.018-0.094 0.028-0.147 0.028-0.184 0-0.338-0.124-0.385-0.292l-0.001-0.003-0.493-1.333c-0.067-0.213 0-0.4 0.32-0.507 0.813-0.253 3.093-1.040 3.453-2.813-0.48 0.195-1.035 0.32-1.616 0.346l-0.011 0c-1.9-0.009-3.437-1.552-3.437-3.453 0-0.094 0.004-0.187 0.011-0.279l-0.001 0.012c0.045-2.174 1.818-3.92 3.999-3.92 0 0 0.001 0 0.001 0h-0c2.667 0 4.147 1.987 4.147 4.667-0.072 3.586-2.493 6.587-5.784 7.533l-0.056 0.014z"
  />
</svg>
