<svg xmlns="http://www.w3.org/2000/svg" viewBox="0 0 57 32">
  <path
    d="M3.67 8.133c-0.013-3.785 2.405-5.883 6.85-5.898 3.201-0.011 3.771 2.082 3.774 2.842 0.006 1.457-2.060 3.003-2.060 3.003s0.114 0.906 1.882 0.9c1.768-0.006 3.492-1.175 3.481-4.097-0.013-3.362-3.53-4.897-7.005-4.884-2.908 0.011-10.621 0.42-10.593 8.079 0.024 6.803 12.852 7.403 12.869 11.76 0.017 4.73-5.293 6.004-7.080 6.012-1.789 0.006-2.525-1.277-2.527-1.981-0.013-3.83 3.797-4.898 3.797-4.898 0-0.282-0.224-1.559-1.699-1.554-3.802 0.011-5.317 3.283-5.306 6.477 0.009 2.715 1.929 4.411 4.828 4.402 5.541-0.021 11.79-2.725 11.767-8.733-0.021-5.617-12.962-7.085-12.979-11.429z"
    fill="#fff"
    style="fill: #fff"
  />
  <path
    d="M56.493 23.183c-0.045-0.106-0.168-0.080-0.332 0.054-0.629 0.519-2.067 1.989-5.433 2.002-6.133 0.022-7.196-10.088-7.196-10.088s4.672-3.492 5.403-4.899c0.73-1.408-1.593-1.72-1.593-1.72s-3.27 3.98-5.586 5.149c0.248-1.729 1.961-5.675 2.066-7.944s-2.73-1.716-3.182-1.498c0.004 0.99-2.499 9.984-3.41 14.927-0.536 0.855-1.302 1.838-1.987 1.841-0.398 0-0.543-0.736-0.547-1.793-0.006-1.464 0.805-3.81 0.799-5.235-0.004-0.986-0.454-1.046-0.842-1.044-0.086 0-0.555 0.013-0.639 0.013-0.999 0.004-0.672-0.853-1.569-0.85-2.756 0.009-6.265 3.018-6.417 7.562-0.93 0.616-2.232 1.391-2.897 1.395-0.697 0.002-0.87-0.644-0.872-1.203-0.004-0.979 1.584-6.796 1.584-6.796s2.015-0.517 2.897-0.689c0.667-0.129 0.852-0.178 1.115-0.501 0.263-0.321 0.764-0.986 1.173-1.584s0.007-1.059-0.749-1.055c-0.992 0.004-3.645 0.629-3.645 0.629s1.274-5.498 1.274-5.61c0-0.116-0.149-0.17-0.359-0.168-0.484 0-1.345 0.261-1.897 0.458-0.844 0.301-1.531 1.337-1.67 1.819s-1.093 4.254-1.093 4.254c0 0-5.111 1.765-5.81 2.030-0.047 0.017-0.073 0.058-0.073 0.101 0 0.045 0.586 2.282 1.783 2.278 0.863-0.004 3.376-1.033 3.376-1.033s-1.294 5.152-1.287 6.863c0.004 1.102 0.519 2.39 2.669 2.383 2.004-0.008 3.75-1.033 4.73-1.752 0.536 1.356 1.802 1.729 2.667 1.726 1.939-0.007 3.434-1.546 3.621-1.754 0.252 0.594 0.844 1.737 2.198 1.731 0.766-0.002 1.559-0.865 2.144-1.69-0.009 0.207-0.008 0.381 0.007 0.519 0.233 2.133 3.401 0.88 3.569 0.581 0.106-1.543 0.039-4.697 0.656-6.643 0.816 6.641 3.918 11.11 9.491 11.089 3.117-0.011 4.712-0.908 5.377-1.647 0.768-0.852 0.613-1.897 0.484-2.209l0.002-0.002zM29.75 20.995c-2.676 0.009 0.818-6.93 3.102-6.94 0.004 0.895-0.047 6.929-3.102 6.94z"
    fill="#fff"
    style="fill: #fff"
  />
  <path
    d="M51.477 23.122c2.417-0.009 4.288-1.6 4.63-2.118 0.443-0.674-0.514-1.69-0.818-1.671-0.762 0.73-1.559 1.614-3.35 1.619-2.108 0.007-1.63-2.312-1.63-2.312s4.056 0.525 5.687-2.392c0.521-0.934 0.543-2.224 0.332-2.781-0.215-0.566-1.389-1.585-3.266-1.427-2.306 0.194-5.212 2.6-5.851 5.489-0.514 2.321 0.458 5.606 4.269 5.593h-0.002zM54.054 13.386c0.379-0.013 0.346 0.613 0.243 1.268-0.138 0.887-1.361 3.141-3.687 3.055 0.157-1.315 1.888-4.269 3.444-4.323z"
    fill="#fff"
    style="fill: #fff"
  />
  <path
    d="M24.115 30.358c0.446 0 0.822 0.375 0.822 0.822s-0.375 0.822-0.822 0.822c-0.446 0-0.822-0.375-0.822-0.822s0.375-0.822 0.822-0.822z"
    fill="#fff"
    style="fill: #fff"
  />
  <path
    d="M25.564 26.069h1.528v3.416c0 0.689 0.366 1.188 1.178 1.188s1.171-0.499 1.171-1.188v-3.416h1.528v3.459c0 1.449-0.829 2.473-2.699 2.473s-2.708-1.031-2.708-2.463v-3.468h0.002z"
    fill="#fff"
    style="fill: #fff"
  />
  <path
    d="M32.396 29.948c0.418 0.418 1.066 0.769 1.86 0.769 0.515 0 0.829-0.219 0.829-0.499 0-0.332-0.375-0.463-0.995-0.594-0.96-0.192-2.306-0.437-2.306-1.817 0-0.979 0.829-1.825 2.323-1.825 0.934 0 1.746 0.28 2.366 0.812l-0.822 1.074c-0.489-0.401-1.126-0.603-1.642-0.603s-0.689 0.202-0.689 0.454c0 0.306 0.359 0.411 1.005 0.532 0.96 0.202 2.288 0.48 2.288 1.798 0 1.171-0.865 1.948-2.428 1.948-1.178 0-2-0.366-2.585-0.926l0.796-1.126v0.002z"
    fill="#fff"
    style="fill: #fff"
  />
</svg>
