<svg xmlns="http://www.w3.org/2000/svg" viewBox="0 0 21 32">
  <path
    d="M14.222 16.001h-8.54v8.416h8.54v-8.416z"
    fill="#f50000"
    style="fill: #f50000"
  />
  <path
    d="M14.222 7.584h-8.54v8.416h8.54v-8.416z"
    fill="#006dfa"
    style="fill: #006dfa"
  />
  <path
    d="M9.951 9.734l0.67 1.355 1.498 0.218-1.084 1.054 0.256 1.489-1.34-0.704-1.34 0.704 0.256-1.489-1.084-1.054 1.498-0.218 0.67-1.355z"
    fill="#fff"
    style="fill: #fff"
  />
  <path
    d="M4.15 9.198c-0.016-4.281 2.722-6.653 7.747-6.671 3.62-0.014 4.265 2.354 4.268 3.214 0.006 1.649-2.33 3.396-2.33 3.396s0.128 1.025 2.13 1.018c2-0.007 3.949-1.329 3.938-4.635-0.015-3.797-3.991-5.533-7.923-5.52-3.29 0.013-12.011 0.474-11.98 9.137 0.028 7.695 14.536 8.373 14.554 13.3 0.020 5.35-5.985 6.791-8.008 6.798s-2.856-1.445-2.859-2.241c-0.016-4.333 4.295-5.54 4.295-5.54-0.001-0.319-0.253-1.763-1.922-1.757-4.298 0.015-6.013 3.714-5.999 7.326 0.012 3.071 2.183 4.99 5.46 4.978 6.266-0.023 13.333-3.082 13.308-9.876-0.023-6.353-14.661-8.013-14.679-12.926v-0.001z"
    fill="#fff"
    style="fill: #fff"
  />
</svg>
