<svg xmlns="http://www.w3.org/2000/svg" viewBox="0 0 32 32">
  <path
    d="M28.707 11.307c-1.077-1.995-2.047-4.324-2.782-6.754l-0.071-0.272-0.067-0.28c0-5.333-19.24-5.333-19.24 0-0.848 2.888-1.882 5.381-3.145 7.734l0.105-0.214 0.107-0.213c-1.92 3.573-1.707 6.347 0.28 8.333s0.787 10.32 3.173 11.507c1.231 0.537 2.665 0.85 4.173 0.85 0.409 0 0.812-0.023 1.209-0.068l-0.049 0.004v-12.093s-2.587-0.4-2.587-10.32l-0.387-1.187s1.8-1.213 6.667-1.227 6.733 1.227 6.733 1.227l-0.4 1.187c0 9.92-2.587 10.32-2.587 10.32v12.16c0.356 0.043 0.767 0.067 1.185 0.067 1.499 0 2.925-0.314 4.216-0.88l-0.067 0.026c2.387-1.187 1.2-9.507 3.187-11.507s2.187-4.76 0.267-8.333z"
  />
  <path
    d="M13.52 20l0.88 10.4c0.043 0.894 0.778 1.602 1.678 1.602 0.029 0 0.057-0.001 0.086-0.002l-0.004 0c0.029 0.002 0.062 0.003 0.096 0.003 0.896 0 1.628-0.701 1.677-1.585l0-0.004 0.92-10.4c-0.796 0.245-1.711 0.387-2.659 0.387-0.003 0-0.006 0-0.008 0h0c-0.975-0.001-1.915-0.147-2.801-0.418l0.068 0.018z"
  />
</svg>
