<svg xmlns="http://www.w3.org/2000/svg" viewBox="0 0 32 32">
  <path
    d="M25.693 9.72c-0.038-5.325-4.363-9.627-9.693-9.627-4.997 0-9.11 3.78-9.636 8.637l-0.004 0.043v23.227l16.307-15.24c1.865-1.762 3.027-4.252 3.027-7.014 0-0.009 0-0.018-0-0.028v0.001zM16 15.413c-3.152 0-5.707-2.555-5.707-5.707s2.555-5.707 5.707-5.707c3.152 0 5.707 2.555 5.707 5.707 0 0.005 0 0.009-0 0.014v-0.001c-0.008 3.146-2.56 5.693-5.707 5.693 0 0 0 0-0 0v0z"
  />
  <path
    d="M16 6.813c-1.605 0-2.907 1.301-2.907 2.907s1.301 2.907 2.907 2.907c1.605 0 2.907-1.301 2.907-2.907v0c0-1.605-1.301-2.907-2.907-2.907v0z"
  />
</svg>
