<svg xmlns="http://www.w3.org/2000/svg" viewBox="0 0 32 32">
  <path
    d="M20.72 10.667l-3.16 5.8-5.707-2.853c-0.345-0.175-0.752-0.277-1.183-0.277-0.964 0-1.809 0.512-2.277 1.278l-0.007 0.012-8 13.333c-0.232 0.387-0.369 0.855-0.369 1.354 0 0.975 0.523 1.827 1.304 2.293l0.012 0.007c0.379 0.238 0.839 0.381 1.332 0.387h0.001c0.97-0.011 1.815-0.539 2.273-1.321l0.007-0.013 6.733-11.213 5.8 2.893c0.358 0.191 0.783 0.303 1.234 0.303 0.975 0 1.827-0.523 2.293-1.304l0.007-0.012 4.387-8c-1.884-0.341-3.502-1.3-4.671-2.656l-0.009-0.010z"
  />
  <path
    d="M32 5.333c0 2.946-2.388 5.333-5.333 5.333s-5.333-2.388-5.333-5.333c0-2.946 2.388-5.333 5.333-5.333s5.333 2.388 5.333 5.333z"
  />
</svg>
