<svg xmlns="http://www.w3.org/2000/svg" viewBox="0 0 32 32">
  <path
    d="M16 11.333c-2.577 0-4.667-2.089-4.667-4.667s2.089-4.667 4.667-4.667c2.577 0 4.667 2.089 4.667 4.667v0c0 2.577-2.089 4.667-4.667 4.667v0zM16 4.667c-1.105 0-2 0.895-2 2s0.895 2 2 2c1.105 0 2-0.895 2-2v0c0-1.105-0.895-2-2-2v0z"
  />
  <path
    d="M32 26c0 2.209-1.791 4-4 4s-4-1.791-4-4c0-2.209 1.791-4 4-4s4 1.791 4 4z"
  />
  <path
    d="M20 26c0 2.209-1.791 4-4 4s-4-1.791-4-4c0-2.209 1.791-4 4-4s4 1.791 4 4z"
  />
  <path
    d="M8 26c0 2.209-1.791 4-4 4s-4-1.791-4-4c0-2.209 1.791-4 4-4s4 1.791 4 4z"
  />
  <path
    d="M25.333 16.667c0 2.209-1.791 4-4 4s-4-1.791-4-4c0-2.209 1.791-4 4-4s4 1.791 4 4z"
  />
  <path
    d="M13.333 16.667c0 2.209-1.791 4-4 4s-4-1.791-4-4c0-2.209 1.791-4 4-4s4 1.791 4 4z"
  />
</svg>
