<svg xmlns="http://www.w3.org/2000/svg" viewBox="0 0 60 32">
  <path
    d="M3.819 8.459c-0.011-3.936 2.507-6.112 7.125-6.133 3.328-0.011 3.925 2.165 3.925 2.955 0 1.515-2.144 3.125-2.144 3.125s0.117 0.939 1.963 0.939c1.835 0 3.627-1.227 3.616-4.267-0.021-3.499-3.669-5.088-7.285-5.077-3.029 0.011-11.051 0.437-11.019 8.405 0.021 7.072 13.365 7.701 13.387 12.224 0.021 4.917-5.504 6.24-7.36 6.251-1.856 0-2.624-1.333-2.624-2.059-0.011-3.979 3.947-5.099 3.947-5.099 0-0.299-0.235-1.621-1.771-1.611-3.957 0.011-5.525 3.413-5.515 6.741 0 2.827 2.005 4.587 5.024 4.576 5.76-0.021 12.256-2.837 12.235-9.077-0.021-5.845-13.483-7.371-13.493-11.883l-0.011-0.011z"
    fill="#fff"
    style="fill: #fff"
  />
  <path
    d="M58.752 24.107c-0.043-0.107-0.171-0.085-0.341 0.053-0.651 0.544-2.144 2.069-5.653 2.080-6.379 0.021-7.488-10.496-7.488-10.496s4.864-3.627 5.621-5.099c0.757-1.461-1.653-1.792-1.653-1.792s-3.403 4.139-5.813 5.355c0.256-1.803 2.037-5.899 2.144-8.256s-2.837-1.781-3.307-1.557c0 1.035-2.603 10.379-3.541 15.52-0.555 0.885-1.355 1.909-2.069 1.909-0.416 0-0.565-0.768-0.565-1.867 0-1.525 0.832-3.957 0.832-5.44 0-1.024-0.469-1.088-0.875-1.088-0.085 0-0.576 0.011-0.661 0.011-1.035 0-0.704-0.885-1.632-0.885-2.869 0-6.517 3.136-6.677 7.861-0.971 0.64-2.325 1.451-3.008 1.451-0.725 0-0.907-0.672-0.907-1.248 0-1.013 1.643-7.072 1.643-7.072s2.091-0.533 3.008-0.715c0.693-0.139 0.885-0.181 1.163-0.523 0.277-0.331 0.8-1.024 1.216-1.643 0.427-0.619 0-1.099-0.779-1.099-1.035 0-3.787 0.651-3.787 0.651s1.323-5.717 1.323-5.835c0-0.117-0.16-0.181-0.373-0.171-0.501 0-1.397 0.267-1.973 0.48-0.875 0.309-1.589 1.387-1.739 1.888-0.139 0.501-1.141 4.427-1.141 4.427s-5.312 1.835-6.037 2.112c-0.043 0.021-0.075 0.064-0.075 0.107s0.608 2.379 1.856 2.368c0.896 0 3.509-1.077 3.509-1.077s-1.344 5.355-1.344 7.136c0 1.141 0.544 2.485 2.773 2.475 2.080 0 3.904-1.077 4.917-1.824 0.555 1.408 1.877 1.803 2.773 1.792 2.016 0 3.573-1.611 3.765-1.824 0.267 0.619 0.875 1.803 2.283 1.803 0.8 0 1.621-0.896 2.229-1.76 0 0.213 0 0.395 0 0.544 0.245 2.219 3.541 0.917 3.712 0.608 0.107-1.6 0.043-4.885 0.683-6.912 0.853 6.912 4.075 11.552 9.867 11.531 3.243-0.011 4.896-0.949 5.589-1.717 0.8-0.885 0.64-1.973 0.501-2.293l0.032 0.032zM30.944 21.835c-2.784 0 0.853-7.211 3.221-7.221 0 0.928-0.053 7.2-3.221 7.221z"
    fill="#fff"
    style="fill: #fff"
  />
  <path
    d="M53.536 24.043c2.517 0 4.459-1.664 4.811-2.208 0.459-0.704-0.533-1.76-0.853-1.739-0.789 0.757-1.621 1.675-3.488 1.685-2.197 0-1.696-2.4-1.696-2.4s4.213 0.544 5.909-2.485c0.544-0.971 0.565-2.315 0.341-2.891-0.224-0.587-1.44-1.653-3.403-1.483-2.4 0.203-5.419 2.699-6.080 5.707-0.533 2.411 0.48 5.835 4.437 5.813h0.021zM56.213 13.92c0.395-0.011 0.363 0.64 0.256 1.323-0.149 0.917-1.419 3.264-3.829 3.179 0.16-1.365 1.963-4.437 3.584-4.501h-0.011z"
    fill="#fff"
    style="fill: #fff"
  />
  <path
    d="M20.021 30.944c0-0.523 0.448-0.971 0.971-0.971s0.971 0.448 0.971 0.971c0 0.523-0.448 0.971-0.971 0.971s-0.971-0.448-0.971-0.971z"
    fill="#fff"
    style="fill: #fff"
  />
  <path
    d="M22.624 29.301c0-1.557 1.163-2.613 2.72-2.613 1.077 0 1.739 0.48 2.048 0.917l-1.035 0.96c-0.192-0.288-0.512-0.48-0.939-0.48-0.661 0-1.163 0.459-1.163 1.205s0.501 1.216 1.163 1.216c0.427 0 0.747-0.203 0.939-0.48l1.035 0.971c-0.299 0.437-0.971 0.917-2.048 0.917-1.557 0-2.72-1.056-2.72-2.624v0.011z"
    fill="#fff"
    style="fill: #fff"
  />
  <path
    d="M27.786 29.301c0-1.408 1.024-2.613 2.709-2.613s2.72 1.205 2.72 2.613c0 1.408-1.013 2.624-2.72 2.624s-2.709-1.216-2.709-2.624zM31.594 29.301c0-0.661-0.395-1.205-1.088-1.205s-1.077 0.544-1.077 1.205c0 0.661 0.384 1.216 1.077 1.216s1.088-0.544 1.088-1.216z"
    fill="#fff"
    style="fill: #fff"
  />
  <path
    d="M40.352 31.797v-3.029c0-0.384-0.181-0.672-0.661-0.672-0.437 0-0.747 0.277-0.896 0.48v3.221h-1.589v-3.029c0-0.384-0.171-0.672-0.661-0.672-0.427 0-0.725 0.277-0.885 0.48v3.221h-1.589v-4.981h1.589v0.608c0.213-0.288 0.853-0.736 1.643-0.736 0.715 0 1.205 0.299 1.419 0.885 0.288-0.437 0.939-0.885 1.728-0.885 0.917 0 1.493 0.48 1.493 1.493v3.616h-1.589z"
    fill="#fff"
    style="fill: #fff"
  />
</svg>
