<svg xmlns="http://www.w3.org/2000/svg" viewBox="0 0 32 32">
  <path
    d="M5.96 17.4l5.867-15.133-0.613-0.573c-0.261-0.244-0.613-0.394-1-0.394-0.42 0-0.799 0.177-1.066 0.46l-0.001 0.001-8.747 9.293c-0.266 0.264-0.431 0.629-0.431 1.033s0.165 0.77 0.431 1.033l0 0 4.173 3.92c0.263 0.252 0.621 0.408 1.015 0.408 0.132 0 0.26-0.017 0.382-0.050l-0.010 0.002z"
  />
  <path
    d="M17.96 4.493l-2.667-1.040c-0.156-0.062-0.337-0.097-0.525-0.097-0.62 0-1.149 0.384-1.364 0.927l-0.003 0.010-6.44 16.653c-0.061 0.155-0.097 0.334-0.097 0.522 0 0.617 0.384 1.144 0.927 1.355l0.010 0.003 6.667 2.56c0.155 0.061 0.334 0.097 0.522 0.097 0.617 0 1.144-0.384 1.355-0.927l0.003-0.010 1.68-4.333z"
  />
  <path
    d="M21.893 3.96h8.173c1.068 0 1.933 0.866 1.933 1.933v22.88c0 1.068-0.866 1.933-1.933 1.933h-8.173c-1.068 0-1.933-0.866-1.933-1.933v-22.88c0-1.068 0.866-1.933 1.933-1.933z"
  />
</svg>
