<svg xmlns="http://www.w3.org/2000/svg" viewBox="0 0 32 32">
  <path
    d="M16 0c-8.837 0-16 7.163-16 16s7.163 16 16 16c8.837 0 16-7.163 16-16v0c0-8.837-7.163-16-16-16v0zM23.453 16.653c-0.058 0.7-0.205 1.348-0.43 1.958l0.017-0.051c-0.247 0.662-0.553 1.234-0.923 1.757l0.016-0.024 4.533 3.133c-1.32 1.859-3.075 3.327-5.12 4.274l-0.080 0.033-2.307-4.947c-0.921 0.44-2.001 0.697-3.141 0.697-0.237 0-0.471-0.011-0.701-0.033l0.030 0.002-0.48 5.453c-1.217-0.122-2.333-0.381-3.39-0.764l0.097 0.031c-1.145-0.409-2.136-0.918-3.047-1.537l0.047 0.030 3.133-4.533c-1.069-0.758-1.917-1.76-2.474-2.928l-0.020-0.046-4.947 2.307c-0.774-1.61-1.226-3.501-1.226-5.497 0-0.412 0.019-0.819 0.057-1.221l-0.004 0.051 5.453 0.48c0.058-0.7 0.205-1.348 0.43-1.958l-0.017 0.051c0.252-0.662 0.557-1.234 0.924-1.759l-0.017 0.026-4.533-3.067c1.32-1.859 3.075-3.327 5.12-4.274l0.080-0.033 2.307 4.947c0.921-0.44 2.001-0.697 3.141-0.697 0.237 0 0.471 0.011 0.701 0.033l-0.030-0.002 0.48-5.453c1.217 0.122 2.333 0.381 3.39 0.764l-0.097-0.031c1.145 0.409 2.136 0.918 3.047 1.536l-0.047-0.030-3.133 4.533c1.069 0.758 1.917 1.76 2.474 2.928l0.020 0.046 4.947-2.307c0.771 1.607 1.221 3.494 1.221 5.486 0 0.392-0.017 0.78-0.052 1.163l0.004-0.050z"
  />
  <path
    d="M19.267 14.013l-2.813 1.027-1.027-2.813c-0.107-0.292-0.383-0.497-0.707-0.497-0.415 0-0.751 0.336-0.751 0.751 0 0.091 0.016 0.178 0.046 0.259l-0.002-0.005 1.027 2.813-2.813 1.027c-0.292 0.107-0.497 0.383-0.497 0.707 0 0.415 0.336 0.751 0.751 0.751 0.091 0 0.178-0.016 0.259-0.046l-0.005 0.002 2.813-1.027 1.027 2.813c0.107 0.292 0.383 0.497 0.707 0.497 0.415 0 0.751-0.336 0.751-0.751 0-0.091-0.016-0.178-0.046-0.259l0.002 0.005-1.027-2.813 2.813-1.027c0.292-0.107 0.497-0.383 0.497-0.707 0-0.415-0.336-0.751-0.751-0.751-0.091 0-0.178 0.016-0.259 0.046l0.005-0.002z"
  />
</svg>
