<svg xmlns="http://www.w3.org/2000/svg" viewBox="0 0 32 32">
  <path
    d="M17.333 6.133c-0.369-0.050-0.795-0.079-1.229-0.079-5.331 0-9.653 4.322-9.653 9.653s4.322 9.653 9.653 9.653c4.899 0 8.946-3.65 9.57-8.379l0.005-0.049c0.056-0.388 0.088-0.836 0.088-1.292 0-1.907-0.56-3.683-1.524-5.172l0.023 0.037 3.733-8.267c0.025-0.042 0.039-0.092 0.039-0.146 0-0.162-0.131-0.293-0.293-0.293-0.071 0-0.136 0.025-0.186 0.067l0-0-7.080 5.227c-0.913-0.473-1.976-0.811-3.099-0.955l-0.048-0.005zM20.707 16.293c-0.301 2.298-2.247 4.054-4.603 4.054-2.563 0-4.64-2.077-4.64-4.64s2.077-4.64 4.64-4.64c0.213 0 0.422 0.014 0.627 0.042l-0.024-0.003c2.309 0.298 4.075 2.251 4.075 4.617 0 0.201-0.013 0.398-0.037 0.592l0.002-0.023z"
  />
  <path
    d="M16 32c-8.837 0-16-7.163-16-16s7.163-16 16-16v0c0.736 0 1.333 0.597 1.333 1.333s-0.597 1.333-1.333 1.333v0c-7.364 0-13.333 5.97-13.333 13.333s5.97 13.333 13.333 13.333c7.364 0 13.333-5.97 13.333-13.333v0c0-0.736 0.597-1.333 1.333-1.333s1.333 0.597 1.333 1.333v0c0 8.837-7.163 16-16 16v0z"
  />
</svg>
