<svg xmlns="http://www.w3.org/2000/svg" viewBox="0 0 32 32">
  <path
    d="M31.813 3.653c-0.842-0.901-2.023-1.476-3.339-1.52l-0.008-0c-0.060-0.003-0.13-0.004-0.201-0.004-1.112 0-2.134 0.383-2.942 1.025l0.010-0.007c-1.333-1.173-3.12-1.747-4.293-0.64l-1.147 1.093c2.488 1.303 4.515 3.189 5.949 5.482l0.037 0.064 0.787-0.693c1.16-1.093 0.747-2.84-0.307-4.24 0.547-0.408 1.236-0.654 1.982-0.654 0.965 0 1.834 0.41 2.442 1.065l0.002 0.002c0.127 0.139 0.31 0.227 0.513 0.227 0.003 0 0.005 0 0.008-0h-0c0.188-0 0.357-0.077 0.48-0.2l0-0c0.136-0.129 0.221-0.311 0.221-0.513 0-0.189-0.074-0.36-0.195-0.487l0 0z"
  />
  <path
    d="M26 17.093c0 7.18-5.82 13-13 13s-13-5.82-13-13c0-7.18 5.82-13 13-13s13 5.82 13 13z"
  />
</svg>
