<svg xmlns="http://www.w3.org/2000/svg" viewBox="0 0 32 32">
  <path
    d="M27.493 0c-1.6 1.213-6.16 4.84-6.16 4.84l-3.507-1.147-1.827-2.96-1.773 2.96-3.56 1.147s-4.56-3.627-6.16-4.84c0 0-0.453 6.853 0.267 7.693 1.32 1.533 2.88 3.613 2.813 4.307-0.080 0.933-0.893 3.707-0.067 5.44s2.867 6.24 2.867 6.24c-0.434 0.064-0.775 0.396-0.852 0.82l-0.001 0.006c0.085 0.938 0.366 1.794 0.803 2.55l-0.016-0.030c0.394 0.339 0.829 0.656 1.29 0.936l0.043 0.024 0.947 4.013 1.467-2.667c0.554 0.339 1.21 0.571 1.911 0.651l0.022 0.002c0.724-0.082 1.379-0.315 1.954-0.665l-0.021 0.012 1.467 2.667 0.827-4.080c1.080-0.693 1.453-0.96 1.453-0.96 0.42-0.726 0.702-1.582 0.785-2.496l0.002-0.024c-0.078-0.43-0.419-0.762-0.848-0.826l-0.006-0.001s2.027-4.507 2.867-6.24 0-4.507-0.067-5.44c0-0.627 1.493-2.667 2.813-4.24 0.773-0.84 0.267-7.693 0.267-7.693zM12.4 18.080c-0.104 0.012-0.225 0.019-0.347 0.019-1.716 0-3.107-1.391-3.107-3.107 0-0.883 0.368-1.679 0.959-2.245l0.001-0.001 3.307 5.093c-0.236 0.108-0.509 0.192-0.795 0.238l-0.018 0.002zM19.6 18.080c-0.303-0.043-0.577-0.123-0.834-0.235l0.020 0.008 3.307-5.093c0.592 0.567 0.96 1.363 0.96 2.246 0 1.716-1.391 3.107-3.107 3.107-0.122 0-0.243-0.007-0.362-0.021l0.014 0.001z"
  />
  <path d="M25.187 22.173l4.4 0.573-2.813-4z" />
  <path d="M5.227 18.747l-2.813 4 4.4-0.573z" />
  <path
    d="M4.84 12.267v0c-0.582-0.926-1.162-1.722-1.79-2.477l0.030 0.037-3.080 2.307 4.493 2.96c0.047-1.031 0.171-2.002 0.367-2.946l-0.021 0.119z"
  />
  <path
    d="M28.92 9.827c-0.604 0.703-1.188 1.477-1.72 2.288l-0.053 0.086c0.176 0.825 0.3 1.795 0.345 2.787l0.001 0.040 4.507-2.893z"
  />
</svg>
