<svg xmlns="http://www.w3.org/2000/svg" viewBox="0 0 35 32">
  <path
    d="M35.006 10.56l-6.737-8.109c-0.684-0.818-1.656-1.374-2.758-1.514l-0.021-0.002-7.242-0.935c-0.161-0.020-0.346-0.032-0.535-0.032s-0.374 0.011-0.557 0.034l0.022-0.002-7.208 0.935c-1.125 0.143-2.1 0.699-2.782 1.509l-0.005 0.007-6.737 8.109c-0.27 0.317-0.435 0.731-0.435 1.183s0.164 0.867 0.437 1.186l-0.002-0.003 15.899 18.451c0.334 0.384 0.823 0.625 1.368 0.625s1.035-0.241 1.367-0.623l0.002-0.002 15.899-18.451c0.278-0.319 0.447-0.739 0.447-1.198 0-0.446-0.16-0.854-0.425-1.171l0.002 0.003z"
  />
</svg>
