<svg xmlns="http://www.w3.org/2000/svg" viewBox="0 0 32 32">
  <path
    d="M21.467 26.053l-11.293-3.773c-0.53-0.185-0.903-0.68-0.903-1.262 0-0.145 0.023-0.284 0.066-0.414l-0.003 0.009 4.133-12.373-0.307-0.627c-0.226-0.433-0.672-0.723-1.186-0.723-0.214 0-0.416 0.050-0.595 0.14l0.008-0.003-10.667 5.333c-0.424 0.229-0.708 0.67-0.708 1.178 0 0.202 0.045 0.393 0.125 0.564l-0.003-0.008 8.56 17.173c0.224 0.439 0.673 0.734 1.191 0.734 0.212 0 0.412-0.049 0.59-0.137l-0.008 0.003 10.667-5.333c0.213-0.111 0.385-0.275 0.503-0.474l0.003-0.006z"
  />
  <path
    d="M31.040 4l-11.293-3.747c-0.122-0.041-0.263-0.064-0.409-0.064-0.578 0-1.070 0.368-1.255 0.882l-0.003 0.009-6.080 18.2c-0.040 0.121-0.063 0.26-0.063 0.405 0 0.582 0.373 1.077 0.894 1.259l0.009 0.003 11.293 3.773c0.122 0.041 0.263 0.064 0.409 0.064 0.578 0 1.070-0.368 1.255-0.882l0.003-0.009 6.080-18.2c0.045-0.128 0.071-0.275 0.071-0.429 0-0.585-0.377-1.082-0.901-1.262l-0.009-0.003zM23.12 10.333c-0.183 0.473-0.475 0.868-0.848 1.169l-0.005 0.004c-0.533 0.453-1.733 1.24-2.44 1.733l1.76 0.627c0.078 0.033 0.132 0.109 0.132 0.197 0 0.025-0.004 0.049-0.012 0.071l0-0.002-0.32 0.893c-0.031 0.082-0.109 0.14-0.2 0.14-0.019 0-0.037-0.002-0.054-0.007l0.002 0-4-1.44c-0.077-0.029-0.131-0.102-0.131-0.188 0-0.024 0.004-0.046 0.012-0.067l-0 0.001v-0.213c0.867-0.547 3.067-2.040 4-2.667 0.233-0.169 0.416-0.394 0.529-0.656l0.004-0.010c0.019-0.066 0.029-0.142 0.029-0.22 0-0.399-0.278-0.733-0.65-0.819l-0.006-0.001c-0.116-0.032-0.25-0.050-0.388-0.050-0.285 0-0.551 0.078-0.779 0.214l0.007-0.004c-0.025 0.011-0.055 0.018-0.086 0.018-0.086 0-0.16-0.051-0.194-0.123l-0.001-0.001-0.36-0.933c-0.014-0.027-0.022-0.058-0.022-0.092 0-0.075 0.041-0.14 0.101-0.174l0.001-0.001c0.432-0.245 0.949-0.389 1.499-0.389 0.307 0 0.603 0.045 0.883 0.128l-0.022-0.006c0.975 0.234 1.688 1.098 1.688 2.129 0 0.265-0.047 0.518-0.133 0.753l0.005-0.015zM24.8 16.253c-0.025 0.076-0.095 0.131-0.178 0.131-0.022 0-0.044-0.004-0.063-0.011l0.001 0-1.12-0.4c-0.079-0.023-0.135-0.095-0.135-0.179 0-0.027 0.006-0.052 0.016-0.075l-0 0.001 1.613-4.52-0.933-0.347c-0.085-0.019-0.147-0.093-0.147-0.182 0-0.002 0-0.003 0-0.005v0l0.227-0.627c0.024-0.054 0.061-0.099 0.106-0.133l0.001-0.001 1.88-0.627 0.92 0.333c0.077 0.029 0.131 0.102 0.131 0.188 0 0.024-0.004 0.046-0.012 0.067l0-0.001z"
  />
</svg>
