<svg xmlns="http://www.w3.org/2000/svg" viewBox="0 0 32 32">
  <path
    d="M27.267 11.653v-0.4c0-6.213-5.053-11.253-11.267-11.253v0c-6.213 0-11.267 5.040-11.267 11.267v0.453c-2.853 2-4.733 5.307-4.733 9.067s1.88 7.067 4.733 9.067v2.147h22.533v-2.093c2.907-1.987 4.813-5.333 4.813-9.12s-1.907-7.133-4.813-9.12zM23.28 18.88c0 1.64-0.92 3.213-2.56 4.36-2.613 1.84-6.813 1.84-9.427 0-1.64-1.16-2.56-2.72-2.56-4.36v-3.867l0.52-0.587c0.627 0.4 1.467 0.773 2.4 0.773 1.933 0 3.507-1.64 3.507-1.64s-1.573-1.64-3.507-1.64c-0.067 0-0.133 0.013-0.187 0.013l4.547-5.133 4.547 5.133s-0.133-0.013-0.187-0.013c-1.933 0-3.507 1.64-3.507 1.64s1.573 1.64 3.507 1.64c0.933 0 1.773-0.387 2.4-0.773l0.52 0.587v3.867z"
  />
</svg>
