<svg xmlns="http://www.w3.org/2000/svg" viewBox="0 0 32 32">
  <path
    d="M14.88 6.56l-3.187-3.187c-0.273-0.273-0.65-0.443-1.067-0.443s-0.794 0.169-1.067 0.443l-9.12 9.12c-0.273 0.273-0.443 0.65-0.443 1.067s0.169 0.794 0.443 1.067l3.187 3.187z"
  />
  <path
    d="M24.373 14.667l4 4v-9.76l-4 4c-0.223 0.226-0.361 0.537-0.361 0.88s0.138 0.654 0.361 0.88l-0-0z"
  />
  <path
    d="M28.413 18.76v-9.853l-4 4c-0.227 0.227-0.368 0.54-0.368 0.887s0.14 0.66 0.367 0.887v0z"
  />
  <path
    d="M22.773 11.333l4-4-4-4c-0.184-0.185-0.438-0.3-0.72-0.3s-0.536 0.115-0.72 0.3l-15.413 15.413c-0.185 0.182-0.299 0.434-0.299 0.713s0.114 0.532 0.299 0.713l0 0 9.813 9.827c0.187 0.179 0.44 0.29 0.72 0.29s0.533-0.11 0.72-0.29l-0 0 9.627-9.64-4-4c-0.66-0.64-1.069-1.536-1.069-2.526 0-0.978 0.399-1.862 1.042-2.5l0-0zM16.267 21.92c-0.010 0.124-0.113 0.222-0.239 0.222-0.062 0-0.118-0.023-0.161-0.062l0 0-2.040-2.080c-0.038-0.042-0.061-0.098-0.061-0.16 0-0.131 0.104-0.237 0.234-0.24h1.787c0.004-0 0.009-0 0.013-0 0.258 0 0.467 0.209 0.467 0.467 0 0 0 0 0 0v0zM20.613 21.013c-0.007 0.259-0.219 0.467-0.48 0.467-0 0-0 0-0 0h-1.893c-0.258 0-0.467-0.209-0.467-0.467v0-2.347c0.002-0.016 0.003-0.035 0.003-0.055 0-0.252-0.194-0.459-0.441-0.478l-0.002-0h-2.4c-0.004 0-0.009 0-0.013 0-0.258 0-0.467-0.209-0.467-0.467 0-0 0-0 0-0v0-1.893c0-0 0-0 0-0 0-0.258 0.209-0.467 0.467-0.467 0.005 0 0.009 0 0.014 0l-0.001-0h5.2c0.004-0 0.009-0 0.013-0 0.258 0 0.467 0.209 0.467 0.467 0 0 0 0 0 0v0z"
  />
</svg>
