<svg xmlns="http://www.w3.org/2000/svg" viewBox="0 0 32 32">
  <path
    d="M16 3.080c7.136 0 12.92 5.784 12.92 12.92s-5.784 12.92-12.92 12.92c-7.136 0-12.92-5.784-12.92-12.92v0c0.008-7.132 5.788-12.912 12.919-12.92h0.001zM16 0c-8.837 0-16 7.163-16 16s7.163 16 16 16c8.837 0 16-7.163 16-16v0c0-8.837-7.163-16-16-16v0z"
  />
  <path
    d="M16 9.44c3.623 0 6.56 2.937 6.56 6.56s-2.937 6.56-6.56 6.56c-3.623 0-6.56-2.937-6.56-6.56v0c0.008-3.62 2.94-6.552 6.559-6.56h0.001zM16 6.36c-5.324 0-9.64 4.316-9.64 9.64s4.316 9.64 9.64 9.64c5.324 0 9.64-4.316 9.64-9.64v0c0-5.324-4.316-9.64-9.64-9.64v0z"
  />
  <path
    d="M19.28 16c0 1.811-1.468 3.28-3.28 3.28s-3.28-1.468-3.28-3.28c0-1.812 1.469-3.28 3.28-3.28s3.28 1.469 3.28 3.28z"
  />
</svg>
