<svg xmlns="http://www.w3.org/2000/svg" viewBox="0 0 32 32">
  <path
    d="M31.893 25.427c-1.349-2.512-2.75-4.663-4.309-6.684l0.082 0.111s1.52-4.84 3.72-4.84l-3.893-2.947c-0.142-0.036-0.304-0.057-0.472-0.057-0.628 0-1.188 0.291-1.552 0.746l-0.003 0.004c-0.382 0.528-0.729 1.128-1.014 1.762l-0.026 0.065c-0.487-0.99-1.074-1.841-1.767-2.594l0.007 0.008c1.383-1.862 2.459-4.047 3.102-6.41l0.032-0.136c0.933-3.413 3.2-3.827 3.2-3.827-0.68-0.403-1.498-0.641-2.372-0.641-1.35 0-2.567 0.568-3.426 1.479l-0.002 0.002c-3.12-0.28-2.387 2.187-2.387 2.187 1.493-0.8 1.787 0.667 1.787 0.667 0.067 0.3 0.105 0.644 0.105 0.997 0 1.673-0.856 3.146-2.154 4.005l-0.018 0.011c-0.672-0.384-1.449-0.699-2.269-0.906l-0.064-0.014c0.146-0.266 0.234-0.582 0.24-0.918l0-0.002c-0.077-1.211-1.078-2.164-2.302-2.164-0.048 0-0.097 0.002-0.144 0.004l0.007-0c-0.042-0.003-0.090-0.004-0.14-0.004-1.214 0-2.21 0.939-2.3 2.13l-0 0.008c0.006 0.338 0.094 0.654 0.245 0.931l-0.005-0.011c-0.886 0.23-1.662 0.554-2.378 0.971l0.044-0.024c-1.316-0.87-2.171-2.343-2.171-4.016 0-0.353 0.038-0.697 0.111-1.029l-0.006 0.032s0.293-1.467 1.787-0.667c0 0 0.733-2.467-2.387-2.187-0.86-0.913-2.078-1.481-3.428-1.481-0.874 0-1.693 0.238-2.394 0.653l0.022-0.012s2.333 0.413 3.2 3.827c0.674 2.5 1.75 4.684 3.17 6.599l-0.037-0.052c-0.686 0.745-1.273 1.597-1.732 2.523l-0.028 0.063c-0.311-0.699-0.658-1.299-1.061-1.857l0.021 0.030c-0.367-0.459-0.927-0.75-1.555-0.75-0.167 0-0.33 0.021-0.485 0.060l0.014-0.003-3.893 2.947c2.2 0 3.72 4.84 3.72 4.84-1.477 1.911-2.878 4.061-4.102 6.321l-0.125 0.252c-0.507 1.56 1.013 4.147 1.013 4.147l7.6-12c2.182-0.628 4.689-0.99 7.28-0.99s5.098 0.361 7.472 1.037l-0.192-0.047 7.6 12s1.52-2.587 1.013-4.147z"
  />
  <path
    d="M22.32 19.547c-1.187 0.173-1.187 2.080-2.667 1.733-0.889-0.298-1.654-0.753-2.299-1.338l0.005 0.005c-0.354-0.311-0.822-0.5-1.333-0.5s-0.979 0.19-1.336 0.502l0.002-0.002c-0.65 0.585-1.429 1.041-2.288 1.321l-0.045 0.013c-1.52 0.347-1.52-1.56-2.667-1.733s-1.88 1.787-1.88 1.787 1.187 7.213 2.853 8.76 5.333 1.907 5.333 1.907 3.587-0.347 5.333-1.907 2.853-8.76 2.853-8.76-0.68-1.96-1.867-1.787zM19.387 28.72c-0.302-0.007-0.59-0.055-0.862-0.139l0.022 0.006c-0.762-0.235-1.639-0.37-2.547-0.37s-1.784 0.135-2.61 0.387l0.063-0.017c-0.25 0.078-0.538 0.127-0.836 0.133l-0.004 0c-1.52 0-0.32-3.453 0.507-3.293 1.52 0.307 2.88 0.453 2.88 0.453s1.333-0.147 2.88-0.453c0.827-0.093 2.027 3.293 0.507 3.293z"
  />
</svg>
