<svg xmlns="http://www.w3.org/2000/svg" viewBox="0 0 32 32">
  <path
    d="M7.675 6.735h7.5v-4.3s-3.945-2.435-4.885-2.435-5.425 1.685-5.61 2.060c-0.050 0.14-0.079 0.302-0.079 0.47s0.029 0.33 0.082 0.48l-0.003-0.010s2.82 0.93 2.995 3.735z"
  />
  <path
    d="M13 25.92l-5.14 0.080c1.31 4.305 7.3 6 7.3 6v-7.675c-0.493 0.773-1.247 1.342-2.134 1.589l-0.026 0.006z"
  />
  <path
    d="M26.865 3c0.047-0.14 0.075-0.3 0.075-0.468s-0.027-0.328-0.078-0.478l0.003 0.011c-0.19-0.38-4.68-2.065-5.615-2.065s-4.865 2.435-4.865 2.435v4.3h7.5c0.17-2.805 2.98-3.735 2.98-3.735z"
  />
  <path
    d="M16.5 23.295c-0.034-0.052-0.069-0.112-0.1-0.175l-0.005-0.010v8.89s6-1.685 7.3-6l-2.545-0.045c-1.965-0.022-3.68-1.072-4.636-2.636l-0.014-0.024z"
  />
  <path
    d="M12.445 13.195l3.93-5.24h-11.415c-1.5 0-2.435 1.68-2.435 1.68v2.435h8.975z"
  />
  <path
    d="M5.145 19.745l-3.74 4.865s10.105 0.185 11.040 0 2.43-2.060 1.87-3.555-6-8.235-6-8.235h-5.79l5.975 7.86h-2.605z"
  />
  <path
    d="M16.75 12.070h8.795l0.955 1.125 4.115-5.24h-10.87c-1.393 1.009-2.44 2.418-2.979 4.058l-0.016 0.057z"
  />
  <path
    d="M22 20.115c-0.476-0.615-0.768-1.395-0.78-2.242v-0.003c0-2.805 0.185-5.050 0.185-5.050h-4.845s-1.685 3.74-0.185 7.5 6.735 6.36 12.165 1.87h-2.33c-0.017 0-0.036 0-0.056 0-1.693 0-3.196-0.809-4.145-2.062l-0.009-0.013z"
  />
</svg>
