<svg xmlns="http://www.w3.org/2000/svg" viewBox="0 0 32 32">
  <path
    d="M12.11 12.9l4.3-5.74h-12.5c-1.64 0-2.67 1.84-2.67 1.84v2.67h9.83l1.030 1.23z"
  />
  <path
    d="M4.11 20.070l-4.090 5.33s11.060 0.2 12.090 0 2.66-2.26 2.050-3.89-6.57-9.020-6.57-9.020h-6.34l6.54 8.61h-2.85l-0.82-1.020z"
  />
  <path
    d="M16.82 11.67h9.63l1.050 1.23 4.51-5.74h-11.9c-1.53 1.1-2.67 2.65-3.26 4.44 0 0-0.020 0.060-0.020 0.060z"
  />
  <path
    d="M22.57 20.47c-0.52-0.67-0.84-1.53-0.85-2.45v0c0-3.070 0.2-5.53 0.2-5.53h-5.3s-1.84 4.090-0.2 8.21 7.37 6.96 13.32 2.050h-2.61c-1.85 0-3.5-0.89-4.54-2.26v0z"
  />
</svg>
