<svg xmlns="http://www.w3.org/2000/svg" viewBox="0 0 32 32">
  <path
    d="M32 13.25c0-6.489-5.261-11.75-11.75-11.75v0h-8.5c-6.489 0-11.75 5.261-11.75 11.75s5.261 11.75 11.75 11.75v0h3.75c0.87 2.22 3.215 5.5 9.5 5.5 0 0-2.15-1.080-2.81-5.66 5.601-0.965 9.808-5.786 9.81-11.59v-0zM6.61 15.795c-1.406 0-2.545-1.139-2.545-2.545s1.139-2.545 2.545-2.545c1.406 0 2.545 1.139 2.545 2.545v0c0 1.406-1.139 2.545-2.545 2.545v0zM14.61 15.795c-1.406 0-2.545-1.139-2.545-2.545s1.139-2.545 2.545-2.545c1.406 0 2.545 1.139 2.545 2.545v0c0 1.406-1.139 2.545-2.545 2.545v0zM21.295 16.91l-0.065 0.060-1-1 0.065-0.055c0.679-0.682 1.098-1.622 1.098-2.66s-0.42-1.978-1.099-2.66l0 0-0.065-0.055 1-1 0.065 0.060c0.933 0.937 1.509 2.228 1.509 3.655s-0.577 2.718-1.51 3.655l0-0zM23.825 19.44l-0.065 0.060-1-1 0.065-0.060c1.325-1.328 2.145-3.161 2.145-5.185s-0.819-3.857-2.145-5.185l-0.070-0.070 1-1 0.065 0.060c1.582 1.586 2.56 3.775 2.56 6.192 0 2.415-0.976 4.602-2.555 6.188l0-0z"
  />
</svg>
