<svg xmlns="http://www.w3.org/2000/svg" viewBox="0 0 32 32">
  <path
    d="M11.333 21.373c0 1.841-1.492 3.333-3.333 3.333s-3.333-1.492-3.333-3.333c0-1.841 1.492-3.333 3.333-3.333s3.333 1.492 3.333 3.333z"
  />
  <path
    d="M27.333 21.373c0 1.841-1.492 3.333-3.333 3.333s-3.333-1.492-3.333-3.333c0-1.841 1.492-3.333 3.333-3.333s3.333 1.492 3.333 3.333z"
  />
  <path
    d="M31.12 15.427c-0.28-1.628-1.513-2.906-3.094-3.249l-0.026-0.005-4-0.8-2.667-2.667-12-1.413-5.027 2.587-4.307-2.32v3.027l1.333 0.72v2.667l-1.333 2.667v4h2.733c0.42-2.562 2.618-4.493 5.267-4.493s4.846 1.931 5.262 4.462l0.004 0.031h5.467c0.42-2.562 2.618-4.493 5.267-4.493s4.846 1.931 5.262 4.462l0.004 0.031h2.733z"
  />
</svg>
