<svg xmlns="http://www.w3.org/2000/svg" viewBox="0 0 32 32">
  <path
    d="M32 16c-0.246 0.23-0.399 0.556-0.399 0.918 0 0.124 0.018 0.243 0.051 0.356l-0.002-0.009c0.014 0.059 0.022 0.127 0.022 0.197 0 0.262-0.112 0.498-0.291 0.663l-0.001 0.001c-0.384 0.39-0.842 0.706-1.352 0.924l-0.028 0.011c-0.92 0.45-1.835 0.91-2.73 1.41-0.447 0.212-0.809 0.541-1.054 0.949l-0.006 0.011c0 0.040-0.115 0.065-0.165 0.050-0.191-0.042-0.358-0.097-0.517-0.167l0.017 0.007c-0.125-0.060-0.295-0.125-0.35-0.235-0.274-0.505-0.644-0.925-1.089-1.248l-0.011-0.007c-0.215-0.165-0.45-0.305-0.665-0.47-0.302-0.242-0.689-0.389-1.111-0.389-0.113 0-0.223 0.011-0.331 0.031l0.011-0.002c-0.133 0.029-0.243 0.107-0.314 0.213l-0.001 0.002c-0.79 1.405-1.565 2.825-2.35 4.235q-1.075 1.925-2.16 3.855c-0.155 0.275-0.305 0.555-0.5 0.82-0.088 0.202-0.285 0.34-0.515 0.34s-0.427-0.138-0.514-0.336l-0.001-0.004c-0.415-0.66-0.785-1.35-1.165-2.030l-2.935-5.25c-0.305-0.545-0.605-1.090-0.905-1.635-0.045-0.085-0.1-0.16-0.185-0.295-0.17 0.225-0.33 0.405-0.465 0.605s-0.385 0.5-0.775 0.4c-0.165-0.030-0.355 0.105-0.535 0.165-0.095 0.030-0.2 0.1-0.28 0.075-0.222-0.055-0.478-0.086-0.74-0.086-0.568 0-1.102 0.147-1.566 0.404l0.016-0.008c-0.295 0.24-0.5 0.18-0.855 0-0.379-0.215-0.706-0.452-1.005-0.72l0.005 0.005c-0.211-0.225-0.405-0.472-0.577-0.734l-0.013-0.021-0.765 1.040c0.304-0.764 0.755-1.413 1.322-1.937l0.003-0.003c-0.275-0.21-0.5-0.425-0.795-0.6-0.15-0.095-0.36 0.1-0.31 0.29s0.16 0.425 0.225 0.645c0.006 0.036 0.009 0.078 0.009 0.12s-0.003 0.084-0.010 0.124l0.001-0.004c-0.078-0.019-0.146-0.044-0.21-0.077l0.005 0.002c-0.185-0.141-0.394-0.28-0.611-0.405l-0.029-0.015c-0.471-0.28-0.842-0.682-1.078-1.164l-0.007-0.016c-0.090-0.149-0.217-0.267-0.37-0.343l-0.005-0.002c-0.448-0.201-0.799-0.552-0.995-0.988l-0.005-0.012c-0.019-0.056-0.030-0.12-0.030-0.186 0-0.116 0.034-0.225 0.092-0.316l-0.001 0.002c0.412-0.73 1.030-1.302 1.776-1.645l0.024-0.010c0.805-0.325 1.605-0.665 2.405-1l0.135-0.065-0.155-0.435c-0.023-0.048-0.036-0.105-0.036-0.165 0-0.141 0.074-0.264 0.184-0.334l0.002-0.001c0.181-0.147 0.383-0.294 0.593-0.429l0.027-0.016c0.153-0.070 0.331-0.131 0.517-0.172l0.018-0.003 0.345-0.095c-0.205-0.315-0.365-0.605-0.565-0.86-0.44-0.54-0.87-1.085-1.37-1.6-0.241-0.225-0.502-0.437-0.777-0.63l-0.023-0.015c-0.328-0.257-0.537-0.653-0.537-1.098 0-0.029 0.001-0.058 0.003-0.086l-0 0.004c0.016-0.224 0.025-0.486 0.025-0.75s-0.009-0.526-0.027-0.785l0.002 0.035c0.027-0.817 0.683-1.473 1.498-1.5l0.003-0c1.76 0.040 3.535 0 5.335 0h2.74c0.010-0 0.022-0 0.033-0 0.749 0 1.374 0.533 1.515 1.241l0.002 0.010c0.198 0.529 0.419 0.981 0.676 1.408l-0.021-0.038c0.45 0.835 0.915 1.66 1.38 2.5 0.23 0.405 0.42 0.41 0.645 0 0.635-1.125 1.26-2.255 1.885-3.38 0.069-0.13 0.12-0.282 0.144-0.442l0.001-0.008c0.088-0.447 0.349-0.821 0.709-1.056l0.006-0.004c0.13-0.085 0.283-0.149 0.446-0.183l0.009-0.002c0.117-0.029 0.251-0.046 0.389-0.046 0.016 0 0.032 0 0.048 0.001l-0.002-0c2.66 0 5.32 0 8 0 0.028-0.002 0.061-0.003 0.094-0.003 0.493 0 0.929 0.244 1.193 0.618l0.003 0.005c0.136 0.179 0.228 0.399 0.254 0.639l0.001 0.006c0.035 0.64 0 1.28 0 1.92s-0.465 0.93-0.885 1.265c-0.32 0.25-0.625 0.5-0.94 0.78l0.045 0.1c0.53-0.025 1.060-0.045 1.585-0.075l1.84-0.125c0.145 0 0.26 0 0.31 0.165 0.1 0.355 0.205 0.705 0.315 1.055 0.016 0.054 0.025 0.116 0.025 0.18 0 0.153-0.053 0.295-0.141 0.406l0.001-0.001c-0.417 0.576-1.034 0.985-1.747 1.127l-0.018 0.003c-0.355 0.1-0.68 0.305-1.030 0.44-0.406 0.108-0.748 0.336-0.997 0.642l-0.003 0.003c0.246 0.123 0.457 0.258 0.653 0.411l-0.008-0.006c0.225 0.215 0.035 0.455-0.055 0.675 0 0.025 0.035 0.060 0.055 0.060 0.633 0.132 1.194 0.364 1.696 0.682l-0.021-0.012c0.445 0.21 0.87 0.45 1.32 0.655 0.235 0.11 0.38 0.245 0.325 0.53 0 0 0 0.33 0.040 0.345zM20.82 18.1c0.161 0.142 0.297 0.307 0.405 0.491l0.005 0.009c0.060 0.189 0.234 0.324 0.439 0.324 0.039 0 0.077-0.005 0.114-0.014l-0.003 0.001c0.116-0.019 0.25-0.030 0.386-0.030 0.583 0 1.119 0.2 1.544 0.534l-0.005-0.004c0.665 0.423 1.206 0.984 1.593 1.647l0.012 0.023c0.040 0.080 0.2 0.12 0.31 0.155s0.335 0.075 0.5 0.115c0.252-0.412 0.61-0.737 1.035-0.944l0.015-0.006c0.885-0.5 1.795-0.95 2.71-1.4 0.575-0.236 1.063-0.575 1.463-0.998l0.002-0.002c0.129-0.132 0.208-0.313 0.208-0.513 0-0.058-0.007-0.114-0.019-0.167l0.001 0.005c-0.024-0.105-0.038-0.225-0.038-0.349 0-0.218 0.043-0.427 0.122-0.616l-0.004 0.011c0.078-0.202 0.155-0.454 0.216-0.712l0.009-0.043c0.012-0.028 0.018-0.061 0.018-0.095 0-0.115-0.077-0.213-0.182-0.244l-0.002-0c-1.090-0.465-2.050-1.225-3.28-1.415 0.045-0.1 0.085-0.195 0.13-0.285 0.165-0.33 0.1-0.5-0.24-0.63l-0.5-0.225v-0.11c0.32-0.195 0.63-0.42 0.965-0.59 0.354-0.193 0.768-0.369 1.199-0.506l0.051-0.014c0.74-0.142 1.36-0.574 1.749-1.17l0.006-0.010c0.043-0.072 0.068-0.159 0.068-0.252 0-0.020-0.001-0.040-0.004-0.060l0 0.002c-0.085-0.345-0.21-0.685-0.295-1.030-0.040-0.185-0.12-0.235-0.305-0.22-0.885 0.065-1.77 0.14-2.655 0.18-0.005-0-0.011-0-0.018-0-0.399 0-0.781 0.070-1.136 0.197l0.023-0.007c-0.441 0.181-0.951 0.303-1.485 0.339l-0.015 0.001c-2.030 0.13-4.060 0.28-6.090 0.435-0.021 0.005-0.046 0.007-0.071 0.007-0.145 0-0.27-0.089-0.323-0.215l-0.001-0.002c-0.085-0.175-0.22-0.32-0.315-0.5-0.065-0.116-0.188-0.192-0.328-0.192-0.015 0-0.030 0.001-0.044 0.003l0.002-0c-0.001 0-0.001 0-0.002 0-1.991 0-3.958 0.104-5.895 0.305l0.242-0.020c-0.080-0.004-0.155-0.020-0.225-0.047l0.005 0.002c-0.176-0.075-0.38-0.125-0.594-0.14l-0.006-0c-0.89 0.1-1.775 0.215-2.655 0.36-0.321 0.076-0.601 0.175-0.866 0.301l0.026-0.011c-0.935 0.38-1.865 0.775-2.8 1.14-0.285 0.115-0.61 0.135-0.89 0.26-0.229 0.133-0.427 0.277-0.609 0.438l0.004-0.003c-0.089 0.049-0.149 0.143-0.149 0.25 0 0.049 0.013 0.096 0.035 0.136l-0.001-0.002c0.070 0.17 0.135 0.34 0.21 0.5-0.044 0.024-0.099 0.049-0.154 0.071l-0.011 0.004c-0.835 0.35-1.665 0.705-2.5 1.040-0.745 0.329-1.348 0.868-1.745 1.542l-0.010 0.018c-0.049 0.076-0.079 0.169-0.079 0.269 0 0.048 0.007 0.095 0.020 0.139l-0.001-0.004c0.189 0.439 0.52 0.788 0.934 0.995l0.011 0.005c0.201 0.104 0.361 0.264 0.462 0.459l0.003 0.006c0.418 0.664 1.016 1.181 1.725 1.49l0.025 0.010c-0.080-0.215-0.165-0.425-0.24-0.64-0.027-0.044-0.042-0.098-0.042-0.155 0-0.116 0.065-0.217 0.161-0.269l0.002-0.001c0.055-0.047 0.126-0.076 0.205-0.076 0.093 0 0.177 0.041 0.235 0.105l0 0c0.14 0.12 0.315 0.205 0.44 0.335s0.36 0.255 0.565 0.045l0.045 0.030-0.27 0.32c-0.095 0.115-0.18 0.24-0.285 0.345-0.385 0.38-0.2 0.745 0.115 1.065 0.362 0.329 0.769 0.62 1.207 0.859l0.033 0.016c0.059 0.048 0.135 0.077 0.218 0.077s0.159-0.029 0.218-0.078l-0.001 0c0.5-0.324 1.112-0.517 1.769-0.517 0.259 0 0.511 0.030 0.753 0.087l-0.022-0.004c0.014 0.003 0.031 0.004 0.048 0.004 0.059 0 0.113-0.018 0.158-0.050l-0.001 0.001c0.168-0.132 0.382-0.211 0.615-0.211 0.053 0 0.105 0.004 0.156 0.012l-0.006-0.001c0.001 0 0.001 0 0.002 0 0.127 0 0.245-0.041 0.34-0.111l-0.002 0.001c0.085-0.075 0.156-0.163 0.212-0.26l0.003-0.005 0.775-1.040c0.245 0.17 0.5 0.305 0.675 0.5 0.090 0.088 0.214 0.143 0.35 0.143s0.26-0.055 0.35-0.143l-0 0c0.413-0.285 0.908-0.482 1.443-0.553l0.017-0.002c0.24 0 0.355 0.035 0.43 0.25s0.16 0.36 0.26 0.58c0.039-0.052 0.071-0.111 0.094-0.175l0.001-0.005c0.067-0.376 0.379-0.662 0.762-0.69l0.003-0c0.254-0.025 0.468-0.175 0.583-0.386l0.002-0.004 0.18-0.32 0.105 0.095 0.135 0.18c0.205-0.092 0.449-0.174 0.701-0.234l0.029-0.006c0.65-0.085 1.305-0.135 1.96-0.195 0.029-0.004 0.063-0.006 0.097-0.006 0.402 0 0.731 0.31 0.763 0.704l0 0.003c0 0.13 0.050 0.235 0.21 0.195 0.32-0.060 0.635-0.145 0.99-0.235zM27.575 5.15h-4.575c-0.1 0-0.225-0.045-0.255 0.14-0.026 0.163-0.079 0.309-0.153 0.442l0.003-0.007c-0.53 0.965-1.065 1.92-1.6 2.88-0.195 0.355-0.385 0.715-0.6 1.105 0.125 0 0.2 0 0.275 0 1.4-0.1 2.805-0.205 4.205-0.295 0.188-0.002 0.35-0.108 0.434-0.262l0.001-0.003c0.605-1.003 1.332-1.859 2.176-2.583l0.014-0.012c0.051-0.043 0.085-0.104 0.090-0.174l0-0.001c-0.010-0.38-0.015-0.79-0.015-1.23zM14.030 9.115c-0.026-0.076-0.055-0.14-0.088-0.202l0.003 0.007-1.635-2.92c-0.117-0.161-0.208-0.35-0.262-0.553l-0.003-0.012c-0.025-0.235-0.11-0.26-0.31-0.26h-4.5c0.026 0.169 0.067 0.32 0.125 0.464l-0.005-0.014c0.66 1.205 1.335 2.41 2 3.615 0.031 0.083 0.11 0.141 0.202 0.141 0.024 0 0.048-0.004 0.070-0.012l-0.002 0c0.71-0.115 1.42-0.225 2.13-0.325 0.126-0.034 0.271-0.053 0.421-0.053 0.287 0 0.557 0.072 0.793 0.198l-0.009-0.004c0.027 0.007 0.058 0.012 0.090 0.012s0.063-0.004 0.092-0.012l-0.002 0.001zM17.295 23.46l2.79-5.025c-0.5 0.030-0.5 0-0.56-0.27-0.039-0.351-0.333-0.621-0.691-0.621-0.014 0-0.027 0-0.041 0.001l0.002-0c-0.29 0-0.58 0-0.87 0.055-0.621 0.012-1.209 0.141-1.746 0.367l0.031-0.012c-0.085 0.045-0.22 0-0.37-0.030-0.225 0.41-0.465 0.85-0.715 1.28-0.038 0.053-0.060 0.119-0.060 0.19s0.023 0.137 0.061 0.191l-0.001-0.001c0.47 0.835 0.925 1.67 1.39 2.5zM16.15 25.5c0.32-0.57 0.6-1.095 0.9-1.605 0.040-0.056 0.063-0.127 0.063-0.203s-0.024-0.146-0.064-0.204l0.001 0.001-2.44-4.395c-0.035-0.065-0.085-0.12-0.145-0.21-0.023 0.070-0.047 0.128-0.074 0.184l0.004-0.009c-0.045 0.070-0.095 0.13-0.145 0.195-0.061-0.052-0.114-0.112-0.158-0.177l-0.002-0.003c-0.085-0.165-0.15-0.34-0.24-0.5-0.039-0.071-0.104-0.124-0.183-0.145l-0.002-0c-0.457 0.008-0.88 0.149-1.233 0.385l0.008-0.005c1.23 2.24 2.455 4.45 3.71 6.69zM6.945 5.155c-0.665 0-1.375 0-2.080 0-0.050 0-0.135 0.125-0.135 0.195 0 0.325 0 0.65 0 0.975 0.012 0.095 0.052 0.179 0.11 0.245l-0-0c0.446 0.433 0.865 0.883 1.262 1.352l0.023 0.028c0.5 0.645 0.915 1.35 1.375 2.025 0.050 0.070 0.175 0.17 0.22 0.155 0.5-0.215 1-0.45 1.5-0.69l-0.105-0.21c-0.635-1.15-1.28-2.295-1.91-3.45-0.084-0.166-0.172-0.373-0.247-0.585l-0.013-0.040zM15.82 8.93c-0.050-0.105-0.095-0.195-0.14-0.275-0.655-1.18-1.315-2.36-1.97-3.545-0.053-0.087-0.085-0.192-0.085-0.304 0-0.004 0-0.008 0-0.012v0.001c0.004-0.026 0.006-0.056 0.006-0.086 0-0.209-0.1-0.395-0.254-0.513l-0.002-0.001c-0.12-0.095-0.2-0.235-0.325-0.31-0.139-0.107-0.309-0.181-0.494-0.209l-0.006-0.001c-2.705 0-5.41 0-8.115 0-0.066-0.010-0.141-0.016-0.219-0.016-0.469 0-0.889 0.211-1.169 0.543l-0.002 0.002c-0.142 0.152-0.23 0.355-0.235 0.579l-0 0.001c0 0.66 0 1.32 0 1.975-0.001 0.015-0.002 0.032-0.002 0.049 0 0.204 0.094 0.386 0.241 0.505l0.001 0.001c0.365 0.295 0.75 0.575 1.090 0.9 0.676 0.668 1.268 1.417 1.761 2.234l0.029 0.051c0.18 0.285 0.2 0.29 0.54 0.090-0.28-0.42-0.55-0.855-0.85-1.26-0.504-0.767-1.128-1.41-1.853-1.92l-0.022-0.015c-0.314-0.134-0.53-0.441-0.53-0.798 0-0.003 0-0.005 0-0.008v0c0.040-0.57 0-1.145 0-1.715 0.034-0.442 0.394-0.79 0.839-0.805l0.001-0h8.4c0.085 0 0.2 0 0.25 0.050 0.24 0.24 0.585 0.41 0.5 0.845 0.008 0.111 0.046 0.212 0.106 0.297l-0.001-0.002c0.64 1.155 1.295 2.31 1.93 3.47 0.052 0.155 0.196 0.265 0.366 0.265 0.080 0 0.154-0.024 0.216-0.066l-0.001 0.001zM18.395 8.86v0.085c0.62-0.24 0.85 0.18 1.085 0.58l0.060 0.085c0.065 0.111 0.184 0.184 0.32 0.184 0.148 0 0.275-0.086 0.334-0.211l0.001-0.002 2.21-4c0.047-0.127 0.084-0.275 0.104-0.429l0.001-0.011c-0.655 0-1.24 0-1.825 0-0.24 0-0.47-0.035-0.43 0.325 0 0.055-0.050 0.11-0.080 0.165-0.27 0.5-0.54 1-0.815 1.5zM26.795 9.215c0.355-0.054 0.663-0.226 0.889-0.474l0.001-0.001c0.251-0.295 0.517-0.56 0.805-0.802l0.010-0.008c0.245-0.22 0.5-0.42 0.77-0.625 0.142-0.113 0.232-0.285 0.232-0.479 0-0.018-0.001-0.036-0.002-0.053l0 0.002c-0.013-0.228-0.021-0.494-0.021-0.763s0.008-0.535 0.022-0.799l-0.002 0.037c0.015-0.077 0.024-0.165 0.024-0.255 0-0.438-0.203-0.829-0.521-1.083l-0.003-0.002c-0.159-0.147-0.371-0.24-0.604-0.245l-0.001-0h-8.475c-0.656 0.017-1.188 0.526-1.24 1.17l-0 0.005c-0.015 0.128-0.057 0.243-0.122 0.343l0.002-0.003q-1 1.765-1.97 3.5c-0.027 0.055-0.056 0.124-0.081 0.196l-0.004 0.014c0.049 0.020 0.106 0.031 0.165 0.031 0.195 0 0.362-0.124 0.424-0.298l0.001-0.003c0.615-1.135 1.255-2.255 1.875-3.385 0.065-0.12 0.107-0.262 0.115-0.412l0-0.003c0.064-0.391 0.366-0.696 0.749-0.764l0.006-0.001h8.535c0.359 0.094 0.636 0.374 0.724 0.728l0.001 0.007q0 1 0 1.95c0.001 0.009 0.001 0.020 0.001 0.030 0 0.069-0.021 0.133-0.057 0.186l0.001-0.001c-0.189 0.197-0.393 0.375-0.612 0.536l-0.013 0.009c-0.633 0.483-1.171 1.050-1.609 1.69l-0.016 0.025zM10.795 18.535c-0.235 0.145-0.21 0.26-0.13 0.4q0.73 1.3 1.445 2.6 1.82 3.295 3.655 6.575c0.083 0.144 0.225 0.246 0.392 0.275l0.003 0c0.168-0.030 0.308-0.132 0.389-0.272l0.001-0.003q1.89-3.36 3.75-6.735l1.29-2.325-0.36-0.17-5.070 9.12c-0.060-0.095-0.1-0.15-0.135-0.21q-1.22-2.19-2.44-4.39c-0.81-1.46-1.615-2.915-2.43-4.37-0.12-0.186-0.242-0.348-0.374-0.5l0.004 0.005zM15.295 18.385c-0.76 0.15-0.78 0.185-0.44 0.69h0.050z"
  />
  <path
    d="M3.075 14.355c-0.721 0.212-1.346 0.556-1.877 1.006l0.007-0.006c-0.016 0.031-0.025 0.068-0.025 0.107s0.009 0.076 0.026 0.109l-0.001-0.001c0.118 0.206 0.233 0.448 0.328 0.699l0.012 0.036c-0.195-0.27-0.375-0.545-0.545-0.805-0.017-0.029-0.028-0.063-0.030-0.1l-0-0.001c0.027-0.583 0.329-1.089 0.779-1.396l0.006-0.004c1.17-0.455 2.34-0.895 3.5-1.335 0.375-0.14 0.76-0.26 1.145-0.385 0.021 0.050 0.033 0.108 0.033 0.168 0 0.132-0.057 0.25-0.148 0.331l-0 0c-0.323 0.323-0.554 0.739-0.647 1.205l-0.003 0.015c-0.011 0.059-0.017 0.126-0.017 0.195s0.006 0.136 0.018 0.202l-0.001-0.007c-0 0.005-0 0.011-0 0.017 0 0.207 0.168 0.375 0.375 0.375 0.045 0 0.088-0.008 0.128-0.022l-0.003 0.001c0.24-0.027 0.458-0.098 0.654-0.205l-0.009 0.005c0.65-0.385 1.275-0.8 1.91-1.21 0.050-0.046 0.094-0.097 0.133-0.152l0.002-0.003c-0.101-0.050-0.224-0.099-0.35-0.14l-0.020-0.005c-0.425-0.115-0.85-0.225-1.28-0.315-0.142-0.006-0.255-0.122-0.255-0.265 0-0.018 0.002-0.035 0.005-0.052l-0 0.002c0-0.5 0-0.5-0.5-0.36-0.171 0.069-0.388 0.139-0.61 0.196l-0.040 0.009c-0.085 0-0.25 0-0.28-0.075-0.014-0.053-0.022-0.114-0.022-0.178s0.008-0.124 0.024-0.182l-0.001 0.005c0-0.040 0.075-0.070 0.12-0.095 1.476-0.932 3.192-1.655 5.024-2.074l0.111-0.021c0.158-0.040 0.339-0.062 0.526-0.062 0.354 0 0.69 0.082 0.988 0.228l-0.013-0.006c0.183 0.092 0.4 0.147 0.628 0.147 0.064 0 0.127-0.004 0.189-0.012l-0.007 0.001c0.736-0.031 1.426-0.101 2.102-0.208l-0.102 0.013c0.834-0.13 1.819-0.218 2.819-0.244l0.031-0.001c0.010-0.001 0.021-0.002 0.032-0.002 0.050 0 0.097 0.012 0.14 0.033l-0.002-0.001c-0.040 0.023-0.086 0.043-0.135 0.059l-0.005 0.001c-1.17 0.3-2.335 0.655-3.525 0.865-0.722 0.1-1.345 0.225-1.954 0.385l0.114-0.025c-0.53 0.16-1.050 0.345-1.645 0.54 0.082-0.078 0.156-0.163 0.221-0.255l0.004-0.005c0.075-0.16 0.21-0.36 0.165-0.5-0.075-0.22-0.34-0.15-0.5-0.1-0.459 0.132-0.851 0.284-1.225 0.465l0.045-0.020c-0.406 0.228-0.751 0.455-1.079 0.702l0.024-0.017c-0.175 0.12-0.145 0.26 0.035 0.34 0.27 0.12 0.56 0.205 0.835 0.32 0.266 0.099 0.492 0.207 0.706 0.332l-0.021-0.012c0.136 0.050 0.232 0.179 0.232 0.329 0 0.106-0.047 0.201-0.121 0.265l-0 0c-0.141 0.194-0.306 0.359-0.494 0.496l-0.006 0.004c-1.055 0.705-2.105 1.43-3.195 2.080-0.42 0.237-0.91 0.412-1.43 0.497l-0.025 0.003c-0.119 0.034-0.256 0.054-0.398 0.054-0.775 0-1.413-0.588-1.492-1.342l-0.001-0.006c-0.080-0.155-0.095-0.375-0.135-0.63z"
  />
  <path
    d="M27.68 14.785c0.2 0.27 0.21 0.46-0.075 0.605-0.421 0.217-0.918 0.42-1.434 0.578l-0.066 0.017c-0.5 0.15-1 0.225-1.54 0.335l-0.185 0.055c0.623 0.688 1.385 1.239 2.243 1.609l0.042 0.016c0.029 0.012 0.062 0.019 0.098 0.019s0.069-0.007 0.099-0.019l-0.002 0.001c1.273-0.637 2.365-1.423 3.312-2.357l-0.002 0.002c0.034-0.041 0.065-0.087 0.093-0.135l0.002-0.005c-0.145-0.090-0.27-0.18-0.405-0.25-0.56-0.275-1.125-0.535-1.68-0.815-0.193-0.097-0.357-0.197-0.512-0.308l0.012 0.008c-0.214-0.19-0.497-0.305-0.807-0.305-0.068 0-0.135 0.006-0.2 0.016l0.007-0.001v-0.070l0.665-0.12c0.192 0.158 0.406 0.306 0.632 0.438l0.023 0.012c0.45 0.195 0.92 0.34 1.375 0.53s0.935 0.44 1.405 0.65c0.141 0.063 0.239 0.199 0.245 0.359l0 0.001c0.012 0.042 0.020 0.089 0.020 0.139 0 0.194-0.11 0.362-0.272 0.445l-0.003 0.001c-0.675 0.5-1.34 1-2 1.545l2-1.175c-0.027 0.265-0.082 0.507-0.162 0.738l0.007-0.023c-0.105 0.211-0.264 0.381-0.46 0.497l-0.005 0.003c-1 0.5-2 0.97-3 1.43-0.452 0.156-0.828 0.438-1.096 0.804l-0.004 0.006c-0.185-0.25-0.335-0.5-0.5-0.695-0.375-0.43-0.805-0.815-1.14-1.275-0.435-0.6-0.795-1.255-1.185-1.87-0.125 0.278-0.198 0.603-0.198 0.945 0 0.175 0.019 0.346 0.055 0.511l-0.003-0.016c-0.5 0-1.030-0.17-1.6 0.040 0.044-0.154 0.107-0.289 0.188-0.41l-0.003 0.005c0.723-0.883 1.331-1.898 1.777-2.996l0.028-0.079c0.045-0.1 0-0.24 0-0.405 0.029-0.021 0.065-0.036 0.104-0.040l0.001-0c0.163-0.012 0.352-0.019 0.544-0.019 1.141 0 2.224 0.246 3.2 0.689l-0.049-0.020c0.136 0.083 0.253 0.171 0.363 0.267l-0.003-0.002-1.21-0.46v0.065c0.38 0.295 1 0.35 0.96 1.060 0.165-0.135 0.39-0.26 0.3-0.57zM23.34 15.62l0.065 0.065c0.085-0.040 0.157-0.082 0.225-0.128l-0.005 0.003c0.121-0.105 0.28-0.169 0.455-0.169 0.050 0 0.098 0.005 0.145 0.015l-0.005-0.001c0.071 0.010 0.152 0.015 0.235 0.015 0.202 0 0.396-0.033 0.578-0.094l-0.013 0.004c0.156-0.058 0.274-0.187 0.314-0.347l0.001-0.003c-0.028-0.168-0.135-0.305-0.282-0.374l-0.003-0.001c-0.274-0.089-0.595-0.157-0.926-0.189l-0.019-0.001c-0.077 0.001-0.144 0.040-0.184 0.099l-0 0.001c-0.2 0.365-0.39 0.735-0.58 1.105z"
  />
  <path
    d="M24.395 9.81c-0.765 0.44-1.665 0.25-2.47 0.54h1.075l-0.5 0.31c0.025 0.045 0.035 0.070 0.040 0.070 0.645-0.055 1.29-0.105 1.935-0.17 0.565-0.060 1.13-0.15 1.695-0.195 0.303-0.005 0.587-0.076 0.842-0.2l-0.012 0.005c0.413-0.207 0.897-0.336 1.409-0.355l0.006-0c0.65-0.060 1.3-0.185 1.95-0.285l0.26-0.040c-0.142 0.294-0.397 0.514-0.707 0.608l-0.008 0.002c-0.78 0.155-1.56 0.32-2.34 0.5v0.075l0.645-0.080c-0.666 0.405-1.434 0.746-2.247 0.983l-0.068 0.017 0.42-0.365v-0.065c-0.35 0.040-0.705-0.095-1.050 0.105-0.822 0.435-1.524 0.976-2.121 1.615l-0.004 0.005c-0.030 0.035-0.075 0.090-0.12 0.095l-1.66 0.175-0.045-0.075c0.38-0.315 0.75-0.645 1.145-0.945s0.805-0.55 1.19-0.885l-2.405 0.325v-0.080l0.79-0.5c-0.134-0.033-0.289-0.052-0.447-0.052-0.077 0-0.152 0.004-0.227 0.013l0.009-0.001c-0.559 0.158-1.202 0.253-1.866 0.26l-0.004 0c-0.855 0.095-1.71 0.19-2.565 0.295-0.111 0.041-0.207 0.095-0.292 0.162l0.002-0.002 0.030 0.070 2.275-0.185 0.035 0.075-0.6 0.44c-0.127-0.036-0.273-0.058-0.424-0.060h-0.001c-0.35 0.045-0.69 0.125-1.035 0.185-0.039 0.009-0.084 0.015-0.13 0.015s-0.091-0.005-0.134-0.016l0.004 0.001c-0.265-0.085-0.365 0.060-0.44 0.295l1.93-0.18c-0.135 0.325-0.38 0.33-0.605 0.37-0.506 0.051-0.964 0.133-1.408 0.249l0.063-0.014c-0.415 0.14-0.72-0.065-1.11-0.135l0.755-1.135-0.5 0.055-0.040-0.050c0.31-0.155 0.37-0.56 0.78-0.635 1.66-0.315 3.31-0.7 5-0.97 1.095-0.18 2.215-0.215 3.32-0.31z"
  />
  <path
    d="M12.34 14.29c0.377-0.412 0.917-0.669 1.518-0.669 0.085 0 0.17 0.005 0.252 0.015l-0.010-0.001c0.265 0.092 0.496 0.215 0.702 0.37l-0.007-0.005-0.405 0.175c-0.101-0.044-0.217-0.076-0.34-0.090l-0.005-0c-0.59 0.070-1.18 0.16-1.77 0.235-0.165 0-0.33 0-0.5 0-0.079 0-0.152 0.026-0.211 0.071l0.001-0.001c-0.295 0.28-0.58 0.575-0.865 0.865l0.040 0.065 2.315-0.63c-0.038 0.116-0.082 0.215-0.134 0.309l0.004-0.009c-0.23 0.24-0.47 0.47-0.71 0.7-0.040 0.035-0.11 0.085-0.155 0.075-0.132-0.017-0.286-0.026-0.441-0.026-0.388 0-0.763 0.059-1.116 0.168l0.027-0.007c-0.395 0.060-0.785 0.175-1.16 0.265 0.115 0.080 0.25 0.13 0.305 0.225s-0.045 0.205-0.105 0.29c-0.275 0.425-0.57 0.84-0.845 1.27-0.050 0.112-0.16 0.188-0.288 0.188-0.015 0-0.029-0.001-0.043-0.003l0.002 0c-0.032-0.004-0.068-0.006-0.105-0.006-0.27 0-0.515 0.107-0.695 0.281l0-0c-0.115 0.115-0.23 0.23-0.070 0.42-0.165-0.24-0.38-0.185-0.595-0.155l-2.15 0.325c-0.030 0-0.060 0-0.14-0.050 0.389-0.467 0.786-0.887 1.207-1.283l0.008-0.007c1.455-1.21 3.030-2.25 4.57-3.34 0.395-0.261 0.862-0.45 1.363-0.537l0.022-0.003c0.21-0.050 0.355-0.025 0.4 0.225 0.031 0.108 0.075 0.203 0.132 0.289l-0.002-0.004z"
  />
  <path
    d="M17.5 13.85c-0.111 0.241-0.351 0.406-0.629 0.406-0.011 0-0.022-0-0.033-0.001l0.002 0c-0.706 0.056-1.34 0.328-1.845 0.749l0.005-0.004c-0.104 0.119-0.191 0.256-0.256 0.405l-0.004 0.010c0.123 0.041 0.278 0.081 0.436 0.111l0.024 0.004c0.107-0.001 0.21-0.012 0.311-0.032l-0.011 0.002c0.22 0 0.31-0.125 0.315-0.385l-0.675 0.065c0.064-0.079 0.131-0.149 0.203-0.213l0.002-0.002c0.365-0.261 0.812-0.43 1.297-0.465l0.008-0c0.22 0 0.22 0.080 0.135 0.235-0.27 0.5-0.53 1-0.81 1.5-0.063 0.074-0.144 0.131-0.236 0.164l-0.004 0.001c-0.33 0.16-0.665 0.3-1 0.465s-0.5 0.295-0.755 0.45c0.285-0.57 0.535-1.17 1.255-1.37l-0.035-0.080c-0.1 0.015-0.216 0.024-0.334 0.025h-0.001c-0.070 0.003-0.151 0.005-0.234 0.005-0.212 0-0.421-0.013-0.626-0.038l0.025 0.002c-0.34-0.060-0.44-0.3-0.225-0.555 0.5-0.59 1.075-1.11 1.95-1.035 0.075 0 0.16-0.050 0.24-0.085 0.3-0.14 0.595-0.295 0.905-0.41s0.3-0.070 0.6 0.075z"
  />
  <path
    d="M26.645 13.29c-0.68 0.070-1.36 0.15-2.040 0.21-0.5 0.050-1 0.060-1.5 0.125-0.221 0.073-0.408 0.152-0.586 0.245l0.021-0.010c-0.191 0.065-0.413 0.113-0.643 0.134l-0.012 0.001c-0.28 0-0.565 0-0.845 0-0.103 0.007-0.194 0.051-0.26 0.12l-0 0c-0.385 0.487-0.688 1.061-0.876 1.684l-0.009 0.036c-0.020 0.111-0.035 0.241-0.040 0.375l-0 0.005h-0.98l1.075-2.215-2.175 0.19c0.045-0.2 0.125-0.315 0.36-0.27 0.001 0 0.002 0 0.003 0 0.112 0 0.219-0.020 0.318-0.057l-0.006 0.002c0.030 0 0.060-0.035 0.095-0.040 0.385 0 0.765-0.030 1.15-0.030 0.014 0 0.030 0 0.046 0 1.317 0 2.601-0.142 3.837-0.412l-0.118 0.022c0.415-0.090 0.825-0.23 1.255-0.305 0.154-0.023 0.332-0.036 0.513-0.036 0.272 0 0.536 0.030 0.791 0.086l-0.024-0.005c0.215 0.040 0.435 0.060 0.65 0.090z"
  />
  <path
    d="M13.085 13.26l-0.725 0.42c0.035-0.214 0.084-0.403 0.147-0.584l-0.007 0.024c0.1-0.23 0.24-0.445 0.35-0.675s0.145-0.375 0.24-0.625c0.525-0.055 1.135-0.13 1.74-0.185 0.060 0 0.135 0.060 0.185 0.11 0.063 0.075 0.122 0.158 0.175 0.246l0.005 0.009c-0.175 0.595-0.795 0.47-1.195 0.725 0.596 0.243 1.288 0.385 2.013 0.385 0.753 0 1.47-0.152 2.123-0.428l-0.036 0.013v0.105c-0.285 0.135-0.565 0.29-0.86 0.405-0.47 0.18-0.955 0.33-1.435 0.5-0.050 0-0.105 0.055-0.15 0.045-0.357-0.071-0.663-0.157-0.96-0.264l0.045 0.014c-0.45-0.17-0.88-0.39-1.325-0.58-0.092-0.026-0.198-0.040-0.307-0.040-0.008 0-0.016 0-0.024 0l0.001-0zM14.175 12.16l-0.040-0.1c-0.26 0.1-0.5 0.19-0.77 0.305-0.035 0-0.030 0.115-0.045 0.18 0.070 0 0.16 0.060 0.21 0.035 0.22-0.13 0.43-0.28 0.645-0.42z"
  />
  <path
    d="M12.1 13.23c-0.545 0.135-1.055 0.265-1.565 0.38-0.075 0-0.165-0.050-0.235-0.080l1.54-1.64-0.050-0.075-1.095 0.39c-0.43 0.165-0.425 0.165-0.86-0.080 0.135-0.095 0.27-0.19 0.41-0.28 0.035-0.025 0.105-0.055 0.115-0.040 0.175 0.215 0.33 0 0.5 0 1.16-0.255 2.32-0.53 3.5-0.775 0.675-0.14 1.36-0.245 2.050-0.34-0.175 0.065-0.345 0.135-0.5 0.19-0.231 0.047-0.423 0.184-0.543 0.372l-0.002 0.003c-0.058 0.065-0.142 0.106-0.236 0.106-0.009 0-0.017-0-0.025-0.001l0.001 0c-0.109-0.006-0.237-0.009-0.365-0.009-0.637 0-1.256 0.080-1.846 0.23l0.052-0.011c-0.037 0.004-0.070 0.020-0.095 0.045v0c-0.205 0.265-0.415 0.53-0.6 0.81s-0.43 0.48-0.15 0.805z"
  />
  <path
    d="M17.565 13.5c0.045-0.085 0.045-0.095 0.055-0.1 0.72-0.245 1.105-0.855 1.5-1.435 0.094-0.162 0.264-0.271 0.459-0.28l0.001-0c0.23 0 0.455-0.070 0.68-0.095s0.345-0.090 0.47 0.11c0.025 0.045 0.145 0.045 0.22 0.045h1.115c-0.113 0.179-0.307 0.3-0.529 0.31l-0.001 0c-0.5 0-1.030 0.055-1.545 0.105-0.116 0.033-0.218 0.083-0.308 0.147l0.003-0.002v0.095l1.865-0.095c-0.215 0.17-0.365 0.37-0.72 0.325-0.015-0-0.034-0-0.052-0-0.431 0-0.852 0.042-1.259 0.122l0.041-0.007c-0.006-0-0.013-0-0.020-0-0.227 0-0.422 0.136-0.508 0.332l-0.001 0.004 1.88-0.17c-0.273 0.23-0.615 0.387-0.991 0.434l-0.009 0.001c-0.5 0-1.030 0.11-1.55 0.15-0.245 0.005-0.505 0.005-0.795 0.005z"
  />
  <path
    d="M20.735 14.535l2.29-0.44c-0.14 0.445-0.25 0.54-0.74 0.615-0.295 0.050-0.59 0.095-0.875 0.17-0.108 0.054-0.201 0.123-0.28 0.205l-0 0 0.040 0.075c0.265-0.040 0.535-0.085 0.8-0.11 0.12-0.010 0.261-0.015 0.402-0.015s0.282 0.005 0.421 0.016l-0.018-0.001c-0.205 0.145-0.285 0.425-0.585 0.46-0.39 0.050-0.785 0.1-1.17 0.17-0.080 0-0.14 0.145-0.215 0.22l0.045 0.070 1.685-0.3c-0.22 0.36-0.425 0.625-0.84 0.655-0.618 0.079-1.175 0.278-1.67 0.571l0.020-0.011c-0.004-0.015-0.006-0.032-0.006-0.050s0.002-0.035 0.006-0.052l-0 0.002c0.25-0.595 0.32-1.265 0.76-1.78 0.125-0.16 0.155-0.305-0.070-0.47z"
  />
  <path
    d="M17.68 16.21l0.35-0.715c-0.078-0.044-0.172-0.070-0.272-0.070-0.24 0-0.445 0.15-0.527 0.361l-0.001 0.004c-0.245 0.525-0.275 0.54-0.945 0.5 0.105-0.185 0.2-0.365 0.305-0.53 0.215-0.34 0.455-0.665 0.655-1 0.139-0.238 0.393-0.395 0.684-0.395 0.044 0 0.088 0.004 0.13 0.011l-0.005-0.001-0.34 0.57c0.425 0.045 0.785 0 0.97-0.41 0.14-0.32 0.41-0.335 0.735-0.295-0.029 0.076-0.058 0.139-0.090 0.2l0.005-0.010c-0.275 0.545-0.55 1.095-0.835 1.635-0.039 0.072-0.104 0.126-0.183 0.149l-0.002 0.001c-0.195 0.005-0.395-0.005-0.635-0.005z"
  />
  <path
    d="M13.155 16.715l-2.185 0.4v0.13c-0.17-0.2-0.12-0.335 0.070-0.44s0.39-0.205 0.575-0.32 0.225-0.185 0.35-0.27 0.23-0.135 0.345-0.2c0.069-0.035 0.129-0.079 0.18-0.13l0-0c0.3-0.37 0.58-0.75 0.895-1.105 0.249-0.245 0.584-0.401 0.957-0.42l0.003-0 0.045 0.070c-0.089 0.053-0.166 0.11-0.237 0.172l0.002-0.002c-0.23 0.235-0.465 0.47-0.68 0.715-0.057 0.074-0.091 0.169-0.091 0.271 0 0.008 0 0.017 0.001 0.025l-0-0.001c0.001 0.013 0.001 0.028 0.001 0.043 0 0.246-0.077 0.473-0.208 0.66l0.002-0.004c-0.021 0.082-0.033 0.176-0.033 0.273 0 0.047 0.003 0.092 0.008 0.138l-0.001-0.005z"
  />
</svg>
