<svg xmlns="http://www.w3.org/2000/svg" viewBox="0 0 36 32">
  <path
    d="M7.83 25.972l-7.605-7.605c-0.137-0.139-0.222-0.329-0.222-0.54s0.085-0.401 0.222-0.54l7.605-7.61c0.139-0.137 0.329-0.222 0.54-0.222s0.401 0.085 0.54 0.222l7.605 7.61c0.137 0.139 0.222 0.329 0.222 0.54s-0.085 0.401-0.222 0.54l-7.605 7.605c-0.139 0.137-0.329 0.222-0.54 0.222s-0.401-0.085-0.54-0.222l0 0z"
  />
  <path
    d="M26.821 25.972l-7.61-7.605c-0.137-0.139-0.222-0.329-0.222-0.54s0.085-0.401 0.222-0.54l7.61-7.61c0.139-0.137 0.329-0.222 0.54-0.222s0.401 0.085 0.54 0.222l7.605 7.61c0.137 0.139 0.222 0.329 0.222 0.54s-0.085 0.401-0.222 0.54l-7.605 7.605c-0.139 0.137-0.329 0.222-0.54 0.222s-0.401-0.085-0.54-0.222l0 0z"
  />
  <path
    d="M24.866 32c0.002 0 0.004 0 0.006 0 0.382 0 0.691-0.309 0.691-0.691 0-0.192-0.078-0.366-0.205-0.491l-7.006-7.001c-0.125-0.124-0.297-0.2-0.486-0.2-0.007 0-0.014 0-0.022 0l0.001-0-2.584 8.383z"
  />
  <path
    d="M18.403 16.514l7.605-7.6c0.137-0.139 0.222-0.329 0.222-0.54s-0.085-0.401-0.222-0.54l-7.605-7.61c-0.138-0.139-0.33-0.225-0.541-0.225-0.006 0-0.012 0-0.017 0h0.001l-3.045 7.589 3.045 9.15c0.005 0 0.011 0 0.017 0 0.212 0 0.403-0.086 0.541-0.225l0-0z"
  />
  <path
    d="M17.323 0.225l-7.605 7.605c-0.137 0.139-0.222 0.329-0.222 0.54s0.085 0.401 0.222 0.54l7.605 7.605c0.134 0.135 0.317 0.22 0.521 0.225l0.001 0v-16.739c-0.205 0.005-0.388 0.090-0.522 0.225l-0 0z"
  />
  <path
    d="M10.373 30.818c-0.127 0.125-0.205 0.299-0.205 0.491 0 0.382 0.309 0.691 0.691 0.691 0.002 0 0.004 0 0.006-0h6.98v-8.383c-0.184 0.004-0.35 0.080-0.471 0.2l0-0z"
  />
</svg>
