<svg xmlns="http://www.w3.org/2000/svg" viewBox="0 0 43 32">
  <path
    d="M22.215 31.697l20.417-20.417c0.19-0.19 0.307-0.451 0.307-0.741s-0.117-0.551-0.307-0.741l-9.481-9.475c-0.19-0.19-0.451-0.307-0.741-0.307s-0.551 0.117-0.741 0.307l-9.454 9.454c-0.181 0.18-0.428 0.294-0.701 0.303l-0.002 0-0.91 0.117 0.91 21.802c0.275-0.009 0.522-0.123 0.703-0.303l-0 0z"
  />
  <path
    d="M0.303 11.266l20.431 20.431c0.188 0.188 0.448 0.304 0.735 0.304 0.015 0 0.031-0 0.046-0.001l-0.002 0v-21.912c-0.013 0.001-0.028 0.001-0.044 0.001-0.287 0-0.547-0.116-0.735-0.304v0l-9.468-9.481c-0.19-0.19-0.451-0.307-0.741-0.307s-0.551 0.117-0.741 0.307l-9.481 9.481c-0.19 0.19-0.307 0.451-0.307 0.741s0.117 0.551 0.307 0.741v0z"
  />
</svg>
