<svg xmlns="http://www.w3.org/2000/svg" viewBox="0 0 32 32">
  <path
    d="M22.686 32c0 0 0.001 0 0.001 0 0.271 0 0.491-0.22 0.491-0.491 0-0.136-0.055-0.259-0.145-0.348v0l-6.868-6.868c-0.088-0.088-0.209-0.142-0.343-0.143h-0l-1.673 7.85z"
  />
  <path
    d="M15.301 0.225l-15.076 15.076c-0.139 0.14-0.225 0.332-0.225 0.545s0.086 0.405 0.225 0.545l7.001 7.001c0.14 0.139 0.332 0.225 0.545 0.225s0.405-0.086 0.545-0.225l6.985-6.985c0.133-0.133 0.314-0.218 0.516-0.225l0.001-0 4.263-7.369-4.263-8.812c-0.203 0.007-0.384 0.092-0.517 0.225l-0 0z"
  />
  <path
    d="M31.483 15.312l-15.087-15.087c-0.139-0.14-0.331-0.226-0.544-0.226-0.012 0-0.024 0-0.036 0.001l0.002-0v16.182c0.009-0 0.019-0.001 0.029-0.001 0.212 0 0.405 0.086 0.544 0.226l7.001 7.001c0.14 0.139 0.332 0.225 0.545 0.225s0.405-0.086 0.545-0.225l7.001-7.001c0.141-0.14 0.227-0.334 0.227-0.548s-0.087-0.408-0.227-0.548l-0-0z"
  />
  <path
    d="M15.47 24.293l-6.868 6.868c-0.089 0.089-0.145 0.212-0.145 0.348 0 0.271 0.22 0.491 0.491 0.491 0 0 0.001 0 0.001 0h6.868v-7.85c-0 0-0.001 0-0.001 0-0.135 0-0.258 0.055-0.347 0.143v0z"
  />
</svg>
