<svg xmlns="http://www.w3.org/2000/svg" viewBox="0 0 32 32">
  <path
    d="M16 0c-0.013-0-0.027-0-0.042-0-7.43 0-13.453 6.023-13.453 13.453 0 0.089 0.001 0.178 0.003 0.267l-0-0.013v11.187h8.693v-9.587h-4.093v-1.6c-0.003-0.088-0.005-0.19-0.005-0.294 0-4.867 3.946-8.813 8.813-8.813 0.030 0 0.060 0 0.089 0l-0.005-0c0.025-0 0.055-0 0.085-0 4.867 0 8.813 3.946 8.813 8.813 0 0.103-0.002 0.206-0.005 0.309l0-0.015v1.6h-4.093v9.587h3.773c-0.867 2.067-3.64 2.507-8.573 2.507v4.6c4.387 0 13.493 0 13.493-8.693v-9.6c0.002-0.075 0.002-0.164 0.002-0.253 0-7.43-6.023-13.453-13.453-13.453-0.015 0-0.030 0-0.045 0h0.002z"
  />
</svg>
