<svg xmlns="http://www.w3.org/2000/svg" viewBox="0 0 32 32">
  <path
    d="M15.994 3.067c-7.2 0.133-12.8 6-12.667 13.2l2.533 0.133c-0.133-5.333 4.267-9.867 9.6-9.867 0.133 0 0.4 0 0.533 0 5.333-0.267 9.867 3.867 10.133 9.333 0 0.267 0 0.4 0 0.667h2.533c0.267-7.333-5.467-13.333-12.667-13.467v0z"
    fill="#ff8fa2"
    style="fill: #ff8fa2"
  />
  <path
    d="M15.994 3.067c-7.2 0.133-12.8 6-12.667 13.2 0 0.8 0.133 1.6 0.267 2.4l0.8-1.867c0-2.267 1.6-11.867 11.6-11.867s11.6 9.6 11.6 12.267c0 0.8 0.267 1.6 0.533 2.4 0.4-1.067 0.533-2.133 0.533-3.2 0.267-7.333-5.467-13.2-12.667-13.333z"
    fill="#fe2247"
    style="fill: #fe2247"
  />
  <path
    d="M18.927 9.6l8.4-4.267c0 0 3.067 6.933-1.867 11.467l-6.533-7.2z"
    fill="#fff"
    style="fill: #fff"
  />
  <path
    d="M22.794 11.333l2.933-1.733c0 0 0.267 2.533-0.933 3.733l-2-2z"
    fill="#d5dceb"
    style="fill: #d5dceb"
  />
  <path
    d="M13.194 9.6l-8.533-4.267c0 0-3.067 6.933 1.867 11.333l6.667-7.067z"
    fill="#fff"
    style="fill: #fff"
  />
  <path
    d="M9.194 11.333l-2.933-1.733c0 0-0.267 2.533 0.8 3.733l2.133-2z"
    fill="#d5dceb"
    style="fill: #d5dceb"
  />
  <path
    d="M27.327 5.333l-8.533 4.267 0.4 0.533 1.2 0.267c0.133-0.133 5.067-2.4 6.933-5.067z"
    fill="#d5dceb"
    style="fill: #d5dceb"
  />
  <path
    d="M4.66 5.333l8.533 4.267-0.533 0.4-1.2 0.267c0 0-4.933-2.267-6.8-4.933z"
    fill="#d5dceb"
    style="fill: #d5dceb"
  />
  <path
    d="M26.394 18.533c0 5.744-4.656 10.4-10.4 10.4s-10.4-4.656-10.4-10.4c0-5.744 4.656-10.4 10.4-10.4s10.4 4.656 10.4 10.4z"
    fill="#fff"
    style="fill: #fff"
  />
  <path
    d="M25.327 22.933c-2 1.2-4.267 2-6.533 2.267 0 0-0.533-0.933-1.467 0s0.4 1.467 2.133 1.2c2.267-0.533 4.533-1.467 6.4-2.667l-0.533-0.8z"
    fill="#fe2247"
    style="fill: #fe2247"
  />
  <path
    d="M26.127 16.267c0 2.4-0.533 4.667-1.333 6.933-0.267 0.4 0 1.067 0.667 1.333 2.667 0.8 5.333-0.667 6.133-3.333 0-0.133 0.133-0.4 0.133-0.533 0.8-4-0.4-6.533-4.133-6.8-0.8 1.467-1.067 1.733-1.467 2.4z"
    fill="#fe2247"
    style="fill: #fe2247"
  />
  <path
    d="M24.66 23.333l0.133 0.133c1.333 0.267 4-5.467 2.267-8.533-0.533 0.8-1.067 1.333-1.067 1.333 0 2.4-0.533 4.667-1.333 7.067 0-0.133 0-0.133 0 0z"
    fill="#ff8fa2"
    style="fill: #ff8fa2"
  />
  <path
    d="M5.994 16.133c0 2.4 0.4 4.8 1.333 7.067 0.267 0.4 0 1.067-0.4 1.2-0.133 0-0.133 0.133-0.267 0.133-2.667 0.8-5.333-0.667-6.267-3.2 0-0.133-0.133-0.4-0.133-0.533-0.8-4 0.533-6.4 4.267-6.667 0.267 0.533 0.933 1.333 1.467 2z"
    fill="#fe2247"
    style="fill: #fe2247"
  />
  <path
    d="M7.327 23.333c0 0-0.133 0 0 0-1.467 0.267-4.667-5.6-2.267-8.533 0 0 0.533 0.8 0.933 1.333 0 2 0.4 4.8 1.333 7.2 0-0.133 0-0.133 0 0z"
    fill="#ff8fa2"
    style="fill: #ff8fa2"
  />
  <path
    d="M24.127 20.133c0 0.295-0.716 0.533-1.6 0.533s-1.6-0.239-1.6-0.533c0-0.295 0.716-0.533 1.6-0.533s1.6 0.239 1.6 0.533z"
    fill="#d5dceb"
    style="fill: #d5dceb"
  />
  <path
    d="M11.060 20.133c0 0.295-0.716 0.533-1.6 0.533s-1.6-0.239-1.6-0.533c0-0.295 0.716-0.533 1.6-0.533s1.6 0.239 1.6 0.533z"
    fill="#d5dceb"
    style="fill: #d5dceb"
  />
  <path
    d="M17.060 24.667c0 0-1.2-0.8-1.733 0.4s2.267 2.4 2.267 2.4c0.667-0.533 1.067-1.333 1.333-2.267 0.133-0.533-0.133-1.067-0.667-1.2s-1.067 0.133-1.2 0.667z"
    fill="#fe2247"
    style="fill: #fe2247"
  />
  <path
    d="M15.060 21.467c-0.133 0-0.133 0 0 0-0.8 0-1.467-0.533-1.733-1.2-0.133-0.267 0-0.8 0.4-0.933s0.667 0 0.933 0.4c0 0.133 0.267 0.267 0.4 0.267s0.267-0.133 0.4-0.267c0.133-0.267 0.4-0.4 0.667-0.4s0.533 0.133 0.667 0.4 0.4 0.267 0.4 0.267c0.667 0.133 0.533-0.8 1.2-0.667 0.4 0.133 0.533 0.533 0.4 1.067-0.267 0.667-0.8 1.067-1.467 1.067-0.4 0-1.067-0.133-1.333-0.4-0.133 0.267-0.667 0.4-0.933 0.4z"
    fill="#284655"
    style="fill: #284655"
  />
  <path
    d="M23.327 18.267c-0.4 0-0.667-0.267-0.8-0.667-0.133-0.267-0.267-0.4-0.533-0.4-0.133 0-0.4 0.133-0.533 0.4-0.133 0.4-0.4 0.667-0.8 0.667s-0.667-0.4-0.667-0.8c0-0.667 0.667-1.733 2-1.733s1.867 1.067 2 1.733c0 0.4-0.133 0.8-0.667 0.8 0.133 0 0 0 0 0z"
    fill="#284655"
    style="fill: #284655"
  />
  <path
    d="M11.194 18.267c-0.4 0-0.667-0.267-0.8-0.667 0-0.133-0.133-0.4-0.533-0.4-0.133 0-0.4 0-0.533 0.4 0 0.4-0.4 0.667-0.8 0.667s-0.667-0.4-0.667-0.8c0-0.667 0.667-1.733 2-1.733s1.867 1.067 2 1.733c0 0.4-0.133 0.8-0.667 0.8 0.133 0 0 0 0 0z"
    fill="#284655"
    style="fill: #284655"
  />
</svg>
