<svg xmlns="http://www.w3.org/2000/svg" viewBox="0 0 32 32">
  <path
    d="M32 25.333h-0.653c-1.685 0.111-3.211 0.71-4.461 1.655l0.021-0.015c-0.764 0.639-1.757 1.027-2.84 1.027-0.023 0-0.047-0-0.070-0.001l0.004 0c-0.031 0.001-0.067 0.001-0.104 0.001-1.063 0-2.038-0.378-2.797-1.007l0.007 0.006c-1.231-0.941-2.761-1.549-4.427-1.665l-0.026-0.001h-1.293c-1.689 0.109-3.221 0.708-4.474 1.655l0.021-0.015c-0.757 0.639-1.744 1.027-2.821 1.027-0.030 0-0.060-0-0.090-0.001l0.004 0c-0.028 0.001-0.062 0.001-0.095 0.001-1.061 0-2.034-0.378-2.792-1.007l0.007 0.006c-1.23-0.942-2.761-1.55-4.428-1.665l-0.026-0.001h-0.667v4c0.041-0.001 0.088-0.001 0.136-0.001 1.876 0 3.605 0.627 4.99 1.683l-0.020-0.015c0.75 0.623 1.723 1.001 2.785 1.001 0.038 0 0.076-0.001 0.114-0.001l-0.006 0c0.031 0.001 0.067 0.001 0.104 0.001 1.063 0 2.038-0.378 2.797-1.007l-0.007 0.006c1.365-1.041 3.094-1.668 4.97-1.668 0.048 0 0.096 0 0.144 0.001l-0.007-0c0.043-0.001 0.094-0.001 0.145-0.001 1.877 0 3.608 0.627 4.995 1.683l-0.020-0.015c0.752 0.623 1.726 1.001 2.789 1.001 0.032 0 0.064-0 0.096-0.001l-0.005 0c0.025 0.001 0.055 0.001 0.085 0.001 1.069 0 2.050-0.378 2.816-1.007l-0.008 0.006c1.36-1.041 3.086-1.668 4.957-1.668 0.053 0 0.105 0 0.157 0.001l-0.008-0v-4z"
  />
  <path
    d="M18.253 5.947c0.456 0.268 1.005 0.426 1.591 0.426 1.76 0 3.187-1.427 3.187-3.187s-1.427-3.187-3.187-3.187c-1.176 0-2.204 0.638-2.756 1.586l-0.008 0.015c-0.266 0.455-0.422 1.002-0.422 1.586 0 1.174 0.635 2.2 1.581 2.753l0.015 0.008z"
  />
  <path
    d="M28.44 19.333c-0.977 0.657-2.154 1.093-3.424 1.211l-0.030 0.002-3-4.827c-0.56-1.062-1.435-1.895-2.5-2.386l-0.033-0.014-1.56-0.693 0.787-1.333 8.533 4.267 1.493-2.987-7.907-4c-0.32 0.065-0.687 0.103-1.063 0.103-0.974 0-1.889-0.25-2.686-0.69l0.029 0.014c-1.128-0.68-1.979-1.721-2.402-2.961l-0.011-0.039c-1.2-0.48-2.667-1.72-2.667-5h-3.4c0 4.12 1.867 6.413 3.853 7.573l-1.24 2.2c-0.267 0.469-0.425 1.031-0.425 1.629 0 1.032 0.469 1.955 1.206 2.567l0.005 0.004 0.587 1.76-6.933 2.667-5.187-0.68c-0.015 0.12-0.024 0.259-0.024 0.399 0 1.702 1.27 3.107 2.914 3.319l0.017 0.002 19.4 2.4c0.443 0.065 0.956 0.104 1.477 0.107h0.003c2.259-0.001 4.356-0.694 6.091-1.877l-0.037 0.024zM12.733 19.24l1.733-0.68c0.975-0.363 1.657-1.286 1.657-2.368 0-0.278-0.045-0.546-0.129-0.797l0.005 0.018 2.147 0.947c0.418 0.199 0.75 0.522 0.955 0.922l0.005 0.012 1.827 2.96z"
  />
</svg>
