<svg xmlns="http://www.w3.org/2000/svg" viewBox="0 0 32 32">
  <path
    d="M25.198 13.001c0.002 0.010 0.004 0.021 0.004 0.033s-0.001 0.023-0.004 0.034l0-0.001z"
  />
  <path
    d="M23.625 20.681c1.071-1.695 1.707-3.758 1.707-5.97 0-0.58-0.044-1.15-0.128-1.706l0.008 0.063-12.147 12.147c0.477 0.076 1.026 0.12 1.585 0.12 0.005 0 0.010 0 0.015 0h-0.001c0.004 0 0.008 0 0.013 0 2.225 0 4.3-0.646 6.046-1.76l-0.045 0.027 7.32 8.4 4-4z"
  />
  <path
    d="M20.865 4.468v0c-5.333-5.333-13.333-5.987-17.853-1.453s-3.88 12.52 1.453 17.853c1.625 1.62 3.617 2.873 5.84 3.622l0.107 0.031 14.147-14.093c-0.793-2.337-2.058-4.333-3.693-5.959l-0.001-0.001zM6.665 16.001c-2.209 0-4-1.791-4-4s1.791-4 4-4c2.209 0 4 1.791 4 4v0c0 2.209-1.791 4-4 4v0z"
  />
</svg>
