<svg xmlns="http://www.w3.org/2000/svg" viewBox="0 0 32 32">
  <path
    d="M8.493 4.333c0.125-0.331 0.198-0.713 0.198-1.112 0-1.782-1.445-3.227-3.227-3.227s-3.227 1.445-3.227 3.227c0 1.386 0.874 2.567 2.1 3.025l0.022 0.007c0.328 0.123 0.708 0.195 1.104 0.195 1.383 0 2.563-0.87 3.022-2.093l0.007-0.022z"
  />
  <path
    d="M29.707 2.88c-5.127 0.184-9.586 2.88-12.204 6.888l-0.036 0.058-2.907-1.693 3.16-1.053c0.688-0.24 1.173-0.884 1.173-1.64 0-0.151-0.019-0.298-0.056-0.438l0.003 0.012-1.187-4.787-3.36 0.84 0.8 3.227-5.76 1.92c-0.801 0.24-1.452 0.77-1.845 1.464l-0.008 0.016-0.187 0.307v0.080c-0.046 0.055-0.090 0.116-0.129 0.18l-0.004 0.007-2.573 5.6c-0.093 0.207-0.147 0.448-0.147 0.702 0 0.651 0.357 1.22 0.885 1.52l0.009 0.005 4.893 2.76 1.707-3.013-3.533-1.987 0.547-1.187 6.48 3.773v-0.12 15.68h3.333v-16.867c2.107-8.64 10.573-8.907 10.933-8.92z"
  />
</svg>
