<svg xmlns="http://www.w3.org/2000/svg" viewBox="0 0 32 32">
  <path
    d="M30.665 22.585c-2.705 6.415-9.96 10.165-16.165 9.29 0.080-0.37 0.14-0.745 0.24-1.11q1-3.75 2.040-7.5c0.060-0.186 0.199-0.331 0.376-0.399l0.004-0.001c1.723-0.269 3.207-1.137 4.262-2.38l0.008-0.010c0.096-0.134 0.252-0.22 0.427-0.22 0.051 0 0.1 0.007 0.147 0.021l-0.004-0.001 7.5 2z"
  />
  <path
    d="M0 14.4l5.905 1.6c0.91 0.245 1.815 0.5 2.725 0.735 0.27 0.070 0.42 0.16 0.47 0.475 0.287 1.748 1.21 3.239 2.52 4.259l0.015 0.011c0.066 0.069 0.106 0.163 0.106 0.266 0 0.025-0.002 0.049-0.007 0.072l0-0.002q-0.975 3.685-1.965 7.36c-0.125 0.455-0.275 0.895-0.43 1.415-3.165-1.459-5.708-3.812-7.363-6.735l-0.042-0.080c-1.279-2.191-2.034-4.824-2.034-7.632 0-0.614 0.036-1.22 0.106-1.815l-0.007 0.072z"
  />
  <path
    d="M32 17.54l-4.1-1.070c-1.5-0.39-2.96-0.79-4.44-1.165-0.297-0.030-0.529-0.271-0.545-0.568l-0-0.002c-0.286-1.654-1.142-3.071-2.354-4.071l-0.011-0.009c-0.158-0.113-0.259-0.295-0.259-0.502 0-0.082 0.016-0.161 0.046-0.233l-0.002 0.004q1.095-4.025 2.165-8.065c0.090-0.345 0.245-0.42 0.565-0.26 2.104 1.031 3.873 2.442 5.283 4.158l0.022 0.027c0.583 0.708 1.145 1.494 1.652 2.318l0.053 0.092c0.918 1.512 1.567 3.29 1.832 5.192l0.008 0.073c0.165 1.19 0.145 2.405 0.195 3.61-0.017 0.173-0.056 0.333-0.114 0.482l0.004-0.012z"
  />
  <path
    d="M17.57 0.095c-0.19 0.77-0.365 1.5-0.565 2.25-0.56 2.080-1.145 4.15-1.7 6.23-0.037 0.283-0.261 0.504-0.542 0.535l-0.003 0c-1.625 0.278-3.022 1.101-4.027 2.271l-0.008 0.009c-0.145 0.187-0.369 0.305-0.621 0.305-0.113 0-0.221-0.024-0.319-0.067l0.005 0.002c-2.39-0.63-4.79-1.255-7.185-1.885-0.395-0.105-0.785-0.24-1.175-0.36 2.12-5.385 8.815-10.12 16.14-9.29z"
  />
</svg>
