<svg xmlns="http://www.w3.org/2000/svg" viewBox="0 0 32 32">
  <path
    d="M5.425 23.97c-0.117-0.009-0.253-0.014-0.39-0.014s-0.273 0.005-0.408 0.015l0.018-0.001c-0.080 0.026-0.171 0.041-0.267 0.041-0.45 0-0.822-0.336-0.878-0.772l-0-0.004c-0.063-0.334-0.351-0.582-0.698-0.582-0.055 0-0.11 0.006-0.161 0.018l0.005-0.001c-0.575 0.030-1.16 0-1.83 0 0.185-0.61 0.385-1.14 0.57-1.67q3.21-9.145 6.415-18.285c0.061-0.356 0.367-0.623 0.735-0.623 0.039 0 0.077 0.003 0.114 0.009l-0.004-0.001c1.755 0.035 3.5 0.045 5.265 0 0.073-0.011 0.158-0.018 0.244-0.018 0.55 0 1.037 0.265 1.343 0.674l0.003 0.004c0.164 0.202 0.327 0.383 0.5 0.555l0 0c0.107-0.068 0.201-0.142 0.285-0.225l-0 0c0.655-0.955 1.605-1 2.655-1 1.55 0.060 3.105 0.040 4.66 0 0.029-0.004 0.062-0.006 0.096-0.006 0.357 0 0.653 0.258 0.714 0.597l0.001 0.004q3.090 9.18 6.235 18.315c0.185 0.53 0.36 1.060 0.575 1.685-0.7 0-1.3-0.030-1.895 0-0.249 0.026-0.465 0.153-0.608 0.338l-0.002 0.002c-0.6 1.050-0.585 1.060-1.94 0.88 0.355-0.85 0.69-1.68 1.070-2.5 0.050-0.105 0.305-0.14 0.5-0.155 0.255-0.025 0.5 0 0.885 0-0.325-0.97-0.61-1.845-0.91-2.71-1.615-4.7-3.245-9.395-4.84-14.105-0.087-0.497-0.515-0.87-1.030-0.87-0.051 0-0.101 0.004-0.15 0.011l0.006-0.001c-4.155 0.020-8.305-0.015-12.42-0.075-0.050-0.009-0.107-0.014-0.166-0.014-0.474 0-0.868 0.339-0.953 0.788l-0.001 0.006q-2.85 8.22-5.765 16.415c-0.050 0.15-0.090 0.3-0.145 0.5 0.105 0.030 0.185 0.085 0.25 0.070 0.86-0.175 1.28 0.245 1.53 1 0.266 0.681 0.532 1.242 0.829 1.783l-0.039-0.078z"
  />
  <path
    d="M32 25c-0.1 0.035-0.215 0.060-0.335 0.070l-0.005 0c-0.093-0.032-0.201-0.050-0.313-0.050-0.526 0-0.957 0.406-0.997 0.922l-0 0.003c-0.1 0.42-0.375 0.5-0.765 0.5-1 0-2-0.030-2.965 0-0.26 0.040-0.478 0.191-0.608 0.401l-0.002 0.004c-0.24 0.44-0.365 0.94-0.595 1.385-0.119 0.182-0.307 0.31-0.525 0.349l-0.005 0.001c-0.217 0.020-0.47 0.032-0.725 0.032s-0.508-0.012-0.757-0.034l0.032 0.002c-0.465-0.045-0.735 0.12-0.815 0.575-0.11 0.64-0.5 0.775-1.115 0.77-3.65-0.030-7.305 0-10.96 0-0.5 0-0.865-0.1-1-0.615-0.073-0.438-0.45-0.768-0.903-0.768-0.099 0-0.194 0.016-0.283 0.045l0.006-0.002c-1.060 0.215-1.675-0.24-1.905-1.265-0.175-0.765-0.655-0.975-1.41-0.915-0.389 0.026-0.843 0.041-1.3 0.041s-0.911-0.015-1.361-0.044l0.061 0.003c-0.205 0-0.54-0.175-0.585-0.335-0.235-0.805-0.71-1.15-1.54-1-0.119-0.007-0.23-0.034-0.332-0.077l0.007 0.002c0.155-0.405 0.275-0.785 0.45-1.14 0.092-0.117 0.228-0.195 0.383-0.21l0.002-0c0.235-0.035 0.5 0 0.725 0 0.077-0.025 0.166-0.039 0.258-0.039 0.46 0 0.837 0.355 0.872 0.806l0 0.003c0.105 0.46 0.4 0.605 0.885 0.6q4.085-0.065 8.17-0.050c0.020 0.001 0.044 0.002 0.067 0.002 0.369 0 0.696-0.186 0.89-0.468l0.002-0.004c0.91-1.185 1.835-2.355 2.76-3.5 0.16-0.205 0.33-0.395 0.53-0.635l3 3.54c-1.36 0.435-2.26-0.095-2.905-1.33-0.85 1.010-1.645 1.925-2.325 2.925-0.347 0.572-0.966 0.948-1.673 0.948-0.080 0-0.159-0.005-0.236-0.014l0.009 0.001c-1.55-0.075-3.11 0-4.66 0h-0.78c0.265 0.565 0.465 1.065 0.725 1.565 0.119 0.121 0.284 0.196 0.467 0.196 0.012 0 0.023-0 0.035-0.001l-0.002 0c1.56 0 3.12 0 4.68 0 3.905 0 7.81 0 11.715 0 1.225 0 0.95 0.115 1.41-0.975 0.105-0.25 0.19-0.5 0.315-0.87h-0.77c-2.545 0-5.090-0.060-7.63 0.025-0.037 0.002-0.081 0.003-0.125 0.003-0.87 0-1.634-0.449-2.074-1.129l-0.006-0.010 0.94-1c0.515 0.885 1.35 0.76 2.15 0.76 3.39 0 6.785 0 10.175 0 0.042 0.006 0.090 0.010 0.138 0.010 0.439 0 0.811-0.292 0.93-0.693l0.002-0.007c0.245-0.67 1.225-1.085 1.78-0.67 0.365 0.255 0.47 0.86 0.72 1.36zM9.65 28.595c0.135 0.66 0.39 0.94 1.070 0.935 3.55 0 7.105 0 10.655 0.045 0.785 0 0.89-0.1 0.96-1z"
  />
  <path
    d="M16 18.345c-1.27 1.63-2.5 3.16-3.68 4.75-0.33 0.553-0.926 0.917-1.606 0.917-0.075 0-0.15-0.004-0.223-0.013l0.009 0.001c-1.125-0.075-2.26-0.035-3.385 0-0.017 0.002-0.038 0.003-0.058 0.003-0.272 0-0.499-0.19-0.556-0.444l-0.001-0.004c-0.45-1.165-0.93-2.315-1.365-3.5-0.039-0.121-0.062-0.26-0.062-0.405s0.023-0.284 0.065-0.415l-0.003 0.010q2.33-7.035 4.685-14.060c0.063-0.344 0.361-0.601 0.718-0.601 0.032 0 0.064 0.002 0.095 0.006l-0.004-0q5.5 0.045 11 0c0.022-0.003 0.048-0.005 0.074-0.005 0.3 0 0.549 0.216 0.6 0.501l0.001 0.004c1.58 4.75 3.175 9.5 4.75 14.24 0.028 0.088 0.044 0.188 0.044 0.293 0 0.136-0.027 0.266-0.076 0.384l0.002-0.007c-0.46 1.18-0.955 2.345-1.42 3.5-0.072 0.259-0.306 0.446-0.584 0.446-0.030 0-0.060-0.002-0.090-0.007l0.003 0c-1.15-0.025-2.305-0.040-3.45 0-0.034 0.003-0.074 0.005-0.114 0.005-0.439 0-0.827-0.213-1.068-0.541l-0.003-0.004c-1.235-1.5-2.5-2.965-3.735-4.445-0.17-0.155-0.345-0.345-0.565-0.61zM16 17.775l0.365 0.42c1.39 1.655 2.785 3.3 4.155 4.965 0.222 0.307 0.579 0.504 0.983 0.504 0.034 0 0.068-0.001 0.102-0.004l-0.004 0c1-0.040 2-0.035 3.030-0.025 0.029 0.004 0.062 0.007 0.096 0.007 0.317 0 0.584-0.212 0.668-0.502l0.001-0.005c0.395-1.030 0.85-2.040 1.25-3.070 0.038-0.111 0.060-0.239 0.060-0.372s-0.022-0.261-0.063-0.381l0.002 0.008c-1.505-4.615-3.060-9.225-4.595-13.82-0.048-0.31-0.313-0.545-0.633-0.545-0.029 0-0.057 0.002-0.085 0.006l0.003-0q-5.265 0-10.53 0c-0.027-0.004-0.058-0.006-0.089-0.006-0.318 0-0.582 0.23-0.635 0.532l-0.001 0.004c-1.535 4.595-3.080 9.21-4.615 13.83-0.040 0.119-0.064 0.257-0.064 0.4s0.023 0.281 0.066 0.409l-0.003-0.009c0.37 1 0.8 1.97 1.185 2.965 0.067 0.291 0.323 0.504 0.629 0.504 0.025 0 0.049-0.001 0.074-0.004l-0.003 0c1.21-0.025 2.42 0 3.63-0.030 0.298-0.024 0.559-0.162 0.744-0.369l0.001-0.001c0.745-0.9 1.445-1.835 2.17-2.755s1.385-1.73 2.105-2.655z"
  />
</svg>
