<svg xmlns="http://www.w3.org/2000/svg" viewBox="0 0 32 32">
  <path
    d="M20.527 18.785c0.025 0.187 0.046 0.365 0.066 0.537 0.064 0.455 0.231 0.862 0.477 1.209l-0.006-0.009c0.081 0.132 0.192 0.106 0.289 0.066 0.202-0.090 0.372-0.221 0.505-0.383l0.002-0.002c0.148-0.178 0.369-0.291 0.617-0.291 0.038 0 0.075 0.003 0.111 0.008l-0.004-0c0.014 0.001 0.031 0.002 0.048 0.002s0.034-0.001 0.050-0.002l-0.002 0c0.051 0 0.096 0 0.111-0.101s-0.035-0.101-0.066-0.142-0.187 0-0.182-0.162 0.127-0.091 0.182-0.162 0.086-0.081 0.061-0.142c-0.012-0.042-0.020-0.090-0.020-0.139 0-0.098 0.028-0.19 0.077-0.268l-0.001 0.002c0.076-0.167 0.030-0.273-0.137-0.365 0.055-0.052 0.090-0.125 0.090-0.207 0-0.037-0.007-0.072-0.020-0.104l0.001 0.002c-0.041-0.101-0.106-0.147-0.192-0.127-0.063 0.005-0.112 0.058-0.112 0.121 0 0.002 0 0.004 0 0.006v-0c0 0.137-0.101 0.167-0.172 0.213s-0.101 0.046-0.142 0c-0.018-0.031-0.029-0.069-0.029-0.109s0.011-0.078 0.030-0.11l-0.001 0.001c0.021-0.059 0.034-0.126 0.035-0.197v-0.001c0.002-0.011 0.003-0.024 0.003-0.037 0-0.073-0.035-0.139-0.089-0.18l-0.001-0c-0.076-0.041-0.091 0.066-0.116 0.132-0.104 0.234-0.19 0.507-0.244 0.791l-0.004 0.024c0 0.116-0.076 0.116-0.147 0.137 0.008-0.128 0.013-0.278 0.013-0.429 0-0.424-0.038-0.84-0.111-1.244l0.006 0.042c0-0.061 0-0.096 0.035-0.101s0.086-0.076 0.071-0.177c-0.030-0.263-0.066-0.506-0.116-0.78 0-0.041-0.046-0.106 0-0.137s0.071 0 0.096 0.056c0.030 0.080 0.077 0.148 0.136 0.202l0 0c0.062 0.068 0.151 0.11 0.25 0.11 0.123 0 0.231-0.066 0.291-0.164l0.001-0.002c0.035-0.041 0.051 0 0.076 0 0.167 0.086 0.198 0.066 0.253-0.187 0.056 0.066 0.106 0.137 0.157 0.192s0.091 0.106 0.157 0.061c0.045-0.044 0.072-0.105 0.072-0.173 0-0.020-0.002-0.039-0.007-0.057l0 0.002c-0.030-0.182 0-0.197 0.137-0.213 0.118-0.027 0.253-0.042 0.392-0.042 0.334 0 0.648 0.089 0.918 0.245l-0.009-0.005c0.305 0.216 0.571 0.429 0.824 0.656l-0.008-0.007c0.438 0.41 1.003 0.69 1.631 0.773l0.015 0.002c0.034 0.003 0.075 0.004 0.115 0.004 0.549 0 1.036-0.269 1.335-0.683l0.003-0.005c0.28-0.42 0.452-0.933 0.466-1.485l0-0.004c0.122-1.195-0.446-1.843-1.155-1.975-0.906-0.177-1.712 0.203-2.456 0.917-0.376 0.421-0.864 0.735-1.417 0.896l-0.021 0.005c-0.344 0.061-0.694 0.081-1.043 0.116-0.010 0.004-0.021 0.007-0.033 0.007s-0.023-0.003-0.033-0.007l0 0c-0.253-0.329-0.577-0.279-0.876-0.365-0.744-0.208-1.474 0.046-2.203 0.147-0.025 0-0.035 0-0.056-0.040l1.013-0.466 0.547-0.279c0.091-0.035 0.081-0.081 0-0.157-0.067-0.088-0.143-0.163-0.23-0.226l-0.003-0.002c-0.121-0.090-0.26-0.182-0.403-0.267l-0.022-0.012c-0.187-0.116-0.203-0.137-0.132-0.415 0.025-0.202 0.121-0.379 0.263-0.506l0.001-0.001c0.18-0.198 0.296-0.456 0.314-0.741l0-0.004c-0.147-0.344 0.061-0.567 0.137-0.836 0.020-0.11 0.032-0.236 0.032-0.364 0-0.232-0.038-0.455-0.107-0.663l0.004 0.015c0-0.025 0-0.046 0-0.066s0.030-0.030 0.046-0.030c2.461 0 4.927 0 7.389 0 0.015-0 0.033-0 0.051-0 0.76 0 1.46 0.257 2.018 0.69l-0.008-0.006c0.799 0.666 1.309 1.654 1.332 2.761l0 0.004c0.032 0.306 0.051 0.661 0.051 1.020 0 1.693-0.41 3.291-1.136 4.699l0.027-0.057c-0.454 0.914-1.264 1.594-2.244 1.863l-0.025 0.006c-0.418 0.123-0.899 0.193-1.396 0.193-0.033 0-0.065-0-0.097-0.001l0.005 0c-0.896 0-1.788 0-2.684 0-0.111 0-0.162 0-0.182 0.208-0.116 0.876-0.248 1.747-0.365 2.623 0 0.172-0.071 0.218-0.187 0.218-0.861 0-1.717 0-2.573 0-0.223 0-0.405-0.299-0.355-0.608 0.018-0.074 0.029-0.158 0.029-0.245 0-0.232-0.076-0.446-0.203-0.619l0.002 0.003c-0.145-0.267-0.234-0.583-0.243-0.919l-0-0.003c0-0.198-0.076-0.273-0.218-0.263-1.075 0.002-2.063 0.372-2.846 0.99l0.010-0.007-0.076 0.051c-0.035 0.025-0.071 0.046-0.101 0-0.012-0.021-0.019-0.047-0.019-0.073s0.007-0.052 0.019-0.074l-0 0.001c0.080-0.142 0.18-0.262 0.297-0.363l0.002-0.002c0.634-0.585 1.39-1.050 2.223-1.353l0.046-0.015c0.749-0.273 0.912-0.542 0.982-1.656 0-0.076-0.020-0.147 0.041-0.208z"
  />
  <path
    d="M11.442 23.525q-0.957-6.715-1.924-13.435c0-0.142-0.061-0.167-0.147-0.167q-1.443 0-2.887 0c-0.091 0-0.142 0.051-0.187 0.157l-2.704 6.047c-0.031 0.049-0.052 0.108-0.061 0.17l-0 0.002h3.697c-0.132-0.093-0.285-0.186-0.443-0.268l-0.023-0.011c-0.030 0-0.101 0-0.056-0.111 0.162-0.4 0.329-0.8 0.506-1.22l0.552 3.742c0 0.142-0.030 0.147-0.106 0.167l-3.641 0.947c-1.808 0.471-2.416 0.8-4.223 1.276l1.555 0.304c-0.451 1.013-0.896 2.026-1.347 3.038h3.185c0.091 0 0.122-0.066 0.162-0.152q0.562-1.372 1.134-2.75c0.040-0.106 0.086-0.157 0.172-0.157h3.363c0.086 0 0.122 0 0.142 0.157 0.127 0.906 0.263 1.808 0.385 2.714 0 0.152 0.061 0.182 0.157 0.182h2.74c0.040 0 0.086 0 0.127 0-0.056-0.223-0.081-0.43-0.127-0.633z"
  />
  <path
    d="M16.648 19.352c0.901-0.684 1.803-1.2 2.841-1.185-0.041 0.094-0.125 0.163-0.226 0.182l-0.002 0c-0.697 0.291-1.297 0.672-1.819 1.14l0.006-0.005c-0.097 0.067-0.173 0.158-0.221 0.264l-0.002 0.004c0.352-0.207 0.772-0.336 1.22-0.354l0.005-0c-0.035 0.116-0.101 0.111-0.157 0.137-0.726 0.366-1.346 0.825-1.877 1.371l-0.002 0.002c-0.208 0.172-0.339 0.43-0.339 0.719 0 0.003 0 0.007 0 0.011v-0.001c0 0.002 0 0.004 0 0.006 0 0.058-0.038 0.108-0.090 0.125l-0.001 0c-0.067 0.035-0.124 0.079-0.172 0.131l-0 0c-0.111 0.142-0.111 0.233 0 0.355s0.187 0.314 0 0.506c-0.156 0.158-0.253 0.376-0.253 0.615 0 0.065 0.007 0.129 0.021 0.19l-0.001-0.006c0.006 0.035 0.010 0.075 0.010 0.116 0 0.125-0.034 0.242-0.093 0.343l0.002-0.003c-0.047 0.102-0.149 0.172-0.267 0.172-0 0-0.001 0-0.001 0h0c-0.841 0-1.686 0-2.532 0-0.116 0-0.142-0.041-0.116-0.203q0.435-3.038 0.861-6.031c0.025-0.147 0-0.198-0.106-0.198-0.714 0-1.433 0-2.147 0-0.008 0.001-0.017 0.001-0.026 0.001-0.054 0-0.105-0.015-0.148-0.042l0.001 0.001 5.216-1.367v-0.035h-2.537c0.101-0.714 0.203-1.413 0.299-2.112 0.041-0.192 0.068-0.417 0.076-0.647l0-0.007h-0.451c-1.013 0-1.995 0-2.993 0-0.101 0-0.137-0.046-0.157-0.187q-0.228-1.615-0.466-3.231c0-0.116-0.040-0.197 0.091-0.197h8.974c-0.006 0.084-0.027 0.162-0.062 0.231l0.002-0.003c-0.011 0.032-0.017 0.068-0.017 0.106s0.006 0.075 0.017 0.109l-0.001-0.002c0.017 0.075 0.026 0.161 0.026 0.25 0 0.171-0.036 0.335-0.1 0.482l0.003-0.008c-0.011 0.047-0.017 0.101-0.017 0.157s0.006 0.11 0.018 0.162l-0.001-0.005c0.017 0.047 0.027 0.101 0.027 0.157s-0.010 0.11-0.028 0.16l0.001-0.003c-0.080 0.2-0.126 0.433-0.126 0.676 0 0.145 0.016 0.286 0.047 0.421l-0.002-0.013c0.041 0.299 0.035 0.294-0.162 0.39-0.148 0.062-0.319 0.107-0.498 0.126l-0.008 0.001c-0.672 0.098-1.208 0.586-1.375 1.224l-0.003 0.012c-0.026 0.114-0.041 0.245-0.041 0.379 0 0.308 0.079 0.598 0.218 0.851l-0.005-0.009c0.253 0.314 0.506 0.623 0.76 0.942 0.025 0.038 0.067 0.063 0.115 0.063 0.009 0 0.018-0.001 0.027-0.003l-0.001 0 1.97-0.43c0.030-0.007 0.065-0.011 0.101-0.011s0.071 0.004 0.104 0.012l-0.003-0.001c-0.025 0.056-0.071 0.061-0.106 0.076l-2.132 1.058c-0.038 0.023-0.085 0.036-0.134 0.036s-0.096-0.013-0.135-0.037l0.001 0.001c-0.157-0.081-0.319-0.137-0.471-0.218s-0.116 0-0.111 0.091c-0.056 0.373-0.092 0.811-0.101 1.255l-0 0.011c-0.019 0.269-0.097 0.516-0.222 0.732l0.004-0.008z"
  />
  <path
    d="M25.247 14.987c-0.057 0.249-0.095 0.54-0.106 0.837l-0 0.009c0 0.096-0.061 0.157-0.137 0.101-0.211-0.155-0.451-0.291-0.706-0.397l-0.023-0.008c-0.036-0.007-0.063-0.038-0.063-0.075 0-0.006 0.001-0.011 0.002-0.017l-0 0.001c0-0.061 0.025-0.086 0.061-0.096 0.323-0.141 0.601-0.311 0.853-0.512l-0.008 0.006c0.096-0.081 0.122 0.015 0.127 0.152z"
  />
</svg>
