<svg xmlns="http://www.w3.org/2000/svg" viewBox="0 0 32 32">
  <path
    d="M27.333 15.16c-1.057-3.683-3.107-6.799-5.841-9.139l-0.026-0.021h4.533v-4h-20v4h5.84c-0.117 3.809-1.029 7.378-2.575 10.583l0.068-0.157c-0.693-0.267-1.494-0.423-2.332-0.427h-0.002c-3.866 0-7 3.134-7 7s3.134 7 7 7c3.866 0 7-3.134 7-7v0c-0.005-1.6-0.551-3.072-1.465-4.242l0.012 0.015c1.847-3.453 3.020-7.52 3.237-11.839l0.003-0.068c3.524 1.872 6.198 4.953 7.5 8.677l0.033 0.11c-1.971 1.007-3.297 3.023-3.297 5.348 0 3.306 2.68 5.987 5.987 5.987s5.987-2.68 5.987-5.987c0-2.842-1.98-5.221-4.636-5.834l-0.040-0.008z"
  />
</svg>
