<svg xmlns="http://www.w3.org/2000/svg" viewBox="0 0 32 32">
  <path
    d="M28 23.875l-0.125-0.035c-0.181-0.055-0.389-0.086-0.605-0.086s-0.424 0.032-0.62 0.090l0.015-0.004-4.75 1.355c-0.099 1.199-1.094 2.136-2.31 2.14h-4.855c-0.276 0-0.5-0.224-0.5-0.5s0.224-0.5 0.5-0.5v0h4.75c0.008 0 0.018 0 0.028 0 0.669 0 1.227-0.472 1.36-1.101l0.002-0.009c0.012-0.068 0.019-0.145 0.019-0.225 0-0.737-0.597-1.334-1.334-1.335h-5.075l-1.255-0.975c-0.815-0.639-1.855-1.025-2.985-1.025-0.005 0-0.010 0-0.015 0h-3.244c-0.001 0-0.003 0-0.005 0-0.745 0-1.45 0.17-2.079 0.472l0.029-0.012-4.030 1.875v8l4.955-3.095c0.135-0.087 0.301-0.138 0.478-0.138 0.114 0 0.223 0.021 0.323 0.060l-0.006-0.002 7.465 2.875c0.481 0.19 1.038 0.3 1.621 0.3 0.003 0 0.006 0 0.009 0h1.365c0.014 0 0.031 0 0.048 0 0.756 0 1.47-0.185 2.097-0.512l-0.025 0.012 10.34-5.5c0-0.002 0-0.003 0-0.005 0-0.998-0.661-1.841-1.569-2.116l-0.016-0.004z"
  />
  <path
    d="M18.585 0c-0.002 0-0.003 0-0.005 0-5.893 0-10.67 4.777-10.67 10.67s4.777 10.67 10.67 10.67c5.893 0 10.67-4.777 10.67-10.67 0-0.002 0-0.004 0-0.005v0c0-5.89-4.775-10.665-10.665-10.665v0zM19.415 15.215v1.21h-1.5v-1.21c-1.242-0.075-2.352-0.584-3.192-1.377l0.002 0.002 1.21-1.715c0.724 0.723 1.723 1.17 2.827 1.17 0.003 0 0.006 0 0.009 0h-0c0.785 0 1.26-0.305 1.26-0.73 0-1.21-5-0.24-5-3.66 0-1.345 1-2.555 2.91-2.78v-1.25h1.5v1.265c1.060 0.132 2.002 0.557 2.764 1.192l-0.009-0.007-1.255 1.635c-0.702-0.569-1.605-0.916-2.589-0.92h-0.001c-0.67 0-0.96 0.265-0.96 0.64 0 1.13 5 0.305 5 3.605-0.010 1.595-1.060 2.715-2.975 2.93z"
  />
</svg>
