<svg xmlns="http://www.w3.org/2000/svg" viewBox="0 0 32 32">
  <path
    d="M19.587 5.947c0.456 0.268 1.005 0.426 1.591 0.426 1.76 0 3.187-1.427 3.187-3.187s-1.427-3.187-3.187-3.187c-1.176 0-2.204 0.638-2.756 1.586l-0.008 0.015c-0.266 0.455-0.422 1.002-0.422 1.586 0 1.174 0.635 2.2 1.581 2.753l0.015 0.008z"
  />
  <path
    d="M32 25.333h-0.653c-1.685 0.111-3.211 0.71-4.461 1.655l0.021-0.015c-0.764 0.639-1.757 1.027-2.84 1.027-0.023 0-0.047-0-0.070-0.001l0.004 0c-0.007 0-0.016 0-0.025 0-0.468 0-0.918-0.078-1.338-0.222l0.029 0.009v-6.28c0-0.007 0-0.015 0-0.023 0-1.429-0.581-2.723-1.52-3.657l-2.827-2.827 1.12-1.787c0.065-0.106 0.132-0.233 0.191-0.364l0.009-0.022 2.2 1.84c0.83 0.657 1.892 1.053 3.047 1.053 0.002 0 0.005 0 0.007 0h-0c0.002 0 0.005 0 0.008 0 0.671 0 1.31-0.137 1.89-0.385l-0.031 0.012 4.147-1.693-1.267-3.080-4.147 1.627c-0.185 0.080-0.4 0.127-0.627 0.127-0.367 0-0.706-0.123-0.977-0.33l0.004 0.003-10.24-8c-0.828-0.654-1.886-1.049-3.036-1.049-0.71 0-1.385 0.15-1.995 0.421l0.031-0.012-4.387 1.827 1.333 3.053 4.373-1.893c0.186-0.080 0.403-0.127 0.631-0.127 0.377 0 0.724 0.128 1 0.343l-0.004-0.003 1.853 1.44c-0.33 0.27-0.613 0.582-0.844 0.931l-1.463 2.349c-0.382 0.602-0.609 1.335-0.609 2.122 0 0.609 0.136 1.186 0.379 1.703l-0.010-0.024-0.92 1.227c-0.344 0.447-0.879 0.732-1.48 0.733h-5.574v3.333h5.573c1.688-0.003 3.187-0.808 4.137-2.054l0.009-0.013 0.8-1.067c0.341 0.108 0.733 0.17 1.14 0.17s0.799-0.062 1.168-0.177l-0.028 0.007 2.933 2.947c0.338 0.334 0.547 0.797 0.547 1.309 0 0.009-0 0.017-0 0.026v-0.001 4.453c-0.784-0.334-1.694-0.55-2.647-0.599l-0.019-0.001-0.547-0.040h-0.64c-1.689 0.109-3.221 0.708-4.474 1.655l0.021-0.015c-0.757 0.639-1.744 1.027-2.821 1.027-0.030 0-0.060-0-0.090-0.001l0.004 0c-0.028 0.001-0.062 0.001-0.095 0.001-1.061 0-2.034-0.378-2.792-1.007l0.007 0.006c-1.23-0.942-2.761-1.55-4.428-1.665l-0.026-0.001h-0.667v4c0.041-0.001 0.088-0.001 0.136-0.001 1.876 0 3.605 0.627 4.99 1.683l-0.020-0.015c0.75 0.623 1.723 1.001 2.785 1.001 0.038 0 0.076-0.001 0.114-0.001l-0.006 0c0.031 0.001 0.067 0.001 0.104 0.001 1.063 0 2.038-0.378 2.797-1.007l-0.007 0.006c1.365-1.041 3.094-1.668 4.97-1.668 0.048 0 0.096 0 0.144 0.001l-0.007-0c0.043-0.001 0.094-0.001 0.145-0.001 1.877 0 3.608 0.627 4.995 1.683l-0.020-0.015c0.752 0.623 1.726 1.001 2.789 1.001 0.032 0 0.064-0 0.096-0.001l-0.005 0c0.025 0.001 0.055 0.001 0.085 0.001 1.069 0 2.050-0.378 2.816-1.007l-0.008 0.006c1.36-1.041 3.086-1.668 4.957-1.668 0.053 0 0.105 0 0.157 0.001l-0.008-0v-4z"
  />
</svg>
