<svg xmlns="http://www.w3.org/2000/svg" viewBox="0 0 32 32">
  <path
    d="M6.707 2.976c2.231-1.591 4.833-2.583 7.558-2.88s5.479 0.111 8 1.184c2.521 1.073 4.725 2.776 6.399 4.946s2.764 4.732 3.163 7.443l-10.131 1.493c-0.144-0.976-0.536-1.899-1.139-2.68s-1.396-1.394-2.304-1.78-1.899-0.533-2.88-0.426c-0.981 0.107-1.918 0.464-2.721 1.037l-5.947-8.336z"
    fill="#ff5674"
    style="fill: #ff5674"
  />
  <path
    d="M8.601 30.187c-2.43-1.268-4.493-3.138-5.992-5.432s-2.384-4.934-2.57-7.668 0.334-5.47 1.508-7.946c1.175-2.476 2.966-4.608 5.202-6.193l5.922 8.354c-0.805 0.57-1.45 1.338-1.873 2.229s-0.61 1.876-0.543 2.86c0.067 0.984 0.386 1.935 0.925 2.76s1.283 1.499 2.157 1.955l-4.736 9.079z"
    fill="#fe9d00"
    style="fill: #fe9d00"
  />
  <path
    d="M31.808 13.537c0.46 2.951 0.085 5.971-1.082 8.719s-3.080 5.116-5.523 6.833c-2.443 1.718-5.317 2.718-8.299 2.886s-5.95-0.5-8.571-1.931l4.907-8.988c0.944 0.515 2.012 0.756 3.086 0.695s2.108-0.421 2.988-1.039c0.879-0.619 1.568-1.471 1.988-2.46s0.555-2.077 0.39-3.139l10.118-1.577z"
    fill="#00b801"
    style="fill: #00b801"
  />
</svg>
