<svg xmlns="http://www.w3.org/2000/svg" viewBox="0 0 32 32">
  <path
    d="M28.785 6.85c1.030-1.055 2.215-1.85 2.435-3.3l-0.070-0.050c-1.095 0.415-2.2 0.815-3.285 1.25-0.129 0.059-0.28 0.094-0.439 0.094-0.31 0-0.59-0.132-0.785-0.343l-0.001-0.001c-2.24-1.88-5.055-2.24-7.5-0.88-2.58 1.45-3.805 3.69-3.5 6.68 0.070 0.595-0.095 0.75-0.675 0.665-2.176-0.305-4.142-0.867-5.984-1.662l0.149 0.057c-2.807-1.242-5.166-3.034-7.031-5.255l-0.024-0.030c-1.855 3.345-0.86 6.090 1.59 8.635-0.145 0.026-0.311 0.042-0.481 0.042-0.517 0-1.001-0.14-1.417-0.384l0.013 0.007c-0.625-0.3-0.725-0.105-0.66 0.5 0.13 2.468 1.707 4.538 3.893 5.386l0.042 0.014c0.29 0.125 0.71 0.085 0.91 0.605-0.64 0-1.2 0.045-1.745 0-0.755-0.070-0.75 0.23-0.5 0.775 0.803 1.702 2.278 2.975 4.074 3.489l0.045 0.011c0.455 0.135 0.92 0.235 1.585 0.4-2.188 1.744-4.993 2.799-8.044 2.799-0.486 0-0.967-0.027-1.439-0.079l0.058 0.005c3.11 2.345 8.86 3.465 13.065 2.67 9.36-1.775 15.655-9.17 15.87-18.695-0-0.013-0.001-0.029-0.001-0.045 0-0.596 0.29-1.124 0.736-1.452l0.005-0.004c0.931-0.679 1.706-1.51 2.303-2.463l0.021-0.037c-0.037-0.034-0.072-0.070-0.104-0.108l-0.001-0.002c-0.98 0.255-1.895 0.735-3.11 0.705z"
  />
</svg>
