<svg xmlns="http://www.w3.org/2000/svg" viewBox="0 0 32 32">
  <path
    d="M21.167 3.248h-10.351l-1.107 1.124-1.214 1.267h15.009l-1.231-1.267-1.107-1.124z"
  />
  <path
    d="M28.484 10.726v10.566l-7.317 7.46h-10.351l-7.317-7.46v-10.566l2.213-2.249h20.56l2.213 2.249z"
  />
  <path
    d="M31.982 9.388v13.243l-9.37 9.37h-13.243l-9.37-9.37v-13.243l0.892-0.91h2.534l-1.642 1.642v11.779l8.317 8.317h11.779l8.317-8.317v-11.779l-1.624-1.642h2.516l0.892 0.91z"
  />
  <path
    d="M10.119 1.785h11.761l3.855 3.855h2.534l-5.64-5.64h-13.26l-5.711 5.64h2.534l3.926-3.855z"
  />
</svg>
