<svg xmlns="http://www.w3.org/2000/svg" viewBox="0 0 29 32">
  <path
    d="M21.34 0c0.68 0 1.232 0.55 1.232 1.23v3.694c0 0.678-0.552 1.23-1.232 1.23s-1.232-0.552-1.232-1.23v-3.694c0-0.68 0.552-1.23 1.232-1.23zM7.386 0c0.682 0 1.232 0.55 1.232 1.23v3.694c0 0.678-0.55 1.23-1.232 1.23-0.68 0-1.23-0.552-1.23-1.23v-3.694c0-0.68 0.55-1.23 1.23-1.23zM28.727 14.773v13.542c0 1.36-1.102 2.462-2.462 2.462h-23.802c-1.36 0-2.462-1.102-2.462-2.462v-13.542h28.726zM17.645 2.052v2.874c0 2.040 1.654 3.693 3.694 3.693s3.693-1.653 3.693-3.693v-2.874h1.232c1.36 0 2.462 1.102 2.462 2.462v7.797h-28.726v-7.797c0-1.36 1.102-2.462 2.462-2.462h1.23v2.874c0 2.040 1.653 3.693 3.693 3.693s3.694-1.653 3.694-3.693v-2.874h6.565z"
  />
</svg>
