<svg xmlns="http://www.w3.org/2000/svg" viewBox="0 0 32 32">
  <path
    d="M32 17.053c-0.005 2.418-1.907 4.39-4.296 4.506l-0.010 0h-3.693c-0.008-4.781-3.885-8.653-8.667-8.653-4.786 0-8.667 3.88-8.667 8.667 0 0.005 0 0.009 0 0.014v-0.001h-2.12c-2.445-0.075-4.399-2.075-4.399-4.531 0-2.391 1.851-4.349 4.198-4.521l0.015-0.001c-0.226-0.681-0.357-1.465-0.36-2.279v-0.001c0.008-4.037 3.282-7.306 7.32-7.306 3.203 0 5.925 2.057 6.918 4.921l0.015 0.051c0.853-0.624 1.923-0.999 3.080-1h0c2.946 0 5.333 2.388 5.333 5.333v0c0.003 0.052 0.005 0.112 0.005 0.173s-0.002 0.122-0.005 0.182l0-0.008c0.246-0.054 0.531-0.088 0.823-0.093l0.004-0c2.494 0.023 4.507 2.050 4.507 4.546 0 0 0 0 0 0v0zM17.253 16.067v0c-0.525-0.148-1.127-0.234-1.749-0.234-3.417 0-6.233 2.57-6.621 5.882l-0.003 0.031h-1.333l2.307 3.187 2.24-3.187h-1.187c0.354-2.229 2.259-3.914 4.559-3.92h0.001c0.443 0.004 0.869 0.067 1.274 0.182l-0.034-0.008c1.971 0.559 3.391 2.343 3.391 4.459 0 1.598-0.81 3.006-2.041 3.838l-0.016 0.010c-0.717 0.464-1.593 0.74-2.533 0.74-1.162 0-2.226-0.421-3.047-1.119l0.007 0.006-1.333 1.52c1.15 1.010 2.667 1.627 4.329 1.627 0.002 0 0.003 0 0.005 0h-0c0.009 0 0.019 0 0.029 0 1.353 0 2.612-0.403 3.663-1.096l-0.025 0.015c1.768-1.217 2.912-3.229 2.912-5.509 0-3.014-2-5.561-4.745-6.386l-0.047-0.012z"
  />
</svg>
