<svg xmlns="http://www.w3.org/2000/svg" viewBox="0 0 32 32">
  <path
    d="M6.375 9.090c0.2 0.075 0.22 0.13 0.115 0.355-0.45 1-0.905 1.955-1.36 2.935q-0.78 1.69-1.57 3.38v0.060c-0.060 0.11-0.135 0.21-0.27 0.21-0.135-0.002-0.249-0.091-0.289-0.213l-0.001-0.002q-1.47-3.185-2.935-6.365c0-0.050-0.045-0.1-0.065-0.145v-0.215h1.465c0.138 0.063 0.242 0.179 0.289 0.321l0.001 0.004 1.42 3.175c0.030 0.065 0.065 0.125 0.105 0.205l0.045-0.085q0.75-1.665 1.5-3.33c0.043-0.128 0.132-0.23 0.247-0.289l0.003-0.001z"
  />
  <path
    d="M32 16.555c-0.069 0.141-0.134 0.255-0.205 0.366l0.010-0.016-1.72 2.565c-0.15 0.214-0.24 0.48-0.24 0.767 0 0.011 0 0.023 0 0.034l-0-0.002c0 0.82 0 1.645 0 2.465 0 0.325-0.035 0.355-0.36 0.355h-0.865c-0.245 0-0.295-0.055-0.3-0.3 0-0.845 0-1.685 0-2.53 0-0.009 0-0.020 0-0.031 0-0.272-0.082-0.524-0.223-0.733l0.003 0.005c-0.59-0.88-1.17-1.765-1.75-2.645-0.030-0.050-0.065-0.1-0.090-0.15-0.115-0.21-0.065-0.325 0.175-0.34 0.375 0 0.755 0 1.13 0 0.135 0.014 0.248 0.097 0.304 0.213l0.001 0.002 1.13 1.675 0.090 0.13c0.37-0.55 0.745-1.070 1.080-1.62 0.121-0.266 0.384-0.448 0.69-0.448 0.050 0 0.098 0.005 0.145 0.014l-0.005-0.001c0.225 0.035 0.465 0 0.695 0 0.107 0.017 0.203 0.045 0.293 0.083l-0.008-0.003z"
  />
  <path
    d="M17.745 23.305c0.32 0.165 0.315 0.42 0.29 0.7-0.155 1.67-0.305 3.345-0.455 5-0.085 0.905-0.165 1.805-0.245 2.71-0.005 0.067-0.024 0.128-0.056 0.182l0.001-0.002c-0.025-0.27-0.055-0.545-0.080-0.815l-0.285-3.24c-0.085-0.94-0.165-1.875-0.25-2.815-0.030-0.33-0.055-0.665-0.095-1-0.014-0.050-0.023-0.107-0.023-0.167 0-0.227 0.12-0.426 0.3-0.537l0.003-0.002-0.35-0.070c-0.549-0.151-1.028-0.382-1.454-0.685l0.014 0.010c-0.613-0.43-1.058-1.063-1.241-1.799l-0.004-0.021c-0.092-0.316-0.145-0.68-0.145-1.056 0-0.464 0.080-0.909 0.228-1.322l-0.009 0.027c0.341-0.87 0.987-1.558 1.803-1.946l0.022-0.009c0.18-0.095 0.37-0.175 0.57-0.27l-2.71-2.955c0 0.12 0 0.21 0 0.3v2.040c0 0.065 0 0.135 0 0.2 0 0.005 0.001 0.010 0.001 0.015 0 0.099-0.081 0.18-0.18 0.18-0.004 0-0.007-0-0.011-0l0.001 0c-0.385 0-0.775 0-1.16 0-0 0-0 0-0 0-0.121 0-0.22-0.098-0.22-0.22 0-0.002 0-0.004 0-0.005v0c-0.002-0.031-0.004-0.068-0.004-0.105s0.001-0.074 0.004-0.11l-0 0.005q0-3 0-6c0-0.145 0-0.305 0.15-0.375s0.305 0 0.46 0.155q1.77 2 3.545 3.965l0.21 0.235h0.040v-3.925c0-0.395 0.035-0.43 0.435-0.43 0.285 0 0.57 0 0.855 0s0.28 0.055 0.285 0.285v6.5c0 0.195 0.035 0.245 0.24 0.31 1.063 0.317 1.902 1.090 2.302 2.086l0.008 0.024c0.163 0.398 0.258 0.859 0.258 1.343 0 1.708-1.179 3.14-2.768 3.527l-0.025 0.005zM15.445 19.68c0.025 0.17 0.040 0.345 0.080 0.5 0.176 0.801 0.879 1.392 1.721 1.392 0.284 0 0.552-0.067 0.789-0.186l-0.010 0.005c0.603-0.344 1.003-0.984 1.003-1.717 0-0.118-0.010-0.233-0.030-0.345l0.002 0.012c-0.132-0.879-0.881-1.545-1.786-1.545-0.141 0-0.279 0.016-0.411 0.047l0.012-0.002c-0.797 0.228-1.37 0.95-1.37 1.806 0 0.012 0 0.024 0 0.036l-0-0.002z"
  />
  <path
    d="M25 20.44l0.825 1.5c0.13 0.245 0.265 0.5 0.395 0.74 0.030 0.049 0.054 0.106 0.069 0.166l0.001 0.004c0.007 0.016 0.011 0.035 0.011 0.055 0 0.076-0.061 0.138-0.136 0.14h-0c-0.034 0.004-0.073 0.006-0.113 0.006s-0.079-0.002-0.117-0.006l0.005 0c-0.32 0-0.64 0-0.96 0-0.008 0.001-0.018 0.001-0.028 0.001-0.176 0-0.326-0.109-0.386-0.263l-0.001-0.003c-0.34-0.68-0.685-1.355-1-2.040-0.065-0.206-0.254-0.354-0.478-0.354-0.032 0-0.064 0.003-0.095 0.009l0.003-0c-0.040 0.004-0.086 0.006-0.133 0.006s-0.093-0.002-0.138-0.006l0.006 0v2.3c0 0.265-0.075 0.34-0.34 0.34h-0.93c-0.24 0-0.315-0.070-0.315-0.305q0-3.070 0-6.135v-0.12c-0-0.005-0.001-0.010-0.001-0.016 0-0.097 0.078-0.175 0.175-0.175 0.006 0 0.011 0 0.016 0.001l-0.001-0c0.37 0 0.74 0 1.105 0 0.665 0 1.325 0 2 0 1.076 0.037 1.933 0.918 1.933 1.999 0 0.597-0.262 1.133-0.676 1.499l-0.002 0.002c-0.24 0.275-0.475 0.455-0.695 0.655zM22.73 19.17h0.68c0.285 0 0.57 0 0.85-0.025 0.341-0.050 0.601-0.341 0.601-0.693 0-0.010-0-0.019-0.001-0.028l0 0.001c0.001-0.012 0.001-0.026 0.001-0.040 0-0.342-0.271-0.621-0.61-0.635l-0.001-0c-0.36 0-0.72 0-1.080 0h-0.44z"
  />
  <path
    d="M7.635 20.95h-0.5c-0.205 0-0.27-0.065-0.27-0.27s0-0.535 0-0.8c0-0.19 0.065-0.255 0.255-0.26h1.8c0.19 0 0.26 0.070 0.26 0.26 0 0.81 0 1.62 0 2.425 0.001 0.007 0.001 0.015 0.001 0.023 0 0.133-0.077 0.247-0.189 0.302l-0.002 0.001c-0.655 0.357-1.435 0.567-2.264 0.567-0.178 0-0.354-0.010-0.528-0.029l0.021 0.002c-1.704-0.231-3.003-1.677-3.003-3.425 0-0.053 0.001-0.105 0.003-0.157l-0 0.007c0.026-1.076 0.549-2.025 1.346-2.629l0.008-0.006c0.581-0.433 1.312-0.694 2.105-0.694s1.524 0.261 2.114 0.701l-0.009-0.007 0.295 0.23c0.045 0.030 0.074 0.080 0.074 0.138 0 0.046-0.019 0.087-0.049 0.117v0c-0.25 0.27-0.5 0.545-0.76 0.805-0.1 0.105-0.205 0.090-0.345 0-0.215-0.183-0.479-0.314-0.769-0.373l-0.011-0.002c-0.121-0.027-0.26-0.043-0.403-0.043-1.066 0-1.93 0.864-1.93 1.93s0.864 1.93 1.93 1.93c0.143 0 0.282-0.015 0.416-0.045l-0.013 0.002 0.285-0.065c0.086-0.012 0.151-0.085 0.151-0.173 0-0.006-0-0.012-0.001-0.017l0 0.001c-0.010-0.17-0.015-0.295-0.020-0.445z"
  />
  <path
    d="M7.68 15c-0.395 0-0.775 0-1.15 0-0.065 0-0.15 0.095-0.185 0.165-0.060 0.134-0.121 0.3-0.172 0.47l-0.008 0.030c-0.028 0.159-0.165 0.277-0.33 0.277-0.014 0-0.028-0.001-0.042-0.003l0.002 0h-1.375c-0.215 0-0.275-0.085-0.185-0.285 0.155-0.365 0.325-0.73 0.5-1.090q1.185-2.565 2.37-5.13c0.061-0.175 0.224-0.298 0.417-0.298 0.019 0 0.037 0.001 0.056 0.003l-0.002-0c0.57 0 1.14 0 1.73 0v0.145q0 3.1-0.025 6.185c0 0.435-0.040 0.47-0.47 0.475h-0.81c-0.22 0-0.325-0.105-0.33-0.33s0.010-0.405 0.010-0.615zM7.625 12h-0.045l-0.69 1.41h0.735z"
  />
  <path
    d="M11.33 21.65h2.17c0.265 0 0.32 0.060 0.325 0.325v0.84c0 0.19-0.080 0.27-0.27 0.27h-3.5c-0.195 0-0.27-0.080-0.27-0.28 0-0.5 0-1 0-1.5v-4.64c0-0.335 0.030-0.365 0.36-0.37h0.855c0.27 0 0.315 0.055 0.325 0.32 0 0.060 0 0.125 0 0.185v4.85z"
  />
  <path
    d="M11.295 12.575v2.97c0 0.39 0 0.405-0.41 0.405h-0.76c-0.185 0-0.26-0.075-0.28-0.265v-6.145c0-0.060 0-0.115 0-0.175-0-0.002-0-0.005-0-0.007 0-0.119 0.096-0.215 0.215-0.215 0.011 0 0.021 0.001 0.031 0.002l-0.001-0h0.945c0.165 0 0.23 0.065 0.25 0.23 0 0.065 0 0.125 0 0.19v3z"
  />
</svg>
