<svg xmlns="http://www.w3.org/2000/svg" viewBox="0 0 32 32">
  <path
    d="M11 29.080c-0.347-0.080-0.56-0.32-0.773-0.587-2.867-3.573-5.733-7.147-8.6-10.72-0.427-0.533-0.84-1.067-1.267-1.6-0.24-0.307-0.36-0.64-0.36-1.053 0-3.933 0-7.867 0-11.813 0-0.067-0.013-0.133 0-0.187 0.027-0.080 0.067-0.187 0.12-0.2 0.067-0.013 0.16 0.040 0.213 0.093 0.053 0.040 0.093 0.107 0.133 0.16 5.16 6.467 10.32 12.947 15.48 19.427 1.6 2.013 3.187 4.040 4.787 6.053 0.093 0.12 0.16 0.28 0.24 0.413h-9.987z"
  />
  <path
    d="M32 2.96v0.373c0 3.88 0 7.747 0 11.627 0 0.413-0.133 0.76-0.373 1.080-0.96 1.227-1.933 2.467-2.907 3.68-0.227 0.293-0.533 0.453-0.92 0.453-3.12 0-6.24 0-9.373 0-0.093 0-0.2-0.053-0.267-0.107-0.027-0.027 0.013-0.173 0.067-0.24 0.413-0.493 0.827-0.987 1.24-1.48 2.8-3.507 5.6-7 8.387-10.507 1.213-1.533 2.413-3.067 3.613-4.613 0.12-0.16 0.2-0.387 0.52-0.253z"
  />
</svg>
