<svg xmlns="http://www.w3.org/2000/svg" viewBox="0 0 32 32">
  <path
    d="M0 0v24.787h32v-24.787zM19.427 14.4h-3.893c-0.847 2.328-3.040 3.96-5.614 3.96-3.292 0-5.96-2.668-5.96-5.96s2.668-5.96 5.96-5.96c2.575 0 4.768 1.632 5.601 3.919l0.013 0.041h3.893zM28 20.973h-4v-6.040h4zM28 9.867h-4v-6.040h4z"
  />
  <path
    d="M11.947 12.4c0 1.105-0.895 2-2 2s-2-0.895-2-2c0-1.105 0.895-2 2-2s2 0.895 2 2z"
  />
  <path d="M2.667 32h6.693l2.28-3.88h-8.973v3.88z" />
  <path d="M22.64 32h6.693v-3.88h-8.973l2.28 3.88z" />
</svg>
