<svg xmlns="http://www.w3.org/2000/svg" viewBox="0 0 39 32">
  <path
    d="M23.947 11.119v6.742l-20.553 4.073-0.772-5.407z"
    fill="#0f212e"
    style="fill: #0f212e"
  />
  <path
    d="M4.143 17.486l19.804-6.367-3.535-1.381-19.71 6.133 3.207 1.943z"
    fill="#2d4454"
    style="fill: #2d4454"
  />
  <path
    d="M3.465 18.399v6.391l1.147 0.632v-6.461z"
    fill="#0f212e"
    style="fill: #0f212e"
  />
  <path
    d="M4.143 17.486l-0.679 0.936 1.147 0.538 0.679-0.936z"
    fill="#0f212e"
    style="fill: #0f212e"
  />
  <path
    d="M0.515 25.235v1.381l7.795 4.331 21.209-7.374v-1.311l-20.108 0.562-5.946 1.966z"
    fill="#213843"
    style="fill: #213843"
  />
  <path
    d="M4.612 18.961v0 6.461l-1.147-0.632v-6.625l-3.465-1.405v8.919l8.31 4.424v-9.364z"
    fill="#1a2c38"
    style="fill: #1a2c38"
  />
  <path
    d="M35.418 0.234l-0.538-0.234-21.653 6.976v14.911l0.515 0.351z"
    fill="#2d4454"
    style="fill: #2d4454"
  />
  <path
    d="M13.741 22.238v-15.005l21.677-6.999v14.56z"
    fill="#557085"
    style="fill: #557085"
  />
  <path
    d="M21.606 13.764l1.451-1.92c0.117-0.14 0.117-0.328 0-0.398l-1.451-0.96c-0.094-0.070-0.258 0.070-0.258 0.211v3.067c-0.023 0.117 0.14 0.14 0.258 0z"
    fill="#1a2c38"
    style="fill: #1a2c38"
  />
  <path
    d="M23.198 9.691l1.709 1.124c0.117 0.070 0.117 0.258 0 0.398l-1.709 2.271c-0.117 0.164-0.117 0.351 0 0.421l1.709 1.007c0.14 0.047 0.328 0 0.398-0.14l3.675-4.892c0.117-0.14 0.117-0.328 0-0.398l-3.652-2.458c-0.14-0.070-0.304 0-0.398 0.117l-1.709 2.13c-0.14 0.14-0.14 0.328-0.023 0.421z"
    fill="#1a2c38"
    style="fill: #1a2c38"
  />
  <path
    d="M31.157 5.173v-1.124h-0.375v-0.936l2.879 0.14v1.1l-2.879 2.013v-0.96l0.375-0.234zM31.883 4.050v0.655l1.007-0.655h-1.007z"
    fill="#1a2c38"
    style="fill: #1a2c38"
  />
  <path
    d="M18.189 17.065v1.124l0.398-0.023v0.96l-2.996-0.070v-1.124l2.996-2.107v0.96l-0.398 0.281zM17.44 18.236v-0.679l-1.053 0.702 1.053-0.023z"
    fill="#1a2c38"
    style="fill: #1a2c38"
  />
  <path
    d="M29.168 13.132l0.819 0.609-21.677 6.999 0.562-1.053z"
    fill="#213843"
    style="fill: #213843"
  />
  <path
    d="M29.987 13.741v8.919l-21.677 7.444v-9.364z"
    fill="#1a2c38"
    style="fill: #1a2c38"
  />
  <path
    d="M25.094 11.564l-19.804 6.461 3.582 1.662 20.296-6.555z"
    fill="#2d4454"
    style="fill: #2d4454"
  />
  <path
    d="M9.129 21.419v0.515l1.639-0.562v-0.515z"
    fill="#00e701"
    style="fill: #00e701"
  />
  <path
    d="M5.29 18.025l-0.679 0.936 3.699 1.779 0.562-1.053z"
    fill="#213843"
    style="fill: #213843"
  />
  <path
    d="M4.612 18.961v9.176l3.699 1.966 0.328-9.223z"
    fill="#1a2c38"
    style="fill: #1a2c38"
  />
  <path
    d="M9.527 18.727l-0.632-0.023-1.405-0.585v-0.211l2.013 0.070z"
    fill="#1a2c38"
    style="fill: #1a2c38"
  />
  <path
    d="M11.26 18.165l-0.609-0.047-1.428-0.562v-0.234l2.013 0.094z"
    fill="#1a2c38"
    style="fill: #1a2c38"
  />
  <path
    d="M12.992 17.58l-0.609-0.023-1.405-0.585-0.023-0.211 2.013 0.094z"
    fill="#1a2c38"
    style="fill: #1a2c38"
  />
  <path
    d="M4.143 17.486l-3.441-1.615-0.702 0.89 3.465 1.662z"
    fill="#213843"
    style="fill: #213843"
  />
</svg>
