<svg xmlns="http://www.w3.org/2000/svg" viewBox="0 0 39 32">
  <path
    d="M23.947 11.119v6.742l-20.553 4.050-0.772-5.384z"
    fill="#0f212e"
    style="fill: #0f212e"
  />
  <path
    d="M4.143 17.486l19.804-6.367-3.535-1.381-19.71 6.133 2.832 1.873z"
    fill="#2d4454"
    style="fill: #2d4454"
  />
  <path
    d="M3.465 18.399l-0.843 6.882 1.99 0.14v-6.461z"
    fill="#0f212e"
    style="fill: #0f212e"
  />
  <path
    d="M4.143 17.486l-0.679 0.913 1.147 0.562 0.679-0.936z"
    fill="#0f212e"
    style="fill: #0f212e"
  />
  <path
    d="M39.28 25.141v0.562l-19.242 6.297-5.899-3.090 0.679-0.258z"
    fill="#2d4454"
    style="fill: #2d4454"
  />
  <path
    d="M19.968 31.462l-11.33-6.227 17.557-5.829 13.086 5.735z"
    fill="#557085"
    style="fill: #557085"
  />
  <path
    d="M14.818 28.653l16.55-5.009-1.849-0.819v0.749z"
    fill="#2d4454"
    style="fill: #2d4454"
  />
  <path
    d="M21.911 26.756l0.047-0.983c0-0.070-0.14-0.164-0.328-0.164l-2.341-0.187c-0.164 0-0.258 0.070-0.14 0.117l2.435 1.241c0.117 0.047 0.304 0.023 0.328-0.023z"
    fill="#1a2c38"
    style="fill: #1a2c38"
  />
  <path
    d="M20.366 24.86l2.809 0.211c0.187 0.023 0.328 0.094 0.328 0.164l-0.047 1.17c0 0.070 0.164 0.164 0.351 0.164l2.809 0.187c0.187 0 0.351-0.047 0.351-0.117l0.023-2.552c0-0.070-0.164-0.14-0.351-0.164l-6.11-0.398c-0.187 0-0.328 0.047-0.328 0.117l-0.164 1.077c-0.023 0.047 0.14 0.14 0.328 0.14z"
    fill="#1a2c38"
    style="fill: #1a2c38"
  />
  <path
    d="M25.539 21.911l-0.913-0.421-0.398 0.070-0.773-0.351 3.301-0.421 0.936 0.421-1.568 1.217-0.796-0.375 0.211-0.14zM25.422 21.372l0.562 0.258 0.585-0.421-1.147 0.164z"
    fill="#1a2c38"
    style="fill: #1a2c38"
  />
  <path
    d="M20.764 28.606l0.936 0.492 0.421-0.047 0.819 0.421-3.465 0.351-0.913-0.492 1.639-1.288 0.796 0.421-0.234 0.14zM20.881 29.191l-0.562-0.281-0.632 0.445 1.194-0.164z"
    fill="#1a2c38"
    style="fill: #1a2c38"
  />
  <path
    d="M0.515 25.235v1.381l7.795 4.331 21.209-7.374v-1.311l-15.614-0.866-10.44 3.394z"
    fill="#213843"
    style="fill: #213843"
  />
  <path
    d="M4.612 18.961v0 6.461l-1.147-0.632v-6.765l-3.465-1.264v8.919l8.31 4.424v-9.387z"
    fill="#1a2c38"
    style="fill: #1a2c38"
  />
  <path
    d="M29.168 13.132l0.819 0.609-21.677 6.976 0.562-1.030z"
    fill="#213843"
    style="fill: #213843"
  />
  <path
    d="M29.987 13.741v8.919l-21.677 7.444v-9.387z"
    fill="#1a2c38"
    style="fill: #1a2c38"
  />
  <path
    d="M25.094 11.564l-19.804 6.461 3.582 1.662 20.296-6.555z"
    fill="#2d4454"
    style="fill: #2d4454"
  />
  <path
    d="M9.129 21.419v0.515l1.639-0.562v-0.515z"
    fill="#fe2247"
    style="fill: #fe2247"
  />
  <path
    d="M5.29 18.025l-0.679 0.936 3.699 1.756 0.562-1.030z"
    fill="#213843"
    style="fill: #213843"
  />
  <path
    d="M4.612 18.961v9.176l3.699 1.966 0.258-9.247z"
    fill="#1a2c38"
    style="fill: #1a2c38"
  />
  <path
    d="M9.527 18.727l-0.632-0.023-1.405-0.585v-0.234l2.013 0.094z"
    fill="#1a2c38"
    style="fill: #1a2c38"
  />
  <path
    d="M11.26 18.165l-0.609-0.047-1.428-0.585v-0.211l2.013 0.094z"
    fill="#1a2c38"
    style="fill: #1a2c38"
  />
  <path
    d="M12.992 17.58l-0.609-0.023-1.405-0.585-0.023-0.211 2.013 0.070z"
    fill="#1a2c38"
    style="fill: #1a2c38"
  />
  <path
    d="M8.31 30.947l7.116-1.358-1.287-0.679z"
    fill="#071824"
    style="fill: #071824"
  />
  <path
    d="M4.143 17.486l-3.441-1.615-0.702 0.89 3.465 1.639z"
    fill="#213843"
    style="fill: #213843"
  />
</svg>
