<svg xmlns="http://www.w3.org/2000/svg" viewBox="0 0 39 32">
  <path
    d="M23.947 11.143v6.742l-20.553 4.050-0.772-5.407z"
    fill="#0f212e"
    style="fill: #0f212e"
  />
  <path
    d="M4.143 17.51l19.804-6.367-3.535-1.381-19.71 6.133 2.013 1.288z"
    fill="#2d4454"
    style="fill: #2d4454"
  />
  <path
    d="M3.465 18.423v6.391l1.147 0.609v-6.461z"
    fill="#0f212e"
    style="fill: #0f212e"
  />
  <path
    d="M4.143 17.51l-0.679 0.913 1.147 0.538 0.679-0.936z"
    fill="#0f212e"
    style="fill: #0f212e"
  />
  <path
    d="M0.515 25.258v1.381l7.795 4.307 21.209-7.35v-1.334z"
    fill="#213843"
    style="fill: #213843"
  />
  <path
    d="M4.612 18.961v0 6.461l-1.147-0.609v-6.648l-3.465-1.405v8.942l8.31 4.424v-9.387z"
    fill="#1a2c38"
    style="fill: #1a2c38"
  />
  <path
    d="M4.143 17.51l-3.441-1.615-0.702 0.866 3.465 1.662z"
    fill="#213843"
    style="fill: #213843"
  />
  <path
    d="M25.633 3.441l-0.515-0.234-21.653 6.976v14.911l0.492 0.351z"
    fill="#2d4454"
    style="fill: #2d4454"
  />
  <path
    d="M3.956 25.445v-15.005l21.677-6.999v14.56z"
    fill="#557085"
    style="fill: #557085"
  />
  <path
    d="M11.822 16.971l1.451-1.92c0.117-0.14 0.117-0.328 0-0.398l-1.451-0.96c-0.094-0.070-0.281 0.070-0.281 0.211v3.067c0.023 0.117 0.187 0.14 0.281 0z"
    fill="#1a2c38"
    style="fill: #1a2c38"
  />
  <path
    d="M13.413 12.898l1.709 1.124c0.117 0.070 0.117 0.258 0 0.398l-1.709 2.271c-0.117 0.164-0.117 0.351 0 0.421l1.709 1.007c0.14 0.047 0.328 0 0.398-0.14l3.675-4.916c0.117-0.14 0.117-0.328 0-0.398l-3.675-2.458c-0.14-0.070-0.328 0-0.398 0.117l-1.709 2.13c-0.117 0.164-0.117 0.351 0 0.445z"
    fill="#1a2c38"
    style="fill: #1a2c38"
  />
  <path
    d="M21.396 8.38v-1.124h-0.375v-0.936l2.879 0.14v1.1l-2.879 2.013v-0.96l0.375-0.234zM22.121 7.257v0.655l1.007-0.655h-1.007z"
    fill="#1a2c38"
    style="fill: #1a2c38"
  />
  <path
    d="M8.427 20.272v1.124l0.375-0.023v0.96l-2.996-0.070v-1.124l2.996-2.107v0.96l-0.375 0.281zM7.678 21.443v-0.679l-1.053 0.702 1.053-0.023z"
    fill="#1a2c38"
    style="fill: #1a2c38"
  />
  <path
    d="M29.168 13.156l0.819 0.609-21.677 6.976 0.562-1.030z"
    fill="#213843"
    style="fill: #213843"
  />
  <path
    d="M29.987 13.764v8.919l-21.677 7.444v-9.387z"
    fill="#1a2c38"
    style="fill: #1a2c38"
  />
  <path
    d="M25.094 11.587l-19.804 6.437 3.582 1.685 20.296-6.555z"
    fill="#2d4454"
    style="fill: #2d4454"
  />
  <path
    d="M9.129 21.419v0.538l1.639-0.562v-0.538z"
    fill="#fc0"
    style="fill: #fc0"
  />
  <path
    d="M5.29 18.025l-0.679 0.936 3.699 1.779 0.562-1.030z"
    fill="#213843"
    style="fill: #213843"
  />
  <path
    d="M4.612 18.961v9.176l3.699 1.99 0.258-9.27z"
    fill="#1a2c38"
    style="fill: #1a2c38"
  />
  <path
    d="M9.527 18.751l-0.632-0.023-1.405-0.585v-0.234l2.013 0.094z"
    fill="#1a2c38"
    style="fill: #1a2c38"
  />
  <path
    d="M11.26 18.165l-0.609-0.023-1.428-0.585v-0.211l2.013 0.094z"
    fill="#1a2c38"
    style="fill: #1a2c38"
  />
  <path
    d="M12.992 17.604l-0.609-0.047-1.405-0.562-0.023-0.234 2.013 0.094z"
    fill="#1a2c38"
    style="fill: #1a2c38"
  />
</svg>
