<svg xmlns="http://www.w3.org/2000/svg" viewBox="0 0 258.32 253">
  <g id="Viber">
    <circle class="cls-2" cx="129.16" cy="126.5" r="125" style="fill: #000" />
    <g>
      <path
        d="M146.63,54.96h-35.8c-27.3,0-49.64,22.34-49.64,49.64v24.45c0,21.3,13.59,39.57,32.53,46.58l-.47,17.22c-.13,4.9,5.82,7.4,9.22,3.88l17.42-18.03h26.74c27.3,0,49.64-22.34,49.64-49.64v-24.45c0-27.3-22.34-49.64-49.64-49.64Zm39.24,73.29c0,22.07-18.06,40.12-40.12,40.12h-25.3l-20.93,23.41c-.62,.69-1.76,.25-1.76-.67v-25.28c-15.21-5.72-26.11-20.43-26.11-37.58v-22.8c0-22.07,18.06-40.12,40.12-40.12h33.98c22.07,0,40.12,18.06,40.12,40.12v22.8Z"
        style="fill: #fff"
      />
      <g>
        <path
          class="cls-3"
          d="M128.17,86.74c16.94,0,30.68,13.67,30.8,30.58"
          style="
            fill: none;
            stroke: #fff;
            stroke-linecap: round;
            stroke-miterlimit: 10;
            stroke-width: 4px;
          "
        />
        <path
          class="cls-3"
          d="M129.81,94.81c11.33,.53,20.44,9.57,21.08,20.87"
          style="
            fill: none;
            stroke: #fff;
            stroke-linecap: round;
            stroke-miterlimit: 10;
            stroke-width: 4px;
          "
        />
        <path
          class="cls-3"
          d="M142.71,114.9c-1.1-6.08-5.91-10.86-12-11.91"
          style="
            fill: none;
            stroke: #fff;
            stroke-linecap: round;
            stroke-miterlimit: 10;
            stroke-width: 4px;
          "
        />
      </g>
      <path
        d="M111.77,89.81s-1.57-2.87-6.26-2.61-9.4,5.81-10.9,12.14,1.37,13.18,3.39,16.64c2.02,3.46,5.74,10.57,14.23,18.86,8.48,8.29,11.22,9.07,17.59,12.14s10.21,4.31,16.28,4.11c6.07-.2,10.83-4.31,12.46-7.11s2.22-8.29,1.63-8.81-13.77-7.96-15.33-8.09-2.28,.45-3.26,1.66-5.02,6.24-5.68,6.5-3.46-.32-5.68-1.89-8.22-4.31-13.31-10.64c-4.63-6.43-6.26-8.94-5.48-10.25,.78-1.31,5.68-5.61,5.68-7.83s-2.22-6.4-2.87-8.22-2.48-6.59-2.48-6.59Z"
        style="fill: #fff"
      />
    </g>
  </g>
</svg>
