<svg xmlns="http://www.w3.org/2000/svg" viewBox="0 0 32 32">
  <path
    d="M15.080 27.64l-7.080 3.44c-0.228 0.119-0.499 0.188-0.785 0.188-0.957 0-1.733-0.776-1.733-1.733 0-0.071 0.004-0.141 0.013-0.21l-0.001 0.008 1.173-8c0.009-0.066 0.014-0.141 0.014-0.218 0-0.468-0.183-0.894-0.481-1.209l0.001 0.001-5.667-5.907c-0.3-0.309-0.485-0.732-0.485-1.198 0-0.848 0.614-1.553 1.422-1.694l0.010-0.002 8-1.44c0.518-0.104 0.944-0.43 1.182-0.871l0.005-0.009 3.827-7.133c0.295-0.548 0.865-0.915 1.52-0.915s1.225 0.367 1.515 0.906l0.005 0.009 3.8 7.133c0.248 0.456 0.685 0.783 1.203 0.878l0.011 0.002 8 1.44c0.818 0.143 1.432 0.848 1.432 1.696 0 0.466-0.185 0.888-0.486 1.198l0-0-5.6 5.84c-0.316 0.318-0.512 0.757-0.512 1.241 0 0.089 0.007 0.177 0.019 0.262l-0.001-0.010 1.107 8c0.007 0.060 0.012 0.13 0.012 0.201 0 0.957-0.776 1.733-1.733 1.733-0.286 0-0.557-0.070-0.795-0.193l0.010 0.005-7.12-3.44c-0.264-0.127-0.573-0.201-0.9-0.201s-0.636 0.074-0.913 0.206l0.013-0.006z"
    fill="#6fdde7"
    style="fill: #6fdde7"
  />
  <path
    d="M11.68 22.893l-3.773-10.227h3.507l2.213 6.88 2.213-6.88h3.507l-3.773 10.227z"
    fill="#0f212e"
    style="fill: #0f212e"
  />
  <path
    d="M19.893 22.893v-10.227h3.107v10.227z"
    fill="#0f212e"
    style="fill: #0f212e"
  />
</svg>
