<svg xmlns="http://www.w3.org/2000/svg" viewBox="0 0 32 32">
  <path
    d="M16 4.87l2.83 5.25c0.653 1.221 1.814 2.098 3.192 2.356l0.028 0.004 5.95 1.070-4.13 4.3c-0.803 0.83-1.298 1.962-1.3 3.21v0c-0.007 0.096-0.011 0.207-0.011 0.32s0.004 0.224 0.012 0.335l-0.001-0.015 0.82 5.92-5.22-2.52c-0.633-0.317-1.379-0.505-2.168-0.51h-0.002c-0.006-0-0.013-0-0.020-0-0.793 0-1.543 0.185-2.209 0.513l0.029-0.013-5.19 2.51 0.82-5.92c0.005-0.093 0.008-0.201 0.008-0.31s-0.003-0.217-0.009-0.325l0.001 0.015c-0.002-1.248-0.497-2.38-1.301-3.211l0.001 0.001-4.13-4.3 5.88-1.070c1.428-0.236 2.613-1.111 3.268-2.316l0.012-0.024zM16 0.69v0c-0 0-0 0-0.001 0-0.657 0-1.229 0.364-1.525 0.901l-0.005 0.009-3.8 7.15c-0.256 0.454-0.692 0.782-1.208 0.888l-0.012 0.002-8 1.44c-0.828 0.148-1.448 0.861-1.45 1.72v0c-0 0.004-0 0.008-0 0.012 0 0.462 0.183 0.881 0.48 1.188l-0-0 5.61 5.85c0.303 0.309 0.489 0.733 0.49 1.2v0c0.003 0.043 0.004 0.094 0.004 0.145s-0.001 0.102-0.004 0.152l0-0.007-1.090 8c-0.005 0.036-0.007 0.078-0.007 0.12s0.003 0.084 0.008 0.125l-0-0.005c-0 0.003-0 0.006-0 0.010 0 0.955 0.775 1.73 1.73 1.73 0 0 0 0 0 0h0.060c0.266-0.013 0.512-0.086 0.729-0.204l-0.009 0.004 7.13-3.44c0.269-0.132 0.585-0.209 0.92-0.21h0c0.001 0 0.002 0 0.004 0 0.338 0 0.657 0.081 0.938 0.225l-0.012-0.005 7 3.44c0.215 0.12 0.471 0.19 0.744 0.19 0.002 0 0.005 0 0.007 0h0.070c0.953-0.006 1.724-0.777 1.73-1.729v-0.001c0.003-0.037 0.004-0.081 0.004-0.125s-0.001-0.088-0.004-0.131l0 0.006-1.090-8c-0.003-0.037-0.004-0.081-0.004-0.125s0.002-0.088 0.005-0.131l-0 0.006c0-0.002-0-0.005-0-0.008 0-0.462 0.187-0.879 0.49-1.182l0-0 5.59-5.9c0.298-0.31 0.482-0.733 0.482-1.198 0-0.846-0.608-1.551-1.411-1.701l-0.011-0.002-8-1.44c-0.54-0.104-0.985-0.446-1.225-0.91l-0.005-0.010-3.8-7.15c-0.302-0.541-0.871-0.9-1.524-0.9-0.009 0-0.018 0-0.027 0l0.001-0z"
    fill="#6b7a8d"
    style="fill: #6b7a8d"
  />
</svg>
