<svg xmlns="http://www.w3.org/2000/svg" viewBox="0 0 32 32">
  <path
    d="M26.507 6.24h-21l-5.507 7.547 16 17.907 16-17.907-5.493-7.547z"
    fill="#7af2ff"
    style="fill: #7af2ff"
  />
  <path
    d="M16.040 31.693v-10.133l-10.413-1.48 10.413 11.613z"
    fill="#00cfe3"
    style="fill: #00cfe3"
  />
  <path
    d="M26.467 20.080l-10.427 11.613v-12.040l10.427 0.427z"
    fill="#00aebf"
    style="fill: #00aebf"
  />
  <path
    d="M31.96 13.853h-31.933l5.6 6.227h20.84l5.493-6.227z"
    fill="#00c3d6"
    style="fill: #00c3d6"
  />
  <path
    d="M5.52 6.24l4.813 7.613-10.307-0.107 5.493-7.507z"
    fill="#dbfffe"
    style="fill: #dbfffe"
  />
  <path
    d="M26.467 6.24l-4.827 7.613 10.32-0.107-5.493-7.507z"
    fill="#00e4fb"
    style="fill: #00e4fb"
  />
  <path
    d="M16.040 6.24l-10.413 13.813 0.040 0.013 10.373-3.68v-10.147z"
    fill="#bafffe"
    style="fill: #bafffe"
  />
  <path
    d="M5.667 20.067l10.373 4.867v-8.547l-10.373 3.68z"
    fill="#00e4fb"
    style="fill: #00e4fb"
  />
  <path
    d="M16.040 24.933l10.387-4.867-10.387-3.68v8.547z"
    fill="#00fffb"
    style="fill: #00fffb"
  />
  <path
    d="M16.040 6.24v10.147l10.387 3.68 0.040-0.013-10.427-13.813z"
    fill="#00e4fb"
    style="fill: #00e4fb"
  />
  <path
    d="M17.268 4.087l2.035-3.795 1.763 0.945-2.035 3.795-1.763-0.945z"
    fill="#00e4fb"
    style="fill: #00e4fb"
  />
  <path
    d="M10.947 1.25l1.763-0.945 2.035 3.795-1.763 0.945-2.035-3.795z"
    fill="#00e4fb"
    style="fill: #00e4fb"
  />
</svg>
