<svg xmlns="http://www.w3.org/2000/svg" viewBox="0 0 32 32">
  <path
    d="M14.83 25.57c-0.395-0.405-0.638-0.959-0.638-1.57 0-1.243 1.007-2.25 2.25-2.25 0.001 0 0.002 0 0.003 0h2.13c-0.24-3.405-1.725-8.685-8-12.3-0.682-0.395-1.134-1.122-1.134-1.954 0-1.243 1.007-2.25 2.25-2.25 0.127 0 0.251 0.011 0.372 0.031l-0.013-0.002c4.89 0.765 13.225 4.095 16.75 11.5 0.119-0.678 0.191-1.465 0.2-2.266l0-0.009c0-0 0-0 0-0.001 0-8.008-6.492-14.5-14.5-14.5s-14.5 6.492-14.5 14.5c0 8.008 6.492 14.5 14.5 14.5 1.169 0 2.305-0.138 3.394-0.399l-0.099 0.020z"
  />
  <path
    d="M28.22 24c-0.28-13.96-16.5-16.5-16.5-16.5 9 5.215 9.3 13.63 9.11 16.5h-4.385l7.775 8 7.78-8z"
  />
</svg>
