<svg xmlns="http://www.w3.org/2000/svg" viewBox="0 0 32 32">
  <path
    d="M26.427 3.387h-20.853l-5.467 7.4 15.893 17.88 15.893-17.88-5.467-7.4z"
    fill="#00fffb"
    style="fill: #00fffb"
  />
  <path
    d="M16.040 28.667v-17.387l-15.933-0.493 15.933 17.88z"
    fill="#0885fb"
    style="fill: #0885fb"
  />
  <path
    d="M31.893 10.787l-15.853 17.88 6.413-17.88h9.44z"
    fill="#00b1fb"
    style="fill: #00b1fb"
  />
  <path
    d="M5.587 3.387l4.787 7.547-10.24-0.107 5.453-7.44z"
    fill="#00e8fb"
    style="fill: #00e8fb"
  />
  <path
    d="M26.4 3.387l-4.787 7.547 10.24-0.107-5.453-7.44z"
    fill="#00e8fb"
    style="fill: #00e8fb"
  />
  <path
    d="M16 14.933v13.733l10.347-17.88-10.347 4.147z"
    fill="#0885fb"
    style="fill: #0885fb"
  />
  <path
    d="M26.32 10.787l-10.32-7.453v11.6l10.32-4.147z"
    fill="#00e4fb"
    style="fill: #00e4fb"
  />
  <path
    d="M16 3.333l-10.32 7.453 10.32 4.147v-11.6z"
    fill="#dbfffe"
    style="fill: #dbfffe"
  />
  <path
    d="M5.68 10.787l10.32 17.88v-13.733l-10.32-4.147z"
    fill="#00a8fb"
    style="fill: #00a8fb"
  />
  <path
    d="M5.227 17.467s0 7.56-5.227 7.56c0 0 5.227 0 5.227 6.973 0-6.973 5.227-6.973 5.227-6.973-5.227 0-5.227-7.56-5.227-7.56z"
    fill="#fff"
    style="fill: #fff"
  />
  <path
    d="M25.987 6.413c-1.8-1.6-2.133-6.413-2.133-6.413s-0.333 4.813-2.133 6.413-6.013 1.733-6.013 1.733 4.893 0.587 6.173 1.987 1.973 6.16 1.973 6.16 0.68-4.747 1.973-6.16 6.173-1.987 6.173-1.987-4.213-0.147-6.013-1.733z"
    fill="#fff"
    style="fill: #fff"
  />
</svg>
