<svg xmlns="http://www.w3.org/2000/svg" viewBox="0 0 32 32">
  <path
    d="M9.373 0l-9.373 9.373v13.253l9.373 9.373h13.253l9.373-9.373v-13.253l-9.373-9.373h-13.253z"
    fill="#9000ff"
    style="fill: #9000ff"
  />
  <path
    d="M32 9.373l-9.373-9.373h-4.933l0.773 11.693 12.867 11.613 0.667-0.68v-13.253z"
    fill="#a42eff"
    style="fill: #a42eff"
  />
  <path
    d="M11.693 8.613l2.613-8.613h-4.933l-9.373 9.373v13.253l0.6 0.6 6.787-7.227 4.307-7.387z"
    fill="#d296ff"
    style="fill: #d296ff"
  />
  <path
    d="M20.307 8.613l-2.613-8.613h-3.387l-2.613 8.613h8.613z"
    fill="#e2bdff"
    style="fill: #e2bdff"
  />
  <path
    d="M11.693 8.613l-8.813-2.12-2.253 2.24 6.76 7.267 4.307-7.387z"
    fill="#ebd1ff"
    style="fill: #ebd1ff"
  />
  <path
    d="M7.387 16l-6.787 7.227 2.24 2.24 8.853-2.080-4.307-7.387z"
    fill="#e2bdff"
    style="fill: #e2bdff"
  />
  <path
    d="M11.693 23.387l2.56 8.613h3.387l2.667-8.613h-8.613z"
    fill="#e2bdff"
    style="fill: #e2bdff"
  />
  <path
    d="M20.307 23.387l8.773 2.16 2.253-2.24-6.72-7.307-4.307 7.387z"
    fill="#e2bdff"
    style="fill: #e2bdff"
  />
  <path
    d="M24.613 16l6.827-7.187-2.24-2.24-8.893 2.040 4.307 7.387z"
    fill="#e2bdff"
    style="fill: #e2bdff"
  />
  <path
    d="M20.307 8.613h-8.613l-4.307 7.387 4.307 7.387h8.613l4.307-7.387-4.307-7.387z"
    fill="#f5e8ff"
    style="fill: #f5e8ff"
  />
</svg>
