<svg xmlns="http://www.w3.org/2000/svg" viewBox="0 0 32 32">
  <path
    d="M28.205 0l-3.42 0.4c-3.389 0.392-6.368 1.9-8.615 4.14l-5.345 5.35-4.24-0.465-6.585 6.575 6.455 0.81c1.67 4.25 4.535 7.21 8.725 8.725l0.82 6.465 6.575-6.585-0.465-4.24 5.35-5.345c2.241-2.247 3.748-5.226 4.134-8.548l0.006-0.067 0.4-3.42c0.015-0.12 0.023-0.258 0.023-0.398 0-1.889-1.531-3.42-3.42-3.42-0.14 0-0.279 0.008-0.415 0.025l0.016-0.002zM22.155 13.45c-2.209 0-4-1.791-4-4s1.791-4 4-4c2.209 0 4 1.791 4 4v0c0 0.006 0 0.013 0 0.020 0 2.209-1.791 4-4 4-0 0-0 0-0 0v0z"
  />
  <path
    d="M11.795 27.97c-3.537-1.227-6.273-3.963-7.474-7.416l-0.026-0.084s-4.26 2.33-2.845 10.325c7.995 1.41 10.345-2.825 10.345-2.825z"
  />
</svg>
