<svg xmlns="http://www.w3.org/2000/svg" viewBox="0 0 32 32">
  <path
    d="M9.375 0l-9.375 9.375v13.255l9.375 9.37h13.255l9.37-9.37v-13.255l-9.37-9.375h-13.255z"
    fill="#9000ff"
    style="fill: #9000ff"
  />
  <path
    d="M32 9.375l-9.37-9.375h-4.93l0.76 11.695 12.865 11.605 0.675-0.67v-13.255z"
    fill="#a42eff"
    style="fill: #a42eff"
  />
  <path
    d="M11.695 8.615l2.605-8.615h-4.925l-9.375 9.375v13.255l0.595 0.59 6.79-7.22 4.31-7.385z"
    fill="#d296ff"
    style="fill: #d296ff"
  />
  <path
    d="M20.31 8.615l-2.61-8.615h-3.4l-2.605 8.615h8.615z"
    fill="#7d00de"
    style="fill: #7d00de"
  />
  <path
    d="M11.695 8.615l-8.815-2.125-2.245 2.25 6.75 7.26 4.31-7.385z"
    fill="#ebd1ff"
    style="fill: #ebd1ff"
  />
  <path
    d="M7.385 16l-6.79 7.22 2.245 2.245 8.855-2.080-4.31-7.385z"
    fill="#e2bdff"
    style="fill: #e2bdff"
  />
  <path
    d="M11.695 23.385l2.555 8.615h3.395l2.665-8.615h-8.615z"
    fill="#6c00bf"
    style="fill: #6c00bf"
  />
  <path
    d="M20.31 23.385l8.765 2.165 2.25-2.25-6.71-7.3-4.305 7.385z"
    fill="#6c00bf"
    style="fill: #6c00bf"
  />
  <path
    d="M24.615 16l6.83-7.18-2.24-2.245-8.895 2.040 4.305 7.385z"
    fill="#7d00de"
    style="fill: #7d00de"
  />
  <path
    d="M20.31 8.615h-8.615l-4.31 7.385 4.31 7.385h8.615l4.305-7.385-4.305-7.385z"
    fill="#d296ff"
    style="fill: #d296ff"
  />
</svg>
