<svg xmlns="http://www.w3.org/2000/svg" viewBox="0 0 32 32">
  <path
    d="M15.080 27.68l-7.080 3.453c-0.238 0.13-0.521 0.207-0.822 0.207-0.957 0-1.733-0.776-1.733-1.733 0-0.097 0.008-0.192 0.023-0.284l-0.001 0.010 1.093-8c0.011-0.072 0.017-0.155 0.017-0.239 0-0.466-0.184-0.89-0.484-1.201l0.001 0.001-5.613-5.893c-0.299-0.311-0.483-0.734-0.483-1.2 0-0.85 0.612-1.557 1.419-1.705l0.011-0.002 8-1.44c0.54-0.096 0.986-0.428 1.235-0.884l0.005-0.009 3.84-7.147c0.297-0.554 0.872-0.925 1.533-0.925s1.237 0.371 1.529 0.916l0.005 0.009 3.76 7.147c0.249 0.459 0.684 0.79 1.202 0.892l0.011 0.002 8 1.44c0.818 0.15 1.429 0.857 1.429 1.706 0 0.466-0.184 0.889-0.483 1.201l0.001-0.001-5.613 5.853c-0.289 0.309-0.466 0.725-0.466 1.182 0 0.105 0.009 0.208 0.027 0.308l-0.002-0.011 1.093 8c0.010 0.071 0.016 0.154 0.016 0.237 0 0.957-0.776 1.733-1.733 1.733-0.273 0-0.53-0.063-0.76-0.175l0.010 0.005-7.147-3.453c-0.269-0.133-0.585-0.21-0.92-0.21s-0.651 0.078-0.932 0.216l0.012-0.006z"
    fill="#6fdde7"
    style="fill: #6fdde7"
  />
  <path
    d="M9.68 22.973v-10.28h3.107v10.28z"
    fill="#0f212e"
    style="fill: #0f212e"
  />
  <path
    d="M14.44 22.973v-10.28h3.12v10.28z"
    fill="#0f212e"
    style="fill: #0f212e"
  />
  <path
    d="M19.213 22.973v-10.28h3.12v10.28z"
    fill="#0f212e"
    style="fill: #0f212e"
  />
</svg>
