<svg xmlns="http://www.w3.org/2000/svg" viewBox="0 0 32 32">
  <path
    d="M28.86 6.825h-4.415c0.427-0.671 0.68-1.489 0.68-2.366 0-2.46-1.995-4.455-4.455-4.455-2.459 0-4.453 1.992-4.455 4.45v0c0-0.001 0-0.003 0-0.004 0-2.46-1.995-4.455-4.455-4.455s-4.455 1.995-4.455 4.455c0 0.887 0.259 1.713 0.706 2.407l-0.011-0.018h-4.43c-0.828 0-1.5 0.672-1.5 1.5v0 0 3.27c0 0.828 0.672 1.5 1.5 1.5v0h25.29c0.828 0 1.5-0.672 1.5-1.5v0 0-3.275c0-0.828-0.672-1.5-1.5-1.5v0zM18.86 4.465c0-1.013 0.822-1.835 1.835-1.835s1.835 0.822 1.835 1.835c0 1.013-0.822 1.835-1.835 1.835v0h-1.86zM11.76 2.63c1.013 0 1.835 0.822 1.835 1.835v0 0 1.835h-1.835c-1.013 0-1.835-0.822-1.835-1.835s0.822-1.835 1.835-1.835v0z"
  />
  <path
    d="M4.16 30.15c0 0 0 0 0 0 0 1.018 0.823 1.844 1.839 1.85h7.596v-15.725h-9.435z"
  />
  <path
    d="M18.835 32h7.585c0 0 0 0 0 0 1.016 0 1.841-0.82 1.85-1.834v-13.906h-9.435z"
  />
</svg>
