<svg xmlns="http://www.w3.org/2000/svg" viewBox="0 0 32 32">
  <path
    d="M15.080 27.667l-7.080 3.44c-0.233 0.124-0.509 0.197-0.803 0.197-0.957 0-1.733-0.776-1.733-1.733 0-0.084 0.006-0.166 0.017-0.246l-0.001 0.009 1.093-8c0.009-0.067 0.014-0.144 0.014-0.223 0-0.467-0.183-0.891-0.482-1.204l0.001 0.001-5.613-5.907c-0.299-0.311-0.483-0.734-0.483-1.2 0-0.85 0.612-1.557 1.419-1.705l0.011-0.002 8-1.44c0.534-0.093 0.976-0.421 1.222-0.871l0.005-0.009 3.827-7.147c0.302-0.546 0.875-0.91 1.533-0.91s1.231 0.364 1.529 0.901l0.005 0.009 3.773 7.147c0.251 0.459 0.693 0.787 1.216 0.879l0.010 0.002 8 1.44c0.818 0.15 1.429 0.857 1.429 1.706 0 0.466-0.184 0.889-0.483 1.201l0.001-0.001-5.613 5.853c-0.302 0.313-0.488 0.74-0.488 1.211 0 0.095 0.008 0.188 0.022 0.279l-0.001-0.010 1.093 8c0.010 0.071 0.016 0.154 0.016 0.237 0 0.957-0.776 1.733-1.733 1.733-0.294 0-0.57-0.073-0.812-0.202l0.009 0.005-7.133-3.44c-0.262-0.125-0.569-0.197-0.893-0.197s-0.631 0.073-0.906 0.203l0.013-0.006z"
    fill="#6fdde7"
    style="fill: #6fdde7"
  />
  <path
    d="M8.987 22.96v-10.267h3.107v10.267z"
    fill="#0f212e"
    style="fill: #0f212e"
  />
  <path
    d="M16.427 22.96l-3.773-10.267h3.52l2.213 6.907 2.213-6.907h3.52l-3.773 10.267z"
    fill="#0f212e"
    style="fill: #0f212e"
  />
</svg>
