<svg xmlns="http://www.w3.org/2000/svg" viewBox="0 0 32 32">
  <path
    d="M31.645 4.695c-0.018-1.229-1.018-2.218-2.25-2.218-0.621 0-1.183 0.252-1.59 0.658l0-0-0.335 0.365c-5.79-3.955-12.68-1.44-16.115 0.855-5.73 0.7-9.855 2.645-9.855 4.975v5.5c0 2.060 3.28 3.84 8.045 4.7 0.139 1.119 1.084 1.976 2.229 1.976 0.622 0 1.184-0.253 1.591-0.661l0-0 0.335-0.345c1.186 0.819 2.58 1.435 4.083 1.761l0.077 0.014c-0.62 0.030-1.245 0.045-1.86 0.045-5.445 0-11.16-1.070-14.31-3.35-0.119 0.252-0.189 0.548-0.19 0.86v5.5c0 2.9 6.5 5.25 14.5 5.25s14.5-2.35 14.5-5.25v-11.23c0.228-0.109 0.423-0.248 0.59-0.415v0c0.408-0.407 0.66-0.969 0.66-1.59 0-0.011-0-0.021-0-0.031l0 0.002zM13.54 17.5l-1.765 1.765-0.105-7.365 7.37 0.1-2.040 2.040c1.25 1.43 5.315 5.225 11.955 3.45-0.010 0.010-8.765 6.39-15.415 0.010zM22.135 12l2.045-2.045c-1.25-1.455-5.315-5.235-11.955-3.455 0 0 8.755-6.39 15.405 0l1.765-1.765 0.105 7.36z"
  />
</svg>
