<svg xmlns="http://www.w3.org/2000/svg" viewBox="0 0 32 32">
  <path
    d="M31.66 2.62c-0.431-1.040-1.24-1.849-2.253-2.27l-0.027-0.010c-0.483-0.215-1.047-0.34-1.64-0.34-0.004 0-0.007 0-0.011 0h-23.459c-0.003 0-0.006 0-0.010 0-0.593 0-1.157 0.125-1.666 0.35l0.026-0.010c-1.040 0.431-1.849 1.24-2.27 2.253l-0.010 0.027c-0.215 0.483-0.34 1.047-0.34 1.64 0 0.004 0 0.007 0 0.011v-0.001 23.46c0 0.003 0 0.006 0 0.010 0 0.593 0.125 1.157 0.35 1.666l-0.010-0.026c0.431 1.040 1.24 1.849 2.253 2.27l0.027 0.010c0.483 0.215 1.047 0.34 1.64 0.34 0.004 0 0.007 0 0.011 0h23.459c2.353-0.014 4.256-1.917 4.27-4.269v-23.461c0-0.003 0-0.006 0-0.010 0-0.593-0.125-1.157-0.35-1.666l0.010 0.026z"
    fill="#ff5426"
    style="fill: #ff5426"
  />
  <path
    d="M29.38 31.66c-0.483 0.215-1.047 0.34-1.64 0.34-0.004 0-0.007 0-0.011 0h-23.459c-0.003 0-0.006 0-0.010 0-0.593 0-1.157-0.125-1.666-0.35l0.026 0.010c0.595-1.96 6.36-3.5 13.38-3.5s12.785 1.54 13.38 3.5z"
    fill="#e33b0d"
    style="fill: #e33b0d"
  />
  <path
    d="M29.38 0.34c-0.595 1.96-6.38 3.5-13.38 3.5s-12.785-1.54-13.38-3.5c0.483-0.215 1.047-0.34 1.64-0.34 0.004 0 0.007 0 0.011 0h23.459c0.003 0 0.006 0 0.010 0 0.593 0 1.157 0.125 1.666 0.35l-0.026-0.010z"
    fill="#ff9b39"
    style="fill: #ff9b39"
  />
  <path
    d="M3.84 16c0 7-1.54 12.785-3.5 13.38-0.215-0.483-0.34-1.047-0.34-1.64 0-0.004 0-0.007 0-0.011v0.001-23.46c0-0.003 0-0.006 0-0.010 0-0.593 0.125-1.157 0.35-1.666l-0.010 0.026c1.96 0.595 3.5 6.38 3.5 13.38z"
    fill="#ff6c26"
    style="fill: #ff6c26"
  />
  <path
    d="M32 4.27v23.46c0 0.003 0 0.006 0 0.010 0 0.593-0.125 1.157-0.35 1.666l0.010-0.026c-1.96-0.595-3.5-6.36-3.5-13.38s1.54-12.785 3.5-13.38c0.215 0.483 0.34 1.047 0.34 1.64 0 0.004 0 0.007 0 0.011v-0.001z"
    fill="#ff6c26"
    style="fill: #ff6c26"
  />
  <path
    d="M3.84 16l12.159-12.159 12.159 12.159-12.159 12.159-12.159-12.159z"
    fill="#ff9b39"
    style="fill: #ff9b39"
  />
  <path
    d="M19.84 0l-3.84 3.84-3.84-3.84h7.68z"
    fill="#ffe5cc"
    style="fill: #ffe5cc"
  />
  <path
    d="M19.84 32h-7.68l3.84-3.84 3.84 3.84z"
    fill="#ff6c26"
    style="fill: #ff6c26"
  />
  <path
    d="M32 12.16v7.68l-3.84-3.84 3.84-3.84z"
    fill="#ff9b39"
    style="fill: #ff9b39"
  />
  <path
    d="M3.84 16l-3.84 3.84v-7.68l3.84 3.84z"
    fill="#ff9b39"
    style="fill: #ff9b39"
  />
  <path
    d="M16 28.16l-12.16-12.16 3.515-3.515 8.645 15.675z"
    fill="#ffc287"
    style="fill: #ffc287"
  />
  <path
    d="M28.16 16l-5.265 5.265c-0.815-6.595-4.395-13.265-6.96-17.36l0.065-0.065z"
    fill="#ffc287"
    style="fill: #ffc287"
  />
  <path
    d="M28.16 16c-8.715-4.59-14.475-6.545-17.035-7.285l4.875-4.875z"
    fill="#ffe5cc"
    style="fill: #ffe5cc"
  />
</svg>
