<svg xmlns="http://www.w3.org/2000/svg" viewBox="0 0 32 32">
  <path
    d="M26.507 3.28h-21l-5.507 7.533 16 17.92 16-17.92-5.493-7.533z"
    fill="#7af2ff"
    style="fill: #7af2ff"
  />
  <path
    d="M16.040 28.733v-10.147l-10.413-1.48 10.413 11.627z"
    fill="#00cfe3"
    style="fill: #00cfe3"
  />
  <path
    d="M26.467 17.107l-10.427 11.627v-12.040l10.427 0.413z"
    fill="#00aebf"
    style="fill: #00aebf"
  />
  <path
    d="M31.96 10.88h-31.933l5.6 6.227h20.84l5.493-6.227z"
    fill="#00c3d6"
    style="fill: #00c3d6"
  />
  <path
    d="M5.52 3.28l4.813 7.6-10.307-0.107 5.493-7.493z"
    fill="#dbfffe"
    style="fill: #dbfffe"
  />
  <path
    d="M26.467 3.28l-4.827 7.6 10.32-0.107-5.493-7.493z"
    fill="#00e4fb"
    style="fill: #00e4fb"
  />
  <path
    d="M16.040 3.28l-10.413 13.8 0.040 0.013 10.373-3.68v-10.133z"
    fill="#bafffe"
    style="fill: #bafffe"
  />
  <path
    d="M5.667 17.093l10.373 4.88v-8.56l-10.373 3.68z"
    fill="#00e4fb"
    style="fill: #00e4fb"
  />
  <path
    d="M16.040 21.973l10.387-4.88-10.387-3.68v8.56z"
    fill="#00fffb"
    style="fill: #00fffb"
  />
  <path
    d="M16.040 3.28v10.133l10.387 3.68 0.040-0.013-10.427-13.8z"
    fill="#00e4fb"
    style="fill: #00e4fb"
  />
</svg>
