<svg xmlns="http://www.w3.org/2000/svg" viewBox="0 0 32 32">
  <path
    d="M16 4.867l2.827 5.253c0.657 1.231 1.832 2.112 3.226 2.356l0.027 0.004 5.88 1.067-4.133 4.307c-0.801 0.831-1.295 1.963-1.295 3.21 0 0.218 0.015 0.431 0.044 0.641l-0.003-0.024 0.813 5.92-5.213-2.52c-0.636-0.311-1.383-0.493-2.173-0.493s-1.538 0.182-2.203 0.506l0.030-0.013-5.213 2.52 0.813-5.92c0.026-0.185 0.041-0.399 0.041-0.617 0-1.247-0.494-2.379-1.296-3.211l0.001 0.001-4.173-4.307 5.88-1.067c1.437-0.236 2.629-1.12 3.281-2.336l0.012-0.024 2.827-5.253zM16 0.693c-0.001 0-0.002 0-0.003 0-0.66 0-1.233 0.368-1.526 0.911l-0.005 0.009-3.8 7.147c-0.253 0.461-0.693 0.792-1.216 0.892l-0.011 0.002-8 1.44c-0.823 0.145-1.441 0.855-1.441 1.708 0 0.465 0.183 0.887 0.481 1.199l-0.001-0.001 5.613 5.853c0.304 0.306 0.491 0.727 0.491 1.193 0 0.102-0.009 0.201-0.026 0.298l0.002-0.010-1.093 8c-0.011 0.072-0.017 0.155-0.017 0.24 0 0.957 0.776 1.733 1.733 1.733 0.001 0 0.002 0 0.004 0h-0c0.015 0.001 0.034 0.001 0.052 0.001 0.278 0 0.541-0.069 0.77-0.192l-0.009 0.004 7.133-3.44c0.269-0.134 0.585-0.213 0.92-0.213s0.651 0.079 0.932 0.218l-0.012-0.005 7.027 3.44c0.217 0.118 0.476 0.187 0.75 0.187 0.003 0 0.007 0 0.011-0h-0.001c0.017 0.001 0.037 0.001 0.057 0.001 0.957 0 1.733-0.776 1.733-1.733 0-0.085-0.006-0.169-0.018-0.25l0.001 0.009-1.093-8c-0.012-0.076-0.019-0.164-0.019-0.253 0-0.462 0.185-0.882 0.486-1.187l-0 0 5.613-5.853c0.299-0.311 0.483-0.734 0.483-1.2 0-0.85-0.612-1.557-1.419-1.705l-0.011-0.002-8-1.44c-0.546-0.107-0.993-0.454-1.235-0.923l-0.005-0.010-3.8-7.147c-0.297-0.552-0.871-0.92-1.531-0.92-0.001 0-0.002 0-0.003 0h0z"
    fill="#c69c6d"
    style="fill: #c69c6d"
  />
</svg>
