<svg xmlns="http://www.w3.org/2000/svg" viewBox="0 0 32 32">
  <path
    d="M11.744 5.664l-1.856-4.464c-1.904 0.784-3.648 1.936-5.12 3.392l6.976 1.072z"
    fill="#fbfbfb"
    style="fill: #fbfbfb"
  />
  <path
    d="M4.656 4.704c-1.456 1.456-2.624 3.2-3.424 5.104l4.496 1.872-1.072-6.976z"
    fill="#ffb700"
    style="fill: #ffb700"
  />
  <path
    d="M11.744 5.664l-6.976-1.056-0.112 0.112 1.072 6.96-0.016 0.016 10.288 4.24-4.256-10.272z"
    fill="#db9200"
    style="fill: #db9200"
  />
  <path d="M5.728 11.68v0 0z" fill="#e7736b" style="fill: #e7736b" />
  <path
    d="M5.728 11.68v0l-5.728 4.208c0 0.032 0 0.064 0 0.096l5.728 4.208 10.272-4.256-10.272-4.256z"
    fill="#db9200"
    style="fill: #db9200"
  />
  <path
    d="M5.728 11.68l-4.496-1.872c-0.8 1.92-1.216 3.984-1.232 6.080l5.728-4.208z"
    fill="#ffd53b"
    style="fill: #ffd53b"
  />
  <path
    d="M5.728 20.192l-5.728-4.208v0.016c0 2.096 0.4 4.144 1.184 6.080l4.544-1.888z"
    fill="#fbfbfb"
    style="fill: #fbfbfb"
  />
  <path
    d="M22.112 1.216c-1.904-0.784-3.952-1.2-6.016-1.216l4.16 5.664 1.312-2.24 0.544-2.208z"
    fill="#ffb700"
    style="fill: #ffb700"
  />
  <path
    d="M16.096 0h-0.192l-4.16 5.664 4.256 10.272 4.288-10.224-4.192-5.712z"
    fill="#ffd53b"
    style="fill: #ffd53b"
  />
  <path
    d="M15.904 0c-2.064 0.016-4.096 0.416-6.016 1.2l1.84 4.464 4.176-5.664z"
    fill="#ffdd64"
    style="fill: #ffdd64"
  />
  <path
    d="M20.256 5.664l3.392-0.128 3.584-0.928c-1.472-1.44-3.216-2.608-5.12-3.392l-1.856 4.448z"
    fill="#db9200"
    style="fill: #db9200"
  />
  <path
    d="M30.768 9.808c-0.8-1.904-1.968-3.632-3.44-5.104l-0.704 3.424-0.352 3.552 4.496-1.872z"
    fill="#ffb700"
    style="fill: #ffb700"
  />
  <path
    d="M27.232 4.608l-6.976 1.056-4.256 10.272 10.272-4.256 1.056-6.96-0.096-0.112z"
    fill="#db9200"
    style="fill: #db9200"
  />
  <path
    d="M9.84 30.784c1.936 0.8 4.032 1.216 6.16 1.216l-4.256-5.792-1.904 4.576z"
    fill="#ffdd64"
    style="fill: #ffdd64"
  />
  <path
    d="M16 32c2.112 0 4.192-0.416 6.16-1.216l-1.888-4.56-4.272 5.776z"
    fill="#fbfbfb"
    style="fill: #fbfbfb"
  />
  <path
    d="M16 15.936l-4.256 10.272 4.256 5.792 4.256-5.792z"
    fill="#ffd53b"
    style="fill: #ffd53b"
  />
  <path
    d="M1.184 22.080c0.8 1.936 1.968 3.712 3.456 5.2l1.088-7.088-4.544 1.888z"
    fill="#ffdd64"
    style="fill: #ffdd64"
  />
  <path
    d="M11.744 26.208l-7.088 1.088c1.472 1.488 3.248 2.672 5.184 3.488l1.904-4.576z"
    fill="#ffd53b"
    style="fill: #ffd53b"
  />
  <path
    d="M5.728 20.192l-1.088 7.088 0.016 0.016 7.088-1.088 4.256-10.272-10.272 4.256z"
    fill="#ffb700"
    style="fill: #ffb700"
  />
  <path
    d="M26.272 20.192v0l4.528 1.872c0.784-1.92 1.2-4 1.2-6.096l-5.728 4.224z"
    fill="#ffb700"
    style="fill: #ffb700"
  />
  <path
    d="M32 15.888l-5.728-4.208-10.272 4.256 10.272 4.256 3.536-1.984 2.192-2.224c0-0.032 0-0.064 0-0.096z"
    fill="#ffb700"
    style="fill: #ffb700"
  />
  <path
    d="M26.272 11.68l5.728 4.208c-0.016-2.096-0.432-4.144-1.232-6.080l-4.496 1.872z"
    fill="#fbfbfb"
    style="fill: #fbfbfb"
  />
  <path d="M26.272 11.68v0 0z" fill="#e7736b" style="fill: #e7736b" />
  <path
    d="M27.36 27.28c1.472-1.488 2.656-3.264 3.456-5.2l-4.544-1.872 1.088 7.072z"
    fill="#ffdd64"
    style="fill: #ffdd64"
  />
  <path
    d="M26.272 20.192l-10.272-4.256 4.256 10.272 7.088 1.088 0.016-0.016-1.088-7.088z"
    fill="#ffd53b"
    style="fill: #ffd53b"
  />
  <path
    d="M20.256 26.208l1.888 4.56c1.936-0.8 3.712-1.984 5.184-3.488 0.016 0.016-7.072-1.072-7.072-1.072z"
    fill="#db9200"
    style="fill: #db9200"
  />
  <path
    d="M11.744 5.664h8.512l-4.256 10.272z"
    fill="#ffb700"
    style="fill: #ffb700"
  />
  <path
    d="M5.728 11.68l6.016-6.016 4.256 10.272z"
    fill="#ed9f00"
    style="fill: #ed9f00"
  />
  <path
    d="M5.728 20.192v-8.512l10.272 4.256z"
    fill="#a25a00"
    style="fill: #a25a00"
  />
  <path
    d="M11.744 26.208l-6.016-6.016 10.272-4.256z"
    fill="#db9200"
    style="fill: #db9200"
  />
  <path
    d="M20.256 26.208h-8.512l4.256-10.272z"
    fill="#ed9f00"
    style="fill: #ed9f00"
  />
  <path
    d="M26.272 20.192l-6.016 6.016-4.256-10.272z"
    fill="#a25a00"
    style="fill: #a25a00"
  />
  <path
    d="M26.272 11.68v8.512l-10.272-4.256z"
    fill="#ed9f00"
    style="fill: #ed9f00"
  />
  <path
    d="M20.256 5.664l6.016 6.016-10.272 4.256z"
    fill="#db9200"
    style="fill: #db9200"
  />
</svg>
