<svg xmlns="http://www.w3.org/2000/svg" viewBox="0 0 32 32">
  <path
    d="M15.080 27.68l-7.080 3.44c-0.237 0.13-0.519 0.206-0.819 0.206-0.957 0-1.733-0.776-1.733-1.733 0-0.091 0.007-0.181 0.021-0.269l-0.001 0.010 1.093-8c0.012-0.076 0.019-0.164 0.019-0.253 0-0.462-0.185-0.882-0.486-1.187l0 0-5.613-5.893c-0.299-0.311-0.483-0.734-0.483-1.2 0-0.85 0.612-1.557 1.419-1.705l0.011-0.002 8-1.44c0.539-0.098 0.985-0.43 1.235-0.884l0.005-0.009 3.827-7.147c0.297-0.554 0.872-0.925 1.533-0.925s1.237 0.371 1.529 0.916l0.005 0.009 3.773 7.147c0.253 0.461 0.693 0.792 1.216 0.892l0.011 0.002 8 1.44c0.818 0.15 1.429 0.857 1.429 1.706 0 0.466-0.184 0.889-0.483 1.201l0.001-0.001-5.613 5.853c-0.297 0.305-0.48 0.722-0.48 1.181 0 0.106 0.010 0.209 0.028 0.309l-0.002-0.010 1.093 8c0.012 0.078 0.020 0.168 0.020 0.259 0 0.957-0.776 1.733-1.733 1.733-0.3 0-0.582-0.076-0.829-0.21l0.009 0.005-7.133-3.44c-0.262-0.125-0.569-0.197-0.893-0.197s-0.631 0.073-0.906 0.203l0.013-0.006z"
    fill="#6fdde7"
    style="fill: #6fdde7"
  />
  <path
    d="M14.44 22.96v-10.267h3.12v10.267z"
    fill="#0f212e"
    style="fill: #0f212e"
  />
</svg>
