<svg xmlns="http://www.w3.org/2000/svg" viewBox="0 0 32 32">
  <path
    d="M4.88 4.494c2.875-2.782 6.797-4.496 11.12-4.496 3.446 0 6.638 1.089 9.249 2.943l-0.050-0.033c-0.187 0.44-0.373 0.867-0.587 1.333s-0.32 0.627-0.507 0.947c-3.085-1.187-6.655-1.875-10.385-1.875-0.394 0-0.787 0.008-1.177 0.023l0.056-0.002c-2.815 0.152-5.456 0.566-8.001 1.221l0.281-0.061zM1.8 8.614c3.219-1.149 6.945-1.925 10.815-2.167l0.118-0.006c0.381-0.019 0.826-0.030 1.275-0.030 3.012 0 5.906 0.499 8.607 1.419l-0.188-0.056c-0.453 0.667-0.96 1.333-1.493 2.013-2.191-0.421-4.71-0.662-7.285-0.662-1.444 0-2.871 0.076-4.276 0.223l0.175-0.015c-3.269 0.338-6.257 0.996-9.109 1.953l0.296-0.086c0.319-1.004 0.68-1.86 1.109-2.676l-0.043 0.089zM32 17.214c-0.868 0.948-1.773 1.819-2.73 2.631l-0.043 0.036c-0.387-0.84-0.813-1.667-1.333-2.493 1.363-1.398 2.605-2.928 3.7-4.564l0.073-0.116c0.212 0.99 0.333 2.127 0.333 3.293v0c0 0.413 0 0.813 0 1.213zM30.427 22.934v0 0zM30.333 8.881l-0.147 0.267c-1.164 2.119-2.491 3.948-4.016 5.591l0.016-0.018c-0.853-1.080-1.653-2.16-2.587-3.227 1.376-1.722 2.634-3.657 3.695-5.711l0.092-0.196c0.093-0.187 0.187-0.36 0.267-0.547 1.043 1.106 1.936 2.37 2.638 3.748l0.042 0.092zM28.16 26.401c-1.641 1.915-3.701 3.422-6.041 4.388l-0.106 0.039c-0.825-1.241-1.617-2.671-2.294-4.165l-0.079-0.195c-1.854-4.095-3.304-8.854-4.115-13.828l-0.045-0.332c1.984 0.127 3.813 0.368 5.6 0.724l-0.266-0.044c2.438 2.606 4.463 5.639 5.944 8.967l0.082 0.207c0.501 1.185 0.955 2.602 1.287 4.064l0.033 0.176zM0 14.734c1.080-0.4 2.16-0.747 3.227-1.053 0.146 4.259 1.004 8.275 2.458 11.993l-0.085-0.246c0.596 1.64 1.167 2.96 1.802 4.242l-0.109-0.242c-4.417-2.896-7.293-7.824-7.293-13.424 0-0.001 0-0.002 0-0.003v0c0-0.427 0-0.84 0-1.267zM12.267 12.241c0.913 5.809 2.494 11.028 4.69 15.911l-0.157-0.391c0.724 1.596 1.422 2.908 2.191 4.173l-0.098-0.173c-0.828 0.153-1.781 0.241-2.754 0.241-0.049 0-0.098-0-0.147-0.001l0.008 0c-1.393-0.003-2.744-0.178-4.034-0.505l0.114 0.024c-1.352-2.059-2.535-4.423-3.433-6.924l-0.074-0.236c-1.347-3.39-2.146-7.316-2.187-11.423l-0-0.017q1.76-0.347 3.48-0.52c0.8-0.080 1.613-0.133 2.453-0.16z"
  />
</svg>
