<svg xmlns="http://www.w3.org/2000/svg" viewBox="0 0 32 32">
  <path
    d="M3.853 3.253v2.28h6.427s-0.147 1.667-0.147 2.213c0 0.253 0.507 2.68 1.053 5.267v-9.76c0.107-0.36 0.333-0.693 0.6-1 0.267 0.32 0.48 0.64 0.6 1v15.253c0.133 0.613 0.213 1 0.213 1l3.453-12.613 3.453 12.613s0.080-0.387 0.213-1v-15.253c0.107-0.36 0.333-0.693 0.6-1 0.267 0.32 0.48 0.64 0.6 1v9.76c0.547-2.587 1.053-5.013 1.053-5.267 0-0.56-0.147-2.213-0.147-2.213h6.427v-2.28c0.573-1.88 3.76-3.213 3.76-3.213h-31.92s3.187 1.333 3.76 3.213z"
  />
  <path
    d="M28.24 28.933v-23.387s-1.627 0.973-2.667 5.813c-1.027 4.84-2.973 12.973-2.973 12.973s0.347 1.68 1.080 1.987h-2.787v2.613s-0.24 0.267-0.6 0.613c-0.347-0.36-0.6-0.613-0.6-0.613v-2.613h-2.907s0.693-1.48 0.493-2.16c-0.2-0.68-1.253-5.88-1.253-5.88s-1.053 5.2-1.253 5.88c-0.2 0.68 0.493 2.16 0.493 2.16h-2.907v2.613s-0.24 0.267-0.6 0.613c-0.347-0.36-0.6-0.613-0.6-0.613v-2.613h-2.787c0.733-0.307 1.080-1.987 1.080-1.987s-1.947-8.12-2.973-12.973c-1.027-4.84-2.653-5.813-2.667-5.813v23.387s-2.52 2.76-3.76 3.013h31.907c-1.24-0.24-3.76-3.013-3.76-3.013z"
  />
</svg>
