<svg xmlns="http://www.w3.org/2000/svg" viewBox="0 0 32 32">
  <path
    d="M19.733 8.24c0.488-0.557 0.786-1.292 0.786-2.096 0-1.76-1.427-3.187-3.187-3.187s-3.187 1.427-3.187 3.187c0 0.957 0.422 1.816 1.090 2.4l0.004 0.003c0.557 0.487 1.29 0.784 2.093 0.784 0.956 0 1.813-0.421 2.397-1.087l0.003-0.004z"
  />
  <path
    d="M29.907 18.907v0c-0.905 0.229-1.701 0.581-2.418 1.046l0.031-0.019-0.573 0.373c-0.764 0.64-1.757 1.028-2.841 1.028-0.037 0-0.074-0-0.111-0.001l0.005 0c-0.031 0.001-0.067 0.001-0.104 0.001-1.063 0-2.038-0.378-2.797-1.007l0.007 0.006c-1.168-0.898-2.608-1.498-4.177-1.664l-0.036-0.003h-0.893c-0.041-0.001-0.088-0.001-0.136-0.001-1.876 0-3.605 0.627-4.99 1.683l0.020-0.015c-0.752 0.623-1.727 1.001-2.79 1.001-0.037 0-0.073-0-0.109-0.001l0.005 0c-0.028 0.001-0.062 0.001-0.095 0.001-1.061 0-2.034-0.378-2.792-1.007l0.007 0.006c-1.365-1.041-3.095-1.668-4.971-1.668-0.053 0-0.105 0-0.157 0.001l0.008-0v4c0.041-0.001 0.088-0.001 0.136-0.001 1.876 0 3.605 0.627 4.99 1.683l-0.020-0.015c0.446 0.34 0.964 0.616 1.522 0.802l0.038 0.011 0.547 0.133c0.236 0.033 0.508 0.052 0.786 0.053h0.001c0.031 0.001 0.067 0.001 0.104 0.001 1.063 0 2.038-0.378 2.797-1.007l-0.007 0.006c1.365-1.041 3.094-1.668 4.97-1.668 0.048 0 0.096 0 0.144 0.001l-0.007-0h0.493c1.751 0.071 3.349 0.676 4.648 1.655l-0.021-0.015c0.757 0.639 1.743 1.027 2.821 1.027 0.021 0 0.042-0 0.063-0l-0.003 0c0.025 0.001 0.055 0.001 0.085 0.001 1.069 0 2.050-0.378 2.816-1.007l-0.008 0.006c1.36-1.041 3.086-1.668 4.957-1.668 0.053 0 0.105 0 0.157 0.001l-0.008-0v-4c-0.019-0-0.041-0-0.064-0-0.72 0-1.42 0.088-2.089 0.253l0.060-0.012z"
  />
  <path
    d="M24 28c-0.031 0.001-0.067 0.001-0.104 0.001-1.063 0-2.038-0.378-2.797-1.007l0.007 0.006c-1.366-1.041-3.097-1.668-4.975-1.668-0.046 0-0.093 0-0.139 0.001l0.007-0h-0.36c-1.794 0.057-3.435 0.669-4.768 1.669l0.022-0.016c-0.754 0.631-1.735 1.014-2.805 1.014-0.031 0-0.062-0-0.093-0.001l0.005 0c-0.028 0.001-0.062 0.001-0.095 0.001-1.061 0-2.034-0.378-2.792-1.007l0.007 0.006c-1.365-1.041-3.095-1.668-4.971-1.668-0.053 0-0.105 0-0.157 0.001l0.008-0v4c0.041-0.001 0.088-0.001 0.136-0.001 1.876 0 3.605 0.627 4.99 1.683l-0.020-0.015c0.75 0.623 1.723 1.001 2.785 1.001 0.038 0 0.076-0.001 0.114-0.001l-0.006 0c0.031 0.001 0.067 0.001 0.104 0.001 1.063 0 2.038-0.378 2.797-1.007l-0.007 0.006c1.365-1.041 3.094-1.668 4.97-1.668 0.048 0 0.096 0 0.144 0.001l-0.007-0c0.043-0.001 0.094-0.001 0.145-0.001 1.877 0 3.608 0.627 4.995 1.683l-0.020-0.015c0.752 0.623 1.726 1.001 2.789 1.001 0.032 0 0.064-0 0.096-0.001l-0.005 0c0.025 0.001 0.055 0.001 0.085 0.001 1.069 0 2.050-0.378 2.816-1.007l-0.008 0.006c1.36-1.041 3.086-1.668 4.957-1.668 0.053 0 0.105 0 0.157 0.001l-0.008-0v-4c-0.044-0.001-0.097-0.001-0.149-0.001-1.872 0-3.597 0.627-4.977 1.683l0.020-0.015c-0.759 0.623-1.739 1.001-2.808 1.001-0.030 0-0.060-0-0.090-0.001l0.004 0z"
  />
  <path
    d="M7.040 4.8v0c0.412 0.313 0.928 0.509 1.488 0.533l0.005 0h0.653l0.36-0.107h0.093c0.411-0.194 0.755-0.469 1.022-0.807l0.005-0.006c0.406-0.465 0.653-1.078 0.653-1.748 0-1.473-1.194-2.667-2.667-2.667s-2.667 1.194-2.667 2.667c0 0.803 0.355 1.523 0.917 2.012l0.003 0.003z"
  />
  <path
    d="M10.373 6.974c-0.497 0.206-1.075 0.326-1.68 0.326s-1.183-0.12-1.71-0.337l0.030 0.011c0.128 1.292 0.573 2.46 1.256 3.451l-0.016-0.025c0.648 0.922 1.451 1.687 2.379 2.273l0.034 0.020-1.867 5.8 0.6-0.373c1.767-1.325 3.996-2.122 6.411-2.122 0.066 0 0.133 0.001 0.199 0.002l-0.010-0c0.011-0 0.024-0 0.037-0 0.88 0 1.737 0.097 2.561 0.281l-0.078-0.015 0.493-1.533c2.362 0.744 4.382 1.998 6.013 3.639l0.001 0.001 0.4-0.253c0.769-0.55 1.648-1.029 2.583-1.398l0.083-0.029c-4.653-4.92-9.413-5.733-12-5.733-0.047 0.001-0.103 0.002-0.159 0.002-1.999 0-3.777-0.946-4.91-2.414l-0.011-0.014c-0.302-0.445-0.526-0.969-0.636-1.534l-0.004-0.027z"
  />
</svg>
