<svg xmlns="http://www.w3.org/2000/svg" viewBox="0 0 32 32">
  <path
    d="M11.587 3.093c-6.4 0-11.587 4.32-11.587 9.653 0.086 3.037 1.637 5.695 3.969 7.3l0.031 0.020c0.202 0.133 0.333 0.358 0.333 0.615 0 0.004-0 0.008-0 0.013v-0.001c0.003 0.036 0.005 0.078 0.005 0.12s-0.002 0.084-0.005 0.125l0-0.005c-0.2 0.733-0.52 1.893-0.52 1.96-0.042 0.081-0.067 0.177-0.067 0.278 0 0.001 0 0.001 0 0.002v-0c0 0 0 0 0 0 0 0.206 0.167 0.373 0.373 0.373 0.005 0 0.009-0 0.014-0l-0.001 0c0.080-0.004 0.153-0.028 0.215-0.068l-0.002 0.001 2.533-1.467c0.18-0.104 0.395-0.168 0.625-0.173l0.002-0c0.050-0.009 0.108-0.014 0.167-0.014s0.117 0.005 0.173 0.015l-0.006-0.001c1.134 0.334 2.437 0.529 3.784 0.533h0.576c-0.27-0.742-0.427-1.598-0.427-2.49 0-0.001 0-0.002 0-0.003v0c0-4.96 4.76-9 10.667-9h0.613c-1.12-4.4-5.813-7.787-11.467-7.787zM7.72 11.173c-0.812-0.044-1.453-0.713-1.453-1.531 0-0.847 0.686-1.533 1.533-1.533s1.532 0.685 1.533 1.531v0c0 0.001 0 0.001 0 0.002 0 0.847-0.687 1.533-1.533 1.533-0.028 0-0.056-0.001-0.084-0.002l0.004 0zM15.48 11.173c-0.847 0-1.533-0.687-1.533-1.533s0.687-1.533 1.533-1.533c0.847 0 1.533 0.687 1.533 1.533v0c0 0.847-0.686 1.533-1.533 1.533v0z"
  />
  <path
    d="M28.667 25.987c1.969-1.34 3.263-3.545 3.333-6.056l0-0.010c0-4.44-4.32-8-9.653-8s-9.653 3.6-9.653 8 4.333 8 9.653 8c0.002 0 0.004 0 0.007 0 1.123 0 2.209-0.161 3.235-0.46l-0.081 0.020c0.084-0.025 0.18-0.040 0.279-0.040 0.193 0 0.373 0.054 0.525 0.149l2.102 1.211c0.053 0.034 0.116 0.058 0.184 0.066l0.002 0c0.178-0.007 0.32-0.154 0.32-0.333 0-0 0-0 0-0v0c0.004-0.034 0.006-0.073 0.006-0.113s-0.002-0.079-0.006-0.118l0 0.005-0.493-1.64c-0.003-0.030-0.005-0.065-0.005-0.1s0.002-0.070 0.005-0.104l-0 0.004c0.008-0.194 0.099-0.365 0.239-0.479l0.001-0.001zM19.2 18.773c-0.736 0-1.333-0.597-1.333-1.333v0 0c0-0.736 0.597-1.333 1.333-1.333v0 0c0.097-0.025 0.209-0.040 0.324-0.040 0.736 0 1.333 0.597 1.333 1.333s-0.597 1.333-1.333 1.333c-0.115 0-0.227-0.015-0.333-0.042l0.009 0.002zM25.667 18.773c-0.736 0-1.333-0.597-1.333-1.333v0 0c0-0.736 0.597-1.333 1.333-1.333v0 0c0.736 0 1.333 0.597 1.333 1.333v0c0 0.736-0.597 1.333-1.333 1.333v0z"
  />
</svg>
