<svg xmlns="http://www.w3.org/2000/svg" viewBox="0 0 32 32">
  <path
    d="M14.667 16.613c0.456 0.268 1.005 0.426 1.591 0.426 1.76 0 3.187-1.427 3.187-3.187s-1.427-3.187-3.187-3.187c-1.176 0-2.204 0.638-2.756 1.586l-0.008 0.015c-0.266 0.455-0.422 1.002-0.422 1.586 0 1.174 0.635 2.2 1.581 2.753l0.015 0.008z"
  />
  <path
    d="M32 12.707v-12h-4.667v4.333h-22.667v-4.333h-4.667v12h4.667v-4.333h1.493c0.147 1.333 1.253 9.733 6.253 12.667-0.092 0.299-0.146 0.643-0.147 0.999v2.667c0 0.002 0 0.004 0 0.006 0 0.262 0.029 0.518 0.084 0.764l-0.004-0.023-1.68-0.347c-0.253-0.050-0.543-0.079-0.84-0.079-2.481 0-4.493 2.011-4.493 4.492v2.48h3.333v-2.48c-0-0.002-0-0.005-0-0.008 0-0.362 0.165-0.684 0.425-0.897l0.002-0.002c0.197-0.165 0.454-0.265 0.734-0.265 0.085 0 0.168 0.009 0.247 0.027l-0.008-0.001 2.12 0.44c1.247 0.27 2.679 0.425 4.147 0.425s2.9-0.155 4.281-0.449l-0.134 0.024 2.32-0.467c0.072-0.016 0.155-0.025 0.24-0.025 0.641 0 1.16 0.519 1.16 1.16 0 0.004-0 0.008-0 0.012v-0.001 2.507h3.333v-2.493c-0.002-2.487-2.019-4.503-4.507-4.503-0.316 0-0.625 0.033-0.923 0.095l0.029-0.005-1.88 0.387c0.051-0.23 0.080-0.495 0.080-0.766 0-0.003 0-0.005 0-0.008v0-2.667c-0.006-0.373-0.064-0.73-0.167-1.067l0.007 0.027c4.813-2.947 5.68-11.093 5.813-12.627h1.347v4.333zM17.853 18.373c-0.467-0.209-1.012-0.332-1.586-0.333h-0.001c-0.585 0.004-1.139 0.132-1.639 0.357l0.026-0.010c-3.667-1.533-4.867-8.147-5.133-10.013h13.040c-0.173 1.747-1.12 8.413-4.707 10z"
  />
</svg>
