<svg xmlns="http://www.w3.org/2000/svg" viewBox="0 0 32 32">
  <path
    d="M10.92 25.747c-0.547 0-0.707-0.107-0.707-0.693 0.027-8.347 0.013-16.68 0.013-25.027h-8.427c0.32 0.68 0.68 1.347 0.933 2.053 0.227 0.613 0.653 1.147 0.653 1.88-0.013 8.040 0 16.093 0 24.133 0 0.267-0.013 0.52-0.147 0.787-0.493 0.987-0.947 2-1.413 3.027 0.080 0.027 0.133 0.067 0.187 0.067 6.24 0 12.467 0 18.707 0.013 0.307 0 0.44-0.147 0.493-0.373 0.547-1.947 1.067-3.88 1.627-5.88h-0.733c-3.72 0-7.453 0-11.173 0z"
  />
  <path
    d="M31.707 6.293c-0.267-0.173-0.2-0.48-0.293-0.72-0.107-0.293-0.24-0.413-0.547-0.16-1.653 1.373-3.32 2.72-4.973 4.080-2.013 1.653-4 3.333-6.027 4.973-0.24 0.2-0.453 0.587-0.947 0.493 1.76-1.813 3.48-3.6 5.227-5.36 0.307-0.32 0.467-0.667 0.547-1.093 0.12-0.693 0.44-1.28 1.040-1.72 0.933-0.667 1.827-1.4 2.773-2.053 0.387-0.267 0.187-0.373 0-0.533-1.373-1.173-3.027-1.533-4.787-1.613-0.28 0-0.48 0.080-0.667 0.28-0.667 0.72-1.333 1.427-2.013 2.12-2.013 2.067-4.040 4.133-6.053 6.2-0.040 0.040-0.147 0.093-0.067 0.187 0.187 0.067 0.28-0.053 0.413-0.133 1.12-0.72 2.24-1.44 3.44-2.053 0.28-0.147 0.64-0.387 0.867-0.147 0.213 0.227-0.107 0.547-0.24 0.773-1.107 1.827-2.48 3.44-3.867 5.040-1.173 1.36-2.32 2.747-3.6 4-0.267 0.267-0.36 0.6-0.347 0.987 0.013 1.427 0 2.853 0 4.28 0 0.16-0.080 0.333 0.093 0.48 3.693-1.973 7.387-3.96 11.093-5.933 0.027-0.013 0.040-0.067 0.067-0.093-0.24-0.040-0.453 0-0.68 0.093-1.080 0.453-2.227 0.733-3.36 1.013-0.373 0.093-0.973 0.253-1.173-0.147-0.173-0.347 0.24-0.733 0.547-1.040 0.853-0.88 1.853-1.573 2.867-2.253 3.067-2.067 6.307-3.84 9.547-5.6 0.373-0.2 0.533-0.36 0.373-0.8-0.36-1.013 0.147-1.8 0.76-2.533v-1.027z"
  />
  <path
    d="M29.467 16.173c-0.653 0.253-1.293 0.573-1.933 0.88-0.2 0.093-0.173 0.32-0.173 0.507-0.027 1.747-0.547 3.373-1.307 4.933-0.6 1.227-1.707 2.16-1.973 3.6-0.16 0.907-0.48 1.8-0.76 2.84 2.2-1.507 3.733-3.347 4.867-5.533 0.787-1.52 1.24-3.147 1.467-4.827 0.093-0.667 0.093-1.347 0.133-2.013 0-0.213-0.027-0.507-0.32-0.4z"
  />
  <path
    d="M11.88 4.707c2.16-0.507 4.333-0.48 6.48 0.107 0.293 0.080 0.44 0.027 0.6-0.173 0.413-0.533 0.8-1.067 1.213-1.627-0.613-0.267-1.227-0.427-1.853-0.56-1.84-0.413-3.707-0.453-5.573-0.267-1.080 0.107-1.24 0.227-1.24 1.28 0 0.32 0 0.64 0 0.96 0 0.28 0.067 0.347 0.373 0.28z"
  />
  <path d="M2.040 9.933c-2.333 2.427-2.32 11.427 0 13.653v-13.653z" />
  <path
    d="M29.573 13.053c-0.053-0.2 0.053-0.427-0.173-0.653-2.187 1.373-4.4 2.747-6.6 4.12 0 0.040 0.013 0.067 0.027 0.107 0.12 0 0.267 0.040 0.373 0 1.907-0.733 3.8-1.467 5.707-2.213 0.933-0.373 0.947-0.387 0.68-1.347z"
  />
</svg>
