<svg xmlns="http://www.w3.org/2000/svg" viewBox="0 0 22 22">
  <g clip-path="url(#clip0_0_1296)">
    <path
      d="M12.5761 16.5V7.8573C12.5761 6.85012 14.1515 6.85012 14.1515 7.8573V16.5C14.1515 17.5073 12.5761 17.5073 12.5761 16.5ZM7.84836 16.5V7.8573C7.84836 6.85012 9.42452 6.85012 9.42452 7.8573V16.5C9.4245 17.5073 7.84836 17.5073 7.84836 16.5ZM21.2431 3.92865H17.3038V2.35667C17.3038 1.05522 16.2444 0 14.9643 0H7.0606C5.75544 0 4.6968 1.05524 4.6968 2.35667V3.92865H0.757448C-0.252483 3.92865 -0.252483 5.49927 0.757448 5.49927H21.2431C22.2523 5.49927 22.2523 3.92865 21.2431 3.92865ZM6.27293 2.35665C6.27293 1.93924 6.64204 1.57059 7.06058 1.57059H14.9643C15.3829 1.57059 15.7276 1.88993 15.7276 2.35665V3.92863H6.27293V2.35665ZM16.5154 22H5.48445C4.18001 22 3.12137 20.9449 3.12137 19.6434V7.8573C3.12137 7.39058 3.49047 7.07127 3.90901 7.07127C4.32767 7.07127 4.69677 7.39058 4.69677 7.8573V19.6434C4.69677 20.06 5.06661 20.4286 5.48442 20.4286H16.5154C16.9339 20.4286 17.3038 20.06 17.3038 19.6434V7.88164C17.3038 6.85012 18.8792 6.85012 18.8792 7.88164V19.6434C18.8792 20.9449 17.8206 22 16.5154 22Z"
      fill="#4AB2DA"
    />
  </g>
  <defs>
    <clipPath id="clip0_0_1296">
      <rect width="22" height="22" fill="white" />
    </clipPath>
  </defs>
</svg>
