<svg xmlns="http://www.w3.org/2000/svg" viewBox="0 0 15 17">
  <path
    d="M10.692 2.65386C11.1511 2.65386 11.5913 2.8362 11.9159 3.16078C12.2404 3.48536 12.4228 3.92558 12.4228 4.38461V14.3845C12.4228 14.8435 12.2404 15.2837 11.9159 15.6083C11.5913 15.9329 11.1511 16.1152 10.692 16.1152H1.84598C1.38696 16.1152 0.946737 15.9329 0.622159 15.6083C0.29758 15.2837 0.115234 14.8435 0.115234 14.3845V4.38461C0.115234 3.92558 0.29758 3.48536 0.622159 3.16078C0.946737 2.8362 1.38696 2.65386 1.84598 2.65386H10.692ZM10.692 3.80769H1.84598C1.77022 3.80769 1.6952 3.82261 1.62521 3.8516C1.55521 3.8806 1.49161 3.92309 1.43804 3.97666C1.38447 4.03024 1.34197 4.09384 1.31298 4.16383C1.28399 4.23382 1.26907 4.30884 1.26907 4.38461V14.3845C1.26907 14.5375 1.32985 14.6842 1.43804 14.7924C1.54623 14.9006 1.69298 14.9614 1.84598 14.9614H10.692C10.845 14.9614 10.9918 14.9006 11.1 14.7924C11.2082 14.6842 11.2689 14.5375 11.2689 14.3845V4.38461C11.2689 4.2316 11.2082 4.08486 11.1 3.97666C10.9918 3.86847 10.845 3.80769 10.692 3.80769Z"
  />
  <path
    d="M3.57673 5.53844H8.96128C9.34589 5.53844 9.5382 5.73074 9.5382 6.11535C9.5382 6.49996 9.34589 6.69227 8.96128 6.69227H3.57673C3.19212 6.69227 2.99982 6.49996 2.99982 6.11535C2.99982 5.73074 3.19212 5.53844 3.57673 5.53844Z"
  />
  <path
    d="M3.57673 8.23071H8.96128C9.34589 8.23071 9.5382 8.42302 9.5382 8.80763C9.5382 9.19224 9.34589 9.38454 8.96128 9.38454H3.57673C3.19212 9.38454 2.99982 9.19224 2.99982 8.80763C2.99982 8.42302 3.19212 8.23071 3.57673 8.23071Z"
  />
  <path
    d="M3.57673 10.923H6.65362C7.03823 10.923 7.23053 11.1153 7.23053 11.4999C7.23053 11.8845 7.03823 12.0768 6.65362 12.0768H3.57673C3.19212 12.0768 2.99982 11.8845 2.99982 11.4999C2.99982 11.1153 3.19212 10.923 3.57673 10.923Z"
  />
  <path
    d="M3.76904 1.50002H12.9997C13.1527 1.50002 13.2994 1.56081 13.4076 1.669C13.5158 1.77719 13.5766 1.92393 13.5766 2.07694V12.4614C13.5766 12.6144 13.6374 12.7612 13.7456 12.8694C13.8538 12.9776 14.0005 13.0383 14.1535 13.0383C14.3065 13.0383 14.4533 12.9776 14.5615 12.8694C14.6697 12.7612 14.7304 12.6144 14.7304 12.4614V2.07694C14.7304 1.61792 14.5481 1.17769 14.2235 0.853116C13.8989 0.528538 13.4587 0.346191 12.9997 0.346191H3.76904C3.61603 0.346191 3.46929 0.406974 3.3611 0.515166C3.2529 0.623359 3.19212 0.7701 3.19212 0.923108C3.19212 1.07612 3.2529 1.22286 3.3611 1.33105C3.46929 1.43924 3.61603 1.50002 3.76904 1.50002Z"
  />
</svg>
