<svg xmlns="http://www.w3.org/2000/svg" viewBox="0 0 49 45">
  <path
    d="M16.7202 35.2733C17.3365 35.2733 17.9203 35.3868 18.4718 35.6139C19.0232 35.8409 19.5016 36.1572 19.9071 36.5627C20.3126 36.9681 20.6369 37.4466 20.8802 37.998C21.1235 38.5494 21.2451 39.1333 21.2451 39.7496C21.2451 40.3659 21.1235 40.9497 20.8802 41.5011C20.6369 42.0526 20.3126 42.531 19.9071 42.9365C19.5016 43.3419 19.0232 43.6663 18.4718 43.9096C17.9203 44.1529 17.3365 44.2745 16.7202 44.2745C16.0714 44.2745 15.4714 44.1529 14.9199 43.9096C14.3685 43.6663 13.8901 43.3419 13.4846 42.9365C13.0792 42.531 12.7548 42.0526 12.5115 41.5011C12.2682 40.9497 12.1466 40.3659 12.1466 39.7496C12.1466 39.1333 12.2682 38.5494 12.5115 37.998C12.7548 37.4466 13.0792 36.9681 13.4846 36.5627C13.8901 36.1572 14.3685 35.8409 14.9199 35.6139C15.4714 35.3868 16.0714 35.2733 16.7202 35.2733ZM36.9607 35.3706C37.577 35.3706 38.169 35.4841 38.7366 35.7112C39.3043 35.9382 39.7908 36.2545 40.1963 36.66C40.6017 37.0654 40.9261 37.5439 41.1694 38.0953C41.4126 38.6467 41.5343 39.2306 41.5343 39.8469C41.5343 40.4632 41.4126 41.047 41.1694 41.5985C40.9261 42.1499 40.6017 42.6283 40.1963 43.0338C39.7908 43.4392 39.3043 43.7636 38.7366 44.0069C38.169 44.2502 37.577 44.3718 36.9607 44.3718C36.3444 44.3718 35.7605 44.2502 35.2091 44.0069C34.6577 43.7636 34.1793 43.4392 33.7738 43.0338C33.3683 42.6283 33.044 42.1499 32.8007 41.5985C32.5574 41.047 32.4358 40.4632 32.4358 39.8469C32.4358 39.2306 32.5574 38.6467 32.8007 38.0953C33.044 37.5439 33.3683 37.0654 33.7738 36.66C34.1793 36.2545 34.6577 35.9382 35.2091 35.7112C35.7605 35.4841 36.3444 35.3706 36.9607 35.3706ZM45.1348 7.7345C46.043 7.7345 46.7485 7.85614 47.2513 8.09942C47.754 8.34269 48.1108 8.64273 48.3217 8.99954C48.5325 9.35634 48.6298 9.73747 48.6136 10.1429C48.5974 10.5484 48.5406 10.8971 48.4433 11.189C48.346 11.4809 48.1352 12.081 47.8108 12.9893C47.4864 13.8975 47.1377 14.8949 46.7647 15.9815C46.3917 17.0682 46.0187 18.1467 45.6456 19.2171C45.2726 20.2875 44.9726 21.1309 44.7455 21.7472C44.3238 23.0446 43.7967 23.9448 43.1642 24.4475C42.5317 24.9503 41.7451 25.2017 40.8045 25.2017H39.1015H35.9876H31.9006H27.327H15.2605L15.9417 29.5806H40.5125C42.0695 29.5806 42.848 30.2456 42.848 31.5755C42.848 32.2242 42.6939 32.7919 42.3858 33.2784C42.0776 33.765 41.4694 33.992 40.5612 33.9596H38.2257H33.7495H28.1055H22.4128H17.6933H15.0659C14.4172 33.9596 13.8739 33.8136 13.436 33.5217C12.9981 33.2298 12.6332 32.8486 12.3412 32.3783C12.0493 31.908 11.8141 31.3971 11.6357 30.8457C11.4573 30.2943 11.3195 29.7753 11.2222 29.2887C11.1897 29.0941 11.1005 28.6238 10.9546 27.8777C10.8086 27.1317 10.6302 26.1991 10.4193 25.08C10.2085 23.961 9.97334 22.7122 9.71385 21.3336C9.45435 19.955 9.19486 18.5684 8.93536 17.1736C8.31907 13.8975 7.62168 10.2483 6.8432 6.22619H3.19406C2.70751 6.22619 2.30205 6.10456 1.97768 5.86128C1.65332 5.618 1.38571 5.32607 1.17487 4.98549C0.964036 4.6449 0.818071 4.27999 0.736979 3.89075C0.655887 3.50151 0.615341 3.1447 0.615341 2.82034C0.615341 2.1716 0.834289 1.63639 1.27219 1.21472C1.71008 0.793039 2.30205 0.598419 3.0481 0.630856H7.96226C8.611 0.630856 9.12998 0.728166 9.51923 0.922786C9.90847 1.11741 10.2166 1.36068 10.4437 1.65261C10.6707 1.94454 10.8329 2.24458 10.9302 2.55273C11.0275 2.86088 11.1086 3.12848 11.1735 3.35554C11.2384 3.61504 11.3032 3.97995 11.3681 4.45028C11.433 4.92062 11.4979 5.39906 11.5627 5.88561C11.6601 6.46947 11.7574 7.08577 11.8547 7.7345H45.1348ZM43.3345 12.0648L12.8764 11.9675L14.5794 20.7741L40.026 20.8227L43.3345 12.0648Z"
    fill="url(#paint0_linear_955_60429)"
  />
  <defs>
    <linearGradient
      id="paint0_linear_955_60429"
      gradientUnits="userSpaceOnUse"
      x1="24.6153"
      x2="24.6153"
      y1="0.62738"
      y2="44.3718"
    >
      <stop stop-color="#FFF8BB" />
      <stop offset="1" stop-color="#FFDC5F" />
    </linearGradient>
  </defs>
</svg>
