<svg xmlns="http://www.w3.org/2000/svg" viewBox="0 0 44 43">
  <path
    d="M28.8832 11.1633H16.8323C13.978 11.1633 11.6643 13.4771 11.6643 16.3313V28.3818C9.42819 28.2713 8.21924 26.9608 8.21924 24.631V11.4766C8.21924 9.0406 9.54157 7.71826 11.9775 7.71826H25.132C27.4617 7.71826 28.7727 8.92722 28.8832 11.1633Z"
    fill="#C7CBDD"
    opacity="0.3"
  />
  <path
    d="M18.8677 14.6084H32.0221C34.4585 14.6084 35.7805 15.9307 35.7805 18.3667V31.5212C35.7805 33.9576 34.4585 35.2795 32.0221 35.2795H18.8677C16.4313 35.2795 15.1094 33.9576 15.1094 31.5212V18.3667C15.1094 15.9307 16.4317 14.6084 18.8677 14.6084Z"
    fill="#8B90A9"
  />
</svg>
