<svg xmlns="http://www.w3.org/2000/svg" viewBox="0 0 32 32">
  <path
    d="M30.44 20.56l-1.080-2.44-3.987 1.747-3.493-2.013 4.2-1.853-4.2-1.853 3.493-2.013 3.987 1.747 1.080-2.427-2.2-0.973 2.28-1.32-1.333-2.32-2.28 1.333 0.253-2.4-2.653-0.28-0.467 4.32-3.493 2.027 0.493-4.573-3.707 2.72v-4.040l3.52-2.573-1.573-2.147-1.947 1.413v-2.64h-2.667v2.64l-1.947-1.413-1.573 2.147 3.52 2.573v4.040l-3.707-2.72 0.493 4.573-3.493-2.027-0.467-4.32-2.653 0.28 0.253 2.4-2.28-1.333-1.333 2.32 2.28 1.32-2.2 0.973 1.080 2.427 3.987-1.747 3.493 2.013-4.2 1.853 4.2 1.853-3.493 2.013-3.987-1.747-1.080 2.44 2.2 0.96-2.28 1.333 1.333 2.307 2.28-1.32-0.253 2.387 2.653 0.293 0.467-4.333 3.493-2.027-0.493 4.573 3.707-2.72v4.040l-3.52 2.573 1.573 2.147 1.947-1.413v2.64h2.667v-2.64l1.947 1.413 1.573-2.147-3.52-2.573v-4.040l3.707 2.72-0.493-4.573 3.493 2.027 0.467 4.333 2.653-0.293-0.253-2.387 2.28 1.32 1.333-2.307-2.28-1.333 2.2-0.96z"
  />
</svg>
