<svg xmlns="http://www.w3.org/2000/svg" viewBox="0 0 32 32">
  <path
    d="M15.335 0h1.33l0.17 0.025c0.605 0.065 1.215 0.1 1.815 0.2 2.288 0.387 4.327 1.213 6.114 2.392l-0.059-0.037c0.078 0.053 0.175 0.085 0.279 0.085 0 0 0.001 0 0.001 0h4.35v4.39c0 0.074 0.021 0.143 0.056 0.202l-0.001-0.002c0.433 0.656 0.852 1.414 1.212 2.204l0.043 0.106c0.69 1.519 1.156 3.282 1.302 5.135l0.003 0.055c0 0.2 0.030 0.405 0.050 0.605v1.28c0 0.060 0 0.12 0 0.18-0.041 0.876-0.148 1.7-0.318 2.501l0.018-0.101c-0.44 2.083-1.227 3.926-2.307 5.56l0.037-0.060c-0.043 0.065-0.069 0.144-0.070 0.23v0c0 1.405 0 2.81 0 4.215v0.165h-4.415c-0.072 0.001-0.139 0.021-0.197 0.056l0.002-0.001c-0.92 0.608-1.974 1.151-3.087 1.577l-0.113 0.038c-1.263 0.488-2.725 0.822-4.248 0.937l-0.052 0.003-0.61 0.060h-1.475c-0.665-0.075-1.33-0.115-2-0.23-2.237-0.402-4.228-1.224-5.973-2.386l0.058 0.036c-0.060-0.036-0.132-0.058-0.209-0.060l-0.001-0c-1.41 0-2.815 0-4.225 0h-0.15v-0.175c0-1.395 0-2.785 0-4.175 0-0 0-0.001 0-0.001 0-0.104-0.032-0.201-0.086-0.281l0.001 0.002c-1.401-2.124-2.316-4.684-2.527-7.441l-0.003-0.054c0-0.19-0.035-0.38-0.050-0.57v-1.33c0-0.060 0-0.115 0.025-0.17 0.036-0.827 0.137-1.606 0.297-2.364l-0.017 0.094c0.427-2.124 1.222-4.006 2.322-5.669l-0.037 0.059c0.046-0.072 0.073-0.16 0.075-0.255v-0c0-1.4 0-2.8 0-4.2v-0.165h4.39c0.078-0.002 0.15-0.024 0.212-0.061l-0.002 0.001c0.727-0.482 1.563-0.935 2.439-1.314l0.106-0.041c1.447-0.63 3.126-1.057 4.885-1.196l0.055-0.004c0.195-0.010 0.39-0.050 0.585-0.050zM26.665 5.335h-0.165c-0.695 0-1.385 0-2.080 0-0.014 0.001-0.030 0.001-0.046 0.001-0.277 0-0.533-0.092-0.737-0.248l0.003 0.002c-2.125-1.516-4.776-2.425-7.639-2.425-1.537 0-3.012 0.262-4.384 0.743l0.093-0.028c-1.378 0.483-2.572 1.12-3.649 1.907l0.039-0.027c-0.060 0.043-0.134 0.070-0.215 0.070h-2.55v0.17c0 0.735 0 1.475 0 2.21 0 0.006 0 0.013 0 0.020 0 0.2-0.066 0.384-0.177 0.533l0.002-0.002c-1.559 2.151-2.493 4.843-2.493 7.753 0 1.527 0.257 2.995 0.731 4.361l-0.028-0.093c0.486 1.38 1.125 2.576 1.917 3.653l-0.027-0.038c0.044 0.061 0.070 0.138 0.070 0.22v0c0 0.8 0 1.6 0 2.4v0.15h0.17c0.735 0 1.475 0 2.21 0 0.006-0 0.013-0 0.020-0 0.2 0 0.384 0.066 0.533 0.177l-0.002-0.002c2.148 1.561 4.838 2.497 7.747 2.497 1.474 0 2.892-0.24 4.217-0.684l-0.094 0.027c1.441-0.483 2.692-1.14 3.814-1.962l-0.039 0.027c0.058-0.044 0.132-0.070 0.212-0.070 0.001 0 0.002 0 0.003 0h2.55v-0.175c0-0.775 0-1.555 0-2.33-0-0.007-0.001-0.015-0.001-0.023 0-0.116 0.040-0.223 0.106-0.308l-0.001 0.001c0.505-0.687 0.967-1.466 1.35-2.29l0.035-0.085c0.576-1.233 0.974-2.666 1.116-4.173l0.004-0.052c0.037-0.371 0.058-0.801 0.058-1.237 0-2.071-0.475-4.031-1.322-5.777l0.035 0.079c-0.41-0.846-0.846-1.569-1.339-2.247l0.029 0.042c-0.043-0.060-0.069-0.134-0.070-0.215v-0c0-0.795 0-1.59 0-2.39z"
  />
  <path
    d="M13 17.105l3-7.77 3 7.77h0.030c0.045-0.175 0.095-0.355 0.135-0.53q0.685-2.705 1.355-5.41c0.029-0.103 0.045-0.222 0.045-0.345 0-0.225-0.056-0.437-0.154-0.623l0.003 0.007-0.365-0.735c0-0.040-0.040-0.080-0.060-0.13h5.3c-0.020 0.030-0.042 0.056-0.065 0.080l0-0c-0.245 0.25-0.5 0.5-0.745 0.74-0.342 0.309-0.581 0.726-0.663 1.197l-0.002 0.013c-0.545 2.5-1.11 5-1.67 7.53-0.225 1.030-0.46 2.060-0.675 3.090-0.020 0.084-0.032 0.18-0.032 0.278 0 0.332 0.13 0.634 0.342 0.857l-0-0.001c0.245 0.265 0.5 0.5 0.75 0.76l0.1 0.105h-5.285l0.045-0.1c0.17-0.35 0.345-0.695 0.5-1.040 0.011-0.025 0.017-0.054 0.017-0.085s-0.006-0.060-0.017-0.087l0.001 0.002q-0.89-2.64-1.865-5.27s0 0-0.030-0.050l-0.125 0.325q-0.885 2.5-1.775 4.955c-0.018 0.034-0.028 0.075-0.028 0.117s0.010 0.083 0.029 0.119l-0.001-0.001c0.17 0.33 0.33 0.66 0.5 1 0 0.040 0.035 0.080 0.055 0.13h-5.295l0.065-0.080c0.205-0.21 0.41-0.425 0.625-0.625 0.303-0.269 0.493-0.659 0.493-1.094 0-0.145-0.021-0.285-0.060-0.417l0.003 0.010c-0.47-2.070-0.925-4.145-1.39-6.215l-1-4.5c-0.062-0.267-0.196-0.497-0.38-0.675l-0-0-0.93-0.96-0.1-0.11h5.32c0 0.040 0 0.075-0.040 0.105-0.125 0.245-0.245 0.5-0.37 0.74-0.1 0.186-0.158 0.406-0.158 0.64 0 0.128 0.018 0.252 0.050 0.37l-0.002-0.010q0.735 2.925 1.465 5.85c-0.001 0.009-0.002 0.019-0.002 0.030s0.001 0.021 0.002 0.031l-0-0.001z"
  />
</svg>
