<svg xmlns="http://www.w3.org/2000/svg" viewBox="0 0 32 32">
  <path
    d="M16 32c-0.135-0.13-0.26-0.24-0.38-0.365l-11-11.36c-0.074-0.076-0.12-0.18-0.12-0.294 0-0.007 0-0.014 0.001-0.022l-0 0.001q0-6.88-0.045-13.745c-0-0.006-0-0.012-0-0.019 0-0.133 0.058-0.253 0.15-0.335l0-0 5.775-5.705c0.073-0.077 0.176-0.125 0.291-0.125 0.003 0 0.007 0 0.010 0h-0.001q5.35-0.030 10.69-0.030c0.005-0 0.010-0 0.016-0 0.096 0 0.183 0.040 0.244 0.105l0 0 5.835 5.895c0.062 0.057 0.1 0.138 0.1 0.228 0 0.006-0 0.012-0 0.017l0-0.001v14c0 0.002 0 0.005 0 0.008 0 0.093-0.038 0.177-0.1 0.237l-0 0q-5.675 5.7-11.35 11.41zM15.955 30l0.125-0.115 10.18-10c0.077-0.067 0.126-0.166 0.126-0.275 0-0.007-0-0.014-0.001-0.020l0 0.001v-12.805c0-0.004 0-0.008 0-0.013 0-0.102-0.040-0.194-0.105-0.263l0 0q-2.585-2.66-5.175-5.335c-0.060-0.068-0.147-0.11-0.244-0.11-0.004 0-0.008 0-0.012 0l0.001-0h-9.545c-0.005-0-0.010-0-0.015-0-0.090 0-0.171 0.036-0.23 0.095v0l-5.445 5.26c-0.071 0.062-0.115 0.152-0.115 0.253 0 0.006 0 0.012 0 0.018l-0-0.001v12.945c-0 0.004-0 0.009-0 0.014 0 0.107 0.046 0.204 0.12 0.271l0 0 10.21 9.95z"
  />
  <path
    d="M13.635 6.805h-6.635c0.045-0.050 0.065-0.085 0.095-0.115l4.095-4.285c0.058-0.062 0.14-0.101 0.231-0.101 0.010 0 0.020 0 0.030 0.001l-0.001-0h9.105c0.004-0 0.010-0 0.015-0 0.085 0 0.162 0.037 0.215 0.095l0 0 4.16 4.29 0.075 0.085h-6.715c0 0.045 0 0.1 0 0.15v1q0 8.955 0.035 17.905c0 0.003 0 0.007 0 0.011 0 0.13-0.056 0.247-0.145 0.329l-0 0q-1.035 1.030-2.065 2.065c-0.043 0.044-0.083 0.092-0.122 0.141l-0.003 0.004-0.14-0.12-2.145-2.055c-0.071-0.063-0.116-0.154-0.116-0.255 0-0.007 0-0.014 0.001-0.021l-0 0.001q0-4.695 0-9.395t0-9.525z"
  />
  <path
    d="M10.5 22.78l-0.135-0.12-3.365-3.16c-0.071-0.063-0.115-0.154-0.115-0.255 0-0.005 0-0.010 0-0.016l-0 0.001-0.045-10.23v-0.21c0.125-0.035 4.28-0.040 4.6 0 0 0.060 0 0.12 0 0.185v8.405c-0.001 0.010-0.001 0.021-0.001 0.033 0 0.123 0.055 0.233 0.141 0.307l0.001 0 1.73 1.73c0.047 0.044 0.091 0.090 0.133 0.138l0.002 0.002z"
  />
  <path
    d="M21.65 22.765l-3.125-3.095 0.125-0.135q0.915-0.975 1.835-1.945c0.078-0.075 0.126-0.179 0.126-0.295 0-0.009-0-0.017-0.001-0.026l0 0.001q-0.035-4.13-0.065-8.26v-0.225c0.125-0.035 4.29-0.045 4.5 0 0 0.050 0 0.105 0 0.155q0 5.155 0.035 10.295c0 0.005 0 0.011 0 0.017 0 0.092-0.039 0.174-0.1 0.233l-0 0-3.23 3.185z"
  />
</svg>
