<svg xmlns="http://www.w3.org/2000/svg" viewBox="0 0 32 32">
  <path
    d="M19.92 6.132c0.461 0.262 1.013 0.417 1.6 0.417 1.811 0 3.28-1.468 3.28-3.28s-1.468-3.28-3.28-3.28c-1.217 0-2.279 0.663-2.845 1.647l-0.008 0.016c-0.268 0.465-0.426 1.022-0.426 1.617 0 1.224 0.67 2.291 1.663 2.855l0.016 0.008z"
  />
  <path
    d="M13.053 12.265c0.471 0.277 1.037 0.44 1.641 0.44 1.812 0 3.28-1.469 3.28-3.28s-1.468-3.28-3.28-3.28c-1.208 0-2.263 0.653-2.832 1.625l-0.008 0.015c-0.276 0.47-0.439 1.036-0.439 1.64 0 1.207 0.652 2.262 1.624 2.832l0.015 0.008z"
  />
  <path
    d="M31.027 17.892v0 0l-3.32-8.693c-0.554-1.402-1.898-2.375-3.468-2.375-2.055 0-3.72 1.665-3.72 3.72 0 0.118 0.006 0.235 0.016 0.35l-0.001-0.015c0.035 0.178 0.055 0.382 0.055 0.591 0 1.343-0.831 2.492-2.007 2.961l-0.021 0.008c-0.506 0.15-1.088 0.236-1.69 0.236-1.814 0-3.444-0.784-4.572-2.031l-0.005-0.005c-0.168-0.285-0.362-0.53-0.586-0.746l-0.001-0.001-0.107-0.107c-0.646-0.61-1.519-0.985-2.48-0.985-1.034 0-1.966 0.434-2.625 1.13l-0.002 0.002-4.267 4.507c-0.629 0.657-1.016 1.55-1.016 2.534 0 1.050 0.441 1.996 1.148 2.665l0.002 0.002 2.667 2.547-4.067 4.16 2.667 2.533 4.080-4.2c0.622-0.656 1.004-1.544 1.004-2.521 0-0.716-0.205-1.383-0.56-1.948l0.009 0.015c1.104 0.254 1.936 1.167 2.066 2.294l0.001 0.012v7.48h3.44v-3.88l1.493 0.933 4-6.36 5.613-2.427 2.227-0.853-1.133 3.867c-0.050 0.143-0.079 0.308-0.080 0.48v8.24h3.44v-8l1.813-6.133zM16.8 20.012l-3.133 5.027v-0.507c-0.156-2.43-1.705-4.463-3.852-5.319l-0.041-0.015 2.067-2.187c0.080-0.080 0.133-0.173 0.213-0.267 1.388 0.87 3.070 1.397 4.872 1.427l0.008 0c1.006-0.003 1.968-0.189 2.856-0.525l-0.056 0.019c1.011-0.39 1.864-0.991 2.541-1.753l0.006-0.007 0.573 1.467z"
  />
</svg>
