<svg xmlns="http://www.w3.org/2000/svg" viewBox="0 0 258.32 253">
  <g>
    <path
      class="cls-3"
      d="M83.62,190.64c-1.96,1.21-5.06,2.71-9.42,3.66-8.21,1.78-17.23,2.22-19.1,1.11,0,0,6.62-6.16,8.01-14.64,1.64-7.39-.07-9.6-.07-9.6l.03,.02c-12.56-16.79-19.42-39.78-19.42-70.24,0-32.71,14.24-62.05,37.77-81.94h-13.12c-25.64,0-46.62,20.98-46.62,46.62v121.76c0,25.64,20.98,46.62,46.62,46.62h121.76c25.64,0,46.62-20.98,46.62-46.62v-9.69c-20.52,19.62-48.85,31.75-80.14,31.75-27.76,0-53.19-5.6-72.9-18.8Z"
      style="fill: #000"
    />
    <path
      class="cls-3"
      d="M230.46,42.46c.38,.65,.74,1.31,1.08,1.98-.34-.67-.7-1.33-1.08-1.98Z"
      style="fill: #000"
    />
    <path
      class="cls-3"
      d="M193.61,19.14c2.75,.21,5.44,.66,8.04,1.34-2.6-.67-5.29-1.13-8.04-1.34Z"
      style="fill: #000"
    />
    <path
      class="cls-3"
      d="M231.54,44.44c.34,.67,.67,1.35,.99,2.04-.31-.69-.64-1.37-.99-2.04Z"
      style="fill: #000"
    />
    <path
      class="cls-3"
      d="M233.82,49.63c.26,.71,.51,1.43,.74,2.16-.23-.73-.47-1.45-.74-2.16Z"
      style="fill: #000"
    />
    <path
      class="cls-3"
      d="M234.55,51.79c.23,.73,.44,1.46,.63,2.21-.19-.74-.4-1.48-.63-2.21Z"
      style="fill: #000"
    />
    <path
      class="cls-3"
      d="M229.29,40.54c.41,.63,.8,1.27,1.17,1.92-.38-.65-.77-1.29-1.17-1.92Z"
      style="fill: #000"
    />
    <path
      class="cls-3"
      d="M224.51,34.32c-1.01-1.11-2.06-2.16-3.17-3.17,1.11,1.01,2.16,2.06,3.17,3.17Z"
      style="fill: #000"
    />
    <path
      class="cls-3"
      d="M225.98,36.01c.95,1.15,1.85,2.35,2.69,3.59-.84-1.24-1.74-2.44-2.69-3.59Z"
      style="fill: #000"
    />
    <path
      class="cls-3"
      d="M201.66,20.47c6.69,1.73,12.81,4.92,17.99,9.21-5.19-4.28-11.3-7.47-17.99-9.21Z"
      style="fill: #000"
    />
    <path
      class="cls-3"
      d="M193.61,19.14c-1.18-.09-2.37-.14-3.57-.14h0c1.2,0,2.39,.05,3.57,.14Z"
      style="fill: #000"
    />
    <path
      class="cls-3"
      d="M224.51,34.32c.5,.55,.99,1.12,1.47,1.69-.48-.58-.97-1.14-1.47-1.69Z"
      style="fill: #000"
    />
    <path
      class="cls-3"
      d="M219.65,29.68c.58,.48,1.14,.97,1.69,1.47-.55-.5-1.12-.99-1.69-1.47Z"
      style="fill: #000"
    />
  </g>
  <path
    class="cls-2"
    d="M236.66,161.1l-29.44-48.52L55.09,195.4l38.34,38.6h96.61c25.64,0,46.62-20.98,46.62-46.62v-26.28Z"
    style="fill: #000"
  />
  <path
    d="M190.04,19H81.4c-23.53,19.89-37.77,49.22-37.77,81.94,0,30.46,6.86,53.45,19.42,70.24l-.03-.02s1.71,2.21,.07,9.6c-1.39,8.49-8.01,14.64-8.01,14.64,1.87,1.11,10.89,.67,19.1-1.11,4.37-.94,7.47-2.45,9.42-3.66,19.71,13.2,45.14,18.8,72.9,18.8,31.29,0,59.63-12.13,80.14-31.75V65.62c0-25.64-20.98-46.62-46.62-46.62Z"
    style="fill: #fff"
  />
  <g>
    <path
      class="cls-3"
      d="M198.71,100.11c-11.59,0-20.99,9.4-20.99,20.99s9.4,20.99,20.99,20.99,20.99-9.4,20.99-20.99-9.4-20.99-20.99-20.99Zm0,33.03c-6.65,0-12.04-5.39-12.04-12.04s5.39-12.04,12.04-12.04,12.04,5.39,12.04,12.04-5.39,12.04-12.04,12.04Z"
      style="fill: #000"
    />
    <path
      class="cls-3"
      d="M148.07,101.52v2.86c-3.31-2.32-7.35-3.69-11.7-3.69-11.27,0-20.4,9.14-20.4,20.4s9.14,20.4,20.4,20.4c4.36,0,8.4-1.37,11.71-3.7,.11,1.78,1.59,3.2,3.4,3.2h5.29v-39.48h-8.7Zm-11.7,31.28c-6.46,0-11.7-5.24-11.7-11.7s5.24-11.7,11.7-11.7,11.7,5.24,11.7,11.7-5.24,11.7-11.7,11.7Z"
      style="fill: #000"
    />
    <path
      class="cls-3"
      d="M172.4,141h-2.7c-3.48,0-6.3-2.82-6.3-6.3v-46.25h9v52.54Z"
      style="fill: #000"
    />
    <path
      class="cls-3"
      d="M83.94,132.54c2.44-3.06,27.96-35.13,28.75-36.26,.83-1.19,1.02-3.24,1.02-3.24v-4.07h-1.38s-40.12-.01-40.12-.01v9.14h28.71c-4.83,5.91-29.85,36.55-29.82,37.48,.03,1.02,0,5.64,0,5.64h39.35c1.88,0,3.41-1.53,3.41-3.41v-5.26h-29.91Z"
      style="fill: #000"
    />
  </g>
</svg>
